<svg xmlns="http://www.w3.org/2000/svg" width="598.94" height="50mm" viewBox="0 0 158.469 50"><g style="display:inline"><g style="font-style:normal;font-variant:normal;font-weight:400;font-stretch:normal;font-size:23.1264px;line-height:125%;font-family:STIXGeneral;-inkscape-font-specification:STIXGeneral;letter-spacing:0;word-spacing:0;fill:#000;fill-opacity:1;stroke:none;stroke-width:.57816px;stroke-linecap:butt;stroke-linejoin:miter;stroke-opacity:1"><path d="M81.684 121.084c.948-1.71 2.012-2.451 3.445-2.451 1.527 0 2.498.786 2.498 2.359 0 1.41-.74 2.451-1.873 3.099-.463.277-1.064.532-1.943.832v.324c1.318 0 1.85.07 2.36.231 1.595.463 2.404 1.596 2.404 3.354 0 1.966-1.295 3.538-3.006 3.538-.648 0-1.133-.116-1.989-.717-.648-.462-1.018-.601-1.41-.601-.533 0-.949.347-.949.832 0 .833.902 1.319 2.59 1.319 2.059 0 4.256-.671 5.366-2.151.67-.879 1.063-2.012 1.063-3.238 0-1.202-.37-2.266-1.017-2.983-.486-.509-.902-.786-1.92-1.226 1.55-.925 2.151-2.081 2.151-3.191 0-1.897-1.457-3.169-3.608-3.169-2.405 0-3.862 1.55-4.532 3.747z" aria-label="3" style="stroke-width:.57816px" transform="translate(10.03 -108.608)"/></g><text xml:space="preserve" x="-70.967" y="102.461" style="font-style:normal;font-weight:400;font-size:10.5833px;line-height:1.25;font-family:sans-serif;fill:#000;fill-opacity:1;stroke:none;stroke-width:.264583" transform="translate(10.03 -108.608)"/><path d="M57.587 150.332v-.554c-2.763 0-3.5-.664-3.5-2.251V125.49l-.332-.11-6.594 3.358v.517l.994-.37c.663-.258 1.29-.442 1.658-.442.774 0 1.105.554 1.105 1.809v16.572c0 2.03-.773 2.806-3.5 2.953v.554z" style="font-style:normal;font-variant:normal;font-weight:400;font-stretch:normal;font-size:36.8415px;line-height:125%;font-family:STIXGeneral;-inkscape-font-specification:STIXGeneral;letter-spacing:0;word-spacing:0;fill:#000;fill-opacity:1;stroke:none;stroke-width:.921901px;stroke-linecap:butt;stroke-linejoin:miter;stroke-opacity:1" transform="translate(10.03 -108.608)"/><path d="M78.888 137.94c0-7.497-3.352-12.653-8.179-12.653-5.931 0-8.473 5.96-8.473 12.434 0 5.997 2.026 12.8 8.326 12.8 6.005 0 8.326-6.29 8.326-12.58zm-3.537.183c0 7.24-1.658 11.446-4.789 11.446-3.168 0-4.79-4.169-4.79-11.592 0-7.424 1.658-11.74 4.716-11.74 3.242 0 4.863 4.28 4.863 11.886z" style="font-style:normal;font-variant:normal;font-weight:400;font-stretch:normal;font-size:36.8415px;line-height:125%;font-family:STIXGeneral;-inkscape-font-specification:STIXGeneral;letter-spacing:0;word-spacing:0;fill:#000;fill-opacity:1;stroke:none;stroke-width:.917641px;stroke-linecap:butt;stroke-linejoin:miter;stroke-opacity:1" transform="translate(10.03 -108.608)"/><text xml:space="preserve" x="19.392" y="87.603" style="font-style:normal;font-variant:normal;font-weight:400;font-stretch:normal;font-size:7.40833px;line-height:125%;font-family:Baskerville;-inkscape-font-specification:Baskerville;letter-spacing:0;word-spacing:0;display:inline;fill:#000;fill-opacity:1;stroke:none;stroke-width:.181169px;stroke-linecap:butt;stroke-linejoin:miter;stroke-opacity:1" transform="translate(10.03 -108.608)"><tspan x="19.392" y="87.603" style="font-style:normal;font-variant:normal;font-weight:400;font-stretch:normal;font-size:7.40833px;font-family:Baskerville;-inkscape-font-specification:Baskerville;stroke-width:.181169px">base</tspan></text><text xml:space="preserve" x="104.854" y="83.554" style="font-style:normal;font-variant:normal;font-weight:400;font-stretch:normal;font-size:7.40833px;line-height:125%;font-family:Baskerville;-inkscape-font-specification:Baskerville;letter-spacing:0;word-spacing:0;display:inline;fill:#000;fill-opacity:1;stroke:none;stroke-width:.181169px;stroke-linecap:butt;stroke-linejoin:miter;stroke-opacity:1" transform="translate(10.03 -108.608)"><tspan x="104.854" y="83.554" style="font-style:normal;font-variant:normal;font-weight:400;font-stretch:normal;font-size:7.40833px;font-family:Baskerville;-inkscape-font-specification:Baskerville;stroke-width:.181169px">exponent</tspan></text><g aria-label="base" style="font-size:5.29167px;line-height:1.25;font-family:sans-serif;stroke-width:.264583"><path d="M85.348 141.186q-.36-.027-.642-.151-.281-.122-.464-.309-.19-.198-.277-.425-.084-.226-.065-.489.018-.245.091-.423.07-.18.181-.35l-.131-.04.033-.454 4.01.297-.036.484-1.433-.106q.153.216.241.453.092.238.07.524-.037.51-.45.775-.414.267-1.128.214zm.024-.5q.515.037.793-.113.28-.15.309-.529.016-.211-.061-.435-.074-.223-.205-.419l-1.649-.122q-.108.2-.155.343-.047.147-.061.335-.03.402.216.649.249.249.813.29zM83.266 144.016l.106-.471.3.067q-.029-.072-.083-.198-.052-.123-.074-.234-.032-.132-.035-.294-.006-.163.04-.37.086-.38.398-.588.311-.208.702-.12.32.071.486.252.168.183.225.463.055.283.015.652-.041.37-.114.788l.073.016q.162.036.28.002.119-.032.203-.124.08-.088.133-.224.052-.137.086-.29.042-.187.043-.428.004-.24-.035-.506l.006-.025.482.108q.006.147-.007.42-.014.272-.07.527-.068.297-.167.505-.098.211-.253.346-.151.133-.354.175-.203.042-.475-.02zm.799-.315.784.176q.036-.22.077-.52.04-.299.031-.48-.012-.218-.107-.372-.093-.153-.307-.201-.242-.055-.398.064-.154.119-.222.419-.056.25-.006.478.052.229.148.436zM83.042 147.138q-.37-.138-.493-.534-.124-.393.074-.923.112-.3.276-.526.166-.222.313-.36l.511.19-.009.024q-.242.155-.437.383-.193.229-.283.471-.112.3-.079.506.034.205.242.283.16.06.277-.002.116-.061.272-.301.058-.089.145-.236.087-.144.169-.26.227-.32.465-.402.239-.08.505.02.167.062.29.185.121.125.185.309.063.178.05.41-.01.236-.106.495-.09.242-.243.467-.151.227-.297.36l-.487-.18.01-.025q.192-.127.372-.343.183-.216.272-.456.093-.25.06-.457-.03-.208-.219-.278-.167-.062-.29.01-.123.07-.261.278-.076.115-.163.26-.088.146-.15.241-.191.29-.432.396-.243.105-.539-.005zM82.058 150.272l1.003-1.875q-.234-.126-.447-.149-.211-.022-.389.041-.173.06-.314.193-.142.134-.247.33-.14.26-.177.577-.037.32.004.485l-.012.023-.467-.25q.024-.265.084-.523.059-.259.192-.507.339-.633.87-.806.535-.171 1.166.167.624.334.81.87.183.538-.115 1.094-.275.514-.725.631-.45.12-1.004-.177zm.551-.242q.338.179.613.109.274-.068.457-.41.184-.343.09-.657-.093-.311-.38-.5z" style="font-size:5.29167px;stroke-width:.264583" transform="rotate(162 83.648 65.539)"/></g><g aria-label="base" style="font-size:7.9375px;line-height:1.25;font-family:sans-serif;stroke-width:.264583"><path d="M85.233 140.865a1.734 1.734 0 0 1-.578-.131 1.298 1.298 0 0 1-.42-.275 1.144 1.144 0 0 1-.252-.38 1.03 1.03 0 0 1-.062-.44c.01-.148.036-.275.08-.382.04-.108.094-.213.16-.316l-.187-.038.027-.408 3.788.222-.03.436-1.398-.065c.092.129.165.264.22.406.056.142.078.299.066.47a.858.858 0 0 1-.4.7c-.248.163-.585.23-1.014.201zm.019-.45c.309.02.547-.015.713-.107.167-.091.259-.25.274-.478a.975.975 0 0 0-.058-.39 1.575 1.575 0 0 0-.187-.377l-1.485-.099a1.92 1.92 0 0 0-.137.31 1.302 1.302 0 0 0-.053.302c-.016.242.05.436.2.582.15.149.394.234.733.257zM83.415 143.433l.085-.427.272.055-.079-.177q-.049-.11-.071-.209-.031-.118-.037-.264-.009-.146.029-.333.069-.344.345-.538.276-.193.63-.122.29.058.442.217.155.162.211.413.056.253.027.586-.03.333-.086.711l.066.013q.146.03.252-.004.106-.03.18-.115.07-.08.115-.205.044-.124.072-.263.034-.169.03-.385-.002-.217-.042-.455l.005-.022.435.087q.01.132.003.378-.007.245-.053.475-.055.27-.14.459-.084.191-.22.316-.134.122-.316.164-.181.042-.427-.008zm.712-.3.71.142q.027-.198.058-.47.03-.268.019-.432-.016-.195-.104-.332-.087-.136-.28-.175-.22-.044-.358.066-.136.11-.19.381-.046.226.003.43.051.205.142.39zM83.31 146.246q-.337-.112-.46-.464-.124-.35.036-.833.091-.274.231-.482.142-.205.27-.334l.466.155-.007.022q-.213.147-.381.358-.166.212-.24.433-.09.274-.054.457.037.184.227.247.146.049.249-.01.103-.06.235-.28.049-.082.123-.216.073-.133.143-.24.194-.295.405-.377.212-.079.455.002.152.05.267.157.113.109.176.272.063.158.06.368-.003.212-.081.448-.073.22-.203.428-.129.21-.256.334l-.443-.148.007-.022q.17-.12.325-.32.157-.2.23-.42.075-.227.039-.413-.034-.185-.206-.242-.153-.05-.261.019-.109.067-.226.258-.065.106-.138.238-.074.135-.128.222-.162.268-.375.37-.216.103-.485.014zM82.564 149.095l.82-1.73q-.217-.102-.41-.113-.19-.01-.347.054-.153.061-.274.187-.122.127-.208.308-.113.24-.133.526-.019.29.025.436l-.01.021-.431-.204q.01-.24.052-.474.042-.235.15-.464.277-.584.748-.763.472-.178 1.055.098.575.273.765.746.19.476-.053.988-.225.475-.624.6-.4.128-.91-.114zm.485-.241q.312.145.556.07.243-.072.392-.388.15-.317.053-.595-.099-.275-.364-.432z" style="font-size:4.7625px;stroke-width:.264583" transform="rotate(164 72.14 102.22)"/></g><g aria-label="base" style="font-size:7.9375px;line-height:1.25;font-family:sans-serif;stroke-width:.264583"><path d="M84.994 140.229a1.357 1.357 0 0 1-.452-.096 1.009 1.009 0 0 1-.33-.209.89.89 0 0 1-.2-.293.801.801 0 0 1-.053-.341.977.977 0 0 1 .057-.298c.031-.084.071-.166.122-.247l-.113-.014.017-.318 3.118.155-.018.34-1.292-.075c.073.1.132.204.176.314.045.11.064.231.057.365a.667.667 0 0 1-.304.55c-.19.128-.452.184-.785.167zm.009-.351c.24.012.425-.018.553-.09.13-.074.199-.199.208-.376a.759.759 0 0 0-.05-.303 1.225 1.225 0 0 0-.15-.29l-1.155-.06a1.013 1.013 0 0 0-.14.478.552.552 0 0 0 .16.45c.119.114.31.177.574.191zM83.665 142.255l.052-.334.213.033-.067-.135q-.042-.084-.063-.16-.028-.09-.038-.204-.012-.113.011-.26.042-.27.25-.43.208-.16.485-.116.227.035.351.153.126.12.178.313.053.195.041.455-.01.26-.042.556l.052.008q.114.017.196-.012.081-.028.136-.096.052-.065.082-.163.03-.098.046-.207.02-.132.01-.3-.008-.168-.047-.352l.002-.018.342.053q.011.102.015.293.003.191-.025.372-.033.21-.093.36-.058.153-.16.254-.1.1-.24.138-.139.04-.332.01zm.544-.258.555.086q.015-.155.03-.367.014-.21 0-.337-.02-.15-.093-.254-.072-.102-.224-.126-.171-.027-.275.063-.102.09-.135.303-.028.177.018.335.047.157.124.297zM83.735 144.442q-.268-.069-.383-.335-.116-.264-.019-.648.056-.218.153-.387.098-.167.19-.274l.37.094-.004.017q-.157.126-.275.3-.117.173-.162.349-.055.217-.016.358.039.14.19.178.115.03.192-.022.076-.051.166-.23.034-.066.084-.175.05-.106.098-.193.133-.24.293-.316.16-.073.353-.024.12.031.215.107.094.078.153.201.057.12.066.282.01.165-.037.353-.045.175-.134.343-.088.17-.18.273l-.352-.09.004-.017q.125-.102.234-.267.111-.164.155-.338.046-.18.008-.322-.037-.142-.174-.177-.12-.03-.201.029-.08.058-.16.213-.045.086-.095.193-.05.108-.086.18-.111.215-.27.307-.162.092-.376.037zM83.374 146.686l.501-1.401q-.175-.063-.325-.057-.148.007-.265.068-.113.06-.197.166-.085.108-.137.255-.07.194-.063.417.007.226.053.336l-.007.017-.349-.125q-.01-.186.004-.371.015-.185.081-.371.17-.473.52-.648.352-.173.824-.005.466.167.65.519.183.354.034.77-.138.384-.437.511-.3.13-.713-.019zm.357-.224q.252.089.435.012.183-.075.274-.33.092-.257-.005-.465-.097-.206-.314-.306z" style="font-size:3.70417px;stroke-width:.264583" transform="rotate(167 70.648 106.976)"/></g></g><g style="display:inline"><g aria-label="base" style="font-size:7.4083300000000003px;line-height:1.25;font-family:sans-serif;display:inline;fill:#b3b3b3;stroke-width:.264583"><path d="M17.75 139.305q0 .134-.033.283-.03.148-.094.296-.065.145-.17.279-.101.134-.25.238-.144.102-.336.163-.192.062-.434.062h-1.697q-.134 0-.282-.03-.148-.032-.297-.097-.144-.065-.278-.166-.134-.105-.239-.25-.101-.148-.163-.34-.061-.195-.061-.438v-4.243h.94v4.243q0 .174.109.279.108.101.271.101h1.697q.177 0 .275-.105.1-.105.1-.275v-1.273q0-.177-.104-.275-.105-.101-.271-.101h-1.697v-.94h1.697q.134 0 .282.032.148.029.293.094.148.065.282.17.134.101.235.25.101.144.163.336.061.192.061.434zM22.597 139.33q0 .196-.069.424-.069.224-.224.42-.152.191-.402.322-.246.13-.6.13h-1.697q-.195 0-.423-.069-.224-.069-.42-.22-.191-.156-.322-.402-.13-.25-.13-.604 0-.196.069-.423.069-.228.22-.42.156-.195.402-.326.25-.13.604-.13h1.697v.897h-1.697q-.192 0-.296.12-.105.115-.105.289 0 .184.119.29.123.1.29.1h1.689q.191 0 .296-.115.105-.116.105-.29v-1.313q0-.184-.116-.293-.112-.108-.285-.108h-2.066v-.894h2.066q.195 0 .42.07.227.068.419.223.195.152.325.402.13.246.13.6zM27.187 139.305q0 .243-.061.438-.062.192-.163.34-.101.145-.235.25-.134.101-.282.166-.145.065-.297.098-.148.029-.282.029H23.32v-.94h2.54q.191 0 .289-.098.098-.098.098-.283-.018-.376-.38-.376h-1.458q-.311 0-.528-.108-.217-.109-.355-.272-.133-.162-.195-.35-.058-.189-.058-.351 0-.315.112-.529.112-.217.282-.35.17-.134.37-.192.198-.062.372-.062h2.311v.94h-2.304q-.072 0-.116.019-.04.014-.061.043-.018.026-.022.058-.003.03-.003.058.003.058.021.09.018.033.044.048.029.014.061.018h1.527q.362 0 .615.13t.408.33q.156.194.225.426.072.231.072.43zM32.056 138.01q0 .196-.069.424-.068.224-.224.42-.152.191-.401.321-.246.13-.601.13h-1.696v-.893h1.696q.192 0 .297-.116.105-.12.105-.293 0-.184-.12-.29-.116-.104-.282-.104h-1.696q-.192 0-.297.12-.105.115-.105.289v1.313q0 .188.116.293.12.105.293.105h1.69v.897h-1.697q-.196 0-.424-.069-.224-.069-.42-.22-.191-.156-.321-.402-.13-.25-.13-.604v-1.32q0-.196.068-.42.069-.228.22-.42.156-.195.402-.325.25-.13.605-.13h1.696q.195 0 .42.068.228.069.42.224.195.152.325.402.13.246.13.6z" style="font-style:normal;font-variant:normal;font-weight:400;font-stretch:normal;font-size:7.4083300000000003px;font-family:Audiowide;-inkscape-font-specification:Audiowide;fill:#b3b3b3;stroke-width:.264583" transform="translate(10.03 -108.608)"/></g><path d="M48.452 25.597v2.47h-4.554v4.028h4.554v2.47l4.576-4.484zM108.815 11.587v2.47h4.365v4.029h-4.365v2.47l-4.576-4.484z" style="display:inline;fill:#c2c2c2;fill-opacity:1;stroke:none;stroke-width:.245896px;stroke-linecap:butt;stroke-linejoin:miter;stroke-opacity:1"/><g aria-label="exponent" style="font-size:7.4083300000000003px;line-height:1.25;font-family:sans-serif;display:inline;fill:#b3b3b3;stroke-width:.264583"><path d="M109.318 124.01q0 .196-.069.424-.068.224-.224.42-.152.191-.402.322-.245.13-.6.13h-1.697v-.894h1.697q.192 0 .297-.115.105-.12.105-.293 0-.185-.12-.29-.116-.105-.282-.105h-1.697q-.191 0-.296.12-.105.115-.105.29v1.312q0 .188.116.293.12.105.293.105h1.689v.897h-1.697q-.195 0-.423-.068-.224-.07-.42-.221-.191-.156-.321-.402-.13-.25-.13-.604v-1.32q0-.195.068-.42.069-.228.22-.42.156-.195.402-.325.25-.13.604-.13h1.697q.195 0 .42.069.227.068.42.224.195.152.325.401.13.246.13.6zM114.281 122.716l-1.69 1.845 1.903 2.065H113.2l-1.251-1.364-1.252 1.364h-1.298l1.899-2.073-1.682-1.837h1.287l1.039 1.132 1.045-1.132zM119.277 125.306q0 .242-.062.438-.061.191-.163.34-.101.144-.235.25-.134.1-.282.166-.145.065-.293.097-.148.03-.282.03h-1.697v-.941h1.697q.188 0 .282-.098.094-.098.094-.282v-1.266q0-.196-.098-.29-.094-.094-.278-.094h-1.69q-.191 0-.289.098-.098.094-.098.279v3.816h-.94v-3.816q0-.243.061-.434.062-.192.163-.337.105-.148.239-.25.134-.104.278-.17.149-.065.297-.094.152-.032.282-.032h1.697q.242 0 .434.061.192.062.336.163.149.101.25.235.105.134.17.282.065.145.094.293.033.149.033.283zM124.34 125.306q0 .242-.06.438-.062.191-.163.34-.102.144-.236.25-.133.1-.282.166-.144.065-.296.097-.149.03-.282.03h-1.697q-.195 0-.427-.07-.231-.068-.43-.224-.196-.159-.33-.409-.13-.253-.13-.618v-1.273q0-.362.13-.612.134-.253.33-.408.199-.16.43-.228.232-.07.427-.07h1.697q.361 0 .614.131.254.13.41.33.155.195.223.426.073.232.073.43zm-.94-1.266q0-.196-.097-.29-.098-.094-.283-.094h-1.689q-.188 0-.286.098-.097.094-.097.279v1.273q0 .184.097.282.098.098.286.098h1.69q.191 0 .285-.098.094-.098.094-.282zM129.47 126.626h-.94v-2.17q0-.185-.065-.33-.062-.148-.17-.253-.109-.104-.257-.159-.145-.058-.315-.058h-1.646v2.97h-.94v-3.444q0-.097.036-.18.036-.087.101-.149.065-.065.152-.101.087-.036.185-.036h2.12q.177 0 .372.04.199.04.39.13.196.087.37.224.177.134.31.33.138.191.218.444.08.253.08.572zM134.51 124.01q0 .196-.07.424-.068.224-.224.42-.152.191-.401.322-.246.13-.6.13h-1.697v-.894h1.696q.192 0 .297-.115.105-.12.105-.293 0-.185-.12-.29-.115-.105-.282-.105h-1.696q-.192 0-.297.12-.105.115-.105.29v1.312q0 .188.116.293.12.105.293.105h1.69v.897h-1.697q-.196 0-.424-.068-.224-.07-.42-.221-.19-.156-.321-.402-.13-.25-.13-.604v-1.32q0-.195.068-.42.07-.228.221-.42.156-.195.402-.325.25-.13.604-.13h1.696q.196 0 .42.069.228.068.42.224.195.152.325.401.13.246.13.6zM139.483 126.626h-.94v-2.17q0-.185-.066-.33-.061-.148-.17-.253-.108-.104-.256-.159-.145-.058-.315-.058h-1.646v2.97h-.94v-3.444q0-.097.036-.18.036-.087.101-.149.065-.065.152-.101.087-.036.184-.036h2.12q.177 0 .373.04.199.04.39.13.196.087.37.224.177.134.31.33.138.191.218.444.08.253.08.572zM143.755 123.656h-1.642v2.97h-.951v-2.97h-1.223v-.94h1.223v-1.277h.95v1.277h1.643z" style="font-style:normal;font-variant:normal;font-weight:400;font-stretch:normal;font-size:7.4083300000000003px;font-family:Audiowide;-inkscape-font-specification:Audiowide;fill:#b3b3b3;stroke-width:.264583" transform="translate(10.03 -108.608)"/></g></g><g style="display:inline"><text xml:space="preserve" x="27.91" y="-1.577" style="font-style:normal;font-variant:normal;font-weight:400;font-stretch:normal;font-size:7.9375px;line-height:125%;font-family:Baskerville;-inkscape-font-specification:Baskerville;letter-spacing:0;word-spacing:0;display:inline;fill:#000;fill-opacity:1;stroke:none;stroke-width:.181169px;stroke-linecap:butt;stroke-linejoin:miter;stroke-opacity:1"><tspan x="27.91" y="-1.577" style="font-style:normal;font-variant:normal;font-weight:400;font-stretch:normal;font-size:7.9375px;font-family:Baskerville;-inkscape-font-specification:Baskerville;stroke-width:.181169px">base</tspan></text><text xml:space="preserve" x="115.072" y="-2.135" style="font-style:normal;font-variant:normal;font-weight:400;font-stretch:normal;font-size:7.9375px;line-height:125%;font-family:Baskerville;-inkscape-font-specification:Baskerville;letter-spacing:0;word-spacing:0;display:inline;fill:#000;fill-opacity:1;stroke:none;stroke-width:.181169px;stroke-linecap:butt;stroke-linejoin:miter;stroke-opacity:1"><tspan x="115.072" y="-2.135" style="font-style:normal;font-variant:normal;font-weight:400;font-stretch:normal;font-size:7.9375px;font-family:Baskerville;-inkscape-font-specification:Baskerville;stroke-width:.181169px">exponent</tspan></text></g></svg>