<svg xmlns="http://www.w3.org/2000/svg" xmlns:xlink="http://www.w3.org/1999/xlink" width="1100" height="420" viewBox="0 0 825 315"><defs><symbol id="g" overflow="visible" style="overflow:visible"><path d="M1.531-3.297c.578 0 .813.031 1.047.11.625.234 1.016.796 1.016 1.484 0 .828-.578 1.484-1.313 1.484-.265 0-.469-.078-.828-.312-.312-.172-.469-.25-.64-.25-.235 0-.391.14-.391.36 0 .343.437.562 1.14.562.766 0 1.547-.266 2.016-.672.469-.406.735-.985.735-1.656 0-.5-.172-.97-.454-1.282-.203-.219-.39-.344-.828-.531.688-.469.938-.828.938-1.375 0-.813-.64-1.36-1.563-1.36-.5 0-.937.173-1.297.485-.296.266-.437.531-.656 1.125l.14.047c.407-.734.86-1.063 1.485-1.063.656 0 1.11.438 1.11 1.063a1.4 1.4 0 0 1-.407.969c-.297.296-.578.453-1.25.687zm0 0" style="stroke:none"/></symbol><symbol id="h" overflow="visible" style="overflow:visible"><path d="M6.563-2.297c.171 0 .359 0 .359-.203 0-.188-.188-.188-.36-.188h-5.39c-.172 0-.344 0-.344.188 0 .203.172.203.344.203zm0 0" style="stroke:none"/></symbol><symbol id="e" overflow="visible" style="overflow:visible"><path d="M1.531-3.297c.578 0 .813.031 1.047.11.625.234 1.016.796 1.016 1.484 0 .828-.578 1.484-1.313 1.484-.265 0-.469-.078-.828-.312-.312-.172-.469-.25-.64-.25-.235 0-.391.14-.391.36 0 .343.437.562 1.14.562.766 0 1.547-.266 2.016-.672.469-.406.735-.985.735-1.656 0-.5-.172-.97-.454-1.282-.203-.219-.39-.344-.828-.531.688-.469.938-.828.938-1.375 0-.813-.64-1.36-1.563-1.36-.5 0-.937.173-1.297.485-.296.266-.437.531-.656 1.125l.14.047c.407-.734.86-1.063 1.485-1.063.656 0 1.11.438 1.11 1.063a1.4 1.4 0 0 1-.407.969c-.297.296-.578.453-1.25.687zm0 0" style="stroke:none"/></symbol><symbol id="d" overflow="visible" style="overflow:visible"><path d="M6.563-2.297c.171 0 .359 0 .359-.203 0-.188-.188-.188-.36-.188h-5.39c-.172 0-.344 0-.344.188 0 .203.172.203.344.203zm0 0" style="stroke:none"/></symbol><symbol id="n" overflow="visible" style="overflow:visible"><path d="M1.531-3.297c.578 0 .813.031 1.047.11.625.234 1.016.796 1.016 1.484 0 .828-.578 1.484-1.313 1.484-.265 0-.469-.078-.828-.312-.312-.172-.469-.25-.64-.25-.235 0-.391.14-.391.36 0 .343.437.562 1.14.562.766 0 1.547-.266 2.016-.672.469-.406.735-.985.735-1.656 0-.5-.172-.97-.454-1.282-.203-.219-.39-.344-.828-.531.688-.469.938-.828.938-1.375 0-.813-.64-1.36-1.563-1.36-.5 0-.937.173-1.297.485-.296.266-.437.531-.656 1.125l.14.047c.407-.734.86-1.063 1.485-1.063.656 0 1.11.438 1.11 1.063a1.4 1.4 0 0 1-.407.969c-.297.296-.578.453-1.25.687zm0 0" style="stroke:none"/></symbol><symbol id="o" overflow="visible" style="overflow:visible"><path d="M.156-3.984c.125-.032.188-.047.297-.047.578 0 .719.25 1.188 1.968.156.641.406 1.813.406 1.985 0 .156-.063.312-.219.5-.297.406-.5.672-.61.781C1 1.422.892 1.5.75 1.5c-.047 0-.125-.031-.234-.11-.141-.109-.25-.171-.36-.171a.387.387 0 0 0-.39.39c0 .25.218.438.5.438.64 0 1.953-1.485 3.03-3.469.673-1.219.954-1.937.954-2.422a.554.554 0 0 0-.547-.547c-.234 0-.39.141-.39.36 0 .156.078.265.28.39.188.11.25.204.25.344 0 .39-.359 1.172-1.218 2.578l-.188-1.156c-.156-.875-.718-2.516-.859-2.516h-.125l-.984.172a1.759 1.759 0 0 1-.313.063zm0 0" style="stroke:none"/></symbol><symbol id="q" overflow="visible" style="overflow:visible"><path d="M.344-3.953h.906L.375.234C.156 1.313-.172 1.86-.594 1.86c-.125 0-.203-.078-.203-.171 0-.016.016-.047.047-.11a.264.264 0 0 0 .047-.156c0-.203-.188-.375-.39-.375-.22 0-.376.172-.376.406 0 .344.36.61.797.61.875 0 1.578-.985 1.985-2.813l.718-3.203h1.094l.063-.313H2.109c.282-1.562.657-2.28 1.204-2.28.14 0 .218.062.218.124 0 .031 0 .047-.031.11a.344.344 0 0 0-.063.203c0 .234.157.39.376.39.218 0 .421-.172.421-.39 0-.375-.375-.657-.859-.657-.5 0-.875.22-1.234.688-.313.39-.5.86-.813 1.812H.422zm0 0" style="stroke:none"/></symbol><symbol id="t" overflow="visible" style="overflow:visible"><path d="M4-1.11c-.078.094-.125.157-.219.266-.219.313-.344.406-.453.406-.14 0-.234-.124-.312-.406-.016-.078-.032-.14-.032-.172-.25-1.015-.359-1.468-.359-1.609.438-.781.797-1.219.969-1.219.062 0 .14.031.25.078.11.079.187.094.265.094.204 0 .344-.14.344-.36 0-.202-.172-.359-.406-.359-.438 0-.813.36-1.5 1.422l-.11-.547c-.14-.687-.25-.875-.53-.875-.22 0-.548.079-1.157.282l-.11.046.032.141c.39-.078.469-.11.562-.11.25 0 .313.095.454.688l.28 1.235-.812 1.156C.953-.641.75-.47.641-.47a.554.554 0 0 1-.25-.094.755.755 0 0 0-.329-.093c-.187 0-.328.14-.328.344 0 .265.204.421.5.421.297 0 .422-.093.922-.703.266-.312.485-.578.89-1.156L2.36-.562c.125.515.25.671.579.671.374 0 .624-.234 1.203-1.14zm0 0" style="stroke:none"/></symbol><symbol id="p" overflow="visible" style="overflow:visible"><path d="M6.844-3.266c.156 0 .343 0 .343-.187 0-.203-.187-.203-.328-.203H.891c-.141 0-.329 0-.329.203 0 .187.188.187.329.187zm.015 1.938c.141 0 .329 0 .329-.203 0-.188-.188-.188-.344-.188H.89c-.141 0-.329 0-.329.188 0 .203.188.203.329.203zm0 0" style="stroke:none"/></symbol><symbol id="s" overflow="visible" style="overflow:visible"><path d="M3.297 2.39c0-.03 0-.046-.172-.218C1.891.922 1.562-.968 1.562-2.5c0-1.734.375-3.469 1.61-4.703.125-.125.125-.14.125-.172 0-.078-.031-.11-.094-.11-.11 0-1 .688-1.594 1.954C1.11-4.438.984-3.328.984-2.5c0 .781.11 1.984.657 3.125C2.25 1.844 3.094 2.5 3.203 2.5c.063 0 .094-.031.094-.11zm0 0" style="stroke:none"/></symbol><symbol id="u" overflow="visible" style="overflow:visible"><path d="M2.875-2.5c0-.766-.11-1.969-.656-3.11C1.625-6.827.766-7.483.672-7.483a.107.107 0 0 0-.11.109c0 .031 0 .047.188.234.984.985 1.547 2.563 1.547 4.641 0 1.719-.36 3.469-1.594 4.719-.14.125-.14.14-.14.172 0 .062.046.109.109.109.094 0 1-.688 1.578-1.953.516-1.094.625-2.203.625-3.047Zm0 0" style="stroke:none"/></symbol><symbol id="r" overflow="visible" style="overflow:visible"><path d="M1.86-3.5c.046-.094.077-.156.077-.234 0-.22-.203-.391-.421-.391-.204 0-.344.14-.391.328L.25-.562c0 .015-.031.093-.031.093 0 .078.187.14.25.14.047 0 .047-.03.094-.124zm0 0" style="stroke:none"/></symbol><clipPath id="i"><path d="M226.254 254.46h158.742V391H226.254Zm0 0"/></clipPath><clipPath id="f"><path d="M226.254 356H282v1h-55.746zm0 0"/></clipPath><clipPath id="j"><path d="M284 310h100.996v2H284Zm0 0"/></clipPath><clipPath id="a"><path d="M226.254 254.46H228V279h-1.746zm0 0"/></clipPath><clipPath id="b"><path d="M383 388h1.996v25.203H383Zm0 0"/></clipPath><clipPath id="c"><path d="M383 254.46h1.996V279H383Zm0 0"/></clipPath><clipPath id="k"><path d="M226.254 254.46H228V279h-1.746zm0 0"/></clipPath><clipPath id="l"><path d="M383 388h1.996v25.203H383Zm0 0"/></clipPath><clipPath id="m"><path d="M383 254.46h1.996V279H383Zm0 0"/></clipPath></defs><g style="display:inline"><g clip-path="url(#a)" style="clip-rule:nonzero" transform="translate(-580.546 598.537)"><path d="M-88.897 68.034c0 1-.813 1.813-1.813 1.813a1.811 1.811 0 0 1-1.812-1.813 1.812 1.812 0 1 1 3.625 0zm0 0" style="fill:none;stroke:red;stroke-width:.79701;stroke-linecap:butt;stroke-linejoin:miter;stroke-miterlimit:10;stroke-opacity:1" transform="matrix(1 0 0 -1 305.624 333.831)"/></g><g clip-path="url(#b)" style="clip-rule:nonzero" transform="translate(-580.546 598.537)"><path d="M92.524-68.032a1.814 1.814 0 1 1-3.627-.003 1.814 1.814 0 0 1 3.627.003zm0 0" style="fill:none;stroke:red;stroke-width:.79701;stroke-linecap:butt;stroke-linejoin:miter;stroke-miterlimit:10;stroke-opacity:1" transform="matrix(1 0 0 -1 305.624 333.831)"/></g><g clip-path="url(#c)" style="clip-rule:nonzero" transform="translate(-580.546 598.537)"><path d="M92.524 68.034a1.814 1.814 0 1 1-3.627-.002 1.814 1.814 0 0 1 3.627.002zm0 0" style="fill:none;stroke:red;stroke-width:.79701;stroke-linecap:butt;stroke-linejoin:miter;stroke-miterlimit:10;stroke-opacity:1" transform="matrix(1 0 0 -1 305.624 333.831)"/></g><g clip-path="url(#a)" style="clip-rule:nonzero" transform="translate(-369.35 598.537)"><path d="M-88.897 68.034c0 1-.813 1.813-1.813 1.813a1.811 1.811 0 0 1-1.812-1.813 1.812 1.812 0 1 1 3.625 0zm0 0" style="fill:none;stroke:red;stroke-width:.79701;stroke-linecap:butt;stroke-linejoin:miter;stroke-miterlimit:10;stroke-opacity:1" transform="matrix(1 0 0 -1 305.624 333.831)"/></g><g clip-path="url(#b)" style="clip-rule:nonzero" transform="translate(-369.35 598.537)"><path d="M92.524-68.032a1.814 1.814 0 1 1-3.627-.003 1.814 1.814 0 0 1 3.627.003zm0 0" style="fill:none;stroke:red;stroke-width:.79701;stroke-linecap:butt;stroke-linejoin:miter;stroke-miterlimit:10;stroke-opacity:1" transform="matrix(1 0 0 -1 305.624 333.831)"/></g><g clip-path="url(#c)" style="clip-rule:nonzero" transform="translate(-369.35 598.537)"><path d="M92.524 68.034a1.814 1.814 0 1 1-3.627-.002 1.814 1.814 0 0 1 3.627.002zm0 0" style="fill:none;stroke:red;stroke-width:.79701;stroke-linecap:butt;stroke-linejoin:miter;stroke-miterlimit:10;stroke-opacity:1" transform="matrix(1 0 0 -1 305.624 333.831)"/></g><path d="m804.964 1449.455 5.34-223.399 189.402 4.528-5.34 223.398zm0 0" style="fill:#fff;fill-opacity:1;fill-rule:nonzero;stroke:#fff;stroke-width:.12853;stroke-linecap:butt;stroke-linejoin:miter;stroke-miterlimit:10;stroke-opacity:1" transform="translate(-388.307 -1150.244)"/><path d="M815.721 1405.977 819.784 1236l169.977 4.064-4.063 169.977zm0 0" style="fill:#fafafa;fill-opacity:1;fill-rule:nonzero;stroke:#fafafa;stroke-width:.12853;stroke-linecap:butt;stroke-linejoin:miter;stroke-miterlimit:10;stroke-opacity:1" transform="translate(-388.307 -1150.244)"/><path d="M814.857 1341.045c3.778-.234 7.566-.276 11.35-.306 4.115.034 8.231-.045 12.343.123 3.586.265 7.18.323 10.774.371 3.306.041 6.612-.048 9.918-.079 1.978-.03 3.956-.045 5.935-.048 2.134.03 4.266.055 6.4 0 .22-.01.443.011.662-.019.053-.01-.188.011-.156-.036.055-.072 1.125-.267 1.336-.324l-1.685.631 5.742 9.533-1.78.688c-1.366.212-2.723.61-4.119.496-2.135-.056-4.27-.031-6.405 0-1.968 0-3.936-.024-5.904-.045-3.335-.015-6.67-.06-10.006-.024-3.736.011-7.47-.139-11.196-.413-3.928-.198-7.866-.059-11.798-.104-3.35.011-6.725-.02-10.047.475l-1.364-10.914z" style="display:inline;opacity:1;fill:#0ff;fill-opacity:.376471;stroke:none;stroke-width:.428432;stroke-linecap:square;stroke-linejoin:miter;stroke-miterlimit:10;stroke-dasharray:none;stroke-opacity:1" transform="translate(-388.307 -1150.244)"/><path d="M879.897 1293.013c6.697.091 13.396-.095 20.094-.128 7.78-.236 15.56-.317 23.343-.359 8.71-.017 17.408.507 26.115.639 6.646.097 13.29.19 19.935.392 5.112.06 10.215.402 15.327.472.978-.01 1.96.011 2.936-.08.355-.034.358-.02.196-.064l.738 11.085c-1.4-.011-2.797-.128-4.196-.15-5.097-.24-10.17-.83-15.276-.895-2.217-.054-5.014-.134-7.242-.143-4.276-.018-8.555.083-12.826-.193-8.523-.561-17.067-.759-25.606-.872-4.67.071-4.375.05-8.958.188-3.666.112-7.335.33-11.003.349-1.137.01-2.274-.031-3.411-.046-6.726.063-13.472.075-20.166.804v-11z" style="display:inline;opacity:1;fill:#0f0;fill-opacity:.376471;stroke:none;stroke-width:.428432;stroke-linecap:square;stroke-linejoin:miter;stroke-miterlimit:10;stroke-dasharray:none;stroke-opacity:1" transform="translate(-388.307 -1150.244)"/><path d="m816.011 1393.835 169.977 4.063m-169.396-28.343 169.977 4.063m-169.397-28.348 169.977 4.063m-169.396-28.344 169.977 4.063m-169.397-28.348 169.977 4.063m-169.396-28.343 169.977 4.063m-169.397-28.348 169.977 4.063M827.86 1406.268l4.064-169.977m20.221 170.557 4.064-169.977m20.217 170.558 4.063-169.977m20.222 170.557 4.063-169.977m20.217 170.558 4.064-169.978m20.221 170.558 4.063-169.977m20.218 170.557 4.063-169.976" style="fill:none;stroke:#9e9ed1;stroke-width:.213413;stroke-linecap:butt;stroke-linejoin:miter;stroke-miterlimit:10;stroke-opacity:1" transform="translate(-388.307 -1150.244)"/><path d="m817.753 1320.989 169.977 4.063M900.71 1408.01l4.063-169.978" style="fill:none;stroke:#000;stroke-width:.426825;stroke-linecap:butt;stroke-linejoin:miter;stroke-miterlimit:10;stroke-opacity:1" transform="translate(-388.307 -1150.244)"/><path d="m881.686 1400.75.232-9.713 16.999.407-.232 9.712zm0 0" style="fill:#fafafa;fill-opacity:1;fill-rule:nonzero;stroke:#fafafa;stroke-width:.426825;stroke-linecap:butt;stroke-linejoin:miter;stroke-miterlimit:10;stroke-opacity:1" transform="translate(-388.307 -1150.244)"/><use xlink:href="#d" width="100%" height="100%" x="289.285" y="405.236" style="fill:#b0b0d9;fill-opacity:1" transform="rotate(1.369 8151.813 8092.382) scale(1.07108)"/><use xlink:href="#e" width="100%" height="100%" x="297.026" y="405.236" style="fill:#b0b0d9;fill-opacity:1" transform="rotate(1.369 8151.813 8092.382) scale(1.07108)"/><path d="m822.232 1336.887.278-11.654 14.569.349-.279 11.653zm0 0" style="fill:#fafafa;fill-opacity:1;fill-rule:nonzero;stroke:#fafafa;stroke-width:.426825;stroke-linecap:butt;stroke-linejoin:miter;stroke-miterlimit:10;stroke-opacity:1" transform="translate(-388.307 -1150.244)"/><use xlink:href="#d" width="100%" height="100%" x="231.231" y="345.821" style="fill:#b0b0d9;fill-opacity:1" transform="rotate(1.369 8151.813 8092.382) scale(1.07108)"/><use xlink:href="#e" width="100%" height="100%" x="238.972" y="345.821" style="fill:#b0b0d9;fill-opacity:1" transform="rotate(1.369 8151.813 8092.382) scale(1.07108)"/><path d="m967.924 1340.37.278-11.654 14.573.349-.279 11.653zm0 0" style="fill:#fafafa;fill-opacity:1;fill-rule:nonzero;stroke:#fafafa;stroke-width:.426825;stroke-linecap:butt;stroke-linejoin:miter;stroke-miterlimit:10;stroke-opacity:1" transform="translate(-388.307 -1150.244)"/><use xlink:href="#e" width="100%" height="100%" x="371.165" y="346.157" style="fill:#b0b0d9;fill-opacity:1" transform="rotate(1.369 8151.813 8092.382) scale(1.07108)"/><g clip-path="url(#f)" style="clip-rule:nonzero" transform="rotate(1.369 8151.813 8092.382) scale(1.07108)"><path d="M-136.065-22.677h111.574" style="fill:none;stroke:red;stroke-width:.79701;stroke-linecap:butt;stroke-linejoin:miter;stroke-miterlimit:10;stroke-opacity:1" transform="matrix(1 0 0 -1 305.624 333.831)"/></g><path d="M879.821 1346.767a1.944 1.944 0 1 0-3.886-.088 1.944 1.944 0 0 0 3.886.088zM880.982 1298.202a1.944 1.944 0 1 0-3.886-.089 1.944 1.944 0 0 0 3.886.089zm0 0" style="fill:none;stroke:red;stroke-width:.853661;stroke-linecap:butt;stroke-linejoin:miter;stroke-miterlimit:10;stroke-opacity:1" transform="translate(-388.307 -1150.244)"/><path d="M815.721 1405.977 819.784 1236l169.977 4.064-4.063 169.977zm0 0" style="fill:none;stroke:#000;stroke-width:.0533398;stroke-linecap:butt;stroke-linejoin:miter;stroke-miterlimit:10;stroke-opacity:1" transform="translate(-388.307 -1150.244)"/><path d="m804.964 1449.455 5.34-223.399 189.402 4.528-5.34 223.398zm0 0" style="fill:none;stroke:#000;stroke-width:.426825;stroke-linecap:butt;stroke-linejoin:miter;stroke-miterlimit:10;stroke-opacity:1" transform="translate(-388.307 -1150.244)"/><path d="m619.604 1456.624 4.008-223.427 189.425 3.398-4.008 223.426zm0 0" style="fill:#fff;fill-opacity:1;fill-rule:nonzero;stroke:#fff;stroke-width:.12853;stroke-linecap:butt;stroke-linejoin:miter;stroke-miterlimit:10;stroke-opacity:1" transform="translate(-388.307 -1150.244)"/><path d="m630.102 1413.083 3.049-169.998 169.998 3.05-3.05 169.998zm0 0" style="fill:#fafafa;fill-opacity:1;fill-rule:nonzero;stroke:#fafafa;stroke-width:.12853;stroke-linecap:butt;stroke-linejoin:miter;stroke-miterlimit:10;stroke-opacity:1" transform="translate(-388.307 -1150.244)"/><path d="m630.32 1400.94 169.998 3.048m-169.563-27.333 169.998 3.05m-169.562-27.337 169.998 3.049m-169.563-27.333 169.998 3.05m-169.562-27.338 169.998 3.05m-169.562-27.334 169.998 3.05m-169.563-27.337 169.998 3.049m-160.69 155.027 3.05-169.998m21.238 170.433 3.05-169.998m21.234 170.434 3.05-169.998m21.238 170.434 3.05-169.998m21.233 170.433 3.05-169.998m21.238 170.434 3.05-169.998m21.234 170.434 3.05-169.999" style="fill:none;stroke:#9e9ed1;stroke-width:.213413;stroke-linecap:butt;stroke-linejoin:miter;stroke-miterlimit:10;stroke-opacity:1" transform="translate(-388.307 -1150.244)"/><path d="m631.626 1328.084 169.998 3.05M715.1 1414.608l3.05-169.998" style="fill:none;stroke:#000;stroke-width:.426825;stroke-linecap:butt;stroke-linejoin:miter;stroke-miterlimit:10;stroke-opacity:1" transform="translate(-388.307 -1150.244)"/><path d="m706.914 1261.41.175-9.713 8.015.143-.175 9.714zm0 0" style="fill:#fafafa;fill-opacity:1;fill-rule:nonzero;stroke:#fafafa;stroke-width:.426825;stroke-linecap:butt;stroke-linejoin:miter;stroke-miterlimit:10;stroke-opacity:1" transform="translate(-388.307 -1150.244)"/><use xlink:href="#g" width="100%" height="100%" x="297.01" y="269.055" style="fill:#b0b0d9;fill-opacity:1" transform="rotate(1.028 10262.63 322.51) scale(1.07108)"/><path d="m696.034 1407.462.174-9.714 17.001.305-.174 9.714zm0 0" style="fill:#fafafa;fill-opacity:1;fill-rule:nonzero;stroke:#fafafa;stroke-width:.426825;stroke-linecap:butt;stroke-linejoin:miter;stroke-miterlimit:10;stroke-opacity:1" transform="translate(-388.307 -1150.244)"/><use xlink:href="#h" width="100%" height="100%" x="289.285" y="405.236" style="fill:#b0b0d9;fill-opacity:1" transform="rotate(1.028 10262.63 322.51) scale(1.07108)"/><use xlink:href="#g" width="100%" height="100%" x="297.026" y="405.236" style="fill:#b0b0d9;fill-opacity:1" transform="rotate(1.028 10262.63 322.51) scale(1.07108)"/><path d="m636.2 1343.954.209-11.654 14.57.261-.209 11.655zm0 0" style="fill:#fafafa;fill-opacity:1;fill-rule:nonzero;stroke:#fafafa;stroke-width:.426825;stroke-linecap:butt;stroke-linejoin:miter;stroke-miterlimit:10;stroke-opacity:1" transform="translate(-388.307 -1150.244)"/><use xlink:href="#h" width="100%" height="100%" x="231.231" y="345.821" style="fill:#b0b0d9;fill-opacity:1" transform="rotate(1.028 10262.63 322.51) scale(1.07108)"/><use xlink:href="#g" width="100%" height="100%" x="238.972" y="345.821" style="fill:#b0b0d9;fill-opacity:1" transform="rotate(1.028 10262.63 322.51) scale(1.07108)"/><path d="m781.91 1346.568.21-11.654 14.574.261-.21 11.655zm0 0" style="fill:#fafafa;fill-opacity:1;fill-rule:nonzero;stroke:#fafafa;stroke-width:.426825;stroke-linecap:butt;stroke-linejoin:miter;stroke-miterlimit:10;stroke-opacity:1" transform="translate(-388.307 -1150.244)"/><use xlink:href="#g" width="100%" height="100%" x="371.165" y="346.157" style="fill:#b0b0d9;fill-opacity:1" transform="rotate(1.028 10262.63 322.51) scale(1.07108)"/><path d="m630.102 1413.083 3.049-169.998 169.998 3.05-3.05 169.998zm0 0" style="fill:none;stroke:#000;stroke-width:.0533398;stroke-linecap:butt;stroke-linejoin:miter;stroke-miterlimit:10;stroke-opacity:1" transform="translate(-388.307 -1150.244)"/><path d="m619.604 1456.624 4.008-223.427 189.425 3.398-4.008 223.426zm0 0" style="fill:none;stroke:#000;stroke-width:.426825;stroke-linecap:butt;stroke-linejoin:miter;stroke-miterlimit:10;stroke-opacity:1" transform="translate(-388.307 -1150.244)"/><path d="M736.898 1233.961h4.079v3.201h-4.079z" style="opacity:1;fill:#fff;fill-opacity:1;stroke:none;stroke-width:.107108;stroke-linecap:square;stroke-linejoin:miter;stroke-miterlimit:4;stroke-dasharray:none;stroke-opacity:1" transform="translate(-388.307 -1150.244)"/><path d="M736.898 1233.961h4.079v3.201h-4.079zM661.103 1233.058h4.079v3.201h-4.079z" style="opacity:1;fill:#fff;fill-opacity:1;stroke:none;stroke-width:.107108;stroke-linecap:square;stroke-linejoin:miter;stroke-miterlimit:4;stroke-dasharray:none;stroke-opacity:1" transform="translate(-388.307 -1150.244)"/><path d="M693.63 1369.288c6.042-5.526 11.841-11.318 17.635-17.103 5.82-5.491 11.268-11.355 16.805-17.127 4.891-5.268 9.704-10.604 14.742-15.733.977-.965 1.953-1.932 2.931-2.895 2.195-2.16 3.363-3.325 5.614-5.412 2.585-2.396 5.227-4.713 7.765-7.16 4.536-4.36 8.806-8.969 12.999-13.654 2.72-3.08 5.668-5.955 8.312-9.104.91-1.084 1.768-2.213 2.662-3.312a161.049 161.049 0 0 1 8.23-8.974c2.396-2.484 5.078-4.651 7.745-6.83l.608-.469 6.037 9.265-.066-.03c-2.412 1.632-4.638 3.53-6.703 5.58-2.68 2.715-5.178 5.602-7.693 8.467-2.97 3.257.819-.921-2.937 3.32-2.733 3.088-5.62 6.033-8.381 9.094-4.393 4.887-8.838 9.73-13.616 14.249-5.385 5.008-10.993 9.78-16.099 15.083-4.967 5.143-9.6 10.602-14.705 15.616-5.579 5.883-11.093 11.833-16.983 17.412-5.743 5.57-11.646 11.008-16.9 17.052l-8.002-7.335z" style="display:inline;opacity:1;fill:#0f0;fill-opacity:.376471;stroke:none;stroke-width:.428432;stroke-linecap:square;stroke-linejoin:miter;stroke-miterlimit:10;stroke-dasharray:none;stroke-opacity:1" transform="translate(-388.307 -1150.244)"/><path d="M635.933 1312.221c1.466 1.616 3.184 2.973 4.878 4.337 1.868 1.516 3.565 3.222 5.268 4.916 1.636 1.738 3.314 3.424 5.111 4.994a59.362 59.362 0 0 1 4.804 4.223c1.4 1.5 2.709 3.079 4.048 4.633 1.198 1.088 2.189 2.386 3.397 3.463a77.585 77.585 0 0 1 5.108 5.417c1.122 1.306 2.32 2.535 3.41 3.868 1.107 1.506 2.21 3.003 3.148 4.621.67 1.234 1.596 2.34 2.596 3.32.232.255.455.518.696.764.182.185.413.317.6.497.785.754 1.44 1.542 2.097 2.406.791 1.136 1.71 2.17 2.564 3.259.897.99 1.853 1.95 2.79 2.917.152.156.295.322.457.468.01.011.02-.018.031-.028.24.223.483.442.718.67.424.41.8.898 1.266 1.262.84.609 1.623 1.29 2.39 1.988-.34-.281.795.747.582.576-.672-.544-.595-.622-1.269-.952-.18-.089-.744-.31-.561-.224.434.205.878.388 1.317.582 1.301.694 1.421 1.436 2.614 2.71.243.26-.848-.688-.565-.902.282-.213.46.552.597.878.12.287-.364-.504-.546-.756-.65-.604.083.017.235.125.933.665-1.287-1.778 1.816 2.37.493 1.767.366.94.473 2.464l-11.118-.089c.11 1.23-.006.558.433 2 2.877 3.649 1.42 1.744.148.787-.308-.385-.61-.776-.926-1.155-.122-.145.443.617.34.456-.26-.41-1.195-1.515-.818-1.208 1.122.913.976 1.548 1.91 2.013.323.129.677.197.968.386.252.164-.571-.184-.845-.307a7.395 7.395 0 0 1-2.42-1.735c-.625-.654-1.363-1.182-2.045-1.774-1.074-.974-2.077-2.023-3.134-3.015-1.166-1.236-2.38-2.433-3.486-3.721-.913-1.162-1.898-2.267-2.737-3.487-.685-1.034-1.79-1.698-2.523-2.699-1.597-1.75-3.204-3.524-4.318-5.635.086-.332.029-.042-.465-.739-.514-.726-1.048-1.44-1.546-2.178-1.031-1.288-2.206-2.448-3.228-3.745-1.274-1.554-2.68-2.982-4.121-4.382-1.533-1.414-2.936-2.947-4.382-4.448a155.242 155.242 0 0 0-3.467-4.013c-1.285-1.365-2.816-2.518-4.223-3.751-1.975-1.745-3.826-3.612-5.683-5.48-1.399-1.432-2.817-2.852-4.367-4.122a107.88 107.88 0 0 1-5.788-5.054l7.772-7.772z" style="display:inline;opacity:1;fill:#0ff;fill-opacity:.376471;stroke:none;stroke-width:.428432;stroke-linecap:square;stroke-linejoin:miter;stroke-miterlimit:10;stroke-dasharray:none;stroke-opacity:1" transform="translate(-388.307 -1150.244)"/><g clip-path="url(#i)" style="clip-rule:nonzero" transform="rotate(1.028 10262.63 322.51) scale(1.07108)"><path d="m-113.386 45.354 90.707-90.71 113.39 113.39" style="fill:none;stroke:red;stroke-width:.79701;stroke-linecap:butt;stroke-linejoin:miter;stroke-miterlimit:10;stroke-opacity:1" transform="matrix(1 0 0 -1 305.624 333.831)"/></g><g clip-path="url(#j)" style="clip-rule:nonzero" transform="rotate(1.369 8151.813 8092.382) scale(1.07108)"><path d="M90.712 22.679H-20.862" style="fill:none;stroke:red;stroke-width:.79701;stroke-linecap:butt;stroke-linejoin:miter;stroke-miterlimit:10;stroke-opacity:1" transform="matrix(1 0 0 -1 305.624 333.831)"/></g><g clip-path="url(#k)" style="clip-rule:nonzero" transform="translate(-2968.34 -56.083)"><path d="M-88.897 68.034c0 1-.813 1.813-1.813 1.813a1.811 1.811 0 0 1-1.812-1.813 1.812 1.812 0 1 1 3.625 0zm0 0" style="fill:none;stroke:red;stroke-width:.79701;stroke-linecap:butt;stroke-linejoin:miter;stroke-miterlimit:10;stroke-opacity:1" transform="matrix(1 0 0 -1 305.624 333.831)"/></g><g clip-path="url(#l)" style="clip-rule:nonzero" transform="translate(-2968.34 -56.083)"><path d="M92.524-68.032a1.814 1.814 0 1 1-3.627-.003 1.814 1.814 0 0 1 3.627.003zm0 0" style="fill:none;stroke:red;stroke-width:.79701;stroke-linecap:butt;stroke-linejoin:miter;stroke-miterlimit:10;stroke-opacity:1" transform="matrix(1 0 0 -1 305.624 333.831)"/></g><g clip-path="url(#m)" style="clip-rule:nonzero" transform="translate(-2968.34 -56.083)"><path d="M92.524 68.034a1.814 1.814 0 1 1-3.627-.002 1.814 1.814 0 0 1 3.627.002zm0 0" style="fill:none;stroke:red;stroke-width:.79701;stroke-linecap:butt;stroke-linejoin:miter;stroke-miterlimit:10;stroke-opacity:1" transform="matrix(1 0 0 -1 305.624 333.831)"/></g><g clip-path="url(#k)" style="clip-rule:nonzero" transform="translate(-2757.143 -56.083)"><path d="M-88.897 68.034c0 1-.813 1.813-1.813 1.813a1.811 1.811 0 0 1-1.812-1.813 1.812 1.812 0 1 1 3.625 0zm0 0" style="fill:none;stroke:red;stroke-width:.79701;stroke-linecap:butt;stroke-linejoin:miter;stroke-miterlimit:10;stroke-opacity:1" transform="matrix(1 0 0 -1 305.624 333.831)"/></g><g clip-path="url(#l)" style="clip-rule:nonzero" transform="translate(-2757.143 -56.083)"><path d="M92.524-68.032a1.814 1.814 0 1 1-3.627-.003 1.814 1.814 0 0 1 3.627.003zm0 0" style="fill:none;stroke:red;stroke-width:.79701;stroke-linecap:butt;stroke-linejoin:miter;stroke-miterlimit:10;stroke-opacity:1" transform="matrix(1 0 0 -1 305.624 333.831)"/></g><g clip-path="url(#m)" style="clip-rule:nonzero" transform="translate(-2757.143 -56.083)"><path d="M92.524 68.034a1.814 1.814 0 1 1-3.627-.002 1.814 1.814 0 0 1 3.627.002zm0 0" style="fill:none;stroke:red;stroke-width:.79701;stroke-linecap:butt;stroke-linejoin:miter;stroke-miterlimit:10;stroke-opacity:1" transform="matrix(1 0 0 -1 305.624 333.831)"/></g><g style="display:inline"><path d="M-525.986 1594.18c.356 2.446.594 4.91.89 7.364.154 1.005.29 2.016.513 3.01.023.101.051.201.082.3.005.016.045.038.028.045-.425.162-.862.29-1.292.436l1.328-.528c-.433.26-.848.555-1.3.779-.037.018-.028-.077-.036-.118-.023-.11-.039-.221-.055-.332-.156-1.022-.292-2.047-.434-3.07-.285-2.43-.526-4.876-1.009-7.276l1.285-.61z" style="fill:#000;fill-opacity:1;stroke:none;stroke-width:.48;stroke-miterlimit:4;stroke-dasharray:none;stroke-opacity:1" transform="rotate(5.239 15465.243 10376.319) scale(1.07108)"/><path d="M-528.35 1594.48c1.184-.403 2.763-.723 4.006-.861.872-.096 1.965-.124 2.848-.014.362.045.71.167 1.065.25.668.277 1.362.61 1.19 1.491-.174.885-1.079 1.521-1.7 2.07-1.078.811-.816.647-2.373 1.572-.15.088-.314.148-.467.23-.069.037-.248.182-.197.123 1.037-1.21.569-1.061 1.513-1.147 1.764.06 3.825.505 5.06 1.882.221.247.355.56.533.839.05.295.172.586.153.884-.047.728-.488 1.289-1.105 1.657-.826.493-1.697.924-2.603 1.248-1.077.385-3.33.61-4.44.753-1.43.046-2.214.154-3.58-.073-.309-.052-.644-.088-.9-.269-.147-.104-.272-.222-.336-.39l1.436-.686c.219.402.488.371.853.505 1.34.241 1.86.024 3.276-.024 1.864-.042 3.128-.284 4.351-.655.188-.04.45-.199.624-.278.51-.233 1.068-.629 1.186-1.227.048-.242-.042-.492-.062-.738-.149-.247-.254-.525-.446-.74-1.181-1.324-3.214-1.666-4.892-1.619-.187.01-.583.206-.56.02.13-1.043.39-.981.892-1.237 1.908-1.041-4.038 2.202.752-.462.576-.473.88-.683 1.373-1.235.143-.16.524-.576.445-.882-.103-.4-.63-.53-.915-.665-.33-.073-.654-.183-.99-.22-2.107-.237-4.447.28-6.396 1.062.161-.607.193-.746.406-1.165zM-515.043 1592.5c.062.268.136.535.186.806.183 1.006.266 1.902.366 2.93.17 1.75.282 3.503.393 5.258.062 1.12.126 2.242.203 3.362l-1.242.543a68.992 68.992 0 0 0-.102-3.397c-.145-2.645-.254-5.489-.816-8.08-.054-.249-.135-.492-.202-.739l1.214-.683z" style="fill:#000;fill-opacity:1;stroke:none;stroke-width:.48;stroke-miterlimit:4;stroke-dasharray:none;stroke-opacity:1" transform="rotate(5.239 15465.243 10376.319) scale(1.07108)"/><path d="M-515.993 1593.106c2.647-.35 5.294-.697 7.942-1.041.95-.125.53-.07 1.257-.164l-.857 1.088c-.692.053-.29.019-1.204.107-2.658.299-5.325.604-7.945 1.147l.807-1.137zM-515.154 1596.864c2.147-.163 4.295-.316 6.44-.493l-.82 1.02c-2.17.129-4.34.296-6.5.555l.88-1.082zM-514.13 1603.72c2.425-.278 4.858-.48 7.291-.686l.797-.068-.846 1.05c-.256.017-.512.025-.768.037-2.445.16-4.896.356-7.308.802l.833-1.135zM-504.63 1593.797c-.187 2.813.135 5.632.427 8.427.119 1.037.233 2.074.358 3.11l-1.232.565c-.073-1.051-.163-2.1-.268-3.149-.28-2.809-.567-5.623-.598-8.448l1.314-.505z" style="fill:#000;fill-opacity:1;stroke:none;stroke-width:.48;stroke-miterlimit:4;stroke-dasharray:none;stroke-opacity:1" transform="rotate(5.239 15465.243 10376.319) scale(1.07108)"/><path d="M-506.01 1594.27c2.853-.395 5.738-.754 8.623-.753l.446.047-.93 1.031a50.17 50.17 0 0 1-.382-.053c-2.875-.077-5.758.289-8.578.818l.82-1.09zM-505.375 1598.377c2.563-.225 5.133-.35 7.7-.528l-.832 1.025c-2.577.103-5.157.25-7.713.601l.845-1.098zM-492.992 1593.799c-.288.198-.467.413-.768.66-.348.45-.788.826-1.124 1.284-.533.727-1.292 2.054-1.503 2.966-.105.455-.05.932-.076 1.398.063.353.182.85.429 1.194.61.854 1.628 1.169 2.617 1.26 1.494.14 2.464-.131 3.82-.768.277-.13.69-.414 1.047-.789.4-.452.583-.708.872-1.279.505-.998.647-2.387.241-3.451-.4-1.049-1.428-1.998-2.306-2.629-.421-.302-.9-.514-1.35-.772-.766-.523-2.268-.411-2.425-.416.373-.348.7-.75 1.118-1.043.807-.035 2.038.517 2.262.635.458.28.947.517 1.376.84.928.7 2.011 1.736 2.446 2.853.437 1.124.323 2.652-.169 3.731-.277.61-.783 1.087-1.174 1.63-.907.796-1.692 1.221-2.62 1.685-1.978.989-5.442 1.2-6.882-.864-.27-.387-.392-.807-.481-1.334.016-.507-.054-1.025.049-1.521.112-.535.31-1.158.58-1.633 1.488-2.618 2.585-3.627 4.733-4.815zM-483.939 1591.796c.236 3.293.534 6.579.908 9.86l-1.124.516c-.272-3.27-.595-6.535-1.002-9.79l1.218-.586z" style="fill:#000;fill-opacity:1;stroke:none;stroke-width:.48;stroke-miterlimit:4;stroke-dasharray:none;stroke-opacity:1" transform="rotate(5.239 15465.243 10376.319) scale(1.07108)"/><path d="M-487.075 1593.406c.53-.313 1.039-.668 1.592-.94.577-.284 1.51-.364 2.099-.395.904-.046 1.82 0 2.713.151.379.066.747.183 1.12.274.253.142.554.22.757.427.161.163.262.4.28.628.08.978-1.099 1.656-1.763 2.074-.688.433-1.396.833-2.093 1.25-.973.5-1.739.962-2.657 1.356.274-.444.592-.86.888-1.29.077-.03.148-.08.23-.088.53-.044 1.128.266 1.566.504.41.224 1.932 1.164 2.227 1.344 1.866 1.264 3.854 2.358 5.644 3.732l.114.11-1.151.83-.061-.08c-1.648-1.498-3.672-2.526-5.51-3.76-.425-.245-.848-.496-1.277-.735-.554-.308-1.344-.838-2.037-.824-.844.453-.047-.563.158-.926.014-.024.05-.024.076-.036.082-.037.165-.072.246-.11a38.98 38.98 0 0 0 2.214-1.137c.607-.341.802-.444 1.079-.606.228-.163 1.283-.863.815-1.351-.174-.181-.385-.27-.657-.37-.304-.125-.707-.196-1.068-.254a10.512 10.512 0 0 0-2.644-.086c-1.077.074 0 0-1.508.136l-1.392.17z" style="fill:#000;fill-opacity:1;stroke:none;stroke-width:.48;stroke-miterlimit:4;stroke-dasharray:none;stroke-opacity:1" transform="rotate(5.239 15465.243 10376.319) scale(1.07108)"/><path d="M-474.32 1591.813c.316 2.865.602 5.733.92 8.598a24.3 24.3 0 0 1 .1 2.273l-1.28.527c.06-.753.065-1.507.01-2.261-.254-2.855-.532-5.714-1-8.542l1.251-.595zM-475.254 1590.761c2.905-.074 5.808-.215 8.708-.4l.83-.06-.85 1.044c-.266.01-.532.018-.798.018-2.926.107-5.85.26-8.77.477l.88-1.082z" style="fill:#000;fill-opacity:1;stroke:none;stroke-width:.48;stroke-miterlimit:4;stroke-dasharray:none;stroke-opacity:1" transform="rotate(5.239 15465.243 10376.319) scale(1.07108)"/><path d="M-473.703 1595.525a140.74 140.74 0 0 1 6.347-.733l-.797 1c-2.136.16-4.266.413-6.37.817l.82-1.084zM-474.24 1601.515c3.227-.435 6.47-.798 9.728-.845.015 0 .908 0 1.103.09.068.03.102.106.153.16l-1.173.81c-.474-.035-.584-.047-.92-.061-3.261-.028-6.53.323-9.725.98z" style="fill:#000;fill-opacity:1;stroke:none;stroke-width:.48;stroke-miterlimit:4;stroke-dasharray:none;stroke-opacity:1" transform="rotate(5.239 15465.243 10376.319) scale(1.07108)"/></g><g style="display:inline"><path d="M-773.582 3148.227c.837 1.202 1.351 2.585 1.938 3.915.298.674 1.354 2.992 1.638 3.618.922 2.122 1.931 4.234 2.479 6.492l-1.549.625c-.391-2.263-1.407-4.357-2.311-6.448l-.868-1.874c-.27-.577-.543-1.153-.811-1.73-.59-1.271-1.116-2.606-1.974-3.727l1.458-.87z" style="fill:#000;fill-opacity:1;stroke:none;stroke-width:.5;stroke-miterlimit:4;stroke-dasharray:none;stroke-opacity:1" transform="matrix(.87166 -.0247 .0247 .87166 1086.315 -2490.765)"/><path d="M-779.789 3155.54c3.049.437 6.115.779 9.197.778l-1.142 1.148c-3.1-.106-6.176-.477-9.264-.744l1.21-1.182zM-763.989 3149.531c-.398 2.998-.791 6.009-.88 9.035-.02.623 0 1.247 0 1.87.066 1.788.016.977.129 2.435l-1.543.543c-.055-1.496-.031-.667-.06-2.489.041-3.643.37-7.269.744-10.891l1.61-.503z" style="fill:#000;fill-opacity:1;stroke:none;stroke-width:.5;stroke-miterlimit:4;stroke-dasharray:none;stroke-opacity:1" transform="matrix(.87166 -.0247 .0247 .87166 1086.315 -2490.765)"/><path d="M-766.647 3149.173c3.837.106 7.673.303 11.51.463l1.058.045-1.276 1.142c-.341-.025-.682-.05-1.022-.073-3.854-.243-7.713-.408-11.574-.415l1.304-1.16zM-764.693 3155.328c2.895.118 5.79.252 8.686.365l-1.232 1.093c-2.908-.158-5.818-.299-8.73-.3l1.276-1.158zM-755.365 3151.74c4.076.095 8.145.44 12.216.703 2.223.132 1.221.075 3.003.172l-1.028 1.243c-1.721-.177-.75-.083-2.915-.275-4.11-.309-8.223-.583-12.341-.556l1.065-1.287z" style="fill:#000;fill-opacity:1;stroke:none;stroke-width:.5;stroke-miterlimit:4;stroke-dasharray:none;stroke-opacity:1" transform="matrix(.87166 -.0247 .0247 .87166 1086.315 -2490.765)"/><path d="M-747.639 3152.082a405.231 405.231 0 0 0-.211 10.07c-.01.846-.005 1.693-.015 2.54l-1.612.435c.063-.851.102-1.704.122-2.557.073-3.342.17-6.687.109-10.03l1.607-.458zM-737.71 3151.595c-.568 3.113-.602 6.28-.542 9.434a31.14 31.14 0 0 1-.065 2.376l-1.612.43c.13-.78.182-1.567.19-2.357-.024-3.165.027-6.334.418-9.478l1.61-.404z" style="fill:#000;fill-opacity:1;stroke:none;stroke-width:.5;stroke-miterlimit:4;stroke-dasharray:none;stroke-opacity:1" transform="matrix(.87166 -.0247 .0247 .87166 1086.315 -2490.765)"/><path d="M-738.623 3150.842c3.579-.14 7.161-.091 10.74-.048.406.01.81.012 1.216.018l-1.085 1.14-1.175-.053c-3.598-.101-7.207-.127-10.8.17l1.104-1.227zM-737.936 3156.104c2.489.113 4.979.2 7.469.286l-1.122 1.11c-2.499-.128-5-.241-7.504-.22l1.157-1.177zM-738.661 3162.92c4.168.088 8.325.5 12.477.865l-1.081 1.077c-4.14-.48-8.312-.935-12.485-.747l1.089-1.195zM-722.196 3151.436c.028 4.032-.006 8.065-.026 12.097l-1.49.485c.166-4.015.22-8.038-.018-12.052l1.534-.53z" style="fill:#000;fill-opacity:1;stroke:none;stroke-width:.5;stroke-miterlimit:4;stroke-dasharray:none;stroke-opacity:1" transform="matrix(.87166 -.0247 .0247 .87166 1086.315 -2490.765)"/><path d="M-724.508 3151.187c2.065.207 4.197.174 6.204.782.672.203 2.024.712 2.373 1.52.147.337.005.736.008 1.104-.259.382-.458.811-.776 1.145-.682.715-1.854 1.394-2.721 1.83-1.647.827-2.864 1.379-4.563 1.818-.57.106-.98.186-.984-.563 0-.052.032-.11.078-.133.507-.258 1.037-.465 1.556-.697.153.067.515.224.64.293.625.343 1.22.739 1.839 1.092.71.406 3.433 1.904 4.016 2.225 2.568 1.326 5.103 2.717 7.688 4.008l-1.386 1.092 1.247-1.186-1.236 1.108c-.517-.353-1.08-.661-1.622-.967a176.942 176.942 0 0 0-5.884-3.159c-5.756-3.066.93.488-4.104-2.169-.278-.147-1.685-1.008-2.196-1.073-.04-.01-.077.027-.115.04.425-.21.862-.397 1.276-.628.027-.015-.068-.01-.086-.035-.072-.095-.111-.21-.173-.31-.023-.037-.106-.067-.081-.103.032-.046.11-.01.166-.02.142-.023.284-.051.427-.078 2.891-.784-2.134.599 1.835-.589.03-.01.059.047.087.034 1.315-.616 2.593-1.335 3.5-2.5.061-.242.265-.49.182-.726-.254-.722-1.629-1.195-2.132-1.343-2.002-.588-4.132-.577-6.195-.62l1.133-1.191zM-773.318 3147.805c-2.038 3.24-4.117 6.454-6.173 9.683-.905 1.442-1.899 2.852-2.492 4.457l-1.517.326c.648-1.644 1.68-3.09 2.631-4.572 1.544-2.43 3.135-4.83 4.617-7.297.273-.455.523-.923.796-1.378.2-.333.415-.656.622-.984l1.516-.235z" style="fill:#000;fill-opacity:1;stroke:none;stroke-width:.5;stroke-miterlimit:4;stroke-dasharray:none;stroke-opacity:1" transform="matrix(.87166 -.0247 .0247 .87166 1086.315 -2490.765)"/></g><path d="M647.11 1525.825c.398 2.934.654 5.887.98 8.83.172 1.207.324 2.42.58 3.613.026.121.058.242.094.36.006.02.053.048.033.055-.511.188-1.036.337-1.553.506l1.597-.617c-.522.306-1.022.655-1.567.918-.044.021-.032-.093-.041-.141-.026-.132-.043-.266-.062-.399-.175-1.226-.326-2.455-.484-3.683-.313-2.914-.573-5.846-1.123-8.727l1.546-.715z" style="fill:#000;fill-opacity:1;stroke:none;stroke-width:.48;stroke-miterlimit:4;stroke-dasharray:none;stroke-opacity:1" transform="translate(-412.96 -1235.835) scale(1.07108)"/><path d="M644.274 1526.156c1.423-.468 3.32-.834 4.81-.984 1.045-.106 2.355-.126 3.412.017.433.058.848.208 1.272.313.797.339 1.624.746 1.407 1.8-.218 1.057-1.31 1.809-2.06 2.459-1.3.959-.984.765-2.86 1.855-.18.104-.378.174-.563.27-.082.042-.298.215-.237.145 1.256-1.437.693-1.264 1.826-1.356 2.112.093 4.575.649 6.04 2.314.261.298.418.674.627 1.01.058.354.2.704.174 1.062-.065.87-.6 1.538-1.343 1.971a17.84 17.84 0 0 1-3.133 1.465c-1.295.449-3.997.692-5.329.85-1.712.038-2.653.158-4.286-.131-.37-.065-.771-.113-1.075-.332-.175-.126-.323-.27-.398-.472l1.728-.805c.258.485.58.45 1.017.615 1.601.305 2.227.05 3.924.01 2.233-.028 3.75-.303 5.22-.734.225-.046.54-.232.75-.325.614-.273 1.286-.741 1.435-1.456.06-.29-.044-.59-.066-.885-.175-.297-.298-.632-.525-.891-1.4-1.6-3.831-2.034-5.842-1.997-.223.01-.7.24-.67.017.167-1.247.48-1.17 1.082-1.47 2.298-1.226-4.862 2.59.907-.545.696-.56 1.061-.808 1.66-1.464.172-.189.634-.684.543-1.05-.12-.48-.749-.643-1.09-.809-.393-.092-.78-.226-1.182-.275-2.52-.308-5.33.283-7.674 1.198.2-.725.24-.892.5-1.39zM660.53 1524.087c.064.327.144.652.193.983.182 1.223.247 2.31.327 3.557.136 2.124.2 4.248.264 6.374.031 1.358.063 2.716.112 4.073l-1.523.608c.037-1.37.042-2.74.011-4.112-.07-3.204-.087-6.647-.664-9.803-.056-.304-.143-.6-.215-.902l1.495-.778z" style="fill:#000;fill-opacity:1;stroke:none;stroke-width:.48;stroke-miterlimit:4;stroke-dasharray:none;stroke-opacity:1" transform="translate(-412.96 -1235.835) scale(1.07108)"/><path d="M659.358 1524.782c3.214-.319 6.43-.631 9.645-.943l1.526-.148-1.08 1.282c-.838.036-.351.011-1.46.082-3.225.255-6.463.518-9.653 1.07l1.022-1.343zM660.223 1529.36c2.602-.111 5.205-.21 7.807-.34l-1.032 1.202c-2.63.069-5.26.185-7.883.412l1.108-1.274zM661.187 1537.692c2.944-.24 5.894-.387 8.844-.54.323-.016.645-.032.967-.05l-1.065 1.237c-.31.01-.62.01-.93.014-2.964.095-5.934.235-8.87.678l1.054-1.339zM673.072 1526.07c-.339 3.395-.062 6.816.179 10.208.103 1.258.2 2.517.309 3.775l-1.512.634a127.52 127.52 0 0 0-.199-3.818c-.226-3.408-.46-6.822-.386-10.24l1.609-.558z" style="fill:#000;fill-opacity:1;stroke:none;stroke-width:.48;stroke-miterlimit:4;stroke-dasharray:none;stroke-opacity:1" transform="translate(-412.96 -1235.835) scale(1.07108)"/><path d="M671.383 1526.588c3.466-.364 6.969-.683 10.458-.567l.537.075-1.166 1.21-.46-.079c-3.473-.208-6.974.12-10.406.647l1.037-1.285zM671.988 1531.579c3.108-.169 6.22-.218 9.331-.331l-1.047 1.206c-3.12.022-6.246.097-9.35.42l1.066-1.295zM687.144 1526.537c-.356.228-.58.482-.954.768-.44.53-.986.967-1.411 1.508-.674.857-1.645 2.431-1.936 3.527-.145.545-.098 1.124-.147 1.687.06.429.186 1.035.47 1.461.705 1.057 1.922 1.478 3.115 1.629 1.801.228 2.985-.061 4.649-.777.341-.147.851-.474 1.3-.913.5-.53.732-.833 1.104-1.512.65-1.186.878-2.861.43-4.164-.443-1.284-1.648-2.473-2.685-3.27-.497-.383-1.068-.659-1.601-.988-.906-.662-2.727-.587-2.916-.6.464-.406.877-.88 1.393-1.217.977-.01 2.445.707 2.71.858.543.358 1.124.664 1.63 1.072 1.095.883 2.363 2.18 2.845 3.547.484 1.377.284 3.22-.353 4.505-.36.726-.99 1.283-1.485 1.925-1.129.926-2.095 1.408-3.237 1.933-2.43 1.116-6.627 1.235-8.286-1.32-.312-.48-.442-.991-.529-1.632.04-.613-.024-1.241.12-1.838.157-.642.421-1.387.767-1.951 1.904-3.107 3.27-4.283 5.915-5.634zM698.172 1524.476c.154 3.991.383 7.977.704 11.958l-1.38.58a287.375 287.375 0 0 0-.82-11.879l1.496-.66z" style="fill:#000;fill-opacity:1;stroke:none;stroke-width:.48;stroke-miterlimit:4;stroke-dasharray:none;stroke-opacity:1" transform="translate(-412.96 -1235.835) scale(1.07108)"/><path d="M694.315 1526.298c.654-.358 1.283-.766 1.962-1.073.71-.321 1.842-.38 2.555-.394 1.095-.02 2.201.068 3.275.29.455.096.895.251 1.343.376.3.183.661.289.899.547.187.204.3.494.313.77.057 1.187-1.395 1.96-2.215 2.439-.849.495-1.72.95-2.58 1.426-1.198.568-2.141 1.095-3.268 1.535.35-.526.75-1.017 1.125-1.525.094-.032.183-.091.282-.096.643-.032 1.354.366 1.874.672.487.286 2.29 1.484 2.64 1.714 2.206 1.602 4.565 3.004 6.676 4.737l.133.137-1.425.959-.07-.099c-1.933-1.878-4.34-3.201-6.513-4.766-.505-.314-1.006-.635-1.516-.94-.658-.395-1.592-1.067-2.43-1.078-1.039.514-.034-.683.227-1.114.019-.028.063-.027.094-.04.1-.041.202-.08.302-.123a47.188 47.188 0 0 0 2.723-1.287c.748-.388.987-.504 1.328-.69.283-.187 1.587-.991 1.04-1.6-.203-.227-.455-.341-.779-.475-.364-.163-.847-.264-1.282-.349a12.691 12.691 0 0 0-3.193-.209c-1.307.046 0 0-1.83.105l-1.69.15z" style="fill:#000;fill-opacity:1;stroke:none;stroke-width:.48;stroke-miterlimit:4;stroke-dasharray:none;stroke-opacity:1" transform="translate(-412.96 -1235.835) scale(1.07108)"/><path d="M709.804 1524.88c.266 3.477.499 6.957.769 10.434.058.917.058 1.835.03 2.753l-1.57.585c.103-.908.14-1.819.103-2.733-.193-3.462-.416-6.931-.87-10.37l1.538-.67zM708.715 1523.57c3.516.027 7.032-.028 10.546-.135l1.006-.04-1.068 1.229c-.322 0-.644 0-.967-.01-3.542.013-7.085.082-10.625.227l1.108-1.274z" style="fill:#000;fill-opacity:1;stroke:none;stroke-width:.48;stroke-miterlimit:4;stroke-dasharray:none;stroke-opacity:1" transform="translate(-412.96 -1235.835) scale(1.07108)"/><path d="M710.401 1529.393c2.564-.26 5.131-.49 7.705-.633l-1.005 1.177c-2.59.108-5.174.33-7.736.735l1.036-1.28zM709.512 1536.616c3.92-.398 7.856-.707 11.798-.634.018 0 1.098.04 1.33.152.081.039.12.133.179.2l-1.451.934c-.572-.062-.704-.081-1.109-.111-3.944-.164-7.911.13-11.8.798z" style="fill:#000;fill-opacity:1;stroke:none;stroke-width:.48;stroke-miterlimit:4;stroke-dasharray:none;stroke-opacity:1" transform="translate(-412.96 -1235.835) scale(1.07108)"/><path d="M765.216 1521.734c.837 1.201 1.351 2.584 1.938 3.915.298.673 1.353 2.991 1.638 3.618.922 2.122 1.931 4.233 2.479 6.491l-1.549.625c-.391-2.263-1.407-4.356-2.312-6.448l-.867-1.873c-.27-.577-.543-1.153-.811-1.731-.59-1.27-1.116-2.605-1.974-3.726l1.458-.871z" style="fill:#000;fill-opacity:1;stroke:none;stroke-width:.5;stroke-miterlimit:4;stroke-dasharray:none;stroke-opacity:1" transform="translate(-412.96 -1235.835) scale(1.07108)"/><path d="M759.01 1529.046c3.048.438 6.114.78 9.196.779l-1.142 1.148c-3.1-.107-6.176-.478-9.264-.744l1.21-1.183zM774.81 1523.038c-.4 2.997-.793 6.009-.882 9.035-.019.623 0 1.247 0 1.87.067 1.787.017.976.13 2.434l-1.543.544c-.055-1.497-.031-.667-.06-2.49.04-3.642.37-7.268.744-10.89l1.61-.503z" style="fill:#000;fill-opacity:1;stroke:none;stroke-width:.5;stroke-miterlimit:4;stroke-dasharray:none;stroke-opacity:1" transform="translate(-412.96 -1235.835) scale(1.07108)"/><path d="M772.15 1522.68c3.838.106 7.674.303 11.51.463l1.058.045-1.275 1.141c-.341-.025-.682-.05-1.023-.073-3.853-.242-7.712-.408-11.573-.415l1.303-1.16zM774.105 1528.835c2.895.118 5.79.251 8.686.364l-1.232 1.093c-2.908-.157-5.818-.298-8.73-.299l1.276-1.158zM783.433 1525.246c4.076.095 8.145.44 12.216.703 2.222.133 1.221.075 3.003.173l-1.028 1.243c-1.721-.178-.75-.083-2.915-.275-4.11-.31-8.223-.584-12.341-.556l1.065-1.288z" style="fill:#000;fill-opacity:1;stroke:none;stroke-width:.5;stroke-miterlimit:4;stroke-dasharray:none;stroke-opacity:1" transform="translate(-412.96 -1235.835) scale(1.07108)"/><path d="M791.159 1525.589a405.231 405.231 0 0 0-.212 10.07c-.01.846-.005 1.693-.014 2.54l-1.612.434c.062-.85.102-1.703.122-2.557.073-3.341.17-6.686.109-10.03l1.607-.457zM801.087 1525.102c-.567 3.113-.6 6.28-.54 9.433a31.14 31.14 0 0 1-.066 2.377l-1.612.43c.13-.78.182-1.567.19-2.357-.024-3.166.027-6.334.418-9.479l1.61-.404z" style="fill:#000;fill-opacity:1;stroke:none;stroke-width:.5;stroke-miterlimit:4;stroke-dasharray:none;stroke-opacity:1" transform="translate(-412.96 -1235.835) scale(1.07108)"/><path d="M800.175 1524.348c3.579-.139 7.161-.09 10.74-.048.406.01.81.012 1.216.018l-1.085 1.14-1.175-.053c-3.598-.1-7.207-.126-10.8.17l1.104-1.226zM800.862 1529.61c2.489.114 4.979.2 7.469.287l-1.122 1.11c-2.5-.128-5-.241-7.504-.22l1.157-1.177zM800.137 1536.427c4.168.088 8.325.5 12.477.864l-1.081 1.078c-4.14-.48-8.312-.936-12.485-.747l1.089-1.195zM816.602 1524.943c.028 4.032-.006 8.064-.026 12.097l-1.49.485c.165-4.015.22-8.039-.018-12.052l1.534-.53z" style="fill:#000;fill-opacity:1;stroke:none;stroke-width:.5;stroke-miterlimit:4;stroke-dasharray:none;stroke-opacity:1" transform="translate(-412.96 -1235.835) scale(1.07108)"/><path d="M814.29 1524.694c2.065.207 4.197.174 6.204.782.672.203 2.024.712 2.373 1.519.147.338.005.737.008 1.105-.259.381-.458.81-.776 1.145-.682.714-1.854 1.394-2.721 1.83-1.647.827-2.864 1.378-4.563 1.818-.57.105-.98.186-.984-.563 0-.052.032-.11.078-.134.507-.257 1.037-.464 1.556-.696.153.067.515.224.64.293.625.343 1.22.738 1.839 1.092.71.405 3.433 1.903 4.016 2.225 2.568 1.325 5.103 2.717 7.688 4.008l-1.386 1.091 1.246-1.186-1.235 1.108c-.517-.353-1.08-.66-1.622-.967a176.942 176.942 0 0 0-5.884-3.158c-5.756-3.066.929.488-4.104-2.17-.278-.147-1.685-1.008-2.196-1.073-.04-.01-.077.027-.115.041.425-.21.862-.398 1.276-.629.027-.015-.068-.01-.087-.035-.07-.095-.11-.209-.172-.31-.023-.037-.106-.067-.081-.103.032-.046.11-.01.166-.019.142-.024.284-.052.426-.079 2.892-.784-2.133.6 1.836-.588.03-.01.059.047.087.034 1.315-.617 2.593-1.335 3.5-2.5.061-.242.265-.491.182-.727-.254-.721-1.629-1.194-2.132-1.342-2.002-.589-4.132-.577-6.195-.62l1.132-1.192zM765.48 1521.311c-2.038 3.24-4.117 6.455-6.173 9.684-.905 1.442-1.899 2.851-2.492 4.457l-1.517.326c.648-1.644 1.68-3.091 2.631-4.572 1.543-2.43 3.135-4.83 4.617-7.298.273-.454.523-.923.796-1.378.2-.332.415-.656.622-.984l1.516-.235z" style="fill:#000;fill-opacity:1;stroke:none;stroke-width:.5;stroke-miterlimit:4;stroke-dasharray:none;stroke-opacity:1" transform="translate(-412.96 -1235.835) scale(1.07108)"/></g><g style="display:inline"><g style="display:inline;fill:#000;stroke:none;stroke-width:.322195;stroke-miterlimit:4;stroke-dasharray:none;stroke-opacity:1"><path d="M638.206 1219.737c-.203-.128-.39-.286-.61-.386-1.287-.586-2.893-.29-4.111.333-.362.185-.676.452-1.013.678-.527.586-.884.796-1.011 1.6-.032.196.076-.59.267-.533.397.119.543.64.885.876.958.658 2.61 1.239 3.64 1.65 1.854.79 3.874 1.234 5.544 2.412.397.28 1.33 1.012 1.21 1.707-.143.818-.568 1.56-.852 2.34-1.97 1.111-4.176 1.664-6.423 1.843-1.277.103-2.644.097-3.871-.352-.401-.147-.73-.442-1.095-.663l.24-1.528c.308.222.574.522.926.668 1.14.47 2.514.476 3.705.382 2.144-.17 4.26-.693 6.096-1.84.223.197.386.68.67.591.253-.079.102-.558-.016-.795-.174-.346-.496-.605-.804-.842-1.608-1.236-3.643-1.643-5.469-2.426-1.07-.413-2.792-1.014-3.806-1.637-.418-.258-.951-.48-1.142-.933-.528-1.248-.537-2.272.206-3.243.23-.3.538-.529.806-.794.372-.23.72-.503 1.115-.693 1.359-.657 3.102-.945 4.533-.352.224.093.414.251.62.377l-.24 1.56zM639.351 1198.412c2.076 6.614 3.992 13.276 6.116 19.875 1.117 3.235 2.02 6.558 3.316 9.73-.635 1.454-.439 1.819-.693 1.034l.545-1.49c.32.85.151.209-.38 1.954-1.245-3.237-2.187-6.585-3.297-9.868-2.116-6.563-3.985-13.202-6.127-19.757l.52-1.478zM655.35 1213.68c-.16.077-.327.14-.478.23-1.53.956-2.748 2.419-3.472 4.064-.23.525-.364 1.089-.546 1.633-.01.53-.138 1.071-.032 1.591.027.132.288.031.384.126.353.346.55.84.927 1.16.955.81 2.134 1.157 3.359 1.28.708.073 1.424-.016 2.136-.024.693-.183 1.414-.282 2.078-.55 1.828-.735 3.477-2.133 3.919-4.137.371-1.687.373-1.47-.483-2.09-.379-.495-.694-1.048-1.137-1.488-.922-.914-2.082-1.584-3.302-2.008-.482-.168-.997-.218-1.496-.327l.068-1.443c.527.122 1.07.189 1.582.367 1.265.443 2.506 1.132 3.495 2.044.486.448.852 1.012 1.278 1.517.404 1.78 1.018 3.005.494 4.753-.612 2.04-2.366 3.448-4.285 4.19-.7.266-1.452.371-2.178.557-1.75.03-2.607.207-4.281-.38-.82-.286-2.314-1.155-2.685-2.063-.764-1.868-.54-2.666-.382-4.397.206-.552.365-1.124.618-1.656.805-1.7 2.095-3.245 3.702-4.243.174-.108.368-.18.552-.27l.165 1.564zM667.385 1208.3c.196.305.426.59.588.915.446.888 1.376 3.32 1.68 4.128.67 1.781 1.33 3.641 1.925 5.447.336 1.02.65 2.048.974 3.072.774 2.559 1.535 5.123 2.246 7.7.142.514.278 1.029.413 1.544.08.31.197.612.234.93.063.556.042 1.12.063 1.68-.265-.099-.61-.082-.796-.294-.303-.343-.399-.825-.567-1.25a30.71 30.71 0 0 1-.802-2.219 59.49 59.49 0 0 1-1.68-7.117c-.217-1.278-.343-2.57-.514-3.855-.02-1.526-.174-3.056-.061-4.577.225-3.036 1.847-6.604 5.264-6.987.674-.075 1.352.11 2.029.166.633.257 1.304.436 1.9.77 1.053.591 2.07 1.485 2.564 2.624.571 1.316.35 3.329-.095 4.54-.202.549-.75.898-1.125 1.347-.487.317-.93.714-1.462.949-1.04.458-2.24.557-3.357.526-.435-.012-.866-.1-1.3-.151l.03-1.475c.409.061.813.164 1.226.183 1.042.05 2.158-.043 3.122-.49.488-.227.887-.61 1.33-.916.321-.432.601-.896.962-1.294.113-.124.412-.081.437-.247.27-1.814-1.028-3.335-2.472-4.198-.55-.33-1.18-.507-1.769-.76-1.545-.14-2.137-.44-3.558.391a5.098 5.098 0 0 0-1.457 1.289c-1.14 1.49-1.456 3.001-1.675 4.843-.093.778-.03 1.567-.044 2.35.162 1.283.273 2.573.487 3.848a52.69 52.69 0 0 0 1.682 6.95c.23.718.519 1.417.804 2.115.16.39.484.728.532 1.146.02.176-.236.263-.355.395.03.37.332.827.092 1.11-.216.256-.126-.656-.2-.983a60.169 60.169 0 0 0-.384-1.596c-.666-2.613-1.423-5.202-2.195-7.786-1.428-4.476-2.886-8.974-4.956-13.202l.24-1.56zM688.088 1208.421c.264-.093.536-.167.793-.28 1.132-.49 2.285-1.161 3.15-2.053.653-.675.726-.956 1.118-1.741.026-.265.186-.552.078-.795-.089-.2.07.619-.148.637-.237.021-.227-.43-.403-.59-.406-.37-.984-.535-1.524-.507-.31.017-.606.14-.91.21-.34.224-.714.404-1.02.672-1.311 1.149-2.2 2.808-2.607 4.488-.41 1.69-.41 1.42-.082 2.462.236.519.372 1.097.71 1.556.666.902 1.861 1.619 2.964 1.796 1.578.254 3.313-.166 4.78-.664.87-.294 1.689-.72 2.533-1.08l2.198-1.222.228 1.332-2.24 1.203c-.865.365-1.704.794-2.592 1.097-1.543.527-3.368.983-5.03.744-1.175-.168-2.529-.932-3.283-1.85-.386-.471-.566-1.079-.849-1.618-.066-1.04-.227-2.078-.2-3.12.018-.656.16-1.308.336-1.941.484-1.74 1.45-3.467 2.857-4.629.353-.292.78-.48 1.171-.721.902-.188 1.17-.363 2.078-.1.4.115 1.307.579 1.45 1.067.47 1.613.32 1.786.007 2.993-.477.797-.576 1.068-1.29 1.755-1.141 1.096-2.668 1.893-4.133 2.457l-.14-1.558zM705.619 1201.448c2.6-.691 5.181-1.455 7.77-2.188 1.677-.459.887-.254 2.368-.623l.132 1.49c-1.47.323-.685.14-2.355.563-2.605.72-5.196 1.488-7.765 2.33l-.15-1.572zM717.918 1178.934c.564 2.497.966 5.025 1.53 7.521.186.828.39 1.652.587 2.477 1.198 4.759 2.65 9.448 4.008 14.162.119.407.24.813.356 1.22.072.252.14.505.206.758.034.127.06.256.095.382.01.045.06.088.044.131-.61 1.502-.407 1.774-.723 1.21-.056-.11-.028-.063-.081-.146l.6-1.478c-.023.067-.016.027-.001.124.175.666.048.091-.476 1.725-.013.042.038-.082.037-.126a2.82 2.82 0 0 0-.058-.409c-.052-.267-.11-.533-.175-.798-.106-.423-.226-.843-.338-1.264-1.29-4.758-2.753-9.466-3.995-14.237-.515-2.084-.662-2.61-1.1-4.648-.37-1.721-.646-3.464-1.103-5.166l.588-1.438z" style="opacity:1;fill:#000;fill-opacity:1;stroke:none;stroke-width:.322195;stroke-linecap:square;stroke-linejoin:miter;stroke-miterlimit:4;stroke-dasharray:none;stroke-opacity:1" transform="matrix(.5195 0 0 .5195 -103.668 -570.61)"/></g><g style="display:inline"><path d="M757.35 1176.723c.624.274 1.275.495 1.874.821.387.211 1.682 1.42 1.891 1.617 1.452 1.362 2.855 2.774 4.258 4.185 1.363 1.358 2.682 2.765 4.092 4.076.202.188 1.16 1.035 1.514 1.258.09.056.2.069.3.103-.515-.131-1.076-.142-1.544-.393-.172-.092-.142-.363-.208-.547a55.82 55.82 0 0 1-.397-1.153c-.7-2.109-1.334-4.213-1.937-6.352-.53-2.069-.97-4.159-1.435-6.243l-.241-1.075c-.044-.196-.111-.387-.132-.586-.01-.102.026-.204.038-.305l.335-.306 1.121 1.127.064-.373c-.063.35.234 1.582.274 1.786.41 2.079.842 4.154 1.382 6.203.235.808.456 1.62.706 2.425.296.957.963 2.901 1.324 3.912.14.393.301.777.435 1.172.08.234.413.583.202.712-.443.274-1.04.083-1.56.125-.618-.445-1.181-.972-1.728-1.5-1.378-1.33-2.695-2.725-4.05-4.078-1.415-1.406-2.827-2.825-4.313-4.157a21.543 21.543 0 0 0-1.09-.927c-.273-.214-.791-.253-.854-.594-.048-.265.521.133.782.2l-1.103-1.133zM777.71 1170.37c-1.51 1.688-2.683 3.617-3.558 5.705-.644 1.536-1.129 2.995-1.206 4.668-.028.594.107 1.184.161 1.775.228.444.632 1.82 1.554 1.628.208-.043-.285-.44-.165-.614.264-.383.812-.475 1.141-.803 1.075-1.068 1.206-1.785 1.803-3.184.529-1.66.705-3.37.654-5.102-.008-.272-.056-.542-.06-.814-.002-.106-.063-.32.042-.315.64.032 1.25.274 1.875.41 1.49 1.475 3.378 2.405 5.298 3.192.656.269 2.582.744 2.917.834l1.022 1.035c-.681-.173-1.374-.304-2.043-.519-3.182-1.021-6.209-2.267-8.764-4.459.402-.01.81-.087 1.207-.028.068.01-.05.132-.052.201-.01.278.02.555.018.833-.017 1.78-.207 3.544-.753 5.25-.635 1.532-.742 2.211-1.867 3.412-.364.388-.726.892-1.248.996-1.038.209-2.738.068-3.47-.95-.279-.388-.363-.885-.545-1.328-.035-.622-.148-1.245-.105-1.867.12-1.729.613-3.178 1.274-4.773.882-2.127 2.038-4.103 3.5-5.882l1.37.698zM777.114 1151.064c.09.091.19.172.268.272.212.27.4.557.602.834 1.223 1.685.8 1.036 2.145 3.188 1.28 2.046 1.864 3.051 3.13 5.172 2.811 4.917 5.932 9.67 8.431 14.76.55 1.1.287.634.755 1.414l-1.554-.146c-.407-.808-.176-.333-.68-1.432-.225-.477-.435-.962-.673-1.433-.753-1.495-1.6-2.983-2.432-4.432-1.704-2.968-3.465-5.903-5.218-8.843-1.071-1.762-2.068-3.437-3.192-5.16-.888-1.363-1.81-2.713-2.888-3.936-.085-.097-.184-.181-.276-.272l1.582.014zM791.25 1160.758c-.097 1.97.406 3.922 1.21 5.713.339.757.71 1.505 1.162 2.2.45.694 1.022 1.3 1.533 1.949 1.173.989 1.992 1.947 3.553 2.295.173.038.26-.248.418-.327.438-.215.977-.242 1.357-.548 1.14-.918 1.25-2.058 1.659-3.37.023-.847.13-1.696.07-2.54-.207-2.85-1.232-5.774-3.275-7.826-.213-.214-.47-.378-.706-.568l-.406-.167 1.565-.117.377.269c.222.213.464.408.666.64 1.944 2.237 2.955 5.186 3.153 8.123.059.885-.05 1.774-.074 2.66-.45 1.47-.568 2.658-1.79 3.727-1.38 1.209-2.82.685-4.468.176-.644-.199-1.24-.548-1.79-.937-.634-.449-1.155-1.039-1.733-1.558-.509-.674-1.076-1.308-1.526-2.022-.453-.718-.828-1.484-1.172-2.259-.83-1.868-1.357-3.893-1.3-5.945l1.517.432zM808.704 1159.244c1.34-1.085 2.687-2.231 3.64-3.691.421-.644.957-1.632.784-2.482-.057-.276-.311-.47-.467-.706-2.823-.568-.097-.328-.862.324-.401.341-.995.366-1.447.638-1.127.676-1.9 1.444-2.525 2.618-.315.591-.467 1.256-.701 1.884-.044.678-.196 1.357-.133 2.033a6.122 6.122 0 0 0 3.18 4.839c.59.322 1.228.64 1.9.685.424.03.788-.317 1.181-.476.923-.281 1.882-.465 2.77-.844 2.375-1.014 4.209-2.357 6.351-3.766l1.15.69c-1.975 1.31-4.198 2.896-6.367 3.89-.9.412-1.876.637-2.814.955-1.24-.094-2.499-.044-3.72-.283-.679-.133-1.32-.452-1.908-.819-1.84-1.149-2.972-3.095-3.126-5.253-.052-.717.112-1.434.168-2.151.247-.665.412-1.366.74-1.995.67-1.283 1.422-2.044 2.613-2.824.475-.311.953-.707 1.517-.778 1.97-.249 2.251.07 3.56.788.133.323.363.62.399.968.097.956-.427 1.948-.916 2.698-.97 1.486-2.32 2.66-3.623 3.838l-1.344-.78zM828.626 1149.165c3.276-1.765 6.588-3.461 9.874-5.207l1.255.808c-3.294 1.675-6.595 3.348-9.783 5.22l-1.346-.82zM835.429 1122.86c.277.487.846 1.481 1.059 1.892.162.31 1.854 3.745 1.898 3.835 1.562 3.148 1.025 2.075 2.742 5.379 2.432 4.703 5.136 9.257 7.814 13.822.62 1.018 1.21 2.052 1.823 3.074.123.205.284.522.473.698-1.658-.116-1.409.12-1.977-.572l1.586.066c.495.635.547.428-1.2.418-.672-1.295-1.463-2.528-2.157-3.81-2.63-4.582-5.325-9.128-7.731-13.834-1.861-3.529-1.098-2.051-2.8-5.392-.493-.969-1.414-2.808-1.972-3.818-.41-.745-.7-1.187-1.127-1.866l1.569.107z" style="opacity:1;fill:#000;fill-opacity:1;stroke:none;stroke-width:.4;stroke-linecap:square;stroke-linejoin:miter;stroke-miterlimit:10;stroke-dasharray:none;stroke-opacity:1" transform="matrix(.4728 .09243 -.09243 .4728 162.401 -583.702)"/></g><g style="fill:#000"><path d="M631.332 911.176c.453.188.941.307 1.359.565 2.894 1.784 4.987 4.933 6.743 7.73 3.064 4.883 3.351 5.996 5.94 11.542 4.502 10.86 7.374 22.272 7.996 34.034.392 7.405-.01 11.482-.403 18.734-.965 7.156-.902 8.128-2.535 14.933-1.057 4.408-2.33 9.002-4.998 12.755-.41.575-.954 1.042-1.43 1.562l-.76.155c.486-.506 1.041-.953 1.456-1.519 2.72-3.701 4.001-8.312 5.067-12.698 1.645-6.77 1.59-7.794 2.566-14.911.412-7.312.818-11.236.424-18.709-.618-11.736-3.48-23.129-7.986-33.96-2.587-5.51-2.885-6.64-5.947-11.491-1.732-2.745-3.814-5.884-6.687-7.605-.407-.244-.883-.346-1.324-.519l.519-.598z" style="opacity:1;fill:#000;fill-opacity:1;stroke:none;stroke-width:.08;stroke-linecap:square;stroke-linejoin:miter;stroke-miterlimit:4;stroke-dasharray:none;stroke-opacity:1" transform="translate(-413.22 -907.839) scale(1.07108)"/><path d="M643.639 1008.662a121.781 121.781 0 0 0-2.899 8.717c.118-.956-.152.712-.135.53.01-.11-.031-.249.046-.327.195-.197.471-.291.707-.436.442-.27.887-.536 1.328-.81.665-.412 1.326-.832 1.99-1.249 3.657-2.446 7.309-4.904 10.829-7.545l.779-.117c-3.896 2.916-7.94 5.627-11.98 8.338-2.156 1.356-1.514.963-3.33 2.074-.238.146-.45.351-.717.437-.128.042-.282-.01-.397-.078-.163-.098.631-.63.136-.553a149.262 149.262 0 0 1 2.889-8.743l.754-.239z" style="opacity:1;fill:#000;fill-opacity:1;stroke:none;stroke-width:.08;stroke-linecap:square;stroke-linejoin:miter;stroke-miterlimit:4;stroke-dasharray:none;stroke-opacity:1" transform="translate(-413.22 -907.839) scale(1.07108)"/></g><path d="M844.875 918.952h4.079v3.201h-4.079z" style="display:inline;opacity:1;fill:#fff;fill-opacity:1;stroke:none;stroke-width:.107108;stroke-linecap:square;stroke-linejoin:miter;stroke-miterlimit:4;stroke-dasharray:none;stroke-opacity:1" transform="translate(-388.55 -842.8)"/><path d="M832.365 895.651c.502.369 1.047.692 1.507 1.105 4.389 3.938 7.69 9.065 10.07 14.22.952 2.062 1.707 4.195 2.56 6.292 3.988 10.164 5.88 20.863 6.86 31.6.315 3.455.578 6.916.687 10.382.11 3.523-.019 7.05-.029 10.574-.58 12.846-3.224 25.566-7.389 37.825-1.837 5.408-3.061 7.954-5.282 13.04-2.534 5.177-1.328 2.877-3.544 6.932l-.873.237c2.254-4.047 1.03-1.75 3.593-6.923 2.245-5.098 3.463-7.6 5.32-13.025 4.189-12.24 6.846-24.944 7.44-37.777.011-3.52.143-7.042.032-10.56-.108-3.461-.374-6.918-.69-10.368-.985-10.715-2.893-21.387-6.864-31.532-.853-2.088-1.608-4.213-2.56-6.265-2.37-5.115-5.656-10.216-10.04-14.103-.462-.409-1.006-.73-1.51-1.094l.712-.56z" style="opacity:1;fill:#000;fill-opacity:1;stroke:none;stroke-width:.305258;stroke-linecap:square;stroke-linejoin:miter;stroke-miterlimit:4;stroke-dasharray:none;stroke-opacity:1" transform="translate(-388.55 -842.8)"/><path d="M709.822 894.14c-.085-.117-.148-.253-.254-.352-.622-.581-1.648-.92-2.49-.739-.185.04-.347.151-.52.227-.09.131-.246.236-.268.393-.01.071.167.013.202.077.107.199.101.443.19.65.37.872 1.095 1.82 1.627 2.604.505.822 1.527 2.098.277 2.881-.33.207-1.4-.122-1.639-.177-.335-.133-.682-.238-1.005-.4-.73-.366-1.719-1.04-2.202-1.727-.092-.13-.132-.29-.198-.434l.386-.461v0c.048.135.066.285.143.406.433.673 1.432 1.352 2.125 1.697.315.156.655.255.982.382.289.061.571.16.865.182.207.016.416-.108.619-.065.074.016.05.285.077.214.273-.706-.508-1.487-.771-2.033-.217-.319-1.023-1.494-1.23-1.83-.134-.217-.697-1.147-.689-1.489.023-.92.174-.957.644-1.45.193-.07.377-.172.578-.207.91-.155 1.964.202 2.646.81.116.102.19.243.284.365l-.379.476zM716.19 885.084c-1.054 2.688-2.01 5.414-2.996 8.127-.222.605-.443 1.21-.668 1.813-.545 1.464-.64 1.703-1.183 3.098-.325.832-.66 1.66-.956 2.502-.154-.176-.074.434-.108.414-.42-.247-.107-.097-.016-.052.041.09.08.112-.081-.007l-.16.597v0c-.133-.06-.181-.028-.15-.112l.153.06c-.372-.15-.221-.082-.11-.536.301-.853.648-1.688.98-2.53.54-1.366.663-1.672 1.198-3.104.225-.603.446-1.208.669-1.812.977-2.699 1.932-5.406 2.936-8.095l.491-.363zM717.856 897.707c-.054-.074-.096-.157-.16-.222-.755-.756-1.797-.432-2.69-.19-.737.237-1.319.62-1.719 1.298-.046.078-.04.177-.051.267-.135 1.05-.135.623.114 1.683.146.264.254.553.437.793.825 1.09 2.289 1.523 3.605 1.244.29-.06.55-.22.826-.33.17-.213.397-.39.508-.64.06-.133-.02-.29-.028-.436-.02-.348 0-.7-.056-1.042a5.615 5.615 0 0 0-.706-1.899c-.132-.22-.309-.412-.463-.618-.181-.159-.437-.45-.711-.507-.043-.009-.079.037-.118.055l.175-.586v0c.074-.002.152-.027.223-.005.317.095.537.355.773.564.161.214.346.414.485.643.352.583.625 1.28.753 1.946.068.355.15.722.096 1.08a4.433 4.433 0 0 1-.473 1.39c-.135.253-.395.415-.593.623-.292.103-.571.255-.876.31-1.387.254-2.897-.202-3.778-1.33-.194-.25-.314-.55-.472-.823-.081-.3-.211-.591-.245-.9-.106-.965.421-2.035 1.13-2.667.452-.404.766-.468 1.318-.681.263-.068.522-.154.789-.202.878-.158 1.731-.052 2.287.703l-.38.479zM721.918 899.22c-1.188 3.438-2.842 6.69-4.416 9.962-.33.73-.655 1.423-.952 2.163-.061.153-.04.36-.167.466-.051.042-.29-.151-.254-.258.143-.43.327-.846.49-1.27.26-.607.501-1.223.779-1.822.325-.702.663-1.399 1.029-2.08 1.019-1.899 2.123-3.842 3.865-5.185.38-.293.826-.49 1.239-.735.374-.095.739-.232 1.12-.285.83-.115 1.688.1 2.003.97.248.683.074 1.097-.053 1.773-.462.932-.533 1.258-1.459 2.039-.723.61-1.991.903-2.9.603-.24-.079-.435-.255-.652-.383l-.386-.45.34-.491v0l.331.423c.196.12.369.286.586.358.591.196 1.228.118 1.799-.103.337-.13.631-.354.947-.532.166-.093.373-.137.498-.281.201-.233.298-.54.447-.809.068-.285.178-.564.204-.857.043-.49-.012-1.046-.406-1.406-.696-.638-1.774-.22-2.52-.013-.4.243-.832.44-1.2.729-2.03 1.593-3.336 4.099-4.395 6.391-.274.593-.509 1.203-.764 1.804-.157.416-.309.835-.472 1.249-.144.367-.224.771-.45 1.094-.051.072-.232-.02-.242-.109-.02-.17.11-.325.175-.484.274-.675.684-1.553.972-2.187 1.575-3.253 3.23-6.486 4.398-9.913l.466-.372zM729.445 904.36c.09.086.168.185.268.258.692.507 1.75.827 2.608.715.205-.027.397-.119.595-.178.137-.105.284-.198.41-.317.023-.021-.082.05-.094.02-.058-.154-.01-.341-.085-.488-.22-.424-.652-.651-1.094-.766-.3-.079-.616-.076-.924-.114-1.107.099-2.003.26-2.885.99-.226.187-.45.391-.598.645-.055.095 0 .224.033.329.098.304.24.593.36.89.337.292.637.635 1.014.875.903.573 2.005.917 3.037 1.152.47.108.952.156 1.428.234l-.215.521v0c-.48-.083-.968-.137-1.443-.248-1.047-.245-2.183-.602-3.105-1.178-.4-.25-.724-.606-1.086-.908-.15-.324-.454-.615-.448-.971.007-.456.253-.885.484-1.278.152-.259.401-.452.64-.634.93-.714 1.86-.877 3-.96.71.094 1.127.055 1.727.469.248.172.725.698.643 1.084-.18.843-.397.872-.953 1.227-.214.054-.423.138-.643.16-.907.092-1.99-.24-2.73-.761-.112-.08-.204-.184-.306-.275l.362-.492z" style="opacity:1;fill:#000;fill-opacity:1;stroke:#000;stroke-width:.08;stroke-linecap:square;stroke-linejoin:miter;stroke-miterlimit:10;stroke-dasharray:none;stroke-opacity:1" transform="rotate(-11.933 -3750.103 2506.617) scale(1.07108)"/><path d="M741.176 913.06c.89-2.573 1.882-5.107 2.839-7.655.993-2.522 1.91-5.084 3.069-7.531l.326-.633c.02-.024.03-.081.06-.071a.271.271 0 0 1 .163.145c.002.004-.097.201-.123.252l-.396.29v0c.025-.05.122-.243.124-.244.396-.078.04.344.229-.022-1.205 2.438-2.116 5.018-3.115 7.55-.947 2.533-1.939 5.05-2.793 7.619l-.383.3z" style="opacity:1;fill:#000;fill-opacity:1;stroke:#000;stroke-width:.24;stroke-linecap:square;stroke-linejoin:miter;stroke-miterlimit:10;stroke-dasharray:none;stroke-opacity:1" transform="rotate(-11.933 -3750.103 2506.617) scale(1.07108)"/><path d="M740.578 924.706a51.747 51.747 0 0 0-3.297 10.412c-.274 1.357-.461 2.73-.692 4.094-1.346 10.757-1.932 21.667-.923 32.483.227 2.437.617 4.856.926 7.283 1.043 6.097 2.382 12.176 4.724 17.922.978 2.399 2.042 4.52 3.595 6.574.414.547.938 1 1.406 1.5-.297 1.569 1.242.198 1.5.683.07.134-.293.086-.44.128l.833-.17c-1.45 1.03-1.022.878-2.543-.144-.47-.516-.996-.987-1.413-1.547-1.548-2.086-2.608-4.218-3.588-6.643-2.333-5.77-3.668-11.865-4.715-17.98-.31-2.433-.701-4.856-.93-7.297-1.02-10.821-.453-21.736.845-32.505.223-1.368.402-2.744.669-4.104.703-3.58 1.838-7.093 3.228-10.462l.815-.227z" style="opacity:1;fill:#000;fill-opacity:1;stroke:none;stroke-width:.257059;stroke-linecap:square;stroke-linejoin:miter;stroke-miterlimit:10;stroke-dasharray:none;stroke-opacity:1" transform="translate(-388.55 -842.8)"/><path d="M742.63 1006.055c.56.472 1.117.948 1.681 1.416.577.478 2.685 2.191 3.335 2.718.381.309.741.647 1.145.925.215.147.545.136.702.344.1.131-.326-.043-.489-.064-.102-.503-.182-1.012-.308-1.51-.516-2.049-1.147-4.067-1.674-6.112a82.03 82.03 0 0 1-1.632-7.9l.73-.374c.278 1.907.341 2.542.79 4.589.699 3.177 1.671 6.269 2.514 9.406.147.547.26 1.102.39 1.654-.31.296-.521.765-.933.888-.264.08-.502-.232-.727-.391-.4-.284-.758-.621-1.137-.932-1.678-1.372-3.364-2.733-5.025-4.126l.638-.53z" style="opacity:1;fill:#000;fill-opacity:1;stroke:none;stroke-width:.257059;stroke-linecap:square;stroke-linejoin:miter;stroke-miterlimit:10;stroke-dasharray:none;stroke-opacity:1" transform="translate(-388.55 -842.8)"/><path d="M896.475 893.815c.36 1.704.616 3.428.894 5.147.071.172.136 1.12.322 1.26.03.022.044-.059.064-.09.075-.116.153-.23.222-.35.138-.241.265-.488.398-.731a639.721 639.721 0 0 1 3.267-6.117c.379-.698-.034.052-.04.121-.01.068.095.098.142.147l.06-.583v0c.083.022.25-.022.25.064-.001.128-.296.634-.4.817a280.169 280.169 0 0 0-3.268 6.106c-.064.112-.597 1.36-1.034 1.084-.202-.127-.293-1.134-.35-1.31-.27-1.71-.522-3.427-.894-5.12l.367-.445zM905.902 896.808c-.11-.036-.217-.09-.332-.106-1.025-.152-2.014.562-2.725 1.214-.25.229-.464.494-.696.74-.373.516-.772.943-.622 1.63a.81.81 0 0 0 .254.441c.387.325.824.163 1.262.117.301-.13.616-.23.902-.39.91-.506 1.69-1.259 2.332-2.07.145-.182.265-.382.395-.575.013-.02-.032.039-.047.058.007-.073.03-.146.021-.22-.025-.201-.295.082-.182.15.053.031.1-.075.149-.112l.014.586c.132 1.02.42 2.053 1.07 2.874.136.17.305.31.457.464l-.287.484v0c-.161-.161-.34-.307-.483-.484-.673-.834-.984-1.885-1.144-2.926-.056-.723-.13-.687.23-1.467.11-.236.481-.212.58.016.036.085.014.185.021.278-.135.287-.248.586-.406.861-.216.376-.775.994-1.05 1.265-.787.774-1.652 1.422-2.722 1.745-.55.04-.964.194-1.435-.187a1.025 1.025 0 0 1-.323-.504c-.27-.925.54-1.897 1.045-2.582.24-.246.463-.51.72-.74.773-.683 1.804-1.37 2.889-1.197.13.02.25.08.376.12l-.263.517zM913.272 886.203c-.047.165-.098.33-.141.495-.093.363-.429 1.796-.488 2.045l-1.353 5.62c-.652 2.742-1.24 5.51-1.445 8.327-.417-.188.142.432-.008.452-.063.009-.106-.07-.16-.105l-.033.586v0c-.069-.019-.154-.008-.206-.057-.118-.108.23-.442.005-.48.227-2.835.815-5.623 1.47-8.387.647-2.705 1.28-5.414 1.916-8.121l.443-.375zM920.239 901.556c.969.265 1.97.223 2.945.013.241-.052.484-.106.715-.193.18-.069.339-.182.508-.272.087-.107.214-.192.259-.322.024-.069-.126.157-.187.116-.113-.075-.124-.241-.186-.362-.15-.119-.282-.262-.448-.357-.536-.306-.819-.3-1.425-.41-.275.013-.553-.007-.824.04-1.13.192-2.268.883-2.83 1.9-.062.111-.056.249-.084.373.007.307-.056.624.02.921.502 1.972 2.827 2.369 4.538 2.34.607-.01 1.208-.126 1.813-.188l-.138.5v0c-.613.06-1.223.174-1.84.182-1.82.025-4.149-.397-4.752-2.432-.092-.31-.045-.645-.067-.967.174-.428.302-.878.522-1.284.544-1.002 1.884-1.713 2.974-1.879.284-.043.574-.02.86-.03.643.12.93.117 1.502.437.164.092.771.52.775.814.009.707-.188.795-.57 1.166-.181.087-.354.193-.543.26a5.518 5.518 0 0 1-.73.185c-1.007.204-2.038.24-3.038-.022l.23-.53zM937.94 891.94c-.87 4.296-1.84 8.57-2.672 12.874-.241 1.307-.448 2.623-.564 3.948-.193-.16-.44.57-.403.26l.422-.405v0c-.025.214-.285.78-.439.552.158-1.343.337-2.683.607-4.009.845-4.284 1.824-8.54 2.63-12.832l.419-.387z" style="opacity:1;fill:#000;fill-opacity:1;stroke:#000;stroke-width:.16;stroke-linecap:square;stroke-linejoin:miter;stroke-miterlimit:4;stroke-dasharray:none;stroke-opacity:1" transform="translate(-420.075 -907.668) scale(1.07108)"/><path d="M913.804 896.695c-.492 1.072-.912 2.183-1.18 3.334-.065.285-.111.575-.167.863-.026.274-.071.547-.077.821-.013.634.073 1.317.535 1.795.331.344.48.32.922.44.203-.03.414-.024.609-.09.51-.173.976-.534 1.315-.945.104-.125.144-.292.212-.44.588-1.277.377-.722.75-2.058.124-.654.231-1.323.177-1.991-.005-.067-.024-.131-.036-.196l.554-.394v0c.011.077.029.154.033.232.033.697-.087 1.391-.213 2.073-.182.689-.34 1.485-.716 2.108-.52.858-1.343 1.885-2.377 2.168-.22.06-.453.039-.68.058-.49-.157-.65-.138-1.018-.527-.49-.52-.6-1.23-.592-1.915.004-.281.049-.56.073-.84.054-.292.099-.585.163-.875.11-.495.311-1.197.472-1.683.159-.481.279-.758.457-1.218.055-.142.108-.285.162-.428l.622-.292z" style="opacity:1;fill:#000;fill-opacity:1;stroke:#000;stroke-width:.0703212;stroke-linecap:square;stroke-linejoin:miter;stroke-miterlimit:4;stroke-dasharray:none;stroke-opacity:1" transform="translate(-420.075 -907.668) scale(1.07108)"/><path d="M936.844 920.78h3.935v3.201h-3.935z" style="display:inline;opacity:1;fill:#fff;fill-opacity:1;stroke:none;stroke-width:.107108;stroke-linecap:square;stroke-linejoin:miter;stroke-miterlimit:4;stroke-dasharray:none;stroke-opacity:1" transform="translate(-388.55 -842.8)"/><path d="M944.714 910.148c-3.68 7.149-6.614 14.663-8.41 22.512-.585 2.557-.996 5.15-1.494 7.726-1.83 12.167-2.419 24.63-.405 36.816.237 1.432.598 2.84.896 4.26l.98 2.438-.69.415-.973-2.49c-.292-1.43-.643-2.848-.875-4.288-1.97-12.22-1.422-24.698.408-36.895.492-2.578.898-5.174 1.474-7.735 1.767-7.846 4.668-15.35 8.282-22.519l.807-.24z" style="opacity:1;fill:#000;fill-opacity:1;stroke:none;stroke-width:.171373;stroke-linecap:square;stroke-linejoin:miter;stroke-miterlimit:4;stroke-dasharray:none;stroke-opacity:1" transform="translate(-388.55 -842.8)"/><path d="M929.657 974.456c1.995 3.378 3.576 6.98 5.423 10.44.208.336.921 1.551 1.287 1.956.074.082.368.096.286.17-.831.744-.539-.266-.536-.438.01-.291-.016-.583-.025-.874-.18-3.842-.188-7.69-.216-11.535l.748-.343c.01 3.841.024 7.685.23 11.521.043 1.002.386 1.753-.84 2.23-.13.05-.243-.143-.334-.248-.368-.425-1.07-1.636-1.288-1.994-1.83-3.455-3.409-7.046-5.426-10.398l.69-.487zM836.806 1021.71c-.979 4.548-1.86 9.126-3.185 13.577-.21.614-.165.92-1.069.756-.03-.012.087-.742.099-.814.04-.357.08-.352.265-.692 3.114-4.047 6.646-7.684 10.273-11.191l1.759-1.636.853-.157-1.77 1.632c-3.624 3.48-7.173 7.088-10.23 11.161-.326.184-.214.19-.307.527-.022.124-.04.696-.118.763-1.3 1.122-.787.497-.597-.036 1.384-4.423 2.25-9 3.199-13.546l.828-.343z" style="opacity:1;fill:#000;fill-opacity:1;stroke:none;stroke-width:.214216;stroke-linecap:square;stroke-linejoin:miter;stroke-miterlimit:4;stroke-dasharray:none;stroke-opacity:1" transform="translate(-388.55 -842.8)"/><path d="m892.981 946.723.232-9.713 8.015.192-.233 9.712zm0 0" style="display:inline;fill:#fafafa;fill-opacity:1;fill-rule:nonzero;stroke:#fafafa;stroke-width:.426825;stroke-linecap:butt;stroke-linejoin:miter;stroke-miterlimit:10;stroke-opacity:1" transform="translate(-388.55 -842.8)"/><use xlink:href="#n" width="100%" height="100%" x="297.01" y="269.055" style="display:inline;fill:#b0b0d9;fill-opacity:1" transform="rotate(1.369 8176.529 8062.829) scale(1.07108)"/></g><g style="display:inline"><path d="M497.569 159.23c-11.98 1.015-25.784-6.294-28.527-18.419-2.223-9.827 4.096-19.344 14.38-23.112 3.179-1.165 7.368-1.838 10.163-1.945 2.815-.107 3.728.27 3.002.707-8.426-4.598-10.81-17.01-4.654-24.482 9.309-11.294 25.94-15.297 39.037-13.909 8.283.878 18.87 6.139 21.14 14.997.238.933-1.885 2.13-.7.009.475-.85 1.334-1.792 2.763-2.53 11.778-6.082 28.362-4.808 40.343 2.322 9.623 5.726 16.042 17.82 13.56 29.038-2.055 6.776-7.155 13.708-14.447 14.952-.609.103-.656-.92.108-.712 4.134 1.133 9.098 5.886 11.648 11.431 3.543 7.706-.356 16.716-7.303 21.198-7.416 4.785-18.519 6.842-26.248 4.437-3.672-1.143-6.984-2.608-9.63-4.83-3.181-2.675.62-2.893 1.11-1.329 1.55 4.957-8.552 11.106-18.413 13.131-12.24 2.514-26.2 2.138-37.189-4.61-6.323-3.884-11.821-11.58-11.868-19.075" style="fill:#e5f6ff;fill-opacity:1;stroke:#000;stroke-width:.642648;stroke-linecap:square;stroke-linejoin:miter;stroke-miterlimit:4;stroke-dasharray:none;stroke-opacity:1" transform="translate(202.993 -3.54)"/><path d="M-42.947 188.452c-2.084-.37-3.238-1.18-4.199-2.945-1.178-2.166-1.11-6.326.146-8.808 1.081-2.139 3.162-4.475 5.047-5.667.729-.46 1.37-.838 1.427-.838.056 0 .616.22 1.244.49 3.118 1.335 4.873 2.494 6.524 4.309.688.756 1.412 1.707 1.61 2.112.97 1.992.83 4.48-.359 6.332-.65 1.014-2.41 2.638-3.632 3.352-1.433.836-2.646 1.265-4.553 1.609-1.852.333-1.702.33-3.255.054z" style="opacity:1;fill:#e5f6ff;fill-opacity:1;stroke:#d5f6ff;stroke-width:.683422;stroke-linecap:square;stroke-linejoin:miter;stroke-miterlimit:4;stroke-dasharray:none;stroke-opacity:1" transform="translate(220.37 159.467) scale(1.07108)"/><path d="M-43.685 172.334c-2.73 2.514-4.555 5.358-4.414 9.227.046 1.253.196 2.556.73 3.691.486 1.033 1.25 2.013 2.229 2.599 1.076.644 2.431.613 3.647.919 1.432-.296 2.932-.361 4.297-.887 3.296-1.27 7.105-4.246 6.766-8.249-.268-3.16-1.452-3.726-3.45-5.978-3.258-2.468-6.999-3.914-10.959-4.744l.2-.63c3.987.88 7.766 2.335 11.06 4.818 1.766 1.96 3.53 3.158 3.595 6.08.1 4.49-3.423 7.848-7.326 9.316-1.394.525-2.92.583-4.381.874-1.252-.32-2.646-.3-3.755-.961-1.008-.6-1.799-1.6-2.308-2.656-1.254-2.599-.814-5.837.072-8.417.44-1.282 1.192-2.45 1.979-3.553.572-.802 1.376-1.41 2.064-2.115l-.046.666z" style="opacity:1;fill:#000;fill-opacity:1;stroke:none;stroke-width:1.95;stroke-linecap:square;stroke-linejoin:miter;stroke-miterlimit:4;stroke-dasharray:none;stroke-opacity:1" transform="translate(220.37 159.467) scale(1.07108)"/><path d="M644.841 217.728c-1.461 1.406-2.59 3.145-2.59 5.248 0 .788.035 1.6.287 2.346.655 1.946 1.5 2.284 2.998 3.507.802.224 1.577.605 2.407.673 2.595.21 5.385-1.029 6.508-3.496.66-1.453-.16-2.81-.61-4.127-.526-.623-.974-1.323-1.58-1.87-1.244-1.124-3.099-2.085-4.796-2.25-.2-.019-.401.042-.602.063l.15-.67c.219-.013.438-.065.656-.04 1.741.202 3.622 1.165 4.912 2.318.626.559 1.094 1.272 1.641 1.908.29.796.831 1.54.87 2.386.186 4.051-3.604 6.733-7.36 6.404-.858-.076-1.656-.468-2.484-.702-1.546-1.249-2.42-1.602-3.125-3.587-.891-2.504.035-5.347 1.486-7.43.353-.507.839-.907 1.259-1.36l-.027.679z" style="opacity:1;fill:#000;fill-opacity:1;stroke:none;stroke-width:2.08861;stroke-linecap:square;stroke-linejoin:miter;stroke-miterlimit:4;stroke-dasharray:none;stroke-opacity:1" transform="translate(202.993 -3.54)"/><path d="M654.854 230.903c-.485.608-1.053 1.157-1.453 1.823-2.405 4-4.01 9.76-1.87 14.22.481 1.002 1.331 1.782 1.997 2.673.934.566 1.786 1.298 2.802 1.7 4.394 1.734 9.41-.162 12.413-3.593.72-.821 1.157-1.851 1.735-2.777.106-.859.41-1.716.319-2.576-.527-5.023-4.89-8.298-8.878-10.679-.876-.522-1.802-.955-2.704-1.432-.956-.45-2.204-.937-3.084-1.62-.14-.11-.222-.278-.333-.417l.315-.544v0c.089.131.144.293.267.394.843.688 2.155 1.205 3.062 1.637 4.08 2.172 8.617 4.625 10.776 8.969.506 1.018.941 2.127.99 3.263.052 1.22-.464 2.397-.696 3.596-.597.925-1.055 1.955-1.79 2.774-3.09 3.45-8.171 5.31-12.627 3.547-1.036-.41-1.908-1.153-2.862-1.73-.684-.904-1.553-1.694-2.05-2.712-2.339-4.78-.382-11.043 2.203-15.297.408-.672.982-1.228 1.473-1.843l-.005.624z" style="opacity:1;fill:#000;fill-opacity:1;stroke:#000;stroke-width:.0732;stroke-linecap:square;stroke-linejoin:miter;stroke-miterlimit:4;stroke-dasharray:none;stroke-opacity:1" transform="translate(202.993 -3.54)"/><path d="M455.788 174.158c2.513.522 4.745 1.655 6.86 3.055 3.055 2.081 5.622 5.46 6.13 9.215.277 2.253-1.01 4.346-2.424 5.98-2.384 2.354-5.706 4.057-9.126 3.772-3.433-.433-6.749-2.645-7.951-5.971-.723-1.988-.692-4.184-.37-6.238.445-2.843 1.763-5.51 3.37-7.887.723-.985 1.564-1.895 2.535-2.64" style="opacity:1;fill:#e5f6ff;fill-opacity:1;stroke:#000;stroke-width:.642648;stroke-linecap:square;stroke-linejoin:miter;stroke-miterlimit:4;stroke-dasharray:none;stroke-opacity:1" transform="translate(202.993 -3.54)"/><path d="M-1.281 341.18c-.226.375-.552.706-.678 1.125-.78 2.595.49 5.417 3.218 6.13.72.189 1.485.079 2.228.118.7-.191 1.454-.239 2.098-.573.437-.226.773-.636 1.036-1.052 1.02-1.613 1.406-3.781.572-5.562-.25-.535-.701-.95-1.052-1.425-1.159-.736-1.512-1.226-2.965-1.128-1.14.078-1.768.61-2.68 1.175l.34-.606c.98-.557 1.59-1.05 2.795-1.086 1.512-.044 1.87.462 3.067 1.249.364.497.83.934 1.093 1.492.268.57.421 1.201.469 1.829.084 1.1-.28 3.053-.973 3.944-1.486 1.911-2.155 1.746-4.228 2.26-.764-.058-1.556.036-2.294-.172-2.82-.797-4.102-3.692-3.394-6.406.113-.435.426-.792.639-1.188l.709-.124z" style="opacity:1;fill:#000;fill-opacity:1;stroke:none;stroke-width:.214216;stroke-linecap:square;stroke-linejoin:miter;stroke-miterlimit:4;stroke-dasharray:none;stroke-opacity:1" transform="translate(202.993 -3.54)"/><path d="M.198 195.04a6.161 6.161 0 0 1 2.296-.58c1.056-.038 2.07.406 2.697.865 1.598 1.167 2.488 2.765 2.493 4.738.007 2.334-1.326 4.986-2.778 5.53-.966.361-2.171.64-3.227.63-.408-.004-.83-.03-1.225-.127-1.17-.289-2.277-.887-3.004-1.643-1.562-1.624-1.905-4.768-.683-6.713" style="opacity:1;fill:#e5f6ff;fill-opacity:1;stroke:#000;stroke-width:.642648;stroke-linecap:square;stroke-linejoin:miter;stroke-miterlimit:4;stroke-dasharray:none;stroke-opacity:1" transform="translate(202.993 -3.54)"/><path d="M643.678 235.95c-2.313.307-4.525 1.033-5.466 3.39-.175.44-.183.928-.274 1.393.045.397.002.814.134 1.191.652 1.857 2.994 2.487 4.734 2.488.513 0 1.019-.124 1.528-.186.42-.2.892-.313 1.258-.599.206-.161.297-.438.385-.684.17-.477.364-.964.386-1.47.049-1.147-.425-2.424-.982-3.393-.291-.508-.696-.943-1.044-1.414-1.403-1.253-.7-.734-2.071-1.607l.524-.466c1.391.92.677.377 2.105 1.677.915 1.245 1.373 1.649 1.828 3.176.285.954.496 2.402-.067 3.349-.806 1.355-1.48 1.45-2.733 1.985-.522.051-1.04.164-1.565.154-1.852-.037-4.213-.752-4.91-2.697-.143-.396-.104-.835-.155-1.252.085-.488.083-.999.255-1.463.827-2.241 3.303-3.525 5.51-3.98.362-.075.734-.086 1.101-.129l-.48.536z" style="opacity:1;fill:#000;fill-opacity:1;stroke:none;stroke-width:.214216;stroke-linecap:square;stroke-linejoin:miter;stroke-miterlimit:4;stroke-dasharray:none;stroke-opacity:1" transform="translate(202.993 -3.54)"/><path d="M428.918 189.365c.948.959 1.855 2.01 2.325 3.294.445 1.042.613 2.249.206 3.33-.193.502-.719 1.094-1.29 1.259-1.037.446-1.891.526-3.007.414-1.09-.11-2.186-.517-2.986-1.28a2.614 2.614 0 0 1-.822-1.924c-.02-1.246.438-2.52 1.372-3.367 1.108-1.072 2.659-1.45 4.13-1.712l.072-.014M-475.68 166.128l1.26 2.295c2.122 2.86 2.8 4 5.557 6.601 5.736 5.412 12.681 9.191 20.174 11.557 1.721.482 3.43 1.01 5.164 1.445 8.845 2.219 17.96 3.223 27.075 2.803 5.507-.393 10.99-.829 16.437-1.778 2.544-.443 5.865-1.12 8.343-2.047.915-.342 1.76-.847 2.64-1.27.511-.412 2.185-1.59 2.623-2.41.53-.994.645-2.3-.388-2.998-.182-.123-.415-.144-.623-.217-.151.059-.292.163-.453.175-.05.003-.096-.173-.065-.134.139.176.213.41.39.547 1.557 1.201 3.888 1.014 5.68 1.238 3.317-.113 4.404-.009 7.794-.776 3.01-.683 6.03-1.748 8.72-3.28 3.107-1.766 4.194-3.057 6.773-5.46 2.4-2.91 3.056-3.391 4.798-6.705 2.019-3.84 2.77-8.201 2.669-12.501-.252-2.05-.205-2.77-.91-4.648-.859-2.29-2.33-4.5-4.041-6.237-.598-.607-1.295-1.107-1.942-1.66-.683-.413-1.335-.882-2.048-1.24-2.343-1.176-5.06-1.67-7.642-1.149-.05-.168-.132-.33-.152-.505-.003-.033.062.039.096.033.17-.028.344-.061.503-.131 1.221-.538 2.04-1.558 2.74-2.659.221-.46.495-.896.663-1.378 1.645-4.718.62-9.32-.695-13.978-.475-1.173-.867-2.383-1.424-3.519-2.23-4.54-4.181-8.257-8.387-11.663-1.26-1.02-3.214-2.568-4.309-3.12-1.314-.49-2.362-1.444-4.36-1.742-2.504-.92-4.542-1.132-6.354-1.164-5.16-.231-10.653 1.559-12.578 2.167-3.707 1.453-6.03 2.876-8.572 4.54-1.642 1.077-1.598 1.207-3.023 2.285-.142.107-.308.176-.462.265-.088.14-.217.26-.263.419-.085.287.255.013.445-.075.045-.02.132.01.143-.04.273-1.158.03-1.28-.337-2.529-.402-.632-.738-1.312-1.206-1.897-3.497-4.364-8.971-7.472-14.163-9.299-1.745-.614-3.564-.993-5.346-1.49-4.708-.63-5.972-1.055-10.726-.687-5.184.401-10.223 1.934-14.725 4.544-1.543.894-2.95 2.006-4.426 3.009-1.362 1.222-2.801 2.363-4.085 3.667-3.758 3.815-6.85 8.285-9.227 13.075-.607 1.222-1.177 2.469-1.613 3.762-.433 1.286-.656 2.634-.985 3.952-.061 1.163-.23 2.326-.186 3.491.061 1.624.552 3.707 1.144 5.241.44 1.143 1.022 2.425 2.223 2.92.01.175.106.368.028.524-.04.08-.121-.141-.206-.17a3.078 3.078 0 0 0-.73-.146c-1.925-.16-3.808.287-5.622.893-2.214 1.083-3.39 1.446-5.209 3.264-2.627 2.626-4.025 6.104-4.538 9.735-.193 1.371-.13 2.767-.196 4.15.517 3.322.39 4.497 2.022 7.454 1.771 3.21 4.847 5.802 8.074 7.453 1.018.522 2.1.928 3.2 1.242.976.28 1.989.443 3 .53 2.866.249 6.35-.434 9.144-1.177M-163.566 163.775c-7.387 2.468-15.673.436-20.613-5.046-7.241-7.437-5.993-21.587 2.481-27.454 2.781-1.925 6.706-3.318 10.06-2.186.96.376.254 1.142-.377.704-4.97-3.834-4.256-11.618-2.595-17.06 4.53-14.836 20.751-28.43 37.7-27.944 10.683.306 22.648 4.134 28.614 13.544.68 1.073.81 2.653-.08 3.738-.674.852-1.326.256-.695-.54 3.107-3.96 7.418-6.658 12.019-8.498 9.031-3.612 20.59-2.239 28.33 4.268 7.525 6.325 11.84 15.429 11.668 24.696-.066 3.55-1.4 7.966-4.85 9.692-.893.444-1.167-.523-.304-.673 10.373-1.628 18.184 9.653 16.695 19.481-2.332 15.394-15.875 26.564-30.242 26.104-1.874-.06-7.832-.824-6.783-3.579.477-.28.96-.152 1.363.08 2.002 1.152.801 3.837-.093 4.709-1.255 1.224-3.14 2.013-4.4 2.534-8.242 3.406-18.534 4.36-28.929 4.51-15.931.23-32.822-3.15-45.748-13.062-3.716-2.85-7.351-6.858-9.762-11.195" style="opacity:1;fill:#e5f6ff;fill-opacity:1;stroke:#000;stroke-width:.642648;stroke-linecap:square;stroke-linejoin:miter;stroke-miterlimit:4;stroke-dasharray:none;stroke-opacity:1" transform="translate(202.993 -3.54)"/><g style="fill:#000;fill-opacity:1"><use xlink:href="#o" width="100%" height="100%" x="314.324" y="156.682" style="fill:#000" transform="matrix(2.24818 0 0 2.24818 -2.9 -214.218)"/></g><g style="fill:#000;fill-opacity:1"><use xlink:href="#p" width="100%" height="100%" x="320.961" y="156.682" style="fill:#000" transform="matrix(2.24818 0 0 2.24818 -2.9 -214.218)"/></g><g style="fill:#000;fill-opacity:1"><use xlink:href="#q" width="100%" height="100%" x="332.41" y="156.682" style="fill:#000" transform="matrix(2.24818 0 0 2.24818 -2.9 -214.218)"/></g><g style="fill:#000;fill-opacity:1"><use xlink:href="#r" width="100%" height="100%" x="336.634" y="152.568" style="fill:#000" transform="matrix(2.24818 0 0 2.24818 -2.264 -214.218)"/></g><g style="fill:#000;fill-opacity:1"><use xlink:href="#s" width="100%" height="100%" x="339.16" y="156.682" style="fill:#000" transform="matrix(2.24818 0 0 2.24818 -3.757 -214.218)"/></g><g style="fill:#000;fill-opacity:1"><use xlink:href="#t" width="100%" height="100%" x="343.025" y="156.682" style="fill:#000" transform="matrix(2.24818 0 0 2.24818 -3.757 -214.218)"/></g><g style="fill:#000;fill-opacity:1"><use xlink:href="#u" width="100%" height="100%" x="347.478" y="156.682" style="fill:#000" transform="matrix(2.24818 0 0 2.24818 -3.757 -214.218)"/></g><path d="M-34.265 177.465c2.78.178 5.68 1.014 7.553 2.039 2.725 1.27 5.138 3.203 6.875 5.667 1.927 2.714 1.455 6.789-.934 9.081-1.925 2.094-4.173 3.627-6.976 4.177-2.363.597-5.296.604-7.463-.629-2.162-1.34-3.063-3.978-3.117-6.413-.119-2.643.625-5.27 2.047-7.541a15.561 15.561 0 0 1 3.962-4.248" style="opacity:1;fill:#e5f6ff;fill-opacity:1;stroke:#000;stroke-width:.642648;stroke-linecap:square;stroke-linejoin:miter;stroke-miterlimit:4;stroke-dasharray:none;stroke-opacity:1" transform="translate(202.993 -3.54)"/><path d="m-279.857 156.951-2.808-.217c-8.446-.65-18.656-2.95-25.256-5.685-7.082-2.937-13.619-7.424-17.798-12.218l-1.316-1.509 1.671-.329c2.304-.453 2.373-.481 2.373-.949 0-.277-.066-.37-.22-.312-.517.2-4.171.889-4.297.812-.258-.16-1.56-2.079-2.16-3.184-.46-.848-.641-1.061-.782-.92a.676.676 0 0 0-.184.407c0 .292.814 1.734 1.66 2.938l.676.96-1.341.112c-4.677.39-9.79-1.62-13.683-5.378-1.503-1.45-2.521-2.81-3.36-4.489-2.358-4.712-2.195-11.88.382-16.892 1.44-2.8 3.455-4.79 6.23-6.154 2.143-1.053 3.633-1.483 5.542-1.598 1.203-.073 1.583-.04 1.984.167.485.25.502.247.748-.129.307-.467.212-.654-.399-.788-.961-.211-1.94-2.045-2.688-5.038-.282-1.126-.335-1.757-.315-3.698.023-2.099.08-2.558.56-4.463 1.366-5.434 5.356-12.226 10.482-17.844 2.905-3.184 7.797-6.904 11.383-8.655 4.76-2.324 9.018-3.363 14.508-3.542 4.382-.143 8.956.546 13.607 2.05 6.788 2.194 13.265 6.679 15.574 10.783.755 1.341.81 1.764.33 2.503-.567.869-.614 1.463-.117 1.463.369 0 .891-.637 1.026-1.25.296-1.351 7.917-5.9 12.09-7.218 5.11-1.614 9.632-2.24 13.3-1.841 1.573.17 2.132.292 5.107 1.106 1.866.51 4.479 1.883 6.542 3.436 4.49 3.38 6.514 5.879 9.348 11.538 2.041 4.08 3.123 7.496 3.602 11.384.314 2.545.088 5.213-.614 7.251-.628 1.824-2.099 3.677-3.22 4.057-.543.184-1.184.882-.99 1.077.042.041.531-.032 1.088-.162 2.126-.498 5.204.175 7.732 1.69 2.67 1.6 4.965 4.126 6.441 7.09 1.254 2.52 1.679 4.833 1.53 8.329-.285 6.74-2.61 11.88-7.822 17.29-3.383 3.513-6.31 5.452-10.725 7.104-1.98.74-5.457 1.589-7.477 1.824-1.652.192-7.447.129-7.968-.087-.15-.061-.342-.373-.428-.691-.225-.837-.791-1.309-1.59-1.325-.556-.012-.693.05-.895.405-.4.703-.099 1.216 1.038 1.765.532.258.97.559.972.67.018.949-1.89 2.756-4.08 3.864-3.853 1.948-11.333 3.332-23.13 4.28-3.507.281-9.59.39-11.863.21z" style="opacity:1;fill:#e5f6ff;fill-opacity:1;stroke:#d4f6ff;stroke-width:.155997;stroke-linecap:square;stroke-linejoin:miter;stroke-miterlimit:4;stroke-dasharray:none;stroke-opacity:.862745" transform="translate(202.993 -3.54)"/><path d="M-323.115 136.38c-.306.09-.607.198-.918.272-2.388.565-5.874 1.083-8.268.868-1.024-.092-2.023-.363-3.034-.545-1.077-.42-2.202-.731-3.231-1.258-3.253-1.665-6.362-4.274-8.166-7.499-1.668-2.983-1.544-4.149-2.089-7.507.057-1.391-.015-2.794.17-4.174.526-3.93 2.044-7.955 4.917-10.78 1.848-1.816 3.055-2.188 5.292-3.27 1.843-.607 3.757-1.055 5.71-.898.498.04 1.068.2 1.054.344-.027.265-.252.469-.378.703-.231-.1-.496-.143-.694-.3-.891-.708-1.38-1.696-1.792-2.739-.607-1.54-1.112-3.654-1.183-5.286-.051-1.174.109-2.347.163-3.52.322-1.328.53-2.687.966-3.982 2.214-6.596 6.377-12.905 11.254-17.832 1.291-1.304 2.738-2.445 4.106-3.667 1.484-1.003 2.899-2.115 4.45-3.01 4.529-2.612 9.593-4.14 14.803-4.535 4.772-.362 6.045.064 10.772.702 1.79.5 3.616.882 5.368 1.498 5.226 1.838 10.712 4.947 14.264 9.307.479.587.828 1.27 1.242 1.904.514 1.3.822 2.513-.08 3.738-.069.093-.65.352-.756.027-.059-.181.04-.378.06-.567.307-.448.55-.947.92-1.344.376-.403.84-.715 1.293-1.028 3.116-2.146 6.527-4.305 10.422-5.756 3.416-1.146 7.267-2.071 11.578-2.15 2.517.032 5.322.484 7.992 1.31 1.742.548 3.015 1.178 3.952 1.752 1.105.556 3.21 2.235 4.193 2.986 3.895 2.972 6.22 7.15 8.478 11.71.565 1.14.964 2.356 1.446 3.534 1.053 3.762 2.084 7.733 1.411 11.668-.363 2.12-.802 2.811-1.654 4.801-.737 1.115-1.597 2.154-2.864 2.675-.174.072-.364.11-.552.13-.067.005-.217.01-.197-.054.086-.277.297-.499.446-.748 2.64-.476 5.383.009 7.777 1.209.722.362 1.383.835 2.075 1.253.656.558 1.362 1.062 1.968 1.674 1.73 1.746 3.227 3.97 4.112 6.272.733 1.906.684 2.6.954 4.687a27.84 27.84 0 0 1-2.99 13.576c-1.537 3.032-2.675 4.09-4.851 6.703-2.595 2.398-3.7 3.697-6.82 5.456-2.699 1.522-5.766 2.591-8.778 3.27-3.406.767-4.506.664-7.84.782-.94-.08-1.888-.102-2.821-.238-.927-.135-2.151-.406-2.96-.999-.61-.448-.671-.96-.156-1.64.13-.17.414-.113.62-.17.248.084.522.11.743.25 1.954 1.23.433 3.992-.647 5.201-.515.577-1.22.952-1.83 1.427-.894.42-1.754.92-2.681 1.259-2.487.909-5.836 1.58-8.383 2.016-5.454.936-10.944 1.37-16.457 1.76-9.132.417-18.264-.585-27.124-2.81-1.737-.436-3.449-.965-5.173-1.448-7.514-2.38-14.474-6.177-20.24-11.59-2.767-2.596-3.463-3.745-5.606-6.597l-1.288-2.294.329-.52v0l1.259 2.295c2.122 2.86 2.8 4 5.557 6.601 5.736 5.412 12.681 9.191 20.174 11.558 1.721.481 3.43 1.01 5.164 1.444 8.845 2.219 17.96 3.223 27.075 2.803 5.507-.393 10.991-.829 16.438-1.778 2.543-.443 5.864-1.12 8.343-2.047.914-.342 1.76-.847 2.64-1.27.51-.412 2.184-1.59 2.622-2.41.53-.994.645-2.3-.388-2.997-.182-.124-.415-.145-.623-.217-.151.058-.292.162-.453.174-.05.003-.096-.173-.065-.134.139.176.213.41.39.547 1.557 1.201 3.888 1.014 5.68 1.238 3.317-.113 4.404-.009 7.794-.776 3.01-.683 6.03-1.748 8.72-3.279 3.107-1.767 4.194-3.058 6.773-5.46 2.401-2.911 3.056-3.392 4.798-6.706 2.019-3.84 2.77-8.201 2.67-12.501-.253-2.05-.206-2.77-.91-4.648-.86-2.29-2.331-4.5-4.042-6.237-.598-.607-1.295-1.107-1.942-1.66-.683-.413-1.335-.882-2.048-1.24-2.343-1.176-5.06-1.67-7.642-1.149-.05-.168-.131-.33-.152-.505-.003-.033.063.039.096.033.17-.028.344-.061.503-.13 1.221-.539 2.04-1.559 2.74-2.66.221-.459.495-.896.663-1.378 1.645-4.717.62-9.32-.695-13.977-.475-1.174-.866-2.384-1.424-3.52-2.23-4.54-4.181-8.256-8.387-11.663-1.26-1.02-3.214-2.568-4.308-3.12-1.315-.49-2.363-1.444-4.361-1.742-2.504-.919-4.542-1.132-6.353-1.164-5.162-.231-10.654 1.56-12.579 2.167-3.707 1.453-6.03 2.876-8.572 4.541-1.642 1.076-1.597 1.206-3.023 2.284-.141.107-.308.177-.462.265-.088.14-.217.26-.263.419-.085.287.255.013.445-.075.045-.02.132.009.143-.04.274-1.157.03-1.28-.337-2.529-.402-.632-.738-1.312-1.206-1.897-3.497-4.364-8.97-7.472-14.163-9.299-1.745-.614-3.564-.993-5.346-1.49-4.708-.63-5.972-1.055-10.725-.687-5.185.402-10.224 1.935-14.726 4.544-1.543.895-2.95 2.006-4.426 3.009-1.362 1.222-2.801 2.363-4.085 3.667-3.758 3.815-6.85 8.286-9.227 13.075-.607 1.222-1.177 2.469-1.613 3.762-.433 1.286-.656 2.635-.984 3.952-.062 1.164-.23 2.327-.186 3.491.06 1.624.551 3.707 1.143 5.242.44 1.142 1.022 2.424 2.223 2.919.01.175.107.368.028.525-.04.079-.121-.142-.206-.17a3.078 3.078 0 0 0-.73-.147c-1.925-.16-3.808.287-5.621.893-2.215 1.083-3.39 1.446-5.21 3.265-2.627 2.625-4.025 6.103-4.537 9.734-.194 1.372-.131 2.767-.197 4.15.517 3.322.39 4.497 2.022 7.455 1.771 3.208 4.847 5.801 8.074 7.453 1.018.52 2.133.827 3.2 1.241 1 .177 1.989.443 3.001.53 2.865.249 6.35-.434 9.143-1.176l-.103.634z" style="opacity:1;fill:#000;fill-opacity:1;stroke:#000;stroke-width:.0642648;stroke-linecap:square;stroke-linejoin:miter;stroke-miterlimit:4;stroke-dasharray:none;stroke-opacity:1" transform="translate(202.993 -3.54)"/><g style="fill:#000"><g style="fill:#000;fill-opacity:1" transform="matrix(2.24818 0 0 2.24818 -533.986 -207.531)"><use xlink:href="#o" width="100%" height="100%" x="259.904" y="156.682" style="fill:#000"/></g><g style="fill:#000;fill-opacity:1" transform="matrix(2.24818 0 0 2.24818 -533.986 -207.531)"><use xlink:href="#p" width="100%" height="100%" x="266.541" y="156.682" style="fill:#000"/></g><g style="fill:#000;fill-opacity:1" transform="matrix(2.24818 0 0 2.24818 -533.986 -207.531)"><use xlink:href="#q" width="100%" height="100%" x="277.991" y="156.682" style="fill:#000"/></g><g style="fill:#000;fill-opacity:1" transform="matrix(2.24818 0 0 2.24818 -533.986 -207.531)"><use xlink:href="#s" width="100%" height="100%" x="282.215" y="156.682" style="fill:#000"/></g><g style="fill:#000;fill-opacity:1" transform="matrix(2.24818 0 0 2.24818 -533.986 -207.531)"><use xlink:href="#t" width="100%" height="100%" x="286.08" y="156.682" style="fill:#000"/></g><g style="fill:#000;fill-opacity:1" transform="matrix(2.24818 0 0 2.24818 -533.986 -207.531)"><use xlink:href="#u" width="100%" height="100%" x="290.533" y="156.682" style="fill:#000"/></g></g></g><g style="display:inline"><path d="M367.3-11.298a127.95 127.95 0 0 0-4.33.084c-6.385.518-8.789.497-15 1.827C339.164-7.5 330.778-3.976 322.875.28c-5.907 3.619-11.782 7.406-16.625 12.42l6.411 5.495c4.068-4.592 9.285-7.92 14.415-11.187 7.117-4.099 14.804-7.274 22.855-8.987 5.507-1.172 7.995-1.204 13.67-1.694 10.865-.426 21.733.632 32.35 2.956 7.565 1.655 10.198 2.622 17.56 4.873 3.212 1.132 6.095 2.105 9.008 3.222l-4.05 9.427 21-5.48-9.86-20.45-4.133 9.62c-3.201-1.16-6.332-2.178-9.835-3.36-7.356-2.213-10.772-3.383-18.314-5.076-9.867-2.214-19.924-3.38-30.026-3.357zM538.71 41.385l4.174 9.939c-3.784 1.638-6.475 2.8-11.377 4.53-11.525 4.067-23.401 7.166-35.459 9.161-7.287 1.076-10.049 1.619-17.418 2.164-10.602.786-21.256.25-31.65-2.077-2.02-.515-4.06-.962-6.06-1.548-7.335-2.147-14.364-5.266-20.977-9.079l-3.968 7.33c7.258 3.623 14.694 6.913 22.517 9.126 2.186.619 4.412 1.088 6.618 1.632 11.14 2.291 22.532 2.855 33.86 2.002 7.153-.539 11.073-1.228 18.142-2.25 12.46-2.123 24.712-5.372 36.661-9.479 4.473-1.536 8.025-2.938 12.045-4.525l3.82 9.094 10.638-18.914z" style="opacity:1;fill:#ffd42a;fill-opacity:1;stroke:#000;stroke-width:1.02824;stroke-linecap:square;stroke-linejoin:miter;stroke-miterlimit:4;stroke-dasharray:none;stroke-opacity:1" transform="translate(-27.008 17.391)"/></g></svg>