<svg xmlns="http://www.w3.org/2000/svg" viewBox="0 0 119.063 79.375"><path d="M18.796 13.57V8.948h10.971V6.95l4.083 4.287-4.083 4.156v-1.821z" style="fill:#b1ffe8;fill-opacity:1;stroke:#000;stroke-width:.3;stroke-miterlimit:4;stroke-dasharray:none" transform="translate(-9.403 .295)"/><g aria-label="START" style="font-size:7.9375px;line-height:1.25;font-family:sans-serif;stroke-width:.834253;stroke-miterlimit:4;stroke-dasharray:none"><path d="M10.926 28.908v-.667h2.881l.429-.437v-1.167l-.429-.436h-2.262l-.826-.826v-1.484l.826-.833h3.111v.666H11.87l-.436.437.008.968.428.437h2.262l.826.833v1.675l-.826.834zM17.123 28.908v-5.184h-1.739v-.666h4.2v.666h-1.739v5.184zM19.19 28.908l1.977-5.85h1.12l1.976 5.85h-.754l-.5-1.524h-2.564l-.492 1.524zm1.469-2.16h2.143l-.984-3.008h-.183zM25.072 28.908v-5.85h3.199l.825.833v1.865l-.825.834h-.024l1.056 2.318H28.5l-1.04-2.318h-1.667v2.318zm.722-2.961h2.151l.429-.437v-1.373l-.429-.436h-2.15zM31.432 28.908v-5.184h-1.738v-.666h4.199v.666h-1.739v5.184z" style="font-style:normal;font-variant:normal;font-weight:400;font-stretch:normal;font-family:Tomorrow;-inkscape-font-specification:Tomorrow;stroke-width:.834253;stroke-miterlimit:4;stroke-dasharray:none" transform="matrix(.49174 0 0 .4675 5.065 -.569)"/></g><path d="M94.553 63.08v-4.624h-7.53v-1.998l-3.917 4.287 3.917 4.156V63.08z" style="fill:#ffc3cc;fill-opacity:1;stroke:#000;stroke-width:.3;stroke-miterlimit:4;stroke-dasharray:none" transform="translate(-9.927 .436)"/><g aria-label="END" style="font-size:7.9375px;line-height:1.25;font-family:sans-serif;stroke-width:.836237;stroke-miterlimit:4;stroke-dasharray:none"><path d="M20.728 51.554v-5.85h3.857v.666H21.45v1.778h2.802v.66H21.45v2.079h3.135v.667zM25.689 51.554v-5.85h.984l2.611 4.707v-4.707h.723v5.85h-.858l-2.564-4.62h-.174v4.62zM31.394 51.554v-5.85h3.175l1.214 1.23v3.39l-1.214 1.23zm.722-.643h2.127l.818-.834V47.18l-.818-.833h-2.127z" style="font-style:normal;font-variant:normal;font-weight:400;font-stretch:normal;font-family:Tomorrow;-inkscape-font-specification:Tomorrow;stroke-width:.836237;stroke-miterlimit:4;stroke-dasharray:none" transform="matrix(.4894 0 0 .4675 66.006 38.494)"/></g></svg>