<svg xmlns="http://www.w3.org/2000/svg" xmlns:xlink="http://www.w3.org/1999/xlink" width="961.748" height="314.271" viewBox="0 0 721.311 235.703"><defs><clipPath id="a"><path d="M226.254 254.46H228V279h-1.746zm0 0"/></clipPath><clipPath id="b"><path d="M383 388h1.996v25.203H383zm0 0"/></clipPath><clipPath id="c"><path d="M383 254.46h1.996V279H383Zm0 0"/></clipPath><clipPath id="g"><path d="M226.254 254.46H228V279h-1.746zm0 0"/></clipPath><clipPath id="h"><path d="M383 388h1.996v25.203H383zm0 0"/></clipPath><clipPath id="i"><path d="M383 254.46h1.996V279H383Zm0 0"/></clipPath><clipPath id="d"><path d="M226.254 254.46H228V279h-1.746zm0 0"/></clipPath><clipPath id="e"><path d="M383 388h1.996v25.203H383zm0 0"/></clipPath><clipPath id="f"><path d="M383 254.46h1.996V279H383Zm0 0"/></clipPath><clipPath id="j"><path d="M226.254 254.46H228V279h-1.746zm0 0"/></clipPath><clipPath id="k"><path d="M383 388h1.996v25.203H383zm0 0"/></clipPath><clipPath id="l"><path d="M383 254.46h1.996V279H383Zm0 0"/></clipPath><clipPath id="p"><path d="M226.254 254.46H228V279h-1.746zm0 0"/></clipPath><clipPath id="q"><path d="M383 388h1.996v25.203H383zm0 0"/></clipPath><clipPath id="r"><path d="M383 254.46h1.996V279H383Zm0 0"/></clipPath><clipPath id="m"><path d="M226.254 254.46H228V279h-1.746zm0 0"/></clipPath><clipPath id="n"><path d="M383 388h1.996v25.203H383zm0 0"/></clipPath><clipPath id="o"><path d="M383 254.46h1.996V279H383Zm0 0"/></clipPath><clipPath id="s"><path d="M226.254 254.46H228V279h-1.746zm0 0"/></clipPath><clipPath id="t"><path d="M383 388h1.996v25.203H383zm0 0"/></clipPath><clipPath id="u"><path d="M383 254.46h1.996V279H383Zm0 0"/></clipPath><clipPath id="y"><path d="M226.254 254.46H228V279h-1.746zm0 0"/></clipPath><clipPath id="z"><path d="M383 388h1.996v25.203H383zm0 0"/></clipPath><clipPath id="A"><path d="M383 254.46h1.996V279H383Zm0 0"/></clipPath><clipPath id="v"><path d="M226.254 254.46H228V279h-1.746zm0 0"/></clipPath><clipPath id="w"><path d="M383 388h1.996v25.203H383zm0 0"/></clipPath><clipPath id="x"><path d="M383 254.46h1.996V279H383Zm0 0"/></clipPath><clipPath id="B"><path d="M226.254 254.46H228V279h-1.746zm0 0"/></clipPath><clipPath id="C"><path d="M383 388h1.996v25.203H383zm0 0"/></clipPath><clipPath id="D"><path d="M383 254.46h1.996V279H383Zm0 0"/></clipPath><clipPath id="H"><path d="M226.254 254.46H228V279h-1.746zm0 0"/></clipPath><clipPath id="I"><path d="M383 388h1.996v25.203H383zm0 0"/></clipPath><clipPath id="J"><path d="M383 254.46h1.996V279H383Zm0 0"/></clipPath><clipPath id="E"><path d="M226.254 254.46H228V279h-1.746zm0 0"/></clipPath><clipPath id="F"><path d="M383 388h1.996v25.203H383zm0 0"/></clipPath><clipPath id="G"><path d="M383 254.46h1.996V279H383Zm0 0"/></clipPath><clipPath id="Q"><path d="M226.254 254.46H228V279h-1.746zm0 0"/></clipPath><clipPath id="R"><path d="M383 388h1.996v25.203H383zm0 0"/></clipPath><clipPath id="S"><path d="M383 254.46h1.996V279H383Zm0 0"/></clipPath><clipPath id="W"><path d="M226.254 254.46H228V279h-1.746zm0 0"/></clipPath><clipPath id="X"><path d="M383 388h1.996v25.203H383zm0 0"/></clipPath><clipPath id="Y"><path d="M383 254.46h1.996V279H383Zm0 0"/></clipPath><clipPath id="T"><path d="M226.254 254.46H228V279h-1.746zm0 0"/></clipPath><clipPath id="U"><path d="M383 388h1.996v25.203H383zm0 0"/></clipPath><clipPath id="V"><path d="M383 254.46h1.996V279H383Zm0 0"/></clipPath><symbol id="M" overflow="visible" style="overflow:visible"><path d="M1.531-3.297c.578 0 .813.031 1.047.11.625.234 1.016.796 1.016 1.484 0 .828-.578 1.484-1.313 1.484-.265 0-.469-.078-.828-.312-.312-.172-.469-.25-.64-.25-.235 0-.391.14-.391.36 0 .343.437.562 1.14.562.766 0 1.547-.266 2.016-.672.469-.406.735-.985.735-1.656 0-.5-.172-.97-.454-1.282-.203-.219-.39-.344-.828-.531.688-.469.938-.828.938-1.375 0-.813-.64-1.36-1.563-1.36-.5 0-.937.173-1.297.485-.296.266-.437.531-.656 1.125l.14.047c.407-.734.86-1.063 1.485-1.063.656 0 1.11.438 1.11 1.063a1.4 1.4 0 0 1-.407.969c-.297.296-.578.453-1.25.687zm0 0" style="stroke:none"/></symbol><symbol id="N" overflow="visible" style="overflow:visible"><path d="M6.563-2.297c.171 0 .359 0 .359-.203 0-.188-.188-.188-.36-.188h-5.39c-.172 0-.344 0-.344.188 0 .203.172.203.344.203zm0 0" style="stroke:none"/></symbol><symbol id="O" overflow="visible" style="overflow:visible"><path d="M1.531-3.297c.578 0 .813.031 1.047.11.625.234 1.016.796 1.016 1.484 0 .828-.578 1.484-1.313 1.484-.265 0-.469-.078-.828-.312-.312-.172-.469-.25-.64-.25-.235 0-.391.14-.391.36 0 .343.437.562 1.14.562.766 0 1.547-.266 2.016-.672.469-.406.735-.985.735-1.656 0-.5-.172-.97-.454-1.282-.203-.219-.39-.344-.828-.531.688-.469.938-.828.938-1.375 0-.813-.64-1.36-1.563-1.36-.5 0-.937.173-1.297.485-.296.266-.437.531-.656 1.125l.14.047c.407-.734.86-1.063 1.485-1.063.656 0 1.11.438 1.11 1.063a1.4 1.4 0 0 1-.407.969c-.297.296-.578.453-1.25.687zm0 0" style="stroke:none"/></symbol><symbol id="P" overflow="visible" style="overflow:visible"><path d="M6.563-2.297c.171 0 .359 0 .359-.203 0-.188-.188-.188-.36-.188h-5.39c-.172 0-.344 0-.344.188 0 .203.172.203.344.203zm0 0" style="stroke:none"/></symbol><symbol id="K" overflow="visible" style="overflow:visible"><path d="M4-1.11c-.078.094-.125.157-.219.266-.219.313-.344.406-.453.406-.14 0-.234-.124-.312-.406-.016-.078-.032-.14-.032-.172-.25-1.015-.359-1.468-.359-1.609.438-.781.797-1.219.969-1.219.062 0 .14.031.25.078.11.079.187.094.265.094.204 0 .344-.14.344-.36 0-.202-.172-.359-.406-.359-.438 0-.813.36-1.5 1.422l-.11-.547c-.14-.687-.25-.875-.53-.875-.22 0-.548.079-1.157.282l-.11.046.032.141c.39-.078.469-.11.562-.11.25 0 .313.095.454.688l.28 1.235-.812 1.156C.953-.641.75-.47.641-.47a.554.554 0 0 1-.25-.094.755.755 0 0 0-.329-.093c-.187 0-.328.14-.328.344 0 .265.204.421.5.421.297 0 .422-.093.922-.703.266-.312.485-.578.89-1.156L2.36-.562c.125.515.25.671.579.671.374 0 .624-.234 1.203-1.14zm0 0" style="stroke:none"/></symbol><symbol id="L" overflow="visible" style="overflow:visible"><path d="M.156-3.984c.125-.032.188-.047.297-.047.578 0 .719.25 1.188 1.968.156.641.406 1.813.406 1.985 0 .156-.063.312-.219.5-.297.406-.5.672-.61.781C1 1.422.892 1.5.75 1.5c-.047 0-.125-.031-.234-.11-.141-.109-.25-.171-.36-.171a.387.387 0 0 0-.39.39c0 .25.218.438.5.438.64 0 1.953-1.485 3.03-3.469.673-1.219.954-1.937.954-2.422a.554.554 0 0 0-.547-.547c-.234 0-.39.141-.39.36 0 .156.078.265.28.39.188.11.25.204.25.344 0 .39-.359 1.172-1.218 2.578l-.188-1.156c-.156-.875-.718-2.516-.859-2.516h-.125l-.984.172a1.759 1.759 0 0 1-.313.063zm0 0" style="stroke:none"/></symbol><symbol id="Z" overflow="visible" style="overflow:visible"><path d="M4-1.11c-.078.094-.125.157-.219.266-.219.313-.344.406-.453.406-.14 0-.234-.124-.312-.406-.016-.078-.032-.14-.032-.172-.25-1.015-.359-1.468-.359-1.609.438-.781.797-1.219.969-1.219.062 0 .14.031.25.078.11.079.187.094.265.094.204 0 .344-.14.344-.36 0-.202-.172-.359-.406-.359-.438 0-.813.36-1.5 1.422l-.11-.547c-.14-.687-.25-.875-.53-.875-.22 0-.548.079-1.157.282l-.11.046.032.141c.39-.078.469-.11.562-.11.25 0 .313.095.454.688l.28 1.235-.812 1.156C.953-.641.75-.47.641-.47a.554.554 0 0 1-.25-.094.755.755 0 0 0-.329-.093c-.187 0-.328.14-.328.344 0 .265.204.421.5.421.297 0 .422-.093.922-.703.266-.312.485-.578.89-1.156L2.36-.562c.125.515.25.671.579.671.374 0 .624-.234 1.203-1.14zm0 0" style="stroke:none"/></symbol><symbol id="aa" overflow="visible" style="overflow:visible"><path d="M.156-3.984c.125-.032.188-.047.297-.047.578 0 .719.25 1.188 1.968.156.641.406 1.813.406 1.985 0 .156-.063.312-.219.5-.297.406-.5.672-.61.781C1 1.422.892 1.5.75 1.5c-.047 0-.125-.031-.234-.11-.141-.109-.25-.171-.36-.171a.387.387 0 0 0-.39.39c0 .25.218.438.5.438.64 0 1.953-1.485 3.03-3.469.673-1.219.954-1.937.954-2.422a.554.554 0 0 0-.547-.547c-.234 0-.39.141-.39.36 0 .156.078.265.28.39.188.11.25.204.25.344 0 .39-.359 1.172-1.218 2.578l-.188-1.156c-.156-.875-.718-2.516-.859-2.516h-.125l-.984.172a1.759 1.759 0 0 1-.313.063zm0 0" style="stroke:none"/></symbol><symbol id="ab" overflow="visible"><path d="M.156-3.984c.125-.032.188-.047.297-.047.578 0 .719.25 1.188 1.968.156.641.406 1.813.406 1.985 0 .156-.063.312-.219.5-.297.406-.5.672-.61.781C1 1.422.892 1.5.75 1.5c-.047 0-.125-.031-.234-.11-.141-.109-.25-.171-.36-.171a.387.387 0 0 0-.39.39c0 .25.218.438.5.438.64 0 1.953-1.485 3.03-3.469.673-1.219.954-1.937.954-2.422a.554.554 0 0 0-.547-.547c-.234 0-.39.141-.39.36 0 .156.078.265.28.39.188.11.25.204.25.344 0 .39-.359 1.172-1.218 2.578l-.188-1.156c-.156-.875-.718-2.516-.859-2.516h-.125l-.984.172a1.759 1.759 0 0 1-.313.063Zm0 0" style="stroke:none"/></symbol><symbol id="ad" overflow="visible"><path d="M.344-3.953h.906L.375.234C.156 1.313-.172 1.86-.594 1.86c-.125 0-.203-.078-.203-.171 0-.016.016-.047.047-.11a.264.264 0 0 0 .047-.156c0-.203-.188-.375-.39-.375-.22 0-.376.172-.376.406 0 .344.36.61.797.61.875 0 1.578-.985 1.985-2.813l.718-3.203h1.094l.063-.313H2.109c.282-1.562.657-2.28 1.204-2.28.14 0 .218.062.218.124 0 .031 0 .047-.031.11a.344.344 0 0 0-.063.203c0 .234.157.39.376.39.218 0 .421-.172.421-.39 0-.375-.375-.657-.859-.657-.5 0-.875.22-1.234.688-.313.39-.5.86-.813 1.812H.422Zm0 0" style="stroke:none"/></symbol><symbol id="ag" overflow="visible"><path d="M4-1.11c-.078.094-.125.157-.219.266-.219.313-.344.406-.453.406-.14 0-.234-.124-.312-.406-.016-.078-.032-.14-.032-.172-.25-1.015-.359-1.468-.359-1.609.438-.781.797-1.219.969-1.219.062 0 .14.031.25.078.11.079.187.094.265.094.204 0 .344-.14.344-.36 0-.202-.172-.359-.406-.359-.438 0-.813.36-1.5 1.422l-.11-.547c-.14-.687-.25-.875-.53-.875-.22 0-.548.079-1.157.282l-.11.046.032.141c.39-.078.469-.11.562-.11.25 0 .313.095.454.688l.28 1.235-.812 1.156C.953-.641.75-.47.641-.47a.554.554 0 0 1-.25-.094.755.755 0 0 0-.329-.093c-.187 0-.328.14-.328.344 0 .265.204.421.5.421.297 0 .422-.093.922-.703.266-.312.485-.578.89-1.156L2.36-.562c.125.515.25.671.579.671.374 0 .624-.234 1.203-1.14Zm0 0" style="stroke:none"/></symbol><symbol id="ac" overflow="visible"><path d="M7.203-4.5c0-.219-.078-.313-.14-.313-.047 0-.141.047-.141.282-.047.687-.734 1.093-1.39 1.093-.579 0-1.079-.312-1.595-.656-.53-.36-1.078-.718-1.718-.718-.938 0-1.672.703-1.672 1.625 0 .218.078.296.14.296.094 0 .141-.187.141-.234.047-.828.86-1.125 1.39-1.125.579 0 1.079.297 1.595.656.53.36 1.078.719 1.718.719.922 0 1.672-.719 1.672-1.625Zm0 2.328c0-.297-.125-.312-.14-.312-.047 0-.141.046-.141.265-.047.688-.734 1.11-1.39 1.11-.579 0-1.079-.313-1.595-.672-.53-.36-1.078-.719-1.718-.719C1.28-2.5.547-1.781.547-.875c0 .234.078.313.14.313.094 0 .141-.188.141-.235.047-.844.86-1.14 1.39-1.14.579 0 1.079.312 1.595.656.53.36 1.078.718 1.718.718.953 0 1.672-.734 1.672-1.609Zm0 0" style="stroke:none"/></symbol><symbol id="ae" overflow="visible"><path d="M1.86-3.5c.046-.094.077-.156.077-.234 0-.22-.203-.391-.421-.391-.204 0-.344.14-.391.328L.25-.562c0 .015-.031.093-.031.093 0 .078.187.14.25.14.047 0 .047-.03.094-.124Zm0 0" style="stroke:none"/></symbol><symbol id="af" overflow="visible"><path d="M3.297 2.39c0-.03 0-.046-.172-.218C1.891.922 1.562-.968 1.562-2.5c0-1.734.375-3.469 1.61-4.703.125-.125.125-.14.125-.172 0-.078-.031-.11-.094-.11-.11 0-1 .688-1.594 1.954C1.11-4.438.984-3.328.984-2.5c0 .781.11 1.984.657 3.125C2.25 1.844 3.094 2.5 3.203 2.5c.063 0 .094-.031.094-.11Zm0 0" style="stroke:none"/></symbol><symbol id="ah" overflow="visible"><path d="M2.875-2.5c0-.766-.11-1.969-.656-3.11C1.625-6.827.766-7.483.672-7.483a.107.107 0 0 0-.11.109c0 .031 0 .047.188.234.984.985 1.547 2.563 1.547 4.641 0 1.719-.36 3.469-1.594 4.719-.14.125-.14.14-.14.172 0 .062.046.109.109.109.094 0 1-.688 1.578-1.953.516-1.094.625-2.203.625-3.047Zm0 0" style="stroke:none"/></symbol></defs><g clip-path="url(#a)" style="clip-rule:nonzero" transform="translate(293.387 -256.472)"><path d="M-88.897 68.034c0 1-.813 1.813-1.813 1.813a1.811 1.811 0 0 1-1.812-1.813 1.812 1.812 0 1 1 3.625 0zm0 0" style="fill:none;stroke:red;stroke-width:.79701;stroke-linecap:butt;stroke-linejoin:miter;stroke-miterlimit:10;stroke-opacity:1" transform="matrix(1 0 0 -1 305.624 333.831)"/></g><g clip-path="url(#b)" style="clip-rule:nonzero" transform="translate(293.387 -256.472)"><path d="M92.524-68.032a1.814 1.814 0 1 1-3.627-.003 1.814 1.814 0 0 1 3.627.003zm0 0" style="fill:none;stroke:red;stroke-width:.79701;stroke-linecap:butt;stroke-linejoin:miter;stroke-miterlimit:10;stroke-opacity:1" transform="matrix(1 0 0 -1 305.624 333.831)"/></g><g clip-path="url(#c)" style="clip-rule:nonzero" transform="translate(293.387 -256.472)"><path d="M92.524 68.034a1.814 1.814 0 1 1-3.627-.002 1.814 1.814 0 0 1 3.627.002zm0 0" style="fill:none;stroke:red;stroke-width:.79701;stroke-linecap:butt;stroke-linejoin:miter;stroke-miterlimit:10;stroke-opacity:1" transform="matrix(1 0 0 -1 305.624 333.831)"/></g><g clip-path="url(#a)" style="clip-rule:nonzero" transform="translate(504.585 -256.472)"><path d="M-88.897 68.034c0 1-.813 1.813-1.813 1.813a1.811 1.811 0 0 1-1.812-1.813 1.812 1.812 0 1 1 3.625 0zm0 0" style="fill:none;stroke:red;stroke-width:.79701;stroke-linecap:butt;stroke-linejoin:miter;stroke-miterlimit:10;stroke-opacity:1" transform="matrix(1 0 0 -1 305.624 333.831)"/></g><g clip-path="url(#b)" style="clip-rule:nonzero" transform="translate(504.585 -256.472)"><path d="M92.524-68.032a1.814 1.814 0 1 1-3.627-.003 1.814 1.814 0 0 1 3.627.003zm0 0" style="fill:none;stroke:red;stroke-width:.79701;stroke-linecap:butt;stroke-linejoin:miter;stroke-miterlimit:10;stroke-opacity:1" transform="matrix(1 0 0 -1 305.624 333.831)"/></g><g clip-path="url(#c)" style="clip-rule:nonzero" transform="translate(504.585 -256.472)"><path d="M92.524 68.034a1.814 1.814 0 1 1-3.627-.002 1.814 1.814 0 0 1 3.627.002zm0 0" style="fill:none;stroke:red;stroke-width:.79701;stroke-linecap:butt;stroke-linejoin:miter;stroke-miterlimit:10;stroke-opacity:1" transform="matrix(1 0 0 -1 305.624 333.831)"/></g><g clip-path="url(#d)" style="clip-rule:nonzero" transform="translate(-2094.407 -911.092)"><path d="M-88.897 68.034c0 1-.813 1.813-1.813 1.813a1.811 1.811 0 0 1-1.812-1.813 1.812 1.812 0 1 1 3.625 0zm0 0" style="fill:none;stroke:red;stroke-width:.79701;stroke-linecap:butt;stroke-linejoin:miter;stroke-miterlimit:10;stroke-opacity:1" transform="matrix(1 0 0 -1 305.624 333.831)"/></g><g clip-path="url(#e)" style="clip-rule:nonzero" transform="translate(-2094.407 -911.092)"><path d="M92.524-68.032a1.814 1.814 0 1 1-3.627-.003 1.814 1.814 0 0 1 3.627.003zm0 0" style="fill:none;stroke:red;stroke-width:.79701;stroke-linecap:butt;stroke-linejoin:miter;stroke-miterlimit:10;stroke-opacity:1" transform="matrix(1 0 0 -1 305.624 333.831)"/></g><g clip-path="url(#f)" style="clip-rule:nonzero" transform="translate(-2094.407 -911.092)"><path d="M92.524 68.034a1.814 1.814 0 1 1-3.627-.002 1.814 1.814 0 0 1 3.627.002zm0 0" style="fill:none;stroke:red;stroke-width:.79701;stroke-linecap:butt;stroke-linejoin:miter;stroke-miterlimit:10;stroke-opacity:1" transform="matrix(1 0 0 -1 305.624 333.831)"/></g><g clip-path="url(#d)" style="clip-rule:nonzero" transform="translate(-1883.21 -911.092)"><path d="M-88.897 68.034c0 1-.813 1.813-1.813 1.813a1.811 1.811 0 0 1-1.812-1.813 1.812 1.812 0 1 1 3.625 0zm0 0" style="fill:none;stroke:red;stroke-width:.79701;stroke-linecap:butt;stroke-linejoin:miter;stroke-miterlimit:10;stroke-opacity:1" transform="matrix(1 0 0 -1 305.624 333.831)"/></g><g clip-path="url(#e)" style="clip-rule:nonzero" transform="translate(-1883.21 -911.092)"><path d="M92.524-68.032a1.814 1.814 0 1 1-3.627-.003 1.814 1.814 0 0 1 3.627.003zm0 0" style="fill:none;stroke:red;stroke-width:.79701;stroke-linecap:butt;stroke-linejoin:miter;stroke-miterlimit:10;stroke-opacity:1" transform="matrix(1 0 0 -1 305.624 333.831)"/></g><g clip-path="url(#f)" style="clip-rule:nonzero" transform="translate(-1883.21 -911.092)"><path d="M92.524 68.034a1.814 1.814 0 1 1-3.627-.002 1.814 1.814 0 0 1 3.627.002zm0 0" style="fill:none;stroke:red;stroke-width:.79701;stroke-linecap:butt;stroke-linejoin:miter;stroke-miterlimit:10;stroke-opacity:1" transform="matrix(1 0 0 -1 305.624 333.831)"/></g><g clip-path="url(#g)" style="clip-rule:nonzero" transform="translate(-1449.06 703.813)"><path d="M-88.897 68.034c0 1-.813 1.813-1.813 1.813a1.811 1.811 0 0 1-1.812-1.813 1.812 1.812 0 1 1 3.625 0zm0 0" style="fill:none;stroke:red;stroke-width:.79701;stroke-linecap:butt;stroke-linejoin:miter;stroke-miterlimit:10;stroke-opacity:1" transform="matrix(1 0 0 -1 305.624 333.831)"/></g><g clip-path="url(#h)" style="clip-rule:nonzero" transform="translate(-1449.06 703.813)"><path d="M92.524-68.032a1.814 1.814 0 1 1-3.627-.003 1.814 1.814 0 0 1 3.627.003zm0 0" style="fill:none;stroke:red;stroke-width:.79701;stroke-linecap:butt;stroke-linejoin:miter;stroke-miterlimit:10;stroke-opacity:1" transform="matrix(1 0 0 -1 305.624 333.831)"/></g><g clip-path="url(#i)" style="clip-rule:nonzero" transform="translate(-1449.06 703.813)"><path d="M92.524 68.034a1.814 1.814 0 1 1-3.627-.002 1.814 1.814 0 0 1 3.627.002zm0 0" style="fill:none;stroke:red;stroke-width:.79701;stroke-linecap:butt;stroke-linejoin:miter;stroke-miterlimit:10;stroke-opacity:1" transform="matrix(1 0 0 -1 305.624 333.831)"/></g><g clip-path="url(#g)" style="clip-rule:nonzero" transform="translate(-1237.863 703.813)"><path d="M-88.897 68.034c0 1-.813 1.813-1.813 1.813a1.811 1.811 0 0 1-1.812-1.813 1.812 1.812 0 1 1 3.625 0zm0 0" style="fill:none;stroke:red;stroke-width:.79701;stroke-linecap:butt;stroke-linejoin:miter;stroke-miterlimit:10;stroke-opacity:1" transform="matrix(1 0 0 -1 305.624 333.831)"/></g><g clip-path="url(#h)" style="clip-rule:nonzero" transform="translate(-1237.863 703.813)"><path d="M92.524-68.032a1.814 1.814 0 1 1-3.627-.003 1.814 1.814 0 0 1 3.627.003zm0 0" style="fill:none;stroke:red;stroke-width:.79701;stroke-linecap:butt;stroke-linejoin:miter;stroke-miterlimit:10;stroke-opacity:1" transform="matrix(1 0 0 -1 305.624 333.831)"/></g><g clip-path="url(#i)" style="clip-rule:nonzero" transform="translate(-1237.863 703.813)"><path d="M92.524 68.034a1.814 1.814 0 1 1-3.627-.002 1.814 1.814 0 0 1 3.627.002zm0 0" style="fill:none;stroke:red;stroke-width:.79701;stroke-linecap:butt;stroke-linejoin:miter;stroke-miterlimit:10;stroke-opacity:1" transform="matrix(1 0 0 -1 305.624 333.831)"/></g><path d="M-426.56-870.665a1.134 1.134 0 1 0-2.267.001 1.134 1.134 0 0 0 2.267-.001zm0 0" style="display:inline;fill:#000;fill-opacity:1;fill-rule:nonzero;stroke:#000;stroke-width:.3985;stroke-linecap:butt;stroke-linejoin:miter;stroke-miterlimit:10;stroke-opacity:1"/><g style="display:inline"><path d="M216.71 219.685H405.5m-188.79-25.516H405.5m-188.79-25.511H405.5m-188.79-25.512H405.5m-188.79-25.512H405.5M216.71 92.123H405.5M216.71 66.61H405.5M234.57 237.54V48.75m25.511 188.79V48.75m25.512 188.79V48.75m25.512 188.79V48.75m25.511 188.79V48.75m25.512 188.79V48.75m25.512 188.79V48.75" style="fill:none;stroke:#9e9ed1;stroke-width:.19925;stroke-linecap:butt;stroke-linejoin:miter;stroke-miterlimit:10;stroke-opacity:1" transform="translate(50 -20.205)"/><path d="M216.71 143.146H405.5M311.105 237.54V48.751" style="fill:none;stroke:#000;stroke-width:.3985;stroke-linecap:butt;stroke-linejoin:miter;stroke-miterlimit:10;stroke-opacity:1" transform="translate(50 -20.205)"/><path d="M313.706 71.718V61.503h6.708v10.215zm0 0" style="fill:#fdfdfd;fill-opacity:1;fill-rule:nonzero;stroke:#fdfdfd;stroke-width:.38645953;stroke-linecap:butt;stroke-linejoin:miter;stroke-miterlimit:10;stroke-opacity:1" transform="translate(50 -20.205)"/><use xlink:href="#O" width="100%" height="100%" x="287.193" y="262.315" style="fill:#b0b0d9;fill-opacity:1" transform="translate(77.408 -212.652)"/><path d="M292.991 225.294v-10.203h16.075v10.203zm0 0" style="fill:#fdfdfd;fill-opacity:1;fill-rule:nonzero;stroke:#fdfdfd;stroke-width:.3985;stroke-linecap:butt;stroke-linejoin:miter;stroke-miterlimit:10;stroke-opacity:1" transform="translate(50 -20.205)"/><use xlink:href="#P" width="100%" height="100%" x="278.986" y="415.559" style="fill:#b0b0d9;fill-opacity:1" transform="translate(65.808 -212.652)"/><use xlink:href="#O" width="100%" height="100%" x="286.727" y="415.559" style="fill:#b0b0d9;fill-opacity:1" transform="translate(65.808 -212.652)"/><path d="M226.917 156.67v-10.208h15.305v10.207zm0 0" style="fill:#fdfdfd;fill-opacity:1;fill-rule:nonzero;stroke:#fdfdfd;stroke-width:.3985;stroke-linecap:butt;stroke-linejoin:miter;stroke-miterlimit:10;stroke-opacity:1" transform="translate(50 -20.205)"/><use xlink:href="#P" width="100%" height="100%" x="212.401" y="346.933" style="fill:#b0b0d9;fill-opacity:1" transform="translate(65.808 -212.652)"/><use xlink:href="#O" width="100%" height="100%" x="220.142" y="346.933" style="fill:#b0b0d9;fill-opacity:1" transform="translate(65.808 -212.652)"/><path d="M379.987 156.67v-10.208h15.309v10.207zm0 0" style="fill:#fdfdfd;fill-opacity:1;fill-rule:nonzero;stroke:#fdfdfd;stroke-width:.3985;stroke-linecap:butt;stroke-linejoin:miter;stroke-miterlimit:10;stroke-opacity:1" transform="translate(50 -20.205)"/><use xlink:href="#O" width="100%" height="100%" x="369.341" y="347.269" style="fill:#b0b0d9;fill-opacity:1" transform="translate(65.808 -212.652)"/><path d="M405.5 143.146h5.1M311.105 48.751V43.65" style="fill:none;stroke:#000;stroke-width:.3985;stroke-linecap:butt;stroke-linejoin:miter;stroke-miterlimit:10;stroke-opacity:1" transform="translate(50 -20.205)"/><path d="M410.51 143.146h-.491" style="fill:none;stroke:#000;stroke-width:.59776002;stroke-linecap:butt;stroke-linejoin:miter;stroke-miterlimit:10;stroke-opacity:1" transform="translate(50 -20.205)"/><path d="M408.644 141.314c.113.687 1.375 1.719 1.718 1.832-.343.117-1.605 1.148-1.718 1.836" style="fill:none;stroke:#000;stroke-width:.47819999;stroke-linecap:round;stroke-linejoin:round;stroke-miterlimit:10;stroke-opacity:1" transform="translate(50 -20.205)"/><path d="M311.105 43.74v.492" style="fill:none;stroke:#000;stroke-width:.59776002;stroke-linecap:butt;stroke-linejoin:miter;stroke-miterlimit:10;stroke-opacity:1" transform="translate(50 -20.205)"/><path d="M309.273 45.607c.687-.113 1.718-1.375 1.832-1.719.113.344 1.144 1.606 1.832 1.719" style="fill:none;stroke:#000;stroke-width:.47819999;stroke-linecap:round;stroke-linejoin:round;stroke-miterlimit:10;stroke-opacity:1" transform="translate(50 -20.205)"/><g clip-path="url(#Q)" style="clip-rule:nonzero" transform="translate(293.077 -256.751)"><path d="M-88.897 68.034c0 1-.813 1.813-1.813 1.813a1.811 1.811 0 0 1-1.812-1.813 1.812 1.812 0 1 1 3.625 0zm0 0" style="fill:none;stroke:red;stroke-width:.79701;stroke-linecap:butt;stroke-linejoin:miter;stroke-miterlimit:10;stroke-opacity:1" transform="matrix(1 0 0 -1 305.624 333.831)"/></g><g clip-path="url(#R)" style="clip-rule:nonzero" transform="translate(293.077 -256.751)"><path d="M92.524-68.032a1.814 1.814 0 1 1-3.627-.003 1.814 1.814 0 0 1 3.627.003zm0 0" style="fill:none;stroke:red;stroke-width:.79701;stroke-linecap:butt;stroke-linejoin:miter;stroke-miterlimit:10;stroke-opacity:1" transform="matrix(1 0 0 -1 305.624 333.831)"/></g><g clip-path="url(#S)" style="clip-rule:nonzero" transform="translate(293.077 -256.751)"><path d="M92.524 68.034a1.814 1.814 0 1 1-3.627-.002 1.814 1.814 0 0 1 3.627.002zm0 0" style="fill:none;stroke:red;stroke-width:.79701;stroke-linecap:butt;stroke-linejoin:miter;stroke-miterlimit:10;stroke-opacity:1" transform="matrix(1 0 0 -1 305.624 333.831)"/></g><g clip-path="url(#Q)" style="clip-rule:nonzero" transform="translate(504.275 -256.751)"><path d="M-88.897 68.034c0 1-.813 1.813-1.813 1.813a1.811 1.811 0 0 1-1.812-1.813 1.812 1.812 0 1 1 3.625 0zm0 0" style="fill:none;stroke:red;stroke-width:.79701;stroke-linecap:butt;stroke-linejoin:miter;stroke-miterlimit:10;stroke-opacity:1" transform="matrix(1 0 0 -1 305.624 333.831)"/></g><g clip-path="url(#R)" style="clip-rule:nonzero" transform="translate(504.275 -256.751)"><path d="M92.524-68.032a1.814 1.814 0 1 1-3.627-.003 1.814 1.814 0 0 1 3.627.003zm0 0" style="fill:none;stroke:red;stroke-width:.79701;stroke-linecap:butt;stroke-linejoin:miter;stroke-miterlimit:10;stroke-opacity:1" transform="matrix(1 0 0 -1 305.624 333.831)"/></g><g clip-path="url(#S)" style="clip-rule:nonzero" transform="translate(504.275 -256.751)"><path d="M92.524 68.034a1.814 1.814 0 1 1-3.627-.002 1.814 1.814 0 0 1 3.627.002zm0 0" style="fill:none;stroke:red;stroke-width:.79701;stroke-linecap:butt;stroke-linejoin:miter;stroke-miterlimit:10;stroke-opacity:1" transform="matrix(1 0 0 -1 305.624 333.831)"/></g><g clip-path="url(#T)" style="clip-rule:nonzero" transform="translate(-2094.717 -911.37)"><path d="M-88.897 68.034c0 1-.813 1.813-1.813 1.813a1.811 1.811 0 0 1-1.812-1.813 1.812 1.812 0 1 1 3.625 0zm0 0" style="fill:none;stroke:red;stroke-width:.79701;stroke-linecap:butt;stroke-linejoin:miter;stroke-miterlimit:10;stroke-opacity:1" transform="matrix(1 0 0 -1 305.624 333.831)"/></g><g clip-path="url(#U)" style="clip-rule:nonzero" transform="translate(-2094.717 -911.37)"><path d="M92.524-68.032a1.814 1.814 0 1 1-3.627-.003 1.814 1.814 0 0 1 3.627.003zm0 0" style="fill:none;stroke:red;stroke-width:.79701;stroke-linecap:butt;stroke-linejoin:miter;stroke-miterlimit:10;stroke-opacity:1" transform="matrix(1 0 0 -1 305.624 333.831)"/></g><g clip-path="url(#V)" style="clip-rule:nonzero" transform="translate(-2094.717 -911.37)"><path d="M92.524 68.034a1.814 1.814 0 1 1-3.627-.002 1.814 1.814 0 0 1 3.627.002zm0 0" style="fill:none;stroke:red;stroke-width:.79701;stroke-linecap:butt;stroke-linejoin:miter;stroke-miterlimit:10;stroke-opacity:1" transform="matrix(1 0 0 -1 305.624 333.831)"/></g><g clip-path="url(#T)" style="clip-rule:nonzero" transform="translate(-1883.52 -911.37)"><path d="M-88.897 68.034c0 1-.813 1.813-1.813 1.813a1.811 1.811 0 0 1-1.812-1.813 1.812 1.812 0 1 1 3.625 0zm0 0" style="fill:none;stroke:red;stroke-width:.79701;stroke-linecap:butt;stroke-linejoin:miter;stroke-miterlimit:10;stroke-opacity:1" transform="matrix(1 0 0 -1 305.624 333.831)"/></g><g clip-path="url(#U)" style="clip-rule:nonzero" transform="translate(-1883.52 -911.37)"><path d="M92.524-68.032a1.814 1.814 0 1 1-3.627-.003 1.814 1.814 0 0 1 3.627.003zm0 0" style="fill:none;stroke:red;stroke-width:.79701;stroke-linecap:butt;stroke-linejoin:miter;stroke-miterlimit:10;stroke-opacity:1" transform="matrix(1 0 0 -1 305.624 333.831)"/></g><g clip-path="url(#V)" style="clip-rule:nonzero" transform="translate(-1883.52 -911.37)"><path d="M92.524 68.034a1.814 1.814 0 1 1-3.627-.002 1.814 1.814 0 0 1 3.627.002zm0 0" style="fill:none;stroke:red;stroke-width:.79701;stroke-linecap:butt;stroke-linejoin:miter;stroke-miterlimit:10;stroke-opacity:1" transform="matrix(1 0 0 -1 305.624 333.831)"/></g><g clip-path="url(#W)" style="clip-rule:nonzero" transform="translate(-1449.37 703.534)"><path d="M-88.897 68.034c0 1-.813 1.813-1.813 1.813a1.811 1.811 0 0 1-1.812-1.813 1.812 1.812 0 1 1 3.625 0zm0 0" style="fill:none;stroke:red;stroke-width:.79701;stroke-linecap:butt;stroke-linejoin:miter;stroke-miterlimit:10;stroke-opacity:1" transform="matrix(1 0 0 -1 305.624 333.831)"/></g><g clip-path="url(#X)" style="clip-rule:nonzero" transform="translate(-1449.37 703.534)"><path d="M92.524-68.032a1.814 1.814 0 1 1-3.627-.003 1.814 1.814 0 0 1 3.627.003zm0 0" style="fill:none;stroke:red;stroke-width:.79701;stroke-linecap:butt;stroke-linejoin:miter;stroke-miterlimit:10;stroke-opacity:1" transform="matrix(1 0 0 -1 305.624 333.831)"/></g><g clip-path="url(#Y)" style="clip-rule:nonzero" transform="translate(-1449.37 703.534)"><path d="M92.524 68.034a1.814 1.814 0 1 1-3.627-.002 1.814 1.814 0 0 1 3.627.002zm0 0" style="fill:none;stroke:red;stroke-width:.79701;stroke-linecap:butt;stroke-linejoin:miter;stroke-miterlimit:10;stroke-opacity:1" transform="matrix(1 0 0 -1 305.624 333.831)"/></g><g clip-path="url(#W)" style="clip-rule:nonzero" transform="translate(-1238.174 703.534)"><path d="M-88.897 68.034c0 1-.813 1.813-1.813 1.813a1.811 1.811 0 0 1-1.812-1.813 1.812 1.812 0 1 1 3.625 0zm0 0" style="fill:none;stroke:red;stroke-width:.79701;stroke-linecap:butt;stroke-linejoin:miter;stroke-miterlimit:10;stroke-opacity:1" transform="matrix(1 0 0 -1 305.624 333.831)"/></g><g clip-path="url(#X)" style="clip-rule:nonzero" transform="translate(-1238.174 703.534)"><path d="M92.524-68.032a1.814 1.814 0 1 1-3.627-.003 1.814 1.814 0 0 1 3.627.003zm0 0" style="fill:none;stroke:red;stroke-width:.79701;stroke-linecap:butt;stroke-linejoin:miter;stroke-miterlimit:10;stroke-opacity:1" transform="matrix(1 0 0 -1 305.624 333.831)"/></g><g clip-path="url(#Y)" style="clip-rule:nonzero" transform="translate(-1238.174 703.534)"><path d="M92.524 68.034a1.814 1.814 0 1 1-3.627-.002 1.814 1.814 0 0 1 3.627.002zm0 0" style="fill:none;stroke:red;stroke-width:.79701;stroke-linecap:butt;stroke-linejoin:miter;stroke-miterlimit:10;stroke-opacity:1" transform="matrix(1 0 0 -1 305.624 333.831)"/></g><use xlink:href="#Z" width="100%" height="100%" x="402.77" y="337.705" style="display:inline;fill:#000;fill-opacity:1" transform="matrix(1.23182 0 0 1.23182 -25.463 -290.595)"/><use xlink:href="#aa" width="100%" height="100%" x="293.085" y="227.043" style="display:inline;fill:#000;fill-opacity:1" transform="matrix(1.23182 0 0 1.23182 -2.39 -266.945)"/></g><path d="M-287.457 495.497c.714-.062 1.432-.023 2.148-.037a53.266 53.266 0 0 0 3.41-.278c1.53-.147 3.048-.376 4.57-.583 1.7-.254 3.396-.533 5.092-.808a78.2 78.2 0 0 0 4.963-.972c1.297-.286 2.58-.621 3.845-1.024.674-.216 1.348-.435 2.02-.654l.333-.108.395.695-.332.109c-.675.22-1.349.439-2.024.656a42.192 42.192 0 0 1-3.898 1.05c-1.657.376-3.322.723-5 .99a523.86 523.86 0 0 1-5.11.814c-1.527.207-3.051.44-4.586.589-1.277.14-2.559.26-3.844.307-.565.006-1.184-.005-1.72.01l-.262-.756zM-198.182 465.54c-.57-1.825-1.313-3.585-1.975-5.375-1-2.674-2.035-5.333-3.031-8.008-.979-2.739-2.052-5.439-3.15-8.128-1.096-2.787-2.406-5.474-3.648-8.192-1.07-2.358-2.076-4.746-3.19-7.083-.158-.348-.316-.697-.475-1.044a33.768 33.768 0 0 0-1.331-2.64c-.29-.507-.6-1.003-.9-1.505-.726-1.213-1.545-2.389-2.03-3.735-.01-.01-.194-.676-.07-.695.65-.101.624-.112.8.138l-.708.347c-.025-.053-.129-.14-.075-.158.23-.074.488.017.72-.05.075-.023-.035-.318.018-.066.016.078.04.153.059.23.47 1.303 1.287 2.43 1.98 3.61.018.031.893 1.499.91 1.53.682 1.199 1.255 2.457 1.823 3.718 1.113 2.34 2.121 4.732 3.193 7.094 1.247 2.726 2.558 5.423 3.66 8.219 1.099 2.696 2.173 5.403 3.155 8.148.997 2.676 2.033 5.336 3.032 8.01.668 1.806 1.418 3.582 1.99 5.425l-.757.21z" style="display:inline;opacity:1;fill:red;fill-opacity:1;stroke:none;stroke-width:.15000001;stroke-linecap:square;stroke-linejoin:miter;stroke-miterlimit:4;stroke-dasharray:none;stroke-opacity:.87843137" transform="translate(571.76 -372.906)"/><path d="M-185.875 515.913c-.24-1.561-.539-3.112-.803-4.67a73.201 73.201 0 0 0-1.345-6.715c-.704-2.581-1.443-5.152-2.05-7.759-.545-2.453-1.07-4.912-1.65-7.358-.36-1.558-.839-3.084-1.242-4.63-.242-.93-.34-1.408-.547-2.336-.511-2.207-.955-4.429-1.475-6.634-.318-1.657-.934-3.225-1.491-4.809-.376-1.131-.75-2.264-1.046-3.42-.195-.77-.42-1.534-.656-2.293-.062-.125-.056-.274-.109-.402l.769-.223c.041.137.068.277.112.413.238.77.467 1.544.663 2.326.292 1.136.662 2.25 1.03 3.362.567 1.607 1.186 3.2 1.51 4.88.52 2.207.966 4.432 1.477 6.642.204.914.301 1.387.54 2.301.405 1.555.886 3.09 1.247 4.656.58 2.446 1.105 4.906 1.65 7.36.607 2.603 1.347 5.17 2.048 7.747a74.192 74.192 0 0 1 1.355 6.768c.266 1.567.568 3.128.808 4.7l-.795.094zM-170.23 547.52c-.568-.813-1.18-1.595-1.746-2.41-.1-.145-.965-1.46-1.058-1.602-1.3-1.94-2.423-3.994-3.434-6.103-.547-1.16-1.028-2.351-1.553-3.522-.457-1.018-.962-2.014-1.436-3.024-.902-2.006-1.783-4.02-2.673-6.032-.145-.314-.287-.629-.433-.942-.138-.295-.657-1.379-.794-1.691-.373-.849-.69-1.724-1.025-2.588a22.763 22.763 0 0 0-1.265-3.006c-.273-.373.604.006.72-.337l-.712.383c-.029-.062-.138-.143-.086-.185.683-.544.64-.533.815-.19a23.92 23.92 0 0 1 1.29 3.067c.33.85.641 1.71 1.008 2.544.129.292.67 1.425.796 1.695.147.316.29.634.436.95.888 2.007 1.766 4.018 2.668 6.018.477 1.017.983 2.02 1.443 3.045.522 1.162 1 2.344 1.543 3.496.999 2.08 2.11 4.104 3.393 6.018a80.82 80.82 0 0 0 2.761 3.942l-.657.473z" style="display:inline;opacity:1;fill:red;fill-opacity:1;stroke:none;stroke-width:.15000001;stroke-linecap:square;stroke-linejoin:miter;stroke-miterlimit:4;stroke-dasharray:none;stroke-opacity:.87843137" transform="translate(571.76 -372.906)"/><path d="M-170.359 547.563c.732-1.26 1.534-2.475 2.264-3.735.73-1.477 1.273-3.035 1.943-4.54.861-1.854 1.551-3.776 2.193-5.714.734-2.242 1.486-4.476 2.233-6.713.724-2.082 1.277-4.216 1.88-6.335.523-1.813 1.196-3.576 1.864-5.339.55-1.439 1.113-2.873 1.661-4.313.342-.893.637-1.815 1.094-2.659l.752.336c-.462.803-.718 1.71-1.059 2.565-.549 1.44-1.109 2.874-1.66 4.312-.663 1.744-1.329 3.488-1.849 5.28-.607 2.13-1.16 4.274-1.887 6.367-.748 2.236-1.5 4.47-2.233 6.71-.648 1.961-1.344 3.907-2.214 5.782-.683 1.526-1.231 3.108-1.97 4.608-.728 1.26-1.528 2.475-2.263 3.73l-.749-.342zM-154.423 507.845c.632-1.342 1.682-2.384 2.762-3.37 1.382-1.182 2.757-2.368 4.207-3.467 1.387-1.122 3-1.897 4.6-2.66a38.15 38.15 0 0 1 4.788-1.78c1.235-.318 2.472-.636 3.724-.879.285-.041.574-.1.864-.092.035 0 .087-.006.102.026.086.189.122.397.183.596l-.718-.353c.08.167.154.337.241.501.017.032.168.001.136.002-.173.006-.315.031-.491.054-1.232.226-2.445.55-3.661.848a37.365 37.365 0 0 0-4.7 1.725c-1.561.738-3.14 1.48-4.495 2.57-1.437 1.083-2.797 2.256-4.166 3.422-1.024.922-2.032 1.892-2.634 3.155l-.742-.298z" style="display:inline;opacity:1;fill:red;fill-opacity:1;stroke:none;stroke-width:.15000001;stroke-linecap:square;stroke-linejoin:miter;stroke-miterlimit:4;stroke-dasharray:none;stroke-opacity:.87843137" transform="translate(571.76 -372.906)"/><path d="M313.099 117.288c.602-1.232 1.917-2.39 2.595-3.58a184.08 184.08 0 0 0 3.199-5.827c1.167-2.223 2.389-4.514 3.557-6.736 1.261-2.398 2.286-5.107 3.452-7.552.836-1.752 1.867-3.588 2.55-5.085.287-.627.885-2.067 1.156-2.602l.817.317c-.361.681-.915 2.08-1.163 2.573-.73 1.451-1.745 3.331-2.589 5.085-1.177 2.444-2.201 5.157-3.46 7.562-1.163 2.224-2.384 4.513-3.55 6.736a224.477 224.477 0 0 1-3.19 5.844c-.662 1.182-1.966 2.332-2.535 3.564zM330.549 84.054c.962-1.961 1.985-3.893 3.006-5.824 1.141-2.112 2.303-4.214 3.382-6.36.996-2.033 2.214-4.099 3.238-6.12 1.102-2.118 2.365-4.148 3.642-6.164 1.208-1.918 2.405-3.842 3.64-5.743.874-1.362 1.685-2.766 2.573-4.12.533-.85 1.218-1.588 1.87-2.346.233-.289.48-.555.796-.75.297-.155.587-.324.923-.364.26.135.54.237.78.406.083.059.419 1.098.485 1.251l-.878-.075c-.108-.272-.192-.558-.317-.823a1.497 1.497 0 0 0-.1-.185c-.021-.035-.12-.103-.081-.091.213.065.412.17.618.255-.165-.236-.517.122-.72.168-.29.177-.54.372-.745.654-.656.735-1.334 1.46-1.866 2.294-.896 1.35-1.713 2.748-2.594 4.107-1.24 1.897-2.438 3.819-3.647 5.734-1.271 2.008-2.53 4.028-3.62 6.14-1.029 2.018-2.246 4.084-3.244 6.117-1.08 2.146-2.243 4.25-3.387 6.363-1.017 1.93-2.029 3.863-2.982 5.826z" style="display:inline;fill:red;fill-opacity:1;stroke:none;stroke-width:.22;stroke-miterlimit:4;stroke-dasharray:none;stroke-opacity:1"/><g style="display:inline"><path d="M-436.889 581.494h100.111M-436.147 590.244h100.11M-436 572.595h100.112" style="fill:none;fill-rule:evenodd;stroke:#72d678;stroke-width:.16;stroke-linecap:butt;stroke-linejoin:miter;stroke-miterlimit:4;stroke-dasharray:none;stroke-opacity:1" transform="translate(229.9 -399.306)"/><path d="M-436.889 581.494h100.111M-436.147 590.244h100.11M-436 572.595h100.112" style="fill:none;fill-rule:evenodd;stroke:#72d678;stroke-width:.16;stroke-linecap:butt;stroke-linejoin:miter;stroke-miterlimit:4;stroke-dasharray:none;stroke-opacity:1" transform="translate(593.205 -123.488)"/><path d="M-436.889 581.494h100.111M-436.147 590.244h100.11M-436 572.595h100.112" style="fill:none;fill-rule:evenodd;stroke:#72d678;stroke-width:.16;stroke-linecap:butt;stroke-linejoin:miter;stroke-miterlimit:4;stroke-dasharray:none;stroke-opacity:1" transform="translate(281.452 -56.303)"/><path d="M-436.889 581.494h100.111M-436.147 590.244h100.11M-436 572.595h100.112" style="fill:none;fill-rule:evenodd;stroke:#72d678;stroke-width:.16;stroke-linecap:butt;stroke-linejoin:miter;stroke-miterlimit:4;stroke-dasharray:none;stroke-opacity:1" transform="translate(181.54 -141.976)"/><path d="M-436.889 581.494h100.111M-436.147 590.244h100.11M-436 572.595h100.112" style="fill:none;fill-rule:evenodd;stroke:#72d678;stroke-width:.16;stroke-linecap:butt;stroke-linejoin:miter;stroke-miterlimit:4;stroke-dasharray:none;stroke-opacity:1" transform="translate(204.528 -85.468)"/><path d="M-285.132 495.844a2.04 2.04 0 1 0-4.08.003 2.04 2.04 0 0 0 4.08-.003zm0 0" style="display:inline;fill:#7035c7;fill-opacity:1;fill-rule:nonzero;stroke:#7035c7;stroke-width:.3985;stroke-linecap:butt;stroke-linejoin:miter;stroke-miterlimit:10;stroke-opacity:1" transform="translate(571.76 -372.906)"/><path d="M-257.069 490.743c0-1.13-.914-2.04-2.04-2.04a2.039 2.039 0 1 0 0 4.079c1.126 0 2.04-.91 2.04-2.04zm0 0" style="display:inline;fill:#21de8f;fill-opacity:1;fill-rule:nonzero;stroke:#21de8f;stroke-width:.3985;stroke-linecap:butt;stroke-linejoin:miter;stroke-miterlimit:10;stroke-opacity:1" transform="translate(571.76 -372.906)"/><path d="M-216.249 419.31c0-1.13-.914-2.04-2.043-2.04a2.041 2.041 0 1 0 2.043 2.04zm0 0" style="display:inline;fill:#9e2b87;fill-opacity:1;fill-rule:nonzero;stroke:#9e2b87;stroke-width:.3985;stroke-linecap:butt;stroke-linejoin:miter;stroke-miterlimit:10;stroke-opacity:1" transform="translate(571.76 -372.906)"/><path d="M-195.839 465.231a2.042 2.042 0 1 0-4.084-.002 2.042 2.042 0 0 0 4.084.002zm0 0" style="display:inline;fill:#ffca00;fill-opacity:1;fill-rule:nonzero;stroke:#ffca00;stroke-width:.3985;stroke-linecap:butt;stroke-linejoin:miter;stroke-miterlimit:10;stroke-opacity:1" transform="translate(571.76 -372.906)"/><path d="M-183.085 516.254c0-1.128-.914-2.039-2.039-2.039a2.042 2.042 0 1 0 2.04 2.04zm0 0" style="display:inline;fill:#a8d400;fill-opacity:1;fill-rule:nonzero;stroke:#a8d400;stroke-width:.3985;stroke-linecap:butt;stroke-linejoin:miter;stroke-miterlimit:10;stroke-opacity:1" transform="translate(571.76 -372.906)"/><path d="M-152.467 508.602a2.042 2.042 0 1 0-4.085-.001 2.042 2.042 0 0 0 4.085.001zm0 0" style="display:inline;fill:#deaa87;fill-opacity:1;fill-rule:nonzero;stroke:#deaa87;stroke-width:.3985;stroke-linecap:butt;stroke-linejoin:miter;stroke-miterlimit:10;stroke-opacity:1" transform="translate(571.76 -372.906)"/><path d="M-132.061 495.844a2.04 2.04 0 1 0-4.081.003 2.04 2.04 0 0 0 4.08-.003zm0 0" style="display:inline;fill:#5c516b;fill-opacity:1;fill-rule:nonzero;stroke:#5c516b;stroke-width:.3985;stroke-linecap:butt;stroke-linejoin:miter;stroke-miterlimit:10;stroke-opacity:1" transform="translate(571.76 -372.906)"/><path d="M-167.776 546.868a2.041 2.041 0 1 0-4.083.004 2.041 2.041 0 0 0 4.083-.004zm0 0" style="display:inline;fill:#7fe3ff;fill-opacity:1;fill-rule:nonzero;stroke:#7fe3ff;stroke-width:.3985;stroke-linecap:butt;stroke-linejoin:miter;stroke-miterlimit:10;stroke-opacity:1" transform="translate(571.76 -372.906)"/></g><path d="M332.54 84.643a2.041 2.041 0 1 0-4.083-.003 2.041 2.041 0 0 0 4.083.003zm0 0" style="display:inline;fill:#ffa8cc;fill-opacity:1;fill-rule:nonzero;stroke:#ffa8cc;stroke-width:.3985;stroke-linecap:butt;stroke-linejoin:miter;stroke-miterlimit:10;stroke-opacity:1"/><path d="M4.08-322.198c-3.361-1.913-6.127-4.747-7.432-8.464-1.132-3.226-.893-4.519-.972-7.897.279-1.447.439-2.923.837-4.343 1.29-4.592 3.793-8.777 7.086-12.215 2.918-3.045 3.98-3.439 7.458-5.66 5.154-2.679 10.786-4.211 16.592-3.29.513.081 1.006.258 1.51.388.846.125 2.511 1.379.188 1.059-.39-.054-1.122-.733-1.335-.906-.287-.393-.627-.751-.86-1.178-1.599-2.914-2.02-6.837-1.66-10.079.133-1.198.44-2.37.66-3.556.474-1.243.82-2.703 1.424-3.889 3.194-6.28 8.956-11.302 14.94-14.731 1.875-1.075 2.916-1.837 5.291-2.88 5.29-2.625 10.802-4.016 16.614-5.008 3.417-.583 7.583-.817 11.058-.645 2.03.101 4.044.347 6.066.56 7.527 1.382 14.827 4.21 20.95 8.915 3.656 2.81 4.233 3.839 7.123 7.246 1.878 2.656 3.45 5.512 4.09 8.728.071.362.258 1.704.007 2.23-.06.126-.236.15-.354.226-.366-.113-.778-.128-1.1-.337-.159-.105-.198-.338-.223-.528-.227-1.733 2.84-2.335 3.877-2.699 5.228-1.474 10.761-1.309 15.982.184 1.332.381 2.608.938 3.912 1.406 6.063 2.785 10.408 6.75 13.92 12.422 2.235 3.607 2.612 5.04 4.16 8.927 1.835 5.878 3.167 12.089 2 18.253-.712 3.751-1.467 4.74-3.11 8.122-.856 1.143-1.623 2.36-2.569 3.43-3.296 3.732-7.648 6.126-12.382 7.503-.84.244-1.703.399-2.555.599-.922.062-2.998.64-3.966.165-.518-.254.417-.511.613-.499.505.031.997.17 1.495.256.317.219.669.394.95.656 2.072 1.926 2.66 4.96 2.489 7.677-.058.925-.278 1.833-.416 2.75-1.355 4.488-3.716 8.183-7.451 11.074-3.337 2.582-5.535 4.075-8.75 5.711-1.656.76-3.562 1.82-5.528 2.504-6.5 2.264-8.373 2.995-17.984 4.545-3.535.39-5.466.578-8.038.608-1.793.05-4.23-.064-6.258-.251-5.059-.465-10.944-1.864-15.1-4.71-.441-.301-.799-.71-1.198-1.065-.146-.335-.393-.643-.44-1.006-.163-1.285 1.556-1.833 2.522-1.695.495.07.968.25 1.452.374.12.243.333.46.36.73.085.824-.467 1.694-.937 2.278-1.466 1.821-3.426 2.869-5.435 3.968-2.03.9-4.345 1.654-6.546 2.044-3.413.606-5.523.91-10.089.764-7.931-.512-10.502-1.834-14.828-4.108-3.535-2.155-4.823-3.594-7.614-6.31-1.966-2.377-2.764-3.725-3.368-4.935-1.51-2.835-2.282-5.159-2.896-7.133-1.485-6.606-1.854-9.325-1.39-16.098l.88.024c-.463 6.888-.107 9.07 1.375 16.12.667 2.293 1.475 4.076 2.642 6.554 1.22 2.437 2.12 3.351 3.516 5.098 2.22 2.242 3.991 4.15 7.4 6.067 4.762 2.557 6.331 3.232 13.6 4.105 4.621.11 6.895-.14 10.3-.714 2.191-.369 4.216-.903 6.239-1.785 2.03-1.088 3.925-2.048 5.436-3.847.385-.458.993-1.31.919-2.02-.023-.214-.217-.372-.326-.558-.002-.068.06-.187-.006-.204-.711-.189-2.57.104-2.408 1.224.048.329.283.6.425.9.395.34.72.903 1.185 1.136 6.154 3.085 11.431 4.335 18.411 4.538 2.263-.026 4.854-.01 6.714-.238 9.202-1.151 15.111-2.605 21.998-5.215 1.932-.732 3.585-1.642 5.198-2.482 3.172-1.759 4.967-3.027 7.766-5.167 3.753-2.87 6.073-6.437 7.456-10.91.137-.902.355-1.795.412-2.705.166-2.621-.393-5.632-2.465-7.442-.274-.239-.617-.384-.926-.576-.123-.304.04-.01-.505-.195-.05-.017-.052-.11-.104-.123-.103-.025-.423.02-.317.019 1.445-.01 1.044-.023 2.825-.266.848-.192 1.707-.34 2.544-.577 4.705-1.334 9.042-3.676 12.33-7.362.942-1.055 1.706-2.257 2.558-3.385 1.635-3.341 2.39-4.324 3.097-8.034 1.166-6.125-.173-12.298-2-18.135-1.545-3.858-1.925-5.292-4.155-8.868-3.508-5.628-7.846-9.54-13.887-12.274-1.3-.459-2.573-1.004-3.9-1.375-4.925-1.376-9.592-1.463-14.512-.124-.89.3-3.155.82-3.732 1.798-.924 1.567.6-.473.135.9-.047.136-.265.112-.397.168.092.013.23.12.277.039.259-.442.03-1.912-.013-2.124-.645-3.18-2.213-5.997-4.08-8.619-2.884-3.375-3.463-4.399-7.109-7.177-6.12-4.665-13.408-7.135-20.913-8.484-1.547-.177-3.126-.337-4.682-.412-3.586-.174-6.976-.15-10.515.443-5.8.97-11.424 2.256-16.705 4.868-2.146.923-3.69 1.831-5.563 2.898-5.948 3.387-11.785 8.354-14.977 14.58-.6 1.17-.945 2.456-1.418 3.684-.218 1.172-.523 2.332-.656 3.518-.353 3.168.05 7.078 1.654 9.913.23.406.566.742.849 1.113.244.184.472.393.734.552.175.106.492.046.565.237.054.138-.258.15-.4.19-.025.008.025-.06.005-.077-.371-.314-.847-.433-1.29-.605-.89-.213-2.002-.53-2.933-.559-4.815-.147-9.42 1.3-13.671 3.476-3.466 2.188-4.523 2.572-7.433 5.586-3.28 3.397-5.775 7.54-7.062 12.094-.396 1.402-.555 2.86-.833 4.29.08 3.33-.158 4.612.971 7.788 1.3 3.656 4.054 6.37 7.396 8.203 0 0 1.68.79 3.237 1.337 3.014.85 6.245 1.54 10.582 1.903.034.264.116.401-.08.706-3.839-.346-7-1-9.417-1.59-1.328-.404-3.014-.967-4.26-1.588-.43-.223-.823-.44-.823-.44z" style="opacity:1;fill:#000;fill-opacity:1;stroke:none;stroke-width:.15000001;stroke-linecap:square;stroke-linejoin:miter;stroke-miterlimit:4;stroke-dasharray:none;stroke-opacity:.87843137"/><path d="M493.416-21.73c-.124-.016-.665-.08-1.202-.145-3.983-.478-8.028-1.803-10.59-3.47-1.424-.925-2.238-1.724-2.712-2.66-.56-1.105-.537-2.483.059-3.602l.234-.439.834.044c.765.04.822.033.688-.075-.104-.084-.311-.118-.732-.118-.323 0-.587-.03-.587-.067 0-.138.835-.825 1.108-.912.434-.139.466-.222.084-.222-.403 0-.883.284-1.325.787-.283.321-.284.322-.657.263-1.318-.21-3.15-.923-4.403-1.715-1.123-.71-2.025-1.987-2.288-3.24-.162-.771-.104-2.209.123-3.08.825-3.157 3.316-5.708 6.63-6.79 1.54-.502 3.234-.555 3.79-.117.186.146.694.207.694.084 0-.105-.25-.297-.452-.348-.258-.064-.501-.444-.73-1.142-.276-.838-.322-2.252-.106-3.229.355-1.608 1.253-3.126 2.785-4.709 1.13-1.167 2.122-1.891 3.626-2.646 1.86-.934 4.363-1.671 6.459-1.902 1.044-.115 3.394-.1 4.49.03 1.535.182 3.372.685 4.81 1.318 1.763.776 3.287 1.866 4.432 3.171.956 1.09 1.524 2.007 1.876 3.03.178.516.184.659.035.782-.062.052-.112.204-.112.34 0 .259.096.336.419.336.165 0 .182-.03.182-.341 0-.324.014-.348.281-.46.155-.065.603-.203.995-.308.945-.251 2.755-.282 3.756-.064 1.276.279 2.574.832 3.68 1.57.783.523 2.117 1.886 2.695 2.754 1.637 2.458 2.623 5.958 2.405 8.528a7.258 7.258 0 0 1-.737 2.71c-.797 1.669-1.962 2.847-3.65 3.692-1.167.584-2.554.954-3.262.87-.361-.043-.393-.034-.369.096.02.1.103.15.285.167.313.03.808.36 1.085.723.504.661.66 1.414.465 2.248-.485 2.07-2.77 4.029-5.632 4.828-.566.158-.903.197-1.96.23-1.104.033-1.393.017-2.123-.123-1.662-.318-2.883-.862-3.221-1.433-.074-.124-.193-.226-.265-.226-.118 0-.127.06-.086.588.042.556.031.616-.203 1.108-.286.6-.813 1.154-1.483 1.561-1.239.753-3.836 1.477-6.09 1.699-.722.07-3.519.089-4.028.026z" style="opacity:1;fill:#d5f6ff;fill-opacity:1;stroke:#d5f6ff;stroke-width:.03887291;stroke-linecap:square;stroke-linejoin:miter;stroke-miterlimit:4;stroke-dasharray:none;stroke-opacity:1"/><use xlink:href="#ab" width="100%" height="100%" x="287.114" y="146.72" style="fill:#000;fill-opacity:1" transform="matrix(.92498 0 0 .92498 218.21 -173.376)"/><use xlink:href="#ac" width="100%" height="100%" x="293.751" y="146.72" style="fill:#000;fill-opacity:1" transform="matrix(.92498 0 0 .92498 219.09 -173.376)"/><use xlink:href="#ad" width="100%" height="100%" x="305.2" y="146.72" style="fill:#000;fill-opacity:1" transform="matrix(.92498 0 0 .92498 218.562 -173.376)"/><use xlink:href="#ae" width="100%" height="100%" x="309.424" y="142.605" style="fill:#000;fill-opacity:1" transform="matrix(.92498 0 0 .92498 218.738 -173.376)"/><use xlink:href="#af" width="100%" height="100%" x="311.95" y="146.72" style="fill:#000;fill-opacity:1" transform="matrix(.92498 0 0 .92498 217.504 -173.376)"/><use xlink:href="#ag" width="100%" height="100%" x="315.815" y="146.72" style="fill:#000;fill-opacity:1" transform="matrix(.92498 0 0 .92498 217.504 -173.376)"/><use xlink:href="#ah" width="100%" height="100%" x="320.268" y="146.72" style="fill:#000;fill-opacity:1" transform="matrix(.92498 0 0 .92498 217.504 -173.376)"/><path d="M451.928-16.366a3.158 3.158 0 0 0-.242-.03c-.296-.031-.823-.158-.985-.238-.18-.088-.49-.398-.586-.586a1.029 1.029 0 0 1-.132-.406c-.07-.495.236-1.222.782-1.857.123-.143.4-.375.621-.52.164-.108.605-.341.703-.372l.045-.014-.033.075c-.06.141-.06.144.024.1.07-.037.098-.039.413-.029.315.01.36.017.633.088.318.084.416.126.656.284.575.378.934.902.97 1.416.016.213-.015.36-.13.613a2.36 2.36 0 0 1-1.055 1.073c-.308.155-1.165.388-1.48.402a1.34 1.34 0 0 1-.204 0h0z" style="opacity:1;fill:#d5f6ff;fill-opacity:1;stroke:#d5f6ff;stroke-width:.2332375;stroke-linecap:square;stroke-linejoin:miter;stroke-miterlimit:4;stroke-dasharray:none;stroke-opacity:1"/><path d="M464.34-18.235c-.39-.03-.843-.14-1.322-.32-.555-.211-.567-.218-.95-.607l-.339-.343-.15-.328c-.178-.391-.22-.507-.257-.724-.198-1.131.264-2.31 1.346-3.435.112-.116.283-.282.38-.368.153-.137.19-.16.3-.19l.126-.033.338.068c.53.106.977.24 1.237.371.689.346 1.463.92 2.094 1.552.322.323.501.547.7.875.322.532.44 1.005.355 1.432-.043.217-.128.384-.35.683-.163.222-.21.27-.421.434-.413.322-.548.398-1.045.584-.545.203-1.014.315-1.47.35a2.492 2.492 0 0 1-.572 0h0z" style="opacity:1;fill:#d5f6ff;fill-opacity:1;stroke:#d5f6ff;stroke-width:.19436458;stroke-linecap:square;stroke-linejoin:miter;stroke-miterlimit:4;stroke-dasharray:none;stroke-opacity:1"/><path d="M474.312-33.713c-1.12-.637-2.041-1.581-2.476-2.82-.377-1.075-.297-1.505-.324-2.63.093-.483.146-.975.28-1.448.429-1.53 1.263-2.924 2.36-4.07.972-1.014 1.326-1.146 2.485-1.886 1.717-.892 3.594-1.403 5.528-1.096.171.027.335.086.503.13.282.041.837.459.063.352-.13-.018-.374-.244-.445-.302-.095-.13-.209-.25-.286-.392-.533-.971-.673-2.278-.553-3.358.044-.4.146-.79.22-1.185.158-.414.273-.847.474-1.243 1.064-2.092 2.888-4.005 4.844-5.241.61-.385 1.19-.63 1.91-.986 1.603-.716 3.028-1.101 4.963-1.442 1.35-.221 3.086-.233 4.244-.175a16.97 16.97 0 0 1 2.008.2c2.508.46 4.953 1.429 6.993 2.997 1.219.936 1.41 1.279 2.374 2.414.625.885 1.15 1.836 1.362 2.908.024.12.086.568.003.743-.02.042-.079.05-.118.075-.122-.037-.26-.042-.366-.112-.053-.035-.066-.113-.075-.176-.075-.577.947-.778 1.292-.9 1.742-.49 3.585-.435 5.325.062.444.127.869.313 1.303.469 2.02.927 3.468 2.249 4.639 4.138.744 1.202.87 1.68 1.386 2.975.611 1.958 1.055 4.028.666 6.082-.237 1.25-.489 1.579-1.036 2.706-.286.38-.541.786-.856 1.143-1.099 1.243-2.549 2.04-4.126 2.5-.28.081-.567.133-.851.2-.307.02-1 .212-1.321.054-.173-.084.138-.17.204-.166.168.01.332.057.498.085.105.073.223.131.317.219-.26.065-.144.031-.26.065-.09-.08-.205-.128-.308-.192-.04-.102.013-.004-.168-.065-.017-.006-.017-.037-.035-.041-.034-.008-.14.006-.105.006.481-.003.348-.007.94-.088.284-.064.57-.114.849-.193 1.567-.444 3.012-1.224 4.108-2.453.314-.351.568-.751.852-1.127.545-1.114.797-1.441 1.032-2.677.389-2.041-.057-4.098-.667-6.043-.514-1.285-.64-1.763-1.384-2.955-1.168-1.875-2.614-3.178-4.627-4.09-.433-.152-.857-.334-1.3-.457-1.64-.459-3.195-.488-4.835-.041-.296.1-1.05.273-1.243.599-.308.522.2-.158.045.3-.015.045-.088.037-.132.056.03.004.076.04.092.012.086-.147.01-.636-.004-.707-.215-1.06-.737-1.999-1.36-2.872-.96-1.125-1.153-1.466-2.368-2.391-2.04-1.555-4.468-2.418-6.968-2.867-.516-.06-1.028-.14-1.547-.164-1.195-.058-3.044-.063-4.223.134-1.933.324-3.367.735-4.993 1.422a15.71 15.71 0 0 0-2.106 1.1c-1.784 1.09-3.54 2.93-4.604 5.003-.2.39-.315.819-.473 1.228-.072.39-.174.777-.218 1.172-.118 1.056.016 2.359.55 3.303.077.135.19.247.284.371.081.061.157.13.244.184.058.035.164.015.189.079.017.046-.086.05-.134.064-.008.002.008-.02.002-.026-.123-.105-.282-.144-.43-.202-.296-.071-.667-.177-.977-.186-1.604-.05-3.138.433-4.555 1.158-1.155.73-1.507.857-2.476 1.861-1.093 1.132-1.925 2.513-2.353 4.03-.132.467-.185.953-.278 1.43.027 1.109-.053 1.536.324 2.594.433 1.218 1.35 2.149 2.464 2.76l-.254.082z" style="opacity:1;fill:#000;fill-opacity:1;stroke:#000;stroke-width:.15000001;stroke-linecap:square;stroke-linejoin:miter;stroke-miterlimit:4;stroke-dasharray:none;stroke-opacity:1"/><path d="M474.274-33.957c.294.176-.07-.039.303.173.26.147.19.12.481.265.223.11.49.226.715.327.87.386 1.78.693 2.718.866.203.037.408.062.611.092.491.073.987.083 1.482.101l.226.141h0a19.356 19.356 0 0 1-1.955-.143c-.205-.032-.41-.059-.614-.097a12.45 12.45 0 0 1-2.723-.882c-.252-.114-.471-.209-.716-.332-.266-.134-.518-.294-.783-.432l.255-.079z" style="opacity:1;fill:#000;fill-opacity:1;stroke:#000;stroke-width:.15000001;stroke-linecap:square;stroke-linejoin:miter;stroke-miterlimit:4;stroke-dasharray:none;stroke-opacity:1"/><path d="M516.682-33.24c.132.014.265.015.395.04.073.014.142.046.21.075.255.109.5.266.71.447.077.066.146.141.218.212.328.381.558.83.635 1.336.064.425.055.624-.003 1.056-.052.18-.117.404-.182.58-.433 1.044-.756 1.419-1.433 2.18-.208.193-.54.46-.757.643-.992.778-1.96 1.21-3.077 1.605-.898.246-1.492.338-2.271.378-.338.004-.677.018-1.015 0a11.646 11.646 0 0 1-3.705-.833c-.2-.08-.389-.19-.594-.326-.34-.274-.31-.3-.403-.378-.1.033.085-.302.007-.245.019.076.007-.076.051.091.097.484.068.85-.123 1.306-.16.38-.297.543-.526.875-.126.135-.24.281-.378.404-.849.757-2.097 1.198-3.17 1.508-.409.118-.826.211-1.239.317a21.267 21.267 0 0 1-5.83.453c-1.541-.09-1.942-.175-3.423-.384-2.036-.351-4.055-.846-5.983-1.598-1.158-.451-1.429-.622-2.528-1.179-.374-.226-.758-.436-1.12-.68-.34-.227-.669-.47-.984-.731-.588-.487-1.01-.902-1.398-1.562-.43-.732-.413-.95-.585-1.75.011-.296-.007-.594.035-.888a4.56 4.56 0 0 1 .957-2.162c.315-.396.426-.446.803-.73.155-.079.36-.213.55-.22.132-.005.263.024.394.035l-.247.1h0c.03-.004.119-.018.09-.011-.392.086-.075-.03-.536.187-.127.093-.264.173-.382.277a4.288 4.288 0 0 0-1.363 2.544c-.042.286-.023.578-.035.867.173.785.155.997.583 1.715.386.646.814 1.061 1.394 1.537.314.258.643.5.981.725.362.24.746.449 1.119.673 1.102.555 1.365.72 2.525 1.169 1.927.746 3.943 1.236 5.977 1.582 1.138.158 1.826.28 2.95.343 1.95.11 3.91-.009 5.819-.433 1-.252 1.363-.315 2.308-.659.74-.268 1.484-.6 2.083-1.123.136-.119.303-.287.428-.418.225-.32.35-.458.507-.825.19-.443.24-.76.127-1.226a1.276 1.276 0 0 0-.085-.292c.137-.033.09-.02.259-.03.181.328.243.394.633.71.197.086.405.27.605.349.803.314 1.627.514 2.477.658.247.041.496.068.746.08.337.017.647.01.984.008.605-.014 1.27-.048 2.13-.295 1.207-.348 2.29-.862 3.28-1.631.215-.181.48-.405.687-.596a5.412 5.412 0 0 0 1.464-2.167c.064-.172.116-.458.167-.634.057-.417.065-.533.002-.944-.077-.491-.32-.925-.644-1.29-.071-.068-.14-.14-.215-.203a3.766 3.766 0 0 0-.472-.317c-.074-.04-.154-.069-.231-.104-.068-.02-.14-.029-.204-.06-.024-.012.052-.001.078-.002l-.227-.139z" style="opacity:1;fill:#000;fill-opacity:1;stroke:#000;stroke-width:.15040001;stroke-linecap:square;stroke-linejoin:miter;stroke-miterlimit:4;stroke-dasharray:none;stroke-opacity:1"/><path d="M463.62-24.855c-1.32 1.024-2.655 2.561-2.294 4.383.07.349.27.658.406.986.251.248.462.525.754.723 1.545.689 2.57.77 4.305.025.333-.143.585-.39.877-.603.166-.256.404-.477.497-.767.21-.66-.073-1.255-.424-1.793-.448-.687-1.21-1.285-1.866-1.765-.32-.234-.58-.357-.956-.564-.446-.134-.68-.227-1.416-.355l.285-.263-.058-.02c.939.176.49.042 1.564.453.34.213.697.42 1.018.658.657.49 1.335 1.13 1.776 1.83.364.58.632 1.204.415 1.9-.095.303-.339.537-.508.805-.296.223-.564.49-.889.669-1.463.804-3.562.873-4.962-.128-.296-.212-.506-.523-.759-.784-.135-.343-.337-.666-.406-1.027-.355-1.874.963-3.418 2.316-4.485zM453.318-20.786c-.91.235-1.871.56-2.532 1.266-.15.159-.269.343-.403.514-.399.688-.686 1.464-.038 2.11.352.35.477.334 1.085.478.228.023.454.068.683.068.11 0 .217-.022.325-.049.691-.17 1.22-.259 1.75-.76.15-.142.263-.316.394-.474.071-.176.182-.34.213-.527.14-.841-.567-1.536-1.245-1.888-.169-.087-.451-.117-.629-.185-.53-.026-.695-.082-.866.051l.147-.334c.832.029.451-.03 1.147.138.18.076.368.133.538.228.716.399 1.397 1.165 1.25 2.051-.033.198-.147.373-.22.56-.134.166-.249.348-.401.497-.986.96-2.104 1.097-3.416.867-.468-.188-.747-.237-1.1-.622-.643-.7-.37-1.569.047-2.3.137-.177.258-.367.409-.532.666-.73 1.632-1.067 2.559-1.326l.303.17z" style="opacity:1;fill:#000;fill-opacity:1;stroke:none;stroke-width:.15000001;stroke-linecap:square;stroke-linejoin:miter;stroke-miterlimit:4;stroke-dasharray:none;stroke-opacity:.87843137"/><text xml:space="preserve" x="-163.153" y="95.935" style="font-style:italic;font-variant:normal;font-weight:400;font-stretch:normal;font-size:40.00000381px;line-height:125%;font-family:Baskerville;-inkscape-font-specification:&quot;Baskerville, Italic&quot;;text-align:start;letter-spacing:0;word-spacing:0;writing-mode:lr-tb;text-anchor:start;fill:#000;fill-opacity:1;stroke:none;stroke-width:1px;stroke-linecap:butt;stroke-linejoin:miter;stroke-opacity:1" transform="rotate(-90)"><tspan x="-163.153" y="95.935" style="font-style:italic;font-variant:normal;font-weight:400;font-stretch:normal;font-size:13.00000095px;font-family:Baskerville;-inkscape-font-specification:&quot;Baskerville Italic&quot;">(step 3: interpolate)</tspan></text></svg>