<svg xmlns="http://www.w3.org/2000/svg" width="900" height="700" viewBox="0 0 675 525"><defs><clipPath id="b"><path d="M0 0h218.076v602.916H0Z"/></clipPath><clipPath id="a"><path d="M0 0h218.076v602.916H0Z"/></clipPath></defs><g style="display:inline"><path d="M54.086 287.111c-3.447-1.758-5.716-5.206-7.374-8.59-3.127-6.382-3.406-13.937-1.837-20.786 1.845-8.06 6.49-15.804 15.428-18.576 3.863-1.198 7.66-1.315 11.272.464 4.35 2.141 8.004 5.13 10.555 9.1 2.173 3.381 4.07 7.206 4.679 11.18 1.103 7.206.133 14.248-3.175 20.089-2.693 4.756-6.65 8.587-12.195 9.747-4.363.913-9.067.43-12.905-1.693a8.784 8.784 0 0 1-1.58-1.149M14.136 269.615c-1.148-.582-2.7-2.484-3.273-3.37-.836-1.295-1.136-2.828-1.293-4.287-.205-1.919.175-4.094.85-5.68.447-1.049 1.13-2.092 1.91-3.055.425-.523.605-.692 1.112-1.168.834-.782 1.896-1.455 3.228-1.792a7.36 7.36 0 0 1 .706-.141c.973-.146 1.985-.122 2.893.147.636.189.981.378 1.533.673a8.737 8.737 0 0 1 3.536 3.446c.19.334.35.675.51 1.018.853 1.827 1.257 3.767 1.345 5.705.018.381.003.764.006 1.147-.066 1.414-.343 2.829-.957 4.195-.35.779-.494.947-.965 1.681-.771 1.083-1.802 2.1-3.31 2.757-.237.103-.494.183-.741.274-1.41.417-2.652.408-4.079.166-.993-.196-2.647-.887-2.742-.932-.289-.14-.754-.449-.891-.59M151.622 403.525c-1.429 3.726-7.597-.079-10.233-1.727-8.882-5.554-16.487-15.416-20.526-25.316-6.396-15.672-5.766-33.228-.167-49.192 1.963-5.596 7.308-14.016 13.372-18.516 2.883-2.14 9.194-4.647 9.26-2.411-3.54 2.917-13.426 1.147-19.374-3.655-10.295-8.311-14.804-20.959-16.006-33.113-1.346-13.617-.087-29.06 4.599-42.045 4.145-11.487 11.323-22.289 20.528-28.34 4.643-3.052 12.224-5.739 12.266-2.896.025 1.731-4.243-.26-7.95-2.8-9.692-6.646-14.21-15.917-16.259-25.78-2.258-12.237-.628-25.69 5.615-36.893 4.618-8.287 12.84-16.622 22.913-20.641.898-.358 6.392-1.654 6.105-.407-.582 2.528-8.116-2.478-10.488-5.063-6.074-6.618-7.438-14.183-6.425-22.43.988-8.05 7.057-20.732 14.125-27.817 10.115-10.139 21.767-15.319 36.69-15.776 7.368-.226 18.547 1.727 25.195 6.127 5.909 3.912 8.653 8.313 6.189 7.619-2.731-.77-.865-5.777.204-7.913 1.43-2.86 8.083-9.68 16.87-12.448 11.046-3.478 25.344-3.705 36.406-.623 8.923 2.486 17.377 7.785 22.028 13.33 1.086 1.294 2.71 4.675.639 4.58-2.289.387-1.773-3.038.337-6.756 4.204-7.406 13.178-14.589 21.91-18.396 17.669-7.703 36.715-9.619 55.34-7.996 15.151 1.32 31.53 7.276 40.29 16.684 5.181 5.563 9.363 14.947 5.556 15.647-1.919-.884.88-6.381 4.776-10.52 8.517-9.052 22.336-15.4 34.553-18.307 19.339-4.6 39.419-1.014 56.073 7.887 5.838 3.12 14.02 10.497 17.587 18.037 1.697 3.586 2.946 11.076.754 10.451-1.278-1.452 2.032-5.463 4.364-7.206 7.83-5.85 18.101-7.022 27.582-6.668 11.268.422 22.397 4.069 31.613 10.76 11.364 8.248 19.749 21.647 19.688 36.52-.026 6.433-3.412 13.321-7.824 16.05-1.797 1.11-4.514 1.708-4.67.021-.286-3.106 6.976.083 10.797 3.693 5.265 4.975 9.425 11.493 11.689 17.353 4.922 12.747 6.442 27.62 6.078 41.35-.402 15.132-5.68 31.21-17.404 40.993-3.157 2.634-7.793 5.5-11.59 3.48-.189-4.363 11.543 2.559 16.573 7.2 10.78 9.943 16.232 23.992 18.239 38.224 2.562 18.177.589 36.755-10.107 51.494-3.404 4.691-7.644 9.003-13.65 10.795-3.773 1.127-5.863.397-5.91-.352-.077-1.246 3.563.321 6.995 2.46 10.129 6.31 17.012 18.036 19.87 29.104 3.66 14.167 3.055 29.754-3.305 43.347-3.566 7.62-9.116 13.749-14.61 17.705-4.144 2.984-8.906 5.334-14.124 6.137-1.23.19-3.298.18-3.002-1.177.582-2.666 8.138 2.94 11.092 5.99 5.845 6.035 8.316 15.027 5.943 23.248-3.608 12.5-14.644 20.763-25.692 26.295-13.559 6.79-28.653 10.553-43.743 11.448-12.954.767-26.517.85-38.751-3.942-3.76-1.472-7.754-4.108-10.252-7.47-1.077-1.451-2.23-5.309-.768-6.152 3.862-.27-2.244 9.11-6.953 13.877-10.091 10.217-22.978 15.354-37.064 16.93-17.99 2.015-37.365-.185-51.613-10.968-4.535-3.432-8.673-7.667-10.281-13.55-1.01-3.699-.236-4.892.472-4.997 4.648-.212-4.678 9.935-12.683 14.305-17.568 9.59-37.186 12.696-59.456 10.451-14.547-1.466-26.016-5.479-35.126-11.085-5.824-3.584-12.503-9.445-12.374-17.003 3.444.27 3.043 4.189 3.048 6.178.014 4.85-3.172 9.018-7.508 12.488-13.534 10.83-39.33 6.903-55.535-1.832-8.196-4.417-18.158-14.345-14.54-15.732 2.606 2.46.274 6.918-1.756 9.079-5.977 6.361-15.427 6.934-23.481 5.52-17.245-3.026-33.39-14.069-41.614-30.278-4.733-9.33-4.885-20.84-.696-30.42 3.369-7.704 9.582-14.626 17.574-16.884.617-.174 1.654-.052 1.713.636M-498.183 637.82c2.756 2.338.425 6.797-1.605 8.958-5.977 6.361-15.428 6.934-23.481 5.52-17.246-3.026-33.39-14.069-41.614-30.278-4.734-9.33-4.885-20.84-.696-30.42 3.368-7.704 9.582-14.626 17.574-16.884.617-.174 1.653-.052 1.712.636-1.428 3.726-7.597-.079-10.232-1.727-8.882-5.554-16.487-15.416-20.527-25.316-6.395-15.672-5.766-33.228-.167-49.192 1.963-5.596 7.309-14.016 13.372-18.516 2.884-2.14 9.195-4.647 9.26-2.411-3.54 2.917-13.426 1.147-19.373-3.655-10.295-8.311-14.804-20.959-16.006-33.113-1.347-13.618-.088-29.06 4.598-42.045 4.145-11.487 11.324-22.289 20.528-28.34 4.643-3.052 12.224-5.74 12.266-2.896.026 1.73-4.243-.26-7.949-2.8-9.692-6.646-14.21-15.917-16.26-25.78-2.258-12.237-.628-25.69 5.616-36.893 4.618-8.287 12.84-16.622 22.912-20.641.898-.358 6.393-1.654 6.106-.407-.582 2.528-8.116-2.478-10.489-5.063-6.073-6.618-7.437-14.183-6.425-22.43.989-8.05 7.058-20.732 14.126-27.817 10.115-10.139 21.767-15.319 36.69-15.776 7.368-.226 18.056 2.29 22.945 5.94 4.934 3.684 7.143 8.533 4.622 7.805" style="display:inline;fill:#fff9f3;fill-opacity:1;stroke:#000;stroke-width:.675;stroke-linecap:butt;stroke-linejoin:miter;stroke-miterlimit:6;stroke-dasharray:none;stroke-dashoffset:0;stroke-opacity:1"/><path d="M-435.941 630.968c2.892.164 2.626 3.445 2.667 5.107.099 4.05-2.497 7.59-6.07 10.565-11.152 9.289-32.746 11.17-46.49 4.165-6.95-3.543-15.48-11.657-12.349-12.984" style="display:inline;fill:#fff9f3;fill-opacity:1;stroke:#000;stroke-width:.675;stroke-linecap:butt;stroke-linejoin:miter;stroke-miterlimit:6;stroke-dasharray:none;stroke-dashoffset:0;stroke-opacity:1"/><path d="M-334.549 637c4.1.743-5.893 8.385-11.306 11.481-14.555 8.326-32.177 8.907-48.463 6.794-10.782-1.604-21.564-4.656-30.943-10.326-4.837-3.068-10.652-7.665-10.68-13.98M-163.186 227.606c-1.632-1.121 1.677-5.132 4.01-6.875 7.83-5.85 18.1-7.022 27.581-6.668 11.268.422 22.397 4.069 31.614 10.759 11.364 8.249 19.748 21.648 19.688 36.522-.026 6.432-3.413 13.32-7.824 16.048-1.797 1.111-4.514 1.71-4.67.022-.286-3.107 6.975.083 10.797 3.693 5.265 4.974 9.425 11.493 11.688 17.353 4.923 12.747 6.443 27.62 6.078 41.35-.401 15.132-5.68 31.21-17.404 40.993-3.156 2.634-7.792 5.499-11.59 3.48-.188-4.363 11.544 2.559 16.574 7.199 10.779 9.944 16.232 23.993 18.238 38.225 2.562 18.177.59 36.755-10.106 51.494-3.405 4.691-7.644 9.002-13.65 10.795-3.774 1.127-5.864.397-5.91-.352-.077-1.246 3.563.321 6.995 2.46 10.129 6.31 17.011 18.036 19.87 29.104 3.66 14.167 3.054 29.754-3.305 43.347-3.566 7.62-9.117 13.749-14.61 17.705-4.145 2.984-8.907 5.334-14.124 6.137-1.23.19-3.299.18-3.003-1.177.583-2.666 8.14 2.94 11.093 5.99 5.845 6.035 8.316 15.027 5.943 23.248-3.609 12.5-14.645 20.763-25.692 26.295-13.56 6.79-28.653 10.553-43.744 11.448-12.953.767-26.516.85-38.75-3.942-5.057-1.98-11.544-5.527-11.42-11.75.036-1.764 1.293-3.544 2.686-3.508M-410.968 221.398c-1.59.545-3.114-2.689-1.688-6.2 2.842-6.992 10.083-13.597 17.528-17.192 15.066-7.273 34.609-9.26 51.789-7.727 13.975 1.247 28.929 6.34 38.066 15.753 5.282 5.442 10.04 16.769 5.51 21.13-.327.316-.842 1.129-1.84.444" style="display:inline;fill:#fff9f3;fill-opacity:1;stroke:#000;stroke-width:.675;stroke-linecap:butt;stroke-linejoin:miter;stroke-miterlimit:6;stroke-dasharray:none;stroke-dashoffset:0;stroke-opacity:1"/><path d="M-480.68 224.28c-2.555-.738-.847-5.777.127-7.913 1.302-2.86 7.361-9.68 15.364-12.448 10.06-3.478 23.083-3.705 33.158-.623 8.127 2.486 15.827 7.785 20.063 13.33.989 1.294 2.468 4.675 1 4.772M23.473-249.423c-3.54 2.917-13.426 1.147-19.374-3.655-10.294-8.311-14.803-20.959-16.005-33.112-1.347-13.618-.088-29.06 4.598-42.046 4.145-11.487 11.323-22.289 20.528-28.34 4.643-3.052 12.224-5.739 12.266-2.896.026 1.731-4.243-.26-7.949-2.8-9.692-6.646-14.21-15.916-16.26-25.78-2.258-12.237-.628-25.69 5.616-36.893 4.618-8.287 12.84-16.622 22.912-20.641.898-.358 6.392-1.654 6.105-.407-.582 2.528-8.115-2.478-10.488-5.063-6.073-6.618-7.437-14.183-6.425-22.43.989-8.05 7.057-20.732 14.126-27.817 10.115-10.139 21.767-15.318 36.689-15.776 7.369-.226 18.548 1.727 25.195 6.127 5.91 3.912 8.644 8.346 6.123 7.619" style="display:inline;fill:#fff9f3;fill-opacity:1;stroke:#000;stroke-width:.675;stroke-linecap:butt;stroke-linejoin:miter;stroke-miterlimit:6;stroke-dasharray:none;stroke-dashoffset:0;stroke-opacity:1"/><path d="M31.767-152.26c-1.429 3.725-7.597-.08-10.233-1.728-8.882-5.554-16.486-15.416-20.526-25.316-6.395-15.672-5.766-33.228-.167-49.192 1.963-5.596 7.308-14.016 13.372-18.516 2.883-2.14 9.194-4.647 9.26-2.411" style="display:inline;fill:#fff9f3;fill-opacity:1;stroke:#000;stroke-width:.675;stroke-linecap:butt;stroke-linejoin:miter;stroke-miterlimit:6;stroke-dasharray:none;stroke-dashoffset:0;stroke-opacity:1"/><path d="M79.877-89.792c2.756 2.337.425 6.796-1.605 8.957-5.977 6.361-15.428 6.934-23.482 5.52-17.245-3.026-33.39-14.069-41.613-30.278-4.734-9.33-4.886-20.84-.696-30.42 3.368-7.704 9.582-14.625 17.574-16.884.617-.174 1.653-.052 1.712.636" style="display:inline;fill:none;fill-opacity:1;stroke:#000;stroke-width:.675;stroke-linecap:butt;stroke-linejoin:miter;stroke-miterlimit:6;stroke-dasharray:none;stroke-dashoffset:0;stroke-opacity:1"/><path d="M154.562-91.016c3.444.27 3.043 4.189 3.049 6.178.013 4.85-3.173 9.018-7.509 12.488-13.534 10.83-39.329 6.903-55.535-1.832-8.195-4.417-18.158-14.345-14.39-15.853" style="display:inline;fill:none;fill-opacity:1;stroke:#000;stroke-width:.675;stroke-linecap:butt;stroke-linejoin:miter;stroke-miterlimit:6;stroke-dasharray:none;stroke-dashoffset:0;stroke-opacity:1"/><path d="M274.168-87.764c4.682-.132-4.645 10.016-12.65 14.385-17.567 9.59-37.186 12.696-59.455 10.451-14.548-1.466-26.017-5.479-35.126-11.085-5.825-3.584-12.503-9.445-12.375-17.003M489.988-235.969c-.078-1.246 3.562.321 6.994 2.46 10.13 6.31 17.012 18.036 19.871 29.104 3.66 14.167 3.054 29.754-3.306 43.347-3.565 7.62-9.116 13.749-14.61 17.705-4.144 2.984-8.906 5.334-14.124 6.137-1.23.19-3.298.18-3.002-1.177.582-2.666 8.139 2.94 11.092 5.99 5.845 6.035 8.316 15.027 5.943 23.248-3.608 12.5-14.644 20.763-25.692 26.295-13.558 6.79-28.653 10.554-43.743 11.448-12.953.767-26.517.85-38.75-3.942-3.76-1.472-7.755-4.108-10.252-7.47-1.078-1.45-2.23-5.309-.793-6.155" style="display:inline;fill:none;fill-opacity:1;stroke:#000;stroke-width:.675;stroke-linecap:butt;stroke-linejoin:miter;stroke-miterlimit:6;stroke-dasharray:none;stroke-dashoffset:0;stroke-opacity:1"/><path d="M484.842-343.33c-.188-4.363 11.544 2.559 16.574 7.2 10.779 9.943 16.232 23.992 18.238 38.224 2.562 18.177.59 36.755-10.106 51.494-3.405 4.691-7.645 9.003-13.65 10.795-3.774 1.127-5.864.397-5.91-.352" style="display:inline;fill:#fff9f3;fill-opacity:1;stroke:#000;stroke-width:.675;stroke-linecap:butt;stroke-linejoin:miter;stroke-miterlimit:6;stroke-dasharray:none;stroke-dashoffset:0;stroke-opacity:1"/><path d="M485.273-450.199c-.286-3.106 6.975.083 10.797 3.694 5.264 4.974 9.425 11.492 11.688 17.353 4.923 12.746 6.443 27.62 6.078 41.349-.401 15.132-5.68 31.21-17.404 40.993-3.157 2.634-7.792 5.5-11.59 3.48" style="display:inline;fill:none;fill-opacity:1;stroke:#000;stroke-width:.675;stroke-linecap:butt;stroke-linejoin:miter;stroke-miterlimit:6;stroke-dasharray:none;stroke-dashoffset:0;stroke-opacity:1"/><path d="M414.874-500.007c-1.633-1.121 1.677-5.132 4.01-6.875 7.83-5.849 18.1-7.022 27.581-6.668 11.268.422 22.397 4.069 31.614 10.76 11.364 8.248 19.748 21.647 19.688 36.52-.027 6.433-3.413 13.321-7.825 16.05-1.796 1.11-4.513 1.708-4.669.021" style="display:inline;fill:none;fill-opacity:1;stroke:#000;stroke-width:.675;stroke-linecap:butt;stroke-linejoin:miter;stroke-miterlimit:6;stroke-dasharray:none;stroke-dashoffset:0;stroke-opacity:1"/><path d="M175.853-506.597c-1.83.577-3.002-2.848-.891-6.566 4.204-7.406 13.178-14.401 21.91-18.208 17.669-7.704 39.434-9.807 58.059-8.184 15.15 1.32 31.53 7.276 40.29 16.684 5.18 5.563 9.362 14.947 5.4 15.63" style="display:inline;fill:#fff9f3;fill-opacity:1;stroke:#000;stroke-width:.675;stroke-linecap:butt;stroke-linejoin:miter;stroke-miterlimit:6;stroke-dasharray:none;stroke-dashoffset:0;stroke-opacity:1"/><path d="M101.262-503.333c-2.806-.738-.93-5.777.138-7.913 1.43-2.86 8.083-9.68 16.87-12.447 11.046-3.48 25.344-3.706 36.406-.624 8.923 2.486 17.377 7.786 22.028 13.33 1.086 1.294 2.71 4.675 1.098 4.772" style="display:inline;fill:#fff9f3;fill-opacity:1;stroke:#000;stroke-width:.675;stroke-linecap:butt;stroke-linejoin:miter;stroke-miterlimit:6;stroke-dasharray:none;stroke-dashoffset:0;stroke-opacity:1"/><path d="M379.664-88.972c3.839-.274-2.267 9.106-6.976 13.873-10.092 10.217-22.98 15.354-37.064 16.931-17.991 2.014-37.366-.186-51.614-10.969-4.535-3.432-8.673-7.666-10.28-13.55-1.011-3.699-.236-4.892.504-4.918M300.932-507.207c-2.074-.901.725-6.398 4.62-10.538 8.518-9.05 22.337-15.4 34.553-18.306 19.34-4.6 39.42-1.014 56.073 7.887 5.838 3.12 14.021 10.498 17.588 18.037 1.696 3.586 2.946 11.076.4 10.783" style="display:inline;fill:none;fill-opacity:1;stroke:#000;stroke-width:.675;stroke-linecap:butt;stroke-linejoin:miter;stroke-miterlimit:6;stroke-dasharray:none;stroke-dashoffset:0;stroke-opacity:1"/></g><path d="M-12.83-12.83h243.736v673.476H-12.83Z" class="polaroid-card-background" style="fill:#fff;stroke:#000;stroke-width:.5;stroke-dasharray:none" transform="translate(176.247 83.942) scale(.5625)"/><path fill="#fafafa" d="M176.247 83.942h122.668v339.14H176.247Z"/><path d="M12.828 602.916V320.665m0-16.748V0M44.898 602.916V0M76.968 602.916V0M109.038 602.916V0M141.108 602.916V0M173.178 602.916V0M205.248 602.916v-282.26m0-16.739V0M0 590.088h218.076M0 558.018h85.013m21.566 0h111.497M0 525.948h218.076M0 493.878h218.076M0 461.808h218.076M0 429.738h85.013m21.566 0h111.497M0 397.668h218.076M0 365.598h218.076M0 333.528h218.076M0 301.458h218.076M0 269.388h218.076M0 237.318h218.076M0 205.248h218.076M0 173.178h94.68m11.899 0h111.497M0 141.108h218.076M0 109.038h218.076M0 76.968h218.076M0 44.898h94.68m11.899 0h111.497M0 12.828h218.076" class="grid" style="stroke:#9e9ed1;stroke-width:.4" transform="translate(176.247 83.942) scale(.5625)"/><path d="M0 301.458h218.076M109.038 602.916V0" class="axes" style="stroke:#000;stroke-width:.564" transform="translate(176.247 83.942) scale(.5625)"/><path d="M0 0h218.076v602.916H0Z" class="grid-over-axes-outline" style="fill:none;stroke:#000;stroke-width:.0525" transform="translate(176.247 83.942) scale(.5625)"/><g clip-path="url(#a)" transform="translate(176.247 83.942) scale(.5625)"><path d="m-19.242 654.228 256.56-769.68" class="graph" style="fill:none;stroke:red;stroke-width:1.127"/></g><path d="M621 220H64v66h557zM746 510l-16 4c29 95 92 162 196 162 93 0 156-55 156-137 0-48-26-98-93-138 44-19 62-31 83-53 28-31 44-77 44-129 0-53-17-102-46-140-48-64-143-93-232-93-73 0-112 21-112 57 0 21 18 36 41 36 17 0 33-6 61-26 37-26 58-31 86-31 74 0 130 68 130 153 0 76-35 125-104 145-22 7-45 10-102 10v14c38 13 64 24 84 36 49 28 81 73 81 134 0 68-42 102-108 102-62 0-108-32-149-106z" style="fill:#b0b0d9;fill-opacity:1" transform="matrix(.00793 0 0 -.00793 178.762 262.101)"/><path d="m61 510-16 4c29 95 92 162 196 162 93 0 156-55 156-137 0-48-26-98-93-138 44-19 62-31 83-53 28-31 44-77 44-129 0-53-17-102-46-140-48-64-143-93-232-93C80-14 41 7 41 43c0 21 18 36 41 36 17 0 33-6 61-26 37-26 58-31 86-31 74 0 130 68 130 153 0 76-35 125-104 145-22 7-45 10-102 10v14c38 13 64 24 84 36 49 28 81 73 81 134 0 68-42 102-108 102-62 0-108-32-149-106z" style="fill:#b0b0d9;fill-opacity:1" transform="matrix(.00792 0 0 -.00792 289.716 262.098)"/><path d="M621 220H64v66h557zM1130 155c0-103-77-169-197-169-113 0-192 69-192 163 0 69 23 108 130 183-103 85-124 123-124 188 0 96 83 156 194 156 99 0 168-65 168-143 0-75-35-109-134-162 123-82 155-136 155-216zm-90 378c0 69-41 115-109 115-67 0-110-37-110-99s37-108 125-160c68 40 94 82 94 144zm-84-261-59 40c-59-48-80-89-80-154 0-92 51-144 127-144 65 0 110 45 110 110 0 62-30 102-98 148z" style="fill:#b0b0d9;fill-opacity:1" transform="matrix(.00793 0 0 -.00793 225.431 400.504)"/><path d="M621 220H64v66h557zM1158 167h-103V0h-78v167H697v64l314 445h44V231h103zm-181 64v343L737 231Z" style="fill:#b0b0d9;fill-opacity:1" transform="matrix(.00793 0 0 -.00793 225.431 328.347)"/><path d="M473 167H370V0h-78v167H12v64l314 445h44V231h103Zm-181 64v343L52 231Z" style="fill:#b0b0d9;fill-opacity:1" transform="matrix(.00792 0 0 -.00792 230.868 184.03)"/><path d="M445 155c0-103-77-169-197-169C135-14 56 55 56 149c0 69 23 108 130 183C83 417 62 455 62 520c0 96 83 156 194 156 99 0 168-65 168-143 0-75-35-109-134-162 123-82 155-136 155-216Zm-90 378c0 69-41 115-109 115-67 0-110-37-110-99s37-108 125-160c68 40 94 82 94 144zm-84-261-59 40c-59-48-80-89-80-154 0-92 51-144 127-144 65 0 110 45 110 110 0 62-30 102-98 148z" style="fill:#b0b0d9;fill-opacity:1" transform="matrix(.00792 0 0 -.00792 230.868 111.873)"/><path d="M215.494 434.744c.152 1.885.214 3.775.32 5.66.068.775.124 1.552.243 2.317.01.078.028.157.05.236 0 .011.028.028.017.034-.332.1-.67.18-1.007.27l1.04-.338c-.342.174-.674.383-1.029.529-.028.011-.016-.056-.022-.09-.011-.085-.017-.169-.028-.253a166.82 166.82 0 0 1-.18-2.363c-.101-1.867-.163-3.746-.416-5.602l1.012-.4z"/><path d="M213.677 434.857c.917-.248 2.138-.416 3.094-.461.67-.029 1.507 0 2.171.129.276.05.535.163.805.242.495.242 1.006.529.832 1.192-.174.67-.894 1.108-1.395 1.497-.866.568-.658.455-1.89 1.085-.118.056-.247.096-.366.152-.056.023-.196.13-.157.084.85-.871.49-.781 1.21-.798 1.344.13 2.89.568 3.768 1.676.158.202.242.444.366.67.022.224.101.455.073.68-.073.551-.433.956-.923 1.21-.652.337-1.338.624-2.047.826-.838.242-2.565.304-3.42.355-1.091-.034-1.699.01-2.728-.225-.23-.057-.484-.102-.67-.254a.687.687 0 0 1-.242-.309l1.131-.456c.146.315.354.31.624.428 1.013.247 1.418.107 2.504.14 1.423.057 2.396-.067 3.346-.286.147-.023.355-.13.49-.186.4-.152.844-.427.962-.877.05-.18-.006-.377-.012-.563-.1-.197-.168-.416-.303-.59-.833-1.064-2.368-1.424-3.65-1.469-.142 0-.457.13-.428-.01.151-.794.343-.732.742-.9 1.502-.704-3.19 1.478.596-.316.462-.337.703-.484 1.103-.877.118-.113.427-.417.382-.653-.056-.31-.45-.433-.663-.551-.248-.073-.49-.169-.743-.214-1.597-.287-3.409-.006-4.933.495.157-.45.186-.557.371-.866zM223.92 433.996c.034.208.08.41.102.625.09.77.112 1.462.135 2.25.045 1.344.045 2.683.045 4.027-.006.86-.012 1.716-.006 2.576l-.973.355a57.27 57.27 0 0 0 .084-2.6c.017-2.024.073-4.195-.23-6.198-.029-.191-.08-.382-.119-.574l.962-.46z"/><path d="M223.167 434.412c2.036-.14 4.066-.275 6.103-.41.731-.05.41-.028.967-.062l-.703.787c-.534.006-.225 0-.928.023-2.036.096-4.09.202-6.114.49l.675-.828zM223.622 437.315c1.643-.017 3.29-.028 4.933-.062l-.675.737a86.658 86.658 0 0 0-4.983.107l.725-.782zM224.067 442.597c1.867-.096 3.729-.13 5.596-.169l.614-.017-.698.76c-.197 0-.394-.006-.59-.006-1.874 0-3.747.034-5.609.253l.687-.821zM231.795 435.487c-.275 2.137-.168 4.303-.084 6.452.04.793.079 1.592.124 2.385l-.968.37a86.33 86.33 0 0 0-.05-2.412c-.08-2.155-.158-4.315-.045-6.469l1.023-.326z"/><path d="M230.721 435.785c2.194-.163 4.41-.298 6.615-.158.112.023.225.04.337.057l-.759.742c-.101-.017-.197-.04-.292-.056-2.189-.203-4.405-.062-6.582.202l.681-.787zM231.008 438.946c1.963-.045 3.932-.017 5.895-.028l-.686.743c-1.97-.051-3.944-.062-5.907.084l.698-.799zM240.672 436.055c-.231.14-.377.292-.62.467-.286.326-.64.59-.916.928-.444.523-1.086 1.502-1.294 2.188-.101.338-.084.709-.124 1.058.029.275.096.658.27.933.422.68 1.182.973 1.935 1.092 1.131.174 1.885.016 2.948-.405.22-.085.546-.282.838-.552a3.74 3.74 0 0 0 .726-.928c.433-.737.613-1.794.354-2.621-.259-.821-.996-1.592-1.631-2.12-.31-.248-.664-.434-.996-.653-.557-.433-1.71-.422-1.828-.433.304-.248.574-.54.906-.743.613.011 1.53.495 1.693.596.337.237.697.44 1.007.71.675.573 1.451 1.417 1.727 2.289.28.883.118 2.041-.31 2.84-.242.45-.647.788-.973 1.187-.731.563-1.35.844-2.081 1.153-1.558.658-4.208.653-5.203-.99-.192-.31-.265-.635-.304-1.04.034-.389.006-.788.112-1.16.107-.404.293-.865.518-1.214 1.266-1.924 2.149-2.644 3.847-3.443zM247.675 434.97c.017 2.52.084 5.04.208 7.56l-.878.342c-.05-2.508-.14-5.011-.292-7.515l.962-.388z"/><path d="M245.2 436.044c.422-.214.827-.456 1.26-.642.455-.185 1.17-.202 1.62-.196.692.01 1.39.09 2.064.247.287.068.563.174.838.264.186.119.416.192.557.36.118.135.18.321.186.495.011.749-.917 1.21-1.446 1.497-.546.292-1.102.568-1.66.85-.764.33-1.372.646-2.092.905.23-.327.495-.63.743-.94.062-.022.118-.056.18-.056.405-.011.85.259 1.17.461.303.192 1.417.98 1.631 1.13 1.361 1.058 2.824 1.987 4.123 3.123l.084.09-.922.574c-.011-.023-.028-.04-.04-.062-1.186-1.22-2.677-2.104-4.021-3.133-.31-.209-.619-.422-.94-.625-.405-.264-.978-.703-1.513-.725-.664.303-.005-.434.169-.704.011-.016.04-.01.056-.022a2.79 2.79 0 0 0 .197-.073c.59-.23 1.17-.49 1.744-.76.478-.23.63-.298.85-.405.185-.118 1.023-.596.685-.995-.123-.146-.275-.22-.478-.31-.23-.112-.534-.185-.804-.247a8.078 8.078 0 0 0-2.014-.197c-.821.006 0 0-1.153.034z"/><path d="M255.01 435.447c.095 2.2.18 4.405.281 6.604.017.58 0 1.159-.034 1.738l-1.001.338c.079-.568.124-1.142.118-1.721-.056-2.189-.13-4.382-.349-6.565l.985-.394zM254.346 434.604c2.216.084 4.438.118 6.66.118.214-.006.422-.006.636-.006l-.698.754c-.202-.006-.41-.011-.613-.028a190.527 190.527 0 0 0-6.71-.062l.725-.782z"/><path d="M255.297 438.31c1.625-.112 3.25-.213 4.876-.253l-.658.726a41.974 41.974 0 0 0-4.899.315l.68-.787zM254.593 442.85c2.487-.174 4.973-.293 7.465-.169.011 0 .692.045.832.118.051.028.073.09.113.135l-.934.557a18.83 18.83 0 0 0-.697-.09c-2.487-.18-5.001-.073-7.465.276z"/><path d="M311.274 76.725h137.101v378.83H311.274z" class="polaroid-card-background" style="fill:#fff;stroke:#000;stroke-width:.28125;stroke-dasharray:none"/><path fill="#fafafa" d="M318.49 83.942h122.668v339.14H318.491Z" style="stroke-width:.5625"/><path d="M325.706 423.082V264.316m0-9.42V83.941M343.746 423.082V83.942M361.785 423.082V83.942M379.824 423.082V83.942M397.864 423.082V83.942M415.903 423.082V83.942M433.943 423.082V264.311m0-9.416V83.942M318.49 415.866h122.668M318.49 397.827h47.82m12.131 0h62.717M318.49 379.787h122.668M318.49 361.748h122.668M318.49 343.709h122.668M318.49 325.67h47.82m12.131 0h62.717M318.49 307.63h122.668M318.49 289.59h122.668M318.49 271.551h122.668M318.49 253.512h122.668M318.49 235.472h122.668M318.49 217.433h122.668M318.49 199.394h122.668M318.49 181.354h53.258m6.693 0h62.717M318.49 163.315h122.668M318.49 145.276h122.668M318.49 127.236h122.668M318.49 109.197h53.258m6.693 0h62.717M318.49 91.157h122.668" class="grid" style="stroke:#9e9ed1;stroke-width:.225"/><path d="M318.49 253.512h122.668M379.824 423.082V83.942" class="axes" style="stroke:#000;stroke-width:.31725"/><path d="M318.49 83.942h122.668v339.14H318.491Z" class="grid-over-axes-outline" style="fill:none;stroke:#000;stroke-width:.0295312"/><g clip-path="url(#b)" transform="translate(318.49 83.942) scale(.5625)"><path d="M-19.242 205.248h256.56" class="graph" style="fill:none;stroke:red;stroke-width:1.127"/></g><path d="M621 220H64v66h557zM746 510l-16 4c29 95 92 162 196 162 93 0 156-55 156-137 0-48-26-98-93-138 44-19 62-31 83-53 28-31 44-77 44-129 0-53-17-102-46-140-48-64-143-93-232-93-73 0-112 21-112 57 0 21 18 36 41 36 17 0 33-6 61-26 37-26 58-31 86-31 74 0 130 68 130 153 0 76-35 125-104 145-22 7-45 10-102 10v14c38 13 64 24 84 36 49 28 81 73 81 134 0 68-42 102-108 102-62 0-108-32-149-106z" style="fill:#b0b0d9;fill-opacity:1" transform="matrix(.00793 0 0 -.00793 321.006 262.101)"/><path d="m61 510-16 4c29 95 92 162 196 162 93 0 156-55 156-137 0-48-26-98-93-138 44-19 62-31 83-53 28-31 44-77 44-129 0-53-17-102-46-140-48-64-143-93-232-93C80-14 41 7 41 43c0 21 18 36 41 36 17 0 33-6 61-26 37-26 58-31 86-31 74 0 130 68 130 153 0 76-35 125-104 145-22 7-45 10-102 10v14c38 13 64 24 84 36 49 28 81 73 81 134 0 68-42 102-108 102-62 0-108-32-149-106z" style="fill:#b0b0d9;fill-opacity:1" transform="matrix(.00792 0 0 -.00792 431.96 262.098)"/><path d="M621 220H64v66h557zM1130 155c0-103-77-169-197-169-113 0-192 69-192 163 0 69 23 108 130 183-103 85-124 123-124 188 0 96 83 156 194 156 99 0 168-65 168-143 0-75-35-109-134-162 123-82 155-136 155-216zm-90 378c0 69-41 115-109 115-67 0-110-37-110-99s37-108 125-160c68 40 94 82 94 144zm-84-261-59 40c-59-48-80-89-80-154 0-92 51-144 127-144 65 0 110 45 110 110 0 62-30 102-98 148z" style="fill:#b0b0d9;fill-opacity:1" transform="matrix(.00793 0 0 -.00793 367.675 400.504)"/><path d="M621 220H64v66h557zM1158 167h-103V0h-78v167H697v64l314 445h44V231h103zm-181 64v343L737 231Z" style="fill:#b0b0d9;fill-opacity:1" transform="matrix(.00793 0 0 -.00793 367.675 328.347)"/><path d="M473 167H370V0h-78v167H12v64l314 445h44V231h103Zm-181 64v343L52 231Z" style="fill:#b0b0d9;fill-opacity:1" transform="matrix(.00792 0 0 -.00792 373.112 184.03)"/><path d="M445 155c0-103-77-169-197-169C135-14 56 55 56 149c0 69 23 108 130 183C83 417 62 455 62 520c0 96 83 156 194 156 99 0 168-65 168-143 0-75-35-109-134-162 123-82 155-136 155-216Zm-90 378c0 69-41 115-109 115-67 0-110-37-110-99s37-108 125-160c68 40 94 82 94 144zm-84-261-59 40c-59-48-80-89-80-154 0-92 51-144 127-144 65 0 110 45 110 110 0 62-30 102-98 148z" style="fill:#b0b0d9;fill-opacity:1" transform="matrix(.00792 0 0 -.00792 373.112 111.873)"/><path d="M362.497 434.474c.55.726.905 1.575 1.299 2.385.203.417.917 1.828 1.108 2.21.625 1.3 1.305 2.588 1.699 3.978l-.95.427c-.299-1.4-.98-2.677-1.593-3.954-.196-.383-.388-.76-.585-1.142-.18-.354-.365-.703-.545-1.057-.4-.777-.76-1.592-1.316-2.267l.883-.58z"/><path d="M358.818 439.171c1.907.197 3.82.338 5.737.259l-.686.742c-1.93.012-3.847-.146-5.777-.236l.726-.765zM368.493 435.054c-.174 1.873-.349 3.752-.326 5.636 0 .388.028.776.045 1.164.084 1.108.033.608.14 1.508l-.95.377c-.068-.928-.034-.417-.096-1.547-.062-2.267.056-4.528.197-6.79l.99-.348z"/><path d="M366.834 434.896c2.385-.028 4.775 0 7.166.006.22 0 .439 0 .658.005l-.765.737-.641-.017a113.795 113.795 0 0 0-7.2.023l.782-.754zM368.195 438.676c1.805 0 3.605.011 5.411.011l-.742.71c-1.812-.023-3.623-.04-5.434.027l.765-.748zM373.91 436.218c2.531-.04 5.074.073 7.61.14 1.384.029.76.018 1.868.034l-.608.794c-1.074-.068-.466-.029-1.816-.096-2.565-.096-5.13-.163-7.69-.045l.636-.827z"/><path d="M378.72 436.24c.01 2.087.05 4.18.112 6.267.017.523.039 1.052.05 1.58l-.99.31c.017-.535.023-1.063.012-1.592-.034-2.081-.057-4.163-.175-6.238l.99-.326zM384.879 435.695c-.276 1.952-.22 3.92-.107 5.878.022.495.028.99.017 1.48l-.99.309c.061-.49.073-.979.056-1.474-.09-1.963-.135-3.937.034-5.9l.99-.293z"/><path d="M384.294 435.25c2.221-.174 4.449-.23 6.676-.292.248 0 .501-.011.754-.017l-.647.737c-.242-.006-.49-.006-.731-.006-2.239.023-4.483.096-6.71.366l.658-.787zM384.845 438.507c1.552.006 3.105 0 4.652-.005l-.67.72c-1.558-.023-3.116-.034-4.668.045l.686-.76zM384.564 442.76c2.593-.045 5.186.107 7.773.236l-.641.692c-2.587-.197-5.192-.377-7.78-.157l.648-.771zM394.52 435.222c.112 2.504.191 5.012.275 7.521l-.91.338c.005-2.504-.063-5.007-.305-7.493l.94-.366z"/><path d="M393.074 435.121c1.288.079 2.616.006 3.876.338.422.107 1.277.393 1.513.883.101.208.022.461.034.692-.152.242-.265.512-.456.725-.405.462-1.12.912-1.648 1.204-1.001.557-1.744.928-2.79 1.243-.354.079-.608.14-.63-.326 0-.034.022-.068.05-.084.304-.175.63-.315.951-.473.096.04.32.13.405.169.394.197.776.427 1.165.635.455.231 2.182 1.097 2.553 1.283 1.626.765 3.24 1.564 4.877 2.306-.281.236-.557.473-.838.715l.748-.771c-.247.242-.495.478-.742.72-.327-.208-.687-.388-1.03-.563a114.447 114.447 0 0 0-3.735-1.822c-3.65-1.766.59.281-2.604-1.249-.174-.084-1.074-.585-1.39-.613-.028-.006-.05.023-.073.028.26-.14.53-.264.777-.422.017-.011-.04-.005-.051-.017-.05-.056-.073-.129-.118-.19-.011-.023-.068-.04-.05-.063.016-.028.067-.005.1-.017.09-.016.175-.039.265-.056 1.777-.557-1.31.422 1.125-.41.022-.006.04.028.056.016.805-.416 1.58-.888 2.115-1.636.034-.152.152-.315.096-.456-.175-.444-1.04-.703-1.356-.782-1.26-.32-2.587-.259-3.87-.236l.675-.77zM362.654 434.204c-1.192 2.065-2.407 4.112-3.605 6.17-.53.923-1.109 1.823-1.44 2.836l-.934.236c.36-1.035.967-1.963 1.524-2.908.9-1.547 1.828-3.077 2.689-4.646.163-.287.304-.585.461-.878.118-.208.242-.416.366-.624l.94-.186z"/><path d="M453.774 76.725h137.101v378.83H453.774z" class="polaroid-card-background" style="fill:#fff;stroke:#000;stroke-width:.28125;stroke-dasharray:none"/><path d="M621 220H64v66h557zM746 510l-16 4c29 95 92 162 196 162 93 0 156-55 156-137 0-48-26-98-93-138 44-19 62-31 83-53 28-31 44-77 44-129 0-53-17-102-46-140-48-64-143-93-232-93-73 0-112 21-112 57 0 21 18 36 41 36 17 0 33-6 61-26 37-26 58-31 86-31 74 0 130 68 130 153 0 76-35 125-104 145-22 7-45 10-102 10v14c38 13 64 24 84 36 49 28 81 73 81 134 0 68-42 102-108 102-62 0-108-32-149-106z" style="fill:#b0b0d9;fill-opacity:1" transform="matrix(.00793 0 0 -.00793 463.506 262.101)"/><path fill="#fafafa" d="M460.99 83.942h122.668v339.14H460.991Z" style="stroke-width:.5625"/><path d="M468.206 423.082V264.316m0-.007V93.355M486.246 423.082V83.942M504.285 423.082V83.942M522.324 423.082V83.942M540.364 423.082V83.942M558.403 423.082V83.942M576.443 423.082V264.311m0-9.416V83.942M460.99 415.866h122.668M460.99 397.827h47.82m12.131 0h62.717M460.99 379.787h122.668M460.99 361.748h122.668M460.99 343.709h122.668M460.99 325.67h47.82m12.131 0h62.717M460.99 307.63h122.668M460.99 289.59h122.668M460.99 271.551h122.668M460.99 253.512h122.668M460.99 235.472h122.668M460.99 217.433h122.668M460.99 199.394h122.668M460.99 181.354h53.258m6.693 0h62.717M460.99 163.315h122.668M460.99 145.276h122.668M460.99 127.236h122.668M460.99 109.197h53.258m6.693 0h62.717M460.99 91.157h122.668" class="grid" style="stroke:#9e9ed1;stroke-width:.225"/><path d="M460.99 253.512h122.668M522.324 423.082V83.942" class="axes" style="stroke:#000;stroke-width:.31725"/><path d="M460.99 83.942h122.668v339.14H460.991Z" class="grid-over-axes-outline" style="fill:none;stroke:#000;stroke-width:.0295312"/><g clip-path="url(#b)" transform="translate(460.99 83.942) scale(.5625)"><path d="M-19.242 301.747h256.56" class="graph" style="fill:none;stroke:red;stroke-width:1.127"/></g><path d="m61 510-16 4c29 95 92 162 196 162 93 0 156-55 156-137 0-48-26-98-93-138 44-19 62-31 83-53 28-31 44-77 44-129 0-53-17-102-46-140-48-64-143-93-232-93C80-14 41 7 41 43c0 21 18 36 41 36 17 0 33-6 61-26 37-26 58-31 86-31 74 0 130 68 130 153 0 76-35 125-104 145-22 7-45 10-102 10v14c38 13 64 24 84 36 49 28 81 73 81 134 0 68-42 102-108 102-62 0-108-32-149-106z" style="fill:#b0b0d9;fill-opacity:1" transform="matrix(.00792 0 0 -.00792 574.46 262.098)"/><path d="M621 220H64v66h557zM1130 155c0-103-77-169-197-169-113 0-192 69-192 163 0 69 23 108 130 183-103 85-124 123-124 188 0 96 83 156 194 156 99 0 168-65 168-143 0-75-35-109-134-162 123-82 155-136 155-216zm-90 378c0 69-41 115-109 115-67 0-110-37-110-99s37-108 125-160c68 40 94 82 94 144zm-84-261-59 40c-59-48-80-89-80-154 0-92 51-144 127-144 65 0 110 45 110 110 0 62-30 102-98 148z" style="fill:#b0b0d9;fill-opacity:1" transform="matrix(.00793 0 0 -.00793 510.175 400.504)"/><path d="M621 220H64v66h557zM1158 167h-103V0h-78v167H697v64l314 445h44V231h103zm-181 64v343L737 231Z" style="fill:#b0b0d9;fill-opacity:1" transform="matrix(.00793 0 0 -.00793 510.175 328.347)"/><path d="M473 167H370V0h-78v167H12v64l314 445h44V231h103Zm-181 64v343L52 231Z" style="fill:#b0b0d9;fill-opacity:1" transform="matrix(.00792 0 0 -.00792 515.612 184.03)"/><path d="M445 155c0-103-77-169-197-169C135-14 56 55 56 149c0 69 23 108 130 183C83 417 62 455 62 520c0 96 83 156 194 156 99 0 168-65 168-143 0-75-35-109-134-162 123-82 155-136 155-216Zm-90 378c0 69-41 115-109 115-67 0-110-37-110-99s37-108 125-160c68 40 94 82 94 144zm-84-261-59 40c-59-48-80-89-80-154 0-92 51-144 127-144 65 0 110 45 110 110 0 62-30 102-98 148z" style="fill:#b0b0d9;fill-opacity:1" transform="matrix(.00792 0 0 -.00792 515.612 111.873)"/><path d="M530.585 434.474c.551.726.905 1.575 1.3 2.385.202.417.916 1.828 1.107 2.21.625 1.3 1.305 2.588 1.7 3.978l-.952.427c-.298-1.4-.978-2.677-1.591-3.954l-.585-1.142c-.18-.354-.366-.703-.546-1.057-.4-.777-.76-1.592-1.316-2.267l.883-.58z"/><path d="M526.906 439.171c1.907.197 3.82.338 5.738.259l-.687.742c-1.929.012-3.847-.146-5.777-.236l.726-.765zM536.581 435.054c-.174 1.873-.349 3.752-.326 5.636 0 .388.028.776.045 1.164.084 1.108.034.608.14 1.508l-.95.377c-.068-.928-.034-.417-.096-1.547-.062-2.267.056-4.528.197-6.79l.99-.348z"/><path d="M534.922 434.896c2.385-.028 4.775 0 7.166.006.22 0 .439 0 .658.005l-.765.737-.641-.017a113.795 113.795 0 0 0-7.2.023l.782-.754zM536.283 438.676c1.806 0 3.606.011 5.411.011l-.742.71c-1.812-.023-3.623-.04-5.434.027l.765-.748zM541.998 436.218c2.531-.04 5.074.073 7.61.14 1.384.029.76.018 1.868.034l-.607.794c-1.075-.068-.467-.029-1.817-.096-2.565-.096-5.13-.163-7.69-.045l.636-.827z"/><path d="M546.807 436.24c.012 2.087.051 4.18.113 6.267.017.523.04 1.052.05 1.58l-.99.31c.017-.535.023-1.063.012-1.592-.034-2.081-.057-4.163-.175-6.238l.99-.326zM552.967 435.695c-.276 1.952-.22 3.92-.107 5.878.022.495.028.99.017 1.48l-.99.309c.062-.49.073-.979.056-1.474-.09-1.963-.135-3.937.034-5.9l.99-.293z"/><path d="M552.382 435.25c2.222-.174 4.45-.23 6.677-.292.247 0 .5-.011.753-.017l-.647.737c-.241-.006-.489-.006-.73-.006-2.24.023-4.484.096-6.711.366l.658-.787zM552.933 438.507c1.552.006 3.105 0 4.652-.005l-.67.72c-1.558-.023-3.116-.034-4.668.045l.686-.76zM552.652 442.76c2.593-.045 5.186.107 7.773.236l-.64.692c-2.588-.197-5.193-.377-7.78-.157l.647-.771zM562.608 435.222c.112 2.504.191 5.012.276 7.521l-.912.338c.006-2.504-.062-5.007-.303-7.493l.939-.366z"/><path d="M561.162 435.121c1.288.079 2.616.006 3.876.338.422.107 1.277.393 1.513.883.101.208.023.461.034.692-.152.242-.265.512-.456.725-.405.462-1.12.912-1.648 1.204-1.001.557-1.744.928-2.79 1.243-.354.079-.607.14-.63-.326 0-.034.023-.068.05-.084.304-.175.63-.315.951-.473.096.04.321.13.405.169.394.197.777.427 1.165.635.455.231 2.182 1.097 2.553 1.283 1.626.765 3.24 1.564 4.877 2.306-.28.236-.557.473-.838.715l.748-.771c-.247.242-.495.478-.742.72-.326-.208-.686-.388-1.03-.563a114.447 114.447 0 0 0-3.735-1.822c-3.65-1.766.591.281-2.604-1.249-.174-.084-1.074-.585-1.39-.613-.027-.006-.05.023-.072.028.258-.14.528-.264.776-.422.017-.011-.04-.005-.05-.017-.051-.056-.074-.129-.119-.19-.011-.023-.067-.04-.05-.063.016-.028.067-.005.1-.017.09-.016.175-.039.265-.056 1.778-.557-1.31.422 1.125-.41.023-.006.04.028.056.016.805-.416 1.581-.888 2.115-1.636.034-.152.152-.315.096-.456-.174-.444-1.04-.703-1.356-.782-1.26-.32-2.587-.259-3.87-.236l.675-.77zM530.742 434.204c-1.192 2.065-2.407 4.112-3.605 6.17-.529.923-1.108 1.823-1.44 2.836l-.934.236c.36-1.035.967-1.963 1.524-2.908.9-1.547 1.828-3.077 2.69-4.646.162-.287.303-.585.46-.878.118-.208.242-.416.366-.624l.94-.186z"/><g style="stroke-width:1.0203"><path d="M564.91 360.78c.98 1.29 1.61 2.8 2.31 4.24.36.74 1.63 3.25 1.97 3.93 1.11 2.31 2.32 4.6 3.02 7.07l-1.69.76c-.53-2.49-1.74-4.76-2.83-7.03-.35-.68-.69-1.35-1.04-2.03-.32-.63-.65-1.25-.97-1.88-.71-1.38-1.35-2.83-2.34-4.03l1.57-1.03z" style="stroke-width:1.0203" transform="matrix(.5513 0 -.24344 .5513 258.748 365.07)"/><path d="M558.37 369.13c3.39.35 6.79.6 10.2.46l-1.22 1.32c-3.43.02-6.84-.26-10.27-.42l1.29-1.36zM575.57 361.81c-.31 3.33-.62 6.67-.58 10.02 0 .69.05 1.38.08 2.07.15 1.97.06 1.08.25 2.68l-1.69.67c-.12-1.65-.06-.74-.17-2.75-.11-4.03.1-8.05.35-12.07l1.76-.62z" style="stroke-width:1.0203" transform="matrix(.5513 0 -.24344 .5513 258.748 365.07)"/><path d="M572.62 361.53c4.24-.05 8.49 0 12.74.01.39 0 .78 0 1.17.01l-1.36 1.31-1.14-.03c-4.27-.11-8.54-.12-12.8.04l1.39-1.34zM575.04 368.25c3.21 0 6.41.02 9.62.02l-1.32 1.26c-3.22-.04-6.44-.07-9.66.05l1.36-1.33zM585.2 363.88c4.5-.07 9.02.13 13.53.25 2.46.05 1.35.03 3.32.06l-1.08 1.41c-1.91-.12-.83-.05-3.23-.17-4.56-.17-9.12-.29-13.67-.08l1.13-1.47z" style="stroke-width:1.0203" transform="matrix(.5513 0 -.24344 .5513 258.748 365.07)"/><path d="M593.75 363.92c.02 3.71.09 7.43.2 11.14.03.93.07 1.87.09 2.81l-1.76.55c.03-.95.04-1.89.02-2.83-.06-3.7-.1-7.4-.31-11.09l1.76-.58zM604.7 362.95c-.49 3.47-.39 6.97-.19 10.45.04.88.05 1.76.03 2.63l-1.76.55c.11-.87.13-1.74.1-2.62-.16-3.49-.24-7 .06-10.49l1.76-.52z" style="stroke-width:1.0203" transform="matrix(.5513 0 -.24344 .5513 258.748 365.07)"/><path d="M603.66 362.16c3.95-.31 7.91-.41 11.87-.52.44 0 .89-.02 1.34-.03l-1.15 1.31c-.43-.01-.87-.01-1.3-.01-3.98.04-7.97.17-11.93.65l1.17-1.4zM604.64 367.95c2.76.01 5.52 0 8.27-.01l-1.19 1.28c-2.77-.04-5.54-.06-8.3.08l1.22-1.35zM604.14 375.51c4.61-.08 9.22.19 13.82.42l-1.14 1.23c-4.6-.35-9.23-.67-13.83-.28l1.15-1.37zM621.84 362.11c.2 4.45.34 8.91.49 13.37l-1.62.6c.01-4.45-.11-8.9-.54-13.32l1.67-.65z" style="stroke-width:1.0203" transform="matrix(.5513 0 -.24344 .5513 258.748 365.07)"/><path d="M619.27 361.93c2.29.14 4.65.01 6.89.6.75.19 2.27.7 2.69 1.57.18.37.04.82.06 1.23-.27.43-.47.91-.81 1.29-.72.82-1.99 1.62-2.93 2.14-1.78.99-3.1 1.65-4.96 2.21-.63.14-1.08.25-1.12-.58 0-.06.04-.12.09-.15.54-.31 1.12-.56 1.69-.84.17.07.57.23.72.3.7.35 1.38.76 2.07 1.13.81.41 3.88 1.95 4.54 2.28 2.89 1.36 5.76 2.78 8.67 4.1-.5.42-.99.84-1.49 1.27l1.33-1.37c-.44.43-.88.85-1.32 1.28-.58-.37-1.22-.69-1.83-1-2.19-1.13-4.41-2.19-6.64-3.24-6.49-3.14 1.05.5-4.63-2.22-.31-.15-1.91-1.04-2.47-1.09-.05-.01-.09.04-.13.05.46-.25.94-.47 1.38-.75.03-.02-.07-.01-.09-.03-.09-.1-.13-.23-.21-.34-.02-.04-.12-.07-.09-.11.03-.05.12-.01.18-.03.16-.03.31-.07.47-.1 3.16-.99-2.33.75 2-.73.04-.01.07.05.1.03 1.43-.74 2.81-1.58 3.76-2.91.06-.27.27-.56.17-.81-.31-.79-1.85-1.25-2.41-1.39-2.24-.57-4.6-.46-6.88-.42l1.2-1.37zM565.19 360.3c-2.12 3.67-4.28 7.31-6.41 10.97-.94 1.64-1.97 3.24-2.56 5.04l-1.66.42c.64-1.84 1.72-3.49 2.71-5.17 1.6-2.75 3.25-5.47 4.78-8.26.29-.51.54-1.04.82-1.56.21-.37.43-.74.65-1.11l1.67-.33z" style="stroke-width:1.0203" transform="matrix(.5513 0 -.24344 .5513 258.748 365.07)"/></g><path d="M480.204 434.474c.55.726.905 1.575 1.299 2.385.202.417.917 1.828 1.108 2.21.624 1.3 1.305 2.588 1.699 3.978l-.95.427c-.299-1.4-.98-2.677-1.593-3.954-.197-.383-.388-.76-.585-1.142-.18-.354-.365-.703-.545-1.057-.4-.777-.76-1.592-1.317-2.267l.884-.58z"/><path d="M476.525 439.171c1.907.197 3.82.338 5.737.259l-.686.742c-1.93.012-3.847-.146-5.777-.236l.726-.765zM486.2 435.054c-.175 1.873-.349 3.752-.326 5.636 0 .388.028.776.045 1.164.084 1.108.033.608.14 1.508l-.95.377c-.068-.928-.034-.417-.096-1.547-.062-2.267.056-4.528.197-6.79l.99-.348z"/><path d="M484.54 434.896c2.385-.028 4.776 0 7.167.006.219 0 .438 0 .658.005l-.765.737-.641-.017a113.795 113.795 0 0 0-7.2.023l.781-.754zM485.902 438.676c1.805 0 3.605.011 5.41.011l-.742.71c-1.81-.023-3.622-.04-5.433.027l.765-.748zM491.617 436.218c2.53-.04 5.073.073 7.61.14 1.384.029.76.018 1.868.034l-.608.794c-1.074-.068-.467-.029-1.817-.096-2.565-.096-5.13-.163-7.689-.045l.636-.827z"/><path d="M496.426 436.24c.011 2.087.05 4.18.113 6.267.016.523.039 1.052.05 1.58l-.99.31c.017-.535.023-1.063.011-1.592-.033-2.081-.056-4.163-.174-6.238l.99-.326zM502.585 435.695c-.275 1.952-.219 3.92-.106 5.878.022.495.028.99.016 1.48l-.99.309c.062-.49.074-.979.057-1.474-.09-1.963-.135-3.937.033-5.9l.99-.293z"/><path d="M502 435.25c2.222-.174 4.45-.23 6.677-.292.248 0 .5-.011.754-.017l-.647.737c-.242-.006-.49-.006-.731-.006-2.239.023-4.483.096-6.71.366l.657-.787zM502.552 438.507c1.552.006 3.105 0 4.652-.005l-.67.72c-1.558-.023-3.116-.034-4.669.045l.687-.76zM502.27 442.76c2.594-.045 5.187.107 7.774.236l-.641.692c-2.588-.197-5.192-.377-7.78-.157l.647-.771zM512.227 435.222c.112 2.504.19 5.012.275 7.521l-.911.338c.006-2.504-.062-5.007-.304-7.493l.94-.366z"/><path d="M510.781 435.121c1.288.079 2.616.006 3.876.338.422.107 1.277.393 1.513.883.101.208.022.461.034.692-.152.242-.265.512-.456.725-.405.462-1.12.912-1.648 1.204-1.001.557-1.744.928-2.79 1.243-.355.079-.608.14-.63-.326 0-.034.022-.068.05-.084.304-.175.63-.315.951-.473.096.04.32.13.405.169.394.197.776.427 1.164.635.456.231 2.183 1.097 2.554 1.283 1.626.765 3.24 1.564 4.877 2.306-.281.236-.557.473-.838.715l.748-.771c-.247.242-.495.478-.742.72-.327-.208-.687-.388-1.03-.563a114.447 114.447 0 0 0-3.735-1.822c-3.65-1.766.59.281-2.604-1.249-.175-.084-1.075-.585-1.39-.613-.028-.006-.05.023-.073.028.259-.14.529-.264.777-.422.016-.011-.04-.005-.051-.017-.05-.056-.073-.129-.118-.19-.011-.023-.068-.04-.05-.063.016-.028.067-.005.1-.017.09-.016.175-.039.265-.056 1.777-.557-1.31.422 1.125-.41.022-.006.04.028.056.016.804-.416 1.58-.888 2.115-1.636.034-.152.152-.315.096-.456-.175-.444-1.041-.703-1.356-.782-1.26-.32-2.587-.259-3.87-.236l.675-.77zM480.361 434.204c-1.192 2.065-2.407 4.112-3.606 6.17-.528.923-1.108 1.823-1.44 2.836l-.933.236c.36-1.035.967-1.963 1.524-2.908.9-1.547 1.828-3.077 2.689-4.646.163-.287.304-.585.461-.878.118-.208.242-.416.366-.624l.939-.186z"/><path d="M235.827 236.047c-.05-.015-.138-.045-.19-.062-.423-.151-.86-.262-1.283-.415-1.405-.51-2.208-.77-3.63-1.234-.154-.05-.312-.092-.468-.138" style="fill:#fafafa;fill-opacity:1;stroke:#fdfdfd;stroke-width:1.05;stroke-linejoin:round;stroke-miterlimit:2;stroke-dasharray:none;stroke-opacity:1"/><path d="M227.836 250.357a9.32 9.32 0 0 0-.344.804c-.258.7-.796 2.227-.842 2.978M229.275 250.85c-.152.202-.54 1.013-.65 1.274-.287.685-.587 1.68-.723 2.413" style="fill:#000;fill-opacity:1;stroke:#fdfdfd;stroke-width:1.275;stroke-linecap:square;stroke-linejoin:round;stroke-miterlimit:2;stroke-dasharray:none;stroke-opacity:1"/><path d="M224.945 258.898c.33.386.599.681.974.879.389.204.813.307 1.23.024.353-.24.416-.649.477-1.02a2.188 2.188 0 0 0-.004-.587c-.06-.573-.375-1.237-.767-1.67-.048-.054-.172-.041-.117-.029.045.01.12.011.158.013.932.041 1.862.14 2.794.211.937.07 1.888.128 2.786.431.203.07.406.144.593.25.162.092.317.203.445.339.125.133.227.29.302.457.27.607.178 1.278-.11 1.859-.278.558-.475.744-.924 1.162-.336.314-.536.46-.92.68-.087.05-.185.085-.277.127" style="display:inline;fill:none;fill-opacity:1;stroke:#000;stroke-width:.3375;stroke-linejoin:round;stroke-miterlimit:2;stroke-dasharray:none"/><path d="M227.836 250.357a9.32 9.32 0 0 0-.344.804c-.258.7-.796 2.227-.842 2.978M229.275 250.85c-.152.202-.54 1.013-.65 1.274-.287.685-.587 1.68-.723 2.413" style="fill:#000;fill-opacity:1;stroke:#000;stroke-width:.3375;stroke-linejoin:round;stroke-miterlimit:2;stroke-dasharray:none"/><path d="M226.572 247.486a2.45 2.45 0 0 1-.054-1.322c.028-.127.065-.252.113-.373.158-.4.425-.873.932-.844a.994.994 0 0 1 .678.313c.103.103.19.224.274.343.28.39.445.869.382 1.35-.009.07-.03.138-.048.206-.003.012-.076.18-.141.173-.02-.002-.022-.037-.02-.056a.697.697 0 0 1 .043-.184c.105-.272.193-.41.382-.647.415-.525 1.117-1.254 1.856-1.228a.841.841 0 0 1 .308.064c.423.188.644.485.709.953.018.133.03.268.018.401a2.874 2.874 0 0 1-.105.536 3.751 3.751 0 0 1-.216.57c-.276.576-.726 1.121-1.33 1.37" style="fill:none;fill-opacity:1;stroke:#000;stroke-width:.3375;stroke-linejoin:round;stroke-miterlimit:2;stroke-dasharray:none"/><path d="M233.43 242.467c-.083.057-.182.103-.271.148-.355.176-.714.346-1.086.484-.237.088-.667.244-.98.347-.433.143-.862.284-1.226.314" style="fill:#000;fill-opacity:1;stroke:#000;stroke-width:.3375;stroke-linecap:butt;stroke-linejoin:round;stroke-miterlimit:2;stroke-dasharray:none"/><path d="M233.431 242.608" style="fill:#000;fill-opacity:1;stroke:#000;stroke-width:.3375;stroke-linejoin:round;stroke-miterlimit:2;stroke-dasharray:none"/><path d="M231.292 241.422c.246.7.596 1.63.862 2.324.11.33.243.65.375.972" style="fill:#000;fill-opacity:1;stroke:#000;stroke-width:.3375;stroke-linecap:butt;stroke-linejoin:round;stroke-miterlimit:2;stroke-dasharray:none"/><path d="M232.59 240.647c.227-.774.527-1.524.779-2.291.102-.329.058-.183.132-.439" style="fill:#000;fill-opacity:1;stroke:#000;stroke-width:.3375;stroke-linejoin:round;stroke-miterlimit:2;stroke-dasharray:none"/><path d="M234.303 239.648c-.76-.254-1.83-.624-2.566-.939M235.827 236.047c-.05-.015-.138-.045-.19-.062-.423-.151-.86-.262-1.283-.415-1.405-.51-2.208-.77-3.63-1.234-.154-.05-.312-.092-.468-.138" style="fill:#000;fill-opacity:1;stroke:#000;stroke-width:.3375;stroke-linejoin:round;stroke-miterlimit:2;stroke-dasharray:none"/><path d="M321.96 194.274" style="fill:#000;fill-opacity:1;stroke:#000;stroke-width:.28125;stroke-linejoin:round;stroke-miterlimit:2;stroke-dasharray:none"/><path d="M321.151 202.379c.54.268 1.075.384 1.768.43.216.015.434.006.65-.009.815-.058 1.689-.254 2.214-.938a1.57 1.57 0 0 0 .262-.456c.174-.532.192-.605.181-1.197-.01-.6-.096-.9-.229-1.485-.165-.725-.218-.915-.402-1.634-.037-.133-.292-1.042-.342-1.233-.06-.232-.18-.606-.123-.854.005-.024.028-.04.043-.059.022.01.05.011.067.029.072.075.076.2.061.293-.074.47-.368.863-.656 1.222-.157.148-.301.309-.469.442-.32.256-.69.473-1.086.588-.268.077-.648.125-.918-.007a.728.728 0 0 1-.278-.255 1.15 1.15 0 0 1-.158-.408c-.035-.173-.032-.353-.029-.53.01-.58.125-1.15.21-1.721" style="fill:none;fill-opacity:1;stroke:#000;stroke-width:.3375;stroke-linejoin:round;stroke-miterlimit:2;stroke-dasharray:none"/><path d="m321.96 202.655-.001.001" style="fill:#000;fill-opacity:1;stroke:#000;stroke-width:.28125;stroke-linejoin:round;stroke-miterlimit:2;stroke-dasharray:none"/><path d="M331.366 195.043c.136-.036.125-.032.134-.014-.085.02-.184.017-.26.024-.286.013-.37.011-.68.015a40.949 40.949 0 0 1-2.362-.073M331.877 196.357c.03-.008.071-.01.09-.01-.042.025-.096.012-.145.015-.31.023-.62.035-.93.045-.911.036-1.825.06-2.736.023" style="fill:#000;fill-opacity:1;stroke:#000;stroke-width:.3375;stroke-linejoin:round;stroke-miterlimit:2;stroke-dasharray:none"/><path d="M334.49 192.91a6.02 6.02 0 0 1 1.89-.366c.162-.004.324.007.486.01.326.044.915.096 1.048.495.064.19.04.31-.024.491-.038.105-.115.202-.18.291-.393.53-1.056.874-1.64 1.128l-.153.053c-.01 0-.035.001-.027-.003.311-.15.784-.113 1.096-.036.53.13 1.036.39 1.422.804.139.149.28.364.285.584a.455.455 0 0 1-.059.233.69.69 0 0 1-.186.196c-.612.468-1.676.479-2.392.432a3.411 3.411 0 0 1-1.053-.234c-.448-.168-.821-.478-1.121-.85a1.055 1.055 0 0 1-.098-.14" style="fill:none;fill-opacity:1;stroke:#000;stroke-width:.3375;stroke-linejoin:round;stroke-miterlimit:2;stroke-dasharray:none"/><path d="M332.953.818c.735.954 1.79 1.155 2.568 1.086.936-.084 1.818-.624 1.664-1.44-.102-.543-.522-1.032-1.015-1.3a1.564 1.564 0 0 0-.379-.148c-.281-.067-.526-.093-.808-.012-.079.022-.144.058-.118.079.019.015.049.004.073.006.685-.151 1.284-.602 1.73-1.123.185-.217.285-.373.333-.662a.677.677 0 0 0-.4-.736c-.265-.12-.558-.143-.818-.127-.864.053-1.702.397-2.317.703" style="fill:none;fill-opacity:1;stroke:#000;stroke-width:.28125;stroke-linejoin:round;stroke-miterlimit:2;stroke-dasharray:none"/><path d="M564.356 249.168c-.008.187-.04.375-.024.562.077.873.46 2.096 1.464 2.271.211.037.429-.027.643-.04.204-.096.424-.162.612-.286.502-.331 1.12-1.07 1.133-1.714-.095.08-.267.116-.286.24-.024.156.117.294.182.438.138.303.288.6.427.903.376.824.675 1.485.964 2.346.12.357.21.724.314 1.085.055.45.226 1.078-.024 1.532-.097.177-.272.308-.449.404-.44.24-.95.259-1.43.171-.265-.048-.512-.164-.768-.246-.804-.474-.458-.209-1.06-.766" style="fill:none;stroke:#000;stroke-width:.3375;stroke-linecap:square;stroke-linejoin:round;stroke-miterlimit:2;stroke-dasharray:none" transform="translate(-100.52 -.182)"/><path d="M574.32 249.759a7.358 7.358 0 0 0-.222-.013c-.078-.003-.156 0-.234-.003l-.35-.006c-.84-.005-1.678.011-2.516.047M574.718 251.01c-.057.001-.159.012-.232.01-.135-.008-.225 0-.37-.006-1.107.005-2.215-.026-3.32.056-.053 0-.105.009-.157.01" style="fill:#000;stroke:#000;stroke-width:.3375;stroke-linecap:square;stroke-linejoin:round;stroke-miterlimit:2;stroke-dasharray:none;stroke-opacity:1" transform="translate(-100.52 -.182)"/><path d="M580.325 247.145c-.477-.244-1.03-.028-1.47.205-.774.41-1.431 1.124-1.592 2.003-.25 1.218.614 2.532 1.83 2.792.749.187 1.556.038 2.213-.359.535-.287.99-.8 1.036-1.428.118-.859-.082-1.792-.684-2.439-.41-.442-.946-.825-1.558-.898-.1-.005-.204-.01-.301.018" style="fill:none;stroke:#000;stroke-width:.3375;stroke-linecap:square;stroke-linejoin:round;stroke-miterlimit:2;stroke-dasharray:none;stroke-opacity:1" transform="translate(-100.52 -.182)"/></svg>