<svg xmlns="http://www.w3.org/2000/svg" xmlns:xlink="http://www.w3.org/1999/xlink" width="318.715" height="165.683" viewBox="0 -788 26808.419 13936.262"><defs><path id="a" stroke-width="1" d="m463 111 13-11C401 9 377-10 337-10c-28 0-40 12-40 41 0 25 2 33 23 115C245 33 187-11 117-11 61-11 17 29 17 105c0 155 153 336 286 336 43 0 72-21 80-58l11 48 3 3 61 7 7-3c-2-9-3-11-6-21-47-171-89-343-89-363 0-7 6-13 14-13 9 0 22 8 52 41zm-98 250c0 35-21 58-56 58-45 0-89-31-131-92-42-63-77-152-77-215 0-55 24-74 60-74 50 0 97 55 127 98 47 68 77 154 77 225z"/><path id="b" stroke-width="1" d="M636 220H375V-41h-66v261H48v66h261v261h66V286h261z"/><path id="c" stroke-width="1" d="M163 290h1c68 113 123 151 193 151 67 0 116-43 116-120 0-158-165-332-320-332C96-11 23 12 23 42v6l142 523c6 24 9 38 9 47 0 22-5 23-64 25v17c67 8 103 14 153 23l5-5-21-82zm225 16c0 61-26 86-70 86-48 0-94-42-137-115-44-74-72-171-72-231 0-23 15-34 46-34 43 0 86 21 123 59 60 62 110 161 110 235z"/><path id="d" stroke-width="1" d="M621 220H64v66h557z"/><path id="e" stroke-width="1" d="m350 107 16-10C305 20 252-11 177-11 84-11 30 41 30 143c0 93 52 180 123 237 49 39 106 61 167 61s105-34 105-81c0-27-22-48-48-48-28 0-39 20-39 40 0 18 15 29 15 48 0 12-14 20-37 20-40 0-80-18-109-48-56-59-91-144-91-233 0-72 32-114 89-114 53 0 91 25 145 82z"/><path id="f" stroke-width="1" d="m61 510-16 4c29 95 92 162 196 162 93 0 156-55 156-137 0-48-26-98-93-138 44-19 62-31 83-53 28-31 44-77 44-129 0-53-17-102-46-140-48-64-143-93-232-93C80-14 41 7 41 43c0 21 18 36 41 36 17 0 33-6 61-26 37-26 58-31 86-31 74 0 130 68 130 153 0 76-35 125-104 145-22 7-45 10-102 10v14c38 13 64 24 84 36 49 28 81 73 81 134 0 68-42 102-108 102-62 0-108-32-149-106z"/><path id="g" stroke-width="1" d="M637 320H48v66h589zm0-200H48v66h589z"/><path id="h" stroke-width="1" d="M476 330c0-172-63-344-226-344C79-14 24 172 24 336c0 177 69 340 230 340 131 0 222-141 222-346Zm-96-5c0 208-44 325-132 325-83 0-128-118-128-321S164 12 250 12c85 0 130 115 130 313z"/><path id="i" stroke-width="1" d="M474 137 420 0H29v12l178 189c94 99 130 175 130 260 0 91-54 141-139 141-72 0-107-32-147-130l-21 5c21 117 85 199 208 199 113 0 185-77 185-176 0-79-39-154-128-248L130 76h234c42 0 63 11 96 67z"/></defs><path d="M9376.271 4564.56c-308.014 50.947-716.652 190.36-1006.258 380.597-1293.596 849.734-1432.832 2502.55-600.52 3542.822 338.46 423.027 907.914 854.647 1538.097 1045.848 509.95 154.722 1297.578 202.844 1684.331 81.616 14.279-46.167-35.94-78.048-90.818-70.21 64.528 173.6 165.278 318.289 258.08 424.497 387.87 443.902 888.592 777.612 1326.775 926.136 820.219 278.019 1804.616 344.884 2564.1 170.535 478.774-109.909 1044.549-421.74 1318.514-686.238 58.475-88.374-205.652-58.258-30.353 50.187 380.179 269.226 909.894 409.663 1260.352 448.633 724.242 80.529 1537.464 16.004 2222.729-242.622 774.439-292.28 1396.155-815.257 1638.996-1456.095 40.315-106.389 73.2-183.259 66.629-264.008 7.218-69.861-142.781-18.28-64.473 16.517 201.533 89.55 603.787 33.79 690.347 21.016 1328.466-196.055 2294.573-1236.46 2156.152-2555.082-75.555-719.752-436.622-1247.728-845.766-1582.59-291.181-238.315-623.672-348.405-885.427-377.552l100.036 37.545c26.721-79.115 34.197-182.598 15.626-392.356-32.472-366.806-311.795-938.631-703.168-1330.755-592.051-593.181-1382.581-972.215-2247.787-949.207-464.261 12.347-921.681 224.425-1016.083 353.213-64.51 74.657 171.565 117.672 26.498-23.85-295.425-340.078-681.056-608.944-1003.065-757.008-899.217-405.94-1889.319-416.437-2816.04-170.475-631.775 167.681-1181.011 580.412-1409.98 949.718-61.216 98.735-109.164 204.555-139.712 322.677-42.039 162.555 172.636 52.648 17.373-19.205-56.694-26.237-121.516-48.63-170.736-64.798-302.426-99.346-690.955-158.423-1038.278-153.126-629.836 9.606-1214.68 128.119-1762.332 487.14-439.566 288.165-802.858 656.705-1000.488 1087.325-102.625 223.612-212.392 591.084-226.512 836.133" style="fill:#dbf5ff;fill-opacity:1;stroke:#000;stroke-width:73.1196;stroke-linecap:square;stroke-miterlimit:4;stroke-dasharray:none;stroke-opacity:1"/><path d="M-33108.596 22877.317c66.009 154.384 205.874 337.104 337.657 465.198 409.086 395.821 918.59 655.813 1358.148 772.413 822.797 218.257 1785.774 222.89 2564.615-24.014 457.655-145.083 941.421-391.9 1191.841-605.572 119.762-102.187-79.452-74.82-25.457-20.825 319.347 319.345 768.046 553.593 1195.935 654.864 689.306 163.142 1485.922 180.795 2184.525-13.07 789.514-219.092 1462.735-692.741 1785.34-1328.585 49.573-95.139 90.31-192.197 106.266-290.716 12.453-54.613-125.629 16.156-40.689 31.587 162.244 30.852 368.119 41.039 448.66 42.669 623.293 12.611 1221.375-412.369 1497.639-764.045 347.932-442.913 517.511-938.107 543.487-1458.802 36.201-725.611-227.81-1271.615-586.329-1662.849-205.536-224.294-595.044-421.216-856.837-437.632-86.864-5.448 50.038 121.471 67.887 44.902 18.722-80.313 35.403-174.301 24.43-382.224-19.188-363.599-272.49-938.234-641.376-1339.112-558.03-606.422-1317.245-1007.998-2163.132-1014.812-453.894-3.657-893.358 203.172-1004.535 314.349-57.046 57.045 82.387 60.193 26.696-22.666-221.751-329.931-565.56-608.046-953.897-782.36-881.593-395.724-1831.195-476.07-2744.781-264.656-622.824 144.129-1173.394 533.241-1409.656 890.38-63.167 95.482-126.626 187.356-164.326 301.832-23.052 70.001 44.55 1.203 15.877-11.686-55.814-25.09-98.445-46.632-145.969-64.292-292.005-108.507-669.487-180.159-1008.921-186.788-615.527-12.02-1190.83 85.121-1738.018 421.211-439.194 269.759-806.634 621.552-1014.379 1040.353-99.681 200.949-213.096 482.513-242.3 752.228-12.411 114.627 77.405 5.146 29.407 11.482-292.213 38.576-595.001 153.031-860.683 316.554-1292.56 795.547-1485.016 2424.155-707.577 3480.614 316.146 429.609 943.954 858.42 1560.184 1046.181 367.281 111.908 962.032 191.307 1340.837 164.737 40.751-2.858 141.982-12.309 255.461-27.214" style="fill:#dbf5ff;fill-opacity:1;stroke:#000;stroke-width:63.5902;stroke-linecap:square;stroke-miterlimit:4;stroke-dasharray:none;stroke-opacity:1"/><path d="M49302.718-14066.916c34.441-281.749 67.246-520.902 139.788-709.108 176.259-448.669 271.658-504.434 574.11-884.379 462.106-387.76 523.837-491.148 1086.917-740.645 715.907-317.214 1499.637-428.995 2267.785-443.055 271.899-4.977 543.645 17.131 815.468 25.696 263.168 32.112 527.763 52.656 789.504 96.335 246.093 41.067 490.439 95.207 732.656 157.678 573.874 148.009 1148.663 354.301 1661.019 676.502 119.828 75.356 229.319 168.494 343.977 252.74 174.769 180.629 264.936 241.569 377.201 461.374 90.602 177.388 43.06 136.218 72.714 294.21 15.554 82.869 11.574 73.955 41.937 41.1 26.476-29.199 50.494-61.271 79.429-87.596 345.09-313.964 819.236-459.004 1260.619-501.95 185.888-18.087 373.213-7.461 559.819-11.191 540.748 86.646 721.045 77.031 1234.892 320.247 632.525 299.39 1176.717 786.944 1561.256 1408.09 129.086 208.513 220.428 441.65 330.642 662.475 70.563 241.315 161.637 476.701 211.685 723.944 198.731 981.754 70.991 2047.968-354.982 2940.89-108.845 228.158-253.378 434.218-380.066 651.328-444.436 544.667-520.121 697.326-1074.5 1130.166-682.009 532.49-1469.016 890.58-2270.186 1151.31-285.199 92.813-576.91 160.351-865.366 240.528-292.117 57.561-582.723 124.954-876.349 172.684-1240.449 201.642-2504.518 218.524-3746.813 27.693-447.446-83.585-586.425-98.825-1013.021-217.254-322.15-89.434-649.88-198.098-936.723-385.532-58.193-38.025-110.347-85.946-165.521-128.92-65.341-83.002-125.335-130.72-139.953-242.829-14.401-110.446 57.402-205.857 139.136-258.303 22.6-14.502 48.808-21.075 73.213-31.613 12.326-3.886 25.947-18.76 36.978-11.656 9.347 6.023 5.869 25.58-.234 35.31-18.858 29.964-43.874 55.571-70.655 77.356-236.046 192.004-530.754 277.268-804.737 378.742-470.833 126.328-603.197 180.41-1108.488 231.256-717.257 72.177-1453.331 34.814-2159.152-123.439-240.657-53.958-474.846-137.425-712.269-206.138-535.733-246.222-771.71-308.298-1231.479-699.488-527.313-448.658-915.73-1057.828-1033.432-1782.245-40.915-251.815-20.927-510.852-31.39-766.278 148.909-728.97 134.992-980.826 544.754-1624.108 168.409-264.384 377.326-498.143 594.094-717.448 441.263-446.428 948.638-797.512 1490.584-1081.272 246.686-129.164 508.672-220.876 763.008-331.314 231.068-64.517 459.217-142.83 693.206-193.553 194.98-42.266 393.281-66.177 591.381-84.911 164.559-15.561 330.106-19.795 495.282-17.851 239.368 2.818 478.796 27.969 703.323 121.096" style="fill:#d5fff6;stroke:#000;stroke-width:63.5822;stroke-linecap:square;stroke-miterlimit:4;stroke-dasharray:none;stroke-opacity:1"/><g style="stroke-width:1.00503" transform="matrix(.995 0 0 .995 77.257 115.015)"><use xlink:href="#a" width="100%" height="100%" style="stroke-width:1.00503" transform="matrix(1 0 0 -1 11747.709 4941.84)"/><use xlink:href="#b" width="100%" height="100%" x="723" style="stroke-width:1.00503" transform="matrix(1 0 0 -1 12521.66 4941.84)"/><use xlink:href="#c" width="100%" height="100%" x="1631" style="stroke-width:1.00503" transform="matrix(1 0 0 -1 12412.723 4941.84)"/><use xlink:href="#d" width="100%" height="100%" x="2354" style="stroke-width:1.00503" transform="matrix(1 0 0 -1 13014.663 4941.84)"/><use xlink:href="#e" width="100%" height="100%" x="3261" style="stroke-width:1.00503" transform="matrix(1 0 0 -1 12849.911 4941.84)"/><use xlink:href="#d" width="100%" height="100%" x="3928" style="stroke-width:1.00503" transform="matrix(1 0 0 -1 13230.544 4941.84)"/><use xlink:href="#f" width="100%" height="100%" x="4836" style="stroke-width:1.00503" transform="matrix(1 0 0 -1 13007.543 4941.84)"/><use xlink:href="#g" width="100%" height="100%" x="5614" style="stroke-width:1.00503" transform="matrix(1 0 0 -1 13556.66 4941.84)"/><use xlink:href="#h" width="100%" height="100%" x="6577" style="stroke-width:1.00503" transform="matrix(1 0 0 -1 14096.554 4941.84)"/><use xlink:href="#d" width="100%" height="100%" x="9300" style="stroke-width:1.00503" transform="matrix(1 0 0 -1 1733.017 6289.944)"/><use xlink:href="#a" width="100%" height="100%" x="10208" style="stroke-width:1.00503" transform="matrix(1 0 0 -1 1535.024 6289.944)"/><use xlink:href="#d" width="100%" height="100%" x="10932" style="stroke-width:1.00503" transform="matrix(1 0 0 -1 1839.037 6289.944)"/><use xlink:href="#i" width="100%" height="100%" x="11839" style="stroke-width:1.00503" transform="matrix(1 0 0 -1 1715.473 6289.944)"/><use xlink:href="#c" width="100%" height="100%" x="12340" style="stroke-width:1.00503" transform="matrix(1 0 0 -1 1715.473 6289.944)"/><use xlink:href="#d" width="100%" height="100%" x="13063" style="stroke-width:1.00503" transform="matrix(1 0 0 -1 2304.352 6289.944)"/><use xlink:href="#e" width="100%" height="100%" x="13970" style="stroke-width:1.00503" transform="matrix(1 0 0 -1 2139.975 6289.944)"/><use xlink:href="#g" width="100%" height="100%" x="14693" style="stroke-width:1.00503" transform="matrix(1 0 0 -1 4478.192 6289.944)"/><use xlink:href="#h" width="100%" height="100%" x="15656" style="stroke-width:1.00503" transform="matrix(1 0 0 -1 5018.086 6289.944)"/><use xlink:href="#d" width="100%" height="100%" x="18379" style="stroke-width:1.00503" transform="matrix(1 0 0 -1 -5117.782 8087.419)"/><use xlink:href="#c" width="100%" height="100%" x="19286" style="stroke-width:1.00503" transform="matrix(1 0 0 -1 -5229.283 8087.419)"/><use xlink:href="#d" width="100%" height="100%" x="20009" style="stroke-width:1.00503" transform="matrix(1 0 0 -1 -5152.567 8087.419)"/><use xlink:href="#i" width="100%" height="100%" x="20917" style="stroke-width:1.00503" transform="matrix(1 0 0 -1 -5308.355 8087.419)"/><use xlink:href="#e" width="100%" height="100%" x="21417" style="stroke-width:1.00503" transform="matrix(1 0 0 -1 -5308.355 8087.419)"/><use xlink:href="#d" width="100%" height="100%" x="22084" style="stroke-width:1.00503" transform="matrix(1 0 0 -1 -4926.494 8087.419)"/><use xlink:href="#f" width="100%" height="100%" x="22992" style="stroke-width:1.00503" transform="matrix(1 0 0 -1 -5149.238 8087.419)"/><use xlink:href="#g" width="100%" height="100%" x="23770" style="stroke-width:1.00503" transform="matrix(1 0 0 -1 -4597.231 8087.419)"/><use xlink:href="#h" width="100%" height="100%" x="24733" style="stroke-width:1.00503" transform="matrix(1 0 0 -1 -4057.337 8087.419)"/><path d="M21808.304 6919.629H9094.337v-66h12713.967Z"/><use xlink:href="#g" width="100%" height="100%" x="23770" style="stroke-width:1.00503" transform="matrix(1 0 0 -1 -14694.209 8087.419)"/><use xlink:href="#b" width="100%" height="100%" x="723" style="fill:#000;stroke-width:1.00503" transform="matrix(1 0 0 -1 8361.352 6289.88)"/><path stroke-width=".991" d="m10804.346 6402.641-11.896 15.86c-156.619-89.213-241.867-256.736-241.867-425.25 0-183.383 86.24-326.125 244.841-420.295l8.922 15.86c-137.786 117.96-168.515 210.148-168.515 401.461 0 184.374 29.738 296.387 168.515 412.364z" style="stroke:#000;stroke-width:12.7803;stroke-miterlimit:4;stroke-dasharray:none;stroke-opacity:1"/><use xlink:href="#d" width="100%" height="100%" x="9411" style="stroke-width:1.00503" transform="matrix(.01178 0 0 -.01178 10607.802 6233.762)"/><use xlink:href="#a" width="100%" height="100%" x="10097" style="stroke-width:1.00503" transform="matrix(.01178 0 0 -.01178 10607.802 6233.762)"/><use xlink:href="#d" width="100%" height="100%" x="10821" style="stroke-width:1.00503" transform="matrix(.01178 0 0 -.01178 10607.802 6233.762)"/><use xlink:href="#i" width="100%" height="100%" x="11728" style="stroke-width:1.00503" transform="matrix(.01178 0 0 -.01178 10607.802 6233.762)"/><use xlink:href="#c" width="100%" height="100%" x="12229" style="stroke-width:1.00503" transform="matrix(.01178 0 0 -.01178 10607.802 6233.762)"/><use xlink:href="#d" width="100%" height="100%" x="12952" style="stroke-width:1.00503" transform="matrix(.01178 0 0 -.01178 10607.802 6233.762)"/><use xlink:href="#e" width="100%" height="100%" x="13859" style="stroke-width:1.00503" transform="matrix(.01178 0 0 -.01178 10607.802 6233.762)"/><use xlink:href="#g" width="100%" height="100%" x="14582" style="stroke-width:1.00503" transform="matrix(.01178 0 0 -.01178 10607.802 6233.762)"/><use xlink:href="#h" width="100%" height="100%" x="15545" style="stroke-width:1.00503" transform="matrix(.01178 0 0 -.01178 10607.802 6233.762)"/><path stroke-width=".991" d="m21481.89 5580.106 11.895-15.86c151.663 91.196 241.868 256.737 241.868 425.25 0 183.384-87.231 324.143-244.842 420.295l-8.921-15.86c140.759-115.977 168.514-209.156 168.514-401.46 0-185.366-24.781-299.36-168.514-412.365z" style="stroke:#000;stroke-width:12.7803;stroke-miterlimit:4;stroke-dasharray:none;stroke-opacity:1"/></g><path d="M15047.168-8457.752c-76.762-18.029-154.33-32.914-230.284-54.086-630.603-175.777-1259.079-464.855-1776.374-869.44-157.6-123.26-296.691-268.51-445.036-402.767-122.882-155.2-260.56-299.757-368.648-465.601-298.207-457.554-485.618-1007.121-495.415-1555.512-8.114-454.226 62.493-568.863 190.887-998.958 83.082-162.099 152.842-331.751 249.247-486.299 443.152-710.427 1195.184-1354.466 1894.187-1801.935 217.638-139.321 447.661-258.274 671.492-387.412 259.995-118.588 514.555-249.904 779.988-355.764 1286.743-513.177 2671.913-760.637 4048.589-862.316 387.443-28.616 776.284-33.272 1164.426-49.908 392.932 6.409 786.218 1.405 1178.798 19.226 1453.122 65.965 2932.406 281.271 4328.226 697.721 296.597 88.491 585.994 199.533 878.99 299.3 256.42 117.618 520.092 220.565 769.26 352.854 644.088 341.964 1215.395 797.258 1679.157 1360.838 361.801 439.673 400.869 570.636 662.712 1062.756 65.477 180.29 143.738 356.438 196.431 540.869 133.074 465.774 173.599 965.784 86.048 1444.009-65.332 356.867-127.688 439.757-276.661 762.856-72.999 111.084-139.234 226.92-218.995 333.253-338.379 451.112-790.013 804.223-1261.078 1106.612-127.621 81.923-259.574 156.893-389.362 235.34-683.311 385.622-1414.014 683.456-2171.046 889.328-161.948 44.04-325.9 80.358-488.85 120.536-673.827 147.245-1359.655 238.406-2048.455 273.357-507.09 25.73-691.494 18.872-1211.931 19.129-1247.516-19.706-2496.957-99.02-3732.8-275.417-228.949-32.68-456.583-73.992-684.874-110.988-821.433-157.37-424.104-75.212-1192.403-244.463l-8.584 27.768v0c769.259 169.41 371.446 87.167 1193.852 244.72 228.603 37.052 456.549 78.42 685.811 111.152 1236.897 176.59 2487.397 256.046 3735.978 276.05 521.614-.167 705.479 6.789 1213.724-18.87 690.306-34.852 1377.627-126.113 2052.96-273.48 163.37-40.228 327.742-76.585 490.11-120.686 762.163-207.007 1497.814-506.838 2185.297-895.784 130.151-78.76 262.488-154.02 390.455-236.283 473.704-304.52 927.607-660.375 1267.288-1114.765 80.359-107.496 147.023-224.58 220.534-336.871 150.041-327.019 212.666-410.449 278.222-771.383 87.579-482.183 46.345-986.086-88.109-1455.523-53.149-185.568-131.997-362.793-197.995-544.189-263.464-494.655-302.874-626.416-666.691-1068.293-466.071-566.072-1040.07-1023.402-1687.176-1366.911-249.951-132.684-514.449-235.934-771.673-353.901-293.595-99.962-583.585-211.215-880.786-299.885-1397.764-417.023-2879.068-632.707-4334.208-698.901-393.079-17.881-786.866-12.921-1180.299-19.381-388.674 16.603-778.046 21.218-1166.022 49.809-1379.437 101.657-2767.333 349.387-4056.814 863.11-266.234 106.066-521.581 237.644-782.371 356.466-227.074 131.172-460.4 252.072-681.222 393.516-702.017 449.664-1457.126 1097.902-1901.219 1812.127-97.015 156.027-167.105 327.262-250.658 490.893-129.043 435.059-199.965 550.388-191.136 1009.59 10.635 553.194 200.055 1107.17 501.143 1568.587 108.964 166.988 247.688 312.544 371.531 468.815 149.305 135.07 289.318 281.183 447.914 405.212 519.8 406.51 1151.066 697.038 1784.57 874.116 76.418 21.361 154.457 36.428 231.685 54.642l7.663-28.585z" style="fill:#ececec;stroke:#ececec;stroke-width:12.7164;stroke-linecap:square;stroke-miterlimit:4;stroke-dasharray:none;stroke-opacity:1"/><path d="M37523.646 2783.763c13.644-129.228 26.612-260.188 54.944-366.993 19.136-63.218 35.279-127.421 57.409-189.654 128.236-360.623 326.888-702.45 587.845-983.41 77.264-83.186 164.62-156.394 246.929-234.59 225.378-161.647 341.517-255.288 588.487-389.11 417.366-226.151 874.103-365.481 1338.242-455.82 263.758-34.326 400.1-62.692 664.23-56.764 93.375 2.095 186.249 14.835 279.02 25.648 254.45 29.655 506.652 75.816 750.666 155.293 239.719 94.456 495.009 192.562 671.418 388.717-5.501 5.12-9.144 13.807-16.494 15.361-71.794 15.182-149.486-56.087-182.768-109.365-20.095-32.167-38.616-67.668-43.014-105.34-5.325-45.634 9.81-91.363 14.714-137.044 24.516-53.287 42.354-110.187 73.548-159.86 77.704-123.738 208.073-252.51 316.375-345.812 214.039-184.395 448.989-323.792 711.175-428.776 218.775-73.867 293.219-105.219 519.489-156.505 365.275-82.793 742.309-118.353 1116.338-115.58 207.015 12.618 297.549 13.627 502.094 43.814 295.509 43.611 585.661 123.702 861.741 237.454 168.989 72.22 337.814 141.135 489.93 246.074 71.127 49.068 134.365 97.636 186.574 166.723 17.572 23.251 29.04 50.538 43.56 75.808 3.347 32.505 16.151 85.091-5.661 117.291-9.203 13.59-25.74 21.165-40.941 27.352-73.547 29.938-143.459-.923-210.622-31.644-69.454-49.168-157.682-109.033-175.974-200.826-24.482-122.853 88.652-192.092 176.353-245.064 56.522-18.365 111.616-41.916 169.567-55.094 398.187-90.545 827.98-27.602 1215.793 80.093 134.206 37.268 264.462 87.522 396.692 131.283 369.446 148.386 520.303 199.812 881.449 383.86 148.051 75.45 292.622 157.676 436.158 241.4 417.689 243.64 818.563 515.095 1193.848 820.386 262.534 224.423 427.925 355.358 668.715 602.172 296.851 304.278 540.905 647.13 729.674 1027.71 79.705 178.996 91.92 181.018 132.888 353 21.034 88.298 48.709 204.401 4.534 292.517-5.4 10.776-16.958 17.137-25.437 25.706-10.16 1.457-20.496 6.753-30.479 4.372-40.114-9.568-61.965-66.735-56.849-103 7.015-49.702 31.361-67.478 62.098-103.788 44.33-26.653 65.118-46.803 120.29-47.942 147.122-3.038 254.019 184.017 322.243 286.243 88.54 170.168 122.896 218.412 180.755 411.216 83.887 279.537 126.988 598.286 109.711 889.591-6.191 104.38-26.438 207.45-39.658 311.175-24.842 101.978-44.697 205.3-74.527 305.933-50.361 169.893-148.5 415.964-226.982 573.925-129.814 261.277-301.451 498.374-476.257 730.643-59.644 71.735-116.644 145.753-178.931 215.206-55.615 62.013-114.681 120.91-174.498 178.878-157.326 152.466-327.318 299.06-521.474 403.49-49.518 26.634-102.786 45.613-154.18 68.42-135.06 40.33-230.299 82.031-369.41 30.675-45.975-16.974-86.161-35.178-87.179-91.177-.421-21.962 12.698-42.057 19.047-63.086 13.995-20.937 25.921-43.417 41.988-62.81 67.912-81.973 168.435-123.479 273.867-118.953 7.671 2.204 24.157 4.046 27.898 14.554 15.214 42.725-35.655 166.572-44.512 203.98-15.288 37.578-28.792 75.933-45.866 112.735-175.033 377.292-454.103 692.284-756.18 973.165-242.62 197.437-324.656 277.22-595.515 443.228-214.063 131.198-479.733 262.268-713.834 351.946-300.364 115.06-486.073 151.853-798.978 230.915-340.729 54.157-463.17 81.465-805.756 105.19-406.63 28.16-815.548 1.397-1215.297-77.912-70.836-19.38-142.777-35.098-212.508-58.14-100.383-33.17-249.739-97.035-338.672-157.973-58.604-40.156-140.718-119.358-170.089-189.42-11.403-27.197-8.566-58.358-12.848-87.538 7.511-26.068 9.714-54.293 22.529-78.204 56.796-105.972 208.727-152.682 319.894-159.534 24.845-1.53 49.753 1.742 74.631 2.616 14.108 5.45 30.18 7.327 42.325 16.339 25.238 18.73 20.335 49.174 6.434 73.377-59.785 104.097-197.565 162.992-288.925 228.405-69.983 36.745-138.636 76.143-209.948 110.233-211.799 101.248-391.998 171.045-616.535 247.91-423.905 145.116-857.547 260.463-1300.179 332.265-401.04 62.292-552.53 95.446-955.885 120.408-558.707 34.576-1119.961-3.945-1671.661-94.511-128.731-24.618-258.198-45.665-386.195-73.855-270.528-59.581-445.22-111.495-705.719-198.93-206.175-69.202-442.553-155.306-642.359-244.098-83.872-37.272-164.841-80.758-247.262-121.137-183.239-100.938-245.908-126.908-407.354-245.163-109.456-80.173-237.469-183.1-287.961-315.675-10.859-28.512-10.232-60.155-15.348-90.233 2.095-28.127-.866-57.097 6.284-84.38 6.662-25.41 20.799-48.429 34.419-70.889 48.344-79.715 121.96-139.095 213.571-159.024 12.556-.984 25.127-4.113 37.669-2.952 7.242.673 14.037 4.416 20.186 8.302 39.22 24.813-5.829 74.172-21.37 97.214-13.961 15.195-26.61 31.71-41.883 45.584-188.753 171.462-453.117 202.197-696.691 216.02-89.56-3.08-179.461-.85-268.683-9.233-205.407-19.288-431.469-66.463-628.825-122.777-256.412-73.165-426.657-135.725-660.57-263.07-101.616-55.32-196.546-122.124-294.82-183.186-231.831-188.112-299.432-228.768-502.513-451.236-322.21-352.97-566.539-766.798-739.552-1211.208-37.176-115.94-80.726-230.025-111.529-347.817-53.33-203.944-102.825-510.367-108.845-720.098-6.452-224.754 25.317-493.532 79.608-711.48 28.37-113.89 72.555-223.247 108.832-334.871 114.762-263.173 169.406-417.548 327.552-660.875 121.292-186.623 294.917-385.748 460.371-534.408 186.929-167.955 352.666-266.644 561.23-404.78 96.165-49.294 189.526-104.491 288.496-147.881 83.694-36.694 171.462-63.417 258.311-91.85 208.665-68.311 423.005-124.873 642.024-146.49M38581.761 14825.738c-220.861 21.024-437.069 78.153-647.427 146.895-87.17 28.487-175.246 55.293-259.267 92.044-99.741 43.626-193.896 99.048-290.844 148.572-212.899 140.618-379.365 238.982-569.625 410.124-166.44 149.716-341.217 350.316-463.226 538.202-159.026 244.89-213.975 400.15-329.358 664.894-36.444 112.199-80.838 222.121-109.331 336.599-54.634 219.504-86.631 490.024-80.144 716.384 6.052 211.152 55.707 519.238 109.396 724.643 30.963 118.455 74.738 233.185 112.107 349.778 173.794 446.626 419.236 862.548 742.911 1217.365 204.142 223.783 272.002 264.628 505.048 453.907 98.889 61.536 194.41 128.847 296.667 184.607 235.099 128.198 406.69 191.406 664.448 265.16 198.121 56.691 425.603 104.255 631.837 123.827 89.892 8.532 180.476 6.435 270.715 9.656 249.714-13.924 521.519-45.7 714.714-222.162 15.965-14.582 29.188-31.908 43.781-47.862 24.705-34.082 64.551-85.485 20.517-122.605-7.554-6.367-16.684-11.722-26.412-13.46-15.185-2.716-30.85.337-46.275.505-99.519 19.993-180.733 83.044-233.139 169.514-14.221 23.465-28.93 47.533-35.909 74.068-7.764 29.519-5.047 60.836-7.571 91.254 5.258 31.608 4.543 64.814 15.778 94.823 51.581 137.829 181.016 243.62 294.713 327.111 161.858 118.856 226.521 145.878 410.123 247.097 82.679 40.528 163.902 84.175 248.038 121.583 200.683 89.226 437.169 175.399 644.299 244.956 261.114 87.686 436.185 139.749 707.383 199.549 128.331 28.297 258.135 49.433 387.203 74.15 552.966 90.878 1115.525 129.664 1675.545 95.168 404.455-24.913 556.177-58.079 958.274-120.417 443.573-71.839 878.161-187.291 1303.026-332.484 225.004-76.893 406.147-146.962 618.503-248.205 71.713-34.19 140.774-73.686 211.161-110.529 43.214-27.762 405.907-226.37 294.264-331.325-13.828-12.999-34.094-16.685-51.141-25.027-27.08-1.573-54.141-5.947-81.239-4.728-118.282 5.333-280.156 57.333-340.54 168.893-14.125 26.095-16.963 56.87-25.444 85.306 4.248 31.827.757 65.679 12.748 95.481 30.291 75.507 112.929 156.983 176.274 200.808 90.767 62.796 241.135 127.487 344.113 161.658 70.356 23.346 142.96 39.275 214.44 58.913 401.512 80.016 812.307 107.029 1220.803 78.911 343.367-23.634 466.579-51.045 808.044-105.201 314.389-79.23 500.124-115.863 801.899-231.227 235.059-89.86 502.171-221.228 717.142-352.821 278.567-170.523 355.354-246.371 603.649-448.578 303.895-282.749 584.483-599.879 760.478-979.604 17.28-37.285 30.95-76.139 46.426-114.209 9.973-41.291 61.347-165.542 45.413-212.259-7.68-22.518-20.675-23.032-40.087-31.469-114.67-9.553-224.199 37.28-298.958 125.06-17.202 20.197-29.456 44.131-44.185 66.195-6.973 22.758-21.123 44.472-20.925 68.274.589 65.841 40.156 89.933 96.122 113.085 31.261 12.932 64.617 22.439 98.345 25.071 43.394 3.389 87.571.673 130.378-7.226 53.075-9.773 103.605-30.265 155.409-45.398 52.181-22.98 106.28-42.02 156.542-68.94 198.43-106.281 371.269-254.496 531.864-410.309 60.033-58.245 119.331-117.399 175.144-179.699 62.579-69.852 119.832-144.295 179.748-216.443 175.387-233.241 347.616-471.288 477.83-733.63 78.72-158.595 177.489-406.368 228.013-576.969 29.981-101.233 49.934-205.17 74.9-307.755 13.297-104.416 33.665-208.172 39.892-313.246 17.392-293.505-25.877-614.526-110.329-896.202-58.437-194.908-92.967-243.424-182.355-415.546-73.809-110.416-178.758-295.357-335.08-296.759-62.703-.564-87.336 22.548-139.09 51.893-57.235 59.412-104.154 138.768-39.915 214.46 9.384 11.058 21.553 20.888 35.345 25.37 13.326 4.332 28.023-.143 42.035-.218 14.073-10.949 32.735-17.748 42.219-32.848 52.411-83.443 20.055-226.527.06-310.826-41.046-173.069-54.35-177.28-134.381-357.154-189.644-382.289-434.749-726.761-732.918-1032.446-241.345-247.428-407.423-378.962-670.518-603.906-375.998-305.942-777.649-577.964-1196.143-822.137-143.763-83.879-288.563-166.257-436.847-241.856-362.044-184.58-513.092-236.128-883.417-384.996-132.573-43.934-263.168-94.362-397.72-131.8-392.552-109.224-821.132-172.425-1224.313-81.866-58.936 13.237-115.036 36.898-172.553 55.346-98.765 59.503-217.874 126.87-193.622 265.212 10.403 59.335 62.571 122.758 105.158 161.099 24.047 21.648 52.586 37.715 78.878 56.572 71.297 33.398 146.186 65.912 225.16 36.031 19.397-7.339 40.578-15.917 53.074-32.47 30.474-40.366 16.56-92.308 12.587-135.964-15.364-27.732-27.285-57.672-46.09-83.196-52.091-70.704-119.827-122.851-191.423-172.446-153.214-106.132-323.525-175.716-493.914-248.601-277.329-114.335-568.771-194.954-865.622-238.921-205.721-30.47-296.123-31.485-504.298-44.266-375.554-3.073-754.117 32.504-1120.932 115.383-227.826 51.476-301.785 82.633-522.062 156.819-267.857 107.4-503.557 246.163-722.234 434.785-109.254 94.239-240.879 224.436-319.19 349.353-31.929 50.932-50.305 109.195-75.457 163.792-5.3 47.652-21.211 95.304-15.901 142.955 10.763 96.598 130.191 257.212 243.135 236.336 13.231-2.445 23.019-13.937 34.528-20.905-9.395-20.008-14.767-42.458-28.185-60.023-33.625-44.017-123.753-107.999-164.878-133.678-79.597-49.701-217.652-120.29-302.074-157.134-59.749-26.077-121.277-47.873-181.915-71.81-245.329-80.177-498.955-126.707-754.842-156.643-93.062-10.887-186.228-23.679-279.9-25.84-267.132-6.163-401.553 21.953-668.322 56.48-466.016 90.463-924.849 229.838-1343.986 456.722-254.972 138.019-365.207 227.739-596.858 394.015-82.884 78.826-170.848 152.632-248.651 236.476-262.623 283.017-462.59 627.251-591.648 990.386-22.302 62.751-38.574 127.484-57.862 191.226-32.991 121.617-46.896 246.022-55.537 371.169" style="fill:#d5fff6;stroke:#000;stroke-width:63.5823;stroke-linecap:square;stroke-miterlimit:4;stroke-dasharray:none;stroke-opacity:1"/><path d="M22921.913 23801.361c-17.202 20.197-29.456 44.131-44.185 66.195-6.973 22.758-21.123 44.472-20.925 68.274.589 65.841 40.156 89.933 96.122 113.085 31.261 12.932 64.617 22.439 98.345 25.071 43.394 3.389 87.571.673 130.378-7.226 53.075-9.773 103.605-30.265 155.409-45.398 52.181-22.98 106.28-42.02 156.542-68.94 198.43-106.281 371.269-254.496 531.864-410.309 60.033-58.245 119.331-117.399 175.144-179.699 62.579-69.852 119.832-144.295 179.748-216.443 175.387-233.241 347.616-471.288 477.83-733.63 78.72-158.595 177.489-406.368 228.013-576.969 29.981-101.233 49.934-205.17 74.9-307.755 13.297-104.416 33.665-208.172 39.892-313.246 17.392-293.505-25.877-614.526-110.329-896.202-58.437-194.908-92.967-243.424-182.355-415.546-73.809-110.416-178.758-295.357-335.08-296.759-62.703-.564-87.336 22.548-139.09 51.893-57.235 59.412-104.154 138.768-39.915 214.46 9.384 11.058 21.553 20.888 35.345 25.37 13.326 4.332 28.023-.143 42.035-.218 14.073-10.949 32.735-17.748 42.219-32.848 52.411-83.443 20.055-226.527.06-310.826-41.046-173.069-54.35-177.28-134.381-357.154-189.644-382.289-434.749-726.761-732.918-1032.446-241.345-247.428-407.423-378.962-670.518-603.906-375.998-305.942-777.649-577.964-1196.143-822.137-143.763-83.879-288.563-166.257-436.847-241.856-362.044-184.58-513.092-236.128-883.417-384.996-132.573-43.934-263.168-94.362-397.72-131.8-392.552-109.224-821.132-172.425-1224.313-81.866-58.936 13.237-115.036 36.898-172.553 55.346-98.765 59.503-217.874 126.87-193.622 265.212 10.403 59.335 62.571 122.758 105.158 161.099 24.047 21.648 52.586 37.715 78.878 56.572 71.297 33.398 146.186 65.912 225.16 36.031 19.397-7.339 40.578-15.917 53.074-32.47 30.474-40.366 16.56-92.308 12.587-135.964-15.364-27.732-27.285-57.672-46.09-83.196-52.091-70.704-119.827-122.851-191.423-172.446-153.214-106.132-323.525-175.716-493.914-248.601-277.329-114.335-568.771-194.954-865.622-238.921-205.721-30.47-296.123-31.485-504.298-44.266-375.554-3.073-754.117 32.504-1120.932 115.383-227.826 51.476-301.785 82.634-522.062 156.819-267.857 107.4-503.557 246.163-722.234 434.785-109.254 94.239-240.879 224.436-319.19 349.353-31.929 50.932-50.305 109.195-75.457 163.792-5.3 47.652-21.211 95.304-15.901 142.955 10.763 96.598 130.191 257.212 243.135 236.336 13.231-2.445 23.019-13.937 34.528-20.905-9.395-20.008-14.767-42.458-28.185-60.023-33.625-44.017-123.753-107.999-164.878-133.678-79.597-49.701-217.652-120.29-302.074-157.134-59.749-26.077-121.277-47.873-181.915-71.81-245.329-80.177-498.955-126.707-754.842-156.643-93.062-10.887-186.228-23.679-279.9-25.84-267.132-6.163-401.553 21.953-668.322 56.48-466.016 90.463-924.849 229.838-1343.986 456.722-254.972 138.019-365.207 227.739-596.858 394.015-82.884 78.826-170.848 152.632-248.65 236.476-262.624 283.017-462.59 627.251-591.649 990.386-22.302 62.751-38.574 127.484-57.862 191.226-32.99 121.617-46.896 246.022-55.537 371.169" style="fill:none;stroke:#000;stroke-width:63.5823;stroke-linecap:square;stroke-miterlimit:4;stroke-dasharray:none;stroke-opacity:1" transform="translate(-15140.523 11018.936)"/><path d="M17875.513 25301.699c-118.282 5.333-280.156 57.333-340.54 168.893-14.125 26.095-16.963 56.87-25.444 85.306 4.248 31.827.757 65.679 12.748 95.481 30.291 75.507 112.929 156.983 176.274 200.808 90.767 62.796 241.135 127.487 344.113 161.658 70.356 23.346 142.96 39.275 214.44 58.913 401.512 80.016 812.307 107.029 1220.803 78.911 343.367-23.634 466.579-51.045 808.044-105.201 314.389-79.23 500.124-115.863 801.899-231.227 235.059-89.86 502.171-221.228 717.142-352.821 278.567-170.523 355.354-246.371 603.649-448.578 303.895-282.749 584.483-599.879 760.478-979.604 17.28-37.285 30.95-76.139 46.426-114.209 9.973-41.291 61.347-165.542 45.413-212.259-7.68-22.518-20.675-23.032-40.087-31.469-114.67-9.553-224.199 37.28-298.958 125.06M9225.97 18757.983c-550.138 62.272-1074.54 271.92-1525.228 585.318-615.107 427.73-1019.68 1094.318-1172.09 1799.362-200.04 925.391 86.447 1884.837 677.276 2613.208 456.208 562.411 1163.679 1007.11 1889.393 1146.449 428.733 82.317 959.482 93.442 1353.334-128.232 58.025-47.655 203.873-135.105 140.234-222.558" style="fill:none;stroke:#000;stroke-width:63.5823;stroke-linecap:square;stroke-miterlimit:4;stroke-dasharray:none;stroke-opacity:1" transform="translate(-15140.523 11018.936)"/><path d="M10526.872 24525.065c-291.774 23.662-153.977 472.52 193.051 747.149 573.188 453.609 1347.957 747.653 1973.931 876.794 1171.742 241.735 2551.821 233.693 3620.312-2.955 832.062-184.284 1366.421-514.801 1727.241-954.354 76.732-93.476 123.586-325.007-45.041-287.118" style="fill:none;stroke:#000;stroke-width:63.5823;stroke-linecap:square;stroke-miterlimit:4;stroke-dasharray:none;stroke-opacity:1" transform="translate(-15140.523 11018.936)"/><path d="M-3629.823 17723.688c71.039 29.523 145.567 58.077 221.919 26.794 18.753-7.682 39.211-16.612 50.88-32.874 28.454-39.66 13.004-88.88 7.585-130.511-16.025-26.009-28.754-54.247-48.075-78.026-53.52-65.869-121.723-113.45-193.621-158.458-153.86-96.316-323.198-157.083-492.727-221.004-275.781-99.931-564.215-167.124-856.67-199.066-202.674-22.137-291.304-20.024-495.766-25.154-368.156 9.867-737.91 56.815-1094.5 148.617-221.475 57.018-292.868 89.351-506.152 167.838-258.752 111.888-484.895 252.686-692.613 440.605-103.779 93.888-228.225 222.942-300.608 345.125-29.512 49.817-45.485 106.186-68.228 159.279-3.53 45.771-17.458 91.904-10.59 137.313 13.923 92.052 136.575 241.645 246.532 217.82 12.881-2.789 22.073-14.119 33.108-21.177-9.906-18.821-15.955-40.118-29.718-56.464-34.49-40.968-125.053-99.109-166.253-122.274-79.742-44.837-217.504-107.663-301.526-140.036-59.466-22.91-120.526-41.665-180.788-62.498-243.227-68.343-493.41-104.212-745.229-124.127-91.582-7.242-183.333-16.304-275.209-15.177-262.009 3.213-392.761 34.696-652.993 76.827-453.543 102.441-898.338 251.434-1301.174 482.796-245.056 140.743-349.954 230.341-571.167 397.323-78.474 78.242-162.102 151.856-235.422 234.727-247.488 279.728-431.434 615.89-545.229 967.716-19.664 60.797-33.35 123.285-50.026 184.927-28.083 117.481-37.365 236.98-41.461 357.006M1229.94 20092.946c228-26.237 148.312-491.805 110.275-632.17-179.629-752.027-642.808-1211.405-1139.802-1571.436-661.242-460.945-1429.577-766.04-2311.374-747.774-339.057 26.593-722.562 108.179-1083.54 423.469-217.625 175.704-203.399 454.27-41.085 494.961" style="fill:none;stroke:#000;stroke-width:63.5823;stroke-linecap:square;stroke-miterlimit:4;stroke-dasharray:none;stroke-opacity:1"/><path d="M736.673 24432.27c-17.93 195.184 238.078 249.277 495.37 176.564 620.688-175.412 1255.177-714.104 1514.322-1130.106 326.372-523.926 434.364-1080.51 395.796-1647.327-53.746-789.883-353.899-1158.635-736.38-1562.186-222.18-234.419-589.513-408.581-923.603-442.987-279.144-28.748-404.916 96.512-309.468 248.828" style="fill:none;stroke:#000;stroke-width:63.5822;stroke-linecap:square;stroke-miterlimit:4;stroke-dasharray:none;stroke-opacity:1"/><path d="M-4650.972 26238.048c-128.67 42.998-248.328 204.527-11.577 399.513 319.48 263.121 923.66 359.174 1324.434 384.643 828.23 52.634 1648.08-77.389 2412.73-385.883C10.78 26258.628 765.34 25548.845 962.283 24824.74c39.64-145.74 108.647-578.523-220.632-419.818M-12714.192 20541.378c-499.808 57.626-976.234 251.632-1385.691 541.648-558.833 395.817-926.394 1012.671-1064.86 1665.112-181.74 856.348 78.538 1744.21 615.314 2418.237 414.472 520.451 1057.219 931.97 1716.541 1060.913 389.509 76.175 871.702 86.47 1229.523-118.664 52.716-44.1 185.221-125.025 127.404-205.953" style="fill:none;stroke:#000;stroke-width:63.5823;stroke-linecap:square;stroke-miterlimit:4;stroke-dasharray:none;stroke-opacity:1"/><path d="M-11549.623 25846.022c-272.752 23.662-143.939 472.52 180.466 747.149 535.82 453.609 1260.08 747.653 1845.246 876.794 1095.353 241.735 2385.462 233.693 3384.295-2.955 777.818-184.284 1277.341-514.801 1614.638-954.354 71.73-93.476 115.53-325.007-42.104-287.118" style="fill:none;stroke:#000;stroke-width:63.5823;stroke-linecap:square;stroke-miterlimit:4;stroke-dasharray:none;stroke-opacity:1"/><path d="M23278.32-1718.901c225.295 130.828 257.313-271.141 193.13-509.674-148.195-550.756-401.789-926.857-789.05-1323.742-585.825-600.384-1447.541-1047.528-2242.576-1068.122-529.147-13.707-963.431 260.766-954.304 496.073M-25384.625 10308.464c17.599 36.549 48.652 76.381 97.106 118.843 318.84 279.41 862.54 376.083 1245.528 423.514 791.465 98.02 1587.117 33.357 2341.735-193.181 805.512-241.817 1580.576-842.224 1933.198-1491.467 58.407-107.538 96.025-187.373 106.094-246.088 31.822-185.562-469.803-17.648-26.838 10.206 93.657 5.889 195.365 6.895 283.582 4.74 682.717-16.67 1314.758-468.59 1598.51-832.299 357.364-458.067 516.801-959.907 517.755-1480.443 1.329-725.389-320.946-1252.567-729.334-1630.933-224.014-207.545-560.023-343.14-886.478-396.867-414.562-68.228 3.045 198.465 46.827 35.07 26.85-100.206-12.209-262.825-45.425-381.355-154.338-550.757-418.453-926.857-821.775-1323.742-610.122-600.384-1406.918-1032.658-2312.356-1023.514-485.848 4.907-860.57 250.722-941.548 390.98-26.462 45.834 349.204 236.748 80.685-32.439-316.874-317.66-727.485-575.561-1073.564-717.98-966.55-390.716-2037.401-416.087-3043.568-202.585-685.941 145.552-1286.304 519.695-1539.577 858.618-67.713 90.612-130.567 217.352-155.789 332.76-43.597 199.481 591.368 325.355 50.143-14.568-67.178-42.193-149.061-76.845-201.41-95.682-337.989-121.618-750.793-183.2-1127.648-183.574-683.386-.679-1319.685 107.873-1919.433 456.637-481.38 279.93-881.288 641.175-1102.467 1066.963-114.854 221.103-199.411 448.965-227.778 798.687" style="fill:none;stroke:#000;stroke-width:63.5822;stroke-linecap:square;stroke-miterlimit:4;stroke-dasharray:none;stroke-opacity:1"/><path fill="none" d="M-33003.899 4464.057c-444.403 38.91-874.048 172.81-1255.464 377.907-577.468 310.517-981.773 824.99-1162.933 1384.335-237.777 734.158 1.73 1545.724 440.141 2141.684 384.897 523.216 1084.374 875.165 1794.887 1027.39 419.751 89.93 945.784 128.157 1352.353-28.631 60.955-35.175 211.89-97.554 154.889-171.486" style="fill:#000;fill-opacity:0;stroke:#000;stroke-width:63.5822;stroke-linecap:square;stroke-miterlimit:4;stroke-dasharray:none;stroke-opacity:1"/><path d="M-31625.377 9250.95c-248.302 4.238-160.073 422.712 116.141 694.409 456.225 448.765 1093.034 763.698 1614.389 919.042 975.907 290.783 2143.811 365.68 3062.573 213.062 578.968-96.174 1027.323-298.926 1342.984-571.449 74.419-64.25 135.971-117.921 178.308-197.901" style="fill:none;stroke:#000;stroke-width:63.5822;stroke-linecap:square;stroke-miterlimit:4;stroke-dasharray:none;stroke-opacity:1"/><path d="M27332.829-8291.658c-444.036 43.608-879.247 203.652-1252.031 427.767-1441.368 866.538-1607.465 2568.165-691.208 3645.4 372.596 438.06 1098.872 866.101 1804.263 1043.467 465.65 117.084 1152.278 189.08 1562.145 122.256 291.392-47.508-5.946-144.915 37.588-14.676 40.251 120.415 208.987 310.938 315.019 419.161 443.162 452.32 1058.946 766.978 1562.172 920.369 941.972 287.128 2074.443 361.416 2949.82 189.82 551.834-108.172 1184.235-412.61 1501.48-678.765 205.22-172.17-108.302-72.7-19.81 4.129 322.414 279.925 871.221 433.663 1254.618 478.408 792.311 92.468 1575.713 28.536 2327.637-246.477 791.393-289.448 1579.901-901.148 1926.699-1564.528 57.442-109.88 94.344-191.4 103.887-251.195 16.163-101.275-332.446 10.622-26.745 10.622 93.842 0 195.418 5.233 283.613 2.24 682.54-23.165 1310.512-488.442 1590.997-860.855 353.25-469.029 508.19-980.766 504.486-1510.072-5.163-737.609-327.62-1275.844-743.901-1651.745-238.653-215.503-625.121-375.367-889.994-395.48-274.405-20.836 51.842 136.679 69.443 27.675 16.81-104.098-8.425-269.125-48.836-387.361-174.13-509.482-449.035-931.088-855.892-1330.983-615.471-604.937-1416.104-1037.236-2321.423-1019.698-485.785 9.411-797.508 242.256-897.121 372.108-44.637 58.187 191.42 154.786 39.5.302-317.267-322.62-732.607-578.628-1079.946-720.294-970.008-388.497-2041.042-404.55-3045.259-178.298-684.61 154.244-1281.602 540.147-1531.831 887.079-66.899 92.754-128.616 222.199-152.805 339.78-14.487 70.418 251.873 111.103 50.01-15.271-67.553-42.291-149.742-76.781-202.258-95.459-339.064-120.589-752.402-179.452-1129.245-176.402-683.365 5.529-1318.667 121.698-1915.269 481.789-478.856 289.023-875.515 659.988-1092.875 1094.954-112.87 225.87-195.385 458.337-220.621 814.203M8163.72-11827.646c-430.73 45.237-852.899 211.255-1214.513 443.737-1398.175 898.887-1559.295 2664.039-670.495 3781.49 361.431 454.412 1065.943 898.434 1750.197 1082.42 451.696 121.455 1117.749 196.139 1515.334 126.82 282.66-49.281-5.768-150.324 36.46-15.223 39.046 124.91 202.726 322.546 305.58 434.81 429.882 469.204 1027.213 795.61 1515.359 954.727 913.745 297.847 2012.281 374.908 2861.426 196.907 535.298-112.21 1148.748-428.015 1456.487-704.106 199.069-178.597-105.057-75.414-19.217 4.284 312.753 290.374 845.114 449.852 1217.022 496.268 768.569 95.92 1528.495 29.601 2257.886-255.679 767.679-300.253 1532.558-934.79 1868.964-1622.934 55.721-113.982 91.517-198.546 100.774-260.573 15.679-105.056-322.484 11.019-25.944 11.019 91.03 0 189.562 5.428 275.115 2.323 662.087-24.03 1271.24-506.676 1543.32-892.992 342.665-486.538 492.962-1017.38 489.369-1566.445-5.009-765.146-317.803-1323.474-721.61-1713.408-231.501-223.548-606.388-389.38-863.323-410.244-266.182-21.615 50.288 141.781 67.361 28.707 16.307-107.983 52.41-153.685 13.823-401.821-66.92-430.341-353.985-944.034-748.65-1358.858-597.028-627.52-1353.271-1075.957-2231.461-1057.764-471.229 9.762-936.797 229.485-1033.425 364.186-43.3 60.359 185.684 160.563 38.317.313-307.76-334.664-710.654-600.23-1047.585-747.184-940.94-403.001-1979.879-419.653-2954.004-184.955-664.095 160.002-1243.197 560.312-1485.927 920.196-64.895 96.216-124.763 230.494-148.227 352.464-14.053 73.048 244.325 115.251 48.511-15.841-65.528-43.869-145.255-79.647-196.196-99.022-328.904-125.091-729.856-186.151-1095.406-182.988-662.888 5.735-1279.153 126.241-1857.876 499.775-464.507 299.813-849.28 684.626-1060.126 1135.831-109.488 234.302-189.53 475.447-214.01 844.598" style="fill:#d5f6ff;fill-opacity:1;stroke:#000;stroke-width:63.5822;stroke-linecap:square;stroke-miterlimit:4;stroke-dasharray:none;stroke-opacity:1"/><path d="M-5395.032 6843.67c115.843 115.502 209.387 209.95 265.122 308.95 100.29 181.081 155.557 410.857 136.918 617.994-6.413 71.262-30.332 139.849-45.498 209.772-35.065 64.443-60.18 135.397-105.195 193.328-48.81 62.814-109.742 116.12-172.872 164.521-239.716 183.788-525.852 265.778-826.389 268-112.763.842-224.696-19.405-337.045-29.108-276.143-77.297-375.85-83.378-620.223-236.558-182.864-114.626-291.617-224.761-404.853-405.316-47.88-76.346-92.265-156.278-121.447-241.54-27.263-79.66-30.806-165.55-46.21-248.325 10.224-79.382 7.502-161.536 30.672-238.147 106.986-353.74 460.698-563.766 793.614-662.275 94.942-28.094 193.878-40.298 290.817-60.448 93.795-5.6 187.423-17.007 281.385-16.803 126.702.277 344.142 27.56 470.578 51.181 57.072 10.663 232.283 52.412 297.749 81.096 14.876 6.518 25.201 20.497 37.802 30.745" style="fill:#dbf5ff;fill-opacity:1;stroke:#000;stroke-width:63.5902;stroke-linecap:square;stroke-miterlimit:4;stroke-dasharray:none;stroke-opacity:1"/><path d="M5966.804 6454.62c-75.827-47.153-194.459-88.635-293.406-118.711-228.981-51.13-465.893-64.125-694.469-3.716-266.517 63-537.745 218.954-690.868 502.392-72.52 131.125-96.782 293.809-90.07 448.533 8.907 156.783 51.326 307.77 122.999 438.571 147.318 311.607 415.77 518.802 699.329 600.344 156.92 56.862 323.055 78.84 486.654 66.728 276.43-24.4 558.874-170.353 730.824-441.887 123.191-224.075 141.444-513.842 75.098-767.719-45.469-195.503-139.96-371.02-269.253-499.667-6.085-7.021-44.271-39.043-56.17-47.888" style="fill:#dbf5ff;fill-opacity:1;stroke:#000;stroke-width:73.1196;stroke-linecap:square;stroke-miterlimit:4;stroke-dasharray:none;stroke-opacity:1"/><path d="M3039.937 6682.57c130.166 65.605 249.398 168.593 305.991 304.931 33.092 79.72 41.636 173.21 5.09 254.378-69.632 154.651-218.719 256.952-374.91 310.958-227.447 78.644-488.415 38.977-680.467-103.347-85.653-63.475-164.147-152.263-207.282-251.442-65.412-150.4-68.415-339.855 35.287-473.01 70.774-90.875 176.782-152.383 292.183-165.645 150.855-17.336 273.337-2.172 412.591 51.78 70.05 27.14 170.168 92.331 201.447 164.616" style="fill:#dbf5ff;fill-opacity:1;stroke:#000;stroke-width:73.11958459;stroke-linecap:square;stroke-miterlimit:4;stroke-dasharray:none;stroke-opacity:1"/><path d="M-1682.282 6356.688c-29.441-51.08-36.45-72.66-87.828-112.803-127.639-99.728-296.223-136.659-449.888-173.113-163.737-29.492-338.282-28.583-488.755 52.67-105.825 57.145-124.15 89.759-204.63 174.777-21.574 42.712-49.129 82.897-64.72 128.137-77.033 223.514-17.612 482.615 130.533 663.696 41.277 50.453 94.867 89.429 142.3 134.143 53.542 34.655 104.597 73.493 160.624 103.965 214.064 116.425 466.39 150.29 703.797 91.998 58.3-14.315 113.231-39.921 169.847-59.882 49.514-28.077 101.975-51.5 148.543-84.231 114.138-80.222 223.079-196.191 266.87-331.775 33.521-103.788 18.682-132.642 6.435-237.957-14.665-39.022-24.988-79.963-43.994-117.065-59.042-115.26-162.137-221.903-267.083-296.299-37.973-26.918-80.36-46.992-120.54-70.488M-3217-10301.804c-304.606-359.459-703.37-644.701-1036.849-802.544-931.296-432.859-1959.587-450.745-2923.729-198.658-657.288 171.857-1230.455 601.827-1470.697 988.375-64.23 103.345-137.39 244.817-180.164 365.567-32.277 91.122 297.687 49.019 51.105-47.47-60.56-23.698-125.892-51.95-176.907-69.284-313.459-106.505-716.612-171.282-1077.39-168.119-654.235 5.736-1262.455 126.242-1833.624 499.776-458.443 299.812-838.193 684.626-1046.287 1135.83-108.059 234.303-187.056 520.056-211.216 759.1" style="fill:#dbf5ff;fill-opacity:1;stroke:#000;stroke-width:63.5902;stroke-linecap:square;stroke-miterlimit:4;stroke-dasharray:none;stroke-opacity:1"/><path d="M-12936.977-7907.396c-363.818 30.366-812.009 174.08-1173.622 406.562-1398.176 898.888-1559.296 2664.04-670.495 3781.49 361.431 454.413 1065.943 898.434 1750.196 1082.421 451.696 121.455 1117.749 196.139 1515.334 126.82 282.66-49.282-5.768-150.325 36.461-15.224 39.045 124.911 202.725 322.546 305.579 434.81 429.882 469.205 1027.213 795.61 1515.36 954.728 913.744 297.847 2012.28 374.908 2861.425 196.907 535.298-112.211 1148.75-428.014 1456.487-704.106 176.26-158.134-216.687-145.667-19.217 4.284 401.97 305.242 919.461 449.852 1291.37 496.268 768.568 95.919 1632.58 29.599 2361.971-255.68 824.31-322.401 1487.95-905.05 1750.01-1622.933 43.505-119.18 32.038-198.546 41.295-260.573 15.68-105.056-322.484 11.018-25.944 11.018 91.03 0 189.562 5.429 275.115 2.324 662.087-24.03 1271.24-506.677 1543.32-892.992 342.665-486.539 492.962-1017.38 489.37-1566.446-5.01-765.146-317.804-1323.474-721.61-1713.408-231.502-223.548-654.952-386.639-911.65-410.243-180.373-16.586 76.82 149.087 103.91 69.598 28.274-82.964 60.083-224.158 25.3-442.713-68.492-430.34-362.288-944.033-766.209-1358.857-611.03-627.52-1385.009-1075.957-2283.796-1057.765-482.28 9.762-958.767 229.486-1057.662 364.186M-18771.631 33420.265c28.274-82.964 43.208-222.133 25.299-442.713-31.318-385.731-317.679-988.641-721.6-1403.465-611.03-627.52-1429.617-1031.349-2328.404-1013.157-482.28 9.762-958.767 229.486-1057.662 364.186-67.494 78.016 241.491 188.928 27.679-24.883-304.606-359.46-703.371-644.702-1036.849-802.544-931.296-432.86-1959.587-450.745-2923.729-198.659-657.288 171.857-1230.455 601.827-1470.697 988.375-64.231 103.345-144.342 242.576-180.164 365.568-76.885 263.977 359.023 99.202 51.105-47.471-58.712-27.967-125.892-51.95-176.907-69.284-313.459-106.504-716.612-171.282-1077.39-168.119-654.235 5.736-1262.455 126.242-1833.624 499.776-458.443 299.812-838.193 684.626-1046.287 1135.831-108.059 234.302-213.342 588.398-229.616 845.842" style="fill:#dbf5ff;fill-opacity:1;stroke:#000;stroke-width:63.5902;stroke-linecap:square;stroke-miterlimit:4;stroke-dasharray:none;stroke-opacity:1"/><path d="M-19614.397 37939.853c90.993 2.598 189.332 10.887 274.939 10.197 662.502-5.343 1285.062-474.848 1567.96-856.795 356.289-481.038 521.54-1012.258 533.477-1566.257 16.635-772.019-280.243-1344.187-672.86-1749.077-225.085-232.122-643.753-408.735-899.681-439.874M-25305.162 39626.855c406.622 317.051 930.101 467.255 1306.313 515.467 777.464 99.629 1651.473 30.744 2389.306-265.571 833.849-334.874 1505.169-940.063 1770.261-1685.719 44.01-123.79 32.41-206.226 41.774-270.653M-31075.331 38687.224c42.56 139.99 178.531 312.031 275.388 424.295 404.823 469.205 967.334 795.61 1427.024 954.728 860.481 297.847 1894.979 374.908 2694.625 196.907 504.093-112.211 1081.785-428.014 1371.584-704.106M-32641.893 33401.866c-320.249 51.412-684.892 183.923-986.938 381.853-1349.158 884.099-1504.629 2620.212-646.988 3719.28 348.759 446.936 1028.572 883.653 1688.837 1064.613 435.86 119.457 1078.889 194.725 1462.208 124.733M6642.492 19590.861c-313.11 24.054-701.68 165.255-991.054 343.36-1292.56 795.548-1485.016 2424.155-707.577 3480.614 316.146 429.61 943.954 858.42 1560.183 1046.181 367.282 111.908 962.033 191.308 1340.838 164.738 40.751-2.858 78.717-9.326 114.201-12.345 283.994-24.159 236.507-174.202 160.265-233.579-84.782-66.029-266.969-28.62-196.623 233.915 5.011 18.701 11.932 37.996 20.141 57.713 50.154 120.471 151.87 255.704 227.593 348.65 368.287 452.045 888.697 773.989 1316.846 935.87 801.443 303.018 1772.445 403.028 2529.333 256.91 477.138-92.111 1028.925-373.735 1308.861-625.675 184.312-167.884 120.289-311.733-23.966-305.245-149.859 6.74-216.45 161.559-21.762 333.136 363.98 320.773 907.797 500.114 1260.379 555.47 728.632 114.392 1552.563 72.873 2254.46-186.159 793.236-292.74 1440.794-844.027 1709.992-1538.231 44.691-115.249 64.095-192.162 73.694-252.657 36.362-229.152-168.809-309.23-253.664-211.608-55.595 63.958-37.596 163.166 207.862 208.266 173.365 31.854 302.405 46.296 448.66 42.669 639.056-15.85 1221.375-412.369 1497.639-764.045 347.932-442.913 517.511-938.106 543.487-1458.802 36.201-725.611-227.81-1271.614-586.329-1662.849-205.536-224.293-595.044-398.911-834.533-437.632-133.158-21.529-296.916-4.071-268.577 101.689 34.067 127.142 240.731 128.309 303.008-23.33 31.329-76.284 46.555-207.757 35.582-415.68-19.188-363.6-272.49-938.235-641.376-1339.113-558.03-606.422-1317.245-1007.997-2163.132-1014.812-453.894-3.657-907.929 190.301-1004.535 314.349-121.243 132.359-98.615 307.764 33.667 310.908 128.827 3.061 161.845-164.784-6.971-333.573-276.943-346.166-644.429-625.04-953.897-782.361-864.457-431.877-1831.195-476.069-2744.781-264.656-622.824 144.129-1173.394 533.241-1409.656 890.38-63.167 95.482-142.226 224.292-179.195 339.006-52.139 161.789 32.269 299.026 166.156 275.793 135.599-23.531 111.313-194.991-116.823-319.077-53.757-29.239-117.032-52.208-164.556-69.868-292.005-108.507-669.487-180.159-1008.92-186.787-615.528-12.021-1190.83 85.12-1738.019 421.211-439.194 269.758-806.634 621.552-1014.38 1040.353-107.878 217.476-253.135 600.257-254.268 878.74M-35349.785-17955.355c-313.11 24.055-701.68 165.256-991.054 343.361-1292.56 795.547-1485.016 2424.155-707.577 3480.613 316.146 429.61 943.954 858.421 1560.183 1046.182 367.282 111.908 962.033 191.307 1340.838 164.737 40.751-2.858 111.574-10.64 147.058-13.659l-51.789-26.936c55.085 142.028 180.734 329.194 253.758 412.172 291.685 331.441 761.041 645.873 1188.445 800.02 824.538 297.374 1830.986 392.905 2687.804 239.632 533.626-95.46 1067.084-383.619 1258.83-573.337l-16.47 9.468c337.24 320.908 855.963 522.214 1196.861 608.105 703.306 177.201 1619.627 157.054 2317.315-85.524 921.637-320.443 1516.679-752.731 1742.423-1405.42 59.307-171.472 41.705-357.655-4.39-409.416l-32.233 9.326c173.365 113.34 362.862 130.411 509.117 126.783 639.056-15.85 1221.016-435.703 1492.304-791.232 305.875-400.856 506.997-931.947 532.973-1452.643 36.201-725.611-252.601-1312.26-641.451-1673.363-252.85-234.808-547.73-419.94-824.019-458.661l34.431 46.816c105.676-57.697 216.896-193.714 240.829-400.547 43.897-379.37-193.852-921.075-640.475-1389.505-585.184-613.758-1467.633-1061.334-2406.453-1061.334-453.909 0-881.908 171.714-967.362 396.13l26.696-41.857c64.77-375.469-525.735-820.928-864.526-977.474-856.99-395.992-1920.638-445.996-2839.409-239.375-654.367 147.16-1246.994 471.497-1499.027 998.013-53.392 111.539-115.941 333.88-84.567 419.693l49.333-16.294c-182.805-248.693-700.502-413.812-1192.064-420.747-615.583-8.684-1257.368 134.721-1804.556 470.812-439.194 269.759-916.022 762.328-1092.226 1181.13-94.144 223.763-179.535 595-91.297 826.168M22604.017-2896.094c-279.09-319.509-646.333-574.482-954.271-716.604-860.052-389.9-1814.353-415.038-2711.853-201.71-611.857 145.433-1148.253 519.065-1375.179 857.473-60.671 90.475-130.018 214.463-170.947 320.47-30.888 79.995 275.821 45.907 47.918-41.362-55.973-21.433-116.327-46.923-163.504-62.662-289.878-96.703-663.437-157.458-998.35-157.961-607.334-.913-1173.123 99.721-1707.092 423.644-428.584 259.992-784.986 595.6-982.73 991.272-102.684 205.465-178.915 456.53-203.77 666.94M20410.732-8256.767c100.68-350.276-450.816-920.334-776.605-1151.056-824.1-583.626-1888.74-878.501-2832.029-890.185-671.828-8.321-1298.364 170.016-1601.621 623.884-64.244 96.15-148.187 297.971-124.771 388.717l51.142-4.432c-238.216-260.38-751.959-467.11-1240.598-620.485-603.522-189.434-1315.199-210.664-1897.166-10.375-467.107 160.76-912.189 475.002-1110.851 877.191-101.249 204.976-215.713 542.144-148.893 787.46M-13401.456-16006.477c-313.11 24.055-701.68 165.256-991.054 343.361-1292.56 795.547-1485.016 2424.155-707.577 3480.614 316.146 429.609 943.954 858.42 1560.183 1046.181 367.282 111.908 962.033 191.307 1340.838 164.737 40.751-2.858 111.574-10.64 147.058-13.659l-51.789-26.936c55.085 142.028 180.734 329.194 253.758 412.172 291.685 331.441 761.041 645.873 1188.445 800.02 824.538 297.374 1830.986 392.905 2687.805 239.632 533.626-95.46 1067.084-383.619 1258.83-573.337l-16.47 9.468c337.24 320.908 855.963 522.214 1196.86 608.105 703.307 177.201 1619.628 157.054 2317.316-85.524 921.637-320.443 1516.679-752.731 1742.423-1405.42 59.307-171.472 41.705-357.655-4.39-409.415l-32.233 9.325c173.365 113.34 362.862 130.411 509.117 126.783 639.056-15.85 1221.016-435.703 1492.304-791.232 305.875-400.856 506.997-931.947 532.973-1452.643 36.2-725.611-252.601-1312.26-641.451-1673.363-252.85-234.808-547.73-419.94-824.02-458.661l34.432 46.816c105.676-57.697 216.896-193.714 240.829-400.546 43.897-379.371-193.852-921.076-640.475-1389.506-585.184-613.758-1467.633-1061.334-2406.453-1061.334-453.91 0-881.908 171.714-967.362 396.13l26.695 106.837c64.77-375.469-557.278-778.871-896.069-935.417-856.99-395.992-2130.515-486.229-3049.695-281.432-633.887 141.233-1571.49 671.36-1341.765 1417.707l49.334-16.295c-203.835-217.151-681.145-369.15-1171.037-410.233-605.069-50.741-1299.425 19.065-1983.298 428.755-442.152 264.882-884.479 741.3-1039.654 1191.644-79.085 229.519-74.393 616.029 13.845 847.198M21273.079 28783.873c-313.11 24.055-701.68 165.256-991.054 343.361-1292.56 795.547-1485.016 2424.155-707.577 3480.614 316.146 429.609 943.954 858.42 1560.183 1046.181 367.282 111.908 962.033 191.307 1340.838 164.737 40.751-2.858 78.787-8.592 114.201-12.345 385.1-40.804-137.836-378.324-36.358.336 5.011 18.701 11.932 37.997 20.141 57.713 50.154 120.471 151.87 255.704 227.593 348.65 368.287 452.045 888.697 773.989 1316.846 935.87 801.443 303.018 1772.445 403.028 2529.333 256.91 477.138-92.111 1028.925-373.735 1308.861-625.675 376.167-339.583-434.992-315.165-45.728 27.891 363.98 320.773 907.797 500.114 1260.379 555.47 728.632 114.392 1552.563 72.873 2254.46-186.159 793.236-292.74 1440.794-844.027 1709.992-1538.23 44.691-115.249 63.704-192.226 73.694-252.658 67.173-406.325-365.079-64.055-45.802-3.342 162.244 30.853 368.119 41.04 448.66 42.669 623.293 12.612 1221.375-412.368 1497.639-764.045 347.932-442.913 517.511-938.106 543.487-1458.802 36.201-725.61-227.81-1271.614-586.329-1662.848-205.536-224.294-595.044-398.912-834.533-437.633-291.955-47.203-104.232 318.492 34.431 78.359 41.238-71.415 46.555-207.757 35.582-415.68-19.188-363.599-272.49-938.235-641.376-1339.112-558.03-606.423-1317.245-1007.998-2163.132-1014.813-453.894-3.656-907.929 190.302-1004.535 314.349-249.48 272.355 355.119 305.707 26.696-22.665-276.943-346.166-644.429-625.039-953.897-782.36-864.457-431.877-1831.195-476.07-2744.781-264.656-622.824 144.128-1173.394 533.241-1409.656 890.379-63.167 95.483-142.228 224.291-179.195 339.007-101.842 316.015 430.613 151.726 49.333-43.285-54.482-27.864-117.032-52.208-164.556-69.867-292.005-108.507-669.487-180.159-1008.921-186.788-615.527-12.02-1190.83 85.12-1738.018 421.211-439.194 269.759-806.634 621.552-1014.38 1040.353-107.878 217.476-253.135 600.258-254.268 878.741" style="fill:#dbf5ff;fill-opacity:1;stroke:#000;stroke-width:63.5902;stroke-linecap:square;stroke-miterlimit:4;stroke-dasharray:none;stroke-opacity:1"/><path d="M17669.434-30215.05c-308.446 48.257-670.971 173.585-962.227 361.287-1300.961 838.413-1454.616 2489.95-631.412 3537.447 334.755 425.964 988.265 842.888 1623.539 1016.426 419.363 114.558 1171.392 104.552 1540.602 38.747l-30.707-33.827c26.208 181.737 153.331 382.914 246.327 489.929 388.68 447.269 892.563 785.336 1334.779 937.678 827.77 285.166 1823.585 360.619 2593.874 192.904 485.586-105.727 1061.018-412.609 1340.662-674.706 23.379-22.402-154.861-3.446-60.108 55.108 390.76 302.501 937.333 463.504 1299.431 510.152 748.298 96.395 1589.931 32.655 2300.978-247.759 803.579-316.905 1451.289-891.34 1708.224-1600.261 42.654-117.692 77.358-202.692 71.291-292.381-1.598-23.624-155.907 27.55 24.351 50.452 134.878 17.137 300.106 22.987 382.529 22.507 637.854-3.719 1241.914-457.99 1515.155-820.818 344.126-456.958 504.442-962.057 517.202-1489.146 17.78-734.518-266.738-1279.529-643.814-1665.579-216.175-221.321-618.856-390.225-865.185-420.38-130.98-19.924 35.478 81.203 43.612 49.337 27.411-78.879 35.789-182.293 19.05-392.205-29.27-367.075-303.593-941.316-691.529-1336.84-586.852-598.325-1374.044-984.243-2239.418-968.786-464.351 8.295-923.604 216.373-1019.126 344.332-65.16 74.091 170.531 119.165 26.705-23.618-292.446-342.643-675.716-614.864-996.421-765.732-895.64-413.772-1885.613-432.908-2814.445-195.043-633.214 162.162-1186.031 570.084-1418.214 937.377-62.076 98.198-142.716 229.605-174.294 347.456-43.456 162.181 235.801 43.226 49.311-45.062-56.463-26.731-121.087-49.688-170.164-66.286-301.547-101.981-689.546-164.447-1036.902-162.181-629.896 4.11-1215.752 117.514-1766.516 471.744-442.064 284.317-808.559 649.673-1009.939 1078.551-104.573 222.709-225.334 630.033-241.591 874.949" style="fill:#dbf5ff;fill-opacity:1;stroke:#000;stroke-width:73.1196;stroke-linecap:square;stroke-miterlimit:4;stroke-dasharray:none;stroke-opacity:1"/></svg>