<svg xmlns="http://www.w3.org/2000/svg" xmlns:xlink="http://www.w3.org/1999/xlink" width="650" height="300" viewBox="0 0 609.375 281.25"><defs><symbol id="c" overflow="visible" style="overflow:visible"><path d="M2.953-4.266h-.797l.281-1.03v-.048c0-.062-.03-.093-.078-.093-.062 0-.093 0-.14.078-.39.515-1.016 1.015-1.328 1.109-.25.078-.329.14-.329.25 0 0 0 .016.016.047h.735l-.72 2.75c-.015.094-.03.11-.062.203-.078.297-.156.656-.156.734 0 .22.203.375.469.375.469 0 .797-.28 1.422-1.203l-.125-.078c-.5.64-.657.797-.813.797-.094 0-.156-.078-.156-.203 0-.016 0-.016.016-.047l.875-3.328h.843zm0 0" style="stroke:none"/></symbol><symbol id="a" overflow="visible" style="overflow:visible"><path d="m4.734-1.36-.125-.062c-.375.578-.5.672-.953.672H1.281l1.672-1.766c.89-.921 1.281-1.687 1.281-2.453 0-1-.812-1.765-1.859-1.765-.547 0-1.063.218-1.422.609-.328.344-.469.656-.64 1.375l.203.047C.922-5.687 1.28-6 1.969-6c.828 0 1.406.563 1.406 1.406 0 .782-.469 1.703-1.297 2.594L.297-.125V0h3.89Zm0 0" style="stroke:none"/></symbol><symbol id="b" overflow="visible" style="overflow:visible"><path d="M6.563-2.297c.171 0 .359 0 .359-.203 0-.188-.188-.188-.36-.188h-5.39c-.172 0-.344 0-.344.188 0 .203.172.203.344.203zm0 0" style="stroke:none"/></symbol></defs><g transform="translate(-3.157 -434.366)"><path d="M401.502 599.375V481.362M401.502 706.145v-88.043M354.67 706.145V481.362M307.845 706.145V481.362M261.013 706.145V481.362M214.18 599.375V481.362M214.18 706.145v-88.043M302.689 500.09h117.548M195.447 500.09h94.6M195.447 546.922h224.79M195.447 593.754h224.79M195.447 640.586h224.79M300.353 687.411h119.884M195.447 687.411h82.893" style="fill:none;stroke:#9e9ed1;stroke-width:.329172;stroke-linecap:butt;stroke-linejoin:miter;stroke-miterlimit:10;stroke-opacity:1"/><path d="M195.447 593.754h224.79M307.845 706.145V481.362" style="fill:none;stroke:#000;stroke-width:.658346;stroke-linecap:butt;stroke-linejoin:miter;stroke-miterlimit:10;stroke-opacity:1"/><use xlink:href="#a" width="100%" height="100%" x="356.963" y="332.204" style="fill:#b0b0d9;fill-opacity:1" transform="translate(-192.336 65.424) scale(1.65206)"/><use xlink:href="#b" width="100%" height="100%" x="239.705" y="331.79" style="fill:#b0b0d9;fill-opacity:1" transform="translate(-192.336 65.424) scale(1.65206)"/><use xlink:href="#a" width="100%" height="100%" x="247.505" y="331.79" style="fill:#b0b0d9;fill-opacity:1" transform="translate(-192.336 65.424) scale(1.65206)"/><use xlink:href="#a" width="100%" height="100%" x="293.75" y="266.439" style="fill:#b0b0d9;fill-opacity:1" transform="translate(-192.336 65.424) scale(1.65206)"/><use xlink:href="#b" width="100%" height="100%" x="285.627" y="379.412" style="fill:#b0b0d9;fill-opacity:1" transform="translate(-192.336 65.424) scale(1.65206)"/><use xlink:href="#a" width="100%" height="100%" x="293.427" y="379.412" style="fill:#b0b0d9;fill-opacity:1" transform="translate(-192.336 65.424) scale(1.65206)"/><path d="M420.237 593.754h9.363M307.845 481.362v-9.37" style="fill:none;stroke:#000;stroke-width:.658346;stroke-linecap:butt;stroke-linejoin:miter;stroke-miterlimit:10;stroke-opacity:1"/><path d="M429.44 593.754h-.904" style="fill:none;stroke:#000;stroke-width:1.15213;stroke-linecap:butt;stroke-linejoin:miter;stroke-miterlimit:10;stroke-opacity:1"/><path d="M426.116 590.527c.2 1.207 2.42 3.027 3.026 3.227-.606.2-2.826 2.013-3.026 3.226" style="fill:none;stroke:#000;stroke-width:.921684;stroke-linecap:round;stroke-linejoin:round;stroke-miterlimit:10;stroke-opacity:1"/><path d="M307.845 472.16v.897" style="fill:none;stroke:#000;stroke-width:1.15213;stroke-linecap:butt;stroke-linejoin:miter;stroke-miterlimit:10;stroke-opacity:1"/><path d="M304.618 475.477c1.207-.2 3.02-2.42 3.227-3.02.2.6 2.013 2.82 3.227 3.02" style="fill:none;stroke:#000;stroke-width:.921684;stroke-linecap:round;stroke-linejoin:round;stroke-miterlimit:10;stroke-opacity:1"/><path d="M195.447 484.453c23.992 45.071 47.664 90.332 73.058 134.637 4.259 7.325 8.59 14.608 13.113 21.773 6.236 9.65 12.582 19.398 20.86 27.449 5.165 5.043 11.702 9.02 18.993 9.814 8.412.973 16.784-1.21 24.771-3.633 4.419-1.444 8.782-3.05 13.114-4.73 9.691-3.889 19.249-8.104 28.706-12.532 7.43-3.405 14.784-6.967 22.147-10.512 3.343-1.623 6.674-3.273 10.028-4.874" style="fill:none;stroke:red;stroke-width:1.31671;stroke-linecap:butt;stroke-linejoin:miter;stroke-miterlimit:10;stroke-opacity:1"/><use xlink:href="#c" width="100%" height="100%" x="148.44" y="134.76" style="fill:#000;fill-opacity:1" transform="matrix(1.82443 0 0 1.82443 168.482 351.625)"/><g style="fill:#000;fill-opacity:1;stroke-width:.05138601;stroke-dasharray:none;stroke:#000"><path d="M2.547 2.5v-.406h-.969v-9.172h.969v-.406H1.172V2.5Zm0 0" style="stroke:#000;stroke-width:.05138601;stroke-dasharray:none" transform="matrix(1.82443 0 0 1.82443 450.132 597.818)"/></g><g style="fill:#000;fill-opacity:1;stroke-width:.05138601;stroke-dasharray:none;stroke:#000"><path d="M1.578-7.484H.218v.406h.97v9.172h-.97V2.5h1.36zm0 0" style="stroke:#000;stroke-width:.05138601;stroke-dasharray:none" transform="matrix(1.82443 0 0 1.82443 462.173 597.818)"/></g><g style="font-size:13.252px;line-height:0%;letter-spacing:0;word-spacing:0;stroke-width:.07093417;stroke-dasharray:none;stroke:#000"><path d="M561.831 564.802v-2.03h.295q.513 1.758 1.834 1.758.574 0 .853-.347.287-.347.287-.762 0-.483-.302-.793-.31-.31-1.2-.747-.936-.46-1.344-.906-.408-.438-.408-1.08 0-.611.438-1.162.438-.559 1.23-.559.809 0 1.337.657.113-.113.294-.551h.28v1.91h-.28q-.15-.687-.588-1.178-.43-.498-1.02-.498-.452 0-.732.28-.28.278-.28.648 0 .408.31.702.302.302 1.155.687 1.284.582 1.57 1.133.288.558.288 1.072 0 .807-.536 1.313-.529.506-1.337.506-.853 0-1.517-.702-.204.226-.332.65z" aria-label="s" style="font-size:15.4607px;line-height:1.25;font-family:Baskerville;-inkscape-font-specification:Baskerville;stroke-width:.07093417;stroke-dasharray:none;stroke:#000" transform="matrix(1.32165 0 0 1.32165 -286.376 -148.479)"/></g><g style="fill:#000;fill-opacity:1;stroke:#000;stroke-opacity:1;stroke-width:.05138601;stroke-dasharray:none"><g style="stroke:#000;stroke-width:.05138601;stroke-dasharray:none;stroke-opacity:1"><path d="M2.547 2.5v-.406h-.969v-9.172h.969v-.406H1.172V2.5Zm0 0" style="stroke:#000;stroke-width:.05138601;stroke-dasharray:none" transform="matrix(1.82443 0 0 1.82443 303.935 456.652)"/></g></g><g style="fill:#000;fill-opacity:1;stroke:#000;stroke-opacity:1;stroke-width:.05138601;stroke-dasharray:none"><g style="stroke:#000;stroke-width:.05138601;stroke-dasharray:none;stroke-opacity:1"><path d="M1.578-7.484H.218v.406h.97v9.172h-.97V2.5h1.36zm0 0" style="stroke:#000;stroke-width:.05138601;stroke-dasharray:none" transform="matrix(1.82443 0 0 1.82443 326.435 456.652)"/></g></g><g style="font-size:13.252px;line-height:0%;letter-spacing:0;word-spacing:0;stroke-width:.07093417;stroke:#000;stroke-opacity:1;stroke-dasharray:none"><path d="M285.31 448.83h.075q.22.505.22 1.298.505-.65 1.086-.974.589-.325 1.26-.325.763 0 1.239.348.476.347.664 1.042.574-.695 1.178-1.042.604-.348 1.23-.348.718 0 1.216.333.498.332.604.755.106.422.106 1.366v1.857q0 1.08.037 1.314.046.234.242.347.204.113.747.113v.347h-3.087v-.347q.49 0 .687-.106.203-.113.249-.332.045-.226.045-1.336v-2.06q0-.627-.075-.944-.068-.318-.37-.544-.302-.227-.785-.227-.491 0-.99.333-.49.332-.988 1.004v2.438q0 .989.022 1.246.03.249.212.392.188.136.664.136v.347h-2.99v-.347q.506 0 .703-.106.203-.105.249-.324.052-.22.052-1.344v-1.714q0-.815-.067-1.177-.06-.37-.385-.627-.325-.264-.808-.264-.468 0-.959.302-.483.302-.989.906v2.574q0 1.02.03 1.268.03.25.227.378.196.128.702.128v.347h-3.027v-.347q.498 0 .694-.106.204-.113.25-.332.045-.219.045-1.336v-1.85q0-1.056-.038-1.29-.03-.242-.234-.363-.196-.12-.717-.12v-.348q1.072-.105 1.774-.34z" aria-label="m" style="font-size:15.4607px;line-height:1.25;font-family:Baskerville;-inkscape-font-specification:Baskerville;stroke:#000;stroke-opacity:1;stroke-width:.07093417;stroke-dasharray:none" transform="matrix(1.32165 0 0 1.32165 -64.499 -145.13)"/></g><g style="fill:#000;fill-opacity:1;stroke:#000;stroke-opacity:1;stroke-width:.05138601;stroke-dasharray:none"><path d="M.156-3.984c.125-.032.188-.047.297-.047.578 0 .719.25 1.188 1.968.156.641.406 1.813.406 1.985 0 .156-.063.312-.219.5-.297.406-.5.672-.61.781C1 1.422.892 1.5.75 1.5c-.047 0-.125-.031-.234-.11-.141-.109-.25-.171-.36-.171a.387.387 0 0 0-.39.39c0 .25.218.438.5.438.64 0 1.953-1.485 3.03-3.469.673-1.219.954-1.937.954-2.422a.554.554 0 0 0-.547-.547c-.234 0-.39.141-.39.36 0 .156.078.265.28.39.188.11.25.204.25.344 0 .39-.359 1.172-1.218 2.578l-.188-1.156c-.156-.875-.718-2.516-.859-2.516h-.125l-.984.172a1.759 1.759 0 0 1-.313.063zm0 0" style="stroke:#000;stroke-opacity:1;stroke-width:.05138601;stroke-dasharray:none" transform="matrix(1.82443 -.00206 .00206 1.82443 290.762 456.242)"/></g><g style="fill:#000;fill-opacity:1;stroke:#000;stroke-width:.05404508;stroke-dasharray:none"><path d="M.156-3.984c.125-.032.188-.047.297-.047.578 0 .719.25 1.188 1.968.156.641.406 1.813.406 1.985 0 .156-.063.312-.219.5-.297.406-.5.672-.61.781C1 1.422.892 1.5.75 1.5c-.047 0-.125-.031-.234-.11-.141-.109-.25-.171-.36-.171a.387.387 0 0 0-.39.39c0 .25.218.438.5.438.64 0 1.953-1.485 3.03-3.469.673-1.219.954-1.937.954-2.422a.554.554 0 0 0-.547-.547c-.234 0-.39.141-.39.36 0 .156.078.265.28.39.188.11.25.204.25.344 0 .39-.359 1.172-1.218 2.578l-.188-1.156c-.156-.875-.718-2.516-.859-2.516h-.125l-.984.172a1.759 1.759 0 0 1-.313.063zm0 0" style="stroke:#000;stroke-width:.05404508;stroke-dasharray:none" transform="matrix(.83027 1.52306 -1.52306 .83027 180.716 502.6)"/></g><g style="fill:#000;fill-opacity:1;stroke:#000;stroke-width:.05404508;stroke-dasharray:none"><path d="M6.844-3.266c.156 0 .343 0 .343-.187 0-.203-.187-.203-.328-.203H.891c-.141 0-.329 0-.329.203 0 .187.188.187.329.187zm.015 1.938c.141 0 .329 0 .329-.203 0-.188-.188-.188-.344-.188H.89c-.141 0-.329 0-.329.188 0 .203.188.203.329.203zm0 0" style="stroke:#000;stroke-width:.05404508;stroke-dasharray:none" transform="scale(1.73466) rotate(61.404 -195.18 238.15)"/></g><g style="fill:#000;fill-opacity:1;stroke:#000;stroke-width:.05404508;stroke-dasharray:none"><path d="M.344-3.953h.906L.375.234C.156 1.313-.172 1.86-.594 1.86c-.125 0-.203-.078-.203-.171 0-.016.016-.047.047-.11a.264.264 0 0 0 .047-.156c0-.203-.188-.375-.39-.375-.22 0-.376.172-.376.406 0 .344.36.61.797.61.875 0 1.578-.985 1.985-2.813l.718-3.203h1.094l.063-.313H2.109c.282-1.562.657-2.28 1.204-2.28.14 0 .218.062.218.124 0 .031 0 .047-.031.11a.344.344 0 0 0-.063.203c0 .234.157.39.376.39.218 0 .421-.172.421-.39 0-.375-.375-.657-.859-.657-.5 0-.875.22-1.234.688-.313.39-.5.86-.813 1.812H.422zm0 0" style="stroke:#000;stroke-width:.05404508;stroke-dasharray:none" transform="scale(1.73466) rotate(61.404 -200.88 247.748)"/></g><g style="fill:#000;fill-opacity:1;stroke:#000;stroke-width:.05404508;stroke-dasharray:none"><path d="M3.297 2.39c0-.03 0-.046-.172-.218C1.891.922 1.562-.968 1.562-2.5c0-1.734.375-3.469 1.61-4.703.125-.125.125-.14.125-.172 0-.078-.031-.11-.094-.11-.11 0-1 .688-1.594 1.954C1.11-4.438.984-3.328.984-2.5c0 .781.11 1.984.657 3.125C2.25 1.844 3.094 2.5 3.203 2.5c.063 0 .094-.031.094-.11zm0 0" style="stroke:#000;stroke-width:.05404508;stroke-dasharray:none" transform="scale(1.73466) rotate(61.404 -202.98 251.285)"/></g><g style="fill:#000;fill-opacity:1;stroke:#000;stroke-width:.05404508;stroke-dasharray:none"><path d="M2.953-4.266h-.797l.281-1.03v-.048c0-.062-.03-.093-.078-.093-.062 0-.093 0-.14.078-.39.515-1.016 1.015-1.328 1.109-.25.078-.329.14-.329.25 0 0 0 .016.016.047h.735l-.72 2.75c-.015.094-.03.11-.062.203-.078.297-.156.656-.156.734 0 .22.203.375.469.375.469 0 .797-.28 1.422-1.203l-.125-.078c-.5.64-.657.797-.813.797-.094 0-.156-.078-.156-.203 0-.016 0-.016.016-.047l.875-3.328h.843zm0 0" style="stroke:#000;stroke-width:.05404508;stroke-dasharray:none" transform="scale(1.73466) rotate(61.404 -204.78 254.316)"/></g><g style="fill:#000;fill-opacity:1;stroke:#000;stroke-width:.05404508;stroke-dasharray:none"><path d="M2.875-2.5c0-.766-.11-1.969-.656-3.11C1.625-6.827.766-7.483.672-7.483a.107.107 0 0 0-.11.109c0 .031 0 .047.188.234.984.985 1.547 2.563 1.547 4.641 0 1.719-.36 3.469-1.594 4.719-.14.125-.14.14-.14.172 0 .062.046.109.109.109.094 0 1-.688 1.578-1.953.516-1.094.625-2.203.625-3.047Zm0 0" style="stroke:#000;stroke-width:.05404508;stroke-dasharray:none" transform="scale(1.73466) rotate(61.404 -206.52 257.247)"/></g></g></svg>