<svg xmlns="http://www.w3.org/2000/svg" xmlns:xlink="http://www.w3.org/1999/xlink" width="650" height="300" viewBox="0 0 609.375 281.25"><defs><symbol id="a" overflow="visible" style="overflow:visible"><path d="m4.734-1.36-.125-.062c-.375.578-.5.672-.953.672H1.281l1.672-1.766c.89-.921 1.281-1.687 1.281-2.453 0-1-.812-1.765-1.859-1.765-.547 0-1.063.218-1.422.609-.328.344-.469.656-.64 1.375l.203.047C.922-5.687 1.28-6 1.969-6c.828 0 1.406.563 1.406 1.406 0 .782-.469 1.703-1.297 2.594L.297-.125V0h3.89Zm0 0" style="stroke:none"/></symbol><symbol id="b" overflow="visible" style="overflow:visible"><path d="M6.563-2.297c.171 0 .359 0 .359-.203 0-.188-.188-.188-.36-.188h-5.39c-.172 0-.344 0-.344.188 0 .203.172.203.344.203zm0 0" style="stroke:none"/></symbol></defs><g style="display:inline"><path d="M776.553 492.874V375.132M776.553 600.026V511.94M729.698 600.026V375.132M682.85 600.026V375.132M635.994 600.026V375.132M589.14 492.874V375.132M589.14 600.026V511.94M677.69 393.87h117.607M570.396 393.87h94.646M570.396 440.724h224.9M570.396 487.58h224.9M570.396 534.435h224.9M675.353 581.283h119.944M570.396 581.283h82.934" style="fill:none;stroke:#9e9ed1;stroke-width:.329335;stroke-linecap:butt;stroke-linejoin:miter;stroke-miterlimit:10;stroke-opacity:1" transform="translate(-378.491 -327.344)"/><path d="M570.396 487.58h224.9M682.85 600.026V375.132" style="fill:none;stroke:#000;stroke-width:.658671;stroke-linecap:butt;stroke-linejoin:miter;stroke-miterlimit:10;stroke-opacity:1" transform="translate(-378.491 -327.344)"/><use xlink:href="#a" width="100%" height="100%" x="356.963" y="332.204" style="fill:#b0b0d9;fill-opacity:1" transform="matrix(1.65288 0 0 1.65288 -196.07 -368.356)"/><use xlink:href="#b" width="100%" height="100%" x="239.705" y="331.79" style="fill:#b0b0d9;fill-opacity:1" transform="matrix(1.65288 0 0 1.65288 -196.07 -368.356)"/><use xlink:href="#a" width="100%" height="100%" x="247.505" y="331.79" style="fill:#b0b0d9;fill-opacity:1" transform="matrix(1.65288 0 0 1.65288 -196.07 -368.356)"/><use xlink:href="#a" width="100%" height="100%" x="293.75" y="266.439" style="fill:#b0b0d9;fill-opacity:1" transform="matrix(1.65288 0 0 1.65288 -196.07 -368.356)"/><use xlink:href="#b" width="100%" height="100%" x="285.627" y="379.412" style="fill:#b0b0d9;fill-opacity:1" transform="matrix(1.65288 0 0 1.65288 -196.07 -368.356)"/><use xlink:href="#a" width="100%" height="100%" x="293.427" y="379.412" style="fill:#b0b0d9;fill-opacity:1" transform="matrix(1.65288 0 0 1.65288 -196.07 -368.356)"/><path d="M795.297 487.58h9.368M682.85 375.132v-9.375" style="fill:none;stroke:#000;stroke-width:.658671;stroke-linecap:butt;stroke-linejoin:miter;stroke-miterlimit:10;stroke-opacity:1" transform="translate(-378.491 -327.344)"/><path d="M804.504 487.58h-.904" style="fill:none;stroke:#000;stroke-width:.09375;stroke-linecap:butt;stroke-linejoin:miter;stroke-miterlimit:10;stroke-dasharray:none;stroke-opacity:1" transform="translate(-378.491 -327.344)"/><path d="M801.178 484.351c.2 1.208 2.422 3.028 3.029 3.228-.607.2-2.828 2.015-3.029 3.229" style="fill:none;stroke:#000;stroke-width:.922139;stroke-linecap:round;stroke-linejoin:round;stroke-miterlimit:10;stroke-opacity:1" transform="translate(-378.491 -327.344)"/><path d="M682.85 365.925v.898" style="fill:none;stroke:#000;stroke-width:.09375;stroke-linecap:butt;stroke-linejoin:miter;stroke-miterlimit:10;stroke-dasharray:none;stroke-opacity:1" transform="translate(-378.491 -327.344)"/><path d="M679.621 369.244c1.207-.2 3.022-2.421 3.228-3.022.2.6 2.015 2.822 3.229 3.022" style="fill:none;stroke:#000;stroke-width:.922139;stroke-linecap:round;stroke-linejoin:round;stroke-miterlimit:10;stroke-opacity:1" transform="translate(-378.491 -327.344)"/><path d="M570.396 576.176c13.982-.372 27.982-.777 41.924-1.982 9.986-.942 20.063-2.085 29.626-5.244 4.858-1.62 9.585-3.778 13.728-6.819 9.58-6.811 15.616-17.283 20.697-27.632 7.16-14.523 12.482-30.06 21.703-43.489 3.097-4.376 6.708-8.436 11.008-11.664 7.75-5.943 17.325-8.811 26.812-10.516 11.932-2.142 24.062-2.81 36.148-3.443 7.75-.303 15.5-.619 23.255-.746" style="fill:none;stroke:red;stroke-width:1.31736;stroke-linecap:butt;stroke-linejoin:miter;stroke-miterlimit:10;stroke-opacity:1" transform="translate(-378.491 -327.344)"/><g style="fill:#000;fill-opacity:1;stroke:#000;stroke-width:0;stroke-dasharray:none;stroke-opacity:1"><path stroke="none" d="M2.953-4.266h-.797l.281-1.03v-.048c0-.062-.03-.093-.078-.093-.062 0-.093 0-.14.078-.39.515-1.016 1.015-1.328 1.109-.25.078-.329.14-.329.25 0 0 0 .016.016.047h.735l-.72 2.75c-.015.094-.03.11-.062.203-.078.297-.156.656-.156.734 0 .22.203.375.469.375.469 0 .797-.28 1.422-1.203l-.125-.078c-.5.64-.657.797-.813.797-.094 0-.156-.078-.156-.203 0-.016 0-.016.016-.047l.875-3.328h.843zm0 0" style="fill:#000;stroke:#000;stroke-width:0;stroke-dasharray:none;stroke-opacity:1" transform="matrix(1.82533 0 0 1.82533 436.15 163.901)"/></g><g style="fill:#000;fill-opacity:1;stroke:#000;stroke-width:.0513607;stroke-dasharray:none;stroke-opacity:1"><path d="M2.547 2.5v-.406h-.969v-9.172h.969v-.406H1.172V2.5Zm0 0" style="fill:#000;stroke:#000;stroke-width:.0513607;stroke-dasharray:none;stroke-opacity:1" transform="matrix(1.82533 0 0 1.82533 446.988 164.235)"/></g><g style="fill:#000;fill-opacity:1;stroke:#000;stroke-width:.0513607;stroke-dasharray:none;stroke-opacity:1"><path d="M1.578-7.484H.218v.406h.97v9.172h-.97V2.5h1.36zm0 0" style="fill:#000;stroke:#000;stroke-width:.0513607;stroke-dasharray:none;stroke-opacity:1" transform="matrix(1.82533 0 0 1.82533 459.035 164.235)"/></g><g style="font-size:15.4607px;line-height:125%;letter-spacing:0;word-spacing:0;fill:#000;stroke:#000;stroke-width:.0708992;stroke-dasharray:none;stroke-opacity:1"><path d="M777.647 475.404v-2.031h.294q.514 1.759 1.835 1.759.573 0 .853-.347.287-.348.287-.763 0-.483-.302-.792-.31-.31-1.2-.748-.937-.46-1.344-.906-.408-.438-.408-1.08 0-.61.438-1.162.438-.558 1.23-.558.808 0 1.336.656.114-.113.295-.55h.28v1.91h-.28q-.151-.688-.589-1.178-.43-.499-1.02-.499-.452 0-.731.28-.28.279-.28.649 0 .407.31.702.302.302 1.155.687 1.283.581 1.57 1.132.287.559.287 1.072 0 .808-.536 1.314-.528.506-1.336.506-.853 0-1.518-.702-.203.226-.332.649z" aria-label="s" style="font-family:Baskerville;-inkscape-font-specification:Baskerville;fill:#000;stroke:#000;stroke-width:.0708992;stroke-dasharray:none;stroke-opacity:1" transform="translate(-575.09 -464.218) scale(1.3223)"/></g><g style="fill:#000;fill-opacity:1;stroke:#000;stroke-width:.0513607;stroke-dasharray:none;stroke-opacity:1"><path d="M.156-3.984c.125-.032.188-.047.297-.047.578 0 .719.25 1.188 1.968.156.641.406 1.813.406 1.985 0 .156-.063.312-.219.5-.297.406-.5.672-.61.781C1 1.422.892 1.5.75 1.5c-.047 0-.125-.031-.234-.11-.141-.109-.25-.171-.36-.171a.387.387 0 0 0-.39.39c0 .25.218.438.5.438.64 0 1.953-1.485 3.03-3.469.673-1.219.954-1.937.954-2.422a.554.554 0 0 0-.547-.547c-.234 0-.39.141-.39.36 0 .156.078.265.28.39.188.11.25.204.25.344 0 .39-.359 1.172-1.218 2.578l-.188-1.156c-.156-.875-.718-2.516-.859-2.516h-.125l-.984.172a1.759 1.759 0 0 1-.313.063zm0 0" style="fill:#000;stroke:#000;stroke-width:.0513607;stroke-dasharray:none;stroke-opacity:1" transform="matrix(1.82533 -.00206 .00206 1.82533 282.79 23.248)"/></g><path stroke-width=".017" d="m703.2 339.968-3.882 11.747h-1.157l3.898-11.747z" style="fill:#000;stroke:#000;stroke-width:.09375;stroke-dasharray:none;stroke-opacity:1" transform="translate(-378.491 -327.344)"/><g style="font-size:15.4607px;line-height:125%;letter-spacing:0;word-spacing:0;fill:#000;stroke:#000;stroke-width:.0708992;stroke-dasharray:none;stroke-opacity:1"><path d="M669.541 341.663h.076q.219.506.219 1.299.505-.65 1.087-.974.589-.325 1.26-.325.763 0 1.239.347.475.348.664 1.042.574-.694 1.178-1.042.603-.347 1.23-.347.717 0 1.215.332.499.332.604.755.106.423.106 1.367v1.857q0 1.08.038 1.313.045.234.241.348.204.113.748.113v.347h-3.088v-.347q.49 0 .687-.106.204-.113.25-.332.045-.227.045-1.336v-2.061q0-.627-.076-.944-.068-.317-.37-.543-.302-.227-.785-.227-.49 0-.989.332-.49.332-.989 1.004v2.439q0 .989.023 1.245.03.25.211.393.189.136.664.136v.347h-2.99v-.347q.507 0 .703-.106.204-.106.25-.324.052-.22.052-1.344v-1.714q0-.815-.068-1.178-.06-.37-.385-.626-.325-.264-.808-.264-.468 0-.958.302-.484.302-.99.905v2.575q0 1.019.03 1.268.031.25.227.377.197.129.702.129v.347h-3.027v-.347q.498 0 .695-.106.203-.113.249-.332.045-.219.045-1.336v-1.85q0-1.057-.038-1.29-.03-.242-.234-.363-.196-.12-.717-.12v-.348q1.072-.106 1.774-.34z" aria-label="m" style="font-family:Baskerville;-inkscape-font-specification:Baskerville;fill:#000;stroke:#000;stroke-width:.0708992;stroke-dasharray:none;stroke-opacity:1" transform="translate(-579.113 -436.03) scale(1.3223)"/></g><g style="font-size:15.4607px;line-height:125%;letter-spacing:0;word-spacing:0;fill:#000;stroke:#000;stroke-width:.0708992;stroke-dasharray:none;stroke-opacity:1"><path d="M671.124 366.63v-2.03h.294q.513 1.758 1.835 1.758.573 0 .853-.347.286-.347.286-.763 0-.483-.301-.792-.31-.31-1.2-.748-.937-.46-1.345-.906-.407-.437-.407-1.08 0-.61.438-1.162.438-.558 1.23-.558.808 0 1.336.656.114-.113.295-.55h.28v1.91h-.28q-.151-.688-.589-1.178-.43-.499-1.02-.499-.452 0-.731.28-.28.28-.28.649 0 .408.31.702.302.302 1.155.687 1.283.581 1.57 1.132.287.559.287 1.072 0 .808-.536 1.314-.529.506-1.336.506-.853 0-1.518-.702-.204.226-.332.649z" aria-label="s" style="font-family:Baskerville;-inkscape-font-specification:Baskerville;fill:#000;stroke:#000;stroke-width:.0708992;stroke-dasharray:none;stroke-opacity:1" transform="translate(-561.582 -460.449) scale(1.3223)"/></g><g style="fill:#000;fill-opacity:1;stroke:#000;stroke-width:.0513607;stroke-dasharray:none;stroke-opacity:1"><path d="M2.547 2.5v-.406h-.969v-9.172h.969v-.406H1.172V2.5Zm0 0" style="fill:#000;stroke:#000;stroke-width:.0513607;stroke-dasharray:none;stroke-opacity:1" transform="matrix(1.82533 0 0 1.82533 297.164 24.11)"/></g><g style="fill:#000;fill-opacity:1;stroke:#000;stroke-width:.0513607;stroke-dasharray:none;stroke-opacity:1"><path d="M1.578-7.484H.218v.406h.97v9.172h-.97V2.5h1.36zm0 0" style="fill:#000;stroke:#000;stroke-width:.0513607;stroke-dasharray:none;stroke-opacity:1" transform="matrix(1.82533 0 0 1.82533 332.676 24.11)"/></g></g></svg>