<svg xmlns="http://www.w3.org/2000/svg" xmlns:xlink="http://www.w3.org/1999/xlink" width="650" height="300" viewBox="0 0 609.375 281.25"><defs><symbol id="i" overflow="visible" style="overflow:visible"><path d="M2.953-4.266h-.797l.281-1.03v-.048c0-.062-.03-.093-.078-.093-.062 0-.093 0-.14.078-.39.515-1.016 1.015-1.328 1.109-.25.078-.329.14-.329.25 0 0 0 .016.016.047h.735l-.72 2.75c-.015.094-.03.11-.062.203-.078.297-.156.656-.156.734 0 .22.203.375.469.375.469 0 .797-.28 1.422-1.203l-.125-.078c-.5.64-.657.797-.813.797-.094 0-.156-.078-.156-.203 0-.016 0-.016.016-.047l.875-3.328h.843zm0 0" style="stroke:none"/></symbol><symbol id="j" overflow="visible" style="overflow:visible"><path d="M2.547 2.5v-.406h-.969v-9.172h.969v-.406H1.172V2.5Zm0 0" style="stroke:none"/></symbol><symbol id="k" overflow="visible" style="overflow:visible"><path d="M1.578-7.484H.218v.406h.97v9.172h-.97V2.5h1.36zm0 0" style="stroke:none"/></symbol><symbol id="n" overflow="visible" style="overflow:visible"><path d="M2.25 17.531h2.266v-.468H2.719v-17h1.797v-.47H2.25Zm0 0" style="stroke:none"/></symbol><symbol id="g" overflow="visible" style="overflow:visible"><path d="M2.953-4.266h-.797l.281-1.03v-.048c0-.062-.03-.093-.078-.093-.062 0-.093 0-.14.078-.39.515-1.016 1.015-1.328 1.109-.25.078-.329.14-.329.25 0 0 0 .016.016.047h.735l-.72 2.75c-.015.094-.03.11-.062.203-.078.297-.156.656-.156.734 0 .22.203.375.469.375.469 0 .797-.28 1.422-1.203l-.125-.078c-.5.64-.657.797-.813.797-.094 0-.156-.078-.156-.203 0-.016 0-.016.016-.047l.875-3.328h.843zm0 0" style="stroke:none"/></symbol><symbol id="c" overflow="visible" style="overflow:visible"><path d="M.156-3.984c.125-.032.188-.047.297-.047.578 0 .719.25 1.188 1.968.156.641.406 1.813.406 1.985 0 .156-.063.312-.219.5-.297.406-.5.672-.61.781C1 1.422.892 1.5.75 1.5c-.047 0-.125-.031-.234-.11-.141-.109-.25-.171-.36-.171a.387.387 0 0 0-.39.39c0 .25.218.438.5.438.64 0 1.953-1.485 3.03-3.469.673-1.219.954-1.937.954-2.422a.554.554 0 0 0-.547-.547c-.234 0-.39.141-.39.36 0 .156.078.265.28.39.188.11.25.204.25.344 0 .39-.359 1.172-1.218 2.578l-.188-1.156c-.156-.875-.718-2.516-.859-2.516h-.125l-.984.172a1.759 1.759 0 0 1-.313.063zm0 0" style="stroke:none"/></symbol><symbol id="e" overflow="visible" style="overflow:visible"><path d="M.344-3.953h.906L.375.234C.156 1.313-.172 1.86-.594 1.86c-.125 0-.203-.078-.203-.171 0-.016.016-.047.047-.11a.264.264 0 0 0 .047-.156c0-.203-.188-.375-.39-.375-.22 0-.376.172-.376.406 0 .344.36.61.797.61.875 0 1.578-.985 1.985-2.813l.718-3.203h1.094l.063-.313H2.109c.282-1.562.657-2.28 1.204-2.28.14 0 .218.062.218.124 0 .031 0 .047-.031.11a.344.344 0 0 0-.063.203c0 .234.157.39.376.39.218 0 .421-.172.421-.39 0-.375-.375-.657-.859-.657-.5 0-.875.22-1.234.688-.313.39-.5.86-.813 1.812H.422zm0 0" style="stroke:none"/></symbol><symbol id="d" overflow="visible" style="overflow:visible"><path d="M6.844-3.266c.156 0 .343 0 .343-.187 0-.203-.187-.203-.328-.203H.891c-.141 0-.329 0-.329.203 0 .187.188.187.329.187zm.015 1.938c.141 0 .329 0 .329-.203 0-.188-.188-.188-.344-.188H.89c-.141 0-.329 0-.329.188 0 .203.188.203.329.203zm0 0" style="stroke:none"/></symbol><symbol id="f" overflow="visible" style="overflow:visible"><path d="M3.297 2.39c0-.03 0-.046-.172-.218C1.891.922 1.562-.968 1.562-2.5c0-1.734.375-3.469 1.61-4.703.125-.125.125-.14.125-.172 0-.078-.031-.11-.094-.11-.11 0-1 .688-1.594 1.954C1.11-4.438.984-3.328.984-2.5c0 .781.11 1.984.657 3.125C2.25 1.844 3.094 2.5 3.203 2.5c.063 0 .094-.031.094-.11zm0 0" style="stroke:none"/></symbol><symbol id="h" overflow="visible" style="overflow:visible"><path d="M2.875-2.5c0-.766-.11-1.969-.656-3.11C1.625-6.827.766-7.483.672-7.483a.107.107 0 0 0-.11.109c0 .031 0 .047.188.234.984.985 1.547 2.563 1.547 4.641 0 1.719-.36 3.469-1.594 4.719-.14.125-.14.14-.14.172 0 .062.046.109.109.109.094 0 1-.688 1.578-1.953.516-1.094.625-2.203.625-3.047Zm0 0" style="stroke:none"/></symbol><symbol id="a" overflow="visible" style="overflow:visible"><path d="m4.734-1.36-.125-.062c-.375.578-.5.672-.953.672H1.281l1.672-1.766c.89-.921 1.281-1.687 1.281-2.453 0-1-.812-1.765-1.859-1.765-.547 0-1.063.218-1.422.609-.328.344-.469.656-.64 1.375l.203.047C.922-5.687 1.28-6 1.969-6c.828 0 1.406.563 1.406 1.406 0 .782-.469 1.703-1.297 2.594L.297-.125V0h3.89Zm0 0" style="stroke:none"/></symbol><symbol id="b" overflow="visible" style="overflow:visible"><path d="M6.563-2.297c.171 0 .359 0 .359-.203 0-.188-.188-.188-.36-.188h-5.39c-.172 0-.344 0-.344.188 0 .203.172.203.344.203zm0 0" style="stroke:none"/></symbol><symbol id="l" overflow="visible" style="overflow:visible"><path d="m4.734-1.36-.125-.062c-.375.578-.5.672-.953.672H1.281l1.672-1.766c.89-.921 1.281-1.687 1.281-2.453 0-1-.812-1.765-1.859-1.765-.547 0-1.063.218-1.422.609-.328.344-.469.656-.64 1.375l.203.047C.922-5.687 1.28-6 1.969-6c.828 0 1.406.563 1.406 1.406 0 .782-.469 1.703-1.297 2.594L.297-.125V0h3.89Zm0 0" style="stroke:none"/></symbol><symbol id="m" overflow="visible" style="overflow:visible"><path d="M6.563-2.297c.171 0 .359 0 .359-.203 0-.188-.188-.188-.36-.188h-5.39c-.172 0-.344 0-.344.188 0 .203.172.203.344.203zm0 0" style="stroke:none"/></symbol></defs><path d="M-169.605 1346.088H.478m-170.083-35.435H.478m-170.083-35.43H.478m-170.083-35.434H.478m-170.083-35.435H.478m-155.908 155.909V1190.18m35.434 170.083V1190.18m35.435 170.083V1190.18m35.43 170.083V1190.18m35.434 170.083V1190.18" style="fill:none;stroke:#9e9ecf;stroke-width:.249062;stroke-linecap:butt;stroke-linejoin:miter;stroke-miterlimit:10;stroke-opacity:1" transform="translate(-447.13 -1593.232)"/><path d="M-169.605 1275.224H.478M-84.561 1360.263V1190.18" style="fill:none;stroke:#000;stroke-width:.498125;stroke-linecap:butt;stroke-linejoin:miter;stroke-miterlimit:10;stroke-opacity:1" transform="translate(-447.13 -1593.232)"/><path d="M-24.327 1293.646h21.26v-14.174h-21.26Zm0 0" style="fill:#fdfdfd;fill-opacity:1;fill-rule:nonzero;stroke:#fdfdfd;stroke-width:.498125;stroke-linecap:butt;stroke-linejoin:miter;stroke-miterlimit:10;stroke-opacity:1" transform="translate(-447.13 -1593.232)"/><use xlink:href="#a" width="100%" height="100%" x="356.963" y="336.164" style="fill:#b0b0d9;fill-opacity:1" transform="matrix(1.25 0 0 1.25 -910.143 -722.71)"/><path d="M-166.06 1293.646h21.26v-14.174h-21.26zm0 0" style="fill:#fdfdfd;fill-opacity:1;fill-rule:nonzero;stroke:#fdfdfd;stroke-width:.498125;stroke-linecap:butt;stroke-linejoin:miter;stroke-miterlimit:10;stroke-opacity:1" transform="translate(-447.13 -1593.232)"/><use xlink:href="#b" width="100%" height="100%" x="239.705" y="335.75" style="fill:#b0b0d9;fill-opacity:1" transform="matrix(1.25 0 0 1.25 -910.143 -722.71)"/><use xlink:href="#a" width="100%" height="100%" x="247.505" y="335.75" style="fill:#b0b0d9;fill-opacity:1" transform="matrix(1.25 0 0 1.25 -910.143 -722.71)"/><path d="M-98.028 1211.44h9.566v-14.17h-9.566zm0 0" style="fill:#fdfdfd;fill-opacity:1;fill-rule:nonzero;stroke:#fdfdfd;stroke-width:.498125;stroke-linecap:butt;stroke-linejoin:miter;stroke-miterlimit:10;stroke-opacity:1" transform="translate(-447.13 -1593.232)"/><use xlink:href="#a" width="100%" height="100%" x="293.75" y="270.399" style="fill:#b0b0d9;fill-opacity:1" transform="matrix(1.25 0 0 1.25 -910.143 -722.71)"/><path d="M-106.885 1353.173h16.655v-14.17h-16.655zm0 0" style="fill:#fdfdfd;fill-opacity:1;fill-rule:nonzero;stroke:#fdfdfd;stroke-width:.498125;stroke-linecap:butt;stroke-linejoin:miter;stroke-miterlimit:10;stroke-opacity:1" transform="translate(-447.13 -1593.232)"/><use xlink:href="#b" width="100%" height="100%" x="285.627" y="383.373" style="fill:#b0b0d9;fill-opacity:1" transform="matrix(1.25 0 0 1.25 -910.143 -722.71)"/><use xlink:href="#a" width="100%" height="100%" x="293.427" y="383.373" style="fill:#b0b0d9;fill-opacity:1" transform="matrix(1.25 0 0 1.25 -910.143 -722.71)"/><path d="M.478 1275.224h7.085M-84.561 1190.18v-7.085" style="fill:none;stroke:#000;stroke-width:.498125;stroke-linecap:butt;stroke-linejoin:miter;stroke-miterlimit:10;stroke-opacity:1" transform="translate(-447.13 -1593.232)"/><path d="M7.44 1275.224h-.683" style="fill:none;stroke:#000;stroke-width:.871737;stroke-linecap:butt;stroke-linejoin:miter;stroke-miterlimit:10;stroke-opacity:1" transform="translate(-447.13 -1593.232)"/><path d="M4.926 1272.782c.152.913 1.831 2.285 2.29 2.442-.459.15-2.138 1.523-2.29 2.436" style="fill:none;stroke:#000;stroke-width:.697375;stroke-linecap:round;stroke-linejoin:round;stroke-miterlimit:10;stroke-opacity:1" transform="translate(-447.13 -1593.232)"/><path d="M-84.561 1183.217v.683" style="fill:none;stroke:#000;stroke-width:.871737;stroke-linecap:butt;stroke-linejoin:miter;stroke-miterlimit:10;stroke-opacity:1" transform="translate(-447.13 -1593.232)"/><path d="M-87.003 1185.731c.914-.151 2.286-1.83 2.442-2.29.151.46 1.523 2.139 2.441 2.29" style="fill:none;stroke:#000;stroke-width:.697375;stroke-linecap:round;stroke-linejoin:round;stroke-miterlimit:10;stroke-opacity:1" transform="translate(-447.13 -1593.232)"/><path d="m-28.89 1101.055.712.352.708.356.708.352 1.416.713.708.351.708.356.708.352.708.356.713.352.708.356.708.318 1.416.713.708.351.708.357.713.351.708.357.708.317.708.357.708.351.708.357.708.317.713.356.708.352.708.356.708.318.708.356.708.352.708.322.713.352.708.317.708.356.708.318.708.356.708.318.708.356.708.318.713.356 1.416.635.708.322.708.352.708.322.708.317.713.318.703.317.713.356.708.318.708.322.708.317.708.284.708.317.713.322 1.416.635.708.283.708.323.708.317.708.283.713.283.708.318.708.283.708.288.708.278.708.323.713.283.708.249 2.124.85.708.244.708.288.708.244.708.249.713.249 1.416.498.708.244 1.416.43.708.244.708.215.712.175.708.215.709.21.708.176.708.18.708.142.712.176 2.124.425 1.416.215.708.102.708.073.713.073 2.124.103h.708l1.416-.068.713-.034.708-.108.708-.073 1.416-.283 1.416-.351.713-.25.703-.248.713-.284.708-.283.708-.356.708-.352 1.416-.85.713-.463.708-.493 1.416-1.065.708-.6.708-.606.708-.674.713-.674 1.416-1.416.708-.776.708-.781 1.416-1.631.708-.85.713-.888.708-.918.708-.889.708-.957.708-.952.708-.996.708-.952.713-1.03.708-1.031.708-1.025.708-1.065.708-1.06 1.416-2.128.708-1.099.713-1.099 2.124-3.398.708-1.138.708-1.133.713-1.167.708-1.171.708-1.167.708-1.172.708-1.167.708-1.206.708-1.167 1.416-2.412.713-1.206.708-1.202.708-1.206.708-1.24.708-1.206.708-1.24.713-1.24.708-1.24.708-1.202 1.416-2.48.708-1.28.708-1.235.713-1.245.708-1.24.708-1.275.708-1.24.708-1.274.708-1.24 1.416-2.55.713-1.279.708-1.24 2.124-3.823.708-1.28 1.416-2.548.713-1.275.708-1.279.708-1.309.708-1.274.708-1.28.708-1.274.708-1.308.713-1.28.708-1.274.708-1.309.708-1.279.708-1.309.708-1.274.712-1.28.704-1.308.712-1.313.708-1.275.708-1.308.708-1.28.709-1.308.708-1.314.708-1.274.712-1.309.708-1.313.708-1.275.708-1.313.708-1.309.708-1.313.708-1.275.708-1.308.713-1.314.708-1.308.708-1.314.708-1.308.708-1.28.708-1.308.708-1.314.713-1.308.708-1.309 1.416-2.627.708-1.308.708-1.314.708-1.309.713-1.313.708-1.309.708-1.313" style="fill:none;stroke:red;stroke-width:.996262;stroke-linecap:butt;stroke-linejoin:miter;stroke-miterlimit:10;stroke-opacity:1" transform="translate(-587.844 -1388.947)"/><g transform="rotate(26.2 759.234 -1814.002) scale(1.3125)"><use xlink:href="#c" width="100%" height="100%" x="154.44" y="134.76" style="fill:#000;fill-opacity:1"/><use xlink:href="#d" width="100%" height="100%" x="161.04" y="134.76" style="fill:#000;fill-opacity:1"/><use xlink:href="#e" width="100%" height="100%" x="172.44" y="134.76" style="fill:#000;fill-opacity:1"/><use xlink:href="#f" width="100%" height="100%" x="176.64" y="134.76" style="fill:#000;fill-opacity:1"/><use xlink:href="#g" width="100%" height="100%" x="180.24" y="134.76" style="fill:#000;fill-opacity:1"/><use xlink:href="#h" width="100%" height="100%" x="183.72" y="134.76" style="fill:#000;fill-opacity:1"/></g><use xlink:href="#i" width="100%" height="100%" x="148.44" y="134.76" style="fill:#000;fill-opacity:1" transform="matrix(1.38042 0 0 1.38042 -637.173 -501.219)"/><use xlink:href="#j" width="100%" height="100%" x="173.52" y="134.76" style="fill:#000;fill-opacity:1" transform="matrix(1.38042 0 0 1.38042 -663.598 -500.967)"/><use xlink:href="#k" width="100%" height="100%" x="180.12" y="134.76" style="fill:#000;fill-opacity:1" transform="matrix(1.38042 0 0 1.38042 -663.598 -500.967)"/><text xml:space="preserve" x="-152.118" y="562.049" style="font-style:normal;font-weight:400;line-height:0%;font-family:sans-serif;letter-spacing:0;word-spacing:0;fill:#000;fill-opacity:1;stroke:none;stroke-width:1px;stroke-linecap:butt;stroke-linejoin:miter;stroke-opacity:1" transform="matrix(1.10433 0 0 1.10433 -252.14 -935.697)">           <tspan x="-152.118" y="562.049" style="font-style:normal;font-variant:normal;font-weight:400;font-stretch:normal;font-size:14px;line-height:1.25;font-family:Baskerville;-inkscape-font-specification:Baskerville">s</tspan>        </text><g transform="matrix(1.10433 0 0 1.10433 -362.733 -1489.235)"><use xlink:href="#j" width="100%" height="100%" x="173.52" y="134.76" style="fill:#000;fill-opacity:1" transform="matrix(1.25 0 0 1.25 -372.606 795.886)"/><use xlink:href="#k" width="100%" height="100%" x="180.12" y="134.76" style="fill:#000;fill-opacity:1" transform="matrix(1.25 0 0 1.25 -365.44 795.886)"/><text xml:space="preserve" x="-188.716" y="562.8" style="font-style:normal;font-weight:400;line-height:0%;font-family:sans-serif;letter-spacing:0;word-spacing:0;fill:#000;fill-opacity:1;stroke:none;stroke-width:1px;stroke-linecap:butt;stroke-linejoin:miter;stroke-opacity:1" transform="translate(37.177 401.476)">           <tspan x="-188.716" y="562.8" style="font-style:normal;font-variant:normal;font-weight:400;font-stretch:normal;font-size:14px;line-height:1.25;font-family:Baskerville;-inkscape-font-specification:Baskerville">m</tspan>        </text><use xlink:href="#c" width="100%" height="100%" x="154.44" y="134.76" style="fill:#000;fill-opacity:1" transform="rotate(-.065 705792.007 317956.489) scale(1.25)"/></g><g style="stroke:#000;stroke-opacity:1;stroke-width:.06749599;stroke-dasharray:none"><g style="fill:#000;fill-opacity:1;stroke:#000;stroke-opacity:1;stroke-width:.05399678;stroke-dasharray:none"><path d="M.156-3.984c.125-.032.188-.047.297-.047.578 0 .719.25 1.188 1.968.156.641.406 1.813.406 1.985 0 .156-.063.312-.219.5-.297.406-.5.672-.61.781C1 1.422.892 1.5.75 1.5c-.047 0-.125-.031-.234-.11-.141-.109-.25-.171-.36-.171a.387.387 0 0 0-.39.39c0 .25.218.438.5.438.64 0 1.953-1.485 3.03-3.469.673-1.219.954-1.937.954-2.422a.554.554 0 0 0-.547-.547c-.234 0-.39.141-.39.36 0 .156.078.265.28.39.188.11.25.204.25.344 0 .39-.359 1.172-1.218 2.578l-.188-1.156c-.156-.875-.718-2.516-.859-2.516h-.125l-.984.172a1.759 1.759 0 0 1-.313.063zm0 0" style="stroke:#000;stroke-opacity:1;stroke-width:.05399678;stroke-dasharray:none" transform="scale(1.73621) rotate(-71.424 125.567 -72.849)"/></g><g style="fill:#000;fill-opacity:1;stroke:#000;stroke-opacity:1;stroke-width:.05399678;stroke-dasharray:none"><path d="M6.844-3.266c.156 0 .343 0 .343-.187 0-.203-.187-.203-.328-.203H.891c-.141 0-.329 0-.329.203 0 .187.188.187.329.187zm.015 1.938c.141 0 .329 0 .329-.203 0-.188-.188-.188-.344-.188H.89c-.141 0-.329 0-.329.188 0 .203.188.203.329.203zm0 0" style="stroke:#000;stroke-opacity:1;stroke-width:.05399678;stroke-dasharray:none" transform="matrix(.55308 -1.64576 1.64576 .55308 272.17 109.404)"/></g><g style="fill:#000;fill-opacity:1;stroke:#000;stroke-opacity:1;stroke-width:.05399678;stroke-dasharray:none"><path d="M.344-3.953h.906L.375.234C.156 1.313-.172 1.86-.594 1.86c-.125 0-.203-.078-.203-.171 0-.016.016-.047.047-.11a.264.264 0 0 0 .047-.156c0-.203-.188-.375-.39-.375-.22 0-.376.172-.376.406 0 .344.36.61.797.61.875 0 1.578-.985 1.985-2.813l.718-3.203h1.094l.063-.313H2.109c.282-1.562.657-2.28 1.204-2.28.14 0 .218.062.218.124 0 .031 0 .047-.031.11a.344.344 0 0 0-.063.203c0 .234.157.39.376.39.218 0 .421-.172.421-.39 0-.375-.375-.657-.859-.657-.5 0-.875.22-1.234.688-.313.39-.5.86-.813 1.812H.422zm0 0" style="stroke:#000;stroke-opacity:1;stroke-width:.05399678;stroke-dasharray:none" transform="matrix(.55308 -1.64576 1.64576 .55308 278.41 90.84)"/></g><g style="fill:#000;fill-opacity:1;stroke:#000;stroke-opacity:1;stroke-width:.05399678;stroke-dasharray:none"><path d="M1.86-3.5c.046-.094.077-.156.077-.234 0-.22-.203-.391-.421-.391-.204 0-.344.14-.391.328L.25-.562c0 .015-.031.093-.031.093 0 .078.187.14.25.14.047 0 .047-.03.094-.124zm0 0" style="stroke:#000;stroke-opacity:1;stroke-width:.05399678;stroke-dasharray:none" transform="scale(1.73621) rotate(-71.424 111.963 -86.49)"/></g><g style="fill:#000;fill-opacity:1;stroke:#000;stroke-opacity:1;stroke-width:.05399678;stroke-dasharray:none"><path d="M1.86-3.5c.046-.094.077-.156.077-.234 0-.22-.203-.391-.421-.391-.204 0-.344.14-.391.328L.25-.562c0 .015-.031.093-.031.093 0 .078.187.14.25.14.047 0 .047-.03.094-.124zm0 0" style="stroke:#000;stroke-opacity:1;stroke-width:.05399678;stroke-dasharray:none" transform="matrix(.55308 -1.64576 1.64576 .55308 275.936 78.579)"/></g><g style="fill:#000;fill-opacity:1;stroke:#000;stroke-opacity:1;stroke-width:.05399678;stroke-dasharray:none"><path d="M3.297 2.39c0-.03 0-.046-.172-.218C1.891.922 1.562-.968 1.562-2.5c0-1.734.375-3.469 1.61-4.703.125-.125.125-.14.125-.172 0-.078-.031-.11-.094-.11-.11 0-1 .688-1.594 1.954C1.11-4.438.984-3.328.984-2.5c0 .781.11 1.984.657 3.125C2.25 1.844 3.094 2.5 3.203 2.5c.063 0 .094-.031.094-.11zm0 0" style="stroke:#000;stroke-opacity:1;stroke-width:.05399678;stroke-dasharray:none" transform="matrix(.55308 -1.64576 1.64576 .55308 283.32 76.226)"/></g><g style="fill:#000;fill-opacity:1;stroke:#000;stroke-opacity:1;stroke-width:.05399678;stroke-dasharray:none"><path d="M2.953-4.266h-.797l.281-1.03v-.048c0-.062-.03-.093-.078-.093-.062 0-.093 0-.14.078-.39.515-1.016 1.015-1.328 1.109-.25.078-.329.14-.329.25 0 0 0 .016.016.047h.735l-.72 2.75c-.015.094-.03.11-.062.203-.078.297-.156.656-.156.734 0 .22.203.375.469.375.469 0 .797-.28 1.422-1.203l-.125-.078c-.5.64-.657.797-.813.797-.094 0-.156-.078-.156-.203 0-.016 0-.016.016-.047l.875-3.328h.843zm0 0" style="stroke:#000;stroke-opacity:1;stroke-width:.05399678;stroke-dasharray:none" transform="matrix(.55308 -1.64576 1.64576 .55308 285.312 70.301)"/></g><g style="fill:#000;fill-opacity:1;stroke:#000;stroke-opacity:1;stroke-width:.05399678;stroke-dasharray:none"><path d="M2.875-2.5c0-.766-.11-1.969-.656-3.11C1.625-6.827.766-7.483.672-7.483a.107.107 0 0 0-.11.109c0 .031 0 .047.188.234.984.985 1.547 2.563 1.547 4.641 0 1.719-.36 3.469-1.594 4.719-.14.125-.14.14-.14.172 0 .062.046.109.109.109.094 0 1-.688 1.578-1.953.516-1.094.625-2.203.625-3.047Zm0 0" style="stroke:#000;stroke-opacity:1;stroke-width:.05399678;stroke-dasharray:none" transform="matrix(.55308 -1.64576 1.64576 .55308 287.237 64.574)"/></g></g><g transform="translate(-762.097 -445.247)"><g style="fill:#000;stroke:#000;stroke-width:.0708708;stroke-dasharray:none;stroke-opacity:1"><g style="font-size:13.252px;line-height:0%;letter-spacing:0;word-spacing:0;fill:#000;stroke:#000;stroke-width:.0708708;stroke-dasharray:none;stroke-opacity:1"><path d="M1046.247 484.533v-2.03h.295q.513 1.758 1.834 1.758.574 0 .853-.347.287-.347.287-.763 0-.483-.302-.792-.31-.31-1.2-.748-.936-.46-1.344-.906-.407-.437-.407-1.079 0-.612.437-1.163.438-.558 1.23-.558.809 0 1.337.657.113-.114.295-.552h.279v1.91h-.28q-.15-.687-.588-1.177-.43-.499-1.02-.499-.452 0-.732.28-.279.28-.279.649 0 .408.31.702.302.302 1.155.687 1.283.581 1.57 1.132.287.56.287 1.072 0 .808-.536 1.314-.529.506-1.337.506-.853 0-1.517-.702-.204.226-.332.649z" aria-label="s" style="font-size:15.4607px;line-height:1.25;font-family:Baskerville;-inkscape-font-specification:Baskerville;fill:#000;stroke:#000;stroke-width:.0708708;stroke-dasharray:none;stroke-opacity:1" transform="translate(-299.67 -173.854) scale(1.32283)"/></g><g style="font-size:13.252px;line-height:0%;letter-spacing:0;word-spacing:0;fill:#000;stroke:#000;stroke-width:.0708708;stroke-dasharray:none;stroke-opacity:1"><path d="m1054.044 478.897-.103-.044c-.244.414-.4.495-.71.495h-1.73l1.22-1.3c.658-.695.946-1.25.946-1.834 0-.732-.532-1.3-1.367-1.3-.91 0-1.383.605-1.538 1.47l.155.037c.296-.724.555-.96 1.087-.96.628 0 1.027.369 1.027 1.042 0 .628-.266 1.19-.96 1.921l-1.316 1.397v.09h2.89z" aria-label="2" style="font-size:7.39177px;line-height:1.25;font-family:STIXGeneral;-inkscape-font-specification:STIXGeneral;fill:#000;stroke:#000;stroke-width:.0708708;stroke-dasharray:none;stroke-opacity:1" transform="translate(-299.67 -173.854) scale(1.32283)"/></g></g><path d="M145.327 632.46H315.41m-170.083-35.43H315.41m-170.083-35.434H315.41m-170.083-35.434H315.41m-170.083-35.435H315.41M159.502 646.635V476.557m35.434 170.078V476.557m35.435 170.078V476.557m35.43 170.078V476.557m35.434 170.078V476.557" style="fill:none;stroke:#9e9ed1;stroke-width:.249062;stroke-linecap:butt;stroke-linejoin:miter;stroke-miterlimit:10;stroke-opacity:1"/><path d="M145.327 561.596H315.41M230.371 646.635V476.557" style="fill:none;stroke:#000;stroke-width:.498125;stroke-linecap:butt;stroke-linejoin:miter;stroke-miterlimit:10;stroke-opacity:1"/><path d="M290.605 580.02h21.26v-14.17h-21.26Zm0 0" style="fill:#fdfdfd;fill-opacity:1;fill-rule:nonzero;stroke:#fdfdfd;stroke-width:.498125;stroke-linecap:butt;stroke-linejoin:miter;stroke-miterlimit:10;stroke-opacity:1"/><use xlink:href="#l" width="100%" height="100%" x="356.963" y="332.204" style="fill:#b0b0d9;fill-opacity:1" transform="matrix(1.25 0 0 1.25 -148.081 161.845)"/><path d="M148.872 580.02h21.26v-14.17h-21.26Zm0 0" style="fill:#fdfdfd;fill-opacity:1;fill-rule:nonzero;stroke:#fdfdfd;stroke-width:.498125;stroke-linecap:butt;stroke-linejoin:miter;stroke-miterlimit:10;stroke-opacity:1"/><use xlink:href="#m" width="100%" height="100%" x="239.705" y="331.79" style="fill:#b0b0d9;fill-opacity:1" transform="matrix(1.25 0 0 1.25 -148.081 161.845)"/><use xlink:href="#l" width="100%" height="100%" x="247.505" y="331.79" style="fill:#b0b0d9;fill-opacity:1" transform="matrix(1.25 0 0 1.25 -148.081 161.845)"/><path d="M216.904 497.817h9.566v-14.175h-9.566zm0 0" style="fill:#fdfdfd;fill-opacity:1;fill-rule:nonzero;stroke:#fdfdfd;stroke-width:.498125;stroke-linecap:butt;stroke-linejoin:miter;stroke-miterlimit:10;stroke-opacity:1"/><use xlink:href="#l" width="100%" height="100%" x="293.75" y="266.439" style="fill:#b0b0d9;fill-opacity:1" transform="matrix(1.25 0 0 1.25 -148.081 161.845)"/><path d="M208.047 639.55h16.655v-14.174h-16.655Zm0 0" style="fill:#fdfdfd;fill-opacity:1;fill-rule:nonzero;stroke:#fdfdfd;stroke-width:.498125;stroke-linecap:butt;stroke-linejoin:miter;stroke-miterlimit:10;stroke-opacity:1"/><use xlink:href="#m" width="100%" height="100%" x="285.627" y="379.412" style="fill:#b0b0d9;fill-opacity:1" transform="matrix(1.25 0 0 1.25 -148.081 161.845)"/><use xlink:href="#l" width="100%" height="100%" x="293.427" y="379.412" style="fill:#b0b0d9;fill-opacity:1" transform="matrix(1.25 0 0 1.25 -148.081 161.845)"/><path d="M315.41 561.596h7.085M230.371 476.557v-7.09" style="fill:none;stroke:#000;stroke-width:.498125;stroke-linecap:butt;stroke-linejoin:miter;stroke-miterlimit:10;stroke-opacity:1"/><path d="M322.373 561.596h-.684" style="fill:none;stroke:#000;stroke-width:.871737;stroke-linecap:butt;stroke-linejoin:miter;stroke-miterlimit:10;stroke-opacity:1"/><path d="M319.858 559.155c.152.913 1.831 2.29 2.29 2.441-.459.152-2.138 1.524-2.29 2.442" style="fill:none;stroke:#000;stroke-width:.697375;stroke-linecap:round;stroke-linejoin:round;stroke-miterlimit:10;stroke-opacity:1"/><path d="M230.371 469.594v.679" style="fill:none;stroke:#000;stroke-width:.871737;stroke-linecap:butt;stroke-linejoin:miter;stroke-miterlimit:10;stroke-opacity:1"/><path d="M227.93 472.104c.913-.151 2.285-1.831 2.441-2.285.151.454 1.523 2.134 2.441 2.285" style="fill:none;stroke:#000;stroke-width:.697375;stroke-linecap:round;stroke-linejoin:round;stroke-miterlimit:10;stroke-opacity:1"/><path d="m145.327 478.896.713 1.309 1.416 2.695.708 1.343.708 1.347.708 1.314.708 1.343 1.416 2.695.713 1.309 1.416 2.695.708 1.308 1.416 2.696.708 1.308.713 1.348.708 1.309 1.416 2.695.708 1.313.708 1.343.708 1.314.713 1.347.708 1.309.708 1.348.708 1.308.708 1.348.708 1.313.708 1.309.713 1.348.708 1.308.708 1.314.708 1.347.708 1.309.708 1.313.708 1.309.708 1.348.713 1.308.708 1.314.708 1.308 1.416 2.627 1.416 2.617.713 1.314.703 1.308.713 1.314.708 1.313.708 1.309.708 1.274.708 1.314.708 1.308.713 1.275.708 1.313.708 1.275.708 1.313.708 1.275.708 1.313.708 1.275.713 1.274 1.416 2.549.708 1.28 1.416 2.548.712 1.274.708 1.28.708 1.24.708 1.274 1.416 2.48.708 1.275 1.416 2.48.713 1.207 1.416 2.48.708 1.201.708 1.206.708 1.24.708 1.207.708 1.167.713 1.206.708 1.172.708 1.2.708 1.138.708 1.167.708 1.172.713 1.133 1.416 2.266 2.124 3.296.708 1.064.708 1.06.713 1.064.708 1.03.708 1.026 1.416 1.982.708.957.708.923.713.957.708.884.708.889 1.416 1.699.708.781.708.815.713.743.703.708.713.708.708.674.708.64.708.6 1.416 1.133.713.498.708.498 1.416.85.708.39.708.351.708.323.713.278.708.288.708.244.708.215.708.176 1.416.283.708.108.713.107.708.068.708.034.708.039h1.416l.708-.039.713-.034.708-.068.708-.073.708-.068 2.124-.322.708-.142.713-.142.708-.141.708-.176.708-.142.708-.175.708-.18.713-.21.708-.177.708-.215.708-.21.708-.214.708-.21.708-.25.708-.214.708-.25.713-.243 2.124-.747.708-.284.708-.249.713-.244.708-.283.708-.288.708-.244.708-.283.708-.288.708-.284.713-.278.708-.288.708-.317 1.416-.567.708-.317.708-.283.708-.323.712-.283.708-.317.709-.284.708-.322 1.416-.635.708-.283.708-.322.712-.317 1.416-.635.708-.322 1.416-.635.708-.322.713-.318.708-.351.708-.323.708-.317.708-.322.708-.352.713-.317.703-.323.713-.317.708-.356.708-.318.708-.356 1.416-.635.708-.356.713-.318.708-.356.708-.318.708-.356.708-.352.708-.317.708-.356.708-.318.713-.356.708-.352.708-.322.708-.352.708-.317 1.416-.713.713-.352.708-.322.708-.351.708-.357.708-.351.708-.318.708-.356.713-.357.708-.351.708-.322" style="fill:none;stroke:red;stroke-width:.996262;stroke-linecap:butt;stroke-linejoin:miter;stroke-miterlimit:10;stroke-opacity:1"/><use xlink:href="#i" width="100%" height="100%" x="148.44" y="134.76" style="fill:#000;fill-opacity:1" transform="matrix(1.38042 0 0 1.38042 124.925 378.394)"/><use xlink:href="#j" width="100%" height="100%" x="173.52" y="134.76" style="fill:#000;fill-opacity:1" transform="matrix(1.38042 0 0 1.38042 98.5 378.647)"/><use xlink:href="#k" width="100%" height="100%" x="180.12" y="134.76" style="fill:#000;fill-opacity:1" transform="matrix(1.38042 0 0 1.38042 98.5 378.647)"/><text xml:space="preserve" x="-152.118" y="562.049" style="font-style:normal;font-weight:400;line-height:0%;font-family:sans-serif;letter-spacing:0;word-spacing:0;fill:#000;fill-opacity:1;stroke:none;stroke-width:1px;stroke-linecap:butt;stroke-linejoin:miter;stroke-opacity:1" transform="matrix(1.10433 0 0 1.10433 509.957 -56.084)">           <tspan x="-152.118" y="562.049" style="font-style:normal;font-variant:normal;font-weight:400;font-stretch:normal;font-size:14px;line-height:1.25;font-family:Baskerville;-inkscape-font-specification:Baskerville">s</tspan>        </text><g transform="matrix(1.10433 0 0 1.10433 399.364 -609.622)"><use xlink:href="#j" width="100%" height="100%" x="173.52" y="134.76" style="fill:#000;fill-opacity:1" transform="matrix(1.25 0 0 1.25 -372.606 795.886)"/><use xlink:href="#k" width="100%" height="100%" x="180.12" y="134.76" style="fill:#000;fill-opacity:1" transform="matrix(1.25 0 0 1.25 -365.44 795.886)"/><text xml:space="preserve" x="-188.716" y="562.8" style="font-style:normal;font-weight:400;line-height:0%;font-family:sans-serif;letter-spacing:0;word-spacing:0;fill:#000;fill-opacity:1;stroke:none;stroke-width:1px;stroke-linecap:butt;stroke-linejoin:miter;stroke-opacity:1" transform="translate(37.177 401.476)">           <tspan x="-188.716" y="562.8" style="font-style:normal;font-variant:normal;font-weight:400;font-stretch:normal;font-size:14px;line-height:1.25;font-family:Baskerville;-inkscape-font-specification:Baskerville">m</tspan>        </text><use xlink:href="#c" width="100%" height="100%" x="154.44" y="134.76" style="fill:#000;fill-opacity:1" transform="rotate(-.065 705792.007 317956.489) scale(1.25)"/></g><path d="M954.286 695.211h224.99m-224.99-46.867h224.99m-224.99-46.874h224.99m-224.99-46.874h224.99m-224.99-46.874h224.99m-206.24 206.24V488.978m46.875 224.984V488.978m46.874 224.984V488.978m46.867 224.984V488.978m46.874 224.984V488.978" style="fill:none;stroke:#9e9ed1;stroke-width:.329467;stroke-linecap:butt;stroke-linejoin:miter;stroke-miterlimit:10;stroke-opacity:1"/><path d="M954.286 601.47h224.99M1066.785 713.962V488.978" style="fill:none;stroke:#000;stroke-width:.658935;stroke-linecap:butt;stroke-linejoin:miter;stroke-miterlimit:10;stroke-opacity:1"/><path d="M1146.464 625.84h28.124v-18.744h-28.124zm0 0" style="fill:#fdfdfd;fill-opacity:1;fill-rule:nonzero;stroke:#fdfdfd;stroke-width:.658935;stroke-linecap:butt;stroke-linejoin:miter;stroke-miterlimit:10;stroke-opacity:1"/><use xlink:href="#l" width="100%" height="100%" x="356.963" y="332.204" style="fill:#b0b0d9;fill-opacity:1" transform="matrix(1.65354 0 0 1.65354 566.157 72.667)"/><path d="M958.975 625.84h28.123v-18.744h-28.123zm0 0" style="fill:#fdfdfd;fill-opacity:1;fill-rule:nonzero;stroke:#fdfdfd;stroke-width:.658935;stroke-linecap:butt;stroke-linejoin:miter;stroke-miterlimit:10;stroke-opacity:1"/><use xlink:href="#m" width="100%" height="100%" x="239.705" y="331.79" style="fill:#b0b0d9;fill-opacity:1" transform="matrix(1.65354 0 0 1.65354 566.157 72.667)"/><use xlink:href="#l" width="100%" height="100%" x="247.505" y="331.79" style="fill:#b0b0d9;fill-opacity:1" transform="matrix(1.65354 0 0 1.65354 566.157 72.667)"/><path d="M1037.254 704.59h22.032v-18.75h-22.033zm0 0" style="fill:#fdfdfd;fill-opacity:1;fill-rule:nonzero;stroke:#fdfdfd;stroke-width:.658935;stroke-linecap:butt;stroke-linejoin:miter;stroke-miterlimit:10;stroke-opacity:1"/><use xlink:href="#m" width="100%" height="100%" x="285.627" y="379.412" style="fill:#b0b0d9;fill-opacity:1" transform="matrix(1.65354 0 0 1.65354 566.157 72.667)"/><use xlink:href="#l" width="100%" height="100%" x="293.427" y="379.412" style="fill:#b0b0d9;fill-opacity:1" transform="matrix(1.65354 0 0 1.65354 566.157 72.667)"/><path d="M1179.277 601.47h9.372M1066.785 488.978v-9.379" style="fill:none;stroke:#000;stroke-width:.658935;stroke-linecap:butt;stroke-linejoin:miter;stroke-miterlimit:10;stroke-opacity:1"/><path d="M1188.487 601.47h-.904" style="fill:none;stroke:#000;stroke-width:1.15316;stroke-linecap:butt;stroke-linejoin:miter;stroke-miterlimit:10;stroke-opacity:1"/><path d="M1185.161 598.24c.2 1.208 2.422 3.03 3.03 3.23-.608.2-2.83 2.015-3.03 3.23" style="fill:none;stroke:#000;stroke-width:.922509;stroke-linecap:round;stroke-linejoin:round;stroke-miterlimit:10;stroke-opacity:1"/><path d="M1066.785 479.767v.898" style="fill:none;stroke:#000;stroke-width:1.15316;stroke-linecap:butt;stroke-linejoin:miter;stroke-miterlimit:10;stroke-opacity:1"/><path d="M1063.555 483.087c1.208-.2 3.023-2.422 3.23-3.023.2.6 2.015 2.823 3.23 3.023" style="fill:none;stroke:#000;stroke-width:.922509;stroke-linecap:round;stroke-linejoin:round;stroke-miterlimit:10;stroke-opacity:1"/><path d="m954.286 600.346.943-.052h.937l1.873-.09h.936l.937-.045.936-.051h.937l.937-.045.943-.045.936-.045.937-.052h.936l2.81-.135.943-.052 1.873-.09.937-.051.936-.09 1.874-.09.943-.052.936-.09.937-.052.936-.045.937-.09.936-.096.937-.045.943-.097.937-.09.936-.045.937-.096.936-.09.937-.097.937-.142.936-.09.943-.097.937-.135.936-.097 1.873-.284.937-.136.937-.142.943-.142.93-.142.943-.187.936-.136 1.874-.375.936-.239.937-.187.943-.233 1.873-.465.936-.239.937-.284.937-.277.936-.33.943-.278.937-.33 2.81-1.123.936-.42.943-.426.937-.465.936-.472.937-.516 1.873-1.124.937-.607.936-.66.937-.703.943-.75.936-.749.937-.846.936-.84.937-.936.937-.989.936-1.078.937-1.124.943-1.17.936-1.265.937-1.311.936-1.454.937-1.505.937-1.589.943-1.692.936-1.828.937-1.873.936-2.06.937-2.113.937-2.247.936-2.39.937-2.487.943-2.577.936-2.765.937-2.81.936-2.951.937-3.094.937-3.146.936-3.236.943-3.274.937-3.282.936-3.333.937-3.326.936-3.281.937-3.185.937-3.048.943-2.862.93-2.668.943-2.441.936-2.106.937-1.828.937-1.408.936-1.078.937-.608.943-.238.936.238.937.608.936 1.078.937 1.408.937 1.828.936 2.106.943 2.441.937 2.668.936 2.862.937 3.048.936 3.185.937 3.28.937 3.327.936 3.333.943 3.282.937 3.274.936 3.236.937 3.146.937 3.094.936 2.952.937 2.81.943 2.764.936 2.577.937 2.487.936 2.39.937 2.247.937 2.113.936 2.06.937 1.873.943 1.828.936 1.692.937 1.59.937 1.504.936 1.454.937 1.31.943 1.267.936 1.169.937 1.124.936 1.078.937.989.937.936.936.84.937.846.936.75.943.749.937.704.936.659.937.607 1.873 1.124.943.516.937.472.936.465.937.426.936.42 1.874.75.943.374.936.33.937.277.936.33.937.277.936.284.937.24.937.232.943.232.936.233.937.187.936.24 1.874.374.936.136.937.187.943.142 1.873.284.936.136 1.874.284.936.097.943.135.937.097.936.09.937.142.936.097.937.09.943.096.93.045.943.09.937.097.936.045.937.096.937.09.936.045.937.052.943.09.936.052 1.873.09.937.09.937.051 1.873.09.943.052 2.81.135h.936l.937.052.936.045.943.045.937.045h.936l.937.051.937.045h.936l.937.045.943.045h.936l.937.052" style="fill:none;stroke:red;stroke-width:1.31789;stroke-linecap:butt;stroke-linejoin:miter;stroke-miterlimit:10;stroke-opacity:1"/><g style="fill:#000;fill-opacity:1;stroke:#000;stroke-opacity:1;stroke-width:0;stroke-dasharray:none"><path stroke="none" d="M2.953-4.266h-.797l.281-1.03v-.048c0-.062-.03-.093-.078-.093-.062 0-.093 0-.14.078-.39.515-1.016 1.015-1.328 1.109-.25.078-.329.14-.329.25 0 0 0 .016.016.047h.735l-.72 2.75c-.015.094-.03.11-.062.203-.078.297-.156.656-.156.734 0 .22.203.375.469.375.469 0 .797-.28 1.422-1.203l-.125-.078c-.5.64-.657.797-.813.797-.094 0-.156-.078-.156-.203 0-.016 0-.016.016-.047l.875-3.328h.843zm0 0" style="stroke:#000;stroke-opacity:1;stroke-width:0;stroke-dasharray:none" transform="matrix(1.82606 0 0 1.82606 1199.14 605.297)"/></g><g style="fill:#000;fill-opacity:1;stroke:#000;stroke-opacity:1;stroke-width:.05134009;stroke-dasharray:none"><path d="M2.547 2.5v-.406h-.969v-9.172h.969v-.406H1.172V2.5Zm0 0" style="stroke:#000;stroke-opacity:1;stroke-width:.05134009;stroke-dasharray:none" transform="matrix(1.82606 0 0 1.82606 1209.98 605.63)"/></g><g style="fill:#000;fill-opacity:1;stroke:#000;stroke-opacity:1;stroke-width:.05134009;stroke-dasharray:none"><path d="M1.578-7.484H.218v.406h.97v9.172h-.97V2.5h1.36zm0 0" style="stroke:#000;stroke-opacity:1;stroke-width:.05134009;stroke-dasharray:none" transform="matrix(1.82606 0 0 1.82606 1222.033 605.63)"/></g><g style="font-size:13.252px;line-height:0%;letter-spacing:0;word-spacing:0;stroke-width:.07087078;stroke:#000;stroke-opacity:1;stroke-dasharray:none"><path d="M1152.963 595.107v-2.03h.295q.513 1.758 1.834 1.758.574 0 .853-.347.287-.347.287-.763 0-.483-.302-.792-.31-.31-1.2-.748-.936-.46-1.344-.906-.408-.437-.408-1.08 0-.61.438-1.162.438-.558 1.23-.558.809 0 1.337.656.113-.113.294-.55h.28v1.91h-.28q-.15-.688-.589-1.178-.43-.499-1.019-.499-.453 0-.732.28-.28.279-.28.649 0 .408.31.702.302.302 1.155.687 1.284.581 1.57 1.132.288.559.288 1.072 0 .808-.536 1.314-.529.506-1.337.506-.853 0-1.517-.702-.204.226-.332.649z" aria-label="s" style="font-size:15.4607px;line-height:1.25;font-family:Baskerville;-inkscape-font-specification:Baskerville;stroke:#000;stroke-opacity:1;stroke-width:.07087078;stroke-dasharray:none" transform="translate(-308.796 -181.643) scale(1.32283)"/></g><use xlink:href="#n" width="100%" height="100%" x="295.8" y="138.6" style="fill:#000;fill-opacity:1" transform="matrix(1.82606 0 0 2.31966 436.585 64.604)"/><path d="M987.67 405.694h14.244v.878H987.67zm0 0" style="fill:#000;fill-opacity:1;fill-rule:nonzero;stroke:none;stroke-width:1.32804"/><g style="fill:#000;fill-opacity:1"><path d="M1.969 17.063H.172v.468h2.265V-.406H.172v.469h1.797Zm0 0" style="stroke:none" transform="matrix(1.82606 0 0 2.31966 1003.905 386.109)"/></g><g style="font-size:12.0473px;line-height:0%;letter-spacing:0;word-spacing:0;stroke-width:1.00394px"><path d="M993.495 459.566h.075q.22.506.22 1.299.505-.65 1.086-.974.59-.325 1.26-.325.763 0 1.239.348.476.347.664 1.041.574-.694 1.178-1.041.604-.348 1.23-.348.718 0 1.216.332.498.333.604.755.106.423.106 1.367v1.857q0 1.08.038 1.313.045.234.241.348.204.113.748.113v.347h-3.088v-.347q.49 0 .687-.106.204-.113.249-.332.045-.226.045-1.336v-2.061q0-.627-.075-.944-.068-.317-.37-.543-.302-.227-.785-.227-.49 0-.989.332-.49.333-.989 1.004v2.439q0 .989.023 1.245.03.25.211.393.19.136.665.136v.347h-2.99v-.347q.506 0 .702-.106.204-.105.25-.324.052-.22.052-1.344v-1.714q0-.815-.068-1.177-.06-.37-.385-.627-.324-.264-.807-.264-.468 0-.959.302-.483.302-.989.906v2.574q0 1.019.03 1.268.03.25.226.378.197.128.703.128v.347h-3.028v-.347q.499 0 .695-.106.204-.113.249-.332.045-.219.045-1.336v-1.85q0-1.057-.038-1.29-.03-.242-.234-.363-.196-.12-.717-.12v-.348q1.072-.106 1.774-.34z" aria-label="m" style="font-size:15.4607px;line-height:1.25;font-family:Baskerville;-inkscape-font-specification:Baskerville" transform="translate(-324.81 -217.882) scale(1.32283)"/></g><g style="font-size:13.252px;line-height:0%;letter-spacing:0;word-spacing:0;stroke-width:1.10433px"><path d="M1046.247 484.533v-2.03h.295q.513 1.758 1.834 1.758.574 0 .853-.347.287-.347.287-.763 0-.483-.302-.792-.31-.31-1.2-.748-.936-.46-1.344-.906-.407-.437-.407-1.079 0-.612.437-1.163.438-.558 1.23-.558.809 0 1.337.657.113-.114.295-.552h.279v1.91h-.28q-.15-.687-.588-1.177-.43-.499-1.02-.499-.452 0-.732.28-.279.28-.279.649 0 .408.31.702.302.302 1.155.687 1.283.581 1.57 1.132.287.56.287 1.072 0 .808-.536 1.314-.529.506-1.337.506-.853 0-1.517-.702-.204.226-.332.649z" aria-label="s" style="font-size:15.4607px;line-height:1.25;font-family:Baskerville;-inkscape-font-specification:Baskerville" transform="translate(-394.372 -217.882) scale(1.32283)"/></g><g style="font-size:13.252px;line-height:0%;letter-spacing:0;word-spacing:0;stroke-width:1.10433px"><path d="m1054.044 478.897-.103-.044c-.244.414-.4.495-.71.495h-1.73l1.22-1.3c.658-.695.946-1.25.946-1.834 0-.732-.532-1.3-1.367-1.3-.91 0-1.383.605-1.538 1.47l.155.037c.296-.724.555-.96 1.087-.96.628 0 1.027.369 1.027 1.042 0 .628-.266 1.19-.96 1.921l-1.316 1.397v.09h2.89z" aria-label="2" style="font-size:7.39177px;line-height:1.25;font-family:STIXGeneral;-inkscape-font-specification:STIXGeneral" transform="translate(-394.372 -217.882) scale(1.32283)"/></g><g transform="rotate(-22.508 1376.783 200.318) scale(1.3125)"><use xlink:href="#c" width="100%" height="100%" x="154.44" y="134.76" style="fill:#000;fill-opacity:1"/><use xlink:href="#d" width="100%" height="100%" x="161.04" y="134.76" style="fill:#000;fill-opacity:1"/><use xlink:href="#e" width="100%" height="100%" x="172.44" y="134.76" style="fill:#000;fill-opacity:1"/><use xlink:href="#f" width="100%" height="100%" x="176.64" y="134.76" style="fill:#000;fill-opacity:1"/><use xlink:href="#g" width="100%" height="100%" x="180.24" y="134.76" style="fill:#000;fill-opacity:1"/><use xlink:href="#h" width="100%" height="100%" x="183.72" y="134.76" style="fill:#000;fill-opacity:1"/></g><path stroke-width=".017" d="m1083.203 455.378-3.881 11.747h-1.158l3.899-11.747z" style="stroke:#000;stroke-width:.09375;stroke-dasharray:none;stroke-opacity:1"/><g style="font-size:15.4607px;line-height:125%;letter-spacing:0;word-spacing:0;stroke:#000;stroke-width:.0708992;stroke-dasharray:none;stroke-opacity:1"><path d="M669.541 341.663h.076q.219.506.219 1.299.505-.65 1.087-.974.589-.325 1.26-.325.763 0 1.239.347.475.348.664 1.042.574-.694 1.178-1.042.603-.347 1.23-.347.717 0 1.215.332.499.332.604.755.106.423.106 1.367v1.857q0 1.08.038 1.313.045.234.241.348.204.113.748.113v.347h-3.088v-.347q.49 0 .687-.106.204-.113.25-.332.045-.227.045-1.336v-2.061q0-.627-.076-.944-.068-.317-.37-.543-.302-.227-.785-.227-.49 0-.989.332-.49.332-.989 1.004v2.439q0 .989.023 1.245.03.25.211.393.189.136.664.136v.347h-2.99v-.347q.507 0 .703-.106.204-.106.25-.324.052-.22.052-1.344v-1.714q0-.815-.068-1.178-.06-.37-.385-.626-.325-.264-.808-.264-.468 0-.958.302-.484.302-.99.905v2.575q0 1.019.03 1.268.031.25.227.377.197.129.702.129v.347h-3.027v-.347q.498 0 .695-.106.203-.113.249-.332.045-.219.045-1.336v-1.85q0-1.057-.038-1.29-.03-.242-.234-.363-.196-.12-.717-.12v-.348q1.072-.106 1.774-.34z" aria-label="m" style="font-family:Baskerville;-inkscape-font-specification:Baskerville;stroke:#000;stroke-width:.0708992;stroke-dasharray:none;stroke-opacity:1" transform="translate(179.381 6.725) scale(1.3223)"/></g><g style="fill:#000;fill-opacity:1;stroke:#000;stroke-width:.0513607;stroke-dasharray:none;stroke-opacity:1"><path d="M2.547 2.5v-.406h-.969v-9.172h.969v-.406H1.172V2.5Zm0 0" style="stroke:#000;stroke-width:.0513607;stroke-dasharray:none;stroke-opacity:1" transform="matrix(1.82533 0 0 1.82533 1055.659 466.865)"/></g><g style="fill:#000;fill-opacity:1;stroke:#000;stroke-width:.0513607;stroke-dasharray:none;stroke-opacity:1"><path d="M1.578-7.484H.218v.406h.97v9.172h-.97V2.5h1.36zm0 0" style="stroke:#000;stroke-width:.0513607;stroke-dasharray:none;stroke-opacity:1" transform="matrix(1.82533 0 0 1.82533 1095.777 466.865)"/></g><path d="M.156-3.984c.125-.032.188-.047.297-.047.578 0 .719.25 1.188 1.968.156.641.406 1.813.406 1.985 0 .156-.063.312-.219.5-.297.406-.5.672-.61.781C1 1.422.892 1.5.75 1.5c-.047 0-.125-.031-.234-.11-.141-.109-.25-.171-.36-.171a.387.387 0 0 0-.39.39c0 .25.218.438.5.438.64 0 1.953-1.485 3.03-3.469.673-1.219.954-1.937.954-2.422a.554.554 0 0 0-.547-.547c-.234 0-.39.141-.39.36 0 .156.078.265.28.39.188.11.25.204.25.344 0 .39-.359 1.172-1.218 2.578l-.188-1.156c-.156-.875-.718-2.516-.859-2.516h-.125l-.984.172a1.759 1.759 0 0 1-.313.063zm0 0" style="fill:#000;fill-opacity:1;stroke:#000;stroke-width:.0513401;stroke-dasharray:none;stroke-opacity:1" transform="rotate(-.104 415219.318 -922379.585) scale(1.82606)"/></g></svg>