<svg xmlns="http://www.w3.org/2000/svg" width="564.16" height="331.858" viewBox="0 0 528.9 311.117"><defs><clipPath id="b"><path d="M226.254 254.46H228V279h-1.746zm0 0"/></clipPath><clipPath id="c"><path d="M383 388h1.996v25.203H383zm0 0"/></clipPath><clipPath id="d"><path d="M383 254.46h1.996V279H383Zm0 0"/></clipPath><clipPath id="e"><path d="M226.254 254.46H228V279h-1.746zm0 0"/></clipPath><clipPath id="f"><path d="M383 388h1.996v25.203H383zm0 0"/></clipPath><clipPath id="g"><path d="M383 254.46h1.996V279H383Zm0 0"/></clipPath><symbol id="a" overflow="visible" style="overflow:visible"><path d="m4.734-1.36-.125-.062c-.375.578-.5.672-.953.672H1.281l1.672-1.766c.89-.921 1.281-1.687 1.281-2.453 0-1-.812-1.765-1.859-1.765-.547 0-1.063.218-1.422.609-.328.344-.469.656-.64 1.375l.203.047C.922-5.687 1.28-6 1.969-6c.828 0 1.406.563 1.406 1.406 0 .782-.469 1.703-1.297 2.594L.297-.125V0h3.89zm0 0" style="stroke:none"/></symbol></defs><g style="display:inline"><path d="M262.579 231.1c.035-22.1-.14-44.199-.284-66.297-.3-33.816-.094-61.031.254-94.846.07-16.203.74-31.221-.16-47.412l.646-.158c.881 16.203.203 31.232.126 47.446-.358 33.812-.565 61.026-.257 94.84.15 22.096.322 44.193.333 66.29z" style="fill:#000;fill-opacity:1;stroke:none;stroke-width:.34999999;stroke-miterlimit:10;stroke-dasharray:none;stroke-opacity:1" transform="translate(.004 26.768)"/><path d="M544.2 1797.871c3.348 1.456 6.854 2.512 10.376 3.452.152.055 4.029.92 3.973 1.104-.293.959-.965.904-1.772 1.137-4.115 1.125-8.06 2.746-11.926 4.53l.113-.697c3.888-1.777 7.854-3.385 11.982-4.523.36-.117.703-.384 1.08-.352.151.013.136.317.062.449-.045.08-.16-.091-.247-.12-.252-.083-.51-.146-.766-.213-.959-.25-1.926-.47-2.884-.721-3.567-.961-7.139-2.013-10.504-3.551l.514-.495z" style="fill:#000;fill-opacity:1;stroke:none;stroke-width:.34999999;stroke-miterlimit:10;stroke-dasharray:none;stroke-opacity:1" transform="rotate(-.472 -200039.78 22756.091)"/><path d="M556.523 1803.437c-9.294-.142-17.71-.156-27.767-.217-31.337.263-62.674.225-94.01.063-32.812-.335-65.623-.731-98.435-1.008-11.017-.085-5.91-.047-15.322-.113l.308-.633c9.409.076 4.304.034 15.316.128 32.808.298 65.615.699 98.422 1.029 31.34.157 62.68.187 94.02-.094 9.461.05 18.605-.023 27.863.233l-.395.612z" style="fill:#000;fill-opacity:1;stroke:none;stroke-width:.34999999;stroke-miterlimit:10;stroke-dasharray:none;stroke-opacity:1" transform="rotate(-.472 -200039.78 22756.091)"/></g><g style="display:inline"><path d="m459.077 1803.528 2.596.133 1.275-1.198-2.322-.296z" style="fill:#fdfdfd;fill-opacity:1;stroke:none;stroke-width:1.00000012;stroke-linecap:butt;stroke-linejoin:miter;stroke-miterlimit:4;stroke-dasharray:none;stroke-opacity:1" transform="translate(-179.254 -1649.421)"/></g><g style="display:inline" transform="translate(-179.254 -1649.421)"><path d="m440.932 1829.292.2 3.912 1.295-2.859-.045-4.07z" style="display:inline;fill:#fdfdfd;fill-opacity:1;stroke:none;stroke-width:1.00000012;stroke-linecap:butt;stroke-linejoin:miter;stroke-miterlimit:4;stroke-dasharray:none;stroke-opacity:1"/><g clip-path="url(#b)" style="clip-rule:nonzero" transform="matrix(1.25 0 0 1.25 -68.34 1467.155)"><path d="M-88.897 68.034c0 1-.813 1.813-1.813 1.813a1.811 1.811 0 0 1-1.812-1.813 1.812 1.812 0 1 1 3.625 0zm0 0" style="fill:none;stroke:red;stroke-width:.79701;stroke-linecap:butt;stroke-linejoin:miter;stroke-miterlimit:10;stroke-opacity:1" transform="matrix(1 0 0 -1 305.624 333.831)"/></g><g clip-path="url(#c)" style="clip-rule:nonzero" transform="matrix(1.25 0 0 1.25 -68.34 1467.155)"><path d="M92.524-68.032a1.814 1.814 0 1 1-3.627-.003 1.814 1.814 0 0 1 3.627.003zm0 0" style="fill:none;stroke:red;stroke-width:.79701;stroke-linecap:butt;stroke-linejoin:miter;stroke-miterlimit:10;stroke-opacity:1" transform="matrix(1 0 0 -1 305.624 333.831)"/></g><g clip-path="url(#d)" style="clip-rule:nonzero" transform="matrix(1.25 0 0 1.25 -68.34 1467.155)"><path d="M92.524 68.034a1.814 1.814 0 1 1-3.627-.002 1.814 1.814 0 0 1 3.627.002zm0 0" style="fill:none;stroke:red;stroke-width:.79701;stroke-linecap:butt;stroke-linejoin:miter;stroke-miterlimit:10;stroke-opacity:1" transform="matrix(1 0 0 -1 305.624 333.831)"/></g><g clip-path="url(#c)" style="clip-rule:nonzero" transform="matrix(1.25 0 0 1.25 195.656 1467.155)"><path d="M92.524-68.032a1.814 1.814 0 1 1-3.627-.003 1.814 1.814 0 0 1 3.627.003zm0 0" style="fill:none;stroke:red;stroke-width:.79701;stroke-linecap:butt;stroke-linejoin:miter;stroke-miterlimit:10;stroke-opacity:1" transform="matrix(1 0 0 -1 305.624 333.831)"/></g><g clip-path="url(#d)" style="clip-rule:nonzero" transform="matrix(1.25 0 0 1.25 195.656 1467.155)"><path d="M92.524 68.034a1.814 1.814 0 1 1-3.627-.002 1.814 1.814 0 0 1 3.627.002zm0 0" style="fill:none;stroke:red;stroke-width:.79701;stroke-linecap:butt;stroke-linejoin:miter;stroke-miterlimit:10;stroke-opacity:1" transform="matrix(1 0 0 -1 305.624 333.831)"/></g><g clip-path="url(#e)" style="clip-rule:nonzero" transform="matrix(1.25 0 0 1.25 -3053.083 648.88)"><path d="M-88.897 68.034c0 1-.813 1.813-1.813 1.813a1.811 1.811 0 0 1-1.812-1.813 1.812 1.812 0 1 1 3.625 0zm0 0" style="fill:none;stroke:red;stroke-width:.79701;stroke-linecap:butt;stroke-linejoin:miter;stroke-miterlimit:10;stroke-opacity:1" transform="matrix(1 0 0 -1 305.624 333.831)"/></g><g clip-path="url(#f)" style="clip-rule:nonzero" transform="matrix(1.25 0 0 1.25 -3053.083 648.88)"><path d="M92.524-68.032a1.814 1.814 0 1 1-3.627-.003 1.814 1.814 0 0 1 3.627.003zm0 0" style="fill:none;stroke:red;stroke-width:.79701;stroke-linecap:butt;stroke-linejoin:miter;stroke-miterlimit:10;stroke-opacity:1" transform="matrix(1 0 0 -1 305.624 333.831)"/></g><g clip-path="url(#g)" style="clip-rule:nonzero" transform="matrix(1.25 0 0 1.25 -3053.083 648.88)"><path d="M92.524 68.034a1.814 1.814 0 1 1-3.627-.002 1.814 1.814 0 0 1 3.627.002zm0 0" style="fill:none;stroke:red;stroke-width:.79701;stroke-linecap:butt;stroke-linejoin:miter;stroke-miterlimit:10;stroke-opacity:1" transform="matrix(1 0 0 -1 305.624 333.831)"/></g><g clip-path="url(#e)" style="clip-rule:nonzero" transform="matrix(1.25 0 0 1.25 -2789.086 648.88)"><path d="M-88.897 68.034c0 1-.813 1.813-1.813 1.813a1.811 1.811 0 0 1-1.812-1.813 1.812 1.812 0 1 1 3.625 0zm0 0" style="fill:none;stroke:red;stroke-width:.79701;stroke-linecap:butt;stroke-linejoin:miter;stroke-miterlimit:10;stroke-opacity:1" transform="matrix(1 0 0 -1 305.624 333.831)"/></g><g clip-path="url(#f)" style="clip-rule:nonzero" transform="matrix(1.25 0 0 1.25 -2789.086 648.88)"><path d="M92.524-68.032a1.814 1.814 0 1 1-3.627-.003 1.814 1.814 0 0 1 3.627.003zm0 0" style="fill:none;stroke:red;stroke-width:.79701;stroke-linecap:butt;stroke-linejoin:miter;stroke-miterlimit:10;stroke-opacity:1" transform="matrix(1 0 0 -1 305.624 333.831)"/></g><g clip-path="url(#g)" style="clip-rule:nonzero" transform="matrix(1.25 0 0 1.25 -2789.086 648.88)"><path d="M92.524 68.034a1.814 1.814 0 1 1-3.627-.002 1.814 1.814 0 0 1 3.627.002zm0 0" style="fill:none;stroke:red;stroke-width:.79701;stroke-linecap:butt;stroke-linejoin:miter;stroke-miterlimit:10;stroke-opacity:1" transform="matrix(1 0 0 -1 305.624 333.831)"/></g><path d="M323.538 1895.649c13.562-.398 21.778-.574 35.019-2.09 3.595-.412 7.186-.834 10.74-1.51 13.419-2.55 29.342-7.295 41.645-16.084 5.23-3.736 10.944-10.246 15.644-17.729 4.976-7.92 8.879-16.798 12.292-24.21 1.2-2.611 2.555-5.147 3.832-7.72 1.56-2.52 3.088-5.298 4.679-7.798 8.447-13.277 17.211-20.466 28.551-26.598 3.43-1.854 6.607-3.332 10.18-4.894 19.055-8.33 40.405-10.062 60.945-11.22 7.54-.426 4.493-.357 11.838-.375l-.565 1.515c-3.225 0-5.267-.025-11.788.311-20.446 1.056-41.602 2.97-60.558 11.291-3.06 1.344-5.837 2.557-8.792 4.12-11.343 5.996-21.085 14.269-28.453 26.08-1.556 2.494-3.113 5.227-4.67 7.72-1.276 2.557-2.508 5.136-3.828 7.67-3.864 7.414-7.1 15.911-11.942 23.838-3.677 6.02-8.764 12.07-13.631 16.35-11.19 9.838-29.244 15.902-45.821 19.074-3.57.682-7.179 1.148-10.79 1.555-13.305 1.5-20.698 1.708-35.206 2.367.227-.414.453-1.249.68-1.663z" style="fill:red;fill-opacity:1;stroke:none;stroke-width:.34999999;stroke-miterlimit:10;stroke-dasharray:none;stroke-opacity:1"/><rect width="66" height="46" x="3" y="344.117" rx="4.717" style="display:inline;opacity:1;fill:#e9b0a3;fill-opacity:1;stroke:#e9b0a3;stroke-width:0;stroke-linecap:butt;stroke-linejoin:miter;stroke-miterlimit:4;stroke-dasharray:none;stroke-dashoffset:0;stroke-opacity:1" transform="translate(179.254 1649.421)"/></g><g style="display:inline"><path d="m261.656 210.325.044 3.786 1.964-1.14v-3.814z" style="display:inline;fill:#fdfdfd;fill-opacity:1;stroke:none;stroke-width:1.3;stroke-linecap:butt;stroke-linejoin:miter;stroke-miterlimit:4;stroke-dasharray:none;stroke-opacity:1"/><path d="m169.12 265.427 183.32-105.22" style="fill:#e9b0a3;fill-opacity:1;stroke:#e9b0a3;stroke-width:2.4;stroke-linecap:butt;stroke-linejoin:miter;stroke-miterlimit:4;stroke-dasharray:none;stroke-opacity:1"/></g><g style="display:inline"><path d="m262.029 248.923-.067 3.142 1.63.033v-3.185z" style="display:inline;fill:#fdfdfd;fill-opacity:1;stroke:none;stroke-width:1.29999995;stroke-linecap:butt;stroke-linejoin:miter;stroke-miterlimit:4;stroke-dasharray:none;stroke-opacity:1"/><g style="stroke:#000;stroke-width:1.29999995;stroke-miterlimit:4;stroke-dasharray:none;stroke-opacity:1"><path d="M321.117 223.735H195.15M195.046 218.454v10.715" style="display:inline;fill:none;stroke:#000;stroke-width:1.29999995;stroke-linecap:butt;stroke-linejoin:miter;stroke-miterlimit:4;stroke-dasharray:none;stroke-opacity:1" transform="translate(.004 26.768)"/></g><path d="m315.832 244.955-.971 1.007 6.432 5.22 1.335-.678z" style="color:#000;font-style:normal;font-variant:normal;font-weight:400;font-stretch:normal;font-size:medium;line-height:normal;font-family:sans-serif;text-indent:0;text-align:start;text-decoration:none;text-decoration-line:none;text-decoration-style:solid;text-decoration-color:#000;letter-spacing:normal;word-spacing:normal;text-transform:none;direction:ltr;block-progression:tb;writing-mode:lr-tb;baseline-shift:baseline;text-anchor:start;white-space:normal;clip-rule:nonzero;display:inline;overflow:visible;visibility:visible;opacity:1;isolation:auto;mix-blend-mode:normal;color-interpolation:sRGB;color-interpolation-filters:linearRGB;solid-color:#000;solid-opacity:1;fill:#000;fill-opacity:1;fill-rule:nonzero;stroke:none;stroke-width:1.80000019;stroke-linecap:butt;stroke-linejoin:miter;stroke-miterlimit:4;stroke-dasharray:none;stroke-dashoffset:0;stroke-opacity:1;color-rendering:auto;image-rendering:auto;shape-rendering:auto;text-rendering:auto;enable-background:accumulate"/><path d="m315.832 256.057-.971-1.007 6.432-5.22 1.335.679zM317.76 184.617l1.007.971 5.22-6.432-.678-1.335z" style="color:#000;font-style:normal;font-variant:normal;font-weight:400;font-stretch:normal;font-size:medium;line-height:normal;font-family:sans-serif;text-indent:0;text-align:start;text-decoration:none;text-decoration-line:none;text-decoration-style:solid;text-decoration-color:#000;letter-spacing:normal;word-spacing:normal;text-transform:none;direction:ltr;block-progression:tb;writing-mode:lr-tb;baseline-shift:baseline;text-anchor:start;white-space:normal;clip-rule:nonzero;display:inline;overflow:visible;visibility:visible;opacity:1;isolation:auto;mix-blend-mode:normal;color-interpolation:sRGB;color-interpolation-filters:linearRGB;solid-color:#000;solid-opacity:1;fill:#000;fill-opacity:1;fill-rule:nonzero;stroke:none;stroke-width:1.80000019;stroke-linecap:butt;stroke-linejoin:miter;stroke-miterlimit:4;stroke-dasharray:none;stroke-dashoffset:0;stroke-opacity:1;color-rendering:auto;image-rendering:auto;shape-rendering:auto;text-rendering:auto;enable-background:accumulate"/><path d="m328.862 184.617-1.007.971-5.22-6.432.679-1.335z" style="color:#000;font-style:normal;font-variant:normal;font-weight:400;font-stretch:normal;font-size:medium;line-height:normal;font-family:sans-serif;text-indent:0;text-align:start;text-decoration:none;text-decoration-line:none;text-decoration-style:solid;text-decoration-color:#000;letter-spacing:normal;word-spacing:normal;text-transform:none;direction:ltr;block-progression:tb;writing-mode:lr-tb;baseline-shift:baseline;text-anchor:start;white-space:normal;clip-rule:nonzero;display:inline;overflow:visible;visibility:visible;opacity:1;isolation:auto;mix-blend-mode:normal;color-interpolation:sRGB;color-interpolation-filters:linearRGB;solid-color:#000;solid-opacity:1;fill:#000;fill-opacity:1;fill-rule:nonzero;stroke:none;stroke-width:1.29999995;stroke-linecap:butt;stroke-linejoin:miter;stroke-miterlimit:4;stroke-dasharray:none;stroke-dashoffset:0;stroke-opacity:1;color-rendering:auto;image-rendering:auto;shape-rendering:auto;text-rendering:auto;enable-background:accumulate"/><path d="M328.528 177.045h-10.651" style="display:inline;fill:none;stroke:#000;stroke-width:1.29999995;stroke-linecap:butt;stroke-linejoin:miter;stroke-miterlimit:4;stroke-dasharray:none;stroke-opacity:1"/><path d="M323.287 255.743v-6.138M323.005 250.508h5.519" style="display:inline;fill:#faa;stroke:#000;stroke-width:1.29999995;stroke-linecap:butt;stroke-linejoin:miter;stroke-miterlimit:4;stroke-dasharray:none;stroke-opacity:1"/><path d="M323.284 251.318V179.75" style="display:inline;fill:none;stroke:#000;stroke-width:1.29999995;stroke-linecap:butt;stroke-linejoin:miter;stroke-miterlimit:4;stroke-dasharray:none;stroke-opacity:1"/></g><g style="display:inline"><path d="M329.3 407.993c1.743.284 3.15.267 4.777-.063 1.423-.35 2.483-.89 3.732-1.986.508-.446 1.082-1.134 1.391-1.726 1.116-2.138 1.037-4.56.935-6.944-.247-2.516-.55-5.026-.88-7.532-.448-2.755-.679-5.543-.824-8.333-.11-2.306.374-5.073 1.092-6.992a9.281 9.281 0 0 1 1.514-2.58c.338-.4.659-.69 1.139-1.052.835-.629 1.863-.837 2.896-.843.189-.001.946.132.64.487-.043.05-.344.208-.66.208-.753 0-1.388-.117-2.125-.267-1.21-.246-2.321-1.209-3.118-2.25-.82-1.07-1.17-2.398-1.39-3.688-.17-1.01-.26-3.15-.137-4.432.18-1.866.464-4.011.724-5.866.506-3.611.967-9.159.39-12.323-.346-1.9-.634-2.462-1.273-3.506-.186-.305-.687-.83-.928-1.055-.35-.33-1.22-.87-1.748-1.084-.63-.253-1.692-.637-2.716-.717-1.168-.092-2.961.008-3.938.38" style="display:inline;opacity:1;fill:none;fill-opacity:1;stroke:#000;stroke-width:.60000002;stroke-linecap:butt;stroke-linejoin:miter;stroke-miterlimit:4;stroke-dasharray:none;stroke-dashoffset:0;stroke-opacity:1"/><path d="m196 439.15.097 1.368c.144.494.224 1.006.433 1.484 1.004 2.3 3.206 4.253 5.518 5.61.62.365 1.295.655 1.943.982.691.246 1.365.533 2.073.737 4.498 1.293 10.408 1.3 14.514 1.294 6.426-.01 9.361-.126 14.992-.13 2.55-.003 9.566.184 11.348.344 3.087.277 8.133.713 10.548 2.02 2.734 1.48 4.59 3.016 5.764 6.28-.542-.437-.047-1.298-.062-1.946.796-1.681 2.108-2.742 4.6-4.257 2.203-1.338 5.657-2.094 9.361-2.21 1.784-.055 8.328-.146 10.677-.066 5.32.179 8.13.18 13.787.348 3.784.113 9.533-.059 13.347-1.58 1.391-.555 2.609-1.16 3.721-1.95 1.937-1.375 4.094-3.44 4.976-5.773.183-.485.247-1.004.37-1.506.022-.461.042-.923.062-1.384" style="display:inline;fill:none;fill-opacity:1;stroke:#000;stroke-width:.60000002;stroke-miterlimit:3.5999999;stroke-dasharray:none;stroke-opacity:1"/><path d="M334.594 250.25c1.744.287 3.15.27 4.778-.062 1.423-.352 2.483-.895 3.732-1.995.508-.447 1.082-1.138 1.39-1.732 1.117-2.148 1.037-4.579.935-6.974-.247-2.526-.55-5.047-.879-7.562-.448-2.767-.68-5.567-.824-8.368-.11-2.315.374-5.094 1.092-7.021.306-.822.851-1.8 1.514-2.59.337-.403.658-.694 1.139-1.057.835-.632 1.863-.841 2.896-.847.189 0 .946.133.64.49-.043.049-.345.208-.66.208-.754 0-1.388-.117-2.125-.268-1.211-.247-2.322-1.214-3.119-2.258-.82-1.075-1.17-2.409-1.388-3.704-.171-1.014-.261-3.164-.138-4.45.18-1.875.464-4.029.724-5.892.505-3.625.966-9.196.39-12.373-.346-1.909-.634-2.472-1.273-3.521-.186-.306-.687-.832-.928-1.06-.35-.33-1.22-.873-1.749-1.087-.63-.255-1.691-.64-2.716-.721-1.167-.092-2.96.008-3.938.381" style="display:inline;opacity:1;fill:none;fill-opacity:1;stroke:#000;stroke-width:.8;stroke-linecap:butt;stroke-linejoin:miter;stroke-miterlimit:4;stroke-dasharray:none;stroke-dashoffset:0;stroke-opacity:1"/><path d="M351.537 335.493c-1.302-.103-3.144-.02-4.32.43l.607.398c.777-.298 2.522-.416 3.556-.334.836.066 1.871.423 2.479.67.414.168 1.326.733 1.623 1.013.225.213.73.754.89 1.018.637 1.048.91 1.575 1.254 3.48.57 3.148.114 8.74-.39 12.368-.26 1.868-.545 4.03-.725 5.913-.125 1.309-.036 3.456.139 4.495.22 1.307.568 2.662 1.42 3.782a7.843 7.843 0 0 0 1.453 1.48c.432.33.96.537 1.508.72-.177.095-.386.136-.545.256-.492.373-.834.685-1.182 1.1a9.499 9.499 0 0 0-1.545 2.65c-.727 1.954-1.21 4.747-1.1 7.09v.001c.145 2.811.377 5.624.827 8.404l-.002-.004c.329 2.522.632 5.048.879 7.58.101 2.397.172 4.813-.918 6.917-.295.569-.863 1.254-1.342 1.677-1.219 1.076-2.185 1.564-3.504 1.894-1.531.31-2.76.328-4.416.055l-.313.475c1.826.3 3.408.281 5.123-.07l.018-.002.016-.005c1.517-.377 2.67-.976 3.945-2.1.537-.475 1.116-1.175 1.44-1.798 1.14-2.2 1.053-4.658.95-7.06v-.008a234.06 234.06 0 0 0-.88-7.587v-.004c-.448-2.768-.678-5.57-.822-8.377-.11-2.3.374-5.08 1.083-6.989.3-.806.84-1.776 1.483-2.546.327-.391.626-.662 1.096-1.018.178-.135.371-.181.556-.273.608.117 1.197.235 1.9.236a1.98 1.98 0 0 0 .958-.24c.06-.033.107-.054.164-.12.22-.258.027-.536-.262-.665a1.995 1.995 0 0 0-.434-.132 1.842 1.842 0 0 0-.41-.043c-.707.004-1.413.15-2.084.383a3.894 3.894 0 0 1-1.351-.671 7.411 7.411 0 0 1-1.356-1.384c-.788-1.036-1.14-2.356-1.357-3.647-.167-.994-.258-3.159-.137-4.43.18-1.875.465-4.033.725-5.9.506-3.643.972-9.224.388-12.448-.347-1.922-.652-2.525-1.293-3.58-.212-.35-.709-.865-.964-1.106-.405-.383-1.234-.909-1.875-1.17-.652-.264-1.74-.679-2.954-.775zm12.269 35.227c-.074 0-.012 0 .035.01a.687.687 0 0 1 .131.038c.054.024.064.018.008.085a.605.605 0 0 1-.072.033c-.067.026-.139.035-.127.035-.268 0-.54-.073-.795-.103.27-.04.535-.096.82-.098zM374.287 334.42c-1.264-.101-3.063-.027-4.232.422l.474.624c.785-.301 2.575-.426 3.647-.341.889.07 1.915.431 2.523.678.417.17 1.325.741 1.596.997.218.206.73.76.87.99.634 1.047.892 1.541 1.235 3.442.563 3.113.111 8.716-.392 12.342-.26 1.871-.544 4.036-.725 5.925-.127 1.33-.038 3.471.14 4.533.222 1.317.572 2.697 1.446 3.846.687.904 1.635 1.68 2.756 2.125-.1.063-.22.078-.314.15-.496.376-.85.698-1.204 1.122a9.63 9.63 0 0 0-1.568 2.692c-.734 1.978-1.22 4.782-1.107 7.15.145 2.818.375 5.64.826 8.43.328 2.522.63 5.048.877 7.577.101 2.398.165 4.79-.905 6.854-.283.547-.844 1.228-1.31 1.64-1.21 1.07-2.16 1.55-3.498 1.885-1.55.315-2.835.332-4.51.056l-.226.692c1.805.298 3.332.28 5.029-.068l.014-.003.013-.003c1.501-.372 2.672-.978 3.957-2.115.55-.486 1.136-1.192 1.471-1.839 1.161-2.242 1.067-4.73.965-7.135v-.007l-.002-.006c-.247-2.54-.55-5.075-.88-7.602l-.001-.004v-.003c-.446-2.764-.676-5.566-.82-8.373-.108-2.28.374-5.056 1.076-6.946a9.123 9.123 0 0 1 1.459-2.51c.32-.384.609-.646 1.074-1 .178-.134.384-.185.576-.278.627.123 1.228.24 1.934.241.277 0 .5-.063.672-.129.085-.033.158-.067.222-.102.064-.036.109-.05.194-.149.13-.153.184-.36.101-.528-.083-.17-.25-.272-.396-.337a1.712 1.712 0 0 0-.774-.165h-.002c-.703.004-1.41.156-2.088.402-.935-.23-1.988-1.072-2.732-2.051-.766-1.008-1.116-2.308-1.332-3.592-.164-.974-.255-3.15-.135-4.402.18-1.875.463-4.036.723-5.905.507-3.654.979-9.237.388-12.503-.349-1.932-.667-2.57-1.31-3.63-.233-.383-.723-.886-.986-1.135-.431-.408-1.26-.927-1.9-1.187-.652-.265-1.748-.676-2.909-.769z" style="color:#000;font-style:normal;font-variant:normal;font-weight:400;font-stretch:normal;font-size:medium;line-height:normal;font-family:sans-serif;text-indent:0;text-align:start;text-decoration:none;text-decoration-line:none;text-decoration-style:solid;text-decoration-color:#000;letter-spacing:normal;word-spacing:normal;text-transform:none;direction:ltr;block-progression:tb;writing-mode:lr-tb;baseline-shift:baseline;text-anchor:start;white-space:normal;clip-rule:nonzero;display:inline;overflow:visible;visibility:visible;opacity:1;isolation:auto;mix-blend-mode:normal;color-interpolation:sRGB;color-interpolation-filters:linearRGB;solid-color:#000;solid-opacity:1;fill:#000;fill-opacity:1;fill-rule:nonzero;stroke:none;stroke-width:1;stroke-linecap:butt;stroke-linejoin:miter;stroke-miterlimit:4;stroke-dasharray:none;stroke-dashoffset:0;stroke-opacity:1;color-rendering:auto;image-rendering:auto;shape-rendering:auto;text-rendering:auto;enable-background:accumulate"/><path d="M324.56 264.072c.51 1.744.48 3.15-.112 4.778-.627 1.423-1.593 2.483-3.553 3.732a13.25 13.25 0 0 1-3.086 1.391c-3.826 1.116-8.245 1.293-12.512 1.2-4.15-.091-8.294-.29-13.03-.614-4.238-.29-10.446-.65-14.731-.65-3.594 0-6.985.116-10.02.752-1.464.307-3.201.902-4.57 1.645-.696.377-1.231.674-1.85 1.191-1.075.899-1.474 1.906-1.425 2.938.008.189.272.957.89.614.085-.047.37-.354.352-.67-.044-.752-.227-1.39-.537-2.11-.51-1.184-2.207-2.314-4.11-3.003-1.96-.71-4.13-1.173-6.58-1.503-2.01-.27-5.593-.344-7.887-.271-3.155.1-10.26.452-13.586.587-5.929.24-16.384.667-22.043.09-3.4-.346-4.404-.634-6.273-1.273-.545-.186-1.483-.687-1.887-.928-.589-.35-1.557-1.22-1.938-1.749-.454-.63-1.14-1.69-1.284-2.715-.165-1.168.014-2.962.68-3.939" style="display:inline;opacity:1;fill:none;fill-opacity:1;stroke:#000;stroke-width:.80000001;stroke-linecap:butt;stroke-linejoin:miter;stroke-miterlimit:4;stroke-dasharray:none;stroke-dashoffset:0;stroke-opacity:1"/><path d="m265.74 360.564-.96.151c.614.92.801 2.748.63 3.9-.148.996-.833 2.052-1.29 2.678-.358.488-1.376 1.383-1.886 1.682-.385.226-1.387.739-1.813.88-1.883.63-2.35.819-5.74 1.263-5.433.712-16.03.59-22.522.028-3.355-.29-7.174-.572-10.49-.803-2.4-.167-6.233-.243-8.162-.141-2.375.125-4.889.443-6.962 1.232-1.69.643-3.136 1.566-3.898 2.618-.111-.11-.136-.234-.268-.341a10.757 10.757 0 0 0-1.92-1.279c-1.444-.757-3.307-1.537-4.85-1.874-3.548-.774-6.319-1.177-11.974-1.108-5.115.062-10.377.376-14.979.719-4.466.338-8.943.635-13.428.78-4.256.138-8.461.166-12.122-.949a12.871 12.871 0 0 1-2.934-1.372c-1.913-1.258-2.824-2.289-3.428-3.707-.568-1.629-.588-3.018-.071-4.76l-.988-.079c-.53 1.784-.51 3.247.076 4.925v.005l.002.004c.627 1.474 1.63 2.608 3.615 3.913.834.548 2.074 1.149 3.217 1.497 3.967 1.208 8.422 1.153 12.693 1.084h.015l.016-.002c4.51-.215 9.009-.486 13.497-.785H168.834c4.902-.413 9.87-.607 14.85-.714 4.024-.076 8.15.27 11.527 1.006 1.412.308 3.19 1.044 4.534 1.749a9.815 9.815 0 0 1 1.782 1.188c.293.238.417.513.603.775-.271.67-.507 1.283-.539 2.008a.931.931 0 0 0 .158.525c.045.073.093.136.141.19.05.053.056.08.191.153a1.4 1.4 0 0 0 .446.153c.185.03.404.022.558-.014.308-.071.416-.189.51-.298a.999.999 0 0 0 .26-.595c.024-.723-.24-1.444-.695-2.14.003-.007.001-.013.005-.02.464-1.124 2.173-2.144 4.027-2.85 1.865-.71 4.179-.958 6.483-1.08 1.734-.09 5.64-.051 7.864.136 3.474.293 7.11.573 10.458.863 6.556.567 17.244.715 22.885-.029 3.459-.456 4.208-.822 6.112-1.458.679-.227 1.58-.715 2.016-.97.686-.404 1.638-1.257 2.06-1.833.47-.644 1.188-1.729 1.349-2.809.18-1.213.037-3.024-.678-4.095zm-62.994 15.678c.022.19.105.374.098.567 0 .032-.07.19-.138.314a.662.662 0 0 1-.105-.346c.009-.19.113-.358.145-.535z" style="color:#000;font-style:normal;font-variant:normal;font-weight:400;font-stretch:normal;font-size:medium;line-height:normal;font-family:sans-serif;text-indent:0;text-align:start;text-decoration:none;text-decoration-line:none;text-decoration-style:solid;text-decoration-color:#000;letter-spacing:normal;word-spacing:normal;text-transform:none;direction:ltr;block-progression:tb;writing-mode:lr-tb;baseline-shift:baseline;text-anchor:start;white-space:normal;clip-rule:nonzero;display:inline;overflow:visible;visibility:visible;opacity:1;isolation:auto;mix-blend-mode:normal;color-interpolation:sRGB;color-interpolation-filters:linearRGB;solid-color:#000;solid-opacity:1;fill:#000;fill-opacity:1;fill-rule:nonzero;stroke:none;stroke-width:1;stroke-linecap:butt;stroke-linejoin:miter;stroke-miterlimit:4;stroke-dasharray:none;stroke-dashoffset:0;stroke-opacity:1;color-rendering:auto;image-rendering:auto;shape-rendering:auto;text-rendering:auto;enable-background:accumulate"/><path d="M391.826 350.01c2.28.13 4.733.59 6.566 2.064.343.276.615.63.923.946.226.356.497.688.679 1.07 1.032 2.168.782 5.04.611 7.36-.05.535-.092 1.07-.15 1.604-.368 3.321-.041-.153-.397 3.197-.177 1.666-.254 3.34-.375 5.01-.158 2.857-.617 5.689-.572 8.554.224 1.819.977 3.618 2.494 4.738.271.2.583.339.874.508 1.405.545 2.93.63 4.409.401.16.148.135-.34.084-.263-.068.104-.036.252-.098.36-.017.03-.036-.06-.065-.075-.185-.1-.371-.11-.575-.144-1.008-.179-1.77.252-2.589.775-1.117.758-1.838 1.966-2.318 3.203-.057.24-.127.479-.17.722-.072.415-.036.842-.06 1.262-.072 1.262-.146 2.522-.201 3.785-.099 2.922.107 5.854.48 8.752.414 2.76.803 5.513.911 8.304.139 2.242-.164 4.463-.478 6.676-.228 1.14-.487 2.375-1.352 3.234-.821.816-2.025 1.135-3.075 1.522-1.991.64-4.048.825-6.124.773-.574-.072-1.416.08-1.922-.315-.433-.338.158-.892.366-1.093.13-.126.336-.134.505-.202l.066.7c-.144.065-.281.236-.434.193-.116-.033-.02-.265-.11-.346-.053-.047-.245.016-.2.071.271.338 1.46.254 1.802.294 2.034.049 4.05-.131 5.999-.771 2.251-.845 3.218-1.168 3.932-3.624.315-2.199.648-4.403.518-6.633-.092-2.785-.465-5.53-.888-8.283-.391-2.91-.601-5.856-.52-8.792.051-1.263.136-2.522.199-3.783.06-1.21-.033-.977.234-2.33.05-.253.14-.497.21-.745.563-1.274 1.31-2.502 2.51-3.267.889-.553 1.754-.964 2.83-.776.218.038.973.114 1.036.434.107.543-.073.904-.52 1.086-1.555.217-3.15.13-4.623-.445-.314-.178-.648-.324-.94-.534-1.595-1.149-2.426-3.004-2.707-4.896-.084-2.875.392-5.713.553-8.579.125-1.673.192-3.351.365-5.021.275-2.663.1-.561.401-3.191.061-.532.103-1.066.154-1.6.184-2.187.447-5.162-.458-7.223-.161-.369-.412-.69-.619-1.036-.283-.305-.53-.648-.85-.914-1.763-1.462-4.173-1.899-6.386-2.015l.065-.701z" style="opacity:1;fill:#000;fill-opacity:1;stroke:#000;stroke-width:.5;stroke-linecap:butt;stroke-linejoin:miter;stroke-miterlimit:2.29999995;stroke-dasharray:none;stroke-dashoffset:0;stroke-opacity:1"/><path d="M310.892 398.423c.51 1.743.479 3.15-.112 4.777-.628 1.423-1.594 2.483-3.553 3.732a13.25 13.25 0 0 1-3.087 1.391c-3.825 1.117-8.157 1.037-12.423.935-4.5-.247-8.991-.55-13.472-.88-4.929-.448-9.918-.679-14.908-.823-4.124-.11-9.075.373-12.508 1.092-1.464.306-3.205.85-4.614 1.514-.717.337-1.236.658-1.883 1.138-1.125.836-1.498 1.864-1.508 2.896-.002.19.236.946.871.64.088-.043.372-.344.372-.66-.001-.753-.209-1.388-.477-2.125-.44-1.21-2.163-2.321-4.024-3.118-1.915-.82-4.29-1.17-6.598-1.389-1.807-.17-5.637-.26-7.929-.138-3.338.18-7.176.465-10.495.724-6.459.506-16.383.967-22.043.39-3.4-.346-4.404-.634-6.273-1.272-.544-.187-1.482-.688-1.886-.929-.59-.35-1.558-1.22-1.939-1.748-.454-.63-1.14-1.691-1.284-2.716-.164-1.168.014-2.961.68-3.938" style="display:inline;opacity:1;fill:none;fill-opacity:1;stroke:#000;stroke-width:.80000001;stroke-linecap:butt;stroke-linejoin:miter;stroke-miterlimit:4;stroke-dasharray:none;stroke-dashoffset:0;stroke-opacity:1"/></g><g style="display:inline"><path d="M227.56 126.688v76.325" style="display:inline;fill:#c8b7b7;stroke:#999;stroke-width:0;stroke-linecap:butt;stroke-linejoin:miter;stroke-miterlimit:4;stroke-dasharray:none;stroke-opacity:1" transform="translate(0 26.768)"/><path d="M227.56 199.663v6.53M227.56 123.705v6.53" style="display:inline;fill:none;stroke:#000;stroke-width:.80000007;stroke-linecap:butt;stroke-linejoin:miter;stroke-miterlimit:4;stroke-dasharray:none;stroke-opacity:1" transform="translate(0 26.768)"/><path d="M227.56 130.047v69.741" style="display:inline;fill:#ccc;stroke:#ccc;stroke-width:.80000007;stroke-linecap:butt;stroke-linejoin:miter;stroke-miterlimit:4;stroke-dasharray:none;stroke-opacity:1" transform="translate(0 26.768)"/></g><path d="M397.565 145.102c1.74.104 3.481.143 5.225.138 1.803.03 3.6.083 5.401.079.445.006.249 0 .589.012l-.05.416c-.5-.016-.183-.004-.58-.014-1.801.002-3.598-.055-5.4-.083a88.61 88.61 0 0 1-5.236-.132z" style="opacity:1;fill:#000;fill-opacity:1;stroke:#000;stroke-width:.69999999;stroke-linecap:butt;stroke-linejoin:miter;stroke-miterlimit:4;stroke-dasharray:none;stroke-dashoffset:0;stroke-opacity:1"/><path d="M403.935 140.198c-.032 1.72-.1 3.024-.138 4.673-.09 2.2-.046 4.4-.1 6.6-.037 1.51-.025 3.223-.06 4.534-.008.251-.015.574 0 .743l-.39.044c.02-.294.051-.408.05-.54-.002-1.396.012-3.041.052-4.557.058-2.2.009-4.4.1-6.6.036-1.632.071-3.206.048-4.875z" style="opacity:1;fill:#000;fill-opacity:1;stroke:#000;stroke-width:.69999999;stroke-linecap:butt;stroke-linejoin:miter;stroke-miterlimit:2.29999995;stroke-dasharray:none;stroke-dashoffset:0;stroke-opacity:1"/><path d="M415.6 145.173c1.529-.3 3.095-.351 4.65-.4l.4.037-.054.414-.373-.035c-1.543.045-3.1.099-4.618.403l-.005-.419zM416.16 145.836c.071 2.37.225 4.737.356 7.106.074 1.79.226 3.573.28 5.364.02.432.072.861.142 1.288l-.315.277a10.516 10.516 0 0 1-.16-1.315c-.047-1.79-.2-3.573-.274-5.362-.127-2.37-.28-4.74-.368-7.112l.34-.246z" style="opacity:1;fill:#000;fill-opacity:1;stroke:#000;stroke-width:.69999999;stroke-linecap:butt;stroke-linejoin:miter;stroke-miterlimit:4;stroke-dasharray:none;stroke-dashoffset:0;stroke-opacity:1"/><path d="M416.714 159.312c1.562-.138 3.13-.181 4.693-.31.698-.067.387-.035.934-.094l-.009.418c-.55.057-.238.026-.94.09-1.57.128-3.143.174-4.712.313l.033-.417zM426.253 148.863c-.995-.52-2.105-.422-3.135-.079-.208.103-.694.38-.546.716.017.038.084-.06.119-.037.106.068.16.195.255.279.136.12.29.221.435.332 1.015.695 2.207 1.197 2.93 2.24.116.166.197.355.295.532.296.913.07 1.92-.717 2.516-.143.109-.307.188-.46.282-.995.36-2.181.521-3.177.049-.19-.09-.351-.23-.527-.345-.494-.423-.635-.727-.756-1.339l.318-.271c.05.577.16.817.602 1.227.156.108.297.24.467.324.926.458 2.053.298 2.977-.051.138-.09.286-.165.413-.268.386-.312.7-.81.685-1.318-.005-.162-.057-.32-.086-.48-.086-.17-.154-.349-.258-.508-.686-1.05-1.885-1.527-2.882-2.212-.117-.087-.715-.495-.8-.682-.304-.677.096-1.138.673-1.4 1.122-.354 2.247-.441 3.33.103l-.155.39zM427.03 144.752c1.729-.165 3.469-.168 5.204-.18.433.006.866-.01 1.298.007l-.043.418c-.428-.02-.857-.004-1.286-.01-1.725.01-3.456.011-5.173.184v-.418z" style="opacity:1;fill:#000;fill-opacity:1;stroke:#000;stroke-width:.69999999;stroke-linecap:butt;stroke-linejoin:miter;stroke-miterlimit:4;stroke-dasharray:none;stroke-dashoffset:0;stroke-opacity:1"/><path d="M432.365 144.546c-.2 1.635-.186 3.286-.195 4.93a97.24 97.24 0 0 0 .23 8.024l.078.97-.324.258-.079-.973a96.568 96.568 0 0 1-.239-8.038c.004-1.65-.01-3.308.172-4.952l.357-.219zM426.747 159.312c1.758.044 3.512-.03 5.267-.142.565-.036 1.13-.068 1.696-.082l-.028.418a40.91 40.91 0 0 0-1.686.08c-1.76.11-3.519.18-5.282.143l.033-.417z" style="opacity:1;fill:#000;fill-opacity:1;stroke:#000;stroke-width:.69999999;stroke-linecap:butt;stroke-linejoin:miter;stroke-miterlimit:4;stroke-dasharray:none;stroke-dashoffset:0;stroke-opacity:1"/><path d="M257.58 61.46c1.965-3.957 3.02-8.269 3.99-12.556.056-.148.71-3.723.787-3.706 1.206.267.939.916 1.214 2.056.968 4.018 2.34 7.91 3.805 11.767l-.64.29c-1.472-3.873-2.852-7.781-3.83-11.814-.442-1.81-.765-1.231.163-2.253.036-.04-.078.08-.092.131-.315 1.137-.364 2.345-.702 3.477-.976 4.331-2.044 8.678-3.988 12.694l-.708-.086z" style="display:inline;fill:#000;fill-opacity:1;stroke:none;stroke-width:.34999999;stroke-miterlimit:10;stroke-dasharray:none;stroke-opacity:1"/><path d="M232.666 19.826c-.423 1.863-.817 3.849-.292 5.739.103.372.23.75.453 1.066.167.236.454.358.681.538.276 0 .559.066.826 0 2.032-.502 2.957-2.777 3.564-4.526 1.506.59-.103-1.036.242-1.117.165-.038.413-.148.508-.008.141.21-.013.505-.001.757.017.381.058.76.088 1.141.278 2.357 1.11 4.592 1.692 6.88.48 1.891.472 2.082.788 3.984.194 2.273.04 5.088-2.187 6.4-1.279.753-1.8.51-3.22.437-.563-.232-1.16-.393-1.686-.695-1.39-.8-2.57-2.106-3.377-3.477-.172-.292-.291-.613-.437-.919l.418-.49c.13.295.233.605.391.886.746 1.33 1.872 2.604 3.192 3.39.489.29 1.045.446 1.567.67 1.294.071 1.787.305 2.942-.407 1.155-.712 1.873-2.2 1.968-3.52.045-.617-.034-1.237-.05-1.856-.298-1.855-.298-2.113-.762-3.956-.582-2.307-1.432-4.554-1.742-6.926-.035-.386-.079-.771-.105-1.158-.06-.903-.162-.805.554-1.495.035-.034.007.1 0 .149-.158.976-.17.922-.422 1.862-.143.381-.26.773-.43 1.144-.673 1.472-1.821 3.18-3.557 3.491-.342.062-.693-.04-1.04-.06-.275-.21-.616-.358-.826-.634-.25-.328-.392-.732-.512-1.126-.669-2.2-.099-4.52.394-6.688l.378.524z" style="opacity:1;fill:#000;fill-opacity:1;stroke:#000;stroke-width:.5;stroke-linecap:butt;stroke-linejoin:miter;stroke-miterlimit:2.29999995;stroke-dasharray:none;stroke-dashoffset:0;stroke-opacity:1"/><path d="M249.765 14.93c2.223-.158 4.449-.281 6.677-.336l.625.056-.083.641-.584-.054c-2.231.053-4.46.178-6.686.339l.05-.645z" style="opacity:1;fill:#000;fill-opacity:1;stroke:#000;stroke-width:.5;stroke-linecap:butt;stroke-linejoin:miter;stroke-miterlimit:2.29999995;stroke-dasharray:none;stroke-dashoffset:0;stroke-opacity:1" transform="translate(116.051 189.205)"/><path d="M249.831 14.928c.098.285.364 1.032.402 1.279.572 3.74.533 6.52.588 10.302a90.94 90.94 0 0 1-.03 3.686l-.527.371c.043-1.427.062-2.254.048-3.682-.028-2.258-.029-2.309-.123-4.623-.066-1.603-.176-3.948-.413-5.598l-.357-1.233.412-.502z" style="opacity:1;fill:#000;fill-opacity:1;stroke:#000;stroke-width:.5;stroke-linecap:butt;stroke-linejoin:miter;stroke-miterlimit:2.29999995;stroke-dasharray:none;stroke-dashoffset:0;stroke-opacity:1" transform="translate(116.051 189.205)"/><path d="M249.513 30.38c1.99.004 3.978.003 5.967.003l2.081-.001-.05.642h-2.082c-1.989 0-3.977 0-5.966.002l.05-.646zM257.14 26.643c-.359-.396.462-1.82.608-2.109.555-1.105.73-1.328 1.389-2.384.408-.476 1.284-1.832 2.11-1.753.823.078.901 1.293 1.01 1.849.047.316.099.631.14.948.07.535.13 1.137.176 1.679.015.169.018.339.038.507.03.252.118.361-.009.165.148-.558.69-1.123 1.052-1.544a13.8 13.8 0 0 1 2.49-2.27c.592-.344 1.721-1.018 2.266-.19.223.34.203.757.233 1.136 0 1.222-.082 2.483.242 3.673l-.458.46c-.382-1.2-.326-2.495-.298-3.74-.002-.227.102-1.037-.187-1.211-.497-.3-1.253.311-1.626.492a13.95 13.95 0 0 0-2.4 2.238c-.352.419-.624.902-.994 1.306-.107.117-.247.199-.37.298-.118-.032-.263-.015-.353-.098-.124-.114-.125-.758-.13-.818a31.84 31.84 0 0 0-.295-2.605c-.016-.106-.194-1.597-.466-1.63-.68-.084-1.567 1.32-1.875 1.676-.643 1.05-.81 1.265-1.347 2.363-.158.323-.296.656-.437.987-.178.42-.244.94-.739 1.146-.085.036-.163-.086-.245-.13-.205-.846-.256-1.716-.37-2.58-.18-1.359-.379-2.117-.655-3.46l.48-.436c.329 2.312.644 4.19 1.02 6.035zM278.008 16.212c-1.211 2.816-2.575 5.557-3.96 8.29a111.804 111.804 0 0 0-2.18 4.454c-.243.52-.453 1.106-.757 1.599l-.312-.57c1.032-1.98 1.818-4.09 2.928-6.033 1.386-2.735 2.731-5.486 3.952-8.3zM284.453 20.744c-1.387-.569-2.856.064-4.08.748-.126-.178-.568.581-.336.685.11.048.198-.197.314-.17.248.058.433.267.652.396.6.351 1.206.69 1.807 1.037.517.384 3.232 1.774 2.906 2.654-.116.313-.368.558-.552.837-2.062.754-3.899.611-5.886-.267-.685-.467-.628-.32-.489-1.185l.303.575c-.07-.779-.104-.285.384-.005 1.817.828 3.591 1 5.481.268.085.054.471.398.333-.163-.158-.643-2.189-1.724-2.71-2.114l-.956-.551c-.286-.162-.573-.322-.857-.486-.246-.142-.55-.217-.735-.433-.666-.78-.427-1.205.216-1.712 1.343-.716 2.917-1.339 4.417-.728l-.212.613zM284.658 14.707c2.265-.152 4.533-.272 6.803-.337.27-.001.542-.018.813-.005l-.069.647c-.261-.013-.523.004-.785.003-2.273.06-4.544.18-6.813.338l.05-.645zM290.71 15.216c.084 2.079.25 4.153.311 6.234.067 2.076-.114 4.127.07 6.192.077.876.02 2.318-.012 3.17l-.675.009c.038-.972.26-1.943.188-2.769-.18-2.074-.014-4.132-.084-6.216a82.639 82.639 0 0 0-.168-3.803c-.044-.606-.124-1.21-.155-1.817-.01-.206 0-.412 0-.618z" style="opacity:1;fill:#000;fill-opacity:1;stroke:#000;stroke-width:.5;stroke-linecap:butt;stroke-linejoin:miter;stroke-miterlimit:2.29999995;stroke-dasharray:none;stroke-dashoffset:0;stroke-opacity:1" transform="translate(116.051 189.205)"/><path d="M283.654 30.202c2.535-.298 1.725-.044 4.274-.057 1.203-.002 2.406-.001 3.61.01l-.056.646c-1.2-.018-2.401-.02-3.602-.018-2.53.012-1.703-.24-4.218.067l-.008-.648z" style="opacity:1;fill:#000;fill-opacity:1;stroke:#000;stroke-width:.5;stroke-linecap:butt;stroke-linejoin:miter;stroke-miterlimit:2.29999995;stroke-dasharray:none;stroke-dashoffset:0;stroke-opacity:1" transform="translate(116.051 189.205)"/><path d="M361.825 204.228c2.705.005 5.41.004 8.116 0l-.055.7c-2.706-.006-5.411-.006-8.116-.001l.055-.7zM362.323 204.971c-.004 2.004-.004 4.007-.004 6.01.078 2.319-.129 5.244.064 7.56.164.556.05.323.283.71l-.46.362c-.31-.433-.164-.178-.375-.781-.226-2.32.02-5.252-.073-7.575 0-2.002 0-4.004-.004-6.006l.57-.28z" style="opacity:1;fill:#000;fill-opacity:1;stroke:#000;stroke-width:.5;stroke-linecap:butt;stroke-linejoin:miter;stroke-miterlimit:2.29999995;stroke-dasharray:none;stroke-dashoffset:0;stroke-opacity:1" transform="translate(-110.309 -188.798)"/><path d="M361.739 219.374c3.035-.177 6.047-.656 9.081-.822l-.034.698c-3.03.162-6.037.64-9.067.825l.02-.701zM369.288 209.428c.007 1.707.203 3.41.335 5.111.018.208.147.808-.536.5-.149-.068.032-.325.06-.485.257-1.54.48-2.017 1.193-3.383.479-.716 1.492-2.389 2.633-1.741.526.298.681.914.898 1.412.255.89.479 1.82.47 2.753-.001.124-.13-.213-.186-.324.82-1.39 1.756-2.876 3.18-3.723.213-.126.45-.209.675-.314.204-.025.407-.102.61-.077 1.289.158 1.294 2.127 1.424 3.048.04.665.172 1.315.34 1.957l-.504.493c-.187-.653-.346-1.312-.37-1.996-.073-.522-.15-2.693-.894-2.799-.163-.023-.326.045-.49.067-.202.099-.415.178-.606.297-1.372.86-2.232 2.33-3.051 3.677-.188.091-.358.238-.564.272-.185.031-.12-.36-.13-.549a9.999 9.999 0 0 0-.372-2.261c-.074-.203-.317-1.034-.568-1.244-.757-.63-1.89 1.236-2.144 1.656-.543 1.095-.522.938-.87 2.063-.193.62.003.975-.726 1.384-.072.04-.016-.164-.024-.246-.125-1.71-.323-3.42-.353-5.134l.57-.414zM389.024 204.654c-1.695 2.954-3.184 6.021-4.675 9.082-.756 1.459-1.45 2.947-2.208 4.406-.483.93-.367.476-.477 1.187l-.43-.558c.244-.766.054-.262.557-1.233.755-1.456 1.454-2.94 2.205-4.397 1.504-3.081 2.983-6.189 4.744-9.132l.284.645zM394.724 209.308c-.936-.337-2.69-.27-3.38.545-.101.12-.13.285-.195.428.055.002.127-.034.164.007.146.16.205.385.346.55.34.395 1.25 1.12 1.608 1.412 1.474 1.207.517.386 1.847 1.555.65.627 1.288 1.313.448 2.22-.264.286-1.638.512-1.915.528-.405.025-.811-.034-1.216-.05-1.263-.337-2.29-.658-2.955-1.836l.453-.54c.403 1.095 1.552 1.38 2.572 1.68 1.002.042 1.17.133 2.116-.136.222-.063.408-.237.636-.278.08-.014.179.205.206.128.157-.438-.494-.91-.665-1.095-.906-.804-1.865-1.536-2.783-2.325-.248-.213-1.138-.953-1.241-1.367-.087-.347.031-.715.047-1.073.115-.162.2-.351.346-.487.926-.86 2.63-.911 3.761-.541l-.2.675zM394.447 204.451c2.729-.261 4.255.083 6.994-.05l.695.047-.081.697-.65-.045c-2.732.127-4.25-.216-6.97.054l.012-.703z" style="opacity:1;fill:#000;fill-opacity:1;stroke:#000;stroke-width:.5;stroke-linecap:butt;stroke-linejoin:miter;stroke-miterlimit:2.29999995;stroke-dasharray:none;stroke-dashoffset:0;stroke-opacity:1" transform="translate(-110.309 -188.798)"/><path d="M402.506 204.119c-.064 2.405-.124 4.497-.145 6.746-.026 2.706-.063 5.397.141 8.1.042.553.121 1.103.2 1.652l-.532.461c-.082-.557-.167-1.113-.213-1.675-.07-.842-.136-1.478-.139-2.338-.007-1.929-.008-3.854-.015-5.782-.008-2.248.081-4.463.14-6.742l.563-.422z" style="opacity:1;fill:#000;fill-opacity:1;stroke:#000;stroke-width:.5;stroke-linecap:butt;stroke-linejoin:miter;stroke-miterlimit:2.29999995;stroke-dasharray:none;stroke-dashoffset:0;stroke-opacity:1" transform="translate(-110.309 -188.798)"/><path d="M393.917 219.605c2.631-.263 5.285-.146 7.924-.087 1.557.042-2.596-.072-1.139-.028.643.02 1.568-.104 2.076.402l-.493.505c.472-.01-.639-.18-.64-.18-1.353-.104 1.479.08.124-.008-2.618-.058-5.253-.173-7.862.1l.01-.704z" style="opacity:1;fill:#000;fill-opacity:1;stroke:#000;stroke-width:.5;stroke-linecap:butt;stroke-linejoin:miter;stroke-miterlimit:2.29999995;stroke-dasharray:none;stroke-dashoffset:0;stroke-opacity:1" transform="translate(-110.309 -188.798)"/><path d="M249.957 287.52c2.457.005 3.114.004 5.57.002.736.02 1.492.015 2.19-.243l.07.702c-.749.231-1.534.272-2.314.238-2.457-.002-3.114-.002-5.57.002l.054-.702z" style="opacity:1;fill:#000;fill-opacity:1;stroke:#000;stroke-width:.5;stroke-linecap:butt;stroke-linejoin:miter;stroke-miterlimit:2.29999995;stroke-dasharray:none;stroke-dashoffset:0;stroke-opacity:1"/><path d="M251.22 288.005c.253 1.933.292 3.883.424 5.826.23 1.914.54 3.818.667 5.743-.011.562-.183 1.1-.316 1.64-.02.08.03-.17.071-.242.017-.031.003.07.004.105l-.506.492c-.222-.571.099-1.113.191-1.563-.1-1.927-.411-3.832-.66-5.743-.144-1.948-.141-3.91-.446-5.844l.57-.414z" style="opacity:1;fill:#000;fill-opacity:1;stroke:#000;stroke-width:.5;stroke-linecap:butt;stroke-linejoin:miter;stroke-miterlimit:2.29999995;stroke-dasharray:none;stroke-dashoffset:0;stroke-opacity:1"/><path d="M251.972 300.885c1.761-.25 3.545-.283 5.32-.305.4-.003.8 0 1.2.008l-.065.703c-.395-.011-.79-.014-1.185-.011-1.752.019-3.513.05-5.249.31l-.02-.705zM262.997 292.398c-.748-.719-1.84-1.164-2.892-1.07-.19.018-.371.084-.557.125-.242.147-.502.233-.598.534-.018.055.103-.135.146-.096.132.12.153.325.26.468.183.245 1.12 1.21 1.27 1.368.754.727 1.541 1.419 2.327 2.111.398.351.82.615 1.054 1.091-.143.243-.215.547-.43.73-.16.135-.402.112-.607.15-1.325.244-2.563.077-3.862-.216-.667-.265-1.717-.52-2.106-1.23-.051-.095-.058-.208-.088-.312l.586-.393c-.039.037-.122.058-.117.111.044.449 1.558 1.067 1.865 1.139.972.22 1.893.387 2.896.314a6.54 6.54 0 0 0 .783-.115c.17-.033.348-.219.5-.137.13.07.042.293.063.44.094-.307.088-.12-.307-.465-.98-.858-1.959-1.718-2.906-2.612-.323-.337-1.675-1.548-1.753-2.032-.146-.905.32-1.246 1.001-1.55.216-.04.428-.106.647-.121 1.173-.08 2.36.404 3.216 1.182l-.391.586zM265.446 287.166c1.514.075 3.008-.053 4.508-.24.31-.04.62-.08.93-.129l.002.706a50.58 50.58 0 0 1-.94.125c-1.515.186-3.027.307-4.556.24l.055-.702zM270.311 287.651c-.064 1.666.05 3.316.289 4.963.238 1.767.465 3.536.683 5.306.128 1.207.508 2.421.422 3.642l-.198.694-.383-.592-.023.26c.265-.958-.286-2.558-.358-3.555-.204-1.769-.452-3.532-.674-5.298-.26-1.66-.394-3.324-.328-5.006l.57-.414z" style="opacity:1;fill:#000;fill-opacity:1;stroke:#000;stroke-width:.5;stroke-linecap:butt;stroke-linejoin:miter;stroke-miterlimit:2.29999995;stroke-dasharray:none;stroke-dashoffset:0;stroke-opacity:1"/><path d="M265.936 300.601c1.901.057 3.79 0 5.676-.24l-.007.702c-1.903.235-3.807.287-5.725.24l.056-.702zM224.321 139.787c1.703-.127 3.41-.141 5.117-.151a94.259 94.259 0 0 1 1.504.005l-.03.35c-.5-.008-1-.01-1.5-.008-1.7.008-3.403.022-5.099.155l.008-.35z" style="opacity:1;fill:#000;fill-opacity:1;stroke:#000;stroke-width:.5;stroke-linecap:butt;stroke-linejoin:miter;stroke-miterlimit:2.29999995;stroke-dasharray:none;stroke-dashoffset:0;stroke-opacity:1"/><path d="M227.546 146.402c.002-1.383.002-2.766.002-4.15v-4.372c-.002-.361 0-.722-.002-1.083l.286-.207c-.002.361 0 .723-.001 1.084v4.375l.001 4.146-.284.207zM144.686 235.6c-.13.91-.395 2.37.491 3.021.123.09.284.11.425.165.162-.015.33 0 .486-.044 1.109-.313 1.647-1.4 2.086-2.357.135-.384.193-.46.23-.82.004-.046-.059.094-.036.135.042.075.147.094.202.16.018.022 0 .056 0 .084l-.019.481c.087 1.4.58 2.723.909 4.074.065.27.113.545.17.818 0 .257.043.517.002.77-.05.318-.134.637-.274.927-.33.683-1.148 1.232-1.865 1.41-.253.063-.52.043-.78.064-.24-.083-.5-.124-.72-.251-.634-.366-.937-.994-1.215-1.629l.231-.262c.24.594.5 1.199 1.076 1.555.194.12.427.16.64.24.24-.02.486 0 .719-.06.745-.193 1.33-.706 1.716-1.354.08-.136.16-.28.189-.437.044-.242.015-.492.023-.739-.053-.27-.096-.542-.16-.81-.326-1.367-.833-2.7-.946-4.113 0-.026-.048-1.589.382-1.143.116.121-.252 1.114-.293 1.199-.481 1.004-1.095 2.126-2.281 2.408-.185.043-.38.02-.57.03-.17-.067-.36-.097-.508-.202-.963-.683-.755-2.153-.612-3.141l.302-.18zM152.247 235.988c1.216-.164 2.444-.24 3.662-.39.292.008.588-.174.877-.113l-.085.343c-.035-.039-.777.162-.796.12-1.227.146-2.461.23-3.686.39l.028-.35zM152.743 237.756c1.215-.014 2.424-.174 3.633-.291.02-.003 1.085-.105 1.094-.08.04.114.055.234.082.351-.06.082-.03.044-.084.115l-.162-.314c.025-.05.02-.026.023-.075.032.091.07.18.096.274.002.006-.013-.002-.02-.002-.03 0-.06 0-.09.002a5.585 5.585 0 0 0-.183.01c-.204.016-.592.052-.765.067-1.215.118-2.43.277-3.652.294l.028-.352zM165.876 233.044c.088-.984-.284-1.975-1.176-2.483-.158-.09-.338-.13-.506-.195-.344-.027-.572-.113-.873.112-.631.472-.579 2.253-.617 2.884-.048 3.178.502 6.322.91 9.463l.108 1.085-.269.218-.1-1.082c-.311-2.41-.081-.636-.428-3.276-.27-2.062-.565-4.127-.506-6.214.047-.927.03-1.48.25-2.384.097-.403.243-.812.616-1.042.367-.227.605-.136 1.006-.1.185.071.382.117.555.214.951.533 1.387 1.565 1.333 2.62l-.303.18z" style="opacity:1;fill:#000;fill-opacity:1;stroke:#000;stroke-width:.5;stroke-linecap:butt;stroke-linejoin:miter;stroke-miterlimit:2.29999995;stroke-dasharray:none;stroke-dashoffset:0;stroke-opacity:1"/><path d="M160.977 238.11c1.46-.1 2.913-.277 4.362-.476.397-.015.226-.026.513.007l-.051.349c-.25-.032-.096-.02-.463-.006-1.459.195-2.92.374-4.389.476l.028-.35zM169.427 231.227c-.534.635-1.134 1.23-1.561 1.947l-.162-.312c.458-.707 1.044-1.317 1.585-1.959l.138.324zM174.854 230.431c-1.175.774-2.071 1.89-2.852 3.042-.627 1.168-.966 2.364-.41 3.647.102.235.263.44.394.66.919 1.049 2.173 1.595 3.508 1.883l-.068.344c-1.386-.302-2.683-.872-3.649-1.948-.143-.23-.317-.445-.43-.692-.64-1.398-.217-2.937.502-4.206.808-1.167 1.726-2.301 2.935-3.075l.07.345zM177.482 230.644c.17 1.413.293 2.831.43 4.248.116 1.203.294 2.397.475 3.592l.042.274-.267.23-.041-.276c-.18-1.198-.362-2.395-.478-3.601-.136-1.412-.265-2.826-.426-4.235l.265-.232z" style="opacity:1;fill:#000;fill-opacity:1;stroke:#000;stroke-width:.5;stroke-linecap:butt;stroke-linejoin:miter;stroke-miterlimit:2.29999995;stroke-dasharray:none;stroke-dashoffset:0;stroke-opacity:1"/><path d="M175.157 234.375c1.24-.173 2.47-.42 3.701-.643.842-.113 1.66-.436 2.512-.472l.147.005-.035.35-.131-.004c-.843.04-1.652.362-2.486.47-1.234.224-2.465.47-3.708.647v-.353z" style="opacity:1;fill:#000;fill-opacity:1;stroke:#000;stroke-width:.5;stroke-linecap:butt;stroke-linejoin:miter;stroke-miterlimit:2.29999995;stroke-dasharray:none;stroke-dashoffset:0;stroke-opacity:1"/><path d="M181.19 229.671c.851.32 1.589.925 2.158 1.628.169.208.31.438.464.657.854 1.551.895 3.062.439 4.756-.08.293-.21.57-.314.855-.47.952-1.02 1.957-1.988 2.477-.228.06-.12.05-.319.044l.034-.35c.125.004.052.01.216-.039.91-.523 1.423-1.504 1.862-2.42.098-.28.21-.554.293-.839.415-1.416.285-2.902-.422-4.199-.147-.214-.28-.439-.442-.642-.54-.683-1.25-1.277-2.07-1.587l.09-.34z" style="opacity:1;fill:#000;fill-opacity:1;stroke:#000;stroke-width:.5;stroke-linecap:butt;stroke-linejoin:miter;stroke-miterlimit:2.29999995;stroke-dasharray:none;stroke-dashoffset:0;stroke-opacity:1"/></svg>