<svg xmlns="http://www.w3.org/2000/svg" width="500" height="130" viewBox="0 0 132.292 34.396"><path d="M92.284 45.844a2.838 2.838 0 0 0-.606-.715c-.085-.072-.176-.135-.265-.203-.108-.065-.212-.138-.325-.196-.59-.306-1.257-.451-1.915-.505-.19-.015-.382-.014-.573-.021-.513.011-1.034.06-1.514.259-.234.097-.422.198-.552.423-.045.077-.052.17-.079.255 0 .247.063.427.222.614.053.063.139.151.226.169-.015-.018-.025-.043-.045-.055-.08-.043-.283-.074-.352-.08-.371-.03-.7.034-1.064.1-.143.039-.287.072-.428.116-.528.165-1.09.41-1.503.787-.086.078-.158.172-.237.258-.134.233-.207.304-.24.576-.038.334.084.676.268.95.073.109.167.202.25.303.107.09.206.188.32.268.452.318.988.475 1.53.55.106.014.214.02.321.03.304.002.66.03.936-.123.004.024.085-.096.052-.093-.011 0-.02.01-.03.014.002.018.002.036.008.053.11.278.501.487.742.624.106.047.21.1.319.141.555.21 1.16.321 1.752.347.163.007.326 0 .49 0 .16-.015.321-.02.48-.046.518-.082 1.082-.276 1.485-.624.066-.058.12-.129.18-.193.033-.06.076-.115.1-.18.086-.224-.018-.384-.2-.5-.017-.004-.034-.015-.05-.011-.054.011-.023.072-.006.094.023.028.052.05.082.069.12.074.206.09.344.132.5.11 1.026.09 1.521-.041.11-.03.217-.07.325-.105.39-.15.76-.362 1.006-.71.149-.21.145-.261.221-.502.008-.089.025-.178.025-.267A1.686 1.686 0 0 0 95.28 47c-.127-.225-.192-.276-.364-.467a2.925 2.925 0 0 0-1.063-.652c-.273-.093-.344-.091-.627-.134-.226-.014-.348-.033-.57-.005-.077.01-.151.032-.226.048M65.264 72.315l.048-.055c-.268-.211-.712-.13-1.05-.09-.827.095-1.758.467-2.33 1.183-.403.513-.223 1.27.2 1.705.673.751 1.742.98 2.694.87.066 0 .537-.085.408-.135-.029-.039-.013-.186-.086-.069-.172.397.49.843.903 1.028 1.17.525 2.577.519 3.803.053.413-.157 1.211-.677.76-1.171-.035-.04-.076-.048-.116-.065-.038-.017-.105 0-.092.05.11.437.899.348 1.271.3.604-.077 1.378-.42 1.606-1.178.223-.777-.256-1.566-.823-1.945-.568-.379-1.4-.51-2.007-.22-.292.139-.173.253.053.183.368-.114.338-.567.325-.639-.08-.479-.599-.96-.952-1.167a6.341 6.341 0 0 0-2.53-.78c-.862-.06-1.94 0-2.553.668-.404.44-.25 1.326.198 1.572" style="fill:#e5f6ff;fill-opacity:1;stroke:#000;stroke-width:.264583;stroke-dasharray:none"/><g style="stroke-width:1.25"><path d="M79.762 32.461v-.08c-.407 0-.515-.099-.515-.332v-3.238l-.049-.016-.97.493v.076l.146-.054a.82.82 0 0 1 .244-.065c.114 0 .162.081.162.266v2.435c0 .298-.113.412-.515.434v.081zM82.772 28.958v-.087h-2.001l-.325.797.097.049c.228-.369.32-.445.635-.445h1.166l-1.074 3.233h.353z" style="font-size:5.42396px;font-family:STIXGeneral;-inkscape-font-specification:STIXGeneral;stroke:#000;stroke-width:0" transform="matrix(.8 0 0 .8 -25.36 59.769)"/></g><path d="M44.258 84.744v-.274h-2.301v.274z" style="font-size:5.42396px;font-family:STIXGeneral;-inkscape-font-specification:STIXGeneral;stroke:#000;stroke-width:0"/><g style="stroke-width:1.25"><path d="M86.992 32.461v-.08c-.407 0-.515-.099-.515-.332v-3.238l-.049-.016-.97.493v.076l.146-.054a.82.82 0 0 1 .244-.065c.114 0 .163.081.163.266v2.435c0 .298-.114.412-.516.434v.081zM89.704 32.461v-.08c-.407 0-.515-.099-.515-.332v-3.238l-.049-.016-.97.493v.076l.146-.054a.82.82 0 0 1 .244-.065c.114 0 .162.081.162.266v2.435c0 .298-.113.412-.515.434v.081z" style="font-size:5.42396px;font-family:STIXGeneral;-inkscape-font-specification:STIXGeneral;stroke:#000;stroke-width:0" transform="matrix(.8 0 0 .8 -23.144 59.769)"/></g><path d="M4.181-37.592h124.046M11.095-40.708v6.33M18.495-40.708v6.33M25.894-40.708v6.33M33.293-40.708v6.33M40.693-40.708v6.33M48.092-40.708v6.33M55.492-40.708v6.33M62.89-40.708v6.33M70.29-40.708v6.33M77.69-40.708v6.33M85.09-40.708v6.33M92.488-40.708v6.33M99.888-40.708v6.33M107.287-40.708v6.33M114.687-40.708v6.33M122.086-40.708v6.33" style="fill:#e5f6ff;stroke:#000;stroke-width:.264583"/><path d="M72.996 91.59h-.138l.08-1.647h1.374q-.114.267-.167.31-.05.042-.177.042h-.93l-.042 1.097q.268-.342.657-.342.413 0 .704.331.294.331.294.821 0 .564-.33.932-.33.366-.922.366-.414 0-.644-.19-.23-.194-.23-.35 0-.07.045-.12.047-.05.127-.05.087 0 .132.053.045.05.106.212.12.328.474.328.34 0 .57-.273.233-.272.233-.887 0-.553-.191-.786-.19-.233-.45-.233-.366 0-.575.386z" style="font-size:5.42396px;font-family:Baskerville;-inkscape-font-specification:Baskerville;fill:#000;stroke:none;stroke-width:.264583"/><path d="M41.448 27.276h.117v2.812q0 .347.008.437.01.09.077.138.066.048.235.048h.104v.122h-1.192v-.122h.087q.19 0 .246-.053.059-.056.067-.13.01-.077.01-.44v-1.885q0-.358-.008-.432-.008-.077-.069-.132-.058-.059-.246-.059h-.114v-.121q.458-.008.678-.183zM42.934 29.098q0-.829.313-1.324.315-.498.823-.498.509 0 .821.5.315.498.315 1.322 0 .818-.312 1.321-.313.501-.824.501-.508 0-.823-.498-.313-.5-.313-1.324zm.44 0q0 1.099.182 1.398.186.297.514.297.387 0 .54-.355.154-.358.154-1.34 0-1.102-.185-1.398-.183-.297-.509-.297t-.51.297q-.186.294-.186 1.398z" style="font-size:5.42396px;font-family:Baskerville;-inkscape-font-specification:Baskerville;fill:#000;stroke:none;stroke-width:.264583" transform="translate(35.001 62.58)"/><path d="M81.874 89.856h.116v2.812q0 .347.008.437.01.09.077.138.066.048.236.048h.103v.121h-1.192v-.121h.087q.191 0 .247-.053.058-.056.066-.13.01-.077.01-.44v-1.885q0-.358-.007-.432-.008-.077-.07-.133-.058-.058-.246-.058h-.113v-.122q.458-.008.678-.182zM83.844 91.59h-.138l.08-1.647h1.374q-.114.267-.167.31-.05.042-.177.042h-.93l-.042 1.097q.267-.342.657-.342.413 0 .704.331.294.331.294.821 0 .564-.33.932-.33.366-.922.366-.414 0-.644-.19-.23-.194-.23-.35 0-.07.045-.12.047-.05.127-.05.087 0 .132.053.045.05.106.212.12.328.474.328.34 0 .57-.273.233-.272.233-.887 0-.553-.191-.786-.19-.233-.45-.233-.366 0-.575.386z" style="font-size:5.42396px;font-family:Baskerville;-inkscape-font-specification:Baskerville;fill:#000;stroke:none;stroke-width:.264583"/><path d="M60.59 30.833v-.165q.303-.235.763-.744.464-.51.668-.882.204-.37.204-.75 0-.452-.207-.664-.206-.214-.514-.214-.302 0-.468.196-.165.195-.165.418 0 .254.215.403.08.055.08.084 0 .048-.09.13t-.149.082q-.08 0-.193-.159-.112-.161-.112-.413 0-.405.316-.64.315-.24.69-.24.398 0 .716.247.32.246.32.731 0 .305-.143.58-.143.273-.696.837-.551.561-.887.845h1.684l-.151.593h-.124q0-.048.015-.095.008-.027.008-.072 0-.08-.034-.095-.035-.013-.185-.013zM63.22 29.098q0-.829.313-1.324.315-.498.824-.498.508 0 .82.5.316.498.316 1.322 0 .818-.313 1.321-.312.501-.823.501-.509 0-.824-.498-.312-.5-.312-1.324zm.44 0q0 1.099.183 1.398.185.297.514.297.386 0 .54-.355.154-.358.154-1.34 0-1.102-.186-1.398-.183-.297-.508-.297-.326 0-.511.297-.186.294-.186 1.398z" style="font-size:5.42396px;font-family:Baskerville;-inkscape-font-specification:Baskerville;fill:#000;stroke:none;stroke-width:.264583" transform="translate(25.563 62.58)"/><path d="M92.721 89.856h.117v2.812q0 .347.008.437.01.09.077.138.066.048.235.048h.104v.121H92.07v-.121h.087q.191 0 .247-.053.058-.056.066-.13.01-.077.01-.44v-1.885q0-.358-.007-.432-.008-.077-.07-.133-.058-.058-.246-.058h-.114v-.122q.459-.008.678-.182zM94.29 93.412v-.164q.301-.235.762-.744.464-.511.667-.882.204-.37.204-.75 0-.452-.206-.664-.207-.215-.514-.215-.302 0-.469.196-.164.196-.164.419 0 .254.215.402.079.056.079.085 0 .048-.09.13t-.148.082q-.08 0-.194-.159-.11-.162-.11-.413 0-.405.314-.641.315-.238.692-.238.397 0 .715.246.32.246.32.73 0 .305-.143.58-.143.274-.696.838-.551.561-.888.845h1.685l-.151.593h-.125q0-.048.016-.095.008-.027.008-.072 0-.08-.034-.095-.035-.014-.186-.014zM98.04 91.484q.082-.023.164-.023.389 0 .611.267.226.265.226.667 0 .485-.331.795-.331.31-.853.31-.35 0-.601-.16-.252-.158-.252-.34 0-.078.048-.13.047-.056.124-.056.138 0 .196.188.074.24.212.31.135.071.267.071.334 0 .54-.243.21-.244.21-.755 0-.41-.156-.612-.154-.201-.366-.201-.183 0-.402.222-.037.04-.077.04-.08 0-.08-.085 0-.037.04-.077.043-.042.233-.172.419-.283.554-.471.135-.188.135-.474 0-.273-.14-.421-.14-.151-.374-.151-.238 0-.424.153-.182.151-.182.387 0 .188.161.352.019.019.019.032 0 .034-.088.074-.087.04-.127.04-.082 0-.154-.125-.071-.124-.071-.27 0-.294.254-.532.254-.238.68-.238.438 0 .66.2.225.2.225.446 0 .217-.153.405-.151.185-.514.43zM100.884 92.218H99.58v-.159l1.512-2.203h.17v2.203h.243q.225 0 .268-.026.042-.027.116-.226h.117l-.061.411h-.683v.45q0 .384.013.466.016.08.087.12.072.037.265.037v.121h-1.157v-.121h.092q.16 0 .226-.043.068-.045.082-.124.013-.08.013-.456zm0-.159v-1.682l-1.155 1.682zM102.833 91.617q.164-.196.344-.294.183-.098.382-.098.429 0 .741.323.313.323.313.81 0 .459-.302.8-.302.342-.77.342-.398 0-.67-.252-.274-.251-.385-.627-.108-.38-.108-.787 0-.842.368-1.409.37-.57.99-.57.292 0 .514.128.223.124.223.283 0 .148-.151.148-.13 0-.207-.145-.08-.151-.172-.217-.093-.064-.278-.064-.419 0-.628.37-.21.372-.21 1.116 0 .066.006.143zm-.016.704q0 .257.072.511.074.252.243.398.17.145.38.145.33 0 .494-.265.165-.264.165-.791 0-.334-.064-.52-.06-.188-.228-.312-.164-.124-.368-.124-.275 0-.485.209-.209.206-.209.75zM105.235 90.584l.223-.728h.092q.005.053.043.071.04.016.209.016h1.372l-.95 2.897q-.157.477-.24.57-.079.09-.163.09-.16 0-.16-.164 0-.098.149-.416.04-.082.066-.148l1.068-2.48h-1.131q-.228 0-.273.011-.045.008-.085.058-.04.048-.1.223zM109.123 91.606q.35.03.617.28.268.25.268.644 0 .456-.326.713-.326.257-.792.257-.477 0-.794-.273-.318-.275-.318-.686 0-.355.227-.606.228-.252.63-.329-.325-.082-.534-.318-.207-.235-.207-.553 0-.39.284-.633.283-.246.712-.246.397 0 .702.24.307.239.307.639 0 .318-.196.548-.193.23-.58.323zm-.813-.924q0 .432.138.649.14.214.418.214.305 0 .456-.204.15-.206.15-.614 0-.37-.158-.564-.156-.194-.435-.194-.246 0-.407.178-.162.175-.162.535zm-.093 1.825q0 .299.056.474.056.172.212.286.159.114.392.114.296 0 .492-.17t.196-.673q0-.505-.196-.686-.196-.18-.503-.18-.326 0-.487.226-.162.222-.162.609zM112.262 91.739q-.162.196-.345.294-.183.098-.384.098-.429 0-.741-.324-.31-.325-.31-.81 0-.46.302-.8.302-.341.77-.341.398 0 .67.251.273.252.382.63.111.377.111.784 0 .84-.37 1.41-.369.569-.989.569-.29 0-.513-.127-.223-.127-.223-.284 0-.148.154-.148.13 0 .222.177.127.25.432.25.418 0 .628-.371.209-.374.209-1.115 0-.061-.005-.143zm.013-.705q0-.257-.072-.508-.071-.255-.24-.4-.17-.146-.38-.146-.33 0-.497.265-.165.262-.165.792 0 .333.064.522.064.185.228.31.167.124.37.124.276 0 .483-.207.209-.209.209-.752z" style="font-size:5.42396px;font-family:Baskerville;-inkscape-font-specification:Baskerville;fill:#000;stroke:none;stroke-width:.264583"/><path d="M79.416 27.276h.117v2.812q0 .347.007.437.011.09.077.138.066.048.236.048h.103v.122h-1.192v-.122h.088q.19 0 .246-.053.058-.056.066-.13.01-.077.01-.44v-1.885q0-.358-.007-.432-.008-.077-.069-.132-.058-.059-.246-.059h-.114v-.121q.458-.008.678-.183zM82.128 27.276h.117v2.812q0 .347.007.437.011.09.077.138.066.048.236.048h.103v.122h-1.192v-.122h.088q.19 0 .246-.053.058-.056.066-.13.01-.077.01-.44v-1.885q0-.358-.007-.432-.008-.077-.069-.132-.058-.059-.246-.059h-.114v-.121q.458-.008.678-.183z" style="font-size:5.42396px;font-family:Baskerville;-inkscape-font-specification:Baskerville;fill:#000;stroke:none;stroke-width:.264583" transform="translate(35.001 62.58)"/><path d="M84.84 27.276h.116v2.812q0 .347.008.437.011.09.077.138.066.048.236.048h.103v.122h-1.192v-.122h.088q.19 0 .246-.053.058-.056.066-.13.01-.077.01-.44v-1.885q0-.358-.007-.432-.008-.077-.069-.132-.058-.059-.246-.059h-.114v-.121q.458-.008.678-.183zM86.408 30.833v-.165q.302-.235.763-.744.463-.51.667-.882.204-.37.204-.75 0-.452-.207-.664-.206-.214-.513-.214-.302 0-.47.196-.163.195-.163.418 0 .254.214.403.08.055.08.084 0 .048-.09.13t-.149.082q-.08 0-.193-.159-.111-.161-.111-.413 0-.405.315-.64.315-.24.691-.24.397 0 .715.247.32.246.32.731 0 .305-.142.58-.144.273-.697.837-.55.561-.887.845h1.684l-.15.593h-.125q0-.048.016-.095.008-.027.008-.072 0-.08-.035-.095-.034-.013-.185-.013z" style="font-size:5.42396px;font-family:Baskerville;-inkscape-font-specification:Baskerville;fill:#000;stroke:none;stroke-width:.264583" transform="translate(-97.532 62.58)"/><path d="M90.264 27.276h.116v2.812q0 .347.008.437.01.09.077.138.066.048.236.048h.103v.122h-1.192v-.122h.088q.19 0 .246-.053.058-.056.066-.13.01-.077.01-.44v-1.885q0-.358-.007-.432-.008-.077-.069-.132-.058-.059-.246-.059h-.114v-.121q.458-.008.678-.183zM92.87 28.905q.082-.024.164-.024.39 0 .612.267.225.265.225.668 0 .484-.331.794-.331.31-.853.31-.35 0-.601-.159-.252-.159-.252-.342 0-.076.048-.13.048-.055.125-.055.137 0 .196.188.074.241.211.31.135.071.268.071.334 0 .54-.243.21-.244.21-.755 0-.41-.157-.612-.153-.201-.365-.201-.183 0-.403.222-.037.04-.077.04-.08 0-.08-.085 0-.037.04-.076.043-.043.234-.173.418-.283.553-.47.135-.189.135-.475 0-.273-.14-.421-.14-.151-.374-.151-.238 0-.423.154-.183.15-.183.386 0 .188.162.352.018.019.018.032 0 .035-.087.074-.088.04-.127.04-.083 0-.154-.124-.072-.125-.072-.27 0-.294.255-.533.254-.238.68-.238.437 0 .66.201.225.199.225.445 0 .217-.154.405-.15.186-.514.43z" style="font-size:5.42396px;font-family:Baskerville;-inkscape-font-specification:Baskerville;fill:#000;stroke:none;stroke-width:.264583" transform="translate(-95.959 62.58)"/><path d="M95.688 27.276h.116v2.812q0 .347.008.437.01.09.077.138.066.048.236.048h.103v.122h-1.192v-.122h.088q.19 0 .246-.053.058-.056.066-.13.01-.077.01-.44v-1.885q0-.358-.007-.432-.008-.077-.069-.132-.058-.059-.246-.059h-.114v-.121q.458-.008.678-.183zM98.426 29.638h-1.303v-.159l1.513-2.203h.17v2.203h.243q.225 0 .267-.026.043-.027.117-.225h.116l-.06.41h-.684v.45q0 .384.013.467.016.079.088.119.071.037.265.037v.122h-1.158v-.122h.093q.159 0 .225-.043.069-.045.082-.124.013-.08.013-.456zm0-.159v-1.681l-1.154 1.681z" style="font-size:5.42396px;font-family:Baskerville;-inkscape-font-specification:Baskerville;fill:#000;stroke:none;stroke-width:.264583" transform="translate(-94.464 62.58)"/><path d="M101.112 27.276h.116v2.812q0 .347.008.437.011.09.077.138.066.048.236.048h.103v.122h-1.192v-.122h.088q.19 0 .246-.053.058-.056.066-.13.01-.077.01-.44v-1.885q0-.358-.007-.432-.008-.077-.069-.132-.058-.059-.246-.059h-.114v-.121q.458-.008.678-.183zM103.082 29.01h-.137l.079-1.647h1.374q-.113.268-.166.31-.05.042-.178.042h-.93l-.042 1.097q.268-.342.657-.342.413 0 .704.331.294.331.294.821 0 .564-.33.933-.329.365-.922.365-.413 0-.644-.19-.23-.194-.23-.35 0-.07.045-.12.047-.05.127-.05.087 0 .132.053.045.05.106.212.12.328.474.328.34 0 .57-.272.233-.273.233-.888 0-.553-.19-.786-.192-.233-.451-.233-.366 0-.575.387z" style="font-size:5.42396px;font-family:Baskerville;-inkscape-font-specification:Baskerville;fill:#000;stroke:none;stroke-width:.264583" transform="translate(-92.97 62.58)"/><path d="M106.536 27.276h.116v2.812q0 .347.008.437.01.09.077.138.066.048.236.048h.103v.122h-1.192v-.122h.088q.19 0 .246-.053.058-.056.066-.13.01-.077.01-.44v-1.885q0-.358-.007-.432-.008-.077-.07-.132-.057-.059-.245-.059h-.114v-.121q.458-.008.678-.183zM108.512 29.037q.164-.196.344-.294.183-.098.381-.098.43 0 .742.323t.312.81q0 .459-.302.8-.302.342-.77.342-.398 0-.67-.252-.273-.251-.384-.627-.109-.379-.109-.787 0-.842.368-1.409.37-.57.99-.57.292 0 .514.128.223.124.223.283 0 .149-.151.149-.13 0-.207-.146-.08-.151-.172-.217-.092-.064-.278-.064-.418 0-.628.371-.209.37-.209 1.115 0 .066.005.143zm-.016.704q0 .257.071.512.074.251.244.397.17.146.378.146.332 0 .496-.265.164-.265.164-.792 0-.334-.064-.52-.06-.187-.227-.312-.165-.124-.369-.124-.275 0-.484.209-.21.207-.21.75z" style="font-size:5.42396px;font-family:Baskerville;-inkscape-font-specification:Baskerville;fill:#000;stroke:none;stroke-width:.264583" transform="translate(-91.633 62.58)"/><path d="M111.96 27.276h.116v2.812q0 .347.008.437.01.09.077.138.066.048.236.048h.103v.122h-1.192v-.122h.088q.19 0 .246-.053.058-.056.066-.13.01-.077.01-.44v-1.885q0-.358-.007-.432-.008-.077-.07-.132-.057-.059-.245-.059h-.114v-.121q.458-.008.678-.183zM113.626 28.004l.222-.728h.093q.005.053.042.071.04.016.21.016h1.371l-.95 2.898q-.157.476-.239.569-.08.09-.164.09-.159 0-.159-.164 0-.098.148-.416.04-.082.067-.148l1.067-2.48h-1.131q-.228 0-.273.011-.045.008-.085.059-.04.047-.1.222z" style="font-size:5.42396px;font-family:Baskerville;-inkscape-font-specification:Baskerville;fill:#000;stroke:none;stroke-width:.264583" transform="translate(-89.194 62.58)"/><path d="M117.384 27.276h.116v2.812q0 .347.008.437.01.09.077.138.066.048.236.048h.103v.122h-1.192v-.122h.088q.19 0 .246-.053.058-.056.066-.13.01-.077.01-.44v-1.885q0-.358-.007-.432-.008-.077-.07-.132-.057-.059-.245-.059h-.114v-.121q.458-.008.678-.183zM120.225 29.026q.35.03.618.281.267.25.267.644 0 .455-.326.712-.325.257-.792.257-.476 0-.794-.273-.318-.275-.318-.686 0-.355.228-.606.228-.252.63-.329-.326-.082-.535-.317-.206-.236-.206-.554 0-.39.283-.633.283-.246.712-.246.398 0 .702.24.307.24.307.64 0 .317-.196.547-.193.23-.58.323zm-.813-.924q0 .432.138.649.14.214.419.214.304 0 .455-.203.151-.207.151-.615 0-.37-.159-.564-.156-.193-.434-.193-.246 0-.408.177-.162.175-.162.535zm-.092 1.825q0 .3.055.474.056.172.212.286.16.114.392.114.297 0 .493-.17t.196-.672q0-.506-.196-.686-.196-.18-.503-.18-.326 0-.488.225-.161.222-.161.609z" style="font-size:5.42396px;font-family:Baskerville;-inkscape-font-specification:Baskerville;fill:#000;stroke:none;stroke-width:.264583" transform="translate(-87.7 62.58)"/><path d="M122.808 27.276h.116v2.812q0 .347.008.437.01.09.077.138.066.048.236.048h.103v.122h-1.192v-.122h.088q.19 0 .246-.053.058-.056.066-.13.01-.077.01-.44v-1.885q0-.358-.007-.432-.008-.077-.07-.132-.057-.059-.245-.059h-.114v-.121q.458-.008.678-.183zM126.076 29.159q-.162.196-.344.294-.183.098-.384.098-.43 0-.742-.323-.31-.326-.31-.81 0-.462.302-.8.302-.342.77-.342.398 0 .67.251.274.252.382.63.111.377.111.785 0 .84-.37 1.409-.369.569-.988.569-.292 0-.514-.127-.223-.127-.223-.283 0-.149.154-.149.13 0 .223.178.127.249.431.249.419 0 .628-.371.21-.374.21-1.115 0-.061-.006-.143zm.013-.705q0-.257-.071-.508-.072-.254-.241-.4-.17-.146-.38-.146-.33 0-.497.265-.164.262-.164.792 0 .334.063.522.064.185.228.31.167.124.37.124.276 0 .483-.207.21-.209.21-.752z" style="font-size:5.42396px;font-family:Baskerville;-inkscape-font-specification:Baskerville;fill:#000;stroke:none;stroke-width:.264583" transform="translate(-86.127 62.58)"/><text xml:space="preserve" x="26.864" y="177.542" style="font-size:5.42396px;font-family:Baskerville;-inkscape-font-specification:Baskerville;fill:#e5f6ff;stroke:#000;stroke-width:.264583"><tspan x="26.864" y="177.542" style="stroke-width:.264583">510152012346789111213141516171819</tspan></text><path d="M-71.273 91.678q0-.83.313-1.325.315-.497.824-.497.508 0 .82.5.316.498.316 1.322 0 .818-.313 1.321-.312.5-.823.5-.509 0-.824-.497-.313-.5-.313-1.324zm.44 0q0 1.099.183 1.398.185.297.514.297.386 0 .54-.355.153-.358.153-1.34 0-1.102-.185-1.399-.183-.296-.508-.296-.326 0-.512.296-.185.294-.185 1.399zM-66.387 89.856h.116v2.812q0 .347.008.437.01.09.077.138.066.048.236.048h.103v.121h-1.192v-.121h.088q.19 0 .246-.053.058-.056.066-.13.01-.077.01-.44v-1.885q0-.358-.007-.432-.008-.077-.07-.133-.057-.058-.245-.058h-.114v-.122q.458-.008.678-.182zM-63.684 93.412v-.164q.302-.235.763-.744.463-.511.667-.882.204-.37.204-.75 0-.452-.206-.664-.207-.215-.514-.215-.302 0-.469.196-.164.196-.164.419 0 .254.214.402.08.056.08.085 0 .048-.09.13t-.148.082q-.08 0-.194-.159-.111-.162-.111-.413 0-.405.315-.641.315-.238.691-.238.398 0 .715.246.32.246.32.73 0 .305-.142.58-.143.274-.697.838-.55.561-.887.845h1.685l-.151.593h-.125q0-.048.016-.095.008-.027.008-.072 0-.08-.035-.095-.034-.014-.185-.014zM-58.562 91.484q.082-.023.164-.023.39 0 .612.267.225.265.225.667 0 .485-.33.795-.332.31-.854.31-.35 0-.6-.16-.252-.158-.252-.34 0-.078.047-.13.048-.056.125-.056.137 0 .196.188.074.24.212.31.135.071.267.071.334 0 .54-.243.21-.244.21-.755 0-.41-.157-.612-.153-.201-.365-.201-.183 0-.403.222-.037.04-.077.04-.079 0-.079-.085 0-.037.04-.077.042-.042.233-.172.418-.283.553-.471.135-.188.135-.474 0-.273-.14-.421-.14-.151-.373-.151-.239 0-.424.153-.183.151-.183.387 0 .188.162.352.018.019.018.032 0 .034-.087.074-.088.04-.127.04-.082 0-.154-.125-.071-.124-.071-.27 0-.294.254-.532.254-.238.68-.238.437 0 .66.2.225.2.225.446 0 .217-.154.405-.15.185-.513.43zM-54.066 92.218h-1.303v-.159l1.512-2.203h.17v2.203h.244q.225 0 .267-.026.042-.027.117-.226h.116l-.06.411h-.684v.45q0 .384.013.466.016.08.088.12.071.037.264.037v.121h-1.157v-.121h.093q.159 0 .225-.043.069-.045.082-.124.013-.08.013-.456zm0-.159v-1.682l-1.155 1.682zM-50.57 91.59h-.138l.08-1.647h1.374q-.114.267-.167.31-.05.042-.177.042h-.93l-.042 1.097q.267-.342.656-.342.414 0 .705.331.294.331.294.821 0 .564-.331.932-.329.366-.922.366-.413 0-.643-.19-.23-.194-.23-.35 0-.07.044-.12.048-.05.127-.05.088 0 .133.053.045.05.106.212.119.328.474.328.339 0 .57-.273.232-.272.232-.887 0-.553-.19-.786-.191-.233-.45-.233-.366 0-.575.386zM-46.217 91.617q.164-.196.344-.294.183-.098.381-.098.43 0 .742.323t.312.81q0 .459-.302.8-.302.342-.77.342-.398 0-.67-.252-.273-.251-.384-.627-.109-.38-.109-.787 0-.842.368-1.409.37-.57.99-.57.292 0 .514.128.223.124.223.283 0 .148-.151.148-.13 0-.207-.145-.08-.151-.172-.217-.092-.064-.278-.064-.418 0-.628.37-.209.372-.209 1.116 0 .066.006.143zm-.016.704q0 .257.071.511.074.252.244.398.17.145.379.145.33 0 .495-.265.164-.264.164-.791 0-.334-.064-.52-.06-.188-.227-.312-.165-.124-.368-.124-.276 0-.485.209-.21.206-.21.75zM-42.242 90.584l.222-.728h.093q.005.053.042.071.04.016.21.016h1.371l-.95 2.897q-.157.477-.239.57-.08.09-.164.09-.159 0-.159-.164 0-.098.148-.416.04-.082.067-.148l1.067-2.48h-1.13q-.229 0-.274.011-.045.008-.084.058-.04.048-.101.223zM-36.23 91.606q.349.03.616.28.268.25.268.644 0 .456-.326.713-.326.257-.792.257-.476 0-.794-.273-.318-.275-.318-.686 0-.355.228-.606.227-.252.63-.329-.326-.082-.535-.318-.207-.235-.207-.553 0-.39.284-.633.283-.246.712-.246.397 0 .702.24.307.239.307.639 0 .318-.196.548-.193.23-.58.323zm-.814-.924q0 .432.138.649.14.214.418.214.305 0 .456-.204.15-.206.15-.614 0-.37-.158-.564-.156-.194-.434-.194-.247 0-.408.178-.162.175-.162.535zm-.092 1.825q0 .299.055.474.056.172.212.286.159.114.392.114.297 0 .493-.17t.196-.673q0-.505-.196-.686-.196-.18-.504-.18-.325 0-.487.226-.161.222-.161.609zM-31.126 91.739q-.162.196-.344.294-.183.098-.384.098-.43 0-.742-.324-.31-.325-.31-.81 0-.46.302-.8.302-.341.77-.341.398 0 .671.251.273.252.381.63.112.377.112.784 0 .84-.371 1.41-.368.569-.988.569-.291 0-.514-.127-.222-.127-.222-.284 0-.148.153-.148.13 0 .223.177.127.25.431.25.419 0 .628-.371.21-.374.21-1.115 0-.061-.006-.143zm.013-.705q0-.257-.071-.508-.072-.255-.241-.4-.17-.146-.379-.146-.331 0-.498.265-.164.262-.164.792 0 .333.063.522.064.185.228.31.167.124.371.124.275 0 .482-.207.21-.209.21-.752z" style="font-size:5.42396px;font-family:Baskerville;-inkscape-font-specification:Baskerville;fill:#000;stroke:none;stroke-width:.264583"/><path d="M41.448 27.276h.117v2.812q0 .347.008.437.01.09.077.138.066.048.235.048h.104v.122h-1.192v-.122h.087q.19 0 .246-.053.059-.056.067-.13.01-.077.01-.44v-1.885q0-.358-.008-.432-.008-.077-.069-.132-.058-.059-.246-.059h-.114v-.121q.458-.008.678-.183zM42.934 29.098q0-.829.313-1.324.315-.498.823-.498.509 0 .821.5.315.498.315 1.322 0 .818-.312 1.321-.313.501-.824.501-.508 0-.823-.498-.313-.5-.313-1.324zm.44 0q0 1.099.182 1.398.186.297.514.297.387 0 .54-.355.154-.358.154-1.34 0-1.102-.185-1.398-.183-.297-.509-.297t-.51.297q-.186.294-.186 1.398z" style="font-size:5.42396px;font-family:Baskerville;-inkscape-font-specification:Baskerville;fill:#000;stroke:none;stroke-width:.264583" transform="translate(-67.643 62.58)"/><path d="M82.128 27.276h.117v2.812q0 .347.007.437.011.09.077.138.066.048.236.048h.103v.122h-1.192v-.122h.088q.19 0 .246-.053.058-.056.066-.13.01-.077.01-.44v-1.885q0-.358-.007-.432-.008-.077-.069-.132-.058-.059-.246-.059h-.114v-.121q.458-.008.678-.183zM84.84 27.276h.116v2.812q0 .347.008.437.011.09.077.138.066.048.236.048h.103v.122h-1.192v-.122h.088q.19 0 .246-.053.058-.056.066-.13.01-.077.01-.44v-1.885q0-.358-.007-.432-.008-.077-.069-.132-.058-.059-.246-.059h-.114v-.121q.458-.008.678-.183z" style="font-size:5.42396px;font-family:Baskerville;-inkscape-font-specification:Baskerville;fill:#000;stroke:none;stroke-width:.264583" transform="translate(-101.229 62.58)"/><path d="M60.59 30.833v-.165q.303-.235.763-.744.464-.51.668-.882.204-.37.204-.75 0-.452-.207-.664-.206-.214-.514-.214-.302 0-.468.196-.165.195-.165.418 0 .254.215.403.08.055.08.084 0 .048-.09.13t-.149.082q-.08 0-.193-.159-.112-.161-.112-.413 0-.405.316-.64.315-.24.69-.24.398 0 .716.247.32.246.32.731 0 .305-.143.58-.143.273-.696.837-.551.561-.887.845h1.684l-.151.593h-.124q0-.048.015-.095.008-.027.008-.072 0-.08-.034-.095-.035-.013-.185-.013zM63.22 29.098q0-.829.313-1.324.315-.498.824-.498.508 0 .82.5.316.498.316 1.322 0 .818-.313 1.321-.312.501-.823.501-.509 0-.824-.498-.312-.5-.312-1.324zm.44 0q0 1.099.183 1.398.185.297.514.297.386 0 .54-.355.154-.358.154-1.34 0-1.102-.186-1.398-.183-.297-.508-.297-.326 0-.511.297-.186.294-.186 1.398z" style="font-size:5.42396px;font-family:Baskerville;-inkscape-font-specification:Baskerville;fill:#000;stroke:none;stroke-width:.264583" transform="translate(-17.147 62.58)"/><path d="M4.181 135.133h160.707M11.095 131.968v6.33M12.095 133.187v3.892M13.095 133.187v3.892M14.095 133.187v3.892M15.095 133.187v3.892M16.095 133.187v3.892M17.095 133.187v3.892M18.095 133.187v3.892M19.095 133.187v3.892M20.095 133.187v3.892M21.095 131.968v6.33M22.095 133.187v3.892M23.095 133.187v3.892M24.095 133.187v3.892M25.095 133.187v3.892M26.095 133.187v3.892M27.095 133.187v3.892M28.095 133.187v3.892M29.095 133.187v3.892M30.095 133.187v3.892M31.095 131.968v6.33M32.095 133.187v3.892M33.095 133.187v3.892M34.095 133.187v3.892M35.095 133.187v3.892M36.095 133.187v3.892M37.095 133.187v3.892M38.095 133.187v3.892M39.095 133.187v3.892M40.095 133.187v3.892M41.095 131.968v6.33M42.095 133.187v3.892M43.095 133.187v3.892M44.095 133.187v3.892M45.095 133.187v3.892M46.095 133.187v3.892M47.095 133.187v3.892M48.095 133.187v3.892M49.095 133.187v3.892M50.095 133.187v3.892M51.095 131.968v6.33M52.095 133.187v3.892M53.095 133.187v3.892M54.095 133.187v3.892M55.095 133.187v3.892M56.095 133.187v3.892M57.095 133.187v3.892M58.095 133.187v3.892M59.095 133.187v3.892M60.095 133.187v3.892M61.095 131.968v6.33M62.095 133.187v3.892M63.095 133.187v3.892M64.095 133.187v3.892M65.095 133.187v3.892M66.095 133.187v3.892M67.095 133.187v3.892M68.095 133.187v3.892M69.095 133.187v3.892M70.095 133.187v3.892M71.095 131.968v6.33M72.095 133.187v3.892M73.095 133.187v3.892M74.095 133.187v3.892M75.095 133.187v3.892M76.095 133.187v3.892M77.095 133.187v3.892M78.095 133.187v3.892M79.095 133.187v3.892M80.095 133.187v3.892M81.095 131.968v6.33M82.095 133.187v3.892M83.095 133.187v3.892M84.095 133.187v3.892M85.095 133.187v3.892M86.095 133.187v3.892M87.095 133.187v3.892M88.095 133.187v3.892M89.095 133.187v3.892M90.095 133.187v3.892M91.095 131.968v6.33M92.095 133.187v3.892M93.095 133.187v3.892M94.095 133.187v3.892M95.095 133.187v3.892M96.095 133.187v3.892M97.095 133.187v3.892M98.095 133.187v3.892M99.095 133.187v3.892M100.095 133.187v3.892M101.095 131.968v6.33M102.095 133.187v3.892M103.095 133.187v3.892M104.095 133.187v3.892M105.095 133.187v3.892M106.095 133.187v3.892M107.095 133.187v3.892M108.095 133.187v3.892M109.095 133.187v3.892M110.095 133.187v3.892M111.095 131.968v6.33M112.095 133.187v3.892M113.095 133.187v3.892M114.095 133.187v3.892M115.095 133.187v3.892M116.095 133.187v3.892M117.095 133.187v3.892M118.095 133.187v3.892M119.095 133.187v3.892M120.095 133.187v3.892M5.095 133.187v3.892M6.095 133.187v3.892M7.095 133.187v3.892M8.095 133.187v3.892M9.095 133.187v3.892M10.095 133.187v3.892" style="fill:#e5f6ff;stroke:#000;stroke-width:.264583"/><g stroke="none" style="stroke:#000;stroke-width:0;stroke-dasharray:none;stroke-opacity:1"><path d="M101.112 27.276h.116v2.812q0 .347.008.437.011.09.077.138.066.048.236.048h.103v.122h-1.192v-.122h.088q.19 0 .246-.053.058-.056.066-.13.01-.077.01-.44v-1.885q0-.358-.007-.432-.008-.077-.069-.132-.058-.059-.246-.059h-.114v-.121q.458-.008.678-.183zM103.082 29.01h-.137l.079-1.647h1.374q-.113.268-.166.31-.05.042-.178.042h-.93l-.042 1.097q.268-.342.657-.342.413 0 .704.331.294.331.294.821 0 .564-.33.933-.329.365-.922.365-.413 0-.644-.19-.23-.194-.23-.35 0-.07.045-.12.047-.05.127-.05.087 0 .132.053.045.05.106.212.12.328.474.328.34 0 .57-.272.233-.273.233-.888 0-.553-.19-.786-.192-.233-.451-.233-.366 0-.575.387z" style="font-size:5.42396px;font-family:Baskerville;-inkscape-font-specification:Baskerville;fill:#000;stroke:#000;stroke-width:0;stroke-dasharray:none;stroke-opacity:1" transform="translate(-17.147 93.582)"/></g><path d="M10.466 122.505h-.138l.08-1.647h1.374q-.114.268-.167.31-.05.042-.177.042h-.93l-.042 1.097q.267-.342.656-.342.414 0 .705.331.294.331.294.821 0 .564-.331.933-.329.365-.922.365-.413 0-.643-.19-.23-.194-.23-.35 0-.07.044-.12.048-.05.127-.05.088 0 .133.053.045.05.106.212.119.329.474.329.339 0 .57-.273.232-.273.232-.887 0-.554-.19-.787-.191-.233-.45-.233-.366 0-.575.387z" style="font-size:5.42396px;font-family:Baskerville;-inkscape-font-specification:Baskerville;fill:#000;stroke:#000;stroke-width:0;stroke-dasharray:none;stroke-opacity:1"/><g stroke="none" style="stroke:#000;stroke-width:0;stroke-dasharray:none;stroke-opacity:1"><path d="M41.448 27.276h.117v2.812q0 .347.008.437.01.09.077.138.066.048.235.048h.104v.122h-1.192v-.122h.087q.19 0 .246-.053.059-.056.067-.13.01-.077.01-.44v-1.885q0-.358-.008-.432-.008-.077-.069-.132-.058-.059-.246-.059h-.114v-.121q.458-.008.678-.183zM42.934 29.098q0-.829.313-1.324.315-.498.823-.498.509 0 .821.5.315.498.315 1.322 0 .818-.312 1.321-.313.501-.824.501-.508 0-.823-.498-.313-.5-.313-1.324zm.44 0q0 1.099.182 1.398.186.297.514.297.387 0 .54-.355.154-.358.154-1.34 0-1.102-.185-1.398-.183-.297-.509-.297t-.51.297q-.186.294-.186 1.398z" style="font-size:5.42396px;font-family:Baskerville;-inkscape-font-specification:Baskerville;fill:#000;stroke:#000;stroke-width:0;stroke-dasharray:none;stroke-opacity:1" transform="translate(5.191 93.582)"/></g><g stroke="none" style="stroke:#000;stroke-width:0;stroke-dasharray:none;stroke-opacity:1"><path d="M60.59 30.833v-.165q.303-.235.763-.744.464-.51.668-.882.204-.37.204-.75 0-.452-.207-.664-.206-.214-.514-.214-.302 0-.468.196-.165.195-.165.418 0 .254.215.403.08.055.08.084 0 .048-.09.13t-.149.082q-.08 0-.193-.159-.112-.161-.112-.413 0-.405.316-.64.315-.24.69-.24.398 0 .716.247.32.246.32.731 0 .305-.143.58-.143.273-.696.837-.551.561-.887.845h1.684l-.151.593h-.124q0-.048.015-.095.008-.027.008-.072 0-.08-.034-.095-.035-.013-.185-.013zM63.22 29.098q0-.829.313-1.324.315-.498.824-.498.508 0 .82.5.316.498.316 1.322 0 .818-.313 1.321-.312.501-.823.501-.509 0-.824-.498-.312-.5-.312-1.324zm.44 0q0 1.099.183 1.398.185.297.514.297.386 0 .54-.355.154-.358.154-1.34 0-1.102-.186-1.398-.183-.297-.508-.297-.326 0-.511.297-.186.294-.186 1.398z" style="font-size:5.42396px;font-family:Baskerville;-inkscape-font-specification:Baskerville;fill:#000;stroke:#000;stroke-width:0;stroke-dasharray:none;stroke-opacity:1" transform="translate(58.991 93.604)"/></g><path d="M13.1-54.262v-.081c-.407 0-.515-.098-.515-.331v-3.238l-.05-.016-.97.493v.076l.146-.054a.82.82 0 0 1 .244-.065c.114 0 .163.081.163.266v2.435c0 .298-.114.412-.515.434v.081zM17.602-55.005l-.076-.032c-.18.303-.293.363-.52.363h-1.27l.895-.955c.483-.51.694-.916.694-1.345 0-.537-.39-.954-1.003-.954-.667 0-1.015.444-1.128 1.079l.113.027c.217-.532.407-.705.798-.705.46 0 .754.271.754.765 0 .46-.196.873-.705 1.41l-.966 1.025v.065h2.12zM19.43-57.028c.222-.401.472-.575.808-.575.358 0 .586.184.586.553 0 .331-.174.575-.44.727-.108.065-.25.125-.455.195v.076c.309 0 .434.017.553.054.374.109.564.375.564.787 0 .461-.304.83-.705.83-.152 0-.266-.027-.467-.168-.151-.109-.238-.141-.33-.141-.125 0-.223.081-.223.195 0 .195.212.31.608.31.482 0 .998-.158 1.258-.505a1.25 1.25 0 0 0 .25-.76c0-.282-.087-.531-.24-.7-.113-.119-.21-.184-.45-.287.364-.217.505-.488.505-.748 0-.445-.342-.743-.846-.743-.564 0-.906.363-1.063.878zM25.732-55.168v-.347h-.558v-2.413h-.239l-1.703 2.413v.347h1.519v.906h.423v-.906zm-.981-.347h-1.302l1.302-1.86zM29.61-57.956l-.048-.038c-.087.114-.136.141-.26.141h-1.124l-.59 1.286s-.006.016-.006.027c0 .033.016.043.065.043.52 0 .9.174 1.155.38.244.195.364.467.364.814 0 .466-.353.916-.733.916-.108 0-.233-.048-.385-.173-.173-.141-.276-.168-.401-.168-.152 0-.244.07-.244.206 0 .206.282.336.689.336.369 0 .667-.081.922-.266.369-.27.531-.607.531-1.128 0-.287-.048-.493-.19-.689-.309-.428-.58-.548-1.356-.694l.217-.461h1.053c.086 0 .13-.033.146-.07zM33.722-57.972c-.749.082-1.177.212-1.644.7a2.098 2.098 0 0 0-.59 1.497c0 .38.102.765.254 1.041.19.347.532.548.96.548.358 0 .662-.146.862-.396.18-.217.277-.52.277-.868 0-.7-.39-1.133-1.025-1.133-.239 0-.423.038-.689.244.147-.82.754-1.405 1.606-1.546zm-.37 2.69c0 .554-.2.944-.59.944-.51 0-.77-.542-.77-1.367 0-.499.32-.629.629-.629.504 0 .732.358.732 1.052zM37.806-57.766v-.087h-2.001l-.326.798.098.049c.228-.37.32-.445.634-.445h1.166l-1.073 3.233h.352zM41.852-55.103c0-.433-.173-.726-.84-1.171.536-.288.726-.472.726-.879 0-.423-.374-.775-.91-.775-.603 0-1.053.325-1.053.846 0 .352.114.558.672 1.02-.58.406-.705.618-.705.992 0 .51.429.884 1.042.884.65 0 1.068-.358 1.068-.917zm-.488-2.05c0 .336-.141.564-.51.781-.477-.282-.678-.531-.678-.868 0-.336.233-.537.597-.537.369 0 .591.25.591.624zm-.456 1.416c.37.25.532.466.532.803a.57.57 0 0 1-.597.596c-.412 0-.688-.282-.688-.78 0-.353.113-.576.433-.836zM43.827-54.143c.705-.097 1.057-.227 1.518-.645.434-.396.651-.987.651-1.61 0-.457-.13-.847-.347-1.118a1.072 1.072 0 0 0-.852-.412c-.645 0-1.128.547-1.128 1.28 0 .661.39 1.1.977 1.1.32 0 .58-.08.813-.309-.217.89-.824 1.46-1.649 1.606zm1.643-2.044c0 .287-.396.406-.635.406-.406 0-.667-.406-.667-1.052 0-.293.082-.613.19-.76a.487.487 0 0 1 .396-.184c.472 0 .716.467.716 1.378z" style="font-size:5.42396px;font-family:STIXGeneral;-inkscape-font-specification:STIXGeneral;stroke:#000;stroke-width:0"/><path d="M49.711-23.754v-.081c-.406 0-.515-.098-.515-.33v-3.239l-.049-.016-.97.493v.076l.146-.054a.82.82 0 0 1 .244-.065c.114 0 .163.081.163.266v2.435c0 .298-.114.412-.516.434v.081zM52.868-25.544c0-1.112-.493-1.876-1.204-1.876-.873 0-1.247.884-1.247 1.844 0 .89.298 1.898 1.225 1.898.885 0 1.226-.933 1.226-1.866zm-.52.028c0 1.073-.245 1.697-.706 1.697-.466 0-.705-.618-.705-1.72 0-1.1.244-1.74.695-1.74.477 0 .716.634.716 1.763zM56.491-23.754v-.081c-.406 0-.515-.098-.515-.33v-3.239l-.049-.016-.97.493v.076l.146-.054a.82.82 0 0 1 .244-.065c.114 0 .163.081.163.266v2.435c0 .298-.114.412-.516.434v.081zM59.203-23.754v-.081c-.406 0-.515-.098-.515-.33v-3.239l-.049-.016-.97.493v.076l.146-.054a.82.82 0 0 1 .244-.065c.114 0 .163.081.163.266v2.435c0 .298-.114.412-.516.434v.081zM63.271-23.754v-.081c-.406 0-.515-.098-.515-.33v-3.239l-.049-.016-.97.493v.076l.146-.054a.82.82 0 0 1 .244-.065c.114 0 .163.081.163.266v2.435c0 .298-.114.412-.516.434v.081zM66.417-24.497l-.076-.032c-.179.303-.293.363-.52.363h-1.27l.895-.955c.483-.51.695-.916.695-1.345 0-.537-.39-.954-1.004-.954-.667 0-1.014.444-1.128 1.08l.114.026c.217-.531.407-.705.797-.705.461 0 .754.271.754.765 0 .46-.195.873-.705 1.41l-.965 1.025v.065h2.12zM70.051-23.754v-.081c-.407 0-.515-.098-.515-.33v-3.239l-.049-.016-.97.493v.076l.146-.054a.82.82 0 0 1 .244-.065c.114 0 .163.081.163.266v2.435c0 .298-.114.412-.516.434v.081zM70.957-26.52c.222-.401.472-.575.808-.575.358 0 .586.185.586.553 0 .331-.174.575-.44.727-.108.065-.249.125-.455.195v.076c.31 0 .434.017.553.055.375.108.564.374.564.786 0 .461-.303.83-.705.83-.152 0-.266-.027-.466-.168-.152-.109-.239-.141-.331-.141-.125 0-.222.081-.222.195 0 .195.211.31.607.31.483 0 .998-.158 1.258-.505a1.25 1.25 0 0 0 .25-.76c0-.282-.087-.531-.239-.7-.114-.119-.211-.184-.45-.287.363-.217.504-.488.504-.748 0-.445-.341-.743-.846-.743-.564 0-.905.363-1.063.878zM76.831-23.754v-.081c-.407 0-.515-.098-.515-.33v-3.239l-.049-.016-.97.493v.076l.146-.054a.82.82 0 0 1 .244-.065c.114 0 .162.081.162.266v2.435c0 .298-.113.412-.515.434v.081zM79.972-24.66v-.347h-.559v-2.413h-.239l-1.703 2.413v.347h1.519v.906h.423v-.906zm-.982-.347h-1.302l1.302-1.86zM83.611-23.754v-.081c-.407 0-.515-.098-.515-.33v-3.239l-.049-.016-.97.493v.076l.146-.054a.82.82 0 0 1 .244-.065c.114 0 .162.081.162.266v2.435c0 .298-.114.412-.515.434v.081zM86.562-27.447l-.05-.038c-.086.114-.135.14-.26.14H85.13l-.591 1.286s-.006.016-.006.027c0 .033.016.044.065.044.521 0 .9.173 1.156.38.244.195.363.466.363.813 0 .466-.353.917-.732.917-.109 0-.234-.05-.385-.174-.174-.141-.277-.168-.402-.168-.152 0-.244.07-.244.206 0 .206.282.336.689.336.369 0 .667-.081.922-.266.369-.27.532-.607.532-1.128 0-.287-.05-.493-.19-.689-.31-.428-.58-.547-1.356-.694l.217-.46h1.052c.087 0 .13-.033.146-.071zM90.391-23.754v-.081c-.407 0-.515-.098-.515-.33v-3.239l-.05-.016-.97.493v.076l.146-.054a.82.82 0 0 1 .245-.065c.113 0 .162.081.162.266v2.435c0 .298-.114.412-.515.434v.081zM93.385-27.464c-.748.082-1.177.212-1.643.7a2.098 2.098 0 0 0-.592 1.497c0 .38.103.765.255 1.041.19.348.532.548.96.548.358 0 .662-.146.863-.396.179-.217.276-.52.276-.868 0-.7-.39-1.133-1.025-1.133-.238 0-.423.038-.689.244.147-.82.754-1.405 1.606-1.546zm-.369 2.69c0 .554-.2.944-.591.944-.51 0-.77-.542-.77-1.366 0-.5.32-.63.629-.63.504 0 .732.358.732 1.053zM97.17-23.754v-.081c-.406 0-.514-.098-.514-.33v-3.239l-.05-.016-.97.493v.076l.146-.054a.82.82 0 0 1 .244-.065c.114 0 .163.081.163.266v2.435c0 .298-.114.412-.515.434v.081zM100.181-27.258v-.086H98.18l-.326.797.098.049c.228-.37.32-.445.635-.445h1.166l-1.074 3.233h.352zM103.95-23.754v-.081c-.406 0-.514-.098-.514-.33v-3.239l-.05-.016-.97.493v.076l.146-.054a.819.819 0 0 1 .244-.065c.114 0 .163.081.163.266v2.435c0 .298-.114.412-.515.434v.081zM106.94-24.594c0-.434-.174-.727-.841-1.172.537-.287.727-.472.727-.879 0-.423-.375-.775-.912-.775-.602 0-1.052.325-1.052.846 0 .352.114.559.673 1.02-.58.406-.705.618-.705.992 0 .51.428.884 1.04.884.652 0 1.07-.358 1.07-.916zm-.489-2.05c0 .336-.14.563-.51.78-.477-.282-.678-.531-.678-.867 0-.337.234-.537.597-.537.369 0 .591.25.591.623zm-.455 1.415c.368.25.531.466.531.803a.57.57 0 0 1-.596.596c-.413 0-.69-.282-.69-.78 0-.353.115-.576.435-.836zM110.73-23.754v-.081c-.406 0-.515-.098-.515-.33v-3.239l-.048-.016-.971.493v.076l.146-.054a.819.819 0 0 1 .244-.065c.114 0 .163.081.163.266v2.435c0 .298-.114.412-.515.434v.081zM111.626-23.634c.705-.098 1.057-.228 1.518-.646.434-.396.651-.987.651-1.61 0-.456-.13-.847-.347-1.118a1.072 1.072 0 0 0-.851-.412c-.646 0-1.129.548-1.129 1.28 0 .661.39 1.1.977 1.1.32 0 .58-.08.813-.308-.217.89-.824 1.459-1.649 1.605zm1.643-2.045c0 .287-.396.407-.634.407-.407 0-.668-.407-.668-1.053 0-.293.082-.613.19-.759a.487.487 0 0 1 .396-.184c.472 0 .716.466.716 1.377zM117.945-24.497l-.076-.032c-.18.303-.293.363-.521.363h-1.27l.896-.955c.482-.51.694-.916.694-1.345 0-.537-.39-.954-1.003-.954-.668 0-1.015.444-1.129 1.08l.114.026c.217-.531.407-.705.798-.705.46 0 .754.271.754.765 0 .46-.196.873-.706 1.41l-.965 1.025v.065h2.12zM120.667-25.544c0-1.112-.493-1.876-1.204-1.876-.873 0-1.247.884-1.247 1.844 0 .89.298 1.898 1.226 1.898.884 0 1.225-.933 1.225-1.866zm-.52.028c0 1.073-.244 1.697-.705 1.697-.467 0-.706-.618-.706-1.72 0-1.1.245-1.74.695-1.74.477 0 .716.634.716 1.763z" style="font-size:5.42396px;font-family:STIXGeneral;-inkscape-font-specification:STIXGeneral;stroke:#000;stroke-width:0" transform="translate(0 -30.508)"/><path d="M124.735-56.052c0-1.112-.493-1.876-1.204-1.876-.873 0-1.247.884-1.247 1.844 0 .89.298 1.898 1.226 1.898.884 0 1.225-.933 1.225-1.866zm-.52.027c0 1.074-.244 1.698-.705 1.698-.467 0-.706-.618-.706-1.72 0-1.1.245-1.74.695-1.74.477 0 .716.634.716 1.762zM19.775 15.843l-.04-.03c-.069.09-.108.112-.208.112h-.898l-.473 1.029s-.004.013-.004.021c0 .026.013.035.052.035.417 0 .72.139.924.304.196.156.291.373.291.65 0 .374-.282.734-.586.734-.087 0-.186-.04-.308-.139-.139-.113-.221-.135-.321-.135-.121 0-.195.057-.195.165 0 .165.225.27.55.27.296 0 .535-.066.739-.213.295-.217.425-.486.425-.903 0-.23-.04-.395-.152-.55-.247-.344-.464-.44-1.085-.556l.174-.37h.841c.07 0 .105-.025.118-.055z" style="font-size:5.42396px;font-family:STIXGeneral;-inkscape-font-specification:STIXGeneral;stroke:#000;stroke-width:0"/><g style="stroke-width:1.25"><path d="M49.711-23.754v-.081c-.406 0-.515-.098-.515-.33v-3.239l-.049-.016-.97.493v.076l.146-.054a.82.82 0 0 1 .244-.065c.114 0 .163.081.163.266v2.435c0 .298-.114.412-.516.434v.081zM52.868-25.544c0-1.112-.493-1.876-1.204-1.876-.873 0-1.247.884-1.247 1.844 0 .89.298 1.898 1.225 1.898.885 0 1.226-.933 1.226-1.866zm-.52.028c0 1.073-.245 1.697-.706 1.697-.466 0-.705-.618-.705-1.72 0-1.1.244-1.74.695-1.74.477 0 .716.634.716 1.763z" style="font-size:5.42396px;font-family:STIXGeneral;-inkscape-font-specification:STIXGeneral;stroke:#000;stroke-width:0" transform="matrix(.8 0 0 .8 10.543 37.8)"/></g><g style="stroke-width:1.25"><path d="M83.611-23.754v-.081c-.407 0-.515-.098-.515-.33v-3.239l-.049-.016-.97.493v.076l.146-.054a.82.82 0 0 1 .244-.065c.114 0 .162.081.162.266v2.435c0 .298-.114.412-.515.434v.081zM86.562-27.447l-.05-.038c-.086.114-.135.14-.26.14H85.13l-.591 1.286s-.006.016-.006.027c0 .033.016.044.065.044.521 0 .9.173 1.156.38.244.195.363.466.363.813 0 .466-.353.917-.732.917-.109 0-.234-.05-.385-.174-.174-.141-.277-.168-.402-.168-.152 0-.244.07-.244.206 0 .206.282.336.689.336.369 0 .667-.081.922-.266.369-.27.532-.607.532-1.128 0-.287-.05-.493-.19-.689-.31-.428-.58-.547-1.356-.694l.217-.46h1.052c.087 0 .13-.033.146-.071z" style="font-size:5.42396px;font-family:STIXGeneral;-inkscape-font-specification:STIXGeneral;stroke:#000;stroke-width:0" transform="matrix(.8 0 0 .8 15.518 37.8)"/></g><g style="stroke-width:1.25"><path d="m117.945-24.497-.076-.032c-.18.303-.293.363-.521.363h-1.27l.896-.955c.482-.51.694-.916.694-1.345 0-.537-.39-.954-1.003-.954-.668 0-1.015.444-1.129 1.08l.114.026c.217-.531.407-.705.798-.705.46 0 .754.271.754.765 0 .46-.196.873-.706 1.41l-.965 1.025v.065h2.12zM120.667-25.544c0-1.112-.493-1.876-1.204-1.876-.873 0-1.247.884-1.247 1.844 0 .89.298 1.898 1.226 1.898.884 0 1.225-.933 1.225-1.866zm-.52.028c0 1.073-.244 1.697-.705 1.697-.467 0-.706-.618-.706-1.72 0-1.1.245-1.74.695-1.74.477 0 .716.634.716 1.763z" style="font-size:5.42396px;font-family:STIXGeneral;-inkscape-font-specification:STIXGeneral;stroke:#000;stroke-width:0" transform="matrix(.8 0 0 .8 20.7 37.8)"/></g><path d="M7.586 11.619H125.09" style="fill:#000;stroke:#000;stroke-width:.264583;stroke-dasharray:none;stroke-opacity:1"/><path d="M12.294 9.06v5.117M18.71 9.06v5.117M25.126 9.06v5.117M31.542 9.06v5.117M37.958 9.06v5.117M44.374 9.06v5.117M50.79 9.06v5.117M57.206 9.06v5.117M63.622 9.06v5.117M70.037 9.06v5.117M76.453 9.06v5.117M82.87 9.06v5.117M89.285 9.06v5.117M95.701 9.06v5.117M102.117 9.06v5.117M108.533 9.06v5.117M114.949 9.06v5.117M121.365 9.06v5.117M4.181 146.109h124.046M11.095 142.993v6.33M18.495 142.993v6.33M25.894 142.993v6.33M33.293 142.993v6.33M40.693 142.993v6.33M48.092 142.993v6.33M55.492 142.993v6.33M62.89 142.993v6.33M70.29 142.993v6.33M77.69 142.993v6.33M85.09 142.993v6.33M92.488 142.993v6.33M99.888 142.993v6.33M107.287 142.993v6.33M114.687 142.993v6.33M122.086 142.993v6.33" style="fill:#e5f6ff;stroke:#000;stroke-width:.264583"/><path d="m12.103 152.38-.049-.039c-.086.114-.135.141-.26.141h-1.123l-.59 1.286s-.006.016-.006.027c0 .032.016.043.065.043.52 0 .9.174 1.155.38.244.195.364.466.364.813 0 .467-.353.917-.733.917-.108 0-.233-.049-.385-.173-.173-.141-.276-.169-.401-.169-.152 0-.244.07-.244.207 0 .206.282.336.689.336.368 0 .667-.082.922-.266.368-.271.531-.607.531-1.128 0-.288-.049-.494-.19-.689-.309-.428-.58-.548-1.356-.694l.217-.461h1.053c.086 0 .13-.033.146-.07z" style="font-size:5.42396px;font-family:STIXGeneral;-inkscape-font-specification:STIXGeneral;stroke:#000;stroke-width:0"/><path d="M49.711-23.754v-.081c-.406 0-.515-.098-.515-.33v-3.239l-.049-.016-.97.493v.076l.146-.054a.82.82 0 0 1 .244-.065c.114 0 .163.081.163.266v2.435c0 .298-.114.412-.516.434v.081zM52.868-25.544c0-1.112-.493-1.876-1.204-1.876-.873 0-1.247.884-1.247 1.844 0 .89.298 1.898 1.225 1.898.885 0 1.226-.933 1.226-1.866zm-.52.028c0 1.073-.245 1.697-.706 1.697-.466 0-.705-.618-.705-1.72 0-1.1.244-1.74.695-1.74.477 0 .716.634.716 1.763z" style="font-size:5.42396px;font-family:STIXGeneral;-inkscape-font-specification:STIXGeneral;stroke:#000;stroke-width:0" transform="translate(-2.253 179.827)"/><path d="M83.611-23.754v-.081c-.407 0-.515-.098-.515-.33v-3.239l-.049-.016-.97.493v.076l.146-.054a.82.82 0 0 1 .244-.065c.114 0 .162.081.162.266v2.435c0 .298-.114.412-.515.434v.081zM86.562-27.447l-.05-.038c-.086.114-.135.14-.26.14H85.13l-.591 1.286s-.006.016-.006.027c0 .033.016.044.065.044.521 0 .9.173 1.156.38.244.195.363.466.363.813 0 .466-.353.917-.732.917-.109 0-.234-.05-.385-.174-.174-.141-.277-.168-.402-.168-.152 0-.244.07-.244.206 0 .206.282.336.689.336.369 0 .667-.081.922-.266.369-.27.532-.607.532-1.128 0-.287-.05-.493-.19-.689-.31-.428-.58-.547-1.356-.694l.217-.46h1.052c.087 0 .13-.033.146-.071z" style="font-size:5.42396px;font-family:STIXGeneral;-inkscape-font-specification:STIXGeneral;stroke:#000;stroke-width:0" transform="translate(1.04 179.827)"/><path d="m117.945-24.497-.076-.032c-.18.303-.293.363-.521.363h-1.27l.896-.955c.482-.51.694-.916.694-1.345 0-.537-.39-.954-1.003-.954-.668 0-1.015.444-1.129 1.08l.114.026c.217-.531.407-.705.798-.705.46 0 .754.271.754.765 0 .46-.196.873-.706 1.41l-.965 1.025v.065h2.12zM120.667-25.544c0-1.112-.493-1.876-1.204-1.876-.873 0-1.247.884-1.247 1.844 0 .89.298 1.898 1.226 1.898.884 0 1.225-.933 1.225-1.866zm-.52.028c0 1.073-.244 1.697-.705 1.697-.467 0-.706-.618-.706-1.72 0-1.1.245-1.74.695-1.74.477 0 .716.634.716 1.763z" style="font-size:5.42396px;font-family:STIXGeneral;-inkscape-font-specification:STIXGeneral;stroke:#000;stroke-width:0" transform="translate(4.16 179.827)"/><path d="M-.569-2.73v-1.223h2.903v-.529l1.08 1.134-1.08 1.1v-.482z" style="fill:#b1ffe8;fill-opacity:1;stroke:#000;stroke-width:.079375;stroke-miterlimit:4;stroke-dasharray:none"/><g aria-label="START" style="font-size:7.9375px;line-height:1.25;font-family:sans-serif;stroke-width:.834253;stroke-miterlimit:4;stroke-dasharray:none"><path d="M10.926 28.908v-.667h2.881l.429-.437v-1.167l-.429-.436h-2.262l-.826-.826v-1.484l.826-.833h3.111v.666H11.87l-.436.437.008.968.428.437h2.262l.826.833v1.675l-.826.834zM17.123 28.908v-5.184h-1.739v-.666h4.2v.666h-1.739v5.184zM19.19 28.908l1.977-5.85h1.12l1.976 5.85h-.754l-.5-1.524h-2.564l-.492 1.524zm1.469-2.16h2.143l-.984-3.008h-.183zM25.072 28.908v-5.85h3.199l.825.833v1.865l-.825.834h-.024l1.056 2.318H28.5l-1.04-2.318h-1.667v2.318zm.722-2.961h2.151l.429-.437v-1.373l-.429-.436h-2.15zM31.432 28.908v-5.184h-1.738v-.666h4.199v.666h-1.739v5.184z" style="font-style:normal;font-variant:normal;font-weight:400;font-stretch:normal;font-family:Tomorrow;-inkscape-font-specification:Tomorrow;stroke-width:.834253;stroke-miterlimit:4;stroke-dasharray:none" transform="matrix(.1301 0 0 .1237 -1.714 -9.705)"/></g><path d="M94.553 63.08v-4.624h-7.53v-1.998l-3.917 4.287 3.917 4.156V63.08z" style="fill:#ffc3cc;fill-opacity:1;stroke:#000;stroke-width:.3;stroke-miterlimit:4;stroke-dasharray:none" transform="matrix(.26458 0 0 .26458 -12.63 -19.532)"/><g aria-label="END" style="font-size:7.9375px;line-height:1.25;font-family:sans-serif;stroke-width:.836237;stroke-miterlimit:4;stroke-dasharray:none"><path d="M20.728 51.554v-5.85h3.857v.666H21.45v1.778h2.802v.66H21.45v2.079h3.135v.667zM25.689 51.554v-5.85h.984l2.611 4.707v-4.707h.723v5.85h-.858l-2.564-4.62h-.174v4.62zM31.394 51.554v-5.85h3.175l1.214 1.23v3.39l-1.214 1.23zm.722-.643h2.127l.818-.834V47.18l-.818-.833h-2.127z" style="font-style:normal;font-variant:normal;font-weight:400;font-stretch:normal;font-family:Tomorrow;-inkscape-font-specification:Tomorrow;stroke-width:.836237;stroke-miterlimit:4;stroke-dasharray:none" transform="matrix(.12949 0 0 .1237 7.46 -9.462)"/></g><path d="M111.095 131.968v6.33M112.095 133.187v3.892M113.095 133.187v3.892M114.095 133.187v3.892M115.095 133.187v3.892M116.095 133.187v3.892M117.095 133.187v3.892M118.095 133.187v3.892M119.095 133.187v3.892M120.095 133.187v3.892" style="fill:#e5f6ff;stroke:#000;stroke-width:.264583"/><path d="M-6.374 112.096H114.36" style="fill:#000;stroke:#000;stroke-width:.264583;stroke-dasharray:none;stroke-opacity:1"/><path d="M-2.425 108.931v6.33M-1.896 110.402v3.388M-1.367 110.402v3.388M-.838 110.402v3.388M-.309 110.402v3.388M.22 110.402v3.388M.75 110.402v3.388M1.279 110.402v3.388M1.808 110.402v3.388M2.337 110.402v3.388M2.866 110.402v3.388M121.095 131.968v6.33M122.095 133.187v3.892M123.095 133.187v3.892M124.095 133.187v3.892M125.095 133.187v3.892M126.095 133.187v3.892M127.095 133.187v3.892M128.095 133.187v3.892M129.095 133.187v3.892M130.095 133.187v3.892M121.095 131.968v6.33M122.095 133.187v3.892M123.095 133.187v3.892M124.095 133.187v3.892M125.095 133.187v3.892M126.095 133.187v3.892M127.095 133.187v3.892M128.095 133.187v3.892M129.095 133.187v3.892M130.095 133.187v3.892M130.095 133.187v3.892M131.095 131.968v6.33M132.095 133.187v3.892M133.095 133.187v3.892M134.095 133.187v3.892M135.095 133.187v3.892M136.095 133.187v3.892M137.095 133.187v3.892M138.095 133.187v3.892M139.095 133.187v3.892M140.095 133.187v3.892M131.095 131.968v6.33M132.095 133.187v3.892M133.095 133.187v3.892M134.095 133.187v3.892M135.095 133.187v3.892M136.095 133.187v3.892M137.095 133.187v3.892M138.095 133.187v3.892M139.095 133.187v3.892M140.095 133.187v3.892M140.095 133.187v3.892M140.095 133.187v3.892M141.095 131.968v6.33M142.095 133.187v3.892M143.095 133.187v3.892M144.095 133.187v3.892M145.095 133.187v3.892M146.095 133.187v3.892M147.095 133.187v3.892M148.095 133.187v3.892M149.095 133.187v3.892M150.095 133.187v3.892M141.095 131.968v6.33M142.095 133.187v3.892M143.095 133.187v3.892M144.095 133.187v3.892M145.095 133.187v3.892M146.095 133.187v3.892M147.095 133.187v3.892M148.095 133.187v3.892M149.095 133.187v3.892M150.095 133.187v3.892M150.095 133.187v3.892M150.095 133.187v3.892M150.095 133.187v3.892M151.095 131.968v6.33M152.095 133.187v3.892M153.095 133.187v3.892M154.095 133.187v3.892M155.095 133.187v3.892M156.095 133.187v3.892M157.095 133.187v3.892M158.095 133.187v3.892M159.095 133.187v3.892M160.095 133.187v3.892M151.095 131.968v6.33M152.095 133.187v3.892M153.095 133.187v3.892M154.095 133.187v3.892M155.095 133.187v3.892M156.095 133.187v3.892M157.095 133.187v3.892M158.095 133.187v3.892M159.095 133.187v3.892M160.095 133.187v3.892" style="fill:#e5f6ff;stroke:#000;stroke-width:.264583"/><path d="M13.577 10.013v3.212M14.86 10.013v3.212M16.144 10.013v3.212M17.427 10.013v3.212M12.936 10.013v3.212M14.219 10.013v3.212M15.502 10.013v3.212M16.785 10.013v3.212M18.069 10.013v3.212" style="fill:#e5f6ff;stroke:#000;stroke-width:.185208;stroke-dasharray:none"/><path d="m189.972 10.975-.039-.03c-.07.09-.108.113-.208.113h-.898l-.473 1.028s-.004.013-.004.022c0 .026.013.034.052.034.416 0 .72.14.924.304.195.156.29.373.29.65 0 .374-.281.734-.585.734-.087 0-.187-.039-.308-.139-.139-.112-.221-.134-.321-.134-.122 0-.195.056-.195.165 0 .165.225.269.55.269.296 0 .534-.065.738-.213.295-.217.426-.486.426-.902 0-.23-.04-.395-.152-.551-.248-.343-.465-.439-1.085-.556l.173-.369h.842c.07 0 .104-.026.117-.056z" style="font-size:5.42396px;font-family:STIXGeneral;-inkscape-font-specification:STIXGeneral;stroke:#000;stroke-width:0"/><g style="stroke-width:1.25"><path d="M49.711-23.754v-.081c-.406 0-.515-.098-.515-.33v-3.239l-.049-.016-.97.493v.076l.146-.054a.82.82 0 0 1 .244-.065c.114 0 .163.081.163.266v2.435c0 .298-.114.412-.516.434v.081zM52.868-25.544c0-1.112-.493-1.876-1.204-1.876-.873 0-1.247.884-1.247 1.844 0 .89.298 1.898 1.225 1.898.885 0 1.226-.933 1.226-1.866zm-.52.028c0 1.073-.245 1.697-.706 1.697-.466 0-.705-.618-.705-1.72 0-1.1.244-1.74.695-1.74.477 0 .716.634.716 1.763z" style="font-size:5.42396px;font-family:STIXGeneral;-inkscape-font-specification:STIXGeneral;stroke:#000;stroke-width:0" transform="matrix(.8 0 0 .8 180.74 32.933)"/></g><g style="stroke-width:1.25"><path d="M83.611-23.754v-.081c-.407 0-.515-.098-.515-.33v-3.239l-.049-.016-.97.493v.076l.146-.054a.82.82 0 0 1 .244-.065c.114 0 .162.081.162.266v2.435c0 .298-.114.412-.515.434v.081zM86.562-27.447l-.05-.038c-.086.114-.135.14-.26.14H85.13l-.591 1.286s-.006.016-.006.027c0 .033.016.044.065.044.521 0 .9.173 1.156.38.244.195.363.466.363.813 0 .466-.353.917-.732.917-.109 0-.234-.05-.385-.174-.174-.141-.277-.168-.402-.168-.152 0-.244.07-.244.206 0 .206.282.336.689.336.369 0 .667-.081.922-.266.369-.27.532-.607.532-1.128 0-.287-.05-.493-.19-.689-.31-.428-.58-.547-1.356-.694l.217-.46h1.052c.087 0 .13-.033.146-.071z" style="font-size:5.42396px;font-family:STIXGeneral;-inkscape-font-specification:STIXGeneral;stroke:#000;stroke-width:0" transform="matrix(.8 0 0 .8 185.715 32.933)"/></g><g style="stroke-width:1.25"><path d="m117.945-24.497-.076-.032c-.18.303-.293.363-.521.363h-1.27l.896-.955c.482-.51.694-.916.694-1.345 0-.537-.39-.954-1.003-.954-.668 0-1.015.444-1.129 1.08l.114.026c.217-.531.407-.705.798-.705.46 0 .754.271.754.765 0 .46-.196.873-.706 1.41l-.965 1.025v.065h2.12zM120.667-25.544c0-1.112-.493-1.876-1.204-1.876-.873 0-1.247.884-1.247 1.844 0 .89.298 1.898 1.226 1.898.884 0 1.225-.933 1.225-1.866zm-.52.028c0 1.073-.244 1.697-.705 1.697-.467 0-.706-.618-.706-1.72 0-1.1.245-1.74.695-1.74.477 0 .716.634.716 1.763z" style="font-size:5.42396px;font-family:STIXGeneral;-inkscape-font-specification:STIXGeneral;stroke:#000;stroke-width:0" transform="matrix(.8 0 0 .8 190.898 32.933)"/></g><path d="M177.784 6.751h117.502" style="fill:#000;stroke:#000;stroke-width:.264583;stroke-dasharray:none;stroke-opacity:1"/><path d="M182.492 4.193v5.116M188.908 4.193v5.116M195.324 4.193v5.116M201.74 4.193v5.116M208.155 4.193v5.116M214.571 4.193v5.116M220.987 4.193v5.116M227.403 4.193v5.116M233.82 4.193v5.116M240.235 4.193v5.116M246.651 4.193v5.116M253.067 4.193v5.116M259.483 4.193v5.116M265.899 4.193v5.116M272.315 4.193v5.116M278.73 4.193v5.116M285.146 4.193v5.116M291.562 4.193v5.116" style="fill:#e5f6ff;stroke:#000;stroke-width:.264583"/><path d="M183.775 5.145v3.212M185.058 5.145v3.212M186.341 5.145v3.212M187.625 5.145v3.212M183.133 5.145v3.212M184.417 5.145v3.212M185.7 5.145v3.212M186.983 5.145v3.212M188.266 5.145v3.212M8.445 10.013v3.212M9.728 10.013v3.212M11.011 10.013v3.212M7.803 10.013v3.212M9.086 10.013v3.212M10.37 10.013v3.212M11.653 10.013v3.212M19.993 10.013v3.212M21.277 10.013v3.212M22.56 10.013v3.212M23.843 10.013v3.212M19.352 10.013v3.212M20.635 10.013v3.212M21.918 10.013v3.212M23.201 10.013v3.212M24.484 10.013v3.212M26.41 10.013v3.212M27.692 10.013v3.212M28.976 10.013v3.212M30.259 10.013v3.212M25.768 10.013v3.212M27.05 10.013v3.212M28.334 10.013v3.212M29.617 10.013v3.212M30.9 10.013v3.212M32.825 10.013v3.212M34.108 10.013v3.212M35.392 10.013v3.212M36.675 10.013v3.212M32.184 10.013v3.212M33.467 10.013v3.212M34.75 10.013v3.212M36.033 10.013v3.212M37.316 10.013v3.212M39.241 10.013v3.212M40.524 10.013v3.212M41.807 10.013v3.212M43.09 10.013v3.212M38.6 10.013v3.212M39.883 10.013v3.212M41.166 10.013v3.212M42.449 10.013v3.212M43.732 10.013v3.212M45.657 10.013v3.212M46.94 10.013v3.212M48.223 10.013v3.212M49.507 10.013v3.212M45.015 10.013v3.212M46.299 10.013v3.212M47.582 10.013v3.212M48.865 10.013v3.212M50.148 10.013v3.212M52.073 10.013v3.212M53.356 10.013v3.212M54.64 10.013v3.212M55.922 10.013v3.212M51.431 10.013v3.212M52.715 10.013v3.212M53.998 10.013v3.212M55.28 10.013v3.212M56.564 10.013v3.212M58.489 10.013v3.212M59.772 10.013v3.212M61.055 10.013v3.212M62.338 10.013v3.212M57.847 10.013v3.212M59.13 10.013v3.212M60.414 10.013v3.212M61.697 10.013v3.212M62.98 10.013v3.212M64.905 10.013v3.212M66.188 10.013v3.212M67.471 10.013v3.212M68.754 10.013v3.212M64.263 10.013v3.212M65.546 10.013v3.212M66.83 10.013v3.212M68.113 10.013v3.212M69.396 10.013v3.212M71.32 10.013v3.212M72.604 10.013v3.212M73.887 10.013v3.212M75.17 10.013v3.212M70.68 10.013v3.212M71.962 10.013v3.212M73.245 10.013v3.212M74.529 10.013v3.212M75.812 10.013v3.212M77.737 10.013v3.212M79.02 10.013v3.212M80.303 10.013v3.212M81.586 10.013v3.212M77.095 10.013v3.212M78.378 10.013v3.212M79.661 10.013v3.212M80.945 10.013v3.212M82.228 10.013v3.212M84.153 10.013v3.212M85.436 10.013v3.212M86.719 10.013v3.212M88.002 10.013v3.212M83.51 10.013v3.212M84.794 10.013v3.212M86.077 10.013v3.212M87.36 10.013v3.212M88.644 10.013v3.212M90.568 10.013v3.212M91.852 10.013v3.212M93.135 10.013v3.212M94.418 10.013v3.212M89.927 10.013v3.212M91.21 10.013v3.212M92.493 10.013v3.212M93.776 10.013v3.212M95.06 10.013v3.212M96.984 10.013v3.212M98.268 10.013v3.212M99.55 10.013v3.212M100.834 10.013v3.212M96.343 10.013v3.212M97.626 10.013v3.212M98.91 10.013v3.212M100.192 10.013v3.212M101.475 10.013v3.212M103.4 10.013v3.212M104.683 10.013v3.212M105.967 10.013v3.212M107.25 10.013v3.212M102.759 10.013v3.212M104.042 10.013v3.212M105.325 10.013v3.212M106.608 10.013v3.212M107.891 10.013v3.212M109.816 10.013v3.212M111.1 10.013v3.212M112.383 10.013v3.212M113.666 10.013v3.212M109.175 10.013v3.212M110.458 10.013v3.212M111.741 10.013v3.212M113.024 10.013v3.212M114.307 10.013v3.212M116.232 10.013v3.212M117.515 10.013v3.212M118.798 10.013v3.212M120.082 10.013v3.212M115.59 10.013v3.212M116.874 10.013v3.212M118.157 10.013v3.212M119.44 10.013v3.212M120.723 10.013v3.212M122.648 10.013v3.212M123.931 10.013v3.212M122.006 10.013v3.212M123.29 10.013v3.212M124.573 10.013v3.212" style="fill:#e5f6ff;stroke:#000;stroke-width:.185208;stroke-dasharray:none"/><path d="M51.561 5.312v1.11h.912L50.79 8.049l-1.644-1.627h.858v-1.11h-4.26V1.914h10.253v3.398z" style="fill:#b1ffe8;fill-opacity:1;stroke:#000;stroke-width:.264583;stroke-miterlimit:4;stroke-dasharray:none"/><g style="stroke:#000;stroke-width:.0509678;stroke-dasharray:none;stroke-opacity:1"><path d="M20.378 6.24v-.455h1.969l.293-.299V4.69l-.293-.298H20.8l-.564-.564V2.812l.564-.57h2.126v.456h-1.904l-.298.299.006.661.292.299h1.546l.564.57V5.67l-.564.57zM24.609 6.24V2.698H23.42v-.455h2.87v.455h-1.189V6.24zM26.019 6.24l1.35-3.997h.765l1.35 3.997h-.514L28.628 5.2h-1.752L26.54 6.24zm1.003-1.475h1.465l-.673-2.056h-.125ZM30.033 6.24V2.243h2.186l.564.57v1.274l-.564.57h-.017l.722 1.583h-.548l-.71-1.583h-1.14V6.24zm.493-2.023h1.47l.293-.298V2.98l-.293-.299h-1.47ZM34.372 6.24V2.698h-1.188v-.455h2.87v.455h-1.189V6.24z" style="font-size:5.42396px;font-family:Tomorrow;-inkscape-font-specification:Tomorrow;stroke:#000;stroke-width:.0509678;stroke-dasharray:none;stroke-opacity:1" transform="matrix(.51946 0 0 .51878 36.241 1.4)"/></g><path d="M83.64 5.312v1.11h.912l-1.683 1.627-1.643-1.627h.858v-1.11H79.25V1.914h7.458v3.398z" style="fill:#ffc3cc;fill-opacity:1;stroke:#000;stroke-width:.264583;stroke-miterlimit:4;stroke-dasharray:none"/><g style="stroke:#000;stroke-width:.0509801;stroke-dasharray:none;stroke-opacity:1"><path d="M37.8 6.24V2.243h2.636v.455h-2.143v1.215h1.915v.45h-1.915v1.422h2.143v.455zM41.19 6.24V2.243h.672l1.785 3.216V2.243h.493V6.24h-.585l-1.752-3.156h-.12V6.24zM45.084 6.24V2.243h2.17l.83.84V5.4l-.83.84Zm.494-.439h1.453l.559-.57v-1.98l-.559-.569h-1.453z" style="font-size:5.42396px;font-family:Tomorrow;-inkscape-font-specification:Tomorrow;stroke:#000;stroke-width:.0509801;stroke-dasharray:none;stroke-opacity:1" transform="matrix(.5192 0 0 .51878 60.798 1.4)"/></g><text xml:space="preserve" x="26.026" y="-15.774" style="font-size:5.42396px;font-family:Tomorrow;-inkscape-font-specification:Tomorrow;fill:#000;stroke:#000;stroke-width:.185208"/><g style="stroke-width:1.36279"><path d="M20.378 6.24v-.455h1.969l.293-.299V4.69l-.293-.298H20.8l-.564-.564V2.812l.564-.57h2.126v.456h-1.904l-.298.299.006.661.292.299h1.546l.564.57V5.67l-.564.57zM24.609 6.24V2.698H23.42v-.455h2.87v.455h-1.189V6.24zM26.019 6.24l1.35-3.997h.765l1.35 3.997h-.514L28.628 5.2h-1.752L26.54 6.24zm1.003-1.475h1.465l-.673-2.056h-.125ZM30.033 6.24V2.243h2.186l.564.57v1.274l-.564.57h-.017l.722 1.583h-.548l-.71-1.583h-1.14V6.24zm.493-2.023h1.47l.293-.298V2.98l-.293-.299h-1.47ZM34.372 6.24V2.698h-1.188v-.455h2.87v.455h-1.189V6.24z" style="font-size:5.42396px;font-family:Tomorrow;-inkscape-font-specification:Tomorrow;stroke:none;stroke-width:.252401" transform="matrix(.73379 0 0 .73379 36.842 -17.93)"/></g><g style="stroke-width:1.36279"><path d="M37.8 6.24V2.243h2.636v.455h-2.143v1.215h1.915v.45h-1.915v1.422h2.143v.455zM41.19 6.24V2.243h.672l1.785 3.216V2.243h.493V6.24h-.585l-1.752-3.156h-.12V6.24zM45.084 6.24V2.243h2.17l.83.84V5.4l-.83.84Zm.494-.439h1.453l.559-.57v-1.98l-.559-.569h-1.453z" style="font-size:5.42396px;font-family:Tomorrow;-inkscape-font-specification:Tomorrow;stroke:none;stroke-width:.252401" transform="matrix(.73379 0 0 .73379 64.384 -17.93)"/></g><path d="M57.206 38.823v4.288M95.701 38.906v4.335" style="fill:#e5f6ff;stroke:#000;stroke-width:.264583;stroke-dasharray:none;stroke-dashoffset:0"/><path d="M57.197 102.243v-3.452h34.952v-2.087l3.552 3.792-3.552 3.677v-1.93z" style="fill:#fff4cf;fill-opacity:1;stroke:#000;stroke-width:.291042;stroke-miterlimit:4;stroke-dasharray:none"/><path d="M57.206 102.548v6.729M95.701 102.475v6.816" style="fill:#e5f6ff;stroke:#000;stroke-width:.264583;stroke-dasharray:none;stroke-dashoffset:0"/><path d="M80.512 26.623c.945 0 1.637-.165 1.94-.454.304-.289.405-.472.422-1.163l-.186.254c-.303.711-.81.938-2.075.938H69.995c-2.037 0-2.675.784-3.14 1.558-.492-.774-1.13-1.558-3.166-1.558H52.995c-1.266 0-1.772-.227-2.075-.938l-.186-.254c.017.68.118.864.422 1.163.304.3.961.454 1.923.454h10.978c1.718 0 2.282.774 2.773 1.465.515-.691 1.104-1.465 2.797-1.465z" style="font-style:normal;font-variant:normal;font-weight:400;font-stretch:normal;font-size:medium;line-height:125%;font-family:STIXGeneral;-inkscape-font-specification:STIXGeneral;letter-spacing:0;word-spacing:0;display:inline;fill:#000;fill-opacity:1;stroke:none;stroke-width:.352777px;stroke-linecap:butt;stroke-linejoin:miter;stroke-opacity:1"/><path d="M95.56 106.578c-.203.475-.54.626-1.383.626h-16.3c-.933 0-1.225.13-1.439.647-.225-.516-.517-.647-1.45-.647H58.512c-.843 0-1.18-.151-1.383-.626l-.124-.169c.011.454.079.576.281.776.203.2.641.302 1.282.302h16.587c.787 0 1.046.124 1.271.585.236-.461.506-.585 1.282-.585h16.4c.63 0 1.091-.11 1.293-.302.203-.193.27-.315.282-.776z" style="font-style:normal;font-variant:normal;font-weight:400;font-stretch:normal;font-size:medium;line-height:125%;font-family:STIXGeneral;-inkscape-font-specification:STIXGeneral;letter-spacing:0;word-spacing:0;display:inline;fill:#000;fill-opacity:1;stroke:none;stroke-width:.352778px;stroke-linecap:butt;stroke-linejoin:miter;stroke-opacity:1"/><path d="M50.79 21.778h32.08" style="display:inline;fill:none;stroke:#000;stroke-width:.264583;stroke-linecap:butt;stroke-linejoin:miter;stroke-miterlimit:10;stroke-dasharray:none;stroke-dashoffset:0;stroke-opacity:1" transform="translate(0 .849)"/><path d="M81.15 20.067c.115.642 1.375 1.604 1.72 1.71-.345.108-1.605 1.07-1.72 1.711" style="display:inline;fill:none;stroke:#000;stroke-width:.343958;stroke-linecap:round;stroke-linejoin:round;stroke-miterlimit:10;stroke-dasharray:none;stroke-opacity:1" transform="translate(0 .849)"/><path d="M82.87 20.71v3.832M50.79 20.71v3.832" style="fill:#e5f6ff;stroke:#000;stroke-width:.343958;stroke-dasharray:none;stroke-dashoffset:0"/><path d="M93.958 86.094h-1.39v-.075c.373-.02.479-.126.479-.403v-2.262c0-.171-.046-.247-.152-.247a.761.761 0 0 0-.226.06l-.136.05v-.07l.902-.458.045.015v3.007c0 .217.1.308.478.308zM96.754 82.84l-1.068 3.295h-.327l.997-3.003h-1.083c-.292 0-.378.07-.59.413l-.09-.045.302-.74h1.86zM101.263 84.986h-2.806v-.332h2.806zM104.689 86.094h-1.39v-.075c.372-.02.478-.126.478-.403v-2.262c0-.171-.045-.247-.151-.247a.761.761 0 0 0-.227.06l-.136.05v-.07l.902-.458.045.015v3.007c0 .217.1.308.479.308zM107.208 86.094h-1.39v-.075c.372-.02.478-.126.478-.403v-2.262c0-.171-.046-.247-.151-.247a.761.761 0 0 0-.227.06l-.136.05v-.07l.902-.458.045.015v3.007c0 .217.1.308.479.308zM112.356 84.482h-2.967v-.332h2.967zm0 1.008h-2.967v-.333h2.967zM116.25 82.649l.01.08c-.79.131-1.355.675-1.49 1.436.246-.192.417-.227.639-.227.59 0 .952.403.952 1.053 0 .322-.09.605-.257.806a1.004 1.004 0 0 1-.8.368c-.399 0-.716-.187-.893-.509a2.095 2.095 0 0 1-.236-.967c0-.544.191-1.023.549-1.39.433-.454.83-.575 1.526-.65zm-.342 2.498c0-.645-.212-.977-.68-.977-.288 0-.585.12-.585.584 0 .766.242 1.27.715 1.27.363 0 .55-.363.55-.877zM131.51 85.897h-1.39v-.076c.373-.02.478-.126.478-.403v-2.262c0-.171-.045-.247-.15-.247a.761.761 0 0 0-.227.06l-.136.051v-.07l.901-.459.046.015v3.008c0 .216.1.307.478.307zM134.03 85.897h-1.391v-.076c.372-.02.478-.126.478-.403v-2.262c0-.171-.045-.247-.15-.247a.761.761 0 0 0-.228.06l-.136.051v-.07l.902-.459.046.015v3.008c0 .216.1.307.478.307zM138.815 84.788h-2.806v-.332h2.806zM142.24 85.897h-1.39v-.076c.373-.02.479-.126.479-.403v-2.262c0-.171-.046-.247-.151-.247a.761.761 0 0 0-.227.06l-.136.051v-.07l.902-.459.045.015v3.008c0 .216.1.307.478.307zM145.036 82.642l-1.068 3.295h-.327l.997-3.003h-1.083c-.292 0-.377.07-.59.413l-.09-.045.303-.74h1.858zM149.908 84.284h-2.967v-.332h2.967zm0 1.008h-2.967v-.332h2.967zM154.684 84.788h-2.806v-.332h2.806zM157.253 82.45l.01.081c-.791.131-1.355.675-1.491 1.436.247-.191.418-.227.64-.227.589 0 .952.403.952 1.053 0 .323-.091.605-.257.806a1.004 1.004 0 0 1-.801.368c-.398 0-.716-.186-.892-.509a2.095 2.095 0 0 1-.237-.967c0-.544.192-1.023.55-1.39.433-.454.83-.575 1.526-.65zm-.343 2.5c0-.645-.211-.978-.68-.978-.287 0-.584.121-.584.584 0 .766.242 1.27.715 1.27.363 0 .55-.363.55-.877zM71.14 84.23h-1.39v-.075c.372-.02.478-.126.478-.403V81.49c0-.17-.045-.246-.151-.246a.761.761 0 0 0-.227.06l-.136.05v-.07l.902-.459.045.016v3.007c0 .217.101.307.479.307zM73.936 80.977l-1.068 3.294h-.328l.998-3.002h-1.083c-.293 0-.378.07-.59.413l-.09-.045.302-.741h1.859zM77.856 83.123H75.05v-.333h2.806zM80.694 84.23h-1.39v-.075c.372-.02.478-.126.478-.403V81.49c0-.17-.045-.246-.151-.246a.761.761 0 0 0-.227.06l-.136.05v-.07l.902-.459.045.016v3.007c0 .217.101.307.479.307zM83.213 84.23h-1.39v-.075c.372-.02.478-.126.478-.403V81.49c0-.17-.045-.246-.151-.246a.761.761 0 0 0-.227.06l-.136.05v-.07l.902-.459.045.016v3.007c0 .217.1.307.479.307z"/><path d="M99.917 71.593c.164-.02.33-.018.495-.024.309-.01.616-.04.924-.059.185-.013.37-.026.552-.053a.316.316 0 0 0 .116-.035l-.043-.027a.323.323 0 0 1-.113.033c-.183.028-.366.041-.55.055-.308.02-.616.05-.924.058-.166.006-.333.005-.498.023l.041.029zM100.114 72.463c.228-.031.458-.045.688-.062.316-.023.632-.032.95-.038.18-.008.362.007.543-.01l-.04-.029c-.18.018-.362.004-.542.012-.317.006-.633.015-.95.039-.23.016-.46.03-.69.06l.041.028zM105.833 70.155c-.269.081-.52.216-.74.39-.063.05-.122.105-.183.158-.06.075-.127.146-.182.225-.226.32-.408.721-.428 1.114-.005.088.008.175.012.263.053.203.051.271.172.445.14.202.356.337.587.416.072.025.15.033.224.05.075.003.15.013.225.01.247-.006.53-.09.703-.274.036-.039.06-.086.09-.128.017-.048.04-.093.05-.142a.719.719 0 0 0-.06-.453c-.057-.125-.098-.16-.185-.264-.18-.173-.402-.3-.65-.349-.166-.031-.224-.023-.392-.022-.192.007-.351.058-.528.121l.038.026c.051-.018.101-.04.153-.055.17-.05.195-.045.373-.065.067 0 .133-.005.2-.001.161.01.347.046.491.123.133.072.16.107.272.204.087.104.128.139.186.262.066.14.094.299.06.45-.01.049-.032.094-.048.141-.03.043-.054.09-.09.127-.171.185-.453.267-.7.273-.074.002-.15-.007-.224-.011-.142-.032-.267-.048-.395-.12a1 1 0 0 1-.45-.506c-.03-.077-.042-.159-.063-.239-.005-.087-.017-.174-.013-.262.02-.392.2-.794.427-1.112.056-.078.122-.15.183-.224.061-.052.12-.108.183-.158.22-.172.473-.307.743-.385l-.041-.028z" style="fill:#000;stroke:#000;stroke-width:.185208"/><path d="M89.72 46.491c-.522.227-.998.587-1.313 1.041-.19.29-.296.644-.176.943.137.344.523.533.915.562.352.026.763-.065 1.025-.334a.611.611 0 0 0 .134-.663c-.103-.234-.422-.394-.7-.396-.334-.004-.73.075-1.055.35-.102.085-.198.198-.227.319" style="fill:none;stroke:#000;stroke-width:.264583;stroke-dasharray:none"/><path d="M121.344 69.847c-.248.074-.47.227-.659.4-.062.057-.12.119-.179.178a3.488 3.488 0 0 0-.74 1.253c-.03.09-.048.182-.071.274-.057.334-.056.688.128.987.11.18.17.203.334.33.082.033.161.074.246.099.338.098.723.093 1.058-.012.071-.022.138-.055.208-.083.202-.114.376-.276.419-.514.023-.129.005-.167-.017-.293a.905.905 0 0 0-.487-.568c-.046-.021-.095-.036-.142-.054a2.149 2.149 0 0 0-.931-.053c-.188.04-.374.103-.51.246-.073.075-.098.133-.15.224l.023.012c.048-.086.074-.145.143-.217.133-.14.314-.202.498-.24.311-.045.614-.038.918.051.046.018.094.032.139.053a.88.88 0 0 1 .474.55c.022.121.04.158.018.282-.04.23-.21.388-.405.498-.067.028-.133.06-.203.083-.331.104-.71.109-1.044.012-.083-.024-.16-.064-.24-.096-.16-.123-.219-.145-.327-.32-.182-.294-.183-.642-.127-.971.023-.09.04-.183.07-.272.147-.463.412-.884.735-1.243.24-.24.49-.474.825-.57l-.004-.026zM109.948 70.283a1.653 1.653 0 0 0-.718.356c-.066.056-.123.12-.185.181-.243.283-.434.615-.475.992-.026.242.002.302.044.539.033.083.057.171.098.251.167.323.48.574.823.69.098.032.201.045.302.068.424.036.944.047 1.3-.234.046-.038.082-.087.123-.13.024-.048.055-.091.071-.141.068-.216-.038-.44-.18-.597-.042-.046-.092-.085-.137-.127a1.75 1.75 0 0 0-.935-.33c-.07-.004-.139 0-.208 0-.252.025-.515.082-.703.267-.107.106-.108.142-.164.277-.032.2-.027.1-.016.298l.025-.002c-.011-.19-.015-.094.014-.287.053-.129.054-.164.156-.267.183-.182.441-.237.688-.262.068 0 .137-.004.205 0 .333.018.651.129.921.324.045.041.093.079.134.124.136.15.24.364.178.57-.015.048-.045.09-.067.135-.04.042-.073.09-.118.127-.35.279-.864.267-1.282.232-.099-.022-.2-.035-.297-.068a1.436 1.436 0 0 1-.81-.676c-.04-.078-.065-.164-.097-.247-.042-.232-.07-.291-.044-.53.04-.372.229-.7.468-.979.06-.06.118-.123.183-.178a1.62 1.62 0 0 1 .707-.35l-.003-.026z" style="fill:#000;stroke:#000;stroke-width:.185208"/><path d="M76.577 47.602c.267-.094.579-.125.836.012.25.152.317.508.18.757-.093.18-.286.28-.478.32a1.46 1.46 0 0 1-.631-.002c-.2-.053-.4-.173-.485-.37a.37.37 0 0 1 .08-.373c.155-.193.388-.3.61-.393" style="fill:#e5f6ff;fill-opacity:1;stroke:#000;stroke-width:.264583;stroke-dasharray:none"/><path d="M95.426 73.349c.076-.02.156-.034.221-.048.221-.028.342-.01.567.004.28.043.35.041.62.133a2.9 2.9 0 0 1 1.055.646c.17.189.235.24.36.461.135.24.22.516.222.793 0 .088-.016.175-.024.262-.074.237-.07.288-.217.494-.243.345-.61.554-.994.703-.107.035-.213.075-.323.104-.491.13-1.012.15-1.51.041-.139-.044-.213-.056-.334-.129a.418.418 0 0 1-.075-.06c-.029-.029-.033-.055-.023-.058.014-.003.028.005.042.007.17.107.27.26.192.468-.023.062-.064.117-.096.175-.06.063-.111.133-.177.19-.399.347-.958.54-1.472.621-.159.026-.32.03-.479.046-.162 0-.325.007-.487 0a5.65 5.65 0 0 1-1.745-.346c-.108-.04-.211-.094-.317-.14-.258-.148-.636-.34-.738-.646-.037-.03.003.005-.058.045-.267.15-.628.124-.921.123-.107-.01-.214-.016-.32-.03-.538-.073-1.07-.228-1.52-.544-.112-.08-.21-.177-.316-.265-.082-.1-.175-.192-.247-.3-.181-.268-.302-.605-.265-.933.03-.268.102-.337.233-.566.078-.086.15-.178.234-.256.41-.376.97-.62 1.495-.783.14-.044.284-.077.426-.115.36-.065.688-.13 1.056-.098.275.023.135.025.343.078.02.005.041.004.062.006-.073-.007-.171-.111-.21-.157a.858.858 0 0 1-.219-.592c.025-.083.031-.173.074-.248.127-.221.31-.32.541-.417.477-.2.996-.248 1.507-.259.19.008.38.006.57.022.655.053 1.32.198 1.906.502.112.058.216.13.323.196.088.067.178.13.263.202.235.2.443.443.599.71" style="fill:none;stroke:#000;stroke-width:.185208"/><path d="M81.306 46.996c-.523-.16-1.094-.085-1.596.113-.305.127-.56.415-.573.757a.94.94 0 0 0 .242.71c.342.403.913.556 1.423.457.398-.059.774-.31.941-.68.12-.297.088-.661-.124-.909-.198-.239-.464-.406-.714-.584M111.603 75.961l.049-.055c-.268-.211-.712-.13-1.05-.09-.827.095-1.758.467-2.33 1.183-.403.513-.223 1.27.2 1.705.673.751 1.742.98 2.694.87.066 0 .537-.085.408-.135-.029-.039-.013-.186-.086-.069-.003.36.49.677.903.862 1.17.525 2.579.69 3.803.219.415-.15 1.211-.677.76-1.171-.035-.039-.076-.048-.116-.065-.038-.017-.105 0-.092.05.11.437.899.348 1.271.3.604-.077 1.378-.42 1.606-1.178.223-.777-.256-1.566-.823-1.945-.568-.379-1.4-.509-2.007-.22-.292.139-.173.253.053.183.368-.114.338-.567.325-.639-.08-.479-.6-.96-.952-1.167-.717-.419-1.727-.642-2.53-.697-.862-.06-1.94-.084-2.553.585-.404.44-.25 1.326.198 1.572" style="fill:#e5f6ff;fill-opacity:1;stroke:#000;stroke-width:.264583;stroke-dasharray:none"/><path d="m76.025 38.524.049-.054c-.269-.212-.712-.13-1.05-.09-.827.094-1.759.466-2.33 1.183-.404.512-.223 1.27.199 1.704.674.752 1.743.98 2.694.87.067 0 .538-.085.409-.134-.029-.04-.014-.187-.087-.07-.172.397.491.843.903 1.028 1.17.526 2.577.519 3.803.053.413-.156 1.212-.677.76-1.171-.035-.039-.075-.048-.115-.065-.038-.017-.105.001-.092.05.11.437.899.349 1.27.3h.001c.603-.077 1.377-.42 1.605-1.177.223-.778-.255-1.567-.823-1.945-.568-.38-1.4-.51-2.007-.22-.292.138-.173.252.053.183.37-.114.338-.567.326-.64-.08-.478-.6-.96-.952-1.166a6.341 6.341 0 0 0-2.531-.781c-.862-.06-1.94 0-2.552.668-.404.44-.25 1.327.198 1.572" style="fill:#e5f6ff;fill-opacity:1;stroke:#000;stroke-width:.264583;stroke-dasharray:none" transform="translate(0 30.439)"/><path d="M79.801 38.831c-.465.227-.89.59-1.171 1.045-.17.29-.264.646-.157.947.122.345.467.535.817.564.313.025.68-.065.914-.335a.671.671 0 0 0 .119-.666c-.092-.235-.376-.395-.624-.398a1.317 1.317 0 0 0-.941.35.66.66 0 0 0-.202.322" style="fill:none;stroke:#000;stroke-width:.264583;stroke-dasharray:none" transform="translate(0 30.439)"/><path d="M77.493 40.542a55.764 55.764 0 0 0-.671-.009c-.32 0-.641.005-.962.013M77.502 39.859c-.296.011-.596.02-.85.013-.266-.006-.534-.017-.8.012" style="fill:#000;stroke:#000;stroke-width:.264583;stroke-dasharray:none" transform="translate(0 30.439)"/><path d="M127.507 71.777c-.416-.19-.895-.107-1.33-.039-.602.134-1.207.388-1.612.875-.07.085-.124.183-.186.275-.03.109-.075.215-.089.327-.025.208.008.5.1.69.118.24.357.481.56.645.125.1.264.181.396.272.564.317 1.185.52 1.836.543.375.013.47-.02.829-.077.37-.107.83-.249 1.012-.625.001-.02.006-.038.004-.057-.005-.05-.055-.059-.076-.008-.029.07-.004.118.01.191.189.447.567.783.976 1.03.117.072.242.13.364.195.708.325 1.476.471 2.254.427.148-.009.296-.032.444-.048.516-.114 1.076-.275 1.447-.678.042-.046.074-.1.111-.15a.706.706 0 0 0 .045-.576c.016-.027-.078-.097-.043-.022.005.012.084.064.085.064.278.203.61.292.94.37.416.068.857.083 1.261-.063.077-.028.15-.068.225-.102.372-.205.638-.521.805-.91.034-.077.059-.157.088-.236a1.714 1.714 0 0 0-.008-.98 1.27 1.27 0 0 0-.1-.243c-.05-.087-.119-.162-.178-.243-.077-.075-.147-.16-.232-.226-.372-.29-.859-.447-1.318-.528-.1-.017-.2-.025-.3-.037-.25.006-.678-.074-.87.14 0 .015-.007.031-.001.045.053.108.262-.02.308-.062.037-.034.066-.076.099-.114.193-.34.254-.75.148-1.13-.022-.077-.06-.15-.088-.224-.045-.065-.082-.136-.136-.194-.253-.278-.643-.37-1.004-.386-.108-.005-.216.004-.324.006-.476.055-.998.199-1.318.587-.045.054-.073.12-.11.18a1.23 1.23 0 0 0-.105.42c-.001.019.016.062-.001.055-.02-.008-.006-.042-.016-.062-.018-.038-.043-.073-.065-.11a4.849 4.849 0 0 0-1.013-1.17c-.105-.087-.219-.163-.328-.245a4.417 4.417 0 0 0-1.664-.667c-.413-.07-.535-.05-.953-.047-.156.02-.313.03-.468.06-.533.102-1.1.334-1.447.772-.071.09-.118.197-.176.296-.067.288-.114.348-.053.647.022.109.073.21.11.315l.022-.008c-.036-.103-.086-.202-.108-.309-.06-.291-.015-.351.05-.633.057-.097.102-.202.171-.29.343-.436.906-.666 1.434-.767.154-.03.31-.04.465-.06.415-.004.537-.023.947.046.593.1 1.153.338 1.655.665.11.08.222.156.327.242.399.327.734.73 1.007 1.167.003.006.077.163.129.159.017-.002-.001-.035 0-.053a1.2 1.2 0 0 1 .101-.41c.035-.059.063-.122.106-.175.315-.384.831-.526 1.302-.58.106-.003.213-.012.32-.007.353.016.737.105.987.376.052.057.088.126.132.19.029.073.065.143.087.219.105.372.045.775-.142 1.109-.032.036-.06.076-.095.109-.035.032-.254.165-.272.055.166-.197.624-.13.846-.133.1.012.2.02.298.037.455.079.938.234 1.307.522.084.065.153.149.229.223.058.08.127.152.175.237.043.075.072.158.098.24.103.317.094.645.01.965-.03.078-.054.158-.087.235a1.82 1.82 0 0 1-.794.897c-.073.034-.145.073-.22.1-.4.147-.837.131-1.25.064-.327-.077-.655-.166-.93-.367-.033-.022-.15-.119-.082-.012a.679.679 0 0 1-.04.553c-.036.048-.067.1-.108.145-.366.401-.922.56-1.433.674-.147.016-.294.039-.442.047a4.708 4.708 0 0 1-2.242-.423c-.12-.065-.245-.123-.362-.194-.403-.244-.777-.575-.964-1.016-.008-.036-.02-.072-.022-.11-.006-.075.046-.143.036-.023-.175.371-.635.507-.993.614-.357.057-.45.09-.823.077-.647-.022-1.264-.224-1.825-.54-.131-.09-.269-.17-.392-.269-.2-.16-.438-.4-.553-.635a1.351 1.351 0 0 1-.1-.676c.013-.11.057-.214.085-.32.061-.091.113-.188.183-.272.4-.484 1.002-.735 1.6-.868.427-.067.9-.15 1.31.037l.015-.022zM157.316 16.593c-.56-.206-1.038-.52-1.182-.975-.028-.1-.025-.205-.037-.308.021-.104.027-.212.064-.312.188-.501.694-.833 1.186-.983.14-.043.288-.058.433-.087.148-.014.296-.036.445-.042a4.047 4.047 0 0 1 2.1.478c.103.068.212.128.308.203.155.122.26.254.375.41.142.194.266.396.329.63.03.157.082.331-.001.48-.02.035-.013.029-.04.011-.063-.217.062-.513.18-.69.05-.075.11-.14.165-.209.202-.161.26-.229.507-.334.427-.181.894-.18 1.341-.083.104.038.21.067.31.113.358.165.664.441.811.812.03.077.046.159.069.239.006.076.018.151.018.227a1.5 1.5 0 0 1-.203.73" style="fill:#e5f6ff;fill-opacity:1;stroke:#000;stroke-width:.079375;stroke-dasharray:none"/><path d="M153.235 23.78a2.838 2.838 0 0 0-.606-.715c-.085-.071-.176-.135-.264-.203-.109-.065-.213-.138-.326-.196-.59-.305-1.257-.451-1.915-.504-.19-.016-.382-.015-.572-.022-.514.011-1.035.06-1.515.26-.234.097-.422.198-.552.422-.045.077-.052.17-.079.256 0 .247.063.426.222.614.053.062.139.15.226.168M86.058 81.82c-.44-.207-.974-.203-1.38-.121-.832.17-1.676.606-2.116 1.328-.394.644-.053 1.458.459 1.886.705.591 1.663.812 2.54.684.107-.016.311-.047.311-.19 0 .347.491.585.797.728a5.077 5.077 0 0 0 3.355.323c.55-.14 1.206-.412 1.395-.995.058-.18-.165-.467-.274-.43-.06.214 1.011.392 1.47.343.767-.08 1.654-.425 1.96-1.197.318-.807-.25-1.663-.93-2.09-.44-.275-.776-.413-1.298-.423-.032.061-.018.122.004.088.1-.206.12-.365.107-.595a1.113 1.113 0 0 0-.104-.416c-.151-.325-.441-.558-.772-.687-.092-.036-.19-.057-.285-.086-.406-.063-.825-.04-1.2.145-.216.107-.264.17-.437.326-.047.065-.099.127-.14.196-.104.178-.195.436-.127.641.029.023.035.043.072-.001.095-.116.013-.33-.017-.448a1.724 1.724 0 0 0-.33-.549 1.731 1.731 0 0 0-.357-.346c-.09-.062-.19-.11-.287-.166a3.627 3.627 0 0 0-1.899-.314c-.132.013-.263.04-.395.06-.127.033-.258.055-.382.1-.434.161-.87.484-1.014.943-.028.092-.028.19-.042.286.017.092.019.188.05.277.167.483.671.676 1.114.818" style="fill:#e5f6ff;fill-opacity:1;stroke:#000;stroke-width:.264583;stroke-dasharray:none"/><path d="M154.627 32.564c-.44-.208-.974-.204-1.38-.122-.832.17-1.676.606-2.117 1.328-.393.644-.052 1.458.46 1.886.705.591 1.662.812 2.54.684.107-.015.311-.047.311-.19 0 .347.491.585.797.728a5.077 5.077 0 0 0 3.355.323c.55-.14 1.206-.412 1.395-.995.058-.179.048-.408-.061-.372-.06.215.798.334 1.257.285.767-.08 1.654-.425 1.959-1.197.319-.807-.248-1.663-.93-2.09-.439-.275-.775-.413-1.297-.423-.032.061-.018.122.004.088.268-.537.036-1.235-.474-1.547-.59-.36-1.396-.37-1.967.018-.328.223-.616.637-.517 1.053.252-.065.031-.552-.084-.739a2.067 2.067 0 0 0-1.003-.844c-.835-.324-1.797-.362-2.63-.03-.487.193-.956.65-.928 1.213.01.465.415.793.82.94.11.045.253.069.338.061" style="fill:#e5f6ff;fill-opacity:1;stroke:#000;stroke-width:.264583;stroke-dasharray:none" transform="translate(13.306)"/><path d="M157.855 33.303c-.465.227-.89.59-1.171 1.045-.17.29-.264.646-.157.947.122.345.467.535.817.564.313.025.68-.065.914-.335a.671.671 0 0 0 .119-.666c-.092-.235-.376-.395-.624-.398a1.317 1.317 0 0 0-.941.35.66.66 0 0 0-.202.322" style="fill:none;stroke:#000;stroke-width:.264583;stroke-dasharray:none" transform="translate(13.306)"/><path d="M144.205 34.041c.266-.094.579-.125.836.012.25.152.317.508.18.757-.093.18-.286.28-.478.32a1.46 1.46 0 0 1-.631-.002c-.2-.053-.4-.173-.485-.37a.37.37 0 0 1 .08-.373c.155-.193.388-.3.61-.393" style="fill:#e5f6ff;fill-opacity:1;stroke:#000;stroke-width:.264583;stroke-dasharray:none" transform="translate(13.306)"/><path d="M155.588 35.097a55.764 55.764 0 0 0-.67-.008c-.321 0-.642.004-.962.013M155.597 34.414c-.295.011-.596.02-.849.013-.267-.005-.534-.017-.8.012" style="fill:#000;stroke:#000;stroke-width:.264583;stroke-dasharray:none" transform="translate(13.306)"/><path d="M148.819 33.497c-.523-.16-1.094-.085-1.596.113-.305.127-.56.416-.573.757a.94.94 0 0 0 .242.71c.342.403.913.556 1.423.458.398-.06.773-.31.941-.682.12-.296.088-.66-.125-.907-.197-.24-.463-.407-.713-.585" style="fill:#e5f6ff;fill-opacity:1;stroke:#000;stroke-width:.264583;stroke-dasharray:none" transform="translate(13.306)"/><path d="M93.687 67.904c-.523-.16-1.093-.085-1.595.113-.305.128-.56.416-.573.757a.94.94 0 0 0 .242.71c.342.403.913.556 1.423.458.397-.06.773-.31.94-.681.121-.297.089-.66-.124-.908-.197-.24-.464-.406-.713-.585" style="fill:#f4e3d7;fill-opacity:1;stroke:#000;stroke-width:.264583;stroke-dasharray:none"/><path d="M52.282 75.203c-.623-.217-1.236-.197-1.903-.023-.438.114-.912.333-1.446.69-.974.65-1.846 1.573-2.503 2.751-.443.795-.465 1.014-.755 1.92-.068.35-.158.69-.202 1.045-.11.891-.1 1.977.136 2.834.205.746.372.955.721 1.6.18.255.348.53.542.765.666.807 1.443 1.313 2.322 1.527.89.218 1.477.241 2.235.16.358-.04.638-.044.983-.166 1.157-.409 2.3-1.277 3.068-2.554.158-.263.271-.609.384-.905.102-.269.271-.93.326-1.218.228-1.21.139-2.567-.154-3.72a8.703 8.703 0 0 0-.504-1.304c-.535-1.033-.82-1.487-1.565-2.242-.411-.416-.671-.546-.913-.733-.292-.226-1.462-.636-2.07-.41" style="display:inline;fill:#fff9f3;fill-opacity:1;stroke:#000;stroke-width:.282222;stroke-linecap:square;stroke-linejoin:miter;stroke-miterlimit:100;stroke-dasharray:none;stroke-opacity:1"/><path d="M163.958 73.311a2.838 2.838 0 0 0-.606-.715c-.085-.072-.176-.135-.265-.203-.108-.065-.212-.138-.325-.196-.59-.306-1.257-.451-1.915-.505-.19-.015-.382-.014-.573-.021-.513.011-1.034.06-1.514.259-.234.097-.422.198-.552.423-.045.077-.052.17-.079.255 0 .247.063.427.222.614.053.063.139.151.226.169-.015-.018-.025-.043-.045-.054-.08-.044-.283-.075-.352-.08-.371-.031-.7.033-1.064.1-.143.038-.287.07-.428.115-.528.165-1.09.41-1.503.787-.086.078-.158.172-.237.258-.134.233-.207.304-.24.576-.038.334.084.677.268.95.073.109.167.202.25.303.107.09.206.188.32.268.452.318.988.475 1.53.55.106.014.214.02.321.03.304.002.66.03.936-.123.004.024.085-.096.052-.093-.011 0-.02.01-.03.014.002.018.002.036.008.053.11.278.501.487.742.624.106.047.21.1.319.141.555.21 1.16.321 1.752.347.163.007.326 0 .49 0 .16-.015.321-.02.48-.046.518-.082 1.082-.276 1.485-.624.066-.058.12-.129.18-.193.033-.06.076-.115.1-.18.086-.224-.018-.384-.2-.5-.017-.004-.034-.015-.05-.011-.054.012-.023.072-.006.094.023.028.052.05.082.069.12.074.206.09.344.132.5.11 1.026.09 1.521-.041.11-.03.217-.07.325-.105.39-.15.76-.362 1.006-.71.149-.21.145-.261.221-.502.008-.089.025-.178.025-.267a1.686 1.686 0 0 0-.224-.805c-.127-.225-.192-.276-.364-.467a2.925 2.925 0 0 0-1.063-.652c-.273-.093-.344-.091-.627-.134-.226-.014-.348-.033-.57-.005-.077.01-.151.032-.226.048" style="fill:#f4e3d7;fill-opacity:1;stroke:#000;stroke-width:.264583;stroke-dasharray:none"/><path d="M162.096 73.954c-.465.227-.89.59-1.171 1.045-.17.29-.264.646-.157.947.122.345.466.535.816.564.314.025.68-.065.915-.335a.671.671 0 0 0 .119-.666c-.092-.235-.376-.395-.624-.398a1.317 1.317 0 0 0-.942.35.66.66 0 0 0-.202.322" style="fill:none;stroke:#000;stroke-width:.264583;stroke-dasharray:none"/><path d="M159.749 75.75a50.25 50.25 0 0 0-.628-.008c-.3 0-.6.004-.899.012M159.756 75.098c-.262.01-.529.02-.753.013-.236-.006-.474-.017-.71.01" style="fill:#000;stroke:#000;stroke-width:.264583;stroke-dasharray:none"/><path d="M96.478-6.248v1.11h.912l-1.683 1.627-1.643-1.627h.858v-1.11h-2.834v-3.398h7.458v3.398z" style="fill:#ffc3cc;fill-opacity:1;stroke:#000;stroke-width:.264583;stroke-miterlimit:4;stroke-dasharray:none"/><path d="M57.989-5.084v1.11h.911l-1.683 1.628-1.644-1.628h.858v-1.11h-4.26v-3.398h10.253v3.398z" style="fill:#b1ffe8;fill-opacity:1;stroke:#000;stroke-width:.264583;stroke-miterlimit:4;stroke-dasharray:none"/><path d="M176.278-7.525a2.838 2.838 0 0 0-.606-.716c-.085-.071-.176-.135-.264-.203-.109-.065-.213-.138-.326-.196-.59-.306-1.257-.451-1.915-.505-.19-.015-.381-.014-.572-.02-.514.01-1.035.058-1.514.258-.235.097-.423.199-.553.423-.045.077-.052.17-.078.256-.001.247.062.426.22.614.054.062.14.15.227.168-.015-.018-.024-.043-.045-.054-.079-.044-.283-.075-.352-.08-.371-.031-.7.033-1.064.1-.142.038-.287.071-.428.115-.528.165-1.09.41-1.503.787-.086.078-.158.172-.237.258-.134.233-.207.304-.239.576-.039.334.083.677.268.95.073.11.166.203.25.304.106.089.205.187.319.267.452.318.988.475 1.53.55.106.014.214.02.322.03.303.003.659.03.936-.123.004.025.084-.096.051-.093-.011 0-.02.01-.03.014.003.018.003.036.009.053.11.279.5.487.741.624.107.047.21.1.319.141.555.21 1.16.321 1.752.347.163.007.327 0 .49 0 .16-.015.321-.02.48-.046.519-.081 1.082-.276 1.485-.624.066-.058.12-.128.18-.193.034-.06.076-.115.1-.18.087-.223-.017-.384-.2-.5-.016-.004-.033-.015-.05-.011-.054.012-.023.072-.005.094.022.028.051.05.081.069.12.074.207.09.344.132.501.11 1.026.09 1.522-.041.11-.03.216-.07.325-.104.389-.152.759-.363 1.005-.71.149-.21.145-.262.222-.502.008-.09.024-.179.024-.268a1.686 1.686 0 0 0-.224-.805c-.126-.225-.192-.276-.364-.467a2.925 2.925 0 0 0-1.063-.652c-.273-.093-.344-.09-.626-.134-.227-.014-.348-.032-.572-.005-.076.01-.15.032-.225.048" style="fill:#fff5ed;fill-opacity:1;stroke:#000;stroke-width:.264583;stroke-dasharray:none"/><path d="M60.954 32.983h-1.39v-.076c.372-.02.478-.126.478-.403v-2.262c0-.17-.045-.246-.15-.246a.761.761 0 0 0-.228.06l-.136.05v-.07l.902-.458.045.015V32.6c0 .217.101.307.48.307zM63.695 29.552l-.182.429c-.015.035-.055.065-.136.065H62.4l-.202.428c.72.136.973.247 1.26.645.13.181.176.373.176.64 0 .483-.151.796-.494 1.048-.236.17-.513.246-.856.246-.378 0-.64-.12-.64-.312 0-.126.086-.191.227-.191.116 0 .211.025.373.156.14.116.257.161.357.161.353 0 .68-.418.68-.851 0-.323-.11-.575-.337-.756-.237-.191-.59-.353-1.073-.353-.045 0-.06-.01-.06-.04 0-.01.004-.025.004-.025l.55-1.194h1.042c.116 0 .162-.025.242-.13zM68.259 31.875h-2.806v-.333h2.806zM71.69 32.983h-1.391v-.076c.373-.02.479-.126.479-.403v-2.262c0-.17-.046-.246-.152-.246a.761.761 0 0 0-.226.06l-.136.05v-.07l.901-.458.046.015V32.6c0 .217.1.307.478.307zM74.621 31.32c0 .867-.317 1.733-1.138 1.733-.862 0-1.139-.937-1.139-1.763 0-.891.348-1.712 1.159-1.712.66 0 1.118.71 1.118 1.743zm-.483.026c0-1.048-.222-1.638-.665-1.638-.418 0-.645.595-.645 1.618 0 1.022.221 1.597.655 1.597.428 0 .655-.58.655-1.577z"/><path d="m171.339 63.35.048-.055c-.268-.211-.712-.129-1.05-.09-.827.095-1.758.467-2.33 1.184-.403.512-.223 1.27.2 1.704.673.752 1.742.98 2.694.87.067 0 .537-.085.408-.135-.029-.039-.013-.186-.086-.068-.172.396.49.842.903 1.027 1.17.525 2.577.519 3.803.053.413-.157 1.212-.677.76-1.171-.035-.039-.076-.048-.116-.065-.038-.017-.105 0-.092.05.11.437.899.349 1.271.3.604-.077 1.378-.42 1.606-1.178.223-.777-.256-1.566-.823-1.945-.568-.378-1.4-.509-2.007-.22-.292.14-.173.253.053.183.369-.113.338-.566.326-.638-.081-.48-.6-.961-.953-1.167a6.341 6.341 0 0 0-2.53-.781c-.862-.06-1.94 0-2.553.668-.404.44-.25 1.327.198 1.572" style="fill:#e5f6ff;fill-opacity:1;stroke:#000;stroke-width:.264583;stroke-dasharray:none"/></svg>