<svg xmlns="http://www.w3.org/2000/svg" xmlns:xlink="http://www.w3.org/1999/xlink" width="1083.178" height="515.111" viewBox="0 0 1015.48 482.917"><defs><clipPath id="a"><path d="M226.254 254.46H228V279h-1.746zm0 0"/></clipPath><clipPath id="b"><path d="M383 388h1.996v25.203H383zm0 0"/></clipPath><clipPath id="c"><path d="M383 254.46h1.996V279H383Zm0 0"/></clipPath><clipPath id="g"><path d="M226.254 254.46H228V279h-1.746zm0 0"/></clipPath><clipPath id="h"><path d="M383 388h1.996v25.203H383zm0 0"/></clipPath><clipPath id="i"><path d="M383 254.46h1.996V279H383Zm0 0"/></clipPath><clipPath id="d"><path d="M226.254 254.46H228V279h-1.746zm0 0"/></clipPath><clipPath id="e"><path d="M383 388h1.996v25.203H383zm0 0"/></clipPath><clipPath id="f"><path d="M383 254.46h1.996V279H383Zm0 0"/></clipPath><clipPath id="o"><path d="M226.254 254.46H228V279h-1.746zm0 0"/></clipPath><clipPath id="p"><path d="M383 388h1.996v25.203H383zm0 0"/></clipPath><clipPath id="q"><path d="M383 254.46h1.996V279H383Zm0 0"/></clipPath><clipPath id="u"><path d="M226.254 254.46H228V279h-1.746zm0 0"/></clipPath><clipPath id="v"><path d="M383 388h1.996v25.203H383zm0 0"/></clipPath><clipPath id="w"><path d="M383 254.46h1.996V279H383Zm0 0"/></clipPath><clipPath id="r"><path d="M226.254 254.46H228V279h-1.746zm0 0"/></clipPath><clipPath id="s"><path d="M383 388h1.996v25.203H383zm0 0"/></clipPath><clipPath id="t"><path d="M383 254.46h1.996V279H383Zm0 0"/></clipPath><symbol id="j" overflow="visible" style="overflow:visible"><path d="m4.734-1.36-.125-.062c-.375.578-.5.672-.953.672H1.281l1.672-1.766c.89-.921 1.281-1.687 1.281-2.453 0-1-.812-1.765-1.859-1.765-.547 0-1.063.218-1.422.609-.328.344-.469.656-.64 1.375l.203.047C.922-5.687 1.28-6 1.969-6c.828 0 1.406.563 1.406 1.406 0 .782-.469 1.703-1.297 2.594L.297-.125V0h3.89zm0 0" style="stroke:none"/></symbol><symbol id="k" overflow="visible" style="overflow:visible"><path d="M6.563-2.297c.171 0 .359 0 .359-.203 0-.188-.188-.188-.36-.188h-5.39c-.172 0-.344 0-.344.188 0 .203.172.203.344.203zm0 0" style="stroke:none"/></symbol><symbol id="x" overflow="visible" style="overflow:visible"><path d="M4-1.11c-.078.094-.125.157-.219.266-.219.313-.344.406-.453.406-.14 0-.234-.124-.312-.406-.016-.078-.032-.14-.032-.172-.25-1.015-.359-1.468-.359-1.609.438-.781.797-1.219.969-1.219.062 0 .14.031.25.078.11.079.187.094.265.094.204 0 .344-.14.344-.36 0-.202-.172-.359-.406-.359-.438 0-.813.36-1.5 1.422l-.11-.547c-.14-.687-.25-.875-.53-.875-.22 0-.548.079-1.157.282l-.11.046.032.141c.39-.078.469-.11.562-.11.25 0 .313.095.454.688l.28 1.235-.812 1.156C.953-.641.75-.47.641-.47a.554.554 0 0 1-.25-.094.755.755 0 0 0-.329-.093c-.187 0-.328.14-.328.344 0 .265.204.421.5.421.297 0 .422-.093.922-.703.266-.312.485-.578.89-1.156L2.36-.562c.125.515.25.671.579.671.374 0 .624-.234 1.203-1.14zm0 0" style="stroke:none"/></symbol><symbol id="l" overflow="visible" style="overflow:visible"><path d="m4.734-1.36-.125-.062c-.375.578-.5.672-.953.672H1.281l1.672-1.766c.89-.921 1.281-1.687 1.281-2.453 0-1-.812-1.765-1.859-1.765-.547 0-1.063.218-1.422.609-.328.344-.469.656-.64 1.375l.203.047C.922-5.687 1.28-6 1.969-6c.828 0 1.406.563 1.406 1.406 0 .782-.469 1.703-1.297 2.594L.297-.125V0h3.89zm0 0" style="stroke:none"/></symbol><symbol id="m" overflow="visible" style="overflow:visible"><path d="M6.563-2.297c.171 0 .359 0 .359-.203 0-.188-.188-.188-.36-.188h-5.39c-.172 0-.344 0-.344.188 0 .203.172.203.344.203zm0 0" style="stroke:none"/></symbol><symbol id="n" overflow="visible" style="overflow:visible"><path d="M4-1.11c-.078.094-.125.157-.219.266-.219.313-.344.406-.453.406-.14 0-.234-.124-.312-.406-.016-.078-.032-.14-.032-.172-.25-1.015-.359-1.468-.359-1.609.438-.781.797-1.219.969-1.219.062 0 .14.031.25.078.11.079.187.094.265.094.204 0 .344-.14.344-.36 0-.202-.172-.359-.406-.359-.438 0-.813.36-1.5 1.422l-.11-.547c-.14-.687-.25-.875-.53-.875-.22 0-.548.079-1.157.282l-.11.046.032.141c.39-.078.469-.11.562-.11.25 0 .313.095.454.688l.28 1.235-.812 1.156C.953-.641.75-.47.641-.47a.554.554 0 0 1-.25-.094.755.755 0 0 0-.329-.093c-.187 0-.328.14-.328.344 0 .265.204.421.5.421.297 0 .422-.093.922-.703.266-.312.485-.578.89-1.156L2.36-.562c.125.515.25.671.579.671.374 0 .624-.234 1.203-1.14zm0 0" style="stroke:none"/></symbol><symbol id="y" overflow="visible"><path d="M4.64-1.172c-.546.688-.656.797-.827.797-.079 0-.157-.094-.157-.188 0-.093.156-.718.328-1.234.297-.953.485-1.687.485-1.937 0-.391-.266-.657-.657-.657-.656 0-1.359.657-2.28 2.094l1.187-4.469-.047-.046c-.578.14-.969.203-1.563.265v.156h.25c.016 0 .032 0 .032-.015.14-.047.39.11.39.25s-.062.39-.14.687c-.016 0-.047.14-.11.36L.188 0h.75c.39-1.531.53-1.875.921-2.484.516-.782 1.204-1.407 1.547-1.407.156 0 .281.125.281.25 0 .047-.03.172-.062.329L3.078-1.25c-.14.5-.203.797-.203.922 0 .266.172.422.438.422.5 0 .859-.266 1.453-1.14Zm0 0" style="stroke:none"/></symbol><symbol id="B" overflow="visible"><path d="M4-1.11c-.078.094-.125.157-.219.266-.219.313-.344.406-.453.406-.14 0-.234-.124-.312-.406-.016-.078-.032-.14-.032-.172-.25-1.015-.359-1.468-.359-1.609.438-.781.797-1.219.969-1.219.062 0 .14.031.25.078.11.079.187.094.265.094.204 0 .344-.14.344-.36 0-.202-.172-.359-.406-.359-.438 0-.813.36-1.5 1.422l-.11-.547c-.14-.687-.25-.875-.53-.875-.22 0-.548.079-1.157.282l-.11.046.032.141c.39-.078.469-.11.562-.11.25 0 .313.095.454.688l.28 1.235-.812 1.156C.953-.641.75-.47.641-.47a.554.554 0 0 1-.25-.094.755.755 0 0 0-.329-.093c-.187 0-.328.14-.328.344 0 .265.204.421.5.421.297 0 .422-.093.922-.703.266-.312.485-.578.89-1.156L2.36-.562c.125.515.25.671.579.671.374 0 .624-.234 1.203-1.14Zm0 0" style="stroke:none"/></symbol><symbol id="A" overflow="visible"><path d="M3.297 2.39c0-.03 0-.046-.172-.218C1.891.922 1.562-.968 1.562-2.5c0-1.734.375-3.469 1.61-4.703.125-.125.125-.14.125-.172 0-.078-.031-.11-.094-.11-.11 0-1 .688-1.594 1.954C1.11-4.438.984-3.328.984-2.5c0 .781.11 1.984.657 3.125C2.25 1.844 3.094 2.5 3.203 2.5c.063 0 .094-.031.094-.11Zm0 0" style="stroke:none"/></symbol><symbol id="C" overflow="visible"><path d="M2.875-2.5c0-.766-.11-1.969-.656-3.11C1.625-6.827.766-7.483.672-7.483a.107.107 0 0 0-.11.109c0 .031 0 .047.188.234.984.985 1.547 2.563 1.547 4.641 0 1.719-.36 3.469-1.594 4.719-.14.125-.14.14-.14.172 0 .062.046.109.109.109.094 0 1-.688 1.578-1.953.516-1.094.625-2.203.625-3.047Zm0 0" style="stroke:none"/></symbol><symbol id="z" overflow="visible"><path d="M1.86-3.5c.046-.094.077-.156.077-.234 0-.22-.203-.391-.421-.391-.204 0-.344.14-.391.328L.25-.562c0 .015-.031.093-.031.093 0 .078.187.14.25.14.047 0 .047-.03.094-.124Zm0 0" style="stroke:none"/></symbol></defs><g style="display:inline" transform="translate(-624.764 -280.478)"><g clip-path="url(#a)" style="clip-rule:nonzero" transform="translate(2680.66 -638.749) scale(4.16338)"><path d="M-88.897 68.034c0 1-.813 1.813-1.813 1.813a1.811 1.811 0 0 1-1.812-1.813 1.812 1.812 0 1 1 3.625 0zm0 0" style="fill:none;stroke:red;stroke-width:.79701;stroke-linecap:butt;stroke-linejoin:miter;stroke-miterlimit:10;stroke-opacity:1" transform="matrix(1 0 0 -1 305.624 333.831)"/></g><g clip-path="url(#b)" style="clip-rule:nonzero" transform="translate(2680.66 -638.749) scale(4.16338)"><path d="M92.524-68.032a1.814 1.814 0 1 1-3.627-.003 1.814 1.814 0 0 1 3.627.003zm0 0" style="fill:none;stroke:red;stroke-width:.79701;stroke-linecap:butt;stroke-linejoin:miter;stroke-miterlimit:10;stroke-opacity:1" transform="matrix(1 0 0 -1 305.624 333.831)"/></g><g clip-path="url(#c)" style="clip-rule:nonzero" transform="translate(2680.66 -638.749) scale(4.16338)"><path d="M92.524 68.034a1.814 1.814 0 1 1-3.627-.002 1.814 1.814 0 0 1 3.627.002zm0 0" style="fill:none;stroke:red;stroke-width:.79701;stroke-linecap:butt;stroke-linejoin:miter;stroke-miterlimit:10;stroke-opacity:1" transform="matrix(1 0 0 -1 305.624 333.831)"/></g><g clip-path="url(#a)" style="clip-rule:nonzero" transform="translate(3559.954 -638.749) scale(4.16338)"><path d="M-88.897 68.034c0 1-.813 1.813-1.813 1.813a1.811 1.811 0 0 1-1.812-1.813 1.812 1.812 0 1 1 3.625 0zm0 0" style="fill:none;stroke:red;stroke-width:.79701;stroke-linecap:butt;stroke-linejoin:miter;stroke-miterlimit:10;stroke-opacity:1" transform="matrix(1 0 0 -1 305.624 333.831)"/></g><g clip-path="url(#b)" style="clip-rule:nonzero" transform="translate(3559.954 -638.749) scale(4.16338)"><path d="M92.524-68.032a1.814 1.814 0 1 1-3.627-.003 1.814 1.814 0 0 1 3.627.003zm0 0" style="fill:none;stroke:red;stroke-width:.79701;stroke-linecap:butt;stroke-linejoin:miter;stroke-miterlimit:10;stroke-opacity:1" transform="matrix(1 0 0 -1 305.624 333.831)"/></g><g clip-path="url(#c)" style="clip-rule:nonzero" transform="translate(3559.954 -638.749) scale(4.16338)"><path d="M92.524 68.034a1.814 1.814 0 1 1-3.627-.002 1.814 1.814 0 0 1 3.627.002zm0 0" style="fill:none;stroke:red;stroke-width:.79701;stroke-linecap:butt;stroke-linejoin:miter;stroke-miterlimit:10;stroke-opacity:1" transform="matrix(1 0 0 -1 305.624 333.831)"/></g><g clip-path="url(#d)" style="clip-rule:nonzero" transform="translate(-7260.635 -3364.18) scale(4.16338)"><path d="M-88.897 68.034c0 1-.813 1.813-1.813 1.813a1.811 1.811 0 0 1-1.812-1.813 1.812 1.812 0 1 1 3.625 0zm0 0" style="fill:none;stroke:red;stroke-width:.79701;stroke-linecap:butt;stroke-linejoin:miter;stroke-miterlimit:10;stroke-opacity:1" transform="matrix(1 0 0 -1 305.624 333.831)"/></g><g clip-path="url(#e)" style="clip-rule:nonzero" transform="translate(-7260.635 -3364.18) scale(4.16338)"><path d="M92.524-68.032a1.814 1.814 0 1 1-3.627-.003 1.814 1.814 0 0 1 3.627.003zm0 0" style="fill:none;stroke:red;stroke-width:.79701;stroke-linecap:butt;stroke-linejoin:miter;stroke-miterlimit:10;stroke-opacity:1" transform="matrix(1 0 0 -1 305.624 333.831)"/></g><g clip-path="url(#f)" style="clip-rule:nonzero" transform="translate(-7260.635 -3364.18) scale(4.16338)"><path d="M92.524 68.034a1.814 1.814 0 1 1-3.627-.002 1.814 1.814 0 0 1 3.627.002zm0 0" style="fill:none;stroke:red;stroke-width:.79701;stroke-linecap:butt;stroke-linejoin:miter;stroke-miterlimit:10;stroke-opacity:1" transform="matrix(1 0 0 -1 305.624 333.831)"/></g><g clip-path="url(#d)" style="clip-rule:nonzero" transform="translate(-6381.34 -3364.18) scale(4.16338)"><path d="M-88.897 68.034c0 1-.813 1.813-1.813 1.813a1.811 1.811 0 0 1-1.812-1.813 1.812 1.812 0 1 1 3.625 0zm0 0" style="fill:none;stroke:red;stroke-width:.79701;stroke-linecap:butt;stroke-linejoin:miter;stroke-miterlimit:10;stroke-opacity:1" transform="matrix(1 0 0 -1 305.624 333.831)"/></g><g clip-path="url(#e)" style="clip-rule:nonzero" transform="translate(-6381.34 -3364.18) scale(4.16338)"><path d="M92.524-68.032a1.814 1.814 0 1 1-3.627-.003 1.814 1.814 0 0 1 3.627.003zm0 0" style="fill:none;stroke:red;stroke-width:.79701;stroke-linecap:butt;stroke-linejoin:miter;stroke-miterlimit:10;stroke-opacity:1" transform="matrix(1 0 0 -1 305.624 333.831)"/></g><g clip-path="url(#f)" style="clip-rule:nonzero" transform="translate(-6381.34 -3364.18) scale(4.16338)"><path d="M92.524 68.034a1.814 1.814 0 1 1-3.627-.002 1.814 1.814 0 0 1 3.627.002zm0 0" style="fill:none;stroke:red;stroke-width:.79701;stroke-linecap:butt;stroke-linejoin:miter;stroke-miterlimit:10;stroke-opacity:1" transform="matrix(1 0 0 -1 305.624 333.831)"/></g><g clip-path="url(#g)" style="clip-rule:nonzero" transform="translate(-4573.814 3359.285) scale(4.16338)"><path d="M-88.897 68.034c0 1-.813 1.813-1.813 1.813a1.811 1.811 0 0 1-1.812-1.813 1.812 1.812 0 1 1 3.625 0zm0 0" style="fill:none;stroke:red;stroke-width:.79701;stroke-linecap:butt;stroke-linejoin:miter;stroke-miterlimit:10;stroke-opacity:1" transform="matrix(1 0 0 -1 305.624 333.831)"/></g><g clip-path="url(#h)" style="clip-rule:nonzero" transform="translate(-4573.814 3359.285) scale(4.16338)"><path d="M92.524-68.032a1.814 1.814 0 1 1-3.627-.003 1.814 1.814 0 0 1 3.627.003zm0 0" style="fill:none;stroke:red;stroke-width:.79701;stroke-linecap:butt;stroke-linejoin:miter;stroke-miterlimit:10;stroke-opacity:1" transform="matrix(1 0 0 -1 305.624 333.831)"/></g><g clip-path="url(#i)" style="clip-rule:nonzero" transform="translate(-4573.814 3359.285) scale(4.16338)"><path d="M92.524 68.034a1.814 1.814 0 1 1-3.627-.002 1.814 1.814 0 0 1 3.627.002zm0 0" style="fill:none;stroke:red;stroke-width:.79701;stroke-linecap:butt;stroke-linejoin:miter;stroke-miterlimit:10;stroke-opacity:1" transform="matrix(1 0 0 -1 305.624 333.831)"/></g><g clip-path="url(#g)" style="clip-rule:nonzero" transform="translate(-3694.52 3359.285) scale(4.16338)"><path d="M-88.897 68.034c0 1-.813 1.813-1.813 1.813a1.811 1.811 0 0 1-1.812-1.813 1.812 1.812 0 1 1 3.625 0zm0 0" style="fill:none;stroke:red;stroke-width:.79701;stroke-linecap:butt;stroke-linejoin:miter;stroke-miterlimit:10;stroke-opacity:1" transform="matrix(1 0 0 -1 305.624 333.831)"/></g><g clip-path="url(#h)" style="clip-rule:nonzero" transform="translate(-3694.52 3359.285) scale(4.16338)"><path d="M92.524-68.032a1.814 1.814 0 1 1-3.627-.003 1.814 1.814 0 0 1 3.627.003zm0 0" style="fill:none;stroke:red;stroke-width:.79701;stroke-linecap:butt;stroke-linejoin:miter;stroke-miterlimit:10;stroke-opacity:1" transform="matrix(1 0 0 -1 305.624 333.831)"/></g><g clip-path="url(#i)" style="clip-rule:nonzero" transform="translate(-3694.52 3359.285) scale(4.16338)"><path d="M92.524 68.034a1.814 1.814 0 1 1-3.627-.002 1.814 1.814 0 0 1 3.627.002zm0 0" style="fill:none;stroke:red;stroke-width:.79701;stroke-linecap:butt;stroke-linejoin:miter;stroke-miterlimit:10;stroke-opacity:1" transform="matrix(1 0 0 -1 305.624 333.831)"/></g><path d="M383.57 287.623V107.188M383.57 447.344V316.648M312.702 447.344V107.188M241.833 447.344V107.188M170.963 447.344V107.188M100.094 287.623V107.188M100.094 447.344V316.29M234.353 135.538H411.91M71.754 135.538h142.532M71.754 206.397h340.157M71.754 277.266h340.157M71.754 348.135h340.157M234.353 419.005h177.558M71.754 419.005h124.257" style="fill:none;stroke:#9e9ed1;stroke-width:.49812502;stroke-linecap:butt;stroke-linejoin:miter;stroke-miterlimit:10;stroke-opacity:1" transform="translate(624.764 280.478)"/><path d="M696.518 557.804h353M866.596 727.823v-352.85" style="fill:none;stroke:#000;stroke-width:.99625003;stroke-linecap:butt;stroke-linejoin:miter;stroke-miterlimit:10;stroke-opacity:1"/><use xlink:href="#j" width="100%" height="100%" x="347.363" y="587.952" style="fill:#b0b0d9;fill-opacity:1" transform="matrix(2.5 0 0 2.5 133.696 -879.923)"/><use xlink:href="#k" width="100%" height="100%" x="230.105" y="587.538" style="fill:#b0b0d9;fill-opacity:1" transform="matrix(2.5 0 0 2.5 133.696 -878.723)"/><use xlink:href="#j" width="100%" height="100%" x="237.905" y="587.538" style="fill:#b0b0d9;fill-opacity:1" transform="matrix(2.5 0 0 2.5 133.696 -878.723)"/><use xlink:href="#j" width="100%" height="100%" x="284.15" y="522.187" style="fill:#b0b0d9;fill-opacity:1" transform="matrix(2.5 0 0 2.5 132.98 -882.008)"/><use xlink:href="#k" width="100%" height="100%" x="276.027" y="635.161" style="fill:#b0b0d9;fill-opacity:1" transform="matrix(2.5 0 0 2.5 133.696 -881.123)"/><use xlink:href="#j" width="100%" height="100%" x="283.827" y="635.161" style="fill:#b0b0d9;fill-opacity:1" transform="matrix(2.5 0 0 2.5 133.696 -881.123)"/><path d="M1045.58 552.93c.303 1.827 3.653 4.571 4.57 4.874-.917.312-4.267 3.057-4.57 4.883M861.713 378.688c1.827-.302 4.58-3.662 4.883-4.58.303.918 3.047 4.278 4.883 4.58" style="fill:none;stroke:#000;stroke-width:1.39475012;stroke-linecap:round;stroke-linejoin:round;stroke-miterlimit:10;stroke-opacity:1"/><path d="m696.518 595.584 2.832-3.691 1.416-1.768 1.416-1.846 1.416-1.767 1.416-1.846 1.426-1.768 1.416-1.777 1.416-1.768 1.416-1.699 1.416-1.777 1.416-1.7 1.416-1.767 1.426-1.699 1.416-1.709 2.832-3.399 1.416-1.63 1.416-1.7 1.416-1.63 1.426-1.7 4.248-4.892 1.416-1.553 1.416-1.63 1.416-1.563 1.426-1.631 1.416-1.553 2.832-3.125 1.416-1.553 1.416-1.494 1.416-1.553 1.426-1.494 1.416-1.552 1.416-1.495 1.416-1.484 1.416-1.494 1.416-1.416 2.832-2.969 8.505-8.506 1.416-1.347 1.426-1.348 1.407-1.348 1.425-1.347 1.416-1.348 1.416-1.27 1.416-1.279 1.416-1.27 1.416-1.21 1.426-1.133 1.416-1.133 2.832-2.129 1.416-.996 1.416-.986 1.416-.918 1.426-.928 2.832-1.7 1.416-.78 1.416-.85 1.416-.781 1.416-.703 1.416-.782 1.426-.78 1.416-.704 2.832-1.426 1.416-.703 1.416-.713 1.416-.635 1.416-.712 1.426-.635 1.416-.703 1.416-.645 2.832-1.27 1.416-.576 1.416-.634 1.426-.567 1.416-.635 5.664-2.265 1.426-.498 1.416-.567 2.832-.996 1.416-.566 1.416-.498 1.416-.42 2.832-.996 1.425-.42 1.416-.498 1.416-.43 1.417-.42 1.416-.43 1.416-.42 1.425-.36 1.416-.42 1.416-.362 4.248-1.055 1.416-.36 1.416-.353 1.426-.351 2.832-.567 1.416-.351 1.416-.293 1.416-.283 1.416-.205 1.426-.284 1.416-.283 4.248-.644 1.416-.205 2.832-.43 1.426-.215 1.416-.137 1.416-.146 1.416-.215 1.416-.137 1.416-.146 1.416-.068 1.426-.137 1.406-.146 1.426-.068 1.416-.068 1.416-.078 4.248-.205 1.426-.078h2.832l1.416-.068h2.832l1.416.068h2.842l1.416.078 4.248.205 1.425.078 1.416.068 1.417.136 1.416.078 1.416.137 1.416.147 1.416.136 2.832.43 1.425.205 1.416.293 4.248 1.055 1.416.43 1.426.497 1.406.567 1.426.566 2.832 1.27 1.416.713 2.832 1.562 1.426.772 1.416.859 2.832 1.7 2.832 1.835 1.416.928 1.416.918 1.426.918 1.416.996 1.416.918 2.832 1.992 1.416.918 1.416.996 1.426 1.055 1.416.996 1.416.986 5.664 4.258 1.426 1.065 1.406 1.054 1.426 1.065 1.416 1.132 1.416 1.143 1.416 1.064 1.426 1.124 1.406 1.142 1.426 1.201 2.832 2.266 1.416 1.21 2.832 2.403 1.416 1.211 1.426 1.201 1.416 1.211 1.416 1.201 1.416 1.28 1.416 1.27 1.416 1.21 1.416 1.27 1.416 1.28 1.425 1.347 1.416 1.27 1.417 1.278 1.416 1.348 1.416 1.338 2.832 2.695 1.425 1.348 2.832 2.695 2.832 2.832h1.416" style="fill:none;stroke:red;stroke-width:1.9925251;stroke-linecap:butt;stroke-linejoin:miter;stroke-miterlimit:10;stroke-opacity:1"/><path d="M901.948 239.823V107.007M901.948 447.164v-179.6M831.08 447.164V107.008M760.21 447.164V107.008M689.34 447.164V107.008M618.472 239.854V107.007M618.472 447.164V267.595M753.05 135.357h177.238M590.132 135.357h142.14M590.132 206.217h340.156M590.132 277.086h340.156M590.132 347.955h340.156M753.05 418.824h177.238M590.132 418.824h124.024" style="fill:none;stroke:#9e9ed1;stroke-width:.49812502;stroke-linecap:butt;stroke-linejoin:miter;stroke-miterlimit:10;stroke-opacity:1" transform="translate(624.764 280.478)"/><path d="M1214.896 557.564h340.156M1384.974 727.642V374.544" style="fill:none;stroke:#000;stroke-width:.99625003;stroke-linecap:butt;stroke-linejoin:miter;stroke-miterlimit:10;stroke-opacity:1"/><use xlink:href="#l" width="100%" height="100%" x="347.363" y="569.809" style="fill:#b0b0d9;fill-opacity:1" transform="matrix(2.5 0 0 2.5 652.073 -881.557)"/><use xlink:href="#m" width="100%" height="100%" x="230.105" y="569.396" style="fill:#b0b0d9;fill-opacity:1" transform="matrix(2.5 0 0 2.5 652.073 -880.543)"/><use xlink:href="#l" width="100%" height="100%" x="237.905" y="569.396" style="fill:#b0b0d9;fill-opacity:1" transform="matrix(2.5 0 0 2.5 652.073 -880.543)"/><use xlink:href="#l" width="100%" height="100%" x="284.15" y="522.187" style="fill:#b0b0d9;fill-opacity:1" transform="matrix(2.5 0 0 2.5 651.44 -882.033)"/><use xlink:href="#m" width="100%" height="100%" x="276.027" y="635.161" style="fill:#b0b0d9;fill-opacity:1" transform="matrix(2.5 0 0 2.5 652.337 -881.303)"/><use xlink:href="#l" width="100%" height="100%" x="283.827" y="635.161" style="fill:#b0b0d9;fill-opacity:1" transform="matrix(2.5 0 0 2.5 652.337 -881.303)"/><path d="M1555.052 557.564h14.17" style="fill:none;stroke:#000;stroke-width:.99625003;stroke-linecap:butt;stroke-linejoin:miter;stroke-miterlimit:10;stroke-opacity:1"/><path d="M1568.978 557.564h-1.368" style="fill:none;stroke:#000;stroke-width:1.74347508;stroke-linecap:butt;stroke-linejoin:miter;stroke-miterlimit:10;stroke-opacity:1"/><path d="M1563.958 552.69c.303 1.827 3.652 4.571 4.57 4.874-.917.312-4.267 3.057-4.57 4.883M1380.091 378.69c1.826-.303 4.58-3.663 4.883-4.58.303.917 3.047 4.277 4.883 4.58" style="fill:none;stroke:#000;stroke-width:1.39475012;stroke-linecap:round;stroke-linejoin:round;stroke-miterlimit:10;stroke-opacity:1"/><use xlink:href="#n" width="100%" height="100%" x="378.808" y="577.658" style="fill:#000;fill-opacity:1" transform="translate(495.454 -1117.946) scale(2.91118)"/><path d="M1214.896 581.167h61.084l.351.068h.362l.351.078h.352l.351.068.361.068.704.137.361.147.351.068.352.215.361.136.352.215 1.055.85.361.43.352.42.36.497.352.567.352.635.352.712.351.782.361.918.352.996.352 1.064.36 1.201.352 1.28.352 1.416.352 1.484.36 1.63.352 1.7.352 1.846.361 1.914.352 2.05.351 2.13.362 2.197.351 2.265.352 2.344.351 2.412.362 2.471.351 2.48.352 2.56.361 2.48.352 2.548.351 2.48.352 2.413.361 2.402.352 2.344.351 2.266.352 2.129.361 2.05.352 1.914.351 1.846.362 1.7.351 1.484.352 1.426.351 1.2.362 1.065.351.918.352.85.361.634.352.499.351.36.352.206.361.146.352.068h.713l.351-.136.352-.283.361-.362.352-.42.351-.644.352-.772.361-.927.352-1.065.351-1.201.352-1.348.361-1.562.352-1.621.351-1.778.362-1.914.351-2.05.352-2.13.361-2.265.352-2.275.351-2.403.352-2.48.361-2.48.352-2.481.351-2.549.352-2.48.361-2.48.352-2.481.351-2.413.362-2.412.351-2.265.703-4.395.362-1.982.351-1.983.352-1.845.361-1.7.352-1.63.351-1.563.352-1.416.361-1.27.352-1.21.351-1.065.362-.986.351-.928.352-.771.351-.782.362-.634.351-.567.352-.498.351-.43.362-.42.351-.36.361-.284.352-.215.352-.205.351-.215.361-.146.352-.137.352-.146.351-.068.361-.068.704-.137h.351l.361-.078h.352l.352-.068h111.474l.362.068h.351l.352.078h.351l.362.068h.351l.352.068.361.068.352.146.351.068.352.137.361.146.352.137.351.147.361.214.704.567.361.283.352.352.351.43.352.42.361.566.352.566.351.645.352.634.361.782.352.85.351.917.352 1.065.361 1.064.352 1.201.351 1.28.361 1.347.352 1.485.352 1.562.361 1.7.351 1.767.352 1.846.352 1.982.361 2.06.351 2.12.352 2.197.361 2.275.352 2.403.351 2.412.352 2.48.361 2.48.704 5.098.351 2.627.361 2.55.352 2.626.352 2.549.36 2.549.352 2.48.352 2.412.352 2.334.36 2.344.352 2.197.352 2.051.361 2.06.352 1.837.351 1.777.352 1.7.361 1.484.352 1.425.351 1.27.362 1.133.351.927.352.918.351.713.362.567.351.488.352.361.351.284.362.136.351.068h.713l.352-.068.351-.136.352-.284.361-.361.352-.488.361-.567.352-.713.351-.918.352-.927.351-1.133.362-1.27.351-1.425.352-1.485.361-1.699.352-1.777.351-1.836.362-2.06.351-2.052.352-2.197.351-2.344.362-2.334.351-2.412.352-2.48.361-2.549.352-2.549.351-2.627.352-2.549.361-2.627.703-5.097.362-2.48.351-2.481.352-2.412.351-2.403.362-2.275.351-2.197.352-2.12.351-2.06.362-1.982.351-1.846.352-1.768.361-1.699.352-1.562.351-1.485.352-1.347.361-1.28.352-1.2.351-1.065.362-1.065.351-.918.352-.85.361-.78.352-.635.351-.645.352-.566.361-.567.352-.42.351-.43.352-.35.361-.284.703-.567.361-.214.352-.147.352-.137.361-.146.352-.137.351-.068.352-.146.361-.068.352-.068h.351l.352-.068h.361l.352-.078h.351l.361-.068h64.483" style="fill:none;stroke:red;stroke-width:1.9925251;stroke-linecap:butt;stroke-linejoin:miter;stroke-miterlimit:10;stroke-opacity:1"/><g clip-path="url(#o)" style="clip-rule:nonzero" transform="translate(2680.517 -1181.938) scale(4.16338)"><path d="M-88.897 68.034c0 1-.813 1.813-1.813 1.813a1.811 1.811 0 0 1-1.812-1.813 1.812 1.812 0 1 1 3.625 0zm0 0" style="fill:none;stroke:red;stroke-width:.79701;stroke-linecap:butt;stroke-linejoin:miter;stroke-miterlimit:10;stroke-opacity:1" transform="matrix(1 0 0 -1 305.624 333.831)"/></g><g clip-path="url(#p)" style="clip-rule:nonzero" transform="translate(2680.517 -1181.938) scale(4.16338)"><path d="M92.524-68.032a1.814 1.814 0 1 1-3.627-.003 1.814 1.814 0 0 1 3.627.003zm0 0" style="fill:none;stroke:red;stroke-width:.79701;stroke-linecap:butt;stroke-linejoin:miter;stroke-miterlimit:10;stroke-opacity:1" transform="matrix(1 0 0 -1 305.624 333.831)"/></g><g clip-path="url(#q)" style="clip-rule:nonzero" transform="translate(2680.517 -1181.938) scale(4.16338)"><path d="M92.524 68.034a1.814 1.814 0 1 1-3.627-.002 1.814 1.814 0 0 1 3.627.002zm0 0" style="fill:none;stroke:red;stroke-width:.79701;stroke-linecap:butt;stroke-linejoin:miter;stroke-miterlimit:10;stroke-opacity:1" transform="matrix(1 0 0 -1 305.624 333.831)"/></g><g clip-path="url(#o)" style="clip-rule:nonzero" transform="translate(3559.811 -1181.938) scale(4.16338)"><path d="M-88.897 68.034c0 1-.813 1.813-1.813 1.813a1.811 1.811 0 0 1-1.812-1.813 1.812 1.812 0 1 1 3.625 0zm0 0" style="fill:none;stroke:red;stroke-width:.79701;stroke-linecap:butt;stroke-linejoin:miter;stroke-miterlimit:10;stroke-opacity:1" transform="matrix(1 0 0 -1 305.624 333.831)"/></g><g clip-path="url(#p)" style="clip-rule:nonzero" transform="translate(3559.811 -1181.938) scale(4.16338)"><path d="M92.524-68.032a1.814 1.814 0 1 1-3.627-.003 1.814 1.814 0 0 1 3.627.003zm0 0" style="fill:none;stroke:red;stroke-width:.79701;stroke-linecap:butt;stroke-linejoin:miter;stroke-miterlimit:10;stroke-opacity:1" transform="matrix(1 0 0 -1 305.624 333.831)"/></g><g clip-path="url(#q)" style="clip-rule:nonzero" transform="translate(3559.811 -1181.938) scale(4.16338)"><path d="M92.524 68.034a1.814 1.814 0 1 1-3.627-.002 1.814 1.814 0 0 1 3.627.002zm0 0" style="fill:none;stroke:red;stroke-width:.79701;stroke-linecap:butt;stroke-linejoin:miter;stroke-miterlimit:10;stroke-opacity:1" transform="matrix(1 0 0 -1 305.624 333.831)"/></g><g clip-path="url(#r)" style="clip-rule:nonzero" transform="translate(-7260.778 -3907.369) scale(4.16338)"><path d="M-88.897 68.034c0 1-.813 1.813-1.813 1.813a1.811 1.811 0 0 1-1.812-1.813 1.812 1.812 0 1 1 3.625 0zm0 0" style="fill:none;stroke:red;stroke-width:.79701;stroke-linecap:butt;stroke-linejoin:miter;stroke-miterlimit:10;stroke-opacity:1" transform="matrix(1 0 0 -1 305.624 333.831)"/></g><g clip-path="url(#s)" style="clip-rule:nonzero" transform="translate(-7260.778 -3907.369) scale(4.16338)"><path d="M92.524-68.032a1.814 1.814 0 1 1-3.627-.003 1.814 1.814 0 0 1 3.627.003zm0 0" style="fill:none;stroke:red;stroke-width:.79701;stroke-linecap:butt;stroke-linejoin:miter;stroke-miterlimit:10;stroke-opacity:1" transform="matrix(1 0 0 -1 305.624 333.831)"/></g><g clip-path="url(#t)" style="clip-rule:nonzero" transform="translate(-7260.778 -3907.369) scale(4.16338)"><path d="M92.524 68.034a1.814 1.814 0 1 1-3.627-.002 1.814 1.814 0 0 1 3.627.002zm0 0" style="fill:none;stroke:red;stroke-width:.79701;stroke-linecap:butt;stroke-linejoin:miter;stroke-miterlimit:10;stroke-opacity:1" transform="matrix(1 0 0 -1 305.624 333.831)"/></g><g clip-path="url(#r)" style="clip-rule:nonzero" transform="translate(-6381.484 -3907.369) scale(4.16338)"><path d="M-88.897 68.034c0 1-.813 1.813-1.813 1.813a1.811 1.811 0 0 1-1.812-1.813 1.812 1.812 0 1 1 3.625 0zm0 0" style="fill:none;stroke:red;stroke-width:.79701;stroke-linecap:butt;stroke-linejoin:miter;stroke-miterlimit:10;stroke-opacity:1" transform="matrix(1 0 0 -1 305.624 333.831)"/></g><g clip-path="url(#s)" style="clip-rule:nonzero" transform="translate(-6381.484 -3907.369) scale(4.16338)"><path d="M92.524-68.032a1.814 1.814 0 1 1-3.627-.003 1.814 1.814 0 0 1 3.627.003zm0 0" style="fill:none;stroke:red;stroke-width:.79701;stroke-linecap:butt;stroke-linejoin:miter;stroke-miterlimit:10;stroke-opacity:1" transform="matrix(1 0 0 -1 305.624 333.831)"/></g><g clip-path="url(#t)" style="clip-rule:nonzero" transform="translate(-6381.484 -3907.369) scale(4.16338)"><path d="M92.524 68.034a1.814 1.814 0 1 1-3.627-.002 1.814 1.814 0 0 1 3.627.002zm0 0" style="fill:none;stroke:red;stroke-width:.79701;stroke-linecap:butt;stroke-linejoin:miter;stroke-miterlimit:10;stroke-opacity:1" transform="matrix(1 0 0 -1 305.624 333.831)"/></g><g clip-path="url(#u)" style="clip-rule:nonzero" transform="translate(-4573.957 2816.095) scale(4.16338)"><path d="M-88.897 68.034c0 1-.813 1.813-1.813 1.813a1.811 1.811 0 0 1-1.812-1.813 1.812 1.812 0 1 1 3.625 0zm0 0" style="fill:none;stroke:red;stroke-width:.79701;stroke-linecap:butt;stroke-linejoin:miter;stroke-miterlimit:10;stroke-opacity:1" transform="matrix(1 0 0 -1 305.624 333.831)"/></g><g clip-path="url(#v)" style="clip-rule:nonzero" transform="translate(-4573.957 2816.095) scale(4.16338)"><path d="M92.524-68.032a1.814 1.814 0 1 1-3.627-.003 1.814 1.814 0 0 1 3.627.003zm0 0" style="fill:none;stroke:red;stroke-width:.79701;stroke-linecap:butt;stroke-linejoin:miter;stroke-miterlimit:10;stroke-opacity:1" transform="matrix(1 0 0 -1 305.624 333.831)"/></g><g clip-path="url(#w)" style="clip-rule:nonzero" transform="translate(-4573.957 2816.095) scale(4.16338)"><path d="M92.524 68.034a1.814 1.814 0 1 1-3.627-.002 1.814 1.814 0 0 1 3.627.002zm0 0" style="fill:none;stroke:red;stroke-width:.79701;stroke-linecap:butt;stroke-linejoin:miter;stroke-miterlimit:10;stroke-opacity:1" transform="matrix(1 0 0 -1 305.624 333.831)"/></g><g clip-path="url(#u)" style="clip-rule:nonzero" transform="translate(-3694.663 2816.095) scale(4.16338)"><path d="M-88.897 68.034c0 1-.813 1.813-1.813 1.813a1.811 1.811 0 0 1-1.812-1.813 1.812 1.812 0 1 1 3.625 0zm0 0" style="fill:none;stroke:red;stroke-width:.79701;stroke-linecap:butt;stroke-linejoin:miter;stroke-miterlimit:10;stroke-opacity:1" transform="matrix(1 0 0 -1 305.624 333.831)"/></g><g clip-path="url(#v)" style="clip-rule:nonzero" transform="translate(-3694.663 2816.095) scale(4.16338)"><path d="M92.524-68.032a1.814 1.814 0 1 1-3.627-.003 1.814 1.814 0 0 1 3.627.003zm0 0" style="fill:none;stroke:red;stroke-width:.79701;stroke-linecap:butt;stroke-linejoin:miter;stroke-miterlimit:10;stroke-opacity:1" transform="matrix(1 0 0 -1 305.624 333.831)"/></g><g clip-path="url(#w)" style="clip-rule:nonzero" transform="translate(-3694.663 2816.095) scale(4.16338)"><path d="M92.524 68.034a1.814 1.814 0 1 1-3.627-.002 1.814 1.814 0 0 1 3.627.002zm0 0" style="fill:none;stroke:red;stroke-width:.79701;stroke-linecap:butt;stroke-linejoin:miter;stroke-miterlimit:10;stroke-opacity:1" transform="matrix(1 0 0 -1 305.624 333.831)"/></g><use xlink:href="#x" width="100%" height="100%" x="378.808" y="577.658" style="fill:#000;fill-opacity:1" transform="translate(-22.924 -1117.706) scale(2.91118)"/><g style="fill:#000;fill-opacity:1" transform="matrix(2.93452 0 0 2.93452 279.794 -1510.961)"><use xlink:href="#y" width="100%" height="100%" x="365.856" y="630.807" style="fill:#000"/></g><g style="fill:#000;fill-opacity:1" transform="matrix(2.93452 0 0 2.93452 279.794 -1510.961)"><use xlink:href="#z" width="100%" height="100%" x="370.896" y="627.207" style="fill:#000"/></g><g style="fill:#000;fill-opacity:1" transform="matrix(2.93452 0 0 2.93452 279.794 -1510.961)"><use xlink:href="#z" width="100%" height="100%" x="372.936" y="627.207" style="fill:#000"/></g><g style="fill:#000;fill-opacity:1" transform="matrix(2.93452 0 0 2.93452 279.794 -1510.961)"><use xlink:href="#A" width="100%" height="100%" x="375.336" y="630.807" style="fill:#000"/></g><g style="fill:#000;fill-opacity:1" transform="matrix(2.93452 0 0 2.93452 279.794 -1510.961)"><use xlink:href="#B" width="100%" height="100%" x="379.176" y="630.807" style="fill:#000"/></g><g style="fill:#000;fill-opacity:1" transform="matrix(2.93452 0 0 2.93452 279.794 -1510.961)"><use xlink:href="#C" width="100%" height="100%" x="383.615" y="630.807" style="fill:#000"/></g><g style="fill:#000"><g style="fill:#000;fill-opacity:1" transform="matrix(2.93452 0 0 2.93452 19.125 -1244.736)"><use xlink:href="#y" width="100%" height="100%" x="280.257" y="540.009" style="fill:#000"/></g><g style="fill:#000;fill-opacity:1" transform="matrix(2.93452 0 0 2.93452 19.125 -1244.736)"><use xlink:href="#A" width="100%" height="100%" x="285.297" y="540.009" style="fill:#000"/></g><g style="fill:#000;fill-opacity:1" transform="matrix(2.93452 0 0 2.93452 19.125 -1244.736)"><use xlink:href="#B" width="100%" height="100%" x="289.137" y="540.009" style="fill:#000"/></g><g style="fill:#000;fill-opacity:1" transform="matrix(2.93452 0 0 2.93452 19.125 -1244.736)"><use xlink:href="#C" width="100%" height="100%" x="293.577" y="540.009" style="fill:#000"/></g></g></g></svg>