<svg xmlns="http://www.w3.org/2000/svg" xmlns:xlink="http://www.w3.org/1999/xlink" width="470.083" height="330" viewBox="0 0 376.066 264"><defs><symbol id="a" overflow="visible" style="overflow:visible"><path d="m4.734-1.36-.125-.062c-.375.578-.5.672-.953.672H1.281l1.672-1.766c.89-.921 1.281-1.687 1.281-2.453 0-1-.812-1.765-1.859-1.765-.547 0-1.063.218-1.422.609-.328.344-.469.656-.64 1.375l.203.047C.922-5.687 1.28-6 1.969-6c.828 0 1.406.563 1.406 1.406 0 .782-.469 1.703-1.297 2.594L.297-.125V0h3.89zm0 0" style="stroke:none"/></symbol><symbol id="b" overflow="visible" style="overflow:visible"><path d="M6.563-2.297c.171 0 .359 0 .359-.203 0-.188-.188-.188-.36-.188h-5.39c-.172 0-.344 0-.344.188 0 .203.172.203.344.203zm0 0" style="stroke:none"/></symbol></defs><g style="display:inline"><path d="M192.389 6.484c-.93.268-1.905.407-2.787.801-1.72.768-5.606 3.55-6.875 4.485-5.567 4.094-10.799 8.613-15.922 13.244-1.412 1.302-2.803 2.624-4.205 3.935.895-3.068 1.607-6.159 1.63-9.332.018-2.337-2.43-4.17-4.357-5.494-5.704-3.922-11.88 1.125-16.162 4.33-.51.416-1.01.84-1.516 1.26a166.152 166.152 0 0 1-2.076-4.277c-.349-.748-1.632.367-2.351.771-.542.304-1.447 1.038-2.395 1.844.065.157.139.34.365.916l-.021.031a74.4 74.4 0 0 1-.352-.941 98.287 98.287 0 0 0-3.35 2.992c-.111-.49-.215-.964-.345-1.488-.905-3.638-7.6-3.83-10.48-2.803-.969.345-1.785 1.017-2.678 1.525-4.972 3.853-9.597 8.133-13.92 12.703-1.655-4.385-8.738-4.944-12.065-2.879-1.421.883-5.455 5.502-6.132 6.24C71.56 51.6 57.682 69.663 44.463 88.177c-5.19 7.282-12.259 17.128-17.354 24.54-1.33 1.936-10.974 16.373-12.644 18.92-1.412 2.153-2.74 4.36-4.174 6.497-1.028 1.532-2.14 3.006-3.209 4.51l9.617 19.11c.753-1.512 1.437-3.063 2.258-4.54.71-1.28 2.053-3.51 3.482-5.86-.505 3.001-.135 6.242 1.782 9.85 3.583 6.747 8.206 3.502 11.322.123.117-.363.278-.768.496-1.217.605-1.242 1.34-2.418 2.01-3.627.407-.673.811-1.348 1.219-2.021a21.93 21.93 0 0 1-.063 2.307c1.1-1.443 2.19-2.895 3.285-4.342 13.247-18.066 27.216-35.569 41.475-52.84 5.958-7.171 11.935-14.336 18.039-21.389a60.195 60.195 0 0 0 2.777-1.664c2.07-.032 4.518-.706 6.381-.957 1.227-.165 1.886-1.604 2.768-2.472.538-.53 6.92-7.422 7.023-7.532a309.805 309.805 0 0 1 6.684-7.05c-1.128 1.867-2.125 3.817-3.338 5.63-.396.592-1.543.998-1.326 1.676 2.116 6.613 4.064 13.516 8.013 19.227.625.903 1.751-.397 2.748-1.479-.088-.167-.156-.335-.132-.447.032-.151.087-.295.132-.442.067.224.14.446.205.67.243-.258.48-.499.692-.671 1.335-1.088 2.462-2.408 3.693-3.612a764.386 764.386 0 0 1 16.344-16.894 449.76 449.76 0 0 0-4.889 7.863c-4.932 8.626-7.992 11.606-.281 25.318 1.45 2.58 4.956.794 8.215-1.742-.11-.447-.279-.895-.193-1.34.026-.137.071-.268.107-.402.036.57.077 1.141.127 1.709 3.156-2.464 6.072-5.619 6.648-6.188a575.896 575.896 0 0 1 22.866-23.359c4.549 19.865.868 21.94 8.164 17.379.078.258.131.421.213.69.108.357.174-.608.343-1.036l.342-.213c8.34-9.057 17.15-17.633 26.27-25.898 3.334-2.989 6.725-5.923 10.207-8.738-.855 1.363-1.584 2.815-2.551 4.1-.411.545-1.583.85-1.389 1.505 1.969 6.64 3.859 13.504 7.572 19.35.64 1.007 2.083-.67 3.174-1.567-.053-.06-.095-.123-.093-.183.009-.458.201-.881.43-1.293.092.34.182.679.27 1.02 1.1-.779 2.07-1.732 3.11-2.59 5.405-4.67 10.657-9.527 16.104-14.153-1.473 2.545-2.95 5.087-4.416 7.633-3.19 5.544-6.357 11.103-9.395 16.732-.66 1.225-1.307 2.46-1.955 3.692-.473.9-1.21 1.706-1.408 2.703-1.156 5.79-1.751 11.676-2.627 17.514 3.267 1.054 6.376 2.948 9.803 3.166 1.599.101 4.399-2.353 6.236-4.12-1.985 3.215-3.94 6.447-5.807 9.733-4.185 5.865-6.523 8.529-1.035 20.346.918 1.976 3.701 1.47 6.277.892-.347.506-.685 1.02-1.039 1.522.304 6.451-1.919 13.547.91 19.353 1.226 2.516 5.675.403 8.391-.267.2-.05.559-.283.969-.58-.018-.436-.104-.882.014-1.293 0 .466-.005.803-.004 1.285 2.065-1.5 6.155-5.46 6.511-5.8 3.307-3.145 6.567-6.34 9.864-9.495 3.86-3.641 7.757-7.243 11.728-10.76-2.675 4.53-5.334 9.068-7.928 13.648-.656 1.23-2.14 2.305-1.968 3.688.843 6.765.75 14.45 4.906 19.855 1.282 1.668 3.676.015 5.842-1.543.031.105.06.084.088-.062.424-.306.835-.596 1.23-.865-1.622 2.916-3.218 5.848-4.973 8.687.21 6.387-2.18 13.42.63 19.16.656 1.343 2.204 1.401 3.93 1.065-2.021 4.015-1.86 8.344 2.792 17.836 1.611 3.287 5.023.92 7.521-1.442.133-.275.254-.546.432-.85.261-.444.542-.876.824-1.308-.01.363-.043.66-.068.983.679-.714 1.286-1.392 1.559-1.682 1.182-1.261 2.35-2.537 3.525-3.805 6.554-7.221 13.406-14.145 20.482-20.84 1.237 5.39 2.574 10.786 5.102 15.662.438.846 1.5-.203 2.432-1.119.04.152.078.305.119.457.06.226.062-.302.078-.638.244-.238.488-.478.691-.635.942-.728 1.654-1.713 2.49-2.56.265-.269.822-.82 1.2-1.2.47 1.96 1.22 3.796 2.47 5.336.769.946 1.814 1.63 2.721 2.445 1.047.494 2.046 1.104 3.14 1.48 4.798 1.655 9.77.079 14.23-1.757 2.09-.926 3.504-1.526 5.335-2.443a105.836 105.836 0 0 1 2.861 5.72c.159.341.497-.113.82-.556l.136.388c.035.107-.003-.223-.006-.336.206-.32.424-.631.636-.947.457-.474.902-.96 1.354-1.44 4.656-4.927-.279.33 4.697-4.98 4.1-4.35 8.444-8.464 12.955-12.384.261-.188.829-.245.783-.563-.19-1.326-.358-2.663-.529-3.998.37-.424.746-.843 1.115-1.268 1.572-1.807 2.972-3.775 4.676-5.459.787-.778 1.688-1.43 2.533-2.146-1.675-6.742-2.464-13.769-5.025-20.227-.362-.912-1.977-.045-2.94.145-1.06.208-2.7 1.298-3.658 1.943.69-3.653 1.267-7.334 1.986-10.98-1.899-1.422-3.562-3.233-5.699-4.264-2.315-1.118-4.912-.527-7.422.676-.11.551-.234 1.084-.382 1.703.133-.784.202-1.131.298-1.66-3.012 1.462-5.892 3.788-7.992 5.11-.564.406-1.122.824-1.683 1.236-.056-2.4-.321-4.773-.965-7.077-.576-2.059-4.104-1.2-6.156-1.8-.952.222-1.942.32-2.856.666-2.427.916-4.844 2.68-6.928 4.119a196.097 196.097 0 0 0-11.634 8.703c.22-3.05.139-6.073-.657-8.99-1.169-4.287-7.29-2.105-9.763-1.444-.967.596-1.968 1.14-2.9 1.787-1.135.787-2.687 2.002-4.2 3.223.745-6.716 1.03-13.592-.633-20.07-.721-2.81-3.935-1.831-7.217.04.676-1.083 1.344-2.171 2.02-3.255 4.56-7.834 6.783-10.445 5.148-23.46-.3-2.388-3.531-3.389-5.699-4.437-3.841-1.857-8.314.93-11.424 2.747-.419.296-.842.587-1.263.88 1.69-5.86 5.188-11.608 4.437-17.62-.383-3.073-4.832-3.994-7.662-5.249-1.09-.483-2.416-.04-3.568.27-.564.152-1.088.417-1.598.713l.34-.487c1.13-1.6 2.247-3.213 3.392-4.804 5.02-6.975 9.31-10.98 7.553-22.705-.71-4.74-7.862-5.834-11.426-4.657-1.017.336-1.86 1.061-2.79 1.592-4.26 3.255-8.326 6.741-12.278 10.356.765-1.372 1.543-2.736 2.297-4.114 1.018-6.426 3.54-12.789 3.055-19.277-.167-2.229-2.916-3.505-4.842-4.639-5.344-3.146-11.724 1.35-16.037 4.006-1.5 1.021-3.027 2.006-4.504 3.059.573-2.313 1.047-4.643 1.287-7.012.16-1.581-.96-3.162-2.076-4.293-3.247-3.288-7.6-3.934-11.746-2.58-1.122.366-2.168.934-3.252 1.4-1.252.682-2.527 1.32-3.754 2.043-3.667 2.16-7.168 4.572-10.567 7.125-.03-3.083-.31-6.135-1.158-9.074-.626-2.17-6.143-1.663-7.982-1.098-.876.27-1.676.74-2.514 1.112-7.623 4.557-14.84 9.7-21.738 15.273.006-.031.019-.06.023-.092.944-6.698 2.445-13.762.643-20.283-.632-2.286-4.545-1.364-6.817-2.047zm188.084 125.104c.028-.014.055-.03.084-.043.442-2.219.503-3.186-.084.043zm-74.764 71.932a30.6 30.6 0 0 1-1.188 1.175c-1.914 3.992.724 4.916 1.188-1.175zm-41.361-52.797a.07.07 0 0 0-.01.008c.002.048.01.098.01.146v-.154zM240.22 69.154c-.08.057-.155.12-.237.174a4.968 4.968 0 0 0-.37.283c.233.266.856.486.79.229-.058-.23-.123-.457-.183-.686zm-82.467 24.432-.041.033c.02.082.05.164.062.246-.009-.093-.013-.186-.021-.28zm-23.815-10.229c-.068.073-.135.143-.205.22.182.344.476.679.41.452-.064-.225-.139-.447-.205-.672zm-94.734 73.41c-.29.38-.572.768-.865 1.145-.604.776-1.59 2.105-2.797 3.414-1.28 3.973 3.056 2.813 3.662-4.558zm96.16-138.71.008-.006c-.052-.127-.046-.101-.008.006zM253.533 32.61c.14-.017-.214.167-.586.211.264-.101.528-.204.586-.21zm-.59 67.985c-.06.338-.125.675-.185 1.013-.086.484.027-.22.185-1.013zm6.942 27.906c-.07.555-.14 1.022-.211 1.342-.134.138-.25.259-.332.35-.052-.17-.099-.505-.139-.964.23-.24.457-.485.682-.728zm131.726 18.02c.322.045.703.057.657.308-.033.173-.25.555-.551 1.024-.07-.264-.137-.53-.21-.793.036-.18.07-.36.104-.54z" style="opacity:1;fill:#e6e6e6;fill-opacity:1;stroke:none;stroke-width:.40000004;stroke-linecap:butt;stroke-linejoin:miter;stroke-miterlimit:10;stroke-dasharray:none;stroke-dashoffset:0;stroke-opacity:1" transform="matrix(.8 0 0 .8 0 0)"/><path d="M1.805 103.862c.563-.51 1.158-.988 1.689-1.532 1.486-1.522 2.821-3.185 4.239-4.771 2.41-2.7 4.884-5.299 7.455-7.847 2.152-1.87 5.387-5.709 8.723-5.007 1.742.367 3.562.866 4.97 1.956 1.06.82 1.356 2.313 2.034 3.47-1.056 4.836-1.9 9.724-3.167 14.51-.28 1.059-.969 1.964-1.451 2.947-.558 1.137-1.133 2.267-1.669 3.415-1.707 3.654-3.26 7.38-4.784 11.114-.767 2.649-2.297 5.326-2.6 8.112-.05.443.058 1.772.12 1.331 1.957-13.743 4.855-10.281-3.323-14.699-.394-.2-1.151-.162-1.18-.602-.036-.556.682-.883 1.056-1.296.577-.638 1.206-1.228 1.795-1.854 2.065-2.194 4.066-4.438 6.16-6.607 1.854-1.45 3.217-3.69 5.343-4.814 1.822-.963 4.343-1.127 6.203-.13 1.659.889 2.71 2.61 4.066 3.916-1.079 4.742-1.916 9.545-3.236 14.226-.269.953-.996 1.713-1.5 2.566-.634 1.072-1.274 2.14-1.915 3.208-2.352 3.923-4.707 7.839-7.129 11.718-2.029 3.259-4.12 6.478-6.225 9.687-.06.092-1.893 2.963-2.26 3.24-.473.357-1.087.469-1.63.703-2.133-5.38-4.77-10.586-6.398-16.139-.19-.645.823-1.065 1.186-1.631.787-1.227 1.967-3.549 2.623-4.743 1.83-3.334 1.945-3.46 3.964-6.866 4.028-6.677 8.55-13.071 13.787-18.854 1.2-1.146 1.958-2.101 3.516-2.75 1.98-.823 6.917-1.111 7.686 1.266 3.331 10.292 1.862 12.018-1.382 17.82-3.904 7.674-7.48 15.514-11.087 23.332-1.322 3.31-3.006 6.52-4.05 9.94-.192.632-.55 2.58-.412 1.936 2.554-11.994 5.189-8.567.112-12.968-1.491-.495-3.127-.674-4.473-1.485-.301-.182.151-.713.369-.99.532-.679 1.231-1.21 1.838-1.823 2.933-2.967 5.776-6.023 8.686-9.013 5.373-5.146 10.438-10.7 16.322-15.289.763-.595 1.574-1.125 2.362-1.687.742-.332 1.426-.85 2.226-.995 2.395-.433 7.876.191 8.405 3.404 1.738 10.563-1.754 14.532-5.96 21.841-4.58 8.177-9.506 16.15-14.095 24.322-.468.852-.962 1.69-1.404 2.555-.29.567-.584 1.135-.788 1.737-.077.226.027.942-.042.714-1.637-5.368-2.898-10.85-4.671-16.174-.105-.313-.93-.146-.872-.471.119-.66.828-1.057 1.242-1.585 5.313-6.31 10.444-12.768 15.78-19.059 2.115-2.28 4.103-4.69 6.29-6.904.403-.408.821-.802 1.256-1.176.265-.227.5-.71.838-.624 3.116.796 6.076 2.11 9.114 3.167-1.398 4.64-2.611 9.34-4.193 13.92-.2.58-.749.97-1.117 1.46-.521.692-1.04 1.386-1.55 2.086a502.498 502.498 0 0 0-6.836 9.661c-5.257 7.718-9.603 15.99-13.762 24.334-1.348 2.739-2.59 5.528-3.648 8.392-.21.572-.456 1.134-.604 1.724-.077.306-.042.629-.063.943l.576-14.168c-2.257-.571-4.721-.61-6.772-1.713-.5-.269.57-.982.888-1.451 2.87-4.228 6.088-8.24 9.204-12.284a187.311 187.311 0 0 1 8.35-10.242c.899-1.027 3.119-3.493 4.253-4.498.5-.443 1.07-.798 1.606-1.196 8.073-1.265 4.628-1.666 7.37 16.079.146.942-1.156 1.519-1.689 2.31-2.325 3.46-4.33 7.171-6.452 10.755-3.806 6.42-7.614 12.85-11.133 19.434-.38.71-3.427 6.672-3.936 7.668-.354.776-1.732 3.457-1.807 4.636-.018.284.428 1.041.388.76-.738-5.146-.698-10.515-2.487-15.396-1.615-4.406-5.434 2.291-2.304-2.316 3.693-4.623 7.197-9.395 10.952-13.969 2.277-2.774 4.282-5.043 6.627-7.741 2.538-2.66 4.938-5.51 7.706-7.946.9-.792 2.74-2.354 4.173-1.81 2.574.976 4.754 2.778 7.131 4.168-1.263 4.844-2.246 9.771-3.789 14.534-.349 1.077-1.233 1.898-1.842 2.852-.783 1.225-1.554 2.458-2.333 3.686-3.078 4.861-6.138 9.733-9.19 14.61-2.913 4.605-5.586 9.353-8.258 14.099-1.46 2.594-2.951 5.126-4.122 7.863.035.203.176.8.104.607-2.012-5.331-4.013-10.668-5.927-16.035-.091-.257-.209-.573-.083-.815.38-.73 1.015-1.294 1.52-1.944 3.717-4.787.374-.53 4.6-5.881a311.468 311.468 0 0 1 17.996-20.996c3.84-3.624 7.379-8.437 13.38-4.649 1.348.851 1.883 2.573 2.824 3.859-1.159 4.758-2.1 9.574-3.477 14.274-.306 1.045-1.032 1.919-1.546 2.879-.621 1.16-1.243 2.32-1.86 3.481-2.301 4.339-4.564 8.698-6.86 13.04-2.07 4.13-4.176 8.243-6.106 12.44-.406.883-2.012 4.38-2.297 5.589-.118.5-.025 1.03-.038 1.544 2.036-12.186 5.542-10.5-2.724-14.708-.61-.31-1.637.023-1.97-.575-.26-.464.599-.879.927-1.297 1.35-1.725 2.651-3.133 4.12-4.794a455.819 455.819 0 0 1 19.432-21.84c2.93-3.062 6.026-5.956 9.197-8.766.764-.678 3.363-2.99 4.342-3.653.611-.414 1.294-.71 1.94-1.065 2.114-.38 6.944-1.657 7.836 1.665 1.338 4.982-.071 10.35-.814 15.457-.144.992-1.21 1.6-1.785 2.422-1.264 1.805-3.079 4.659-4.232 6.445-5.57 8.489-10.973 17.086-16.367 25.687-1.836 2.696-3.501 5.501-5.12 8.331-.31.544-.668 1.066-.918 1.64-.517 1.185-.373.96.49 1.013l-5.615-15.826c-.272-.146-.86-.132-.814-.437.088-.593.72-.96 1.092-1.431.546-.69 1.104-1.368 1.662-2.047 1.513-1.843 3.04-3.674 4.56-5.511 5.628-6.696 11.568-13.125 17.747-19.314 2.11-1.862 3.984-4.025 6.36-5.573.808-.527 2.598-1.516 3.64-1.194 2.216.684 4.21 1.948 6.315 2.922-.658 4.875-.977 9.808-1.973 14.624-.174.844-1.015 1.394-1.487 2.114-.536.816-1.03 1.659-1.535 2.494-1.906 3.143-3.806 6.29-5.687 9.449-1.4 2.712-3.162 5.235-4.41 8.027-.234.523-.493 1.048-.597 1.61-.056.3.08 1.207.13.906.706-4.214 1.23-8.457 1.844-12.685 3.715-6.875-5.422-.895-6.168-3.067-.142-.413.483-.73.77-1.06 1.047-1.207 2.639-2.644 3.733-3.731.824-.82 1.629-1.657 2.443-2.485 5.89-5.604 11.888-11.116 18.335-16.075 2.854-2.211 6.445-5.018 10.342-3.062 1.556.78 3.817 1.612 4.014 3.342.566 4.965-1.293 9.911-1.94 14.867-3.542 6.31-7.26 12.52-10.796 18.834-.204.37-1.71 2.943-1.879 3.712-.04.184.253.706.213.523-1.181-5.355-1.87-10.853-3.636-16.044-.218-.64-1.766.193-1.977-.449-.21-.639.887-1.011 1.33-1.517a178.586 178.586 0 0 1 8.632-9.433c2.295-2.34 5.38-5.557 8.024-7.67.812-.648 1.73-1.152 2.596-1.728 8.742-.617 5.667-1.555 7.23 16.629.1 1.163-1.398 1.871-2.049 2.84-2.28 3.392-4.283 6.988-6.422 10.47-1.971 3.704-4.819 6.93-6.624 10.726-.15.317-.243.658-.364.987l2.505-13.396c-2.667-.934-5.518-1.453-8.002-2.802-.397-.216.4-.816.673-1.178.531-.705 1.151-1.338 1.726-2.008 2.513-2.927 4.956-5.91 7.443-8.86 4.251-4.71 8.464-9.645 13.69-13.317 2.447-.65 7.22-2.306 8.407 1.874 1.367 4.818-.697 10.012-1.591 14.94-.15.822-1.01 1.333-1.486 2.02-.645.93-2.894 4.436-3.405 5.228-3.95 6.05-8.075 12.008-11.642 18.297-.23.47-.558.906-.693 1.413-.04.152.252.578.202.428-1.824-5.386-3.797-10.723-5.524-16.142-.075-.238.006-.529.146-.735.42-.62.995-1.12 1.493-1.679l2.104-2.359c3.989-4.271 7.868-8.656 12.034-12.76 2.436-2.398 3.34-3.14 5.828-5.336 3.242-2.7 6.826-5.782 11.376-2.955 1.461.908 3.328 2.234 3.318 3.955-.031 4.968-2.289 9.669-3.433 14.503-1.162 2.01-2.173 4.104-3.331 6.117-.785 1.362-1.64 2.683-2.433 4.04a174.533 174.533 0 0 0-5.772 10.707c-2.135 7.505 1.436-4.407-.553-13.095-.317-1.389-3.458-.531-3.824-1.908-.32-1.205 1.726-1.8 2.606-2.682 3.765-3.773 4.39-4.3 8.41-8.084 1.424-1.315 2.809-2.674 4.272-3.946.66-.574 4.696-3.994 6.13-4.438 1.044-.324 2.844-1.24 3.272-.234 6.464 15.188 6.962 13.044 1.388 19.712-3.74 4.579-7.506 9.145-10.983 13.929-2.105 2.897-1.47 1.827-2.68 4.246 5.09-18.375 6.701-8.388-4.215-16.186-.375-.268.527-.76.843-1.096.645-.683 1.357-1.3 2.034-1.952 3.147-3.032 2.5-2.411 5.835-5.675 7.403-7.545 15.244-14.623 23.351-21.399 2.523-1.737 5.306-4.742 8.23-5.885.701-.275 1.478-.65 2.21-.47 2.13.526 5.631.366 6.085 2.513 1.08 5.107-1.518 10.328-2.278 15.492-5.582 6.485-10.928 13.174-16.502 19.669-2.334 2.688-4.588 5.445-6.811 8.226-.456.57-.953 1.11-1.359 1.716-.766 1.148-.744.888-.17 1.602.345-4.797 2.252-9.738 1.035-14.391-.478-1.826-6.287-.751-5.183-2.283.341-.474.84-.814 1.253-1.227.604-.603 1.205-1.21 1.798-1.824.765-.79 1.517-1.591 2.275-2.387a3465.133 3465.133 0 0 1 21.453-22.313 387.058 387.058 0 0 1 23.251-22.16c4.113-3.477 8.155-7.025 12.015-10.782.572-.227.744-.943 1.243-1.256.267-.168.56-.376.874-.362 1.868.084 4.988-1.127 5.571.65 3.866 11.775 3.131 12.238-.859 16.646a654.241 654.241 0 0 1-12.152 13.773c-7.78 8.7-15.604 17.36-23.404 26.042-3.458 4.066-7.054 8.026-10.313 12.258-.863 1.122-3.14 4.215-3.858 5.74-.21.448-.231.963-.347 1.445.959-4.112 3.773-8.21 2.875-12.335-.504-2.322-4.298-2.056-6.288-3.354-.245-.16-.329-.614-.173-.863.467-.742 1.255-1.227 1.876-1.846.891-.889 1.776-1.785 2.663-2.678l3.368-3.396c7.577-7.596 14.617-15.715 22.163-23.34 1.642-1.659 3.343-3.26 5.014-4.89a302.766 302.766 0 0 1 12.747-11.793c1.51-1.318 3.643-3.184 5.412-4.283.606-.377 1.281-.63 1.922-.946 2.804.034 8.46-.602 8.845 4.36.38 4.907-2.35 9.576-3.972 14.224-.34.975-1.245 1.648-1.858 2.478-2.737 3.703-3.325 4.56-6.158 8.519-7.369 10.203-14.692 20.443-21.788 30.839-.927 1.424-2.985 4.464-3.83 6.156-.274.548-.663 1.113-.634 1.725.014.272.806.628.735.364-5.235-19.33-4.595-10.204-5.008-16.874 8.353-8.68 16.561-17.497 24.97-26.122 3.8-3.752 7.538-7.569 11.46-11.195 2.274-2.103 4.092-3.654 6.728-5.224 8.094-.605 5.15-1.345 6.995 16.176.109 1.029-1.441 1.485-2.124 2.263-2.619 2.982-4.946 6.25-7.367 9.389a1051.54 1051.54 0 0 1-19.592 24.63c-5.804 7.142-4.82 10.329-7.855-12.937-.137-1.052 1.47-1.531 2.204-2.297 4.426-4.617 1.91-2.025 6.76-6.964 5.974-6.193 12.129-12.208 18.798-17.65.892-.62 1.985-1.53 3.1-1.802 2.658-.647 7.773.209 8.406 3.297 1.607 7.845-.642 10.76-3.71 15.262-3.077 4.406-6.066 8.865-9.266 13.184-1.42 1.792-2.758 3.633-4.25 5.365-.344.4-.692.794-1.042 1.187-.264.295-.491.632-.802.877-.346.272-.764.437-1.146.655-2.677.203-8.123 1.283-9.039-3.227-1.409-6.943 2.432-14.38 4.918-20.746 2.917-8.574 6.242-17.004 9.38-25.499 1.42-3.789 2.92-7.545 4.273-11.36.678-1.91 1.36-3.756 1.702-5.753-1.915 9.776-5.83 10.974 2.08 14.678 1.025.48 2.34.047 3.35.559.302.153-.272.627-.48.895-.68.875-2.694 2.81-3.36 3.472-3.272 3.212-6.454 6.528-9.908 9.55-1.996 1.746-2.736 2.254-4.78 3.804-.835.498-2.75 1.796-3.86 1.925-2.631.307-8.146-.528-8.465-4.194-.751-8.642 1.764-11.65 5.35-16.806.693-.943 1.353-1.91 2.079-2.828 5.348-6.762 11.512-13.112 17.327-19.481 6.783-7.866 14.108-15.23 21.645-22.367 2.131-1.653 3.956-4.035 6.492-5.151.648-.285 1.35-.65 2.05-.552 1.898.265 4.972-.228 5.52 1.609 1.499 5.028-.232 10.492-.348 15.738-5.092 7.107-10.154 14.237-15.303 21.304-3.353 4.577-6.647 9.199-10.079 13.717-2.037 2.683-4.06 5.352-6.4 7.776-7.77 2.156-4.626 2.189-7.635-15.982-.165-1.002 1.334-1.533 1.968-2.327.703-.881 1.34-1.813 2.04-2.698 2.273-2.871 3.1-3.72 5.613-6.563 6.2-7.078 13.013-13.57 20.262-19.556 2.256-1.807 4.473-3.686 6.837-5.355.878-.619 2.1-1.495 3.244-1.573 1.099-.075 2.198.15 3.297.226 1.63 1.257 4.705 1.72 4.89 3.77 1.146 12.648-1.032 10.422-4.58 15.534-.403.58-.728 1.212-1.108 1.808-.805 1.26-1.71 2.558-2.556 3.793-.144.425-.43.827-.431 1.276 0 .202.388.63.426.43.817-4.254 2.476-8.547 1.957-12.848-.58-4.804-5.98-.64-6.25-3.07l2.765 16.89c-.455.154-.885.422-1.363.46-1.735.135-7.331.146-7.742-2.621-1.598-10.79.139-10.909 3.91-16.102 1.304-2.08.95-1.481 2.217-3.646.356-.61.755-1.197 1.062-1.833.197-.409.525-1.734.445-1.287-2.425 13.64-5.958 9.868 2.695 14.197.802-.002 1.609-.09 2.407-.007.093.01-.072.18-.144.24-.374.31-.789.568-1.179.859a147.034 147.034 0 0 0-6.446 5.09c-6.804 5.816-13.178 12.126-18.87 19.046-1.922 2.451-3.076 3.772-4.684 6.344-.508.812-1.054 1.618-1.396 2.513-.171.448.078 1.874-.111 1.434-6.478-15.113-.384-15.862-7.029-14.52 5.6-6.645 10.62-13.75 15.706-20.787 3.061-4.328 6.17-8.636 9.04-13.095.806-1.25 2.656-4.166 3.248-5.744.19-.505.184-1.063.276-1.594.117 4.452-1.205 9.183.351 13.355.583 1.564 3.297.516 4.937.827.064.012.186.088.141.135-.336.354-.768.605-1.142.919a87.48 87.48 0 0 0-1.831 1.574c-.79.7-1.562 1.418-2.344 2.127-7.39 6.984-14.41 14.34-21.094 22.005-6.282 6.962-12.936 13.792-17.673 21.946-3.347 7.23 2.225-4.338 1.106-8.973-1.236-5.12-4.992-1.668-7.332-2.291-.783-.209 4.486-1.469 1.968-1.431 4.866-3.998 9.273-8.496 13.624-13.043.412-.437 2.945-3.153 3.497-3.635.552-.483 1.058-1.12 1.766-1.312 2.172-.59 9.094-1.44 9.74 2.792.672 4.41-1.63 8.773-2.445 13.16-2.326 5.65-4.436 11.39-6.636 17.09-3.178 8.516-6.315 17.046-9.247 25.65-.585 1.716-1.164 3.265-1.596 5.014-.13.523-.37 2.12-.301 1.587.499-3.874 2.67-7.856 1.59-11.61-.972-3.385-6.112-2.42-8.428-2.192-.206-.556-.134-.156.575-1.018 1.652-2.007 3.191-4.107 4.729-6.202 2.879-4.096 5.846-8.216 7.988-12.753 1.698-5.986-2.47 8.562-1.751 11.049 2.924 10.107 4.715 1.464 7.517 2.488.66.241-4.305 1.618-1.63 1.339-6.376 5.265-12.225 11.12-17.92 17.108-4.134 4.404-2.745 2.886-6.574 7.103-.77.847-1.647 3.482-2.302 2.544-9.655-13.822-9.014-12.102-3.203-19.025 6.63-7.977 13.076-16.109 19.25-24.445 1.084-1.485 3.877-5.246 4.964-6.956.46-.723 1.008-1.424 1.245-2.247.093-.326-.418-1.292-.322-.966 4.529 15.337-.707 15.292 6.181 14.573-6.01 4.58-11.107 10.249-16.536 15.47a1054.926 1054.926 0 0 0-13.824 14.515c-2.826 3.028-5.596 6.109-8.452 9.109-.994 1.044-2.022 2.055-3.033 3.083-7.44 4.241-3.885 3.486-9.075-13.781-.166-.55.794-.833 1.14-1.29 1.117-1.468 2.062-3.058 3.113-4.573.8-1.152 1.611-2.296 2.417-3.444 7.287-10.247 14.612-20.468 21.812-30.777 1.086-1.603 2.196-3.191 3.26-4.81.83-1.264 1.662-2.53 2.423-3.838.419-.72 1.226-3.06 1.112-2.235-.512 3.706-3.217 7.349-2.32 10.981.806 3.272 5.571 2.6 7.89 2.446-6.534 4.666-12.172 10.493-18 15.97-9.196 9.29-17.973 18.977-27.03 28.4-1.852 1.89-4.418 4.565-6.415 6.393-.957.876-4.082 3.799-5.663 3.58-2.739-.377-6.979-.308-7.747-2.964-1.299-4.49 1.948-9.141 2.922-13.711 5.217-6.893 10.827-13.472 16.617-19.889 7.823-8.654 15.652-17.304 23.303-26.11 3.776-4.381 7.792-8.697 10.785-13.665 1.612-5.765-2.16 7.515.404 14.569.626 1.721 3.644.382 5.467.56.115.011.386-.102.347.007-.204.569-1.335.504-1.36 1.198-4.052 3.578-8.194 7.05-12.294 10.571-7.85 6.953-15.432 14.205-22.655 21.81a2997.95 2997.95 0 0 0-21.41 22.563c-1.754 1.766-2.86 2.956-4.71 4.55-.637.55-2.93 2.49-3.922 2.47-11.394-.224-6.312-3.305-5.68-16.08 3.81-3.797 6.997-8.175 10.627-12.137 3.064-3.648 6.128-7.3 9.07-11.049 1.002-1.277 3.555-4.584 4.467-6.123.358-.606.575-1.284.862-1.926-.325 4.261-2.322 8.728-.975 12.784.617 1.86 3.802.955 5.7 1.445.064.017.236.034.185.076-.464.382-1.008.654-1.496 1.005-.82.592-1.63 1.2-2.428 1.822-1.055.82-2.086 1.671-3.13 2.507-7.929 6.698-15.447 13.843-22.708 21.261-1.6 1.583-4.309 4.284-5.999 5.878-.773.729-1.526 1.483-2.354 2.148-.698.56-1.322 1.624-2.21 1.523-14.322-1.63-9.083-3.373-5.672-16.22 1.985-2.496 3.927-5.027 5.884-7.545 1.422-1.83 4.102-5.232 5.393-7.169.676-1.014 1.245-2.096 1.868-3.144.67-7.13-.313.953 4.489 12.609.193.47 1.61-.714 1.508-.216-.14.68-1.162.767-1.709 1.197a66.03 66.03 0 0 0-3.093 2.578c-1.412 1.257-2.765 2.578-4.148 3.867-2.793 2.737-5.512 5.55-8.323 8.27-1.09 1.054-1.932 2.54-3.35 3.076-2.37.895-6.27 3.232-7.532 1.034-5.114-8.913-2.769-12.173.331-17.595 3.753-6.705 7.914-13.271 10.586-20.505-.63 3.491-2.386 6.961-1.89 10.474.254 1.79 6.485 1.739 7.268 1.849.084.012-.05.171-.114.227-.46.398-.97.733-1.44 1.12-.703.58-1.384 1.186-2.077 1.779-6.039 5.569-11.579 11.635-16.955 17.842-.284.322-3.328 3.818-3.913 4.337-.559.494-1.466 1.943-1.828 1.29-9.32-16.803-8.853-11.296-4.51-17.916 3.949-6.043 7.912-12.08 11.693-18.229.598-1.028 2.289-3.812 2.793-5.092.187-.476.359-2.007.335-1.496-.5 10.716-5.168 14.231 5.927 14.443-4.358 3.808-8.324 8.027-11.986 12.509-3.34 4.064-1.973 2.4-5.229 6.37-1.29 1.573-2.495 3.222-3.86 4.732-.515.568-.88 1.609-1.647 1.604-3.12-.018-6.141-1.113-9.212-1.67.81-4.639 1.452-9.31 2.432-13.917.09-.427.508-.71.756-1.07.406-.59.808-1.185 1.203-1.783a239.853 239.853 0 0 0 5.485-8.731c.707-1.205 1.427-2.402 2.122-3.614.634-1.107 3.004-5.225 3.485-6.643.202-.597-.023-2.474.19-1.881 5.309 14.705-.74 14.977 6.102 13.972-6.74 5.216-11.858 12.09-17.518 18.388-.517.54-4.317 5.03-5.398 3.043-10.965-20.15-7.234-11.443-3.465-16.912.369-.535 2.045-3.42 2.216-3.712 1.796-3.063 3.597-6.123 5.248-9.269.857-1.633 2.348-4.497 2.95-6.329.232-.706.297-1.456.446-2.185-.352 3.74-1.842 7.548-1.057 11.222.409 1.91 4.705 1.1 5.976 1.268.139.018-.2.198-.313.282-.482.356-.988.681-1.47 1.037-.72.53-1.424 1.08-2.136 1.62A200.513 200.513 0 0 0 90.6 210.051c-.762.768-3.799 3.844-4.713 4.721-1.719 1.651-4.704 4.587-7.418 4.088-2.15-.396-4.027-1.706-6.04-2.56.555-4.634.897-9.299 1.664-13.903.09-.542.6-.922.884-1.392.35-.577.68-1.166 1.021-1.748 1.575-2.68 3.15-5.362 4.737-8.036 1.847-3.114 3.731-6.22 5.408-9.431.411-.789.853-1.567 1.17-2.397.193-.505.235-1.056.352-1.583l-1.21 12.28c2.038.642 4.052 1.366 6.114 1.927.257.07.732-.306.796-.048.071.285-.445.381-.665.574a104.44 104.44 0 0 0-5.486 5.132c-5.945 6.094-11.684 12.388-16.989 19.053-3.192 3.979-1.5 1.853-4.455 5.595-.103.13-2.69 3.457-3.073 3.758-.702.55-1.88 2.06-2.34 1.297-2.88-4.772-4.159-10.342-6.238-15.513 1.336-1.29 1.816-2.149 2.823-3.724 1.756-2.747 3.56-5.462 5.323-8.203 5.46-8.537 10.933-17.067 16.268-25.683.709-1.2 2.906-4.75 3.499-6.307.205-.537.287-2.274.297-1.699.202 11.276-4.35 13.555 5.36 14.017-4.799 3.878-9.276 8.137-13.505 12.627-6.587 7.112-12.927 14.437-19.144 21.873-1.233 1.406-3.294 3.849-4.728 5.153-.693.63-1.348 1.37-2.213 1.73-2.318.965-8.93 2.102-9.91-2.062-1.059-4.503 1.283-9.163 1.925-13.744 3.303-6.734 6.57-13.486 10.093-20.11 2.247-4.338 4.532-8.665 6.637-13.075.54-1.13 1.081-2.262 1.562-3.42.363-.873 1.095-3.603.967-2.666-.474 3.464-1.34 6.864-2.01 10.297 1.073.5 2.073 1.204 3.22 1.503 1.474.383 3.03.309 4.54.517.078.011.244.074.195.137-.293.37-.706.627-1.052.948-.575.535-1.153 1.067-1.712 1.619-.715.705-1.405 1.435-2.108 2.152a270.258 270.258 0 0 0-17.277 20.708c-3.516 4.668-1.317 1.735-4.503 6.013-.512.687-.946 1.441-1.538 2.061-.572.599-1.498 2.276-1.928 1.567-2.916-4.809-4.665-10.25-6.55-15.55-.127-.358.467-.599.7-.899 4.391-7.287 8.605-14.682 13.169-21.865 3.024-4.886 6.088-9.753 8.979-14.72.711-1.22 1.424-2.442 2.081-3.693.465-.885 1.38-3.706 1.285-2.71-.35 3.689-1.376 7.283-2.064 10.924 2.429.861 4.811 1.864 7.285 2.583.357.104 1.085-.514 1.106-.143.026.485-.71.662-1.059 1.001a117.595 117.595 0 0 0-7.101 7.528c-2.876 3.375-3.488 4.034-6.294 7.574-3.756 4.739-7.283 9.656-11.112 14.337-.946.974-5.392 6.313-7.255 3.12-8.051-13.8-5.499-11.344-2.281-16.99.901-1.584 1.629-3.263 2.568-4.826 4.956-9.149 10.197-18.135 15.4-27.145 1.061-1.892 3.346-5.9 4.378-7.975.435-.874.923-1.736 1.195-2.673.133-.458-.168-1.875-.002-1.429 5.659 15.243-.238 15.544 6.706 14.496-4.52 4.732-8.643 9.82-12.546 15.07-2.499 3.35-4.923 6.75-7.402 10.114-.039.053-3.093 4.256-3.591 4.332-2.668.406-5.39-.253-8.086-.379.09-4.888-.004-9.783.272-14.664.025-.443.43-.777.624-1.177.282-.58.531-1.178.805-1.763 1.344-2.866 2.772-5.692 4.232-8.5 4.5-8.5 9.25-16.88 14.778-24.765 2.295-3.307 4.6-6.607 6.916-9.899 4.11-5.84 4.43-8.137-.47 8.605 3.045.982 6.145 1.808 9.136 2.945.163.062-.224.27-.343.399-.312.335-.635.66-.95.994-2.031 2.144-4.033 4.317-5.938 6.577-5.338 6.363-10.473 12.89-15.787 19.272-.028.03-3.661 4.398-4.318 3.158-10.228-19.313-8.15-11.262-4.505-16.883.371-.572 2.41-4.03 2.552-4.27 4.74-7.954 9.547-15.88 13.765-24.126.543-1.175 1.162-2.317 1.627-3.524 2.616-6.806-3.12-.8-.279 8.861 2.741 9.318 3.859-.752 6.245 1.28.282.24-.606.43-.908.645-6.26 4.96-11.86 10.684-17.424 16.396-2.968 3.132-5.882 6.333-8.996 9.322-.809.777-3.474 3.412-4.765 3.55-2.119.225-4.244-.386-6.366-.579-.997-.941-2.965-1.454-2.99-2.825-.172-9.404 4.419-17.58 8.13-25.779a1391.14 1391.14 0 0 0 5.949-12.848c.676-1.483 2.716-5.92 3.378-7.568.366-.91.66-1.849.99-2.773.702-7.448-.803 7.722.583 11.265.62 1.585 3.348.624 5.029.896.19.03.577-.183.58.01.002.298-.377.462-.573.687-.42.483-.851.957-1.277 1.436a118.402 118.402 0 0 0-12.3 18.086c-1.693 3.126-3.413 6.253-4.88 9.495-.292.645-.626 1.28-.804 1.966-.086.328.173 1.325.026 1.018-2.357-4.94-4.463-9.994-6.695-14.992-.319.072-.856.528-.955.216-.126-.395.463-.687.696-1.03.43-.637.866-1.27 1.294-1.91a265.415 265.415 0 0 0 6.036-9.426c2.293-3.835 4.625-7.662 6.68-11.633.529-1.02 1.045-2.047 1.5-3.1.324-.754.942-3.126.834-2.314-.487 3.663-1.317 7.272-1.976 10.908 1.416.681 2.736 1.617 4.248 2.044 1.07.302 2.226.006 3.334.094.077.006.188.122.141.184-.282.373-.678.646-1.014.971-1.971 1.906-1.366 1.318-3.432 3.438-2.124 2.26-4.214 4.56-6.438 6.721-.897.871-3.255 3.159-4.46 3.7-1.134.508-2.4.641-3.6.962-2.03-.848-5.457-.437-6.092-2.544-2.325-7.718 2.357-16.936 5.26-24.016 1.634-3.753 3.339-7.477 4.956-11.237.475-1.104.96-2.205 1.378-3.332.329-.886.976-3.639.863-2.7-.414 3.432-1.181 6.813-1.772 10.22 2.923.898 2.88.985 6.51 1.486.292.04.857-.361.882-.067.032.365-.553.482-.826.728-1.937 1.744-1.423 1.286-3.482 3.3a176.386 176.386 0 0 0-6.934 7.656c-.45.53-3.424 4.067-3.944 4.847-.241.363-.349.799-.523 1.198l-7.118-15.606z" style="opacity:1;fill:#e6e6e6;fill-opacity:1;stroke:none;stroke-width:.5;stroke-linecap:butt;stroke-linejoin:miter;stroke-miterlimit:10;stroke-dasharray:none;stroke-dashoffset:0;stroke-opacity:1" transform="translate(0 329.081)"/><path d="M184.426 206.91c-.175.368-.32.75-.525 1.101-.977 1.68-2.094 3.274-3.124 4.922-1.542 2.465-3.075 4.936-4.544 7.445.377.865-1.493 1.858-1.18 2.832.083.261.812.451.803.177-.152-4.95.135-10.051-1.255-14.804-1.584-5.418-4.169 1.107-3.046-1.479 5.092-4.195 10.287-8.258 15.514-12.284 2.696-2.162 5.417-4.29 8.2-6.34.901-.664 2.4-1.81 3.453-2.353.417-.216.876-.339 1.314-.508 9.252 1.156 5.973-.702 5.209 16.746-.032.714-1.107.907-1.634 1.39-1.832 1.68-3.467 3.606-5.172 5.412-4.238 4.65-8.538 9.24-12.585 14.06-.687 1.101-1.786 1.902-2.491 2.992-.166.257-.358.557-.32.86.022.174.47.429.459.254-.356-5.28-.087-10.706-1.508-15.804-.277-.992-2.03-.354-3.046-.53.269-.277.516-.575.805-.828 1.266-1.105 2.638-2.082 3.93-3.155 2.832-2.354 5.555-4.84 8.355-7.232l4.466 16.185c-2.847 2.492-5.68 5-8.598 7.409-.585.483-3.448 2.817-4.226 3.361-.583.408-1.21.75-1.816 1.124-1.463.077-3.845 1.593-4.39.233-1.989-4.971-1.604-10.604-1.898-15.95-.023-.431.661-.557.974-.856 1.31-1.252 2.418-2.69 3.645-4.02 4.232-4.726 8.577-9.351 12.788-14.097.694-.79 2.698-3.043 3.416-3.97.322-.414.699-.81.89-1.299.079-.202-.152-.853-.134-.637 1.409 16.31-3.62 14.69 5.235 15.295-.787.808-2.357 1.727-3.218 2.36-2.732 2.009-5.393 4.111-8.074 6.186-5.383 4.202-10.547 8.692-16.086 12.686-1.347.61-5.885 3.081-6.91.665-7.279-17.15-4.712-11.268-.783-16.45.731-.965 1.177-2.128 1.946-3.068a1123.83 1123.83 0 0 0 4.677-7.426c.171-.275 2.924-4.708 3.238-5.157.364-.523.795-.995 1.192-1.492l6.054 16.045z" style="opacity:1;fill:#e6e6e6;fill-opacity:1;stroke:none;stroke-width:.5;stroke-linecap:butt;stroke-linejoin:miter;stroke-miterlimit:10;stroke-dasharray:none;stroke-dashoffset:0;stroke-opacity:1" transform="translate(0 329.081)"/><path d="M26.645 118.908c-4.816 5.904-9.58 11.869-13.846 18.188-2.221 3.266-4.47 6.516-6.649 9.81-.074.113-2.448 3.72-2.505 3.983-1.21 5.557-1.978 11.201-2.967 16.802 1.112 3.353 2.47 5.45 5.283 7.121-5.686 6.535-6 6.09-.793 22.42.708 2.22 3.56 1.903 6.389.954-.686 3.304-1.253 6.629-1.467 9.988-.073 1.143 1.191 1.957 1.787 2.935 1.074.728 2.047 1.633 3.22 2.186 3.085 1.453 6.205.983 9.12-.287-1.32 4.13-2.53 8.303-3.916 12.408 2.553 1.569 4.894 3.55 7.658 4.705.558.233 1.357.165 2.195-.039-.163.213-.329.424-.492.637-.082.112-2.414 3.313-2.67 3.597-.5.559-1.53.813-1.627 1.557-.805 6.138-2.905 12.65-1.011 18.543.9 2.8 3.667 2.903 6.22 2.465-.945 5.47-1.327 11.033-2.027 16.543 1.7 1.076 3.258 2.422 5.101 3.228 3.497 1.529 7.308-.757 10.424-2.299-1.281 4.312-1.37 8.225 3.219 10.928 1.537.906 3.428.986 5.143 1.479.5-.048 1.008-.053 1.504-.143.364-.066 2.302-.736 2.496-.806a41.635 41.635 0 0 0 6.017-2.723c.05-.028.099-.057.149-.084-1.05 4.332-2.17 8.651-2.79 13.06-.122.869.476 1.724.98 2.442 2.43 3.467 6.562 4.823 10.599 4.101.563-.191 1.142-.34 1.69-.576a19.79 19.79 0 0 0 2.081-1.07c-.149 1.015-.288 2.032-.457 3.043 2.503.791 4.921 1.926 7.508 2.373.658.114 1.234-.512 1.855-.756.876-.344 1.758-.67 2.635-1.01 3.605-1.392 7.22-2.77 10.746-4.353 1.137-.521 2.27-1.051 3.399-1.59.017.12.028.221.045.34-1.683 1.366-1.072 2.61.808 6.578 1.664 15.765-.193 16.57 5.293 12.969.027.076.052.137.078.214.128.374.482-.318.797-.775.442-.284.78-.514 1.307-.834 6.985-4.334 13.93-8.728 20.463-13.734a426.149 426.149 0 0 0 7.076-5.221c.675 4.326 1.384 8.641 2.724 12.795.264.816 1.722.016 2.573-.094.978-.126 2.197-.96 3.34-1.771-.071-.083-.125-.169-.098-.264.03-.108.077-.21.129-.309.034.16.06.323.095.483.752-.535 1.472-1.055 2.034-1.324 2.924-2.057 5.73-4.264 8.468-6.555-.083 1.64-.051 3.276.192 4.902.47 3.15 6.726 3.145 8.728 3.328.972-.246 1.505-.327 2.428-.806 1.096-.57 2.138-1.31 3.17-2.074.006.037.009.071.016.109.595 3.468 6.099 3.512 9.148 5.268.827-.208 1.696-.289 2.48-.623.457-.195 2.78-1.728 4.124-2.62-.883 3.13-1.521 6.256-.899 9.37.698 3.492 7.897 4.475 10.89 3.091.316-.145 2.383-1.534 2.47-1.591.456-.32.904-.648 1.355-.973-.123 5.026.944 7.19 7.275 6.408.494-.06.878-.468 1.317-.703.57-.38 1.13-.775 1.697-1.16l.002.011c.031.151.06.072.09-.074 5.478-3.725 10.812-7.652 16.035-11.73 4.611-3.555 9.169-7.182 13.77-10.75 1.164 2.366 2.338 4.727 3.4 7.13.44-.29.895-.561 1.326-.867.45-.526.913-1.04 1.383-1.548l.092.326a57.12 57.12 0 0 0 2.681-2.653c1.802-1.889 3.532-3.848 5.256-5.81.267.608.511 1.15.793 1.807.197.459.731.016 1.246-.463-.002-.014-.013-.03-.008-.041.03-.063.07-.118.112-.172l.023.098c.221-.21.435-.41.61-.54.611-.45 1.103-1.042 1.656-1.564a200.24 200.24 0 0 0 5.314-6.148c1.337-1.341 2.678-2.679 3.938-4.092 5.588-5.708 10.886-11.7 16.25-17.617 4.25-4.954 8.475-9.92 12.396-15.143 4.688-4.876 8.105-7.74 7.434-16.068a718.52 718.52 0 0 0 20.148-21.916c1.683-1.93 3.386-3.84 5.049-5.787 1.076-1.26 2-2.663 3.197-3.81.685-.655 2.408-.876 2.201-1.802-.572-2.56-1.369-5.056-2.263-7.523 1.132-1.304 2.27-2.601 3.394-3.912 3.289-4.219 6.796-8.333 9.838-12.737.503-.727.925-1.507 1.416-2.242.461-.69.96-1.352 1.44-2.03.777-5.836 3.368-11.712 2.334-17.509-.425-2.38-3.891-2.982-6.147-3.852-4.035-1.555-7.388 1.813-10.002 4.16-5.68 5.66-11.056 11.614-16.209 17.757-.879-3.11-1.82-6.21-2.578-9.34-1.305.145-2.665.032-3.914.435-1.44.465-3.989 3.28-4.793 4.133-3.777 4.003-7.249 8.278-10.787 12.488-1.185 1.486-2.363 2.976-3.545 4.463a236.77 236.77 0 0 1-4.8-9.56c-.435-.918-2.048.33-2.93.832-.614.348-1.054.923-1.51 1.474-.261-.99-.39-.818-.633.727-2.342 2.555-3.208 3.712-5.627 6.687-6.97 8.394-13.69 16.991-20.291 25.678l3.697 9.115a36.433 36.433 0 0 1-1.03 1.498c-.37.509-1.195.829-1.196 1.457-.014 6.32.769 12.615 1.154 18.922 2.335.218 4.667.83 7.006.653.78-.06 1.86-.774 2.84-1.551-.142-.13-.275-.303-.28-.428-.014-.34.273-.992.61-1.668.007.602.022 1.203.021 1.805.548-.454 1.022-.87 1.375-1.2.136.865.28 1.728.438 2.588a1479.54 1479.54 0 0 1-6.139 6.616c-4.582 4.795-9.096 9.658-13.785 14.35a16.14 16.14 0 0 1-2.643 2.099c-1.026-4.029-2.12-8.03-4.023-11.697-.558-1.075-2.398.443-3.52.898-.203.083-.512.272-.861.504.021.007.043.008.064.018.323.147-.087.72-.246 1.037-.242.484-.554.928-.877 1.365l-.367-1.398c-.98.74-1.937 1.511-2.254 1.771-1.852 1.519-4.257 3.667-6.02 5.217-1.163 1.044-2.321 2.096-3.484 3.142-.425-1.849-1.1-4.074-2.074-6.818-1.255-3.538-7.343-2.08-9.844-.799-.402.206-.77.471-1.138.737.08.105.147.223.144.306-.013.47-.33.88-.494 1.32-.058.098-.119.194-.178.291.074-.559.132-1.117.184-1.673-.053.036-.105.075-.158.111-.614.466-1.24.915-1.842 1.396-2.032 1.629-3.697 3.176-5.72 4.891-.725.614-1.456 1.222-2.186 1.828-1.417-4.02-3.003-7.99-4.387-12.021-.881.37-1.813.641-2.644 1.113-.095.053-.26.182-.383.268-.011-.327-1.05-.445-.973-.127.058.238.12.475.18.713.308-.245.554-.42.793-.584.015.469-.316.856-.625 1.246l-.168-.662c-1.085.86-2.43 2.044-2.936 2.482-2.566 2.228-5.101 4.492-7.652 6.738-.257.242-.519.478-.777.717-.21-4.748-.447-9.519-2.473-13.715-.924-1.913-4.245.2-6.367.299-.623.446-1.28.846-1.87 1.336-.061.051-.118.108-.18.16.052.45-.06.986-.253 1.555-.028-.415-.064-.83-.1-1.242a36.27 36.27 0 0 0-1.502 1.412c.236-1.49.388-2.989.383-4.5-.005-1.516-1.947-2.453-3.306-3.125-3.434-1.699-5.74-1.935-8.95-.715-.697.265-1.283.757-1.925 1.137-3.706 2.928-7.085 6.241-10.42 9.59-.048-1.657-.19-3.577-.455-5.917-.457-4.016-7.933-3.39-10.069-3.443-.775.298-1.578.531-2.326.893-1.203.582-3.868 2.368-4.875 3.043-3.676 2.463-7.282 5.03-10.887 7.595a114.374 114.374 0 0 1-8.08 5.52c.961-5.595 1.556-11.249 2.346-16.871-2.861-.856-5.635-2.087-8.582-2.569-.77-.125-1.495.469-2.197.809-.32.155-.63.332-.94.51-.027.19-.052.379-.094.564l.09-.562c-.182.104-.364.209-.543.32-.047-2.158-.317-5.003-.78-9.094-.272-2.385-6.796-3.253-8.222-3.275-.966-.015-1.9.36-2.85.54-3.46 1.422-6.61 3.437-9.628 5.645-.467-2.294-1.328-5.469-2.717-10.1-.64-2.132-4.27-1.268-6.404-1.902-.761.128-1.536.184-2.281.383-1.519.407-3.207 1.367-4.84 2.465 1.977-3.441 3.932-6.902 6.314-10.068.855-5.684 3.89-11.457 2.565-17.05-.335-1.41-1.301-2.296-2.553-2.823 1.12-1.623 2.157-3.306 3.32-4.893.474-.646 1.503-1.076 1.5-1.877-.025-6.405 1.138-13.353-1.582-19.152-1.062-2.265-5.001-.148-7.502-.22-1.022.543-2.097 1.001-3.068 1.632-.561.364-1.13.781-1.7 1.201 2.143-4.087 3.38-8.156 2.553-15.193-.598-5.096-9.345-4.388-12.007-3.832-.39.081-.911.333-1.473.652-.387-2.236-2.028-6.123-5.654-14.185-.792-1.76-3.857-.05-5.786-.075-.208.11-.422.21-.634.313-.918-3.821-1.91-7.616-3.51-11.188-.27-.604-1.064-.306-1.846.035.546-.7 1.086-1.406 1.635-2.105l-7.388-19.594Zm75.082 133.44.004-.002c.004-.027.005-.054.01-.08l-.014.082zm71.789 6.629c.117-.105.233-.211.353-.313v-.03c-.024-.19-.431-.592-.412-.402.025.247.037.497.059.745zm40.72 3.498c.116-.08.23-.162.344-.245-.126-.167-.288-.3-.299-.168-.01.137-.032.276-.045.413zm25.159-3.495c.499-.376.997-.737 1.425-1.021-.498-.17-1.057.289-1.584.416l.159.605zm30.584-15.18c-.12.1-.229.194-.352.292.17.157.355.25.355.1 0-.13-.004-.261-.004-.391zm-13.409 54.555c-.042.04-.084.076-.127.116.018.11.23.291.207.199l-.08-.315zm-10.103 7.235c-.421.384-.837.749-1.223 1.049-.08.062-.168.114-.252.173-.022.026-.046.05-.068.077-.162.19-.713.632-.467.588.808-.147 2.488-.121 2.285-.916-.083-.327-.185-.647-.275-.971zm-100.99 3.455-.127.09c.065.076.145.151.191.23-.023-.106-.041-.214-.064-.32zM29.127 141.932a.59.59 0 0 1 .125.033 21.53 21.53 0 0 0-1.217.756l-.09-.381c.392-.107.801-.45 1.182-.408zm6.186 10.916c.141.024.283.09.384.164-.224.176-.445.36-.666.554-.014-.196-.023-.394-.039-.59-.01-.13.143-.158.32-.128zm301.746 4.586c.005.415.106.841.011 1.246-.093.4-.242.781-.404 1.16.158-.804.302-1.607.393-2.406zM63.352 182.46c.219.068.653.535.654.799.001.629-.486 1.16-.772 1.72-.027.054-.05.095-.078.147.03-.826.06-1.654.073-2.58 0-.088.05-.109.123-.086zm-38.297 24.195c-.157.761-.309 1.57-.455 2.448-.09.539.032-1.106.183-1.631.078-.27.176-.544.272-.817zm40.59 29.545c.178.03.375.122.459.229.217.277-.432 1.375-1.079 2.388.103-.83.197-1.658.27-2.482.012-.135.171-.165.35-.135zm21.865 6.422c.15.031.425.31.472.48.091.329-.115.671-.173 1.006-.275.525-.633 1.211-.996 1.883.21-1.102.42-2.204.601-3.304.01-.058.046-.075.096-.065zm70.816 11.193c.05-.024.046.802.076 1.104a29.04 29.04 0 0 1-1.015 2.53c.322-1.188.64-2.375.914-3.565.01-.043.018-.065.025-.069zm-121.945.188c-.006.086-.017.168-.022.254-.005.097-.091.036-.18-.067.067-.062.136-.124.202-.187zm97.988 1.021c.083-.03.3.394.283.57-.041.425-.439 1.08-.843 1.68.193-.735.376-1.471.535-2.207.005-.024.013-.038.025-.043zm-92.613 17.512-.131 1.318c.02-.38-.063-.778.059-1.138.02-.061.049-.12.072-.18zm16.656 9.068a38.74 38.74 0 0 0-.312 1.528c-.089.494.11-1.01.289-1.479.005-.013.018-.035.023-.049zm111.25 22.887c-.106.695-.204 1.39-.281 2.082-.024.216-.393-.318-.375-.535.02-.258.327-.905.656-1.547z" style="opacity:1;fill:#e6e6e6;fill-opacity:1;stroke:none;stroke-width:.5;stroke-linecap:butt;stroke-linejoin:miter;stroke-miterlimit:10;stroke-dasharray:none;stroke-dashoffset:0;stroke-opacity:1" transform="matrix(.8 0 0 .8 0 0)"/><path d="m328.334 185.291-3.816 5.168c-6.56 9.087-12.808 18.399-19.633 27.291-6.054 8.087-12.215 16.094-18.237 24.205-.275-3.897-1.322-3.397-7.453-2.906-.563.375-1.159.704-1.69 1.125-.385.306-.822.69-1.27 1.105-.007-.008-.01 0-.012.012a71.628 71.628 0 0 0-3.237 3.234c-3.205 3.4-6.252 6.954-9.226 10.555-8.018 9.49-15.845 19.13-23.194 29.154-3.272 4.318-6.527 8.65-9.824 12.95-.848 1.106-1.715 2.197-2.562 3.304-.656.857-1.248 1.765-1.948 2.586-.63.74-1.356 1.39-2.035 2.084l10.43 18.738c.05-.442-.032-.92.15-1.326.425-.947 3.487-5.337 3.836-5.832 2.425-3.428 4.938-6.794 7.451-10.16 1.65 3.231 9.521 2.716 10.791 2.809.817-.442 1.694-.788 2.452-1.325 1.184-.839 3.192-3.126 4.064-4.136 2.91-3.371 5.544-6.954 8.211-10.516 6.764-9.53 13.401-19.148 20.256-28.615 6.775-9.286 13.774-18.404 20.72-27.56 6.937-8.916 13.327-18.23 19.854-27.444l3.715-5.168-7.793-19.332Zm-67.205 116.8c-.438 1.633-.884 3.263-1.244 4.893-.097.438-.253-.892-.178-1.334.15-.88.817-2.313 1.422-3.558z" style="opacity:1;fill:#e6e6e6;fill-opacity:1;stroke:none;stroke-width:.5;stroke-linecap:butt;stroke-linejoin:miter;stroke-miterlimit:10;stroke-dasharray:none;stroke-dashoffset:0;stroke-opacity:1" transform="matrix(.8 0 0 .8 0 0)"/></g><g style="display:inline"><path d="M110.906 200.111c-1.792 2.262-4.584 4.122-7.618 5.409-1.138.483-2.323.842-3.485 1.263-8.88 2.325-18.133 2.454-27.175 1.03-2.334-.368-4.636-.914-6.953-1.37-2.357-.713-4.756-1.302-7.072-2.14-9.008-3.26-18.687-8.779-24.989-16.126-1.506-1.757-2.652-3.792-3.979-5.688-.829-2.063-1.898-4.045-2.488-6.189-1.722-6.256-1.056-12.695.944-18.78 1.43-4.354 2.257-5.291 4.507-9.024 1.664-2.177 3.51-4.495 6.229-5.396.243-.081 1.644-.39 1.922.21.131.284.08.677-.098.934-.253.366-.647.458-1.086.593-3.66 1.13-8.891.252-12.204-.684-1.591-.45-3.237-1.207-4.687-1.972-1.685-.889-3.513-2.098-4.735-3.14-1.797-1.532-4.094-3.45-5.601-5.34-4.374-5.483-6.399-9.94-7.736-17.187-.995-5.385-.597-11.127.095-15.37.652-3.995 2.304-9.652 4.18-13.141 4.954-9.214 10.872-15.477 19.714-19.775 5.263-2.557 11.28-4.049 17.11-2.943-2.391-1.736-3.617-4.279-4.958-7.099-1.509-3.174-2.104-6.582-2.05-10.167.09-5.804 2.202-11.412 5.538-16.057 1.229-1.71 2.752-3.174 4.128-4.762 4.65-3.726 5.631-4.933 11.073-7.556 8.27-3.986 17.408-5.394 26.474-5.178 2.116.186 4.239.303 6.348.558 7.158.865 14.56 2.561 21.078 5.806 1.273.633 2.47 1.42 3.704 2.13 1.043.758 2.119 1.471 3.128 2.276 3.14 2.505 6.16 5.967 6.814 9.146.398-2.204 1.245-3.27 2.27-4.808 5.886-8.83 18.76-15.343 30.085-17.45 3.073-.573 6.208-.83 9.331-.874 5.533-.076 10.3.106 17.609 2.095 7.178 1.953 13.748 5.573 19.336 10.558 1.576 1.405 3.098 2.894 4.418 4.551 2.65 3.332 4.823 6.635 6.221 10.13 2.098 5.244 2.746 10.969 2.181 16.581a41.416 41.416 0 0 1-.93 5.42 39.89 39.89 0 0 1-1.538 4.963c-2.523 6.625-6.612 12.642-12.6 16.92.386-.278 1.168-.57 1.983-.682 7.278-1.001 15.051.163 21.653 3.501 1.878.95 3.686 2.066 5.34 3.38 3.275 2.6 6.474 6.004 8.6 9.756 3.49 6.154 5.116 13.5 4.68 20.586a37.785 37.785 0 0 1-1.166 7.262 40.754 40.754 0 0 1-2.598 7.071c-3.135 6.62-8.098 12.307-14.007 16.47-3.964 2.792-7.482 4.492-11.792 5.844-4.017 1.26-8.59 1.948-13.01 1.64-.636-.043-1.275-.127-1.89-.3-.222-.062-.651-.174-.571-.393.126-.347.564-.553.925-.58.652-.05 1.305.165 1.93.363 4.397 1.397 9.25 4.928 11.97 8.694.892 1.237 1.508 2.661 2.262 3.992 1.148 4.078 1.92 5.259 1.322 9.644-.845 6.195-4.406 11.792-8.626 16.153-1.789 1.848-3.855 3.39-5.783 5.085-2.37 1.54-4.648 3.242-7.11 4.623-8.374 4.695-17.501 7.634-26.902 9.214-8.601 1.445-11.564 1.25-20.246 1.531-8.844-.094-17.696-.738-26.202-3.546-3.737-1.234-7.588-2.914-10.887-5.182-1.11-.763-2.351-1.78-3.078-2.636-1.142-1.343-1.984-2.758-2.397-4.291" style="opacity:1;fill:#fff;fill-opacity:1;stroke:#00112b;stroke-width:.40000004;stroke-linecap:butt;stroke-linejoin:miter;stroke-miterlimit:10;stroke-dasharray:none;stroke-dashoffset:0;stroke-opacity:1" transform="translate(15.055 16.763)"/><path d="M-137.411 116.102a30.787 30.787 0 0 1-4.539-5.016c-5.131-7.042-7.838-15.545-8.992-24.106a81.67 81.67 0 0 1-.744-10.7c-.01-3.965.203-7.94.689-11.875 2.213-17.94 9.091-35.84 20.025-50.297 2.721-3.597 5.991-6.744 8.987-10.117 3.297-2.572 6.374-5.455 9.892-7.716 10.655-6.849 24.043-10.333 36.534-7.13 2.05.525 3.937 1.555 5.905 2.332 4.896 3.85 3.046 1.652 5.864 6.317M445.184 93.543c1.636-.542 3.368-.83 5.398-.83 2.064 0 3.866.222 6.397 1.564 3.055 1.62 5.076 4.359 5.195 7.889.043 1.269-.074 2.572-.463 3.78-1.058 3.28-1.422 4.301-3.727 6.972-2.644 3.064-6.249 5.091-10.2 5.904-1.252.257-2.543.25-3.815.376-1.218-.17-2.47-.188-3.656-.513-4.46-1.223-8.425-4.75-9.078-9.5-.168-1.219.047-2.46.07-3.692.371-1.225.594-2.505 1.113-3.676 2.259-5.094 6.84-8.949 11.925-11.025.917-.375 1.9-.562 2.85-.842" style="opacity:1;fill:#fff;fill-opacity:1;stroke:#00112b;stroke-width:.40000004;stroke-linecap:butt;stroke-linejoin:miter;stroke-miterlimit:10;stroke-dasharray:none;stroke-dashoffset:0;stroke-opacity:1" transform="translate(0 33.934)"/><path d="M-118.814 80.633c.863-.213 1.708-.522 2.589-.64 7.864-1.059 16.263.171 23.396 3.7 2.029 1.004 3.858 2.371 5.787 3.556 4.496 4.055 6.186 4.95 9.293 10.312 3.77 6.504 5.51 14.285 5.04 21.774-.162 2.588-.84 5.117-1.26 7.676-.936 2.491-1.647 5.079-2.807 7.474-3.388 6.997-8.751 13.008-15.136 17.407-5.109 3.52-7.106 3.924-12.741 6.098-4.57 1.366-9.283 2.139-14.057 1.814-.688-.047-1.38-.135-2.044-.318-.239-.066-.703-.184-.617-.416.137-.366.667-.409 1-.613.695.128 1.41.175 2.085.385 4.751 1.476 9.996 5.208 12.934 9.188.965 1.308 1.63 2.813 2.445 4.22 1.24 4.31 2.075 5.558 1.428 10.193-.913 6.548-4.76 12.464-9.32 17.073-1.933 1.953-4.166 3.583-6.249 5.374-2.561 1.63-5.022 3.427-7.684 4.887-9.048 4.962-18.91 8.069-29.068 9.738-9.293 1.528-12.494 1.321-21.876 1.619-9.556-.1-19.12-1.008-28.312-3.748-4.038-1.204-8.2-2.876-11.764-5.185-1.199-.776-2.217-1.802-3.326-2.703-1.027-1.547-2.329-2.597-1.771-4.63.183-.67.648-1.27 1.178-1.718.548-.463 1.296-.615 1.944-.922" style="opacity:1;fill:#fff;fill-opacity:1;stroke:#00112b;stroke-width:.08000001;stroke-linecap:butt;stroke-linejoin:miter;stroke-miterlimit:10;stroke-dasharray:none;stroke-dashoffset:0;stroke-opacity:1" transform="translate(0 33.934)"/><path d="M-217.325 203.397c-.194.363-.347.75-.583 1.088-2.03 2.908-5.28 4.928-8.488 6.288-1.202.51-2.455.89-3.682 1.335-9.386 2.457-19.166 2.594-28.723 1.089-2.466-.389-4.9-.966-7.349-1.448-2.491-.754-5.026-1.376-7.474-2.262-9.522-3.445-19.75-9.279-26.412-17.045-1.592-1.856-2.803-4.008-4.205-6.012-.877-2.18-2.006-4.275-2.63-6.54-1.82-6.613-1.116-13.42.997-19.85 1.513-4.603 2.386-5.593 4.764-9.538 1.76-2.3 3.71-4.751 6.584-5.704.257-.085 1.737-.411 2.03.222.14.3-.068.659-.102.988-.383.273-.72.624-1.149.819-3.64 1.655-8.804.418-12.24-1.07-1.58-.683-3.041-1.61-4.561-2.415-4.195-3.275-5.891-4.16-9.161-8.648-5.132-7.042-7.838-15.545-8.992-24.106-.478-3.543-.496-7.133-.744-10.7.23-3.958.203-7.94.688-11.875 2.213-17.94 9.092-35.84 20.026-50.296 2.72-3.598 5.99-6.745 8.986-10.117 3.298-2.572 6.375-5.455 9.892-7.716 10.656-6.85 24.043-10.333 36.535-7.131 2.05.525 3.936 1.555 5.904 2.333 4.896 3.85 3.046 1.652 5.865 6.316M-201.046 30.395c.949-1.723 1.696-3.574 2.846-5.169C-190.825 15-178.539 8.276-166.392 5.6c3.296-.726 6.695-.861 10.042-1.292 8.21.109 11.125-.297 19.096 1.513 7.826 1.779 15.06 5.34 21.29 10.384 1.755 1.422 3.297 3.088 4.946 4.633 3.48 4.306 4.823 5.397 7.11 10.452 2.47 5.455 3.392 11.476 3 17.427-.127 1.934-.53 3.84-.794 5.761-.49 1.768-.866 3.571-1.468 5.304-2.467 7.098-6.806 13.544-12.499 18.435" style="opacity:1;fill:#fff;fill-opacity:1;stroke:#00112b;stroke-width:.08000001;stroke-linecap:butt;stroke-linejoin:miter;stroke-miterlimit:10;stroke-dasharray:none;stroke-dashoffset:0;stroke-opacity:1" transform="translate(0 33.934)"/><path d="M-290.044 60.93c-4.007-4.654-2.173-2.093-5.415-7.747-1.476-4.572-2.333-5.975-2.256-10.92.098-6.233 2.424-12.257 6.097-17.245 1.352-1.837 3.03-3.41 4.544-5.115 5.121-4.002 6.201-5.299 12.192-8.116 9.106-4.281 19.168-5.793 29.15-5.561 2.33.2 4.667.326 6.99.6 7.88.928 16.03 2.75 23.207 6.234 1.403.681 2.72 1.525 4.079 2.288 1.148.815 2.333 1.58 3.444 2.445 3.457 2.69 6.541 6.024 8.103 10.171" style="opacity:1;fill:#fff;fill-opacity:1;stroke:#00112b;stroke-width:.08000001;stroke-linecap:butt;stroke-linejoin:miter;stroke-miterlimit:10;stroke-dasharray:none;stroke-dashoffset:0;stroke-opacity:1" transform="translate(0 33.934)"/><path d="M-285.227 141.79c-5.202-.088-8.14.16-13.326-1.24-5.668-1.531-7.754-3.233-12.732-6.193-1.826-1.532-3.762-2.94-5.478-4.595-4.975-4.8-9.343-10.953-11.702-17.493-2.07-5.736-1.716-7.406-2.034-13.408.778-6.014.623-7.496 2.68-13.157 2.875-7.911 7.674-13.84 14.307-18.91 1.567-1.008 3.088-2.09 4.7-3.024 5.35-3.102 11.402-5.518 17.682-5.132" style="opacity:1;fill:#fff;fill-opacity:1;stroke:#00112b;stroke-width:.08000001;stroke-linecap:butt;stroke-linejoin:miter;stroke-miterlimit:10;stroke-dasharray:none;stroke-dashoffset:0;stroke-opacity:1" transform="translate(0 33.934)"/><path d="M-213.118 459.383c-1.893 2.39-4.844 4.356-8.052 5.716-1.202.51-2.455.89-3.683 1.335-9.385 2.457-19.165 2.594-28.722 1.088-2.466-.388-4.9-.965-7.349-1.447-2.491-.754-5.026-1.376-7.474-2.262-9.522-3.445-19.751-9.279-26.412-17.045-1.592-1.856-2.803-4.008-4.205-6.012-.877-2.18-2.006-4.275-2.63-6.54-1.82-6.613-1.116-13.42.997-19.85 1.513-4.603 2.386-5.593 4.764-9.538 1.76-2.301 3.71-4.752 6.584-5.704.257-.086 1.737-.412 2.03.222.14.3.086.716-.102.988-.268.386-.684.483-1.149.626-3.867 1.194-9.396.266-12.898-.723-1.682-.475-3.421-1.275-4.954-2.084-1.781-.94-3.713-2.217-5.004-3.318-1.9-1.62-4.327-3.647-5.92-5.645-4.623-5.795-6.763-10.507-8.177-18.166-1.051-5.692-.631-11.76.1-16.245.69-4.223 2.436-10.202 4.418-13.89 5.236-9.739 11.491-16.359 20.837-20.9 5.563-2.704 11.922-4.28 18.084-3.112-2.527-1.834-3.823-4.522-5.24-7.503-1.595-3.355-2.224-6.957-2.166-10.746.094-6.134 2.326-12.062 5.853-16.971 1.298-1.807 2.908-3.356 4.362-5.034 4.916-3.938 5.952-5.214 11.703-7.986 8.741-4.213 18.4-5.7 27.982-5.473 2.237.197 4.48.32 6.71.59 7.565.914 15.388 2.707 22.277 6.136 1.346.67 2.61 1.5 3.915 2.25 1.102.803 2.24 1.557 3.306 2.408 3.32 2.647 6.511 6.306 7.427 9.667.66-2.33 1.574-3.457 2.682-5.082 6.36-9.333 20.27-16.217 32.507-18.445 3.32-.605 6.709-.877 10.083-.923 5.978-.08 11.129.112 19.027 2.214 7.756 2.065 14.855 5.89 20.894 11.16 1.702 1.484 3.347 3.058 4.773 4.81 2.865 3.521 5.212 7.013 6.722 10.707 2.267 5.542 2.968 11.593 2.357 17.525a42.904 42.904 0 0 1-1.005 5.728 41.491 41.491 0 0 1-1.662 5.247c-2.726 7.002-7.145 13.361-13.614 17.883.417-.294 1.262-.602 2.143-.72 7.864-1.06 16.263.171 23.395 3.7 2.03 1.004 3.984 2.183 5.772 3.572 3.537 2.749 6.994 6.346 9.292 10.311 3.77 6.505 5.528 14.27 5.057 21.76a39.137 39.137 0 0 1-1.26 7.675 42.48 42.48 0 0 1-2.807 7.474c-3.388 6.997-8.751 13.008-15.136 17.407-4.283 2.951-8.085 4.749-12.741 6.178-4.34 1.331-9.283 2.058-14.057 1.734-.688-.047-1.38-.135-2.044-.318-.239-.066-.703-.184-.617-.416m0 0c.137-.367.61-.584 1-.613.705-.053 1.41.175 2.085.384 4.751 1.477 9.996 5.209 12.934 9.19.965 1.307 1.63 2.812 2.444 4.218 1.24 4.311 2.076 5.559 1.43 10.194-.914 6.548-4.761 12.464-9.322 17.073-1.932 1.953-4.165 3.583-6.248 5.374-2.561 1.629-5.023 3.427-7.684 4.887-9.048 4.962-18.91 8.069-29.068 9.738-9.293 1.527-12.494 1.321-21.876 1.619-9.557-.1-19.12-.78-28.312-3.749-4.038-1.303-8.2-3.08-11.764-5.476-1.199-.807-2.54-1.883-3.326-2.786-1.233-1.42-2.143-2.916-2.59-4.536" style="opacity:1;fill:#fff;fill-opacity:1;stroke:#00112b;stroke-width:.40000004;stroke-linecap:butt;stroke-linejoin:miter;stroke-miterlimit:10;stroke-dasharray:none;stroke-dashoffset:0;stroke-opacity:1" transform="translate(0 33.934)"/><path d="M293.589 86.61c.588-.307 1.15-.664 1.763-.92 2.01-.839 4.123-1.113 6.289-.88 1.842.43 2.344.406 4 1.355 1.895 1.085 3.383 2.693 4.388 4.6.343.652.572 1.355.858 2.032.42 1.839.7 2.504.623 4.414-.095 2.376-.827 4.69-2.174 6.67-.46.679-.976 1.352-1.563 1.94-1.37 1.368-2.389 2.112-4.183 2.934-2.513 1.153-5.296 1.577-8.044 1.402-.947-.06-1.88-.26-2.82-.39-.91-.276-1.845-.479-2.73-.827-3.254-1.28-6.365-3.583-8.054-6.703-.377-.696-.594-1.456-.89-2.2-.282-2.068-.538-2.5-.015-4.588.553-2.21 1.983-4.078 3.742-5.446.624-.485 1.33-.853 1.994-1.28.738-.322 1.456-.699 2.214-.969 2.745-.975 5.798-1.35 8.689-1.018.435.05.862.16 1.293.24M441.268 127.83c.892-.561 2.043-1.12 3.293-1.442 1.366-.352 2.766-.339 4.064.258.394.181.74.451 1.109.676.852.862 1.135 1.017 1.697 2.127.958 1.893.992 4.002.497 6.027-.535 1.414-.56 1.736-1.446 3.004-1.465 2.095-3.546 3.563-5.91 4.484-.601.172-1.19.394-1.804.516-2.21.443-4.601.224-6.513-1.048-.42-.28-.77-.652-1.156-.978-.753-1.048-1.073-1.291-1.41-2.565-.413-1.555-.136-3.229.52-4.676.234-.515.567-.98.85-1.47.37-.45.707-.928 1.108-1.35 1.323-1.396 3.294-2.807 5.175-3.323a1.34 1.34 0 0 1 .542-.041M412.165 159.118c.38-.82.692-1.655 1.142-2.46 1.175-2.1 1.503-2.406 3.309-4.232.589-.595 1.292-1.14 2.038-1.65 2.499-1.711 5.961-2.926 9.584-2.917.848.002 1.683.136 2.524.204 2.18.534 2.841.574 4.74 1.537 3.366 1.709 5.33 4.288 6.654 6.915.674 1.959 1.017 2.531 1.124 4.565.17 3.242-.902 6.433-2.887 9.375-.57.677-1.062 1.387-1.707 2.033-2.275 2.278-5.665 4.233-9.767 4.756-.904.115-1.835.08-2.752.121-2.495-.317-3.102-.243-5.345-1.153-2.828-1.147-4.884-2.979-6.281-4.964-.496-.703-.827-1.454-1.24-2.18-.267-.756-.603-1.501-.8-2.266-.65-2.508-.626-5.215.401-7.679.132-.315.345-.611.518-.917M458.063 138.24c.625-.348 1.23-.732 1.874-1.044 1.682-.815 1.99-.874 3.772-1.279a9.466 9.466 0 0 1 1.775-.21c1.997-.068 4.101.535 5.57 1.939.344.328.607.731.91 1.097.581 1.164.827 1.444 1.047 2.758.39 2.332-.289 4.647-1.256 6.745-.848 1.443-1.037 1.921-2.159 3.19-1.789 2.025-4.053 3.538-6.547 4.548-.62.19-1.227.427-1.86.569-2.23.497-4.73.37-6.699-.898-.433-.28-.792-.66-1.189-.99-.833-1.154-1.122-1.344-1.513-2.76-.493-1.784-.28-3.684.29-5.422.201-.616.497-1.197.745-1.796.324-.559.615-1.139.973-1.677 1.173-1.765 2.734-3.39 4.564-4.482.234-.14.49-.236.736-.354" style="opacity:1;fill:#fff;fill-opacity:1;stroke:#000;stroke-width:.40000004;stroke-linecap:butt;stroke-linejoin:miter;stroke-miterlimit:10;stroke-dasharray:none;stroke-dashoffset:0;stroke-opacity:1" transform="translate(0 33.934)"/></g><g style="display:inline" transform="translate(0 57.934)"><path d="M196.25 86.012V13.97M196.25 150.031V97.644M167.902 150.031V13.97M139.554 150.031V13.97M111.206 150.031V13.97M82.859 86.085V13.969M82.859 150.031V97.717M136.647 25.308h70.938M71.523 25.308h57.032M71.523 53.652h136.062M71.523 82h136.062M71.523 110.348h136.062M136.572 138.695h71.013M71.523 138.695h49.989" style="display:inline;fill:none;stroke:#9e9ed1;stroke-width:.19925003;stroke-linecap:butt;stroke-linejoin:miter;stroke-miterlimit:10;stroke-opacity:1"/><path d="M71.523 82.024h141.2M139.554 150.031V9.192" style="display:inline;fill:none;stroke:#000;stroke-width:.39850006;stroke-linecap:butt;stroke-linejoin:miter;stroke-miterlimit:10;stroke-opacity:1"/><use xlink:href="#a" width="100%" height="100%" x="347.363" y="587.952" style="display:inline;fill:#b0b0d9;fill-opacity:1" transform="translate(-153.606 -492.587)"/><use xlink:href="#a" width="100%" height="100%" x="284.15" y="522.187" style="display:inline;fill:#b0b0d9;fill-opacity:1" transform="translate(-153.606 -493.859)"/><g style="display:inline"><use xlink:href="#b" width="100%" height="100%" x="276.027" y="635.161" style="fill:#b0b0d9;fill-opacity:1" transform="translate(-153.366 -493.547)"/><use xlink:href="#a" width="100%" height="100%" x="283.827" y="635.161" style="fill:#b0b0d9;fill-opacity:1" transform="translate(-153.366 -493.547)"/></g><path d="M211.148 80.074c.12.73 1.46 1.829 1.828 1.95-.367.125-1.707 1.222-1.828 1.953M137.6 10.73c.731-.121 1.833-1.465 1.954-1.832.121.367 1.219 1.71 1.953 1.832" style="display:inline;fill:none;stroke:#000;stroke-width:.55790007;stroke-linecap:round;stroke-linejoin:round;stroke-miterlimit:10;stroke-opacity:1"/><path d="M155.056 82.838c-.085-.06-.144-.138-.216-.207-.043-.076-.1-.15-.129-.23-.188-.534.081-1.166.563-1.57.085-.071.185-.132.277-.198.107-.05.207-.11.321-.149.466-.16.997-.134 1.427.075.106.051.194.12.29.18.407.34.684.806.55 1.276.002.271-.072.536-.29.804a1.956 1.956 0 0 1-1.652.74c-.123-.006-.243-.034-.364-.05-.355-.094-.507-.204-.725-.422.685-.926 2.052.26-.052-.249z" style="display:inline;opacity:1;fill:red;fill-opacity:1;stroke:red;stroke-width:.19200002;stroke-linecap:butt;stroke-linejoin:miter;stroke-miterlimit:10;stroke-dasharray:none;stroke-dashoffset:0;stroke-opacity:1"/><g style="display:inline"><use xlink:href="#b" width="100%" height="100%" x="230.105" y="587.538" style="fill:#b0b0d9;fill-opacity:1" transform="translate(-153.606 -492.267)"/><use xlink:href="#a" width="100%" height="100%" x="237.905" y="587.538" style="fill:#b0b0d9;fill-opacity:1" transform="translate(-153.606 -492.267)"/></g><path d="M159.46 84.82c.03-.529.002-1.339.002-2.008 0-.479.086-1.956.014-2.562l.664-.036c.035.621-.018 2.085-.018 2.565 0 .668.037 1.438.002 2.004l-.664.037z" style="display:inline;opacity:1;fill:#000;fill-opacity:1;stroke:#000;stroke-width:0;stroke-linecap:butt;stroke-linejoin:miter;stroke-miterlimit:4;stroke-dasharray:none;stroke-dashoffset:0;stroke-opacity:1"/><g style="display:inline"><path d="M143.497 110.344c.002-.67.002-1.554.001-2.224v-1.847l.662.035v4.07l-.663-.034zM143.527 104.148a594.285 594.285 0 0 0 0-3.379l.663-.107v3.378l-.663.108zM143.523 98.537c.005-.534-.006-2.674.007-3.208.014-.265.006-.14.022-.375l.677-.09c-.022.228-.011.106-.03.364-.029.53-.006 2.666-.012 3.196l-.664.113z" style="opacity:1;fill:#000;fill-opacity:1;stroke:#000;stroke-width:0;stroke-linecap:butt;stroke-linejoin:miter;stroke-miterlimit:4;stroke-dasharray:none;stroke-dashoffset:0;stroke-opacity:1" transform="matrix(1 0 0 1.1 -28.475 -36.711)"/></g><path d="M115.796 68.251c.465.08.945.182 1.4.314.237.07.467.16.698.246.767.283 1.515.54 2.25.899.672.329 1.373.356 2.046.683a6.27 6.27 0 0 0 1.695.562c.485.083.958.372 1.429.51.396.118.76.23 1.148.362.538.183 1.104.491 1.654.617.66.151 1.247.395 1.894.609.66.218 1.327.42 2.01.533.47.079.928.31 1.398.407.883.182 1.747.605 2.616.846.498.137 1.016.222 1.502.4.223.08.44.174.656.272.576.262 1.163.332 1.74.594.976.444 2.033.675 3.052 1.006.961.313 1.893.71 2.86 1.005.818.25 1.643.468 2.444.767.962.359 1.955.614 2.931.93.82.263 1.573.656 2.352 1 .865.383 1.77.661 2.676.92.438.126.895.151 1.325.306.507.182 1.55.672 2.02.934l.036.02-.247.605c-.004-.004.16-.008.156-.012-.444-.264-1.638-.735-2.12-.916-.428-.16-.886-.177-1.323-.305-.916-.27-1.833-.548-2.71-.931-.776-.34-1.523-.732-2.336-.996-.975-.317-1.968-.571-2.93-.93-.798-.298-1.62-.516-2.435-.764-.966-.295-1.897-.691-2.857-1.006-1.032-.339-2.104-.566-3.094-1.015-.57-.259-1.149-.326-1.717-.588a9.354 9.354 0 0 0-.63-.266c-.482-.18-.999-.259-1.492-.397-.848-.238-1.694-.651-2.557-.834-.48-.102-.948-.329-1.429-.411-.711-.123-1.406-.332-2.096-.557-.628-.204-1.193-.442-1.83-.59-.56-.13-1.136-.44-1.684-.624-.388-.13-.75-.243-1.146-.36-.458-.136-.918-.422-1.39-.503a6.4 6.4 0 0 1-1.766-.58c-.674-.333-1.382-.356-2.057-.688-.72-.354-1.454-.606-2.206-.885-.22-.082-.439-.171-.664-.238a11.72 11.72 0 0 0-1.329-.303l.057-.648z" style="display:inline;opacity:1;fill:red;fill-opacity:1;stroke:red;stroke-width:.24000002;stroke-linecap:butt;stroke-linejoin:miter;stroke-miterlimit:4;stroke-dasharray:none;stroke-dashoffset:0;stroke-opacity:1"/><path d="m82.858 53.635 85.084 28.417" style="fill:none;stroke:#00f;stroke-width:.80000013px;stroke-linecap:butt;stroke-linejoin:miter;stroke-opacity:1"/><circle cx="82.841" cy="53.656" r="1.797" style="opacity:1;fill:#00f;fill-opacity:1;stroke:none;stroke-width:.19200002;stroke-linecap:butt;stroke-linejoin:miter;stroke-miterlimit:10;stroke-dasharray:none;stroke-dashoffset:0;stroke-opacity:1"/><circle cx="167.891" cy="82.034" r="1.797" style="opacity:1;fill:#00f;fill-opacity:1;stroke:none;stroke-width:.19200002;stroke-linecap:butt;stroke-linejoin:miter;stroke-miterlimit:10;stroke-dasharray:none;stroke-dashoffset:0;stroke-opacity:1"/><path d="M123.751 45.864c.792-.241 2.228-.64 2.929.017.116.11.172.27.258.403.008.164.055.33.025.492-.174.943-1.013 1.525-1.798 1.946-.128.055-.395.194-.424.055-.04-.185-.068-.407.034-.566.14-.219 1.29-.037 1.46-.011.208.077.424.133.622.23.58.285 1.502 1.005 1.49 1.743-.003.218-.1.424-.15.635-.141.128-.262.282-.423.382-.18.112-.384.185-.587.246-1.03.31-1.827.11-2.8-.235-.247-.125-.928-.433-.885-.832.018-.161.13-.298.195-.447.123.147.325.266.418.34-.027-.024-.09.074-.08.109.048.152.325.251.51.336.184.085.377.153.573.208.764.217 1.673.25 2.384-.169.103-.06.179-.158.268-.238.035-.037.1-.061.106-.112.06-.46-.356-.889-.677-1.145-.422-.337-.555-.347-1.046-.538-.484-.077-.475-.107-.923-.076-.07.005-.157.084-.206.035-.39-.387-.233-.398-.044-.438.57-.311.954-.622 1.345-1.147.046-.062.101-.12.13-.19.04-.093.048-.195.071-.293-.027-.086-.025-.188-.082-.258-.494-.6-1.965-.168-2.562.024l-.13-.506z" style="opacity:1;fill:#00112b;fill-opacity:1;stroke:#00112b;stroke-width:.08000001;stroke-linecap:butt;stroke-linejoin:miter;stroke-miterlimit:10;stroke-dasharray:none;stroke-dashoffset:0;stroke-opacity:1"/><path d="M138.689 52.67v1.699l1.65.039.029-1.546z" style="fill:#fdfdfd;fill-opacity:1;stroke:none;stroke-width:.80000007px;stroke-linecap:butt;stroke-linejoin:miter;stroke-opacity:1"/><path d="M83.245 53.402c1.655.003 3.31.002 4.965.001 1.414-.012 2.82-.01 4.228.076 1.17.07 2.328-.192 3.482-.059 1.308.12 2.635.102 3.954.096 1.284-.002 2.56.008 3.836-.088 1.025-.088 2.058-.103 3.09-.103 1.094.007 2.187.01 3.28.012l3.182-.001c.995.037 1.966.046 2.948-.033.907-.073 1.83-.117 2.736-.028 1.07.104 2.154.064 3.238.072.98.001 1.962-.008 2.943-.011.84-.002 1.682 0 2.523 0 .883.012 1.751-.027 2.627-.074.895-.047 1.802-.026 2.707-.023.723.001 1.446.009 2.17.01.72.001 1.44.018 2.16 0 .848-.021 1.67-.041 2.503.036.913.077 1.837.063 2.755.06 1.179-.008 2.357-.009 3.535-.01l3.71.001h2.614c.932-.019 1.87.039 2.797-.032.774-.101 1.558.023 2.347.014.828.001 1.656.009 2.483.01.862.002 1.724.002 2.585 0 .568-.009 1.103-.036 1.663.005.565.023 1.132.01 1.698.005.544-.004 1.089-.004 1.633-.004l-.03.5c-.54-.002-1.082 0-1.623.002-.595.004-1.191.02-1.785-.01-.534-.04-1.045 0-1.583 0h-2.589c-.823-.003-1.646-.01-2.47-.01-.767.008-1.528-.11-2.283-.016-.953.063-1.913.02-2.87.033h-2.615l-3.71-.001c-1.177 0-2.354.002-3.53.009-.953.003-1.911.018-2.857-.065-.8-.074-1.59-.05-2.406-.03-.72.019-1.442.002-2.163 0-.722 0-1.445-.008-2.167-.01-.872-.003-1.725-.022-2.608.022a43.38 43.38 0 0 1-2.727.075h-2.52c-.984.003-1.969.012-2.954.01-1.107-.008-2.217.034-3.311-.075-.846-.085-1.713-.036-2.56.031-1.012.08-2.017.068-3.042.034h-3.183c-1.093-.001-2.186-.005-3.279-.01-1.006 0-2.014.014-3.012.1-1.3.096-2.602.087-3.91.089-1.36.006-2.73.022-4.078-.103-1.136-.131-2.274.131-3.426.062-1.386-.084-2.772-.083-4.164-.072-1.655-.001-3.31-.002-4.965 0l.028-.497z" style="opacity:1;fill:#00112b;fill-opacity:1;stroke:#00112b;stroke-width:.08000001;stroke-linecap:butt;stroke-linejoin:miter;stroke-miterlimit:10;stroke-dasharray:none;stroke-dashoffset:0;stroke-opacity:1"/><path d="M162.68 50.131c1.51.886 2.935 1.904 4.446 2.787.327.178.67.393 1.05.432-.176-.05.098.322.086.485-.003.052-.093.044-.14.064-.27.115-.502.2-.767.339-1.2.647-2.48 1.137-3.67 1.801-.212.119-.413.255-.62.382l-.19-.454c1.385-.835 2.882-1.45 4.315-2.197.564-.283.188-.112.637-.286.05-.02.098-.041.147-.062.006-.003.017-.015.02-.008.059.141.12.284.157.432.004.016-.032-.001-.048-.002-.432-.065-.826-.26-1.197-.485-1.505-.883-2.927-1.898-4.435-2.776l.209-.452zM165.092 75.557c.978 1.457 1.659 3.088 2.427 4.66.19.431.26.602.452.994.038.076.077.152.117.226.007.01-.007.022-.01.033-.007.023-.207-.043-.224-.058.039-.177.096-.35.144-.525.7-1.688 1.457-3.363 2.351-4.958.353-.536.183-.306.496-.702l.317.383c-.282.367-.126.151-.455.657a41.568 41.568 0 0 0-2.295 4.892c-.022.06-.045.118-.065.178-.065.132-.045.249-.053.383-.13.288-.227.206-.358.23-.389-.092-.683-1.229-.81-1.438-.752-1.544-1.425-3.14-2.363-4.583l.33-.372z" style="opacity:1;fill:#00112b;fill-opacity:1;stroke:#00112b;stroke-width:.08000001;stroke-linecap:butt;stroke-linejoin:miter;stroke-miterlimit:10;stroke-dasharray:none;stroke-dashoffset:0;stroke-opacity:1"/><path d="M167.562 82.126c-.024-1.584.087-3.164.142-4.745.05-1.708.038-3.417.033-5.125-.006-1.448-.007-2.897-.007-4.345v-3.695c.036-1.206-.023-2.401-.107-3.6-.071-.955-.072-1.916-.069-2.875.005-.752.008-1.504.01-2.256l-.002-1.774v-.367l.48-.188v2.141c-.001.753-.003 1.506-.01 2.26-.004.94-.01 1.884.056 2.822.085 1.216.161 2.426.119 3.65l-.001 3.695c0 1.448 0 2.896.006 4.343.005 1.717.02 3.435-.027 5.152-.052 1.573-.17 3.143-.143 4.72l-.48.187zM170.137 66.928c1.256.065 2.514.002 3.772-.019.603-.006.325-.004.835-.004l-.023.52c-.507-.002-.23-.002-.83.002-1.262.018-2.525.08-3.787.023l.033-.522zM176.64 63.909c.172 1.525.082 3.063.16 4.594.02.554-.072 1.112.104 1.646l-.46.205c-.2-.583-.084-1.202-.133-1.717-.083-1.52.005-3.047-.153-4.563l.483-.165z" style="opacity:1;fill:#00112b;fill-opacity:1;stroke:#00112b;stroke-width:.08000001;stroke-linecap:butt;stroke-linejoin:miter;stroke-miterlimit:10;stroke-dasharray:none;stroke-dashoffset:0;stroke-opacity:1"/><circle cx="82.841" cy="53.656" r="1.797" style="opacity:.33000004;fill:#00f;fill-opacity:1;stroke:none;stroke-width:.19200002;stroke-linecap:butt;stroke-linejoin:miter;stroke-miterlimit:10;stroke-dasharray:none;stroke-dashoffset:0;stroke-opacity:1"/><circle cx="167.891" cy="82.034" r="1.797" style="opacity:.33000004;fill:#00f;fill-opacity:1;stroke:none;stroke-width:.19200002;stroke-linecap:butt;stroke-linejoin:miter;stroke-miterlimit:10;stroke-dasharray:none;stroke-dashoffset:0;stroke-opacity:1"/></g></svg>