<svg xmlns="http://www.w3.org/2000/svg" width="500" height="130" viewBox="0 0 132.292 34.396"><path d="M102.017 40.022a2.838 2.838 0 0 0-.606-.715c-.085-.072-.176-.135-.264-.203-.109-.066-.213-.138-.326-.197-.59-.305-1.257-.45-1.915-.504-.19-.015-.382-.014-.572-.021-.514.01-1.035.059-1.515.259-.234.097-.422.198-.552.422-.045.077-.052.17-.078.256-.001.247.062.426.22.614.054.063.14.15.227.169-.015-.018-.025-.043-.045-.055-.08-.043-.283-.074-.352-.08-.371-.03-.7.034-1.064.1-.142.039-.287.072-.428.116-.528.165-1.09.41-1.503.786-.086.08-.158.172-.237.258-.134.233-.207.304-.239.577-.039.334.083.676.267.95.074.109.167.202.25.303.107.09.206.188.32.268.452.318.988.475 1.53.55.106.014.214.02.322.03.303.002.658.03.936-.123.004.024.084-.096.05-.093-.01 0-.02.01-.03.014.003.017.003.036.01.052.109.28.5.488.741.625.106.047.21.1.319.141.555.21 1.16.32 1.752.346.163.007.326 0 .49 0 .16-.015.321-.02.48-.045.518-.082 1.082-.276 1.485-.624.066-.058.12-.129.18-.193.033-.06.076-.116.1-.18.086-.224-.017-.384-.2-.5-.016-.004-.033-.015-.05-.012-.054.012-.023.072-.005.094.022.028.051.05.081.07.12.073.207.09.344.132.501.109 1.026.09 1.522-.041.11-.03.216-.07.325-.105.388-.15.759-.362 1.005-.71.149-.21.145-.262.221-.502.008-.09.025-.178.025-.268a1.686 1.686 0 0 0-.224-.804c-.126-.225-.192-.276-.364-.467a2.925 2.925 0 0 0-1.063-.652c-.273-.093-.344-.091-.627-.134-.226-.014-.347-.033-.57-.005-.077.01-.15.032-.226.048M86.31 41.78c.267-.094.58-.125.836.012.25.151.317.508.18.757-.093.18-.286.28-.478.32a1.46 1.46 0 0 1-.63-.002c-.2-.053-.402-.173-.486-.37a.37.37 0 0 1 .08-.373c.155-.193.388-.3.611-.393M91.039 41.173c-.523-.159-1.094-.084-1.596.114-.305.127-.56.415-.573.757a.94.94 0 0 0 .242.71c.343.402.914.556 1.423.457.398-.059.774-.31.941-.681.121-.297.088-.66-.124-.908-.198-.24-.464-.406-.714-.585M102.183 74.411c-.086-.459-.798-1.083-1.298-1.29-1.022-.424-2.292-.426-3.233-.169-.539.148-1.165.462-1.203 1.117-.026.288.143.62.43.66-.445-.288-1.063-.272-1.58-.239-.812.053-1.927.473-2.304 1.402-.25.616.266 1.265.83 1.405.798.198 1.638.164 2.442.028.115-.004.492-.154.173-.24-.358.24.3.843.562 1.011 1.145.737 2.762.681 3.85.235.332-.137.815-.596.325-.848a.343.343 0 0 0-.208-.052c.13.364.934.414 1.227.42.949.022 1.98-.393 2.488-1.297.371-.66-.031-1.483-.625-1.813-.393-.218-.834-.284-1.267-.317M65.264 79.513l.048-.055c-.268-.211-.712-.13-1.05-.09-.827.094-1.758.466-2.33 1.183-.403.513-.223 1.27.2 1.704.673.752 1.742.98 2.694.87.066 0 .537-.084.408-.134-.029-.039-.013-.186-.086-.069-.172.397.49.843.903 1.028 1.17.525 2.577.518 3.803.053.413-.157 1.211-.677.76-1.172-.035-.038-.076-.047-.116-.065-.038-.016-.105.002-.092.051.11.437.899.348 1.271.3.604-.077 1.378-.42 1.606-1.178.223-.777-.256-1.566-.823-1.945-.568-.379-1.4-.51-2.007-.22-.292.139-.173.253.053.183.368-.114.338-.567.325-.639-.08-.479-.599-.96-.952-1.167a6.341 6.341 0 0 0-2.53-.78c-.862-.06-1.94 0-2.553.668-.404.44-.25 1.326.198 1.572" style="fill:#e5f6ff;fill-opacity:1;stroke:#000;stroke-width:.264583;stroke-dasharray:none"/><g style="stroke-width:1.25"><path d="M79.762 32.461v-.08c-.407 0-.515-.099-.515-.332v-3.238l-.049-.016-.97.493v.076l.146-.054a.82.82 0 0 1 .244-.065c.114 0 .162.081.162.266v2.435c0 .298-.113.412-.515.434v.081zM82.772 28.958v-.087h-2.001l-.325.797.097.049c.228-.369.32-.445.635-.445h1.166l-1.074 3.233h.353z" style="font-size:5.42396px;font-family:STIXGeneral;-inkscape-font-specification:STIXGeneral;stroke:#000;stroke-width:0" transform="matrix(.8 0 0 .8 -25.36 66.967)"/></g><path d="M44.258 91.941v-.273h-2.301v.273z" style="font-size:5.42396px;font-family:STIXGeneral;-inkscape-font-specification:STIXGeneral;stroke:#000;stroke-width:0"/><g style="stroke-width:1.25"><path d="M86.992 32.461v-.08c-.407 0-.515-.099-.515-.332v-3.238l-.049-.016-.97.493v.076l.146-.054a.82.82 0 0 1 .244-.065c.114 0 .163.081.163.266v2.435c0 .298-.114.412-.516.434v.081zM89.704 32.461v-.08c-.407 0-.515-.099-.515-.332v-3.238l-.049-.016-.97.493v.076l.146-.054a.82.82 0 0 1 .244-.065c.114 0 .162.081.162.266v2.435c0 .298-.113.412-.515.434v.081z" style="font-size:5.42396px;font-family:STIXGeneral;-inkscape-font-specification:STIXGeneral;stroke:#000;stroke-width:0" transform="matrix(.8 0 0 .8 -23.144 66.967)"/></g><path d="M4.181-37.592h124.046M11.095-40.708v6.33M18.495-40.708v6.33M25.894-40.708v6.33M33.293-40.708v6.33M40.693-40.708v6.33M48.092-40.708v6.33M55.492-40.708v6.33M62.89-40.708v6.33M70.29-40.708v6.33M77.69-40.708v6.33M85.09-40.708v6.33M92.488-40.708v6.33M99.888-40.708v6.33M107.287-40.708v6.33M114.687-40.708v6.33M122.086-40.708v6.33" style="fill:#e5f6ff;stroke:#000;stroke-width:.264583"/><path d="M72.996 98.788h-.138l.08-1.647h1.374q-.114.267-.167.31-.05.042-.177.042h-.93l-.042 1.097q.268-.342.657-.342.413 0 .704.33.294.332.294.822 0 .564-.33.932-.33.366-.922.366-.414 0-.644-.191-.23-.193-.23-.35 0-.069.045-.119.047-.05.127-.05.087 0 .132.053.045.05.106.212.12.328.474.328.34 0 .57-.273.233-.272.233-.887 0-.553-.191-.786-.19-.234-.45-.234-.366 0-.575.387z" style="font-size:5.42396px;font-family:Baskerville;-inkscape-font-specification:Baskerville;fill:#000;stroke:none;stroke-width:.264583"/><path d="M41.448 27.276h.117v2.812q0 .347.008.437.01.09.077.138.066.048.235.048h.104v.122h-1.192v-.122h.087q.19 0 .246-.053.059-.056.067-.13.01-.077.01-.44v-1.885q0-.358-.008-.432-.008-.077-.069-.132-.058-.059-.246-.059h-.114v-.121q.458-.008.678-.183zM42.934 29.098q0-.829.313-1.324.315-.498.823-.498.509 0 .821.5.315.498.315 1.322 0 .818-.312 1.321-.313.501-.824.501-.508 0-.823-.498-.313-.5-.313-1.324zm.44 0q0 1.099.182 1.398.186.297.514.297.387 0 .54-.355.154-.358.154-1.34 0-1.102-.185-1.398-.183-.297-.509-.297t-.51.297q-.186.294-.186 1.398z" style="font-size:5.42396px;font-family:Baskerville;-inkscape-font-specification:Baskerville;fill:#000;stroke:none;stroke-width:.264583" transform="translate(35.001 69.778)"/><path d="M81.874 97.053h.116v2.813q0 .347.008.437.01.09.077.138.066.047.236.047h.103v.122h-1.192v-.122h.087q.191 0 .247-.053.058-.055.066-.13.01-.076.01-.439V97.98q0-.357-.007-.431-.008-.077-.07-.133-.058-.058-.246-.058h-.113v-.122q.458-.008.678-.183zM83.844 98.788h-.138l.08-1.647h1.374q-.114.267-.167.31-.05.042-.177.042h-.93l-.042 1.097q.267-.342.657-.342.413 0 .704.33.294.332.294.822 0 .564-.33.932-.33.366-.922.366-.414 0-.644-.191-.23-.193-.23-.35 0-.069.045-.119.047-.05.127-.05.087 0 .132.053.045.05.106.212.12.328.474.328.34 0 .57-.273.233-.272.233-.887 0-.553-.191-.786-.19-.234-.45-.234-.366 0-.575.387z" style="font-size:5.42396px;font-family:Baskerville;-inkscape-font-specification:Baskerville;fill:#000;stroke:none;stroke-width:.264583"/><path d="M60.59 30.833v-.165q.303-.235.763-.744.464-.51.668-.882.204-.37.204-.75 0-.452-.207-.664-.206-.214-.514-.214-.302 0-.468.196-.165.195-.165.418 0 .254.215.403.08.055.08.084 0 .048-.09.13t-.149.082q-.08 0-.193-.159-.112-.161-.112-.413 0-.405.316-.64.315-.24.69-.24.398 0 .716.247.32.246.32.731 0 .305-.143.58-.143.273-.696.837-.551.561-.887.845h1.684l-.151.593h-.124q0-.048.015-.095.008-.027.008-.072 0-.08-.034-.095-.035-.013-.185-.013zM63.22 29.098q0-.829.313-1.324.315-.498.824-.498.508 0 .82.5.316.498.316 1.322 0 .818-.313 1.321-.312.501-.823.501-.509 0-.824-.498-.312-.5-.312-1.324zm.44 0q0 1.099.183 1.398.185.297.514.297.386 0 .54-.355.154-.358.154-1.34 0-1.102-.186-1.398-.183-.297-.508-.297-.326 0-.511.297-.186.294-.186 1.398z" style="font-size:5.42396px;font-family:Baskerville;-inkscape-font-specification:Baskerville;fill:#000;stroke:none;stroke-width:.264583" transform="translate(25.563 69.778)"/><path d="M92.721 97.053h.117v2.813q0 .347.008.437.01.09.077.138.066.047.235.047h.104v.122H92.07v-.122h.087q.191 0 .247-.053.058-.055.066-.13.01-.076.01-.439V97.98q0-.357-.007-.431-.008-.077-.07-.133-.058-.058-.246-.058h-.114v-.122q.459-.008.678-.183zM94.29 100.61v-.164q.301-.236.762-.744.464-.511.667-.882.204-.37.204-.75 0-.452-.206-.664-.207-.215-.514-.215-.302 0-.469.196-.164.196-.164.419 0 .254.215.402.079.056.079.085 0 .048-.09.13t-.148.082q-.08 0-.194-.16-.11-.16-.11-.412 0-.406.314-.641.315-.239.692-.239.397 0 .715.247.32.246.32.73 0 .305-.143.58-.143.273-.696.838-.551.561-.888.844h1.685l-.151.594h-.125q0-.048.016-.096.008-.026.008-.071 0-.08-.034-.095-.035-.014-.186-.014zM98.04 98.682q.082-.024.164-.024.389 0 .611.268.226.265.226.667 0 .485-.331.795-.331.31-.853.31-.35 0-.601-.16-.252-.158-.252-.34 0-.078.048-.13.047-.056.124-.056.138 0 .196.188.074.24.212.31.135.071.267.071.334 0 .54-.244.21-.243.21-.754 0-.41-.156-.612-.154-.201-.366-.201-.183 0-.402.222-.037.04-.077.04-.08 0-.08-.085 0-.037.04-.077.043-.042.233-.172.419-.283.554-.471.135-.188.135-.474 0-.273-.14-.421-.14-.151-.374-.151-.238 0-.424.153-.182.151-.182.387 0 .188.161.352.019.019.019.032 0 .034-.088.074-.087.04-.127.04-.082 0-.154-.125-.071-.124-.071-.27 0-.294.254-.532.254-.239.68-.239.438 0 .66.202.225.198.225.445 0 .217-.153.405-.151.185-.514.429zM100.884 99.416H99.58v-.16l1.512-2.203h.17v2.204h.243q.225 0 .268-.027.042-.026.116-.225h.117l-.061.41h-.683v.451q0 .384.013.466.016.08.087.12.072.036.265.036v.122h-1.157v-.122h.092q.16 0 .226-.042.068-.045.082-.124.013-.08.013-.456zm0-.16v-1.68l-1.155 1.68zM102.833 98.815q.164-.196.344-.294.183-.098.382-.098.429 0 .741.323.313.323.313.81 0 .458-.302.8t-.77.342q-.398 0-.67-.252-.274-.252-.385-.628-.108-.378-.108-.786 0-.842.368-1.41.37-.569.99-.569.292 0 .514.128.223.124.223.283 0 .148-.151.148-.13 0-.207-.145-.08-.151-.172-.218-.093-.063-.278-.063-.419 0-.628.37-.21.371-.21 1.116 0 .066.006.143zm-.016.704q0 .257.072.511.074.252.243.398.17.145.38.145.33 0 .494-.265.165-.265.165-.792 0-.333-.064-.519-.06-.188-.228-.312-.164-.125-.368-.125-.275 0-.485.21-.209.206-.209.75zM105.235 97.782l.223-.729h.092q.005.053.043.072.04.016.209.016h1.372l-.95 2.897q-.157.477-.24.57-.079.09-.163.09-.16 0-.16-.164 0-.098.149-.416.04-.082.066-.149l1.068-2.479h-1.131q-.228 0-.273.011-.045.008-.085.058-.04.048-.1.223zM109.123 98.804q.35.03.617.28.268.25.268.644 0 .456-.326.713-.326.257-.792.257-.477 0-.794-.273-.318-.276-.318-.686 0-.355.227-.607.228-.251.63-.328-.325-.082-.534-.318-.207-.235-.207-.553 0-.39.284-.633.283-.247.712-.247.397 0 .702.241.307.239.307.639 0 .318-.196.548-.193.23-.58.323zm-.813-.924q0 .431.138.649.14.214.418.214.305 0 .456-.204.15-.206.15-.614 0-.371-.158-.564-.156-.194-.435-.194-.246 0-.407.178-.162.175-.162.535zm-.093 1.824q0 .3.056.475.056.172.212.286.159.113.392.113.296 0 .492-.169.196-.17.196-.673 0-.506-.196-.686-.196-.18-.503-.18-.326 0-.487.225-.162.223-.162.61zM112.262 98.936q-.162.196-.345.294-.183.098-.384.098-.429 0-.741-.323-.31-.325-.31-.81 0-.46.302-.8.302-.342.77-.342.398 0 .67.252.273.252.382.63.111.376.111.784 0 .84-.37 1.41-.369.569-.989.569-.29 0-.513-.127-.223-.128-.223-.284 0-.148.154-.148.13 0 .222.177.127.25.432.25.418 0 .628-.372.209-.373.209-1.115 0-.06-.005-.143zm.013-.704q0-.257-.072-.509-.071-.254-.24-.4-.17-.145-.38-.145-.33 0-.497.265-.165.262-.165.792 0 .333.064.521.064.186.228.31.167.125.37.125.276 0 .483-.207.209-.21.209-.752z" style="font-size:5.42396px;font-family:Baskerville;-inkscape-font-specification:Baskerville;fill:#000;stroke:none;stroke-width:.264583"/><path d="M79.416 27.276h.117v2.812q0 .347.007.437.011.09.077.138.066.048.236.048h.103v.122h-1.192v-.122h.088q.19 0 .246-.053.058-.056.066-.13.01-.077.01-.44v-1.885q0-.358-.007-.432-.008-.077-.069-.132-.058-.059-.246-.059h-.114v-.121q.458-.008.678-.183zM82.128 27.276h.117v2.812q0 .347.007.437.011.09.077.138.066.048.236.048h.103v.122h-1.192v-.122h.088q.19 0 .246-.053.058-.056.066-.13.01-.077.01-.44v-1.885q0-.358-.007-.432-.008-.077-.069-.132-.058-.059-.246-.059h-.114v-.121q.458-.008.678-.183z" style="font-size:5.42396px;font-family:Baskerville;-inkscape-font-specification:Baskerville;fill:#000;stroke:none;stroke-width:.264583" transform="translate(35.001 69.778)"/><path d="M84.84 27.276h.116v2.812q0 .347.008.437.011.09.077.138.066.048.236.048h.103v.122h-1.192v-.122h.088q.19 0 .246-.053.058-.056.066-.13.01-.077.01-.44v-1.885q0-.358-.007-.432-.008-.077-.069-.132-.058-.059-.246-.059h-.114v-.121q.458-.008.678-.183zM86.408 30.833v-.165q.302-.235.763-.744.463-.51.667-.882.204-.37.204-.75 0-.452-.207-.664-.206-.214-.513-.214-.302 0-.47.196-.163.195-.163.418 0 .254.214.403.08.055.08.084 0 .048-.09.13t-.149.082q-.08 0-.193-.159-.111-.161-.111-.413 0-.405.315-.64.315-.24.691-.24.397 0 .715.247.32.246.32.731 0 .305-.142.58-.144.273-.697.837-.55.561-.887.845h1.684l-.15.593h-.125q0-.048.016-.095.008-.027.008-.072 0-.08-.035-.095-.034-.013-.185-.013z" style="font-size:5.42396px;font-family:Baskerville;-inkscape-font-specification:Baskerville;fill:#000;stroke:none;stroke-width:.264583" transform="translate(-97.532 69.778)"/><path d="M90.264 27.276h.116v2.812q0 .347.008.437.01.09.077.138.066.048.236.048h.103v.122h-1.192v-.122h.088q.19 0 .246-.053.058-.056.066-.13.01-.077.01-.44v-1.885q0-.358-.007-.432-.008-.077-.069-.132-.058-.059-.246-.059h-.114v-.121q.458-.008.678-.183zM92.87 28.905q.082-.024.164-.024.39 0 .612.267.225.265.225.668 0 .484-.331.794-.331.31-.853.31-.35 0-.601-.159-.252-.159-.252-.342 0-.076.048-.13.048-.055.125-.055.137 0 .196.188.074.241.211.31.135.071.268.071.334 0 .54-.243.21-.244.21-.755 0-.41-.157-.612-.153-.201-.365-.201-.183 0-.403.222-.037.04-.077.04-.08 0-.08-.085 0-.037.04-.076.043-.043.234-.173.418-.283.553-.47.135-.189.135-.475 0-.273-.14-.421-.14-.151-.374-.151-.238 0-.423.154-.183.15-.183.386 0 .188.162.352.018.019.018.032 0 .035-.087.074-.088.04-.127.04-.083 0-.154-.124-.072-.125-.072-.27 0-.294.255-.533.254-.238.68-.238.437 0 .66.201.225.199.225.445 0 .217-.154.405-.15.186-.514.43z" style="font-size:5.42396px;font-family:Baskerville;-inkscape-font-specification:Baskerville;fill:#000;stroke:none;stroke-width:.264583" transform="translate(-95.959 69.778)"/><path d="M95.688 27.276h.116v2.812q0 .347.008.437.01.09.077.138.066.048.236.048h.103v.122h-1.192v-.122h.088q.19 0 .246-.053.058-.056.066-.13.01-.077.01-.44v-1.885q0-.358-.007-.432-.008-.077-.069-.132-.058-.059-.246-.059h-.114v-.121q.458-.008.678-.183zM98.426 29.638h-1.303v-.159l1.513-2.203h.17v2.203h.243q.225 0 .267-.026.043-.027.117-.225h.116l-.06.41h-.684v.45q0 .384.013.467.016.079.088.119.071.037.265.037v.122h-1.158v-.122h.093q.159 0 .225-.043.069-.045.082-.124.013-.08.013-.456zm0-.159v-1.681l-1.154 1.681z" style="font-size:5.42396px;font-family:Baskerville;-inkscape-font-specification:Baskerville;fill:#000;stroke:none;stroke-width:.264583" transform="translate(-94.464 69.778)"/><path d="M101.112 27.276h.116v2.812q0 .347.008.437.011.09.077.138.066.048.236.048h.103v.122h-1.192v-.122h.088q.19 0 .246-.053.058-.056.066-.13.01-.077.01-.44v-1.885q0-.358-.007-.432-.008-.077-.069-.132-.058-.059-.246-.059h-.114v-.121q.458-.008.678-.183zM103.082 29.01h-.137l.079-1.647h1.374q-.113.268-.166.31-.05.042-.178.042h-.93l-.042 1.097q.268-.342.657-.342.413 0 .704.331.294.331.294.821 0 .564-.33.933-.329.365-.922.365-.413 0-.644-.19-.23-.194-.23-.35 0-.07.045-.12.047-.05.127-.05.087 0 .132.053.045.05.106.212.12.328.474.328.34 0 .57-.272.233-.273.233-.888 0-.553-.19-.786-.192-.233-.451-.233-.366 0-.575.387z" style="font-size:5.42396px;font-family:Baskerville;-inkscape-font-specification:Baskerville;fill:#000;stroke:none;stroke-width:.264583" transform="translate(-92.97 69.778)"/><path d="M106.536 27.276h.116v2.812q0 .347.008.437.01.09.077.138.066.048.236.048h.103v.122h-1.192v-.122h.088q.19 0 .246-.053.058-.056.066-.13.01-.077.01-.44v-1.885q0-.358-.007-.432-.008-.077-.07-.132-.057-.059-.245-.059h-.114v-.121q.458-.008.678-.183zM108.512 29.037q.164-.196.344-.294.183-.098.381-.098.43 0 .742.323t.312.81q0 .459-.302.8-.302.342-.77.342-.398 0-.67-.252-.273-.251-.384-.627-.109-.379-.109-.787 0-.842.368-1.409.37-.57.99-.57.292 0 .514.128.223.124.223.283 0 .149-.151.149-.13 0-.207-.146-.08-.151-.172-.217-.092-.064-.278-.064-.418 0-.628.371-.209.37-.209 1.115 0 .066.005.143zm-.016.704q0 .257.071.512.074.251.244.397.17.146.378.146.332 0 .496-.265.164-.265.164-.792 0-.334-.064-.52-.06-.187-.227-.312-.165-.124-.369-.124-.275 0-.484.209-.21.207-.21.75z" style="font-size:5.42396px;font-family:Baskerville;-inkscape-font-specification:Baskerville;fill:#000;stroke:none;stroke-width:.264583" transform="translate(-91.633 69.778)"/><path d="M111.96 27.276h.116v2.812q0 .347.008.437.01.09.077.138.066.048.236.048h.103v.122h-1.192v-.122h.088q.19 0 .246-.053.058-.056.066-.13.01-.077.01-.44v-1.885q0-.358-.007-.432-.008-.077-.07-.132-.057-.059-.245-.059h-.114v-.121q.458-.008.678-.183zM113.626 28.004l.222-.728h.093q.005.053.042.071.04.016.21.016h1.371l-.95 2.898q-.157.476-.239.569-.08.09-.164.09-.159 0-.159-.164 0-.098.148-.416.04-.082.067-.148l1.067-2.48h-1.131q-.228 0-.273.011-.045.008-.085.059-.04.047-.1.222z" style="font-size:5.42396px;font-family:Baskerville;-inkscape-font-specification:Baskerville;fill:#000;stroke:none;stroke-width:.264583" transform="translate(-89.194 69.778)"/><path d="M117.384 27.276h.116v2.812q0 .347.008.437.01.09.077.138.066.048.236.048h.103v.122h-1.192v-.122h.088q.19 0 .246-.053.058-.056.066-.13.01-.077.01-.44v-1.885q0-.358-.007-.432-.008-.077-.07-.132-.057-.059-.245-.059h-.114v-.121q.458-.008.678-.183zM120.225 29.026q.35.03.618.281.267.25.267.644 0 .455-.326.712-.325.257-.792.257-.476 0-.794-.273-.318-.275-.318-.686 0-.355.228-.606.228-.252.63-.329-.326-.082-.535-.317-.206-.236-.206-.554 0-.39.283-.633.283-.246.712-.246.398 0 .702.24.307.24.307.64 0 .317-.196.547-.193.23-.58.323zm-.813-.924q0 .432.138.649.14.214.419.214.304 0 .455-.203.151-.207.151-.615 0-.37-.159-.564-.156-.193-.434-.193-.246 0-.408.177-.162.175-.162.535zm-.092 1.825q0 .3.055.474.056.172.212.286.16.114.392.114.297 0 .493-.17t.196-.672q0-.506-.196-.686-.196-.18-.503-.18-.326 0-.488.225-.161.222-.161.609z" style="font-size:5.42396px;font-family:Baskerville;-inkscape-font-specification:Baskerville;fill:#000;stroke:none;stroke-width:.264583" transform="translate(-87.7 69.778)"/><path d="M122.808 27.276h.116v2.812q0 .347.008.437.01.09.077.138.066.048.236.048h.103v.122h-1.192v-.122h.088q.19 0 .246-.053.058-.056.066-.13.01-.077.01-.44v-1.885q0-.358-.007-.432-.008-.077-.07-.132-.057-.059-.245-.059h-.114v-.121q.458-.008.678-.183zM126.076 29.159q-.162.196-.344.294-.183.098-.384.098-.43 0-.742-.323-.31-.326-.31-.81 0-.462.302-.8.302-.342.77-.342.398 0 .67.251.274.252.382.63.111.377.111.785 0 .84-.37 1.409-.369.569-.988.569-.292 0-.514-.127-.223-.127-.223-.283 0-.149.154-.149.13 0 .223.178.127.249.431.249.419 0 .628-.371.21-.374.21-1.115 0-.061-.006-.143zm.013-.705q0-.257-.071-.508-.072-.254-.241-.4-.17-.146-.38-.146-.33 0-.497.265-.164.262-.164.792 0 .334.063.522.064.185.228.31.167.124.37.124.276 0 .483-.207.21-.209.21-.752z" style="font-size:5.42396px;font-family:Baskerville;-inkscape-font-specification:Baskerville;fill:#000;stroke:none;stroke-width:.264583" transform="translate(-86.127 69.778)"/><text xml:space="preserve" x="26.864" y="185.239" style="font-size:5.42396px;font-family:Baskerville;-inkscape-font-specification:Baskerville;fill:#e5f6ff;stroke:#000;stroke-width:.264583"><tspan x="26.864" y="185.239" style="stroke-width:.264583">510152012346789111213141516171819</tspan></text><path d="M-71.273 98.876q0-.83.313-1.325.315-.498.824-.498.508 0 .82.501.316.498.316 1.322 0 .818-.313 1.321-.312.5-.823.5-.509 0-.824-.497-.313-.5-.313-1.324zm.44 0q0 1.099.183 1.398.185.297.514.297.386 0 .54-.355.153-.358.153-1.34 0-1.102-.185-1.399-.183-.296-.508-.296-.326 0-.512.296-.185.294-.185 1.399zM-66.387 97.053h.116v2.813q0 .347.008.437.01.09.077.138.066.047.236.047h.103v.122h-1.192v-.122h.088q.19 0 .246-.053.058-.055.066-.13.01-.076.01-.439V97.98q0-.357-.007-.431-.008-.077-.07-.133-.057-.058-.245-.058h-.114v-.122q.458-.008.678-.183zM-63.684 100.61v-.164q.302-.236.763-.744.463-.511.667-.882.204-.37.204-.75 0-.452-.206-.664-.207-.215-.514-.215-.302 0-.469.196-.164.196-.164.419 0 .254.214.402.08.056.08.085 0 .048-.09.13t-.148.082q-.08 0-.194-.16-.111-.16-.111-.412 0-.406.315-.641.315-.239.691-.239.398 0 .715.247.32.246.32.73 0 .305-.142.58-.143.273-.697.838-.55.561-.887.844h1.685l-.151.594h-.125q0-.048.016-.096.008-.026.008-.071 0-.08-.035-.095-.034-.014-.185-.014zM-58.562 98.682q.082-.024.164-.024.39 0 .612.268.225.265.225.667 0 .485-.33.795-.332.31-.854.31-.35 0-.6-.16-.252-.158-.252-.34 0-.078.047-.13.048-.056.125-.056.137 0 .196.188.074.24.212.31.135.071.267.071.334 0 .54-.244.21-.243.21-.754 0-.41-.157-.612-.153-.201-.365-.201-.183 0-.403.222-.037.04-.077.04-.079 0-.079-.085 0-.037.04-.077.042-.042.233-.172.418-.283.553-.471.135-.188.135-.474 0-.273-.14-.421-.14-.151-.373-.151-.239 0-.424.153-.183.151-.183.387 0 .188.162.352.018.019.018.032 0 .034-.087.074-.088.04-.127.04-.082 0-.154-.125-.071-.124-.071-.27 0-.294.254-.532.254-.239.68-.239.437 0 .66.202.225.198.225.445 0 .217-.154.405-.15.185-.513.429zM-54.066 99.416h-1.303v-.16l1.512-2.203h.17v2.204h.244q.225 0 .267-.027.042-.026.117-.225h.116l-.06.41h-.684v.451q0 .384.013.466.016.08.088.12.071.036.264.036v.122h-1.157v-.122h.093q.159 0 .225-.042.069-.045.082-.124.013-.08.013-.456zm0-.16v-1.68l-1.155 1.68zM-50.57 98.788h-.138l.08-1.647h1.374q-.114.267-.167.31-.05.042-.177.042h-.93l-.042 1.097q.267-.342.656-.342.414 0 .705.33.294.332.294.822 0 .564-.331.932-.329.366-.922.366-.413 0-.643-.191-.23-.193-.23-.35 0-.069.044-.119.048-.05.127-.05.088 0 .133.053.045.05.106.212.119.328.474.328.339 0 .57-.273.232-.272.232-.887 0-.553-.19-.786-.191-.234-.45-.234-.366 0-.575.387zM-46.217 98.815q.164-.196.344-.294.183-.098.381-.098.43 0 .742.323t.312.81q0 .458-.302.8t-.77.342q-.398 0-.67-.252-.273-.252-.384-.628-.109-.378-.109-.786 0-.842.368-1.41.37-.569.99-.569.292 0 .514.128.223.124.223.283 0 .148-.151.148-.13 0-.207-.145-.08-.151-.172-.218-.092-.063-.278-.063-.418 0-.628.37-.209.371-.209 1.116 0 .066.006.143zm-.016.704q0 .257.071.511.074.252.244.398.17.145.379.145.33 0 .495-.265.164-.265.164-.792 0-.333-.064-.519-.06-.188-.227-.312-.165-.125-.368-.125-.276 0-.485.21-.21.206-.21.75zM-42.242 97.782l.222-.729h.093q.005.053.042.072.04.016.21.016h1.371l-.95 2.897q-.157.477-.239.57-.08.09-.164.09-.159 0-.159-.164 0-.098.148-.416.04-.082.067-.149l1.067-2.479h-1.13q-.229 0-.274.011-.045.008-.084.058-.04.048-.101.223zM-36.23 98.804q.349.03.616.28.268.25.268.644 0 .456-.326.713-.326.257-.792.257-.476 0-.794-.273-.318-.276-.318-.686 0-.355.228-.607.227-.251.63-.328-.326-.082-.535-.318-.207-.235-.207-.553 0-.39.284-.633.283-.247.712-.247.397 0 .702.241.307.239.307.639 0 .318-.196.548-.193.23-.58.323zm-.814-.924q0 .431.138.649.14.214.418.214.305 0 .456-.204.15-.206.15-.614 0-.371-.158-.564-.156-.194-.434-.194-.247 0-.408.178-.162.175-.162.535zm-.092 1.824q0 .3.055.475.056.172.212.286.159.113.392.113.297 0 .493-.169.196-.17.196-.673 0-.506-.196-.686-.196-.18-.504-.18-.325 0-.487.225-.161.223-.161.61zM-31.126 98.936q-.162.196-.344.294-.183.098-.384.098-.43 0-.742-.323-.31-.325-.31-.81 0-.46.302-.8.302-.342.77-.342.398 0 .671.252t.381.63q.112.376.112.784 0 .84-.371 1.41-.368.569-.988.569-.291 0-.514-.127-.222-.128-.222-.284 0-.148.153-.148.13 0 .223.177.127.25.431.25.419 0 .628-.372.21-.373.21-1.115 0-.06-.006-.143zm.013-.704q0-.257-.071-.509-.072-.254-.241-.4-.17-.145-.379-.145-.331 0-.498.265-.164.262-.164.792 0 .333.063.521.064.186.228.31.167.125.371.125.275 0 .482-.207.21-.21.21-.752z" style="font-size:5.42396px;font-family:Baskerville;-inkscape-font-specification:Baskerville;fill:#000;stroke:none;stroke-width:.264583"/><path d="M41.448 27.276h.117v2.812q0 .347.008.437.01.09.077.138.066.048.235.048h.104v.122h-1.192v-.122h.087q.19 0 .246-.053.059-.056.067-.13.01-.077.01-.44v-1.885q0-.358-.008-.432-.008-.077-.069-.132-.058-.059-.246-.059h-.114v-.121q.458-.008.678-.183zM42.934 29.098q0-.829.313-1.324.315-.498.823-.498.509 0 .821.5.315.498.315 1.322 0 .818-.312 1.321-.313.501-.824.501-.508 0-.823-.498-.313-.5-.313-1.324zm.44 0q0 1.099.182 1.398.186.297.514.297.387 0 .54-.355.154-.358.154-1.34 0-1.102-.185-1.398-.183-.297-.509-.297t-.51.297q-.186.294-.186 1.398z" style="font-size:5.42396px;font-family:Baskerville;-inkscape-font-specification:Baskerville;fill:#000;stroke:none;stroke-width:.264583" transform="translate(-67.643 69.778)"/><path d="M82.128 27.276h.117v2.812q0 .347.007.437.011.09.077.138.066.048.236.048h.103v.122h-1.192v-.122h.088q.19 0 .246-.053.058-.056.066-.13.01-.077.01-.44v-1.885q0-.358-.007-.432-.008-.077-.069-.132-.058-.059-.246-.059h-.114v-.121q.458-.008.678-.183zM84.84 27.276h.116v2.812q0 .347.008.437.011.09.077.138.066.048.236.048h.103v.122h-1.192v-.122h.088q.19 0 .246-.053.058-.056.066-.13.01-.077.01-.44v-1.885q0-.358-.007-.432-.008-.077-.069-.132-.058-.059-.246-.059h-.114v-.121q.458-.008.678-.183z" style="font-size:5.42396px;font-family:Baskerville;-inkscape-font-specification:Baskerville;fill:#000;stroke:none;stroke-width:.264583" transform="translate(-101.229 69.778)"/><path d="M60.59 30.833v-.165q.303-.235.763-.744.464-.51.668-.882.204-.37.204-.75 0-.452-.207-.664-.206-.214-.514-.214-.302 0-.468.196-.165.195-.165.418 0 .254.215.403.08.055.08.084 0 .048-.09.13t-.149.082q-.08 0-.193-.159-.112-.161-.112-.413 0-.405.316-.64.315-.24.69-.24.398 0 .716.247.32.246.32.731 0 .305-.143.58-.143.273-.696.837-.551.561-.887.845h1.684l-.151.593h-.124q0-.048.015-.095.008-.027.008-.072 0-.08-.034-.095-.035-.013-.185-.013zM63.22 29.098q0-.829.313-1.324.315-.498.824-.498.508 0 .82.5.316.498.316 1.322 0 .818-.313 1.321-.312.501-.823.501-.509 0-.824-.498-.312-.5-.312-1.324zm.44 0q0 1.099.183 1.398.185.297.514.297.386 0 .54-.355.154-.358.154-1.34 0-1.102-.186-1.398-.183-.297-.508-.297-.326 0-.511.297-.186.294-.186 1.398z" style="font-size:5.42396px;font-family:Baskerville;-inkscape-font-specification:Baskerville;fill:#000;stroke:none;stroke-width:.264583" transform="translate(-17.147 69.778)"/><path d="M4.181 142.33h160.707M11.095 139.166v6.33M12.095 140.385v3.891M13.095 140.385v3.891M14.095 140.385v3.891M15.095 140.385v3.891M16.095 140.385v3.891M17.095 140.385v3.891M18.095 140.385v3.891M19.095 140.385v3.891M20.095 140.385v3.891M21.095 139.166v6.33M22.095 140.385v3.891M23.095 140.385v3.891M24.095 140.385v3.891M25.095 140.385v3.891M26.095 140.385v3.891M27.095 140.385v3.891M28.095 140.385v3.891M29.095 140.385v3.891M30.095 140.385v3.891M31.095 139.166v6.33M32.095 140.385v3.891M33.095 140.385v3.891M34.095 140.385v3.891M35.095 140.385v3.891M36.095 140.385v3.891M37.095 140.385v3.891M38.095 140.385v3.891M39.095 140.385v3.891M40.095 140.385v3.891M41.095 139.166v6.33M42.095 140.385v3.891M43.095 140.385v3.891M44.095 140.385v3.891M45.095 140.385v3.891M46.095 140.385v3.891M47.095 140.385v3.891M48.095 140.385v3.891M49.095 140.385v3.891M50.095 140.385v3.891M51.095 139.166v6.33M52.095 140.385v3.891M53.095 140.385v3.891M54.095 140.385v3.891M55.095 140.385v3.891M56.095 140.385v3.891M57.095 140.385v3.891M58.095 140.385v3.891M59.095 140.385v3.891M60.095 140.385v3.891M61.095 139.166v6.33M62.095 140.385v3.891M63.095 140.385v3.891M64.095 140.385v3.891M65.095 140.385v3.891M66.095 140.385v3.891M67.095 140.385v3.891M68.095 140.385v3.891M69.095 140.385v3.891M70.095 140.385v3.891M71.095 139.166v6.33M72.095 140.385v3.891M73.095 140.385v3.891M74.095 140.385v3.891M75.095 140.385v3.891M76.095 140.385v3.891M77.095 140.385v3.891M78.095 140.385v3.891M79.095 140.385v3.891M80.095 140.385v3.891M81.095 139.166v6.33M82.095 140.385v3.891M83.095 140.385v3.891M84.095 140.385v3.891M85.095 140.385v3.891M86.095 140.385v3.891M87.095 140.385v3.891M88.095 140.385v3.891M89.095 140.385v3.891M90.095 140.385v3.891M91.095 139.166v6.33M92.095 140.385v3.891M93.095 140.385v3.891M94.095 140.385v3.891M95.095 140.385v3.891M96.095 140.385v3.891M97.095 140.385v3.891M98.095 140.385v3.891M99.095 140.385v3.891M100.095 140.385v3.891M101.095 139.166v6.33M102.095 140.385v3.891M103.095 140.385v3.891M104.095 140.385v3.891M105.095 140.385v3.891M106.095 140.385v3.891M107.095 140.385v3.891M108.095 140.385v3.891M109.095 140.385v3.891M110.095 140.385v3.891M111.095 139.166v6.33M112.095 140.385v3.891M113.095 140.385v3.891M114.095 140.385v3.891M115.095 140.385v3.891M116.095 140.385v3.891M117.095 140.385v3.891M118.095 140.385v3.891M119.095 140.385v3.891M120.095 140.385v3.891M5.095 140.385v3.891M6.095 140.385v3.891M7.095 140.385v3.891M8.095 140.385v3.891M9.095 140.385v3.891M10.095 140.385v3.891" style="fill:#e5f6ff;stroke:#000;stroke-width:.264583"/><g stroke="none" style="stroke:#000;stroke-width:0;stroke-dasharray:none;stroke-opacity:1"><path d="M101.112 27.276h.116v2.812q0 .347.008.437.011.09.077.138.066.048.236.048h.103v.122h-1.192v-.122h.088q.19 0 .246-.053.058-.056.066-.13.01-.077.01-.44v-1.885q0-.358-.007-.432-.008-.077-.069-.132-.058-.059-.246-.059h-.114v-.121q.458-.008.678-.183zM103.082 29.01h-.137l.079-1.647h1.374q-.113.268-.166.31-.05.042-.178.042h-.93l-.042 1.097q.268-.342.657-.342.413 0 .704.331.294.331.294.821 0 .564-.33.933-.329.365-.922.365-.413 0-.644-.19-.23-.194-.23-.35 0-.07.045-.12.047-.05.127-.05.087 0 .132.053.045.05.106.212.12.328.474.328.34 0 .57-.272.233-.273.233-.888 0-.553-.19-.786-.192-.233-.451-.233-.366 0-.575.387z" style="font-size:5.42396px;font-family:Baskerville;-inkscape-font-specification:Baskerville;fill:#000;stroke:#000;stroke-width:0;stroke-dasharray:none;stroke-opacity:1" transform="translate(-17.147 100.78)"/></g><path d="M10.466 129.703h-.138l.08-1.647h1.374q-.114.267-.167.31-.05.042-.177.042h-.93l-.042 1.097q.267-.342.656-.342.414 0 .705.331.294.331.294.821 0 .564-.331.932-.329.366-.922.366-.413 0-.643-.19-.23-.194-.23-.35 0-.07.044-.12.048-.05.127-.05.088 0 .133.053.045.05.106.212.119.328.474.328.339 0 .57-.272.232-.273.232-.888 0-.553-.19-.786-.191-.233-.45-.233-.366 0-.575.386z" style="font-size:5.42396px;font-family:Baskerville;-inkscape-font-specification:Baskerville;fill:#000;stroke:#000;stroke-width:0;stroke-dasharray:none;stroke-opacity:1"/><g stroke="none" style="stroke:#000;stroke-width:0;stroke-dasharray:none;stroke-opacity:1"><path d="M41.448 27.276h.117v2.812q0 .347.008.437.01.09.077.138.066.048.235.048h.104v.122h-1.192v-.122h.087q.19 0 .246-.053.059-.056.067-.13.01-.077.01-.44v-1.885q0-.358-.008-.432-.008-.077-.069-.132-.058-.059-.246-.059h-.114v-.121q.458-.008.678-.183zM42.934 29.098q0-.829.313-1.324.315-.498.823-.498.509 0 .821.5.315.498.315 1.322 0 .818-.312 1.321-.313.501-.824.501-.508 0-.823-.498-.313-.5-.313-1.324zm.44 0q0 1.099.182 1.398.186.297.514.297.387 0 .54-.355.154-.358.154-1.34 0-1.102-.185-1.398-.183-.297-.509-.297t-.51.297q-.186.294-.186 1.398z" style="font-size:5.42396px;font-family:Baskerville;-inkscape-font-specification:Baskerville;fill:#000;stroke:#000;stroke-width:0;stroke-dasharray:none;stroke-opacity:1" transform="translate(5.191 100.78)"/></g><g stroke="none" style="stroke:#000;stroke-width:0;stroke-dasharray:none;stroke-opacity:1"><path d="M60.59 30.833v-.165q.303-.235.763-.744.464-.51.668-.882.204-.37.204-.75 0-.452-.207-.664-.206-.214-.514-.214-.302 0-.468.196-.165.195-.165.418 0 .254.215.403.08.055.08.084 0 .048-.09.13t-.149.082q-.08 0-.193-.159-.112-.161-.112-.413 0-.405.316-.64.315-.24.69-.24.398 0 .716.247.32.246.32.731 0 .305-.143.58-.143.273-.696.837-.551.561-.887.845h1.684l-.151.593h-.124q0-.048.015-.095.008-.027.008-.072 0-.08-.034-.095-.035-.013-.185-.013zM63.22 29.098q0-.829.313-1.324.315-.498.824-.498.508 0 .82.5.316.498.316 1.322 0 .818-.313 1.321-.312.501-.823.501-.509 0-.824-.498-.312-.5-.312-1.324zm.44 0q0 1.099.183 1.398.185.297.514.297.386 0 .54-.355.154-.358.154-1.34 0-1.102-.186-1.398-.183-.297-.508-.297-.326 0-.511.297-.186.294-.186 1.398z" style="font-size:5.42396px;font-family:Baskerville;-inkscape-font-specification:Baskerville;fill:#000;stroke:#000;stroke-width:0;stroke-dasharray:none;stroke-opacity:1" transform="translate(58.991 100.801)"/></g><path d="M13.1-54.262v-.081c-.407 0-.515-.098-.515-.331v-3.238l-.05-.016-.97.493v.076l.146-.054a.82.82 0 0 1 .244-.065c.114 0 .163.081.163.266v2.435c0 .298-.114.412-.515.434v.081zM17.602-55.005l-.076-.032c-.18.303-.293.363-.52.363h-1.27l.895-.955c.483-.51.694-.916.694-1.345 0-.537-.39-.954-1.003-.954-.667 0-1.015.444-1.128 1.079l.113.027c.217-.532.407-.705.798-.705.46 0 .754.271.754.765 0 .46-.196.873-.705 1.41l-.966 1.025v.065h2.12zM19.43-57.028c.222-.401.472-.575.808-.575.358 0 .586.184.586.553 0 .331-.174.575-.44.727-.108.065-.25.125-.455.195v.076c.309 0 .434.017.553.054.374.109.564.375.564.787 0 .461-.304.83-.705.83-.152 0-.266-.027-.467-.168-.151-.109-.238-.141-.33-.141-.125 0-.223.081-.223.195 0 .195.212.31.608.31.482 0 .998-.158 1.258-.505a1.25 1.25 0 0 0 .25-.76c0-.282-.087-.531-.24-.7-.113-.119-.21-.184-.45-.287.364-.217.505-.488.505-.748 0-.445-.342-.743-.846-.743-.564 0-.906.363-1.063.878zM25.732-55.168v-.347h-.558v-2.413h-.239l-1.703 2.413v.347h1.519v.906h.423v-.906zm-.981-.347h-1.302l1.302-1.86zM29.61-57.956l-.048-.038c-.087.114-.136.141-.26.141h-1.124l-.59 1.286s-.006.016-.006.027c0 .033.016.043.065.043.52 0 .9.174 1.155.38.244.195.364.467.364.814 0 .466-.353.916-.733.916-.108 0-.233-.048-.385-.173-.173-.141-.276-.168-.401-.168-.152 0-.244.07-.244.206 0 .206.282.336.689.336.369 0 .667-.081.922-.266.369-.27.531-.607.531-1.128 0-.287-.048-.493-.19-.689-.309-.428-.58-.548-1.356-.694l.217-.461h1.053c.086 0 .13-.033.146-.07zM33.722-57.972c-.749.082-1.177.212-1.644.7a2.098 2.098 0 0 0-.59 1.497c0 .38.102.765.254 1.041.19.347.532.548.96.548.358 0 .662-.146.862-.396.18-.217.277-.52.277-.868 0-.7-.39-1.133-1.025-1.133-.239 0-.423.038-.689.244.147-.82.754-1.405 1.606-1.546zm-.37 2.69c0 .554-.2.944-.59.944-.51 0-.77-.542-.77-1.367 0-.499.32-.629.629-.629.504 0 .732.358.732 1.052zM37.806-57.766v-.087h-2.001l-.326.798.098.049c.228-.37.32-.445.634-.445h1.166l-1.073 3.233h.352zM41.852-55.103c0-.433-.173-.726-.84-1.171.536-.288.726-.472.726-.879 0-.423-.374-.775-.91-.775-.603 0-1.053.325-1.053.846 0 .352.114.558.672 1.02-.58.406-.705.618-.705.992 0 .51.429.884 1.042.884.65 0 1.068-.358 1.068-.917zm-.488-2.05c0 .336-.141.564-.51.781-.477-.282-.678-.531-.678-.868 0-.336.233-.537.597-.537.369 0 .591.25.591.624zm-.456 1.416c.37.25.532.466.532.803a.57.57 0 0 1-.597.596c-.412 0-.688-.282-.688-.78 0-.353.113-.576.433-.836zM43.827-54.143c.705-.097 1.057-.227 1.518-.645.434-.396.651-.987.651-1.61 0-.457-.13-.847-.347-1.118a1.072 1.072 0 0 0-.852-.412c-.645 0-1.128.547-1.128 1.28 0 .661.39 1.1.977 1.1.32 0 .58-.08.813-.309-.217.89-.824 1.46-1.649 1.606zm1.643-2.044c0 .287-.396.406-.635.406-.406 0-.667-.406-.667-1.052 0-.293.082-.613.19-.76a.487.487 0 0 1 .396-.184c.472 0 .716.467.716 1.378z" style="font-size:5.42396px;font-family:STIXGeneral;-inkscape-font-specification:STIXGeneral;stroke:#000;stroke-width:0"/><path d="M49.711-23.754v-.081c-.406 0-.515-.098-.515-.33v-3.239l-.049-.016-.97.493v.076l.146-.054a.82.82 0 0 1 .244-.065c.114 0 .163.081.163.266v2.435c0 .298-.114.412-.516.434v.081zM52.868-25.544c0-1.112-.493-1.876-1.204-1.876-.873 0-1.247.884-1.247 1.844 0 .89.298 1.898 1.225 1.898.885 0 1.226-.933 1.226-1.866zm-.52.028c0 1.073-.245 1.697-.706 1.697-.466 0-.705-.618-.705-1.72 0-1.1.244-1.74.695-1.74.477 0 .716.634.716 1.763zM56.491-23.754v-.081c-.406 0-.515-.098-.515-.33v-3.239l-.049-.016-.97.493v.076l.146-.054a.82.82 0 0 1 .244-.065c.114 0 .163.081.163.266v2.435c0 .298-.114.412-.516.434v.081zM59.203-23.754v-.081c-.406 0-.515-.098-.515-.33v-3.239l-.049-.016-.97.493v.076l.146-.054a.82.82 0 0 1 .244-.065c.114 0 .163.081.163.266v2.435c0 .298-.114.412-.516.434v.081zM63.271-23.754v-.081c-.406 0-.515-.098-.515-.33v-3.239l-.049-.016-.97.493v.076l.146-.054a.82.82 0 0 1 .244-.065c.114 0 .163.081.163.266v2.435c0 .298-.114.412-.516.434v.081zM66.417-24.497l-.076-.032c-.179.303-.293.363-.52.363h-1.27l.895-.955c.483-.51.695-.916.695-1.345 0-.537-.39-.954-1.004-.954-.667 0-1.014.444-1.128 1.08l.114.026c.217-.531.407-.705.797-.705.461 0 .754.271.754.765 0 .46-.195.873-.705 1.41l-.965 1.025v.065h2.12zM70.051-23.754v-.081c-.407 0-.515-.098-.515-.33v-3.239l-.049-.016-.97.493v.076l.146-.054a.82.82 0 0 1 .244-.065c.114 0 .163.081.163.266v2.435c0 .298-.114.412-.516.434v.081zM70.957-26.52c.222-.401.472-.575.808-.575.358 0 .586.185.586.553 0 .331-.174.575-.44.727-.108.065-.249.125-.455.195v.076c.31 0 .434.017.553.055.375.108.564.374.564.786 0 .461-.303.83-.705.83-.152 0-.266-.027-.466-.168-.152-.109-.239-.141-.331-.141-.125 0-.222.081-.222.195 0 .195.211.31.607.31.483 0 .998-.158 1.258-.505a1.25 1.25 0 0 0 .25-.76c0-.282-.087-.531-.239-.7-.114-.119-.211-.184-.45-.287.363-.217.504-.488.504-.748 0-.445-.341-.743-.846-.743-.564 0-.905.363-1.063.878zM76.831-23.754v-.081c-.407 0-.515-.098-.515-.33v-3.239l-.049-.016-.97.493v.076l.146-.054a.82.82 0 0 1 .244-.065c.114 0 .162.081.162.266v2.435c0 .298-.113.412-.515.434v.081zM79.972-24.66v-.347h-.559v-2.413h-.239l-1.703 2.413v.347h1.519v.906h.423v-.906zm-.982-.347h-1.302l1.302-1.86zM83.611-23.754v-.081c-.407 0-.515-.098-.515-.33v-3.239l-.049-.016-.97.493v.076l.146-.054a.82.82 0 0 1 .244-.065c.114 0 .162.081.162.266v2.435c0 .298-.114.412-.515.434v.081zM86.562-27.447l-.05-.038c-.086.114-.135.14-.26.14H85.13l-.591 1.286s-.006.016-.006.027c0 .033.016.044.065.044.521 0 .9.173 1.156.38.244.195.363.466.363.813 0 .466-.353.917-.732.917-.109 0-.234-.05-.385-.174-.174-.141-.277-.168-.402-.168-.152 0-.244.07-.244.206 0 .206.282.336.689.336.369 0 .667-.081.922-.266.369-.27.532-.607.532-1.128 0-.287-.05-.493-.19-.689-.31-.428-.58-.547-1.356-.694l.217-.46h1.052c.087 0 .13-.033.146-.071zM90.391-23.754v-.081c-.407 0-.515-.098-.515-.33v-3.239l-.05-.016-.97.493v.076l.146-.054a.82.82 0 0 1 .245-.065c.113 0 .162.081.162.266v2.435c0 .298-.114.412-.515.434v.081zM93.385-27.464c-.748.082-1.177.212-1.643.7a2.098 2.098 0 0 0-.592 1.497c0 .38.103.765.255 1.041.19.348.532.548.96.548.358 0 .662-.146.863-.396.179-.217.276-.52.276-.868 0-.7-.39-1.133-1.025-1.133-.238 0-.423.038-.689.244.147-.82.754-1.405 1.606-1.546zm-.369 2.69c0 .554-.2.944-.591.944-.51 0-.77-.542-.77-1.366 0-.5.32-.63.629-.63.504 0 .732.358.732 1.053zM97.17-23.754v-.081c-.406 0-.514-.098-.514-.33v-3.239l-.05-.016-.97.493v.076l.146-.054a.82.82 0 0 1 .244-.065c.114 0 .163.081.163.266v2.435c0 .298-.114.412-.515.434v.081zM100.181-27.258v-.086H98.18l-.326.797.098.049c.228-.37.32-.445.635-.445h1.166l-1.074 3.233h.352zM103.95-23.754v-.081c-.406 0-.514-.098-.514-.33v-3.239l-.05-.016-.97.493v.076l.146-.054a.819.819 0 0 1 .244-.065c.114 0 .163.081.163.266v2.435c0 .298-.114.412-.515.434v.081zM106.94-24.594c0-.434-.174-.727-.841-1.172.537-.287.727-.472.727-.879 0-.423-.375-.775-.912-.775-.602 0-1.052.325-1.052.846 0 .352.114.559.673 1.02-.58.406-.705.618-.705.992 0 .51.428.884 1.04.884.652 0 1.07-.358 1.07-.916zm-.489-2.05c0 .336-.14.563-.51.78-.477-.282-.678-.531-.678-.867 0-.337.234-.537.597-.537.369 0 .591.25.591.623zm-.455 1.415c.368.25.531.466.531.803a.57.57 0 0 1-.596.596c-.413 0-.69-.282-.69-.78 0-.353.115-.576.435-.836zM110.73-23.754v-.081c-.406 0-.515-.098-.515-.33v-3.239l-.048-.016-.971.493v.076l.146-.054a.819.819 0 0 1 .244-.065c.114 0 .163.081.163.266v2.435c0 .298-.114.412-.515.434v.081zM111.626-23.634c.705-.098 1.057-.228 1.518-.646.434-.396.651-.987.651-1.61 0-.456-.13-.847-.347-1.118a1.072 1.072 0 0 0-.851-.412c-.646 0-1.129.548-1.129 1.28 0 .661.39 1.1.977 1.1.32 0 .58-.08.813-.308-.217.89-.824 1.459-1.649 1.605zm1.643-2.045c0 .287-.396.407-.634.407-.407 0-.668-.407-.668-1.053 0-.293.082-.613.19-.759a.487.487 0 0 1 .396-.184c.472 0 .716.466.716 1.377zM117.945-24.497l-.076-.032c-.18.303-.293.363-.521.363h-1.27l.896-.955c.482-.51.694-.916.694-1.345 0-.537-.39-.954-1.003-.954-.668 0-1.015.444-1.129 1.08l.114.026c.217-.531.407-.705.798-.705.46 0 .754.271.754.765 0 .46-.196.873-.706 1.41l-.965 1.025v.065h2.12zM120.667-25.544c0-1.112-.493-1.876-1.204-1.876-.873 0-1.247.884-1.247 1.844 0 .89.298 1.898 1.226 1.898.884 0 1.225-.933 1.225-1.866zm-.52.028c0 1.073-.244 1.697-.705 1.697-.467 0-.706-.618-.706-1.72 0-1.1.245-1.74.695-1.74.477 0 .716.634.716 1.763z" style="font-size:5.42396px;font-family:STIXGeneral;-inkscape-font-specification:STIXGeneral;stroke:#000;stroke-width:0" transform="translate(0 -30.508)"/><path d="M124.735-56.052c0-1.112-.493-1.876-1.204-1.876-.873 0-1.247.884-1.247 1.844 0 .89.298 1.898 1.226 1.898.884 0 1.225-.933 1.225-1.866zm-.52.027c0 1.074-.244 1.698-.705 1.698-.467 0-.706-.618-.706-1.72 0-1.1.245-1.74.695-1.74.477 0 .716.634.716 1.762zM19.775 15.843l-.04-.03c-.069.09-.108.112-.208.112h-.898l-.473 1.029s-.004.013-.004.021c0 .026.013.035.052.035.417 0 .72.139.924.304.196.156.291.373.291.65 0 .374-.282.734-.586.734-.087 0-.186-.04-.308-.139-.139-.113-.221-.135-.321-.135-.121 0-.195.057-.195.165 0 .165.225.27.55.27.296 0 .535-.066.739-.213.295-.217.425-.486.425-.903 0-.23-.04-.395-.152-.55-.247-.344-.464-.44-1.085-.556l.174-.37h.841c.07 0 .105-.025.118-.055z" style="font-size:5.42396px;font-family:STIXGeneral;-inkscape-font-specification:STIXGeneral;stroke:#000;stroke-width:0"/><g style="stroke-width:1.25"><path d="M49.711-23.754v-.081c-.406 0-.515-.098-.515-.33v-3.239l-.049-.016-.97.493v.076l.146-.054a.82.82 0 0 1 .244-.065c.114 0 .163.081.163.266v2.435c0 .298-.114.412-.516.434v.081zM52.868-25.544c0-1.112-.493-1.876-1.204-1.876-.873 0-1.247.884-1.247 1.844 0 .89.298 1.898 1.225 1.898.885 0 1.226-.933 1.226-1.866zm-.52.028c0 1.073-.245 1.697-.706 1.697-.466 0-.705-.618-.705-1.72 0-1.1.244-1.74.695-1.74.477 0 .716.634.716 1.763z" style="font-size:5.42396px;font-family:STIXGeneral;-inkscape-font-specification:STIXGeneral;stroke:#000;stroke-width:0" transform="matrix(.8 0 0 .8 10.543 37.8)"/></g><g style="stroke-width:1.25"><path d="M83.611-23.754v-.081c-.407 0-.515-.098-.515-.33v-3.239l-.049-.016-.97.493v.076l.146-.054a.82.82 0 0 1 .244-.065c.114 0 .162.081.162.266v2.435c0 .298-.114.412-.515.434v.081zM86.562-27.447l-.05-.038c-.086.114-.135.14-.26.14H85.13l-.591 1.286s-.006.016-.006.027c0 .033.016.044.065.044.521 0 .9.173 1.156.38.244.195.363.466.363.813 0 .466-.353.917-.732.917-.109 0-.234-.05-.385-.174-.174-.141-.277-.168-.402-.168-.152 0-.244.07-.244.206 0 .206.282.336.689.336.369 0 .667-.081.922-.266.369-.27.532-.607.532-1.128 0-.287-.05-.493-.19-.689-.31-.428-.58-.547-1.356-.694l.217-.46h1.052c.087 0 .13-.033.146-.071z" style="font-size:5.42396px;font-family:STIXGeneral;-inkscape-font-specification:STIXGeneral;stroke:#000;stroke-width:0" transform="matrix(.8 0 0 .8 15.518 37.8)"/></g><g style="stroke-width:1.25"><path d="m117.945-24.497-.076-.032c-.18.303-.293.363-.521.363h-1.27l.896-.955c.482-.51.694-.916.694-1.345 0-.537-.39-.954-1.003-.954-.668 0-1.015.444-1.129 1.08l.114.026c.217-.531.407-.705.798-.705.46 0 .754.271.754.765 0 .46-.196.873-.706 1.41l-.965 1.025v.065h2.12zM120.667-25.544c0-1.112-.493-1.876-1.204-1.876-.873 0-1.247.884-1.247 1.844 0 .89.298 1.898 1.226 1.898.884 0 1.225-.933 1.225-1.866zm-.52.028c0 1.073-.244 1.697-.705 1.697-.467 0-.706-.618-.706-1.72 0-1.1.245-1.74.695-1.74.477 0 .716.634.716 1.763z" style="font-size:5.42396px;font-family:STIXGeneral;-inkscape-font-specification:STIXGeneral;stroke:#000;stroke-width:0" transform="matrix(.8 0 0 .8 20.7 37.8)"/></g><path d="M7.586 11.619H125.09" style="fill:#000;stroke:#000;stroke-width:.264583;stroke-dasharray:none;stroke-opacity:1"/><path d="M12.294 9.06v5.117M18.71 9.06v5.117M25.126 9.06v5.117M31.542 9.06v5.117M37.958 9.06v5.117M44.374 9.06v5.117M50.79 9.06v5.117M57.206 9.06v5.117M63.622 9.06v5.117M70.037 9.06v5.117M76.453 9.06v5.117M82.87 9.06v5.117M89.285 9.06v5.117M95.701 9.06v5.117M102.117 9.06v5.117M108.533 9.06v5.117M114.949 9.06v5.117M121.365 9.06v5.117M4.181 153.306h124.046M11.095 150.19v6.33M18.495 150.19v6.33M25.894 150.19v6.33M33.293 150.19v6.33M40.693 150.19v6.33M48.092 150.19v6.33M55.492 150.19v6.33M62.89 150.19v6.33M70.29 150.19v6.33M77.69 150.19v6.33M85.09 150.19v6.33M92.488 150.19v6.33M99.888 150.19v6.33M107.287 150.19v6.33M114.687 150.19v6.33M122.086 150.19v6.33" style="fill:#e5f6ff;stroke:#000;stroke-width:.264583"/><path d="m12.103 159.577-.049-.038c-.086.114-.135.141-.26.141h-1.123l-.59 1.286s-.006.016-.006.027c0 .032.016.043.065.043.52 0 .9.174 1.155.38.244.195.364.466.364.813 0 .467-.353.917-.733.917-.108 0-.233-.049-.385-.174-.173-.14-.276-.168-.401-.168-.152 0-.244.07-.244.206 0 .206.282.337.689.337.368 0 .667-.082.922-.266.368-.271.531-.608.531-1.128 0-.288-.049-.494-.19-.69-.309-.428-.58-.547-1.356-.693l.217-.461h1.053c.086 0 .13-.033.146-.071z" style="font-size:5.42396px;font-family:STIXGeneral;-inkscape-font-specification:STIXGeneral;stroke:#000;stroke-width:0"/><path d="M49.711-23.754v-.081c-.406 0-.515-.098-.515-.33v-3.239l-.049-.016-.97.493v.076l.146-.054a.82.82 0 0 1 .244-.065c.114 0 .163.081.163.266v2.435c0 .298-.114.412-.516.434v.081zM52.868-25.544c0-1.112-.493-1.876-1.204-1.876-.873 0-1.247.884-1.247 1.844 0 .89.298 1.898 1.225 1.898.885 0 1.226-.933 1.226-1.866zm-.52.028c0 1.073-.245 1.697-.706 1.697-.466 0-.705-.618-.705-1.72 0-1.1.244-1.74.695-1.74.477 0 .716.634.716 1.763z" style="font-size:5.42396px;font-family:STIXGeneral;-inkscape-font-specification:STIXGeneral;stroke:#000;stroke-width:0" transform="translate(-2.253 187.024)"/><path d="M83.611-23.754v-.081c-.407 0-.515-.098-.515-.33v-3.239l-.049-.016-.97.493v.076l.146-.054a.82.82 0 0 1 .244-.065c.114 0 .162.081.162.266v2.435c0 .298-.114.412-.515.434v.081zM86.562-27.447l-.05-.038c-.086.114-.135.14-.26.14H85.13l-.591 1.286s-.006.016-.006.027c0 .033.016.044.065.044.521 0 .9.173 1.156.38.244.195.363.466.363.813 0 .466-.353.917-.732.917-.109 0-.234-.05-.385-.174-.174-.141-.277-.168-.402-.168-.152 0-.244.07-.244.206 0 .206.282.336.689.336.369 0 .667-.081.922-.266.369-.27.532-.607.532-1.128 0-.287-.05-.493-.19-.689-.31-.428-.58-.547-1.356-.694l.217-.46h1.052c.087 0 .13-.033.146-.071z" style="font-size:5.42396px;font-family:STIXGeneral;-inkscape-font-specification:STIXGeneral;stroke:#000;stroke-width:0" transform="translate(1.04 187.024)"/><path d="m117.945-24.497-.076-.032c-.18.303-.293.363-.521.363h-1.27l.896-.955c.482-.51.694-.916.694-1.345 0-.537-.39-.954-1.003-.954-.668 0-1.015.444-1.129 1.08l.114.026c.217-.531.407-.705.798-.705.46 0 .754.271.754.765 0 .46-.196.873-.706 1.41l-.965 1.025v.065h2.12zM120.667-25.544c0-1.112-.493-1.876-1.204-1.876-.873 0-1.247.884-1.247 1.844 0 .89.298 1.898 1.226 1.898.884 0 1.225-.933 1.225-1.866zm-.52.028c0 1.073-.244 1.697-.705 1.697-.467 0-.706-.618-.706-1.72 0-1.1.245-1.74.695-1.74.477 0 .716.634.716 1.763z" style="font-size:5.42396px;font-family:STIXGeneral;-inkscape-font-specification:STIXGeneral;stroke:#000;stroke-width:0" transform="translate(4.16 187.024)"/><path d="M-.569-2.73v-1.223h2.903v-.529l1.08 1.134-1.08 1.1v-.482z" style="fill:#b1ffe8;fill-opacity:1;stroke:#000;stroke-width:.079375;stroke-miterlimit:4;stroke-dasharray:none"/><g aria-label="START" style="font-size:7.9375px;line-height:1.25;font-family:sans-serif;stroke-width:.834253;stroke-miterlimit:4;stroke-dasharray:none"><path d="M10.926 28.908v-.667h2.881l.429-.437v-1.167l-.429-.436h-2.262l-.826-.826v-1.484l.826-.833h3.111v.666H11.87l-.436.437.008.968.428.437h2.262l.826.833v1.675l-.826.834zM17.123 28.908v-5.184h-1.739v-.666h4.2v.666h-1.739v5.184zM19.19 28.908l1.977-5.85h1.12l1.976 5.85h-.754l-.5-1.524h-2.564l-.492 1.524zm1.469-2.16h2.143l-.984-3.008h-.183zM25.072 28.908v-5.85h3.199l.825.833v1.865l-.825.834h-.024l1.056 2.318H28.5l-1.04-2.318h-1.667v2.318zm.722-2.961h2.151l.429-.437v-1.373l-.429-.436h-2.15zM31.432 28.908v-5.184h-1.738v-.666h4.199v.666h-1.739v5.184z" style="font-style:normal;font-variant:normal;font-weight:400;font-stretch:normal;font-family:Tomorrow;-inkscape-font-specification:Tomorrow;stroke-width:.834253;stroke-miterlimit:4;stroke-dasharray:none" transform="matrix(.1301 0 0 .1237 -1.714 -9.705)"/></g><path d="M94.553 63.08v-4.624h-7.53v-1.998l-3.917 4.287 3.917 4.156V63.08z" style="fill:#ffc3cc;fill-opacity:1;stroke:#000;stroke-width:.3;stroke-miterlimit:4;stroke-dasharray:none" transform="matrix(.26458 0 0 .26458 -12.63 -19.532)"/><g aria-label="END" style="font-size:7.9375px;line-height:1.25;font-family:sans-serif;stroke-width:.836237;stroke-miterlimit:4;stroke-dasharray:none"><path d="M20.728 51.554v-5.85h3.857v.666H21.45v1.778h2.802v.66H21.45v2.079h3.135v.667zM25.689 51.554v-5.85h.984l2.611 4.707v-4.707h.723v5.85h-.858l-2.564-4.62h-.174v4.62zM31.394 51.554v-5.85h3.175l1.214 1.23v3.39l-1.214 1.23zm.722-.643h2.127l.818-.834V47.18l-.818-.833h-2.127z" style="font-style:normal;font-variant:normal;font-weight:400;font-stretch:normal;font-family:Tomorrow;-inkscape-font-specification:Tomorrow;stroke-width:.836237;stroke-miterlimit:4;stroke-dasharray:none" transform="matrix(.12949 0 0 .1237 7.46 -9.462)"/></g><path d="M111.095 139.166v6.33M112.095 140.385v3.891M113.095 140.385v3.891M114.095 140.385v3.891M115.095 140.385v3.891M116.095 140.385v3.891M117.095 140.385v3.891M118.095 140.385v3.891M119.095 140.385v3.891M120.095 140.385v3.891" style="fill:#e5f6ff;stroke:#000;stroke-width:.264583"/><path d="M-6.374 119.294H114.36" style="fill:#000;stroke:#000;stroke-width:.264583;stroke-dasharray:none;stroke-opacity:1"/><path d="M-2.425 116.129v6.33M-1.896 117.6v3.388M-1.367 117.6v3.388M-.838 117.6v3.388M-.309 117.6v3.388M.22 117.6v3.388M.75 117.6v3.388M1.279 117.6v3.388M1.808 117.6v3.388M2.337 117.6v3.388M2.866 117.6v3.388M121.095 139.166v6.33M122.095 140.385v3.891M123.095 140.385v3.891M124.095 140.385v3.891M125.095 140.385v3.891M126.095 140.385v3.891M127.095 140.385v3.891M128.095 140.385v3.891M129.095 140.385v3.891M130.095 140.385v3.891M121.095 139.166v6.33M122.095 140.385v3.891M123.095 140.385v3.891M124.095 140.385v3.891M125.095 140.385v3.891M126.095 140.385v3.891M127.095 140.385v3.891M128.095 140.385v3.891M129.095 140.385v3.891M130.095 140.385v3.891M130.095 140.385v3.891M131.095 139.166v6.33M132.095 140.385v3.891M133.095 140.385v3.891M134.095 140.385v3.891M135.095 140.385v3.891M136.095 140.385v3.891M137.095 140.385v3.891M138.095 140.385v3.891M139.095 140.385v3.891M140.095 140.385v3.891M131.095 139.166v6.33M132.095 140.385v3.891M133.095 140.385v3.891M134.095 140.385v3.891M135.095 140.385v3.891M136.095 140.385v3.891M137.095 140.385v3.891M138.095 140.385v3.891M139.095 140.385v3.891M140.095 140.385v3.891M140.095 140.385v3.891M140.095 140.385v3.891M141.095 139.166v6.33M142.095 140.385v3.891M143.095 140.385v3.891M144.095 140.385v3.891M145.095 140.385v3.891M146.095 140.385v3.891M147.095 140.385v3.891M148.095 140.385v3.891M149.095 140.385v3.891M150.095 140.385v3.891M141.095 139.166v6.33M142.095 140.385v3.891M143.095 140.385v3.891M144.095 140.385v3.891M145.095 140.385v3.891M146.095 140.385v3.891M147.095 140.385v3.891M148.095 140.385v3.891M149.095 140.385v3.891M150.095 140.385v3.891M150.095 140.385v3.891M150.095 140.385v3.891M150.095 140.385v3.891M151.095 139.166v6.33M152.095 140.385v3.891M153.095 140.385v3.891M154.095 140.385v3.891M155.095 140.385v3.891M156.095 140.385v3.891M157.095 140.385v3.891M158.095 140.385v3.891M159.095 140.385v3.891M160.095 140.385v3.891M151.095 139.166v6.33M152.095 140.385v3.891M153.095 140.385v3.891M154.095 140.385v3.891M155.095 140.385v3.891M156.095 140.385v3.891M157.095 140.385v3.891M158.095 140.385v3.891M159.095 140.385v3.891M160.095 140.385v3.891" style="fill:#e5f6ff;stroke:#000;stroke-width:.264583"/><path d="M13.577 10.013v3.212M14.86 10.013v3.212M16.144 10.013v3.212M17.427 10.013v3.212M12.936 10.013v3.212M14.219 10.013v3.212M15.502 10.013v3.212M16.785 10.013v3.212M18.069 10.013v3.212" style="fill:#e5f6ff;stroke:#000;stroke-width:.185208;stroke-dasharray:none"/><path d="m204.893 10.975-.039-.03c-.07.09-.108.113-.208.113h-.898l-.473 1.028s-.004.013-.004.022c0 .026.013.034.052.034.416 0 .72.14.924.304.195.156.29.373.29.65 0 .374-.281.734-.585.734-.087 0-.187-.039-.308-.139-.14-.112-.222-.134-.321-.134-.122 0-.196.056-.196.165 0 .165.226.269.552.269.295 0 .533-.065.737-.213.295-.217.425-.486.425-.902 0-.23-.039-.395-.151-.551-.248-.343-.465-.439-1.085-.556l.173-.369h.842c.07 0 .104-.026.117-.056z" style="font-size:5.42396px;font-family:STIXGeneral;-inkscape-font-specification:STIXGeneral;stroke:#000;stroke-width:0"/><g style="stroke-width:1.25"><path d="M49.711-23.754v-.081c-.406 0-.515-.098-.515-.33v-3.239l-.049-.016-.97.493v.076l.146-.054a.82.82 0 0 1 .244-.065c.114 0 .163.081.163.266v2.435c0 .298-.114.412-.516.434v.081zM52.868-25.544c0-1.112-.493-1.876-1.204-1.876-.873 0-1.247.884-1.247 1.844 0 .89.298 1.898 1.225 1.898.885 0 1.226-.933 1.226-1.866zm-.52.028c0 1.073-.245 1.697-.706 1.697-.466 0-.705-.618-.705-1.72 0-1.1.244-1.74.695-1.74.477 0 .716.634.716 1.763z" style="font-size:5.42396px;font-family:STIXGeneral;-inkscape-font-specification:STIXGeneral;stroke:#000;stroke-width:0" transform="matrix(.8 0 0 .8 195.661 32.933)"/></g><g style="stroke-width:1.25"><path d="M83.611-23.754v-.081c-.407 0-.515-.098-.515-.33v-3.239l-.049-.016-.97.493v.076l.146-.054a.82.82 0 0 1 .244-.065c.114 0 .162.081.162.266v2.435c0 .298-.114.412-.515.434v.081zM86.562-27.447l-.05-.038c-.086.114-.135.14-.26.14H85.13l-.591 1.286s-.006.016-.006.027c0 .033.016.044.065.044.521 0 .9.173 1.156.38.244.195.363.466.363.813 0 .466-.353.917-.732.917-.109 0-.234-.05-.385-.174-.174-.141-.277-.168-.402-.168-.152 0-.244.07-.244.206 0 .206.282.336.689.336.369 0 .667-.081.922-.266.369-.27.532-.607.532-1.128 0-.287-.05-.493-.19-.689-.31-.428-.58-.547-1.356-.694l.217-.46h1.052c.087 0 .13-.033.146-.071z" style="font-size:5.42396px;font-family:STIXGeneral;-inkscape-font-specification:STIXGeneral;stroke:#000;stroke-width:0" transform="matrix(.8 0 0 .8 200.636 32.933)"/></g><g style="stroke-width:1.25"><path d="m117.945-24.497-.076-.032c-.18.303-.293.363-.521.363h-1.27l.896-.955c.482-.51.694-.916.694-1.345 0-.537-.39-.954-1.003-.954-.668 0-1.015.444-1.129 1.08l.114.026c.217-.531.407-.705.798-.705.46 0 .754.271.754.765 0 .46-.196.873-.706 1.41l-.965 1.025v.065h2.12zM120.667-25.544c0-1.112-.493-1.876-1.204-1.876-.873 0-1.247.884-1.247 1.844 0 .89.298 1.898 1.226 1.898.884 0 1.225-.933 1.225-1.866zm-.52.028c0 1.073-.244 1.697-.705 1.697-.467 0-.706-.618-.706-1.72 0-1.1.245-1.74.695-1.74.477 0 .716.634.716 1.763z" style="font-size:5.42396px;font-family:STIXGeneral;-inkscape-font-specification:STIXGeneral;stroke:#000;stroke-width:0" transform="matrix(.8 0 0 .8 205.82 32.933)"/></g><path d="M192.705 6.751h117.502" style="fill:#000;stroke:#000;stroke-width:.264583;stroke-dasharray:none;stroke-opacity:1"/><path d="M197.413 4.193v5.116M203.829 4.193v5.116M210.244 4.193v5.116M216.66 4.193v5.116M223.076 4.193v5.116M229.492 4.193v5.116M235.908 4.193v5.116M242.324 4.193v5.116M248.74 4.193v5.116M255.156 4.193v5.116M261.572 4.193v5.116M267.988 4.193v5.116M274.404 4.193v5.116M280.82 4.193v5.116M287.235 4.193v5.116M293.651 4.193v5.116M300.067 4.193v5.116M306.483 4.193v5.116" style="fill:#e5f6ff;stroke:#000;stroke-width:.264583"/><path d="M198.696 5.145v3.212M199.979 5.145v3.212M201.262 5.145v3.212M202.545 5.145v3.212M198.054 5.145v3.212M199.337 5.145v3.212M200.62 5.145v3.212M201.904 5.145v3.212M203.187 5.145v3.212M8.445 10.013v3.212M9.728 10.013v3.212M11.011 10.013v3.212M7.803 10.013v3.212M9.086 10.013v3.212M10.37 10.013v3.212M11.653 10.013v3.212M19.993 10.013v3.212M21.277 10.013v3.212M22.56 10.013v3.212M23.843 10.013v3.212M19.352 10.013v3.212M20.635 10.013v3.212M21.918 10.013v3.212M23.201 10.013v3.212M24.484 10.013v3.212M26.41 10.013v3.212M27.692 10.013v3.212M28.976 10.013v3.212M30.259 10.013v3.212M25.768 10.013v3.212M27.05 10.013v3.212M28.334 10.013v3.212M29.617 10.013v3.212M30.9 10.013v3.212M32.825 10.013v3.212M34.108 10.013v3.212M35.392 10.013v3.212M36.675 10.013v3.212M32.184 10.013v3.212M33.467 10.013v3.212M34.75 10.013v3.212M36.033 10.013v3.212M37.316 10.013v3.212M39.241 10.013v3.212M40.524 10.013v3.212M41.807 10.013v3.212M43.09 10.013v3.212M38.6 10.013v3.212M39.883 10.013v3.212M41.166 10.013v3.212M42.449 10.013v3.212M43.732 10.013v3.212M45.657 10.013v3.212M46.94 10.013v3.212M48.223 10.013v3.212M49.507 10.013v3.212M45.015 10.013v3.212M46.299 10.013v3.212M47.582 10.013v3.212M48.865 10.013v3.212M50.148 10.013v3.212M52.073 10.013v3.212M53.356 10.013v3.212M54.64 10.013v3.212M55.922 10.013v3.212M51.431 10.013v3.212M52.715 10.013v3.212M53.998 10.013v3.212M55.28 10.013v3.212M56.564 10.013v3.212M58.489 10.013v3.212M59.772 10.013v3.212M61.055 10.013v3.212M62.338 10.013v3.212M57.847 10.013v3.212M59.13 10.013v3.212M60.414 10.013v3.212M61.697 10.013v3.212M62.98 10.013v3.212M64.905 10.013v3.212M66.188 10.013v3.212M67.471 10.013v3.212M68.754 10.013v3.212M64.263 10.013v3.212M65.546 10.013v3.212M66.83 10.013v3.212M68.113 10.013v3.212M69.396 10.013v3.212M71.32 10.013v3.212M72.604 10.013v3.212M73.887 10.013v3.212M75.17 10.013v3.212M70.68 10.013v3.212M71.962 10.013v3.212M73.245 10.013v3.212M74.529 10.013v3.212M75.812 10.013v3.212M77.737 10.013v3.212M79.02 10.013v3.212M80.303 10.013v3.212M81.586 10.013v3.212M77.095 10.013v3.212M78.378 10.013v3.212M79.661 10.013v3.212M80.945 10.013v3.212M82.228 10.013v3.212M84.153 10.013v3.212M85.436 10.013v3.212M86.719 10.013v3.212M88.002 10.013v3.212M83.51 10.013v3.212M84.794 10.013v3.212M86.077 10.013v3.212M87.36 10.013v3.212M88.644 10.013v3.212M90.568 10.013v3.212M91.852 10.013v3.212M93.135 10.013v3.212M94.418 10.013v3.212M89.927 10.013v3.212M91.21 10.013v3.212M92.493 10.013v3.212M93.776 10.013v3.212M95.06 10.013v3.212M96.984 10.013v3.212M98.268 10.013v3.212M99.55 10.013v3.212M100.834 10.013v3.212M96.343 10.013v3.212M97.626 10.013v3.212M98.91 10.013v3.212M100.192 10.013v3.212M101.475 10.013v3.212M103.4 10.013v3.212M104.683 10.013v3.212M105.967 10.013v3.212M107.25 10.013v3.212M102.759 10.013v3.212M104.042 10.013v3.212M105.325 10.013v3.212M106.608 10.013v3.212M107.891 10.013v3.212M109.816 10.013v3.212M111.1 10.013v3.212M112.383 10.013v3.212M113.666 10.013v3.212M109.175 10.013v3.212M110.458 10.013v3.212M111.741 10.013v3.212M113.024 10.013v3.212M114.307 10.013v3.212M116.232 10.013v3.212M117.515 10.013v3.212M118.798 10.013v3.212M120.082 10.013v3.212M115.59 10.013v3.212M116.874 10.013v3.212M118.157 10.013v3.212M119.44 10.013v3.212M120.723 10.013v3.212M122.648 10.013v3.212M123.931 10.013v3.212M122.006 10.013v3.212M123.29 10.013v3.212M124.573 10.013v3.212" style="fill:#e5f6ff;stroke:#000;stroke-width:.185208;stroke-dasharray:none"/><path d="M83.641 5.312v1.11h.912l-1.684 1.627-1.643-1.627h.857v-1.11h-4.26V1.914h10.254v3.398z" style="fill:#b1ffe8;fill-opacity:1;stroke:#000;stroke-width:.264583;stroke-miterlimit:4;stroke-dasharray:none"/><g style="stroke:#000;stroke-width:.0509678;stroke-dasharray:none;stroke-opacity:1"><path d="M20.378 6.24v-.455h1.969l.293-.299V4.69l-.293-.298H20.8l-.564-.564V2.812l.564-.57h2.126v.456h-1.904l-.298.299.006.661.292.299h1.546l.564.57V5.67l-.564.57zM24.609 6.24V2.698H23.42v-.455h2.87v.455h-1.189V6.24zM26.019 6.24l1.35-3.997h.765l1.35 3.997h-.514L28.628 5.2h-1.752L26.54 6.24zm1.003-1.475h1.465l-.673-2.056h-.125ZM30.033 6.24V2.243h2.186l.564.57v1.274l-.564.57h-.017l.722 1.583h-.548l-.71-1.583h-1.14V6.24zm.493-2.023h1.47l.293-.298V2.98l-.293-.299h-1.47ZM34.372 6.24V2.698h-1.188v-.455h2.87v.455h-1.189V6.24z" style="font-size:5.42396px;font-family:Tomorrow;-inkscape-font-specification:Tomorrow;stroke:#000;stroke-width:.0509678;stroke-dasharray:none;stroke-opacity:1" transform="matrix(.51946 0 0 .51878 68.32 1.4)"/></g><path d="M51.561 5.312v1.11h.911L50.79 8.049l-1.643-1.627h.857v-1.11H47.17V1.914h7.459v3.398z" style="fill:#ffc3cc;fill-opacity:1;stroke:#000;stroke-width:.264583;stroke-miterlimit:4;stroke-dasharray:none"/><g style="stroke:#000;stroke-width:.0509801;stroke-dasharray:none;stroke-opacity:1"><path d="M37.8 6.24V2.243h2.636v.455h-2.143v1.215h1.915v.45h-1.915v1.422h2.143v.455zM41.19 6.24V2.243h.672l1.785 3.216V2.243h.493V6.24h-.585l-1.752-3.156h-.12V6.24zM45.084 6.24V2.243h2.17l.83.84V5.4l-.83.84Zm.494-.439h1.453l.559-.57v-1.98l-.559-.569h-1.453z" style="font-size:5.42396px;font-family:Tomorrow;-inkscape-font-specification:Tomorrow;stroke:#000;stroke-width:.0509801;stroke-dasharray:none;stroke-opacity:1" transform="matrix(.5192 0 0 .51878 28.719 1.4)"/></g><text xml:space="preserve" x="26.026" y="-15.774" style="font-size:5.42396px;font-family:Tomorrow;-inkscape-font-specification:Tomorrow;fill:#000;stroke:#000;stroke-width:.185208"/><g style="stroke-width:1.36279"><path d="M20.378 6.24v-.455h1.969l.293-.299V4.69l-.293-.298H20.8l-.564-.564V2.812l.564-.57h2.126v.456h-1.904l-.298.299.006.661.292.299h1.546l.564.57V5.67l-.564.57zM24.609 6.24V2.698H23.42v-.455h2.87v.455h-1.189V6.24zM26.019 6.24l1.35-3.997h.765l1.35 3.997h-.514L28.628 5.2h-1.752L26.54 6.24zm1.003-1.475h1.465l-.673-2.056h-.125ZM30.033 6.24V2.243h2.186l.564.57v1.274l-.564.57h-.017l.722 1.583h-.548l-.71-1.583h-1.14V6.24zm.493-2.023h1.47l.293-.298V2.98l-.293-.299h-1.47ZM34.372 6.24V2.698h-1.188v-.455h2.87v.455h-1.189V6.24z" style="font-size:5.42396px;font-family:Tomorrow;-inkscape-font-specification:Tomorrow;stroke:none;stroke-width:.252401" transform="matrix(.73379 0 0 .73379 36.842 -17.93)"/></g><g style="stroke-width:1.36279"><path d="M37.8 6.24V2.243h2.636v.455h-2.143v1.215h1.915v.45h-1.915v1.422h2.143v.455zM41.19 6.24V2.243h.672l1.785 3.216V2.243h.493V6.24h-.585l-1.752-3.156h-.12V6.24zM45.084 6.24V2.243h2.17l.83.84V5.4l-.83.84Zm.494-.439h1.453l.559-.57v-1.98l-.559-.569h-1.453z" style="font-size:5.42396px;font-family:Tomorrow;-inkscape-font-specification:Tomorrow;stroke:none;stroke-width:.252401" transform="matrix(.73379 0 0 .73379 64.384 -17.93)"/></g><path d="M57.197 109.441v-3.453h34.952v-2.086l3.552 3.792-3.552 3.677v-1.93z" style="fill:#fff4cf;fill-opacity:1;stroke:#000;stroke-width:.291042;stroke-miterlimit:4;stroke-dasharray:none"/><path d="M57.206 109.746v6.728M95.701 109.672v6.817" style="fill:#e5f6ff;stroke:#000;stroke-width:.264583;stroke-dasharray:none;stroke-dashoffset:0"/><path d="M95.56 113.776c-.203.475-.54.626-1.383.626h-16.3c-.933 0-1.225.13-1.439.646-.225-.515-.517-.646-1.45-.646H58.512c-.843 0-1.18-.151-1.383-.626l-.124-.169c.011.454.079.576.281.776.203.199.641.302 1.282.302h16.587c.787 0 1.046.124 1.271.584.236-.46.506-.584 1.282-.584h16.4c.63 0 1.091-.11 1.293-.302.203-.193.27-.315.282-.776z" style="font-style:normal;font-variant:normal;font-weight:400;font-stretch:normal;font-size:medium;line-height:125%;font-family:STIXGeneral;-inkscape-font-specification:STIXGeneral;letter-spacing:0;word-spacing:0;display:inline;fill:#000;fill-opacity:1;stroke:none;stroke-width:.352778px;stroke-linecap:butt;stroke-linejoin:miter;stroke-opacity:1"/><path d="M77.787 76.61H75.12v-.315h2.666zM93.958 93.292h-1.39v-.075c.373-.02.479-.126.479-.403v-2.262c0-.172-.046-.247-.152-.247a.761.761 0 0 0-.226.06l-.136.05v-.07l.902-.458.045.015v3.007c0 .217.1.308.478.308zM96.754 90.038l-1.068 3.294h-.327l.997-3.002h-1.083c-.292 0-.378.07-.59.413l-.09-.045.302-.74h1.86zM101.263 92.184h-2.806v-.333h2.806zM104.689 93.292h-1.39v-.075c.372-.02.478-.126.478-.403v-2.262c0-.172-.045-.247-.151-.247a.761.761 0 0 0-.227.06l-.136.05v-.07l.902-.458.045.015v3.007c0 .217.1.308.479.308zM107.208 93.292h-1.39v-.075c.372-.02.478-.126.478-.403v-2.262c0-.172-.046-.247-.151-.247a.761.761 0 0 0-.227.06l-.136.05v-.07l.902-.458.045.015v3.007c0 .217.1.308.479.308zM112.356 91.68h-2.967v-.332h2.967zm0 1.008h-2.967v-.333h2.967zM116.25 89.846l.01.081c-.79.131-1.355.675-1.49 1.436.246-.192.417-.227.639-.227.59 0 .952.403.952 1.053 0 .322-.09.604-.257.806a1.004 1.004 0 0 1-.8.368c-.399 0-.716-.187-.893-.51a2.095 2.095 0 0 1-.236-.966c0-.544.191-1.023.549-1.39.433-.454.83-.575 1.526-.65zm-.342 2.5c0-.646-.212-.978-.68-.978-.288 0-.585.12-.585.584 0 .766.242 1.27.715 1.27.363 0 .55-.363.55-.877zM131.51 93.094h-1.39v-.075c.373-.02.478-.126.478-.403v-2.262c0-.171-.045-.247-.15-.247a.761.761 0 0 0-.227.06l-.136.05v-.07l.901-.458.046.015v3.007c0 .217.1.308.478.308zM134.03 93.094h-1.391v-.075c.372-.02.478-.126.478-.403v-2.262c0-.171-.045-.247-.15-.247a.761.761 0 0 0-.228.06l-.136.05v-.07l.902-.458.046.015v3.007c0 .217.1.308.478.308zM138.815 91.986h-2.806v-.332h2.806zM142.24 93.094h-1.39v-.075c.373-.02.479-.126.479-.403v-2.262c0-.171-.046-.247-.151-.247a.761.761 0 0 0-.227.06l-.136.05v-.07l.902-.458.045.015v3.007c0 .217.1.308.478.308zM145.036 89.84l-1.068 3.295h-.327l.997-3.003h-1.083c-.292 0-.377.07-.59.413l-.09-.045.303-.74h1.858zM149.908 91.482h-2.967v-.332h2.967zm0 1.008h-2.967v-.333h2.967zM154.684 91.986h-2.806v-.332h2.806zM157.253 89.649l.01.08c-.791.131-1.355.675-1.491 1.436.247-.192.418-.227.64-.227.589 0 .952.403.952 1.053 0 .323-.091.605-.257.806a1.004 1.004 0 0 1-.801.368c-.398 0-.716-.187-.892-.509a2.095 2.095 0 0 1-.237-.967c0-.544.192-1.023.55-1.39.433-.454.83-.575 1.526-.65zm-.343 2.498c0-.645-.211-.977-.68-.977-.287 0-.584.12-.584.584 0 .766.242 1.27.715 1.27.363 0 .55-.363.55-.877zM71.14 91.429h-1.39v-.076c.372-.02.478-.126.478-.403v-2.262c0-.171-.045-.247-.151-.247a.761.761 0 0 0-.227.06l-.136.051v-.07l.902-.459.045.015v3.008c0 .217.101.307.479.307zM73.936 88.174l-1.068 3.295h-.328l.998-3.002h-1.083c-.293 0-.378.07-.59.413l-.09-.046.302-.74h1.859zM77.856 90.32H75.05v-.332h2.806zM80.694 91.429h-1.39v-.076c.372-.02.478-.126.478-.403v-2.262c0-.171-.045-.247-.151-.247a.761.761 0 0 0-.227.06l-.136.051v-.07l.902-.459.045.015v3.008c0 .217.101.307.479.307zM83.213 91.429h-1.39v-.076c.372-.02.478-.126.478-.403v-2.262c0-.171-.045-.247-.151-.247a.761.761 0 0 0-.227.06l-.136.051v-.07l.902-.459.045.015v3.008c0 .217.1.307.479.307z"/><path d="M99.917 78.79c.164-.018.33-.017.495-.024.309-.01.616-.039.924-.058.185-.014.37-.027.552-.054a.316.316 0 0 0 .116-.034l-.043-.027a.323.323 0 0 1-.113.033c-.183.028-.366.041-.55.055-.308.02-.616.049-.924.058-.166.006-.333.004-.498.023l.041.028zM100.114 79.661c.228-.031.458-.045.688-.062.316-.023.632-.033.95-.038.18-.008.362.007.543-.01l-.04-.029c-.18.018-.362.004-.542.012-.317.006-.633.015-.95.038-.23.017-.46.03-.69.06l.041.03zM105.833 77.353c-.269.081-.52.216-.74.389-.063.05-.122.106-.183.16-.06.074-.127.145-.182.224-.226.319-.408.721-.428 1.114-.005.088.008.175.012.263.053.203.051.271.172.445.14.202.356.336.587.416.072.025.15.033.224.05.075.003.15.012.225.01.247-.006.53-.09.703-.275.036-.038.06-.085.09-.127.017-.048.04-.093.05-.142a.719.719 0 0 0-.06-.453c-.057-.125-.098-.16-.185-.265-.18-.172-.402-.3-.65-.348-.166-.032-.224-.023-.392-.022-.192.007-.351.058-.528.121l.038.026c.051-.018.101-.04.153-.055.17-.05.195-.045.373-.065.067 0 .133-.005.2-.001.161.01.347.046.491.123.133.071.16.106.272.203.087.104.128.14.186.263.066.14.094.299.06.45-.01.049-.032.094-.048.141-.03.042-.054.09-.09.127-.171.184-.453.267-.7.273-.074.002-.15-.007-.224-.011-.142-.032-.267-.048-.395-.12a1 1 0 0 1-.45-.506c-.03-.077-.042-.16-.063-.239-.005-.087-.017-.175-.013-.262.02-.393.2-.794.427-1.112.056-.079.122-.15.183-.224.061-.053.12-.108.183-.158.22-.172.473-.307.743-.385l-.041-.028z" style="fill:#000;stroke:#000;stroke-width:.185208"/><path d="M99.705 40.772c-.489.202-.935.524-1.231.93-.178.258-.277.575-.165.842.128.308.49.477.858.502.33.023.716-.057.962-.298a.527.527 0 0 0 .125-.593c-.096-.209-.395-.351-.656-.354-.313-.003-.685.067-.99.313-.095.076-.186.177-.212.285" style="fill:none;stroke:#000;stroke-width:.264583;stroke-dasharray:none"/><path d="M119.874 79.47c.04-.087.103-.157.143-.216.133-.14.314-.202.498-.24.311-.045.614-.038.918.051.046.018.094.032.138.053a.88.88 0 0 1 .475.55c.022.121.04.158.018.282-.04.23-.21.387-.405.498-.067.028-.133.06-.203.082-.331.104-.71.11-1.044.013-.083-.024-.16-.064-.24-.096-.16-.123-.219-.145-.327-.32-.182-.294-.183-.642-.127-.971.023-.091.04-.183.07-.272.147-.463.412-.884.735-1.244.24-.238.49-.473.825-.569" style="fill:none;stroke:#000;stroke-width:.185208"/><path d="M109.948 77.481a1.653 1.653 0 0 0-.718.356c-.066.056-.123.12-.185.181-.243.283-.434.615-.475.991-.026.243.002.303.044.54.033.083.057.17.098.25.167.324.48.575.823.69.098.033.201.046.302.07.424.035.944.046 1.3-.236.046-.037.082-.086.123-.13.024-.047.055-.09.071-.14.068-.216-.038-.44-.18-.597-.042-.046-.092-.085-.137-.127a1.75 1.75 0 0 0-.935-.33c-.07-.005-.139 0-.208 0-.252.025-.515.082-.703.267-.107.106-.108.142-.164.276-.032.2-.027.101-.016.299l.025-.002c-.011-.19-.015-.094.014-.287.053-.13.054-.165.156-.267.183-.182.441-.237.688-.262.068 0 .137-.004.205 0 .333.018.651.128.921.324.045.04.093.079.134.124.136.15.24.364.178.57-.015.048-.045.09-.067.135-.04.042-.073.09-.118.126-.35.28-.864.268-1.282.233-.099-.023-.2-.036-.297-.068a1.436 1.436 0 0 1-.81-.676c-.04-.079-.065-.165-.097-.247-.042-.232-.07-.291-.044-.53.04-.372.229-.7.468-.979.06-.06.118-.123.183-.178a1.62 1.62 0 0 1 .707-.35l-.003-.026z" style="fill:#000;stroke:#000;stroke-width:.185208"/><path d="M95.426 80.547c.076-.02.156-.034.221-.048.221-.028.342-.01.567.004.28.043.35.04.62.133a2.9 2.9 0 0 1 1.055.646c.17.189.235.239.36.461.135.24.22.516.222.792 0 .088-.016.176-.024.263-.074.236-.07.287-.217.494-.243.344-.61.554-.994.703-.107.035-.213.075-.323.104-.491.13-1.012.15-1.51.04-.139-.043-.213-.055-.334-.128a.418.418 0 0 1-.075-.06c-.029-.03-.033-.055-.023-.058.014-.003.028.005.042.007.17.106.27.26.192.468-.023.062-.064.116-.096.175-.06.063-.111.133-.177.19-.399.346-.958.54-1.472.621-.159.025-.32.03-.479.046-.162 0-.325.007-.487 0a5.65 5.65 0 0 1-1.745-.346c-.108-.04-.211-.094-.317-.14-.258-.148-.636-.34-.738-.646-.037-.03.003.005-.058.045-.267.15-.628.124-.921.123-.107-.01-.214-.016-.32-.03-.538-.073-1.07-.229-1.52-.544-.112-.08-.21-.177-.316-.265-.082-.1-.175-.192-.247-.3-.181-.268-.302-.605-.265-.933.03-.268.102-.337.233-.567.078-.085.15-.177.234-.255.41-.376.97-.62 1.495-.783.14-.044.284-.077.426-.115.36-.066.688-.13 1.056-.098.275.023.135.025.343.078.02.005.041.004.062.006-.073-.007-.171-.111-.21-.157a.858.858 0 0 1-.219-.593c.025-.082.031-.172.074-.247.127-.222.31-.32.541-.417.477-.2.996-.248 1.507-.259.19.007.38.006.57.022.655.053 1.32.198 1.906.502.112.058.216.13.323.196.088.067.178.13.263.202.235.2.443.443.599.71" style="fill:none;stroke:#000;stroke-width:.185208"/><path d="m111.603 83.159.049-.055c-.268-.211-.712-.13-1.05-.09-.827.094-1.758.466-2.33 1.183-.403.513-.223 1.27.2 1.704.673.752 1.742.98 2.694.87.066 0 .537-.084.408-.134-.029-.039-.013-.186-.086-.069-.003.36.49.676.903.862 1.17.525 2.579.69 3.803.219.415-.15 1.211-.677.76-1.172-.035-.038-.076-.047-.116-.065-.038-.016-.105.002-.092.051.11.437.899.348 1.271.3.604-.077 1.378-.42 1.606-1.178.223-.777-.256-1.566-.823-1.945-.568-.379-1.4-.51-2.007-.22-.292.139-.173.253.053.183.368-.114.338-.567.325-.639-.08-.479-.6-.96-.952-1.167-.717-.42-1.727-.642-2.53-.697-.862-.06-1.94-.084-2.553.585-.404.44-.25 1.326.198 1.572M75.202 76.22l.048-.055c-.268-.212-.711-.13-1.05-.09-.826.094-1.758.466-2.33 1.183-.403.513-.223 1.27.2 1.704.674.752 1.743.98 2.694.87.067 0 .537-.085.408-.134-.028-.04-.013-.187-.086-.069-.172.397.49.843.903 1.028 1.17.525 2.577.518 3.803.053.413-.157 1.212-.678.76-1.172-.035-.038-.076-.048-.115-.065-.038-.016-.105.001-.093.05.11.438.9.349 1.272.301.603-.077 1.377-.42 1.605-1.178.223-.778-.256-1.567-.823-1.945-.568-.379-1.4-.51-2.007-.22-.292.139-.173.253.053.183.369-.114.338-.567.326-.639-.081-.48-.6-.96-.952-1.167a6.341 6.341 0 0 0-2.531-.78c-.862-.06-1.94-.001-2.553.667-.403.44-.25 1.327.198 1.573" style="fill:#e5f6ff;fill-opacity:1;stroke:#000;stroke-width:.264583;stroke-dasharray:none"/><path d="M78.978 76.526c-.465.227-.89.59-1.171 1.045-.17.29-.264.646-.157.947.122.345.466.535.816.564.314.026.68-.065.915-.335a.671.671 0 0 0 .119-.666c-.092-.235-.376-.395-.624-.398a1.317 1.317 0 0 0-.942.351.66.66 0 0 0-.202.32" style="fill:none;stroke:#000;stroke-width:.264583;stroke-dasharray:none"/><path d="M76.67 78.237a55.764 55.764 0 0 0-.671-.008c-.321 0-.642.004-.962.013M76.678 77.554c-.295.011-.596.02-.849.013-.267-.005-.534-.017-.8.012" style="fill:#000;stroke:#000;stroke-width:.264583;stroke-dasharray:none"/><path d="M127.507 78.975c-.416-.19-.895-.107-1.33-.039-.602.134-1.207.388-1.612.875-.07.085-.124.183-.186.275-.03.109-.075.215-.089.327-.025.208.008.499.1.69.118.24.357.481.56.645.125.1.264.181.396.272.564.317 1.185.52 1.836.543.375.013.47-.02.829-.077.37-.108.83-.249 1.012-.626.001-.018.006-.037.004-.056-.005-.05-.055-.059-.076-.008-.029.07-.004.118.01.191.189.447.567.783.976 1.03.117.072.242.13.364.195.708.325 1.476.471 2.254.427.148-.009.296-.032.444-.048.516-.114 1.076-.275 1.447-.679.042-.045.074-.099.111-.149a.706.706 0 0 0 .045-.576c.016-.028-.078-.097-.043-.022.005.012.084.064.085.064.278.202.61.292.94.37.416.068.857.083 1.261-.063.077-.028.15-.068.225-.102.372-.206.638-.521.805-.91.034-.077.059-.158.088-.237a1.714 1.714 0 0 0-.008-.98 1.27 1.27 0 0 0-.1-.242c-.05-.087-.119-.162-.178-.243-.077-.075-.147-.16-.232-.226-.372-.29-.859-.448-1.318-.528-.1-.017-.2-.025-.3-.037-.25.006-.678-.074-.87.14 0 .015-.007.031-.001.045.053.108.262-.02.308-.062.037-.034.066-.076.099-.114.193-.34.254-.75.148-1.13-.022-.077-.06-.15-.088-.224-.045-.065-.082-.136-.136-.194-.253-.278-.643-.37-1.004-.386-.108-.005-.216.004-.324.006-.476.055-.998.199-1.318.587-.045.054-.073.12-.11.18a1.23 1.23 0 0 0-.105.42c-.001.018.016.062-.001.055-.02-.008-.006-.043-.016-.062-.018-.038-.043-.073-.065-.11a4.849 4.849 0 0 0-1.013-1.171c-.105-.086-.219-.162-.328-.244a4.417 4.417 0 0 0-1.664-.668c-.413-.07-.535-.05-.953-.046-.156.02-.313.03-.468.06-.533.102-1.1.334-1.447.772-.071.09-.118.197-.176.295-.067.289-.114.35-.053.648.022.109.073.21.11.314l.022-.008c-.036-.102-.086-.201-.108-.308-.06-.292-.015-.351.05-.633.057-.097.102-.202.171-.29.343-.436.906-.666 1.434-.768.154-.03.31-.04.465-.059.415-.004.537-.023.947.046.593.1 1.153.337 1.655.664.11.081.222.157.327.243.399.327.734.73 1.007 1.167.003.005.077.163.129.158.017-.001-.001-.035 0-.052a1.2 1.2 0 0 1 .101-.41c.035-.059.063-.122.106-.175.315-.384.831-.527 1.302-.581.106-.002.213-.01.32-.006.353.015.737.105.987.376.052.057.088.126.132.19.029.072.065.143.087.219.105.372.045.775-.142 1.108-.032.037-.06.077-.095.11-.035.032-.254.165-.272.055.166-.198.624-.13.846-.133.1.012.2.02.298.037.455.079.938.234 1.307.522.084.065.153.148.229.223.058.079.127.152.175.237.043.075.072.158.098.24.103.317.094.645.01.965-.03.078-.054.158-.087.235a1.82 1.82 0 0 1-.794.897c-.073.034-.145.073-.22.1-.4.146-.837.131-1.25.063-.327-.076-.655-.165-.93-.366-.033-.023-.15-.119-.082-.012a.679.679 0 0 1-.04.553c-.036.048-.067.1-.108.145-.366.401-.922.56-1.433.673-.147.016-.294.04-.442.048a4.708 4.708 0 0 1-2.242-.424c-.12-.064-.245-.122-.362-.193-.403-.244-.777-.576-.964-1.016-.008-.036-.02-.072-.022-.11-.006-.075.046-.143.036-.023-.175.37-.635.507-.993.614-.357.057-.45.089-.823.077-.647-.022-1.264-.224-1.825-.54-.131-.09-.269-.17-.392-.269-.2-.16-.438-.4-.553-.635a1.351 1.351 0 0 1-.1-.676c.013-.11.057-.214.085-.32.061-.091.113-.188.183-.272.4-.484 1.002-.735 1.6-.868.427-.067.9-.15 1.31.036l.015-.021zM172.237 16.593c-.56-.206-1.038-.52-1.182-.975-.029-.1-.025-.205-.037-.308.021-.104.026-.212.064-.312.187-.501.694-.833 1.185-.983.141-.043.29-.058.433-.087.149-.014.297-.036.446-.042a4.047 4.047 0 0 1 2.1.478c.103.068.211.128.308.203.155.122.26.254.375.41.142.194.266.396.329.63.03.157.082.331-.001.48-.02.035-.013.029-.04.011-.063-.217.062-.513.18-.69.049-.075.11-.14.165-.209.202-.161.26-.229.506-.334.428-.181.895-.18 1.342-.083.104.038.21.067.31.113.358.165.664.441.811.812.03.077.046.159.069.239.006.076.018.151.018.227a1.5 1.5 0 0 1-.203.73" style="fill:#e5f6ff;fill-opacity:1;stroke:#000;stroke-width:.079375;stroke-dasharray:none"/><path d="M168.156 23.78a2.838 2.838 0 0 0-.606-.715c-.085-.071-.176-.135-.265-.203-.108-.065-.212-.138-.325-.196-.59-.305-1.257-.451-1.915-.504-.19-.016-.382-.015-.573-.022-.513.011-1.034.06-1.514.26-.234.097-.422.198-.552.422-.045.077-.053.17-.079.256 0 .247.063.426.222.614.053.062.139.15.226.168M86.058 89.018c-.44-.208-.974-.204-1.38-.121-.832.17-1.676.606-2.116 1.327-.394.645-.053 1.459.459 1.887.705.591 1.663.811 2.54.684.107-.016.311-.047.311-.19 0 .346.491.584.797.727a5.077 5.077 0 0 0 3.355.323c.55-.14 1.206-.411 1.395-.994.058-.18-.165-.468-.274-.431-.06.215 1.011.392 1.47.344.767-.08 1.654-.425 1.96-1.197.318-.807-.25-1.663-.93-2.09-.44-.275-.776-.413-1.298-.423-.032.06-.018.122.004.087.1-.205.12-.365.107-.594a1.113 1.113 0 0 0-.104-.416c-.151-.325-.441-.558-.772-.687-.092-.036-.19-.057-.285-.086-.406-.063-.825-.04-1.2.145-.216.107-.264.17-.437.326-.047.065-.099.127-.14.196-.104.178-.195.436-.127.64.029.024.035.044.072 0 .095-.116.013-.33-.017-.449a1.724 1.724 0 0 0-.33-.548 1.731 1.731 0 0 0-.357-.346c-.09-.062-.19-.11-.287-.166a3.627 3.627 0 0 0-1.899-.314c-.132.013-.263.04-.395.06-.127.033-.258.055-.382.1-.434.16-.87.484-1.014.943-.028.092-.028.19-.042.286.017.092.019.188.05.277.167.483.671.675 1.114.818" style="fill:#e5f6ff;fill-opacity:1;stroke:#000;stroke-width:.264583;stroke-dasharray:none"/><path d="M154.627 32.564c-.44-.208-.974-.204-1.38-.122-.832.17-1.676.606-2.117 1.328-.393.644-.052 1.458.46 1.886.705.591 1.662.812 2.54.684.107-.015.311-.047.311-.19 0 .347.491.585.797.728a5.077 5.077 0 0 0 3.355.323c.55-.14 1.206-.412 1.395-.995.058-.179.048-.408-.061-.372-.06.215.798.334 1.257.285.767-.08 1.654-.425 1.959-1.197.319-.807-.248-1.663-.93-2.09-.439-.275-.775-.413-1.297-.423-.032.061-.018.122.004.088.268-.537.036-1.235-.474-1.547-.59-.36-1.396-.37-1.967.018-.328.223-.616.637-.517 1.053.252-.065.031-.552-.084-.739a2.067 2.067 0 0 0-1.003-.844c-.835-.324-1.797-.362-2.63-.03-.487.193-.956.65-.928 1.213.01.465.415.793.82.94.11.045.253.069.338.061" style="fill:#e5f6ff;fill-opacity:1;stroke:#000;stroke-width:.264583;stroke-dasharray:none" transform="translate(28.227)"/><path d="M157.855 33.303c-.465.227-.89.59-1.171 1.045-.17.29-.264.646-.157.947.122.345.467.535.817.564.313.025.68-.065.914-.335a.671.671 0 0 0 .119-.666c-.092-.235-.376-.395-.624-.398a1.317 1.317 0 0 0-.941.35.66.66 0 0 0-.202.322" style="fill:none;stroke:#000;stroke-width:.264583;stroke-dasharray:none" transform="translate(28.227)"/><path d="M144.205 34.041c.266-.094.579-.125.836.012.25.152.317.508.18.757-.093.18-.286.28-.478.32a1.46 1.46 0 0 1-.631-.002c-.2-.053-.4-.173-.485-.37a.37.37 0 0 1 .08-.373c.155-.193.388-.3.61-.393" style="fill:#e5f6ff;fill-opacity:1;stroke:#000;stroke-width:.264583;stroke-dasharray:none" transform="translate(28.227)"/><path d="M155.588 35.097a55.764 55.764 0 0 0-.67-.008c-.321 0-.642.004-.962.013M155.597 34.414c-.295.011-.596.02-.849.013-.267-.005-.534-.017-.8.012" style="fill:#000;stroke:#000;stroke-width:.264583;stroke-dasharray:none" transform="translate(28.227)"/><path d="M148.819 33.497c-.523-.16-1.094-.085-1.596.113-.305.127-.56.416-.573.757a.94.94 0 0 0 .242.71c.342.403.913.556 1.423.458.398-.06.773-.31.941-.682.12-.296.088-.66-.125-.907-.197-.24-.463-.407-.713-.585" style="fill:#e5f6ff;fill-opacity:1;stroke:#000;stroke-width:.264583;stroke-dasharray:none" transform="translate(28.227)"/><path d="m208.458 28.468.049-.054c-.268-.212-.712-.13-1.05-.09-.827.094-1.758.466-2.33 1.183-.403.512-.223 1.27.2 1.704.673.752 1.742.98 2.694.87.066 0 .537-.085.408-.134-.029-.04-.013-.187-.086-.07-.173.397.49.843.903 1.028 1.17.526 2.576.519 3.802.053.413-.156 1.212-.677.76-1.171-.035-.039-.075-.048-.115-.065-.038-.017-.105.001-.092.05.11.437.899.349 1.271.3.604-.077 1.378-.42 1.606-1.177.223-.778-.256-1.567-.824-1.945-.568-.38-1.4-.51-2.006-.22-.292.138-.173.252.052.183.37-.114.338-.567.326-.64-.08-.478-.6-.96-.952-1.166-.717-.42-1.602-.767-2.531-.781-.863-.013-1.94 0-2.552.668-.404.44-.25 1.327.198 1.572" style="fill:#e5f6ff;fill-opacity:1;stroke:#000;stroke-width:.264583;stroke-dasharray:none"/><path d="M208.849 30.375c.263-.02.527-.015.79-.01.22.006.438.014.657.023l.064.003" style="fill:#000;fill-opacity:1;stroke:#000;stroke-width:.264583;stroke-dasharray:none"/><path d="M211.014 30.46c.1-.18.32-.232.509-.26.21-.03.461-.03.664.036.285.094.569.399.55.66-.007.103-.039.204-.121.269-.21.165-.503.182-.754.14-.315-.052-.578-.301-.694-.597a1.116 1.116 0 0 1-.073-.404c0-.267.128-.516.284-.724.216-.286.503-.532.847-.645.101-.034.207-.052.314-.055" style="fill:none;fill-opacity:1;stroke:#000;stroke-width:.264583;stroke-dasharray:none"/><path d="M206.889 30.622a32.761 32.761 0 0 0 1.527-.005M206.918 29.956c.262-.01.528-.02.752-.013.237.005.474.017.71-.01" style="fill:#000;stroke:#000;stroke-width:.264583;stroke-dasharray:none"/><path d="M95.571 42.106c.366-.019.733-.013 1.1-.009.304.005.608.012.912.02l.089.003" style="fill:#000;fill-opacity:1;stroke:#000;stroke-width:.264584;stroke-dasharray:none"/><path d="M104.968 84.656c-.632-1.08-1.958-1.542-3.148-1.641-.79-.066-1.78-.077-2.432.475-.408.347-.258 1.04.199 1.245-.337-.198-.989-.179-1.415-.095-.871.17-1.724.548-2.262 1.302-.445.624-.055 1.458.483 1.886.742.591 1.748.812 2.672.684.111-.016.326-.047.33-.19.034.401.597.652.958.8 1.12.458 2.444.566 3.588.121.435-.169 1.175-.567.946-1.134-.057-.065-.109-.191-.217-.162-.03.325 1.011.393 1.47.344.783-.082 1.703-.446 1.978-1.256.28-.826-.32-1.661-1.014-2.073-.587-.348-1.32-.515-1.99-.36" style="fill:#f4e3d7;fill-opacity:1;stroke:#000;stroke-width:.264583;stroke-dasharray:none"/><path d="M103.463 85.24c-.465.227-.89.589-1.171 1.045-.17.29-.264.646-.157.946.122.346.466.536.816.564.314.026.68-.064.915-.335a.671.671 0 0 0 .119-.666c-.092-.234-.376-.395-.624-.397a1.317 1.317 0 0 0-.942.35.66.66 0 0 0-.202.321" style="fill:none;stroke:#000;stroke-width:.264583;stroke-dasharray:none"/><path d="M99.683 87.094a50.25 50.25 0 0 0-.627-.008c-.3 0-.6.005-.9.013M99.69 86.442c-.262.011-.528.02-.752.013-.237-.005-.474-.016-.71.011" style="fill:#000;stroke:#000;stroke-width:.264583;stroke-dasharray:none"/><path d="M100.127 86.886c.263-.021.527-.015.79-.01.22.005.438.013.657.023l.064.003" style="fill:#000;fill-opacity:1;stroke:#000;stroke-width:.264583;stroke-dasharray:none"/><path d="M57.266 83.611c-.636-.222-1.263-.202-1.944-.024-.448.117-.932.34-1.478.705-.996.665-1.887 1.608-2.558 2.812-.453.813-.476 1.036-.773 1.963-.069.356-.161.705-.206 1.067-.113.911-.103 2.02.139 2.897.21.762.38.976.737 1.635.185.26.356.541.555.782.68.824 1.474 1.341 2.373 1.56.909.223 1.509.247 2.284.163.366-.04.652-.044 1.005-.169 1.183-.417 2.351-1.305 3.136-2.61.162-.27.277-.622.392-.925.104-.275.278-.95.333-1.245.233-1.236.142-2.623-.157-3.802a8.895 8.895 0 0 0-.515-1.332c-.548-1.056-.838-1.52-1.6-2.292-.42-.425-.686-.558-.933-.749-.299-.23-1.495-.65-2.116-.42" style="display:inline;fill:#fff9f3;fill-opacity:1;stroke:#000;stroke-width:.282222;stroke-linecap:square;stroke-linejoin:miter;stroke-miterlimit:100;stroke-dasharray:none;stroke-opacity:1"/><path d="M57.977-8.244v1.11h.911l-1.682 1.627-1.643-1.627h.857v-1.11h-2.834v-3.398h7.459v3.398z" style="fill:#ffc3cc;fill-opacity:1;stroke:#000;stroke-width:.264583;stroke-miterlimit:4;stroke-dasharray:none"/><path d="M96.473-7.495v1.11h.912L95.7-4.759l-1.644-1.628h.858v-1.11h-4.26v-3.397h10.253v3.398z" style="fill:#b1ffe8;fill-opacity:1;stroke:#000;stroke-width:.264583;stroke-miterlimit:4;stroke-dasharray:none"/><path d="M80.512 26.623c.945 0 1.637-.165 1.94-.454.304-.289.405-.472.422-1.163l-.186.254c-.303.711-.81.938-2.075.938H69.995c-2.037 0-2.675.784-3.14 1.558-.492-.774-1.13-1.558-3.166-1.558H52.995c-1.266 0-1.772-.227-2.075-.938l-.186-.254c.017.68.118.864.422 1.163.304.3.961.454 1.923.454h10.978c1.718 0 2.282.774 2.773 1.465.515-.691 1.104-1.465 2.797-1.465z" style="font-style:normal;font-variant:normal;font-weight:400;font-stretch:normal;font-size:medium;line-height:125%;font-family:STIXGeneral;-inkscape-font-specification:STIXGeneral;letter-spacing:0;word-spacing:0;display:inline;fill:#000;fill-opacity:1;stroke:none;stroke-width:.352777px;stroke-linecap:butt;stroke-linejoin:miter;stroke-opacity:1"/><path d="M83.041 22.626h-32.08" style="display:inline;fill:none;stroke:#000;stroke-width:.264583;stroke-linecap:butt;stroke-linejoin:miter;stroke-miterlimit:10;stroke-dasharray:none;stroke-dashoffset:0;stroke-opacity:1"/><path d="M52.681 20.916c-.115.641-1.375 1.604-1.72 1.71.345.107 1.605 1.07 1.72 1.71" style="display:inline;fill:none;stroke:#000;stroke-width:.343958;stroke-linecap:round;stroke-linejoin:round;stroke-miterlimit:10;stroke-dasharray:none;stroke-opacity:1"/><path d="M82.87 20.71v3.832M50.79 20.71v3.832" style="fill:#0f0;stroke:#000;stroke-width:.343958;stroke-dasharray:none;stroke-dashoffset:0"/><path d="M68.259 31.875h-2.806v-.333h2.806z" style="fill:#000"/><path d="M60.954 32.983h-1.39v-.076c.372-.02.478-.126.478-.403v-2.262c0-.17-.045-.246-.15-.246a.761.761 0 0 0-.228.06l-.136.05v-.07l.902-.458.045.015V32.6c0 .217.101.307.48.307zM63.886 31.32c0 .867-.317 1.733-1.139 1.733-.861 0-1.138-.937-1.138-1.763 0-.891.348-1.712 1.159-1.712.66 0 1.118.71 1.118 1.743zm-.484.026c0-1.048-.221-1.638-.665-1.638-.418 0-.644.595-.644 1.618 0 1.022.221 1.597.654 1.597.429 0 .655-.58.655-1.577zM68.259 31.875h-2.806v-.333h2.806zM71.69 32.983h-1.391v-.076c.373-.02.479-.126.479-.403v-2.262c0-.17-.046-.246-.152-.246a.761.761 0 0 0-.226.06l-.136.05v-.07l.901-.458.046.015V32.6c0 .217.1.307.478.307zM74.43 29.552l-.182.429c-.015.035-.055.065-.136.065h-.977l-.201.428c.72.136.972.247 1.259.645.131.181.176.373.176.64 0 .483-.15.796-.493 1.048-.237.17-.514.246-.857.246-.378 0-.64-.12-.64-.312 0-.126.086-.191.227-.191.116 0 .212.025.373.156.141.116.257.161.358.161.352 0 .68-.418.68-.851 0-.323-.111-.575-.338-.756-.237-.191-.59-.353-1.073-.353-.045 0-.06-.01-.06-.04 0-.01.005-.025.005-.025l.549-1.194h1.043c.116 0 .16-.025.241-.13z"/></svg>