<svg xmlns="http://www.w3.org/2000/svg" xmlns:xlink="http://www.w3.org/1999/xlink" id="svg171797" width="1200" height="200" preserveAspectRatio="none" version="1.1" viewBox="-10 -10 1200 200"><style id="style171643" type="text/css">.grid{stroke:#9e9ed1;stroke-width:.4}.axes{stroke:#000;stroke-width:.9}</style><defs id="defs171655"><path id="STIXWEBMAIN-2212" stroke-width="1" d="M621 220H64v66h557z"/><path id="STIXWEBMAIN-31" stroke-width="1" d="M394 0H118v15c74 4 95 25 95 80v449c0 34-9 49-30 49-10 0-27-5-45-12l-27-10v14l179 91 9-3V76c0-43 20-61 95-61z"/><path id="STIXWEBMAIN-32" stroke-width="1" d="M474 137 420 0H29v12l178 189c94 99 130 175 130 260 0 91-54 141-139 141-72 0-107-32-147-130l-21 5c21 117 85 199 208 199 113 0 185-77 185-176 0-79-39-154-128-248L130 76h234c42 0 63 11 96 67z"/><path id="STIXWEBMAIN-39" stroke-width="1" d="M59-22 56-2c152 27 264 132 304 296-43-42-91-57-150-57-108 0-180 81-180 203 0 135 89 236 208 236 64 0 118-28 157-76 40-50 64-122 64-206 0-115-40-224-120-297C254 20 189-4 59-22Zm303 377v39c0 168-45 254-132 254-30 0-56-12-73-34-20-27-35-86-35-140 0-119 48-194 123-194 44 0 117 22 117 75z"/><path id="STIXWEBMAIN-36" stroke-width="1" d="m446 684 2-16c-157-26-269-134-296-285 49 38 83 45 127 45 117 0 189-80 189-209 0-64-18-120-51-160-37-46-93-73-159-73-79 0-142 37-177 101-28 51-47 122-47 192 0 108 38 203 109 276 86 90 165 114 303 129zm-68-496c0 128-42 194-135 194-57 0-116-24-116-116 0-152 48-252 142-252 72 0 109 72 109 174z"/><path id="STIXWEBMAIN-33" stroke-width="1" d="m61 510-16 4c29 95 92 162 196 162 93 0 156-55 156-137 0-48-26-98-93-138 44-19 62-31 83-53 28-31 44-77 44-129 0-53-17-102-46-140-48-64-143-93-232-93C80-14 41 7 41 43c0 21 18 36 41 36 17 0 33-6 61-26 37-26 58-31 86-31 74 0 130 68 130 153 0 76-35 125-104 145-22 7-45 10-102 10v14c38 13 64 24 84 36 49 28 81 73 81 134 0 68-42 102-108 102-62 0-108-32-149-106z"/><path id="STIXWEBMAIN-30" stroke-width="1" d="M476 330c0-172-63-344-226-344C79-14 24 172 24 336c0 177 69 340 230 340 131 0 222-141 222-346Zm-96-5c0 208-44 325-132 325-83 0-128-118-128-321S164 12 250 12c85 0 130 115 130 313z"/><mask id="mask248553" maskUnits="userSpaceOnUse"><path id="path248555" d="M1154.6.75v37.294L1039.669 160.71l-962.042-5.527L0 47.075V5.02Z" style="fill:#fff;stroke:none;stroke-width:.9;stroke-miterlimit:2"/></mask></defs><g id="grid" style="display:inline"><path id="path171657" d="M39.04 160.48V111.2m0-13.982V22.479" class="grid"/><path id="path171659" d="M85.04 160.48v-138" class="grid"/><path id="path171661" d="M131.04 160.48v-138" class="grid"/><path id="path171663" d="M177.04 160.48v-49.277m0-13.985V22.479" class="grid"/><path id="path171665" d="M223.04 160.48v-138" class="grid"/><path id="path171667" d="M269.04 160.48v-138" class="grid"/><path id="path171669" d="M315.04 160.48v-48.407m0-14.855V22.479" class="grid"/><path id="path171671" d="M361.04 160.48v-138" class="grid"/><path id="path171673" d="M407.04 160.48v-138" class="grid"/><path id="path171675" d="M453.04 160.48v-49.277m0-13.985V22.479" class="grid"/><path id="path171677" d="M499.04 160.48v-138" class="grid"/><path id="path171679" d="M545.04 160.48v-138" class="grid"/><path id="path171681" d="M591.04 160.48v-138" class="grid"/><path id="path171683" d="M637.04 160.48v-138" class="grid"/><path id="path171685" d="M683.04 160.48v-138" class="grid"/><path id="path171687" d="M729.04 160.48v-49.285m0-13.977V22.479" class="grid"/><path id="path171689" d="M775.04 160.48v-138" class="grid"/><path id="path171691" d="M821.04 160.48v-138" class="grid"/><path id="path171693" d="M867.04 160.48v-48.416m0-14.846V22.479" class="grid"/><path id="path171695" d="M913.04 160.48v-138" class="grid"/><path id="path171697" d="M959.04 160.48v-138" class="grid"/><path id="path171699" d="M1005.04 160.48v-49.285m0-13.977V22.479" class="grid"/><path id="path171701" d="M1051.04 160.48v-138" class="grid"/><path id="path171703" d="M1097.04 160.48v-138" class="grid"/><path id="path171705" d="M1143.04 160.48V111.2m0-13.983V22.479" class="grid"/><path id="path171707" d="M13.74 137.48h551.306m21.075 0h582.219" class="grid"/><path id="path171709" d="M13.74 91.48h1154.6" class="grid"/><path id="path171711" d="M13.74 45.48h562.668m9.713 0h582.219" class="grid"/></g><g id="axes" style="display:inline"><path id="path171714" d="M13.74 91.48h1154.6" class="axes"/><path id="path171716" d="M591.04 160.48v-138" class="axes"/></g><g id="notch labels" style="display:inline;stroke:none;fill:#b8b8de"><g id="g171727" transform="matrix(.01656 0 0 -.01656 25.071 109.425)"><use xlink:href="#STIXWEBMAIN-2212" id="use171719" x="0" y="0"/><g id="g171725" transform="translate(685)"><use xlink:href="#STIXWEBMAIN-31" id="use171721"/><use xlink:href="#STIXWEBMAIN-32" id="use171723" x="500" y="0"/></g></g><g id="g171733" transform="matrix(.01657 0 0 -.01657 167.215 109.427)"><use xlink:href="#STIXWEBMAIN-2212" id="use171729" x="0" y="0"/><use xlink:href="#STIXWEBMAIN-39" id="use171731" x="685" y="0"/></g><g id="g171739" transform="matrix(.01657 0 0 -.01657 305.215 110.296)"><use xlink:href="#STIXWEBMAIN-2212" id="use171735" x="0" y="0"/><use xlink:href="#STIXWEBMAIN-36" id="use171737" x="685" y="0"/></g><g id="g171745" transform="matrix(.01657 0 0 -.01657 443.215 109.427)"><use xlink:href="#STIXWEBMAIN-2212" id="use171741" x="0" y="0"/><use xlink:href="#STIXWEBMAIN-33" id="use171743" x="685" y="0"/></g><g id="g171749" transform="matrix(.01656 0 0 -.01656 724.896 109.42)"><use xlink:href="#STIXWEBMAIN-33" id="use171747" x="0" y="0"/></g><g id="g171753" transform="matrix(.01656 0 0 -.01656 862.896 110.289)"><use xlink:href="#STIXWEBMAIN-36" id="use171751" x="0" y="0"/></g><g id="g171757" transform="matrix(.01656 0 0 -.01656 1000.896 109.42)"><use xlink:href="#STIXWEBMAIN-39" id="use171755" x="0" y="0"/></g><g id="g171763" transform="matrix(.01657 0 0 -.01657 1134.748 109.426)"><use xlink:href="#STIXWEBMAIN-31" id="use171759"/><use xlink:href="#STIXWEBMAIN-32" id="use171761" x="500" y="0"/></g><g id="g171767" transform="matrix(.01656 0 0 -.01656 576.3 109.42)"><use xlink:href="#STIXWEBMAIN-30" id="use171765" x="0" y="0"/></g><g id="g171773" transform="matrix(.01657 0 0 -.01657 565.759 143.076)"><use xlink:href="#STIXWEBMAIN-2212" id="use171769" x="0" y="0"/><use xlink:href="#STIXWEBMAIN-31" id="use171771" x="685" y="0"/></g><g id="g171777" transform="matrix(.01656 0 0 -.01656 577.12 51.076)"><use xlink:href="#STIXWEBMAIN-31" id="use171775" x="0" y="0"/></g></g><g id="layer12"><g id="g171782" clip-path="none" mask="url(#mask248553)" transform="translate(13.74 22.48)"><path id="path171780" d="M-.92 23c24.073-.087 48.147 21.723 72.22 45.796 24.227 24.227 48.453 46.32 72.68 46.203 24.073-.115 48.147-22.109 72.22-46.182S264.347 22.924 288.42 23c24.073.077 48.147 22.037 72.22 46.11s48.147 45.928 72.22 45.89c24.073-.038 48.147-21.963 72.22-46.037C529.153 44.89 553.227 23 577.3 23s48.147 21.89 72.22 45.963c24.073 24.074 48.147 45.999 72.22 46.037 24.073.038 48.147-21.817 72.22-45.89S842.107 23.077 866.18 23c24.073-.076 48.147 21.744 72.22 45.817s48.147 46.067 72.22 46.182c24.227.116 48.453-21.976 72.68-46.203 24.073-24.073 48.147-45.883 72.22-45.796" style="stroke:red;stroke-width:1.7;fill:none"/></g></g><g id="layer2" style="display:inline"><path id="path392" d="M415.418 142.337h62.364" style="display:inline;fill:#f7ffd5;fill-opacity:1;stroke:#ffed89;stroke-width:8;stroke-miterlimit:2;stroke-dasharray:none;stroke-opacity:1"/><path id="path948" d="M704.298 142.337h62.364" style="display:inline;fill:#f7ffd5;fill-opacity:1;stroke:#99ffb8;stroke-width:8;stroke-miterlimit:2;stroke-dasharray:none;stroke-opacity:1"/><path id="path950" d="M993.178 142.337h62.364" style="display:inline;fill:#f7ffd5;fill-opacity:1;stroke:#b3b6ff;stroke-width:8;stroke-miterlimit:2;stroke-dasharray:none;stroke-opacity:1"/><path id="path954" d="M126.538 142.337h62.364" style="display:inline;fill:#f7ffd5;fill-opacity:1;stroke:#ffc699;stroke-width:8;stroke-miterlimit:2;stroke-dasharray:none;stroke-opacity:1"/></g><g id="layer25" style="display:inline"><path id="path403130" d="M428.462 165.597c-.29-.037-4.339.048-4.629.011-1.284-.162-3.982-.08-5.202.116-.474.075-4.561-.05-4.9-.122-.287-.06-4.777.107-5.068.07-1.78-.225-3.826.148-5.628.108-.602-.014-4.459-.39-5.06-.374-.414.011-4.042.205-4.455.215-.292.008-3.79-.204-4.082-.223-1.69-.106-3.85.31-5.483.352-1.52.04-4.105-.123-5.622-.218-1.3-.082-4.816.213-6.112.101-1.245-.107-7.319.287-8.544.029-2.029-.427-3.704-.063-6.664.013-2.153.056-7.216.1-9.434-.04-1.078-.068-4.76.083-5.955.213-1.364.147-5.982-.04-7.573-.1-1.944-.071-6.575.11-8.52.062-4.106-.102-5.932-.096-11.002-.113-3.96-.013-6.047-.292-9.926.042-4.212.362-7.511-.157-11.14.041-1.992.11-7.262.064-9.259.037-.924-.013-6.281.09-7.202.177-4.036.383-4.577.149-9.136.115" style="display:inline;fill:none;stroke:#000;stroke-width:1.1;stroke-miterlimit:2;stroke-dasharray:none"/><path id="path403132" d="M714.512 167.976c-6.71.271-12.355-.098-17.328.128-6.448.295-11.924-.188-16.957.095-4.867.274-12.211.025-17.287-.035-4.734-.056-10.27.149-18.17-.145-10.805-.403-13.828.177-20.709.18-3.715.002-12.34.072-16.054-.023-2.595-.066-12.253-.149-14.849-.207-1.22-.027-13.413.3-15.78.287-2.001-.01-12.075-.071-14.824 0l-7.49.194c-2.174.056-7.633-.12-9.376-.033-2.01.1-5.485-.154-7.115-.14-.945.01-7.358.392-8.284.3-.368-.037-4.81-.304-5.177-.34-.77-.077-3.738.048-4.53.064-.638.013-5.575.258-6.212.271-1.713.035-5.546.261-7.242.092-.368-.037-5.504.048-5.872.011-1.628-.162-5.051-.197-6.6-.002-.6.076-5.785.199-6.215.127-.363-.06-6.06.107-6.428.07-2.257-.225-4.854-.203-7.14-.244-.763-.013-5.655.08-6.42.096-.523.01-5.126.204-5.65.215-.37.008-6.085-.322-6.455-.34-2.145-.107-4.885.075-6.956.117-1.927.04-5.207-.04-7.132-.135-1.648-.082-6.109.564-7.753.452-1.579-.107-5.963.053-7.516-.205-2.574-.427-4.7.054-8.453.13-2.732.056-5.919-.1-8.732-.24-1.367-.068-5.06-.082-6.575.047-1.73.148-8.567.043-10.585-.016-2.467-.072-8.342-.028-10.808-.076-5.208-.102-9.482.256-15.913.239-5.025-.014-10.982-.226-15.913-.076-4.193.128-9.529-.39-14.131-.193-2.528.11-9.212.299-11.745.271-1.172-.012-7.966.207-9.136.177-3.34-.085-5.912-.082-9.601-.022-1.775.03-5.739.103-7.792.085-1.646-.014-5.746-.12-7.059-.033-1.512.101-4.129.26-5.357.275-.71.01-5.54-.023-6.236-.115-.277-.036-3.62-.055-3.898-.091-.58-.077-2.814.048-3.41.064-.48.013-4.197.155-4.677.168" style="display:inline;fill:none;stroke:#000;stroke-width:1.1;stroke-miterlimit:2;stroke-dasharray:none"/><path id="path403134" d="M157.736 19.472c.341 3.703.148 9.08.083 13.323-.058 3.799.137 9.358.043 13.27-.097 4.076.302 13.535.143 17.147-.208 4.693-.265 12.575-.32 17.92-.058 5.818.685 10.875.266 18.02-.068 1.148-.021 16.383-.086 17.53-.115 2.063.703 15.257-.089 17.197" style="display:inline;fill:none;stroke:#000;stroke-width:1.1;stroke-miterlimit:2;stroke-dasharray:none"/><path id="path403136" d="M160.154 65.935c5.971 6.11 13.924 13.786 21.505 21.453 7.715 7.803 15.682 15.59 20.84 21.02 7.629 8.03 13.65 13.585 23.73 24.058 7.335 7.621 17.6 17.22 24.811 24.945 2.049 2.194 10.673 11.45 14.813 15.11" style="display:inline;fill:none;stroke:#000;stroke-width:1.1;stroke-miterlimit:2;stroke-dasharray:none"/><path id="path403138" d="M163.789 66.763c-.01-2.857-.16-9.49.01-12.347.118-1.997.136-9.425.239-11.422.048-.939-.467-10.315-.449-12.136.015-1.539.529-9.297-.029-11.4" style="display:inline;fill:none;stroke:#000;stroke-width:1.1;stroke-miterlimit:2;stroke-dasharray:none"/><path id="path403140" d="M160.886 68.4c-.34-1.593-.007-3.278.052-5.103.059-1.76-.21-5.968-.115-7.64.099-1.763-.302-6.449-.143-8.002.207-2.019-.007-5.5.105-7.394.117-1.988-.519-4.024-.1-7.096.068-.494.022-6.08.086-6.574.115-.887-.702-6.561.089-7.395" style="display:inline;fill:none;stroke:#000;stroke-width:1.1;stroke-miterlimit:2;stroke-dasharray:none"/><path id="path403142" d="M166.87 19.207c.002 2.83.134 9.402-.042 12.231-.124 1.978-.12 9.333-.152 11.313-.05 3.129.323 10.22.3 12.024-.018 1.524-.552 9.208 0 11.294" style="display:inline;fill:none;stroke:#000;stroke-width:1.1;stroke-miterlimit:2;stroke-dasharray:none"/><path id="path403144" d="M153.259 124.642c.545 1.614 1.409 3.308 1.94 4.855.33.961 1.145 2.92 1.598 3.83.044-.042.292.951.423 1.31.138.636.487 1.268.617 1.806.273.003-.07.218.138-.16.917-1.66 1.627-3.158 2.58-4.826 1.104-1.934 2.172-3.723 3.124-5.517" style="display:inline;fill:none;stroke:#000;stroke-width:1.1;stroke-miterlimit:2;stroke-dasharray:none"/><path id="path403146" d="M446.034 147.43c-4.747 5.584-10.405 10.29-15.545 15.5-.626.633-1.164 1.35-1.81 1.962-.325.306-.654.517-.944.83" style="display:inline;fill:none;stroke:#000;stroke-width:1.1;stroke-miterlimit:2;stroke-dasharray:none"/><path id="path403148" d="M444.245 153.92c.33-2.087 1.136-4.06 1.988-5.98.085-.224.366-.827.307-.823.09-.232-.4.295-.609.3-1.183.52-2.451.803-3.677 1.203-.945.308-1.449.407-2.053.489-.218.03-.727.185-1.19.283" style="display:inline;fill:none;stroke:#000;stroke-width:1.1;stroke-miterlimit:2;stroke-dasharray:none"/><path id="path403152" d="M265.352 172.452c2.58.046 12.418-.399 18.445-.2 3.293.107 12.097-.209 17.518-.23 6.506-.028 15.9.223 17.446.182 10.577-.274 18.745-.208 22.025-.196 5.73.02 13.761-.224 18.465-.102 3.758.097 10.289-.051 15.253-.034 7.853.027 14.96-.762 25.1.011 2.689.205 12.66.397 21.916.18 10.154-.239 13.916-.597 26.734-.386 11.648.192 15.816.935 26.176.14 4.857-.373 17.718.444 22.588.264 1.282-.047 14.855-.339 24.076-.416 6.216-.052 12.907.034 19.16.224 5.989.182 10.677.49 15.101.058 5.737-.56 10.582-.17 15.089-.21 5.688-.05 12.451.28 16.968.383 4.212.095 9.222-.412 14.583-.116 1.48.082 12.833-.12 15.263-.203 4.13-.141 7.902-.404 13.463-.194 5.232.199 10.461-.176 15.689-.116 5.136.059 10.976.399 16.108.368 4.037-.025 10.31-.098 15.22-.01 2.581.045 7.887.015 13.913.213 3.293.108 13.687-.208 19.108-.23 6.506-.027 12.72.223 14.266.183 10.578-.274 18.47-.208 21.75-.197 5.73.02 13.76-.223 18.464-.102 3.758.098 14.784-.05 19.748-.033 7.852.027 13.529-.265 20.33.01 2.693.11 11.07.398 20.325.18 10.154-.238 9.422-.597 22.24-.385 11.648.191 11.321.438 21.681-.357 4.857-.373 13.224.444 18.094.264 1.282-.048 10.361.25 19.581.08 4.042-.074 11.081.074 14.175.141 7.225.156 13.3.144 18.653-.07 6.94-.28 12.836.233 18.253-.04 5.238-.262 11.685.369 17.148.447 2.482.036 11.238-.255 13.449-.158 3.163.138 7.647.026 11.449-.04" style="display:inline;fill:none;stroke:#000;stroke-width:1.1;stroke-miterlimit:2;stroke-dasharray:none"/><path id="path403154" d="M267.003 169.396c-3.539-3.065-6.402-6.325-9.351-9.103-2.871-2.705-6.455-6.531-9.369-9.418-3.458-3.426-8.834-9.51-13.441-13.875-4.354-4.124-8.069-8.46-10.565-10.98-5.53-5.58-9.21-8.454-14.484-14.092-4.92-5.259-11.063-11.21-17.124-18.11-1.673-1.903-9.763-9.71-12.759-12.582-5.09-4.88-9.896-9.181-16.294-16.224" style="display:inline;fill:none;stroke:#000;stroke-width:1.1;stroke-miterlimit:2;stroke-dasharray:none"/><path id="path403156" d="M725.53 151.537c1.397-.497 2.11-.887 2.63-1.15 1.34-.68 2.725-1.272 4.018-2.048.909-.546 1.845-1.045 2.728-1.63.19-.164.744-.397.471.064-.79 1.39-1.66 2.734-2.434 4.136-.366.664-.804 1.286-1.156 1.96-.176.338-.63.902-.716 1.28-.1.44-.312.681-.435 1.317" style="display:inline;fill:none;stroke:#000;stroke-width:1.1;stroke-miterlimit:2;stroke-dasharray:none"/><path id="path403158" d="M714.283 168.11c2.606-2.392 4.301-4.088 5.844-6.066 1.69-2.17 4.585-4.467 6.34-6.483 1.64-1.886 3.301-4.342 6.963-6.499" style="display:inline;fill:none;stroke:#000;stroke-width:1.1;stroke-miterlimit:2;stroke-dasharray:none"/><path id="path403160" d="M166.865 64.29c10.2 9.538 17.982 18.364 25.576 25.398 9.846 9.12 17.23 17.849 24.987 24.895 7.5 6.813 15.48 16.45 22.84 24.02 3.344 3.438 9.547 8.88 12.44 12.029 4.14 4.503 10.413 10.485 15.693 15.594" style="display:inline;fill:none;stroke:#000;stroke-width:1.1;stroke-miterlimit:2;stroke-dasharray:none"/><path id="path403162" d="M999.91 171.934c4.486-4.297 6.258-6.9 11.398-12.008 2.251-2.236 7.907-8.493 10.125-10.764" style="display:inline;fill:none;stroke:#000;stroke-width:1.10001;stroke-miterlimit:2;stroke-dasharray:none"/><path id="path403164" d="M1014.834 150.51c1.094-.888 2.733-1.455 3.812-1.912 1.178-.499 2.347-1.016 3.659-1.308.395-.272.837-.482 1.361-.558.21-.044.628-.372.379.078-.88.98-1.538 2.154-2.07 3.406-.689 1.622-1.19 2.935-1.528 4.326-.159.653-.631 1.826-.636 2.661" style="display:inline;fill:none;stroke:#000;stroke-width:1.1;stroke-miterlimit:2;stroke-dasharray:none"/></g><g id="layer1" style="display:inline"><path id="path4442" d="M559.858 40.65h62.364" style="display:inline;fill:#ffd5d5;stroke:#ffb3b3;stroke-width:8;stroke-miterlimit:2;stroke-dasharray:none;stroke-opacity:1"/><path id="path4444" d="M848.738 40.65h62.364" style="display:inline;fill:#ffd5d5;stroke:#ffe3b3;stroke-width:8;stroke-miterlimit:2;stroke-dasharray:none;stroke-opacity:1"/><path id="path4791" d="M1138.08 40.65h31.183" style="display:inline;fill:#ffd5d5;stroke:#beff99;stroke-width:8.00001;stroke-miterlimit:2;stroke-dasharray:none;stroke-opacity:1"/><path id="path5018" d="M270.978 40.65h62.364" style="display:inline;fill:#ffd5d5;stroke:#b3c5ff;stroke-width:8;stroke-miterlimit:2;stroke-dasharray:none;stroke-opacity:1"/><path id="path5227" d="M12.817 40.65h31.182" style="display:inline;fill:#ffd5d5;stroke:#e3b3ff;stroke-width:8;stroke-miterlimit:2;stroke-dasharray:none;stroke-opacity:1"/></g><g id="layer15" style="display:inline"><path id="path39233" d="M35.95 29.64c-.4.26-.83.45-1.26.66-.99.48-1.97.97-2.93 1.51-1.5.85-2.97 1.75-4.42 2.67-.04.02-.08.03-.12.06-.01 0 0 .03-.01.03-.07.03.08-.45.07-.47.29-1.37.64-2.72 1.04-4.06.48-1.69.92-3.39 1.15-5.13" style="display:inline;fill:none;stroke:#000;stroke-width:1.1;stroke-miterlimit:2;stroke-dasharray:none"/><path id="path39237" d="M52.338 6.906c-.868.95-1.783 1.87-2.71 2.777-1.993 2.008-4.034 3.985-5.958 6.046-2.322 2.457-4.691 4.893-6.85 7.467-1.887 2.297-3.752 4.593-5.746 6.805-1.114 1.239-2.217 2.478-3.425 3.632" style="display:inline;fill:none;stroke:#000;stroke-width:1.1;stroke-miterlimit:2;stroke-dasharray:none"/><path id="path39243" d="M565.594 7.866c-2.585.12-5.17-.419-7.756-.329-2.722.13-7.496.105-10.203.265-3.026.11-6.037.14-9.048.22-3.422.09-6.844-.398-10.265-.348-3.574.07-7.148.21-10.722.29-3.634.07-7.253-.023-10.888-.063-3.74 0-7.482.488-11.208.448-3.665-.05-7.33-.13-10.995-.19h-11.025c-3.574 0-7.147 0-10.721-.03-4-.03-7.999.073-11.999-.017-4.136-.07-8.272-.05-12.409-.15-2.92-.06-5.84-.628-8.744-.508-1.368.06-2.722.15-4.06.34l-5.109-.673c-1.928.068-3.842.037-5.77.076-1.941.049-3.87.158-5.8.267-1.956.098-3.926-.262-5.881-.223-2.17.026-4.325.082-6.48.119a493.414 493.414 0 0 1-6.664-.113c-2.247-.075-4.493.309-6.754.224-2.342-.016-4.697-.021-7.04.043-2.371.074-4.743-.28-7.113-.207-2.478.093-4.968.136-7.447.259-2.865.058-5.717.087-8.594.076-3.266.024-6.534.098-9.798.052-3.172-.035-6.343-.07-9.515-.084-3.225-.015-6.464-.011-9.705.053-3.132.046-6.264.032-9.384.088-3.066.076-6.133.142-9.185.199a303.21 303.21 0 0 1-10.014.12 462.006 462.006 0 0 1-9.844-.338c-3.745-.14-7.504-.222-11.254-.123-3.87.127-7.742-.01-11.626.107-3.483.132-6.952.293-10.445.265-3.452-.048-6.918.067-10.369-.03-4.254-.127-8.494-.101-12.75-.078-4.805-.002-9.624.025-14.443.032-3.439-.038-6.891-.076-10.33-.123" style="display:inline;fill:none;stroke:#000;stroke-width:1.1;stroke-miterlimit:2;stroke-dasharray:none"/><path id="path39249" d="M587.864 34.164c-1.89-2.274-3.764-4.548-5.718-6.783-3.51-4.125-7.13-8.197-11.006-12.098-2.334-2.498-4.78-4.997-6.638-7.774" style="display:inline;fill:none;stroke:#000;stroke-width:1.1;stroke-miterlimit:2;stroke-dasharray:none"/><path id="path39251" d="M587.254 28.206c.17.71.08.33.29 1.14.49 1.72 1.06 3.41 1.61 5.12.03.11.33 1.05.13 1.19-.1.08-.2.01-.3-.03-1.25-.52-2.38-1.31-3.54-1.99-1.37-.87-2.76-1.7-4.16-2.52" style="display:inline;fill:none;stroke:#000;stroke-width:1.1;stroke-miterlimit:2;stroke-dasharray:none"/><path id="path39219-2-5" d="M125.985 10.035c.726.657 1.533 1.15 2.47 1.443 1.17.305 3.065.751 4.153-.011.14-.094.223-.247.328-.376.082-1.63-.878-2.733-1.86-3.93-.948-1.091-.504-.61-1.51-1.666-.398-.422-1.264-1.196-1.393-1.83-.023-.129.059-.246.094-.375.129-.082.258-.2.41-.258.713-.329 1.603-.364 2.164.246" style="display:inline;fill:none;stroke:#000;stroke-width:1.1;stroke-miterlimit:2;stroke-dasharray:none"/><path id="path39221-5-1" d="m136.119 11.83-.14-1.572c-.211-2.768-.399-5.537-.293-8.317.035-2.57.14-5.162-.035-7.732" style="display:inline;fill:none;stroke:#000;stroke-width:1.1;stroke-miterlimit:2;stroke-dasharray:none"/><path id="path39223-8-3" d="M144.742 4.812c1.229.058 2.153.61 2.89 1.595.703 1.373.597 2.135-.292 3.402-.176.188-.328.376-.515.54-1.076.95-2.48 1.396-3.896 1.431-.27-.023-.539-.011-.808-.07-1.416-.27-2.188-1.244-2.398-2.64 0-.27-.036-.54-.012-.797.129-1.455 1.006-2.652 2.141-3.508.983-.54 1.849-.903 2.96-.47" style="display:inline;fill:none;stroke:#000;stroke-width:1.1;stroke-miterlimit:2;stroke-dasharray:none"/><path id="path39225-6-5" d="M151.104 11.384c.163.13.304.294.491.4.924.48 2 .34 2.996.257 1.287-.223 2.667-.422 3.814-1.138.995-.633 1.486-1.63 1.755-2.733.059-.974.187-1.42-.199-2.358-.433-1.056-1.474-2.088-2.445-2.651-.304-.176-.655-.258-.983-.4-.328.012-.655-.058-.96.012-.76.176-1.357.716-1.837 1.303-1.217 1.501-1.802 3.402-2.387 5.208-.199.833-.433 1.655-.585 2.5-.585 3.26-.597 6.64.503 9.795.34.059.305.14.351-.364.14-1.888-.327-3.789-.327-5.666a299.766 299.766 0 0 1-.468-10.242" style="display:inline;fill:none;stroke:#000;stroke-width:1.1;stroke-miterlimit:2;stroke-dasharray:none"/><path id="path39229-1-4" d="M169.693 9.902a1.814 1.814 0 0 1-.68.47c-1.333.445-2.714.468-4-.13-1.534-.927-2.376-1.76-2.002-3.66.094-.235.164-.47.281-.692.597-1.091 1.697-1.807 2.878-2.1 1.217-.141 2.025.011 2.809 1.009.058.117.14.246.175.375.281 1.068-1.088 1.502-1.837 1.736-1.603.305-3.136.41-4.669-.246" style="display:inline;fill:none;stroke:#000;stroke-width:1.1;stroke-miterlimit:2;stroke-dasharray:none"/><path id="path39231-5" d="M186.411-3.737c.281-.011.574-.035.854-.023 1.604.07 3.054.762 4.225 1.842.222.246.468.493.678.762 1.124 1.443 1.65 3.25 1.931 5.033.023.352.058.692.047 1.044-.047 1.854-.925 3.414-2.294 4.61-.316.224-.62.47-.947.67-1.65 1.02-3.546 1.536-5.477 1.313-.35-.093-.713-.14-1.053-.281-1.474-.563-2.691-1.772-3.288-3.226-.164-.376-.245-.798-.362-1.197-.036-.422-.117-.845-.13-1.279-.046-2.428.96-4.763 2.224-6.78.257-.306.515-.634.796-.927 1.03-1.103 2.293-1.948 3.744-2.382" style="display:inline;fill:none;stroke:#000;stroke-width:1.1;stroke-miterlimit:2;stroke-dasharray:none"/><path id="path39255" d="M122.101 6.42c-.353.195-.706.414-1.075.503-.733.12-1.469.052-2.206.055l-3.378-.042-3.863-.048c-1.14-.014-2.285-.028-3.43-.054-.938-.046-1.882-.093-2.819-.222-.845-.093-1.697-.103-2.543-.102-.893.001-1.785.013-2.678.073-.95.07-1.907.175-2.862.129l-2.832-.035c-.92-.023-1.842.144-2.762.04-.989-.119-1.972-.283-2.961-.342-.96-.094-1.921.29-2.889.324-.898.013-1.802-.452-2.7-.334-.83.118-1.667.046-2.502.153-.755.108-1.51.157-2.259.23-.87-.01-1.744-.022-2.613-.009-1.014.011-2.027.046-3.035.139-1.066.069-2.125.055-3.19.03-.984-.012-1.974-.024-2.959-.024-1.018-.001-2.038.01-3.052.103-.766.06-1.532.133-2.291.089-.628-.008-1.255-.016-1.877.024-.887.059-1.77.154-2.656.19l-3.09-.039-1.906-.023" style="display:inline;fill:none;stroke:#000;stroke-width:1.1;stroke-miterlimit:2;stroke-dasharray:none"/><path id="path39257" d="M304.301 35.472c-.6-.608-.277-.293-.933-.946-1.21-1.25-2.344-2.577-3.522-3.86-1.344-1.43-2.744-2.814-4.099-4.232-1.277-1.407-2.5-2.86-3.777-4.277-1.255-1.43-2.444-2.927-3.722-4.356a74.175 74.175 0 0 0-4.121-4.469c-.933-.911-1.867-1.834-2.966-2.543" style="display:inline;fill:none;stroke:#000;stroke-width:1.1;stroke-miterlimit:2;stroke-dasharray:none"/><path id="path39259" d="M289.726 29.191c1.522.62 3.055 1.25 4.566 1.914 2.722 1.181 5.488 2.296 8.154 3.624.433.247 1.255.934.978-.169-.6-1.722-1.589-3.253-2.444-4.851-.678-1.306-1.322-2.634-1.756-4.04" style="display:inline;fill:none;stroke:#000;stroke-width:1.1;stroke-miterlimit:2;stroke-dasharray:none"/><path id="path39267" d="M282.477 10.824c-1.155-.014-2.32-.029-3.475-.033-1.796.001-3.584.027-5.372.07-1.903.024-3.807.08-5.7.12a378.96 378.96 0 0 1-5.393.084c-1.712.027-3.421.03-5.132.042-1.997.007-3.99-.036-5.988-.023a374.837 374.837 0 0 1-7.59-.07c-2.892-.039-5.784-.077-8.68-.064-2.58.019-5.154.093-7.73.055-2.11-.014-4.219-.065-6.321-.054-2.285.034-4.57.067-6.861.05a786.64 786.64 0 0 0-6.971-.04c-1.146-.014-2.291-.033-3.412-.134" style="display:inline;fill:none;stroke:#000;stroke-width:1.1;stroke-miterlimit:2;stroke-dasharray:none"/><path id="path39285" d="M876.258 33.162c-1.598-1.358-3.27-2.633-4.88-3.99-2.036-1.748-4.008-3.565-6.16-5.17-2.231-1.67-4.484-3.317-6.58-5.174-2.186-1.888-4.404-3.751-6.56-5.697-2.28-2.03-4.583-4.038-6.8-6.151-1.28-1.157-2.55-2.325-3.84-3.47" style="display:inline;fill:none;stroke:#000;stroke-width:1.1;stroke-miterlimit:2;stroke-dasharray:none"/><path id="path39287" d="M869.469 32.347c1.54.67 3.13 1.24 4.72 1.77 1.69.59 3.37 1.2 4.99 1.94.56.27-.06-.4-.1-.48-.99-1.46-1.99-2.92-2.91-4.43-.92-1.62-1.84-3.25-2.43-5.02" style="display:inline;fill:none;stroke:#000;stroke-width:1.1;stroke-miterlimit:2;stroke-dasharray:none"/><path id="path57595" d="M843.007 4.176c-1.368.06-9.88-.257-11.218-.067l-6.715-.673c-1.928.07-5.45.038-7.377.077-1.941.049-5.157.158-7.086.266-1.955.099-4.89-.261-6.844-.222-2.168.026-4.323.082-6.478.119-2.22-.025-6.05-.06-8.27-.114-2.246-.074-5.136.31-7.395.225-2.341-.016-4.696-.022-7.039.043-2.37.074-4.74-.28-7.11-.207-2.477.093-4.967.136-7.444.259-2.865.058-5.715.087-8.592.075-3.265.025-6.531.099-9.795.053-3.17-.035-6.34-.07-9.511-.084-3.225-.016-6.463-.011-9.702.053-3.132.046-6.262.032-9.38.087-3.066.077-6.132.143-9.183.2-3.334.093-6.666.137-10.01.12a461.706 461.706 0 0 1-9.842-.338c-3.743-.141-7.502-.222-11.25-.123-3.87.127-7.74-.011-11.622.106-3.482.132-6.95.294-10.442.266-3.45-.048-6.915.067-10.365-.03-4.253-.128-8.491-.101-12.747-.078-4.803-.003-9.62.025-14.437.032l-10.037-.11a35.407 35.407 0 0 0-1.002-.082 128.222 128.222 0 0 0-7.592-.323c-2.46-.052-4.92-.095-7.37-.087-2.531.026-5.043.122-7.564.178-2.225.043-4.438.035-6.653.068-2.333.03-4.673-.03-7.005-.06-2.43-.012-4.872-.014-7.304.064-2.304.051-4.606.042-6.92.063-2.39-.042-4.79-.093-7.191-.114-2.47-.013-4.941-.006-7.414.101-1.513.058-3.036.106-4.547.063l-4.707.045c-2.046-.02-4.08.06-6.126.15-2.895.15-5.8.076-8.704.076-3.597.04-7.183.13-10.77.19-4.06 0-8.111-.01-12.172 0-3.715 0-7.44 0-11.165.04-3.22.04-6.451-.124-9.672-.064-3.231-.02-6.452.204-9.673.124-3.201-.07-6.402-.14-9.603-.11-4.308-.01-8.616-.04-12.933-.13-4.032-.09-8.727.1-12.114.109-1.634.004-3.25-.169-4.87-.309l-4.925-.084c-.849.013-4.968.127-5.858.14-1.483.05-4.106.12-5.585.04-1.803-.065-4.06.204-5.86.059-2.339-.177-4.68-.033-7.02-.14a117.76 117.76 0 0 0-7.277.025c-2.038.07-4.073.11-6.109.129-1.75-.035-3.487-.3-5.238-.304-1.725-.005-5.712.011-7.439.087-1.685.036-5.657.003-7.344.09-1.552.068-5.377.077-6.914.117-1.7.026-3.394.078-5.088-.036-1.869-.117-3.738-.215-5.61-.222-2.047-.04-4.08-.081-6.114-.101-2.222-.025-4.446-.019-6.672.077-2.105.088-4.21.156-6.31.134a183.94 183.94 0 0 0-5.77.056c-1.873.023-3.756-.065-5.642-.082-2.491-.04-4.983-.185-7.49-.175-2.439.032-4.882.279-7.336.32-2.25.015-4.511-.08-6.76-.115-2.437-.048-4.887.181-7.325.143-2.72-.045-5.454-.136-8.176-.13-3.072.008-6.131.325-9.202.284-2.856.003-5.728.056-8.588.15-2.979.03-5.957-.18-8.923-.128-3.399.092-6.8-.168-10.197-.086-4.463.081-8.924.123-13.388.224-3.545.05-7.102.049-10.658.018-2.196-.024-4.39-.077-6.563.04" style="display:inline;fill:none;stroke:#000;stroke-width:1.1;stroke-miterlimit:2;stroke-dasharray:none"/><path id="path58553" d="M1135.223 1.179c-2.231-.117-4.484-.064-6.737-.04-3.65.03-7.302.032-10.94-.018-4.582-.101-9.162-.143-13.743-.224-3.488-.082-6.978.178-10.467.086-3.044-.051-6.102.158-9.16.128a288.248 288.248 0 0 0-8.815-.15c-3.152.041-6.292-.276-9.446-.285-2.794-.005-5.6.087-8.392.13-2.502.04-5.017-.19-7.519-.142-2.308.035-4.628.13-6.939.115-2.518-.041-5.026-.288-7.53-.32-2.574-.01-5.131.135-7.688.175-1.936.017-3.87.105-5.792.082a193.806 193.806 0 0 0-5.922-.055c-2.156.021-4.316-.047-6.477-.135-2.286-.096-4.568-.102-6.85-.077-2.087.02-4.174.06-6.275.101-1.922.007-3.84.105-5.759.222-1.738.114-3.478.062-5.222.036-1.578-.04-5.504-.049-7.097-.118-1.732-.086-5.809-.053-7.539-.09-1.773-.075-5.865-.09-7.636-.086-1.797.004-3.58.27-5.377.304-2.089-.02-4.179-.059-6.27-.129a124.075 124.075 0 0 0-7.47-.025c-2.402.107-4.805-.037-7.205.14-1.848.145-4.165-.124-6.016-.058-1.519.08-4.21.009-5.733-.042-.914-.012-5.142-.126-6.013-.139l-5.055.084c-1.663.14-3.322.313-5 .309-3.476-.01-8.296-.199-12.434-.109-4.431.09-8.853.12-13.275.13-3.286-.03-6.572.04-9.858.11-3.306.08-6.612-.144-9.929-.124-3.306-.06-6.622.104-9.928.064-3.824-.04-7.647-.04-11.46-.04-4.169-.01-8.327 0-12.495 0-3.681-.06-7.363-.15-11.054-.19-2.982 0-5.964.074-8.935-.076-2.1-.09-4.189-.17-6.288-.15L798.65.528c-1.551.043-3.114-.005-4.668-.063-2.538-.107-5.074-.114-7.61-.101-2.464.021-4.928.072-7.382.114-2.374-.021-4.738-.012-7.102-.063-2.497-.078-5.003-.075-7.498-.064-2.393.03-4.796.09-7.19.06-2.274-.033-4.546-.025-6.83-.068-2.587-.056-5.166-.152-7.763-.178a317.7 317.7 0 0 0-7.566.087c-2.606.025-5.2.149-7.793.323-.436.029-.881.068-1.029.083-3.23.033-6.773.071-10.302.109-4.944-.007-9.89-.035-14.82-.032-4.368-.023-8.719-.05-13.084.077-3.541.098-7.097-.017-10.64.031-3.584.028-7.144-.134-10.718-.265-3.985-.118-7.958.02-11.93-.107-3.847-.1-7.705-.018-11.548.123-3.362.146-6.738.262-10.101.338-3.433.017-6.854-.027-10.276-.12-3.132-.057-6.279-.123-9.425-.2-3.202-.055-6.415-.041-9.63-.087a414.493 414.493 0 0 0-9.958-.053c-3.255.014-6.51.05-9.763.084-3.35.046-6.703-.028-10.055-.053-2.953.012-5.878-.017-8.819-.075-2.543-.123-5.098-.166-7.641-.259-2.433-.074-4.866.28-7.299.207-2.404-.065-4.822-.059-7.225-.043-2.32.085-5.285-.3-7.59-.224-2.28.054-6.21.088-8.49.113-2.211-.037-4.424-.093-6.649-.12-2.006-.038-5.018.322-7.025.224-1.98-.11-5.281-.218-7.274-.267-1.978-.039-5.593-.008-7.572-.077l-6.893.673c-1.374-.19-10.11.127-11.515.067l-5.258.069c-2.652.12-5.305-.42-7.958-.33-2.793.13-7.693.105-10.47.265-3.106.11-6.195.14-9.285.22-3.511.09-7.022-.398-10.533-.348-3.668.07-7.335.21-11.002.29-3.73.07-7.443-.023-11.173-.063-3.839 0-7.677.489-11.5.449-3.761-.05-7.522-.13-11.283-.19h-11.313c-3.668 0-7.335 0-11.002-.03-4.104-.03-8.208.072-12.312-.018-4.245-.07-8.49-.05-12.734-.15l-8.617-.095c-2.653.12-5.305-.42-7.958-.33-2.793.13-7.693.105-10.47.265-3.106.11-6.196.14-9.285.22-3.511.09-7.022-.398-10.534-.348-3.667.07-7.334.21-11 .29-3.73.07-7.444-.023-11.174-.063-3.839 0-7.678.489-11.5.449-3.761-.05-7.522-.13-11.283-.19H241.02c-3.667 0-7.334 0-11-.03-4.105-.03-8.21.072-12.313-.018-4.245-.07-8.49-.05-12.734-.15" style="display:inline;fill:none;stroke:#000;stroke-width:1.1;stroke-miterlimit:2;stroke-dasharray:none"/><path id="path39271" d="M1167.144 36.188c-1.513-1.666-3.162-3.217-4.69-4.869-2.398-2.513-4.81-5.012-7.043-7.67-2.847-3.317-5.71-6.62-8.587-9.91-2.367-2.656-4.675-5.342-7.087-7.956-1.574-1.695-3.117-3.447-4.886-4.984" style="display:inline;fill:none;stroke:#000;stroke-width:1.1;stroke-miterlimit:2;stroke-dasharray:none"/><path id="path39273" d="M1156.706 31.988c2.25.86 4.49 1.75 6.74 2.59 1.49.58 3.04 1.08 4.42 1.91.71.46-.2-.71-.2-.76-1.16-1.79-2.43-3.51-3.67-5.25-.9-1.36-1.71-2.76-2.52-4.16" style="display:inline;fill:none;stroke:#000;stroke-width:1.1;stroke-miterlimit:2;stroke-dasharray:none"/></g><g id="g311745"><path id="rect308185" d="M1212.894 193.129h20.754v43.91h-20.754z" style="display:inline;fill:#f0f;stroke-width:1.1;stroke-miterlimit:2"/><path id="rect308492" d="M1208.547 235.179h25.101v1.86h-25.101z" style="display:inline;fill:#f0f;stroke-width:1.1;stroke-miterlimit:2"/></g></svg>