<svg xmlns="http://www.w3.org/2000/svg" xmlns:xlink="http://www.w3.org/1999/xlink" id="svg171797" width="1200" height="200" preserveAspectRatio="none" version="1.1" viewBox="-10 0 1200 200"><style id="style171643" type="text/css">.grid{stroke:#9e9ed1;stroke-width:.4}.axes{stroke:#000;stroke-width:.9}</style><defs id="defs171655"><path id="STIXWEBMAIN-2212" stroke-width="1" d="M621 220H64v66h557z"/><path id="STIXWEBMAIN-31" stroke-width="1" d="M394 0H118v15c74 4 95 25 95 80v449c0 34-9 49-30 49-10 0-27-5-45-12l-27-10v14l179 91 9-3V76c0-43 20-61 95-61z"/><path id="STIXWEBMAIN-32" stroke-width="1" d="M474 137 420 0H29v12l178 189c94 99 130 175 130 260 0 91-54 141-139 141-72 0-107-32-147-130l-21 5c21 117 85 199 208 199 113 0 185-77 185-176 0-79-39-154-128-248L130 76h234c42 0 63 11 96 67z"/><path id="STIXWEBMAIN-39" stroke-width="1" d="M59-22 56-2c152 27 264 132 304 296-43-42-91-57-150-57-108 0-180 81-180 203 0 135 89 236 208 236 64 0 118-28 157-76 40-50 64-122 64-206 0-115-40-224-120-297C254 20 189-4 59-22Zm303 377v39c0 168-45 254-132 254-30 0-56-12-73-34-20-27-35-86-35-140 0-119 48-194 123-194 44 0 117 22 117 75z"/><path id="STIXWEBMAIN-36" stroke-width="1" d="m446 684 2-16c-157-26-269-134-296-285 49 38 83 45 127 45 117 0 189-80 189-209 0-64-18-120-51-160-37-46-93-73-159-73-79 0-142 37-177 101-28 51-47 122-47 192 0 108 38 203 109 276 86 90 165 114 303 129zm-68-496c0 128-42 194-135 194-57 0-116-24-116-116 0-152 48-252 142-252 72 0 109 72 109 174z"/><path id="STIXWEBMAIN-33" stroke-width="1" d="m61 510-16 4c29 95 92 162 196 162 93 0 156-55 156-137 0-48-26-98-93-138 44-19 62-31 83-53 28-31 44-77 44-129 0-53-17-102-46-140-48-64-143-93-232-93C80-14 41 7 41 43c0 21 18 36 41 36 17 0 33-6 61-26 37-26 58-31 86-31 74 0 130 68 130 153 0 76-35 125-104 145-22 7-45 10-102 10v14c38 13 64 24 84 36 49 28 81 73 81 134 0 68-42 102-108 102-62 0-108-32-149-106z"/><path id="STIXWEBMAIN-30" stroke-width="1" d="M476 330c0-172-63-344-226-344C79-14 24 172 24 336c0 177 69 340 230 340 131 0 222-141 222-346Zm-96-5c0 208-44 325-132 325-83 0-128-118-128-321S164 12 250 12c85 0 130 115 130 313z"/><mask id="mask248553" maskUnits="userSpaceOnUse"><path id="path248555" d="M1154.6.75v37.294L1039.669 160.71l-962.042-5.527L0 47.075V5.02Z" style="fill:#fff;stroke:none;stroke-width:.9;stroke-miterlimit:2"/></mask></defs><g id="grid" style="display:inline"><path id="path171657" d="M39.04 160.48V111.2m0-13.982V22.479" class="grid"/><path id="path171659" d="M85.04 160.48v-138" class="grid"/><path id="path171661" d="M131.04 160.48v-138" class="grid"/><path id="path171663" d="M177.04 160.48v-49.277m0-13.985V22.479" class="grid"/><path id="path171665" d="M223.04 160.48v-138" class="grid"/><path id="path171667" d="M269.04 160.48v-138" class="grid"/><path id="path171669" d="M315.04 160.48v-48.407m0-14.855V22.479" class="grid"/><path id="path171671" d="M361.04 160.48v-138" class="grid"/><path id="path171673" d="M407.04 160.48v-138" class="grid"/><path id="path171675" d="M453.04 160.48v-49.277m0-13.985V22.479" class="grid"/><path id="path171677" d="M499.04 160.48v-138" class="grid"/><path id="path171679" d="M545.04 160.48v-138" class="grid"/><path id="path171681" d="M591.04 160.48v-138" class="grid"/><path id="path171683" d="M637.04 160.48v-138" class="grid"/><path id="path171685" d="M683.04 160.48v-138" class="grid"/><path id="path171687" d="M729.04 160.48v-49.285m0-13.977V22.479" class="grid"/><path id="path171689" d="M775.04 160.48v-138" class="grid"/><path id="path171691" d="M821.04 160.48v-138" class="grid"/><path id="path171693" d="M867.04 160.48v-48.416m0-14.846V22.479" class="grid"/><path id="path171695" d="M913.04 160.48v-138" class="grid"/><path id="path171697" d="M959.04 160.48v-138" class="grid"/><path id="path171699" d="M1005.04 160.48v-49.285m0-13.977V22.479" class="grid"/><path id="path171701" d="M1051.04 160.48v-138" class="grid"/><path id="path171703" d="M1097.04 160.48v-138" class="grid"/><path id="path171705" d="M1143.04 160.48V111.2m0-13.983V22.479" class="grid"/><path id="path171707" d="M13.74 137.48h551.306m21.075 0h582.219" class="grid"/><path id="path171709" d="M13.74 91.48h1154.6" class="grid"/><path id="path171711" d="M13.74 45.48h562.668m9.713 0h582.219" class="grid"/></g><g id="axes" style="display:inline"><path id="path171714" d="M13.74 91.48h1154.6" class="axes"/><path id="path171716" d="M591.04 160.48v-138" class="axes"/></g><g id="notch labels" style="display:inline;stroke:none;fill:#b8b8de"><g id="g171727" transform="matrix(.01656 0 0 -.01656 25.071 109.425)"><use xlink:href="#STIXWEBMAIN-2212" id="use171719" x="0" y="0"/><g id="g171725" transform="translate(685)"><use xlink:href="#STIXWEBMAIN-31" id="use171721"/><use xlink:href="#STIXWEBMAIN-32" id="use171723" x="500" y="0"/></g></g><g id="g171733" transform="matrix(.01657 0 0 -.01657 167.215 109.427)"><use xlink:href="#STIXWEBMAIN-2212" id="use171729" x="0" y="0"/><use xlink:href="#STIXWEBMAIN-39" id="use171731" x="685" y="0"/></g><g id="g171739" transform="matrix(.01657 0 0 -.01657 305.215 110.296)"><use xlink:href="#STIXWEBMAIN-2212" id="use171735" x="0" y="0"/><use xlink:href="#STIXWEBMAIN-36" id="use171737" x="685" y="0"/></g><g id="g171745" transform="matrix(.01657 0 0 -.01657 443.215 109.427)"><use xlink:href="#STIXWEBMAIN-2212" id="use171741" x="0" y="0"/><use xlink:href="#STIXWEBMAIN-33" id="use171743" x="685" y="0"/></g><g id="g171749" transform="matrix(.01656 0 0 -.01656 724.896 109.42)"><use xlink:href="#STIXWEBMAIN-33" id="use171747" x="0" y="0"/></g><g id="g171753" transform="matrix(.01656 0 0 -.01656 862.896 110.289)"><use xlink:href="#STIXWEBMAIN-36" id="use171751" x="0" y="0"/></g><g id="g171757" transform="matrix(.01656 0 0 -.01656 1000.896 109.42)"><use xlink:href="#STIXWEBMAIN-39" id="use171755" x="0" y="0"/></g><g id="g171763" transform="matrix(.01657 0 0 -.01657 1134.748 109.426)"><use xlink:href="#STIXWEBMAIN-31" id="use171759"/><use xlink:href="#STIXWEBMAIN-32" id="use171761" x="500" y="0"/></g><g id="g171767" transform="matrix(.01656 0 0 -.01656 576.3 109.42)"><use xlink:href="#STIXWEBMAIN-30" id="use171765" x="0" y="0"/></g><g id="g171773" transform="matrix(.01657 0 0 -.01657 565.759 143.076)"><use xlink:href="#STIXWEBMAIN-2212" id="use171769" x="0" y="0"/><use xlink:href="#STIXWEBMAIN-31" id="use171771" x="685" y="0"/></g><g id="g171777" transform="matrix(.01656 0 0 -.01656 577.12 51.076)"><use xlink:href="#STIXWEBMAIN-31" id="use171775" x="0" y="0"/></g></g><g id="layer2" style="display:inline"><path id="path392" d="M415.418 142.337h62.364" style="display:inline;fill:#f7ffd5;fill-opacity:1;stroke:#ffed89;stroke-width:8;stroke-miterlimit:2;stroke-dasharray:none;stroke-opacity:1"/><path id="path948" d="M704.298 142.337h62.364" style="display:inline;fill:#f7ffd5;fill-opacity:1;stroke:#99ffb8;stroke-width:8;stroke-miterlimit:2;stroke-dasharray:none;stroke-opacity:1"/><path id="path950" d="M993.178 142.337h62.364" style="display:inline;fill:#f7ffd5;fill-opacity:1;stroke:#b3b6ff;stroke-width:8;stroke-miterlimit:2;stroke-dasharray:none;stroke-opacity:1"/><path id="path954" d="M126.538 142.337h62.364" style="display:inline;fill:#f7ffd5;fill-opacity:1;stroke:#ffc699;stroke-width:8;stroke-miterlimit:2;stroke-dasharray:none;stroke-opacity:1"/></g><g id="layer26" style="display:inline"><path id="path294937" d="M157.494 88.08c.442-.229.291-.129.588-.249.105-.018.21-.044.316-.054a2.005 2.005 0 0 1 1.499.455c.585.517 1.022 1.038 1.189 1.894.014.134.037.269.043.404.021.593-.139 1.213-.39 1.726-.073.15-.166.287-.248.43-.247.354-.334.508-.63.812a4.885 4.885 0 0 1-1.562 1.06c-.144.05-.286.108-.432.152-.741.22-1.502.242-2.215-.112-.36-.233-.477-.273-.78-.613-.552-.62-.833-1.42-.906-2.294.015-.225-.004-.456.045-.674.043-.193.14-.367.226-.54.36-.712.928-1.21 1.534-1.628.162-.094.32-.198.487-.283.556-.28 1.177-.43 1.784-.376" style="display:inline;fill:#00f;stroke:#00f;stroke-width:1.1;stroke-miterlimit:2"/><path id="path296130" d="M449.797 89.752c.51.558.812 1.383.67 2.19-.25 1.581-1.379 2.887-2.716 3.322a3.648 3.648 0 0 1-1.702.199c-.941-.193-1.81-.748-2.54-1.44-.84-.842-1.366-1.336-1.517-2.608-.086-.732.465-1.97.842-2.56.622-.973 2.18-1.444 3.177-1.478 1.272-.043 1.701.235 2.851.864.445.278.817.688 1.123 1.146" style="display:inline;fill:#00f;stroke:none;stroke-width:1.1;stroke-miterlimit:2"/><path id="path296423" d="M737.072 87.812c-.717-.338-1.492-.503-2.26-.553-1.502-.01-2.833 1.253-3.453 2.8-.329.84-.496 1.817-.313 2.73.266 1.03 1.113 1.66 1.922 2.03 1.034.468 2.197.575 3.26.181 1.144-.407 2.334-1.116 2.902-2.418.44-.897.617-2.113.099-3.018-.427-.69-.987-1.297-1.67-1.612" style="display:inline;fill:#00f;stroke:none;stroke-width:1.1;stroke-miterlimit:2"/><path id="path65939" d="M1026 87.721c-.542-.392-1.214-.43-1.875-.368-1.003.139-2.095.614-3.037 1.681-.532.594-.973 1.597-.904 2.485.076.818.43 1.396.786 1.887.987 1.252 2.38 1.689 3.81 1.614.983-.067 2.118-.61 2.952-1.927.561-.881.699-2.119.504-3.007-.24-1.421-1.006-2.447-2.024-2.442" style="display:inline;fill:#00f;fill-opacity:1;stroke-width:1.1;stroke-miterlimit:2"/></g><g id="layer27" style="display:inline"><path id="path65416" d="M8.922 89.487c.814-1.066 1.523-2.1 2.69-2.209 1.133.027 2.35.329 3.457 1.437 1.143 1.419 1.151 2.267.996 3.595-.394 1.348-1.055 2.232-2.316 2.715-1.1.407-2.343.673-3.816.066-.904-.456-1.75-1.13-1.917-2.158-.058-1.293.332-2.329 1.007-3.131.631-.738 1.437-1.439 2.686-1.205" style="display:inline;fill:#00f;fill-opacity:1;stroke-width:1.1;stroke-miterlimit:2"/><path id="path65709" d="M590.216 87.87c.814-.579 1.837-.613 2.716-.23 1.008.41 2.009 1.218 2.36 2.467.281 1.083-.106 2.222-.612 3.12a3.47 3.47 0 0 1-1.82 1.598c-1.476.594-3.138.272-4.495-.583-.879-.56-1.656-1.576-1.697-2.812-.07-1.2.629-2.262 1.451-2.864.854-.665 1.927-.777 2.911-.557.091.017.182.036.273.056" style="display:inline;fill:#00f;fill-opacity:1;stroke:none;stroke-width:1.1;stroke-miterlimit:2"/><path id="path65822" d="M301.754 87.555a2.307 2.307 0 0 0-.802.233c-.098.047-.193.1-.29.151a7.714 7.714 0 0 0-1.706 1.377c-.112.12-.216.251-.325.377-.391.492-.73 1.051-.92 1.7-.11.383-.101.458-.14.851.006.138.004.277.02.414.054.43.21.829.433 1.168.217.328.315.393.587.657.123.092.242.193.37.276a4.24 4.24 0 0 0 1.844.64c.176.019.353.019.53.028.18-.01.363-.01.544-.032a5.435 5.435 0 0 0 2.118-.732c.162-.096.315-.21.473-.315.545-.424 1.052-.938 1.395-1.613.19-.374.198-.477.312-.881.019-.146.048-.29.056-.438a3.488 3.488 0 0 0-.173-1.267c-.114-.352-.181-.452-.344-.773a5.246 5.246 0 0 0-1.027-1.279c-.254-.224-.32-.25-.595-.424a2.545 2.545 0 0 0-1.293-.317c-.293.008-.397.04-.685.098l-.328.097" style="display:inline;fill:#00f;fill-opacity:1;stroke-width:1.1;stroke-miterlimit:2"/><path id="path65826" d="M880.48 87.917c-.442-.045-.876.118-1.295.25a8.607 8.607 0 0 0-1.743.816c-.395.246-.477.327-.845.616-.608.53-1.162 1.173-1.424 1.987-.044.138-.068.282-.102.424-.012.14-.035.28-.034.421.004.43.128.851.354 1.205.211.332.326.398.611.654.134.087.263.183.402.26.471.258.994.417 1.515.499.502.078.692.06 1.201.065.208-.016.417-.023.624-.05a6.762 6.762 0 0 0 2.341-.745c.166-.089.323-.195.484-.293.142-.108.29-.208.426-.324.353-.3.682-.662.9-1.09.167-.33.166-.43.245-.789.01-.133.029-.266.03-.4.002-.538-.139-1.084-.332-1.575-.05-.127-.109-.248-.164-.373-.226-.466-.527-.888-.92-1.203-.253-.203-.32-.22-.602-.364a2.56 2.56 0 0 0-1.448-.165c-.13.023-.257.064-.385.097" style="display:inline;fill:#00f;fill-opacity:1;stroke-width:1.1;stroke-miterlimit:2"/><path id="path65935" d="M1169.376 87.351a1.864 1.864 0 0 0-.886.065c-.094.03-.186.07-.28.104-.63.294-1.179.77-1.657 1.332-.112.133-.217.275-.326.412-.4.566-.751 1.194-.92 1.91-.11.46-.09.543-.105 1.013.017.167.023.335.053.5.089.504.283.967.555 1.368.259.381.358.442.679.752.58.464 1.235.779 1.926.92.493.1.63.077 1.132.082.937-.065 1.861-.34 2.682-.89.145-.096.28-.212.421-.318.454-.392.855-.873 1.08-1.491.13-.358.123-.458.176-.837 0-.143.013-.286.012-.428a6.25 6.25 0 0 0-.324-1.709c-.046-.135-.101-.267-.152-.4-.263-.602-.615-1.165-1.098-1.544-.09-.072-.191-.13-.287-.194-.103-.05-.206-.107-.312-.15-.44-.176-.92-.25-1.384-.222-.113.008-.223.028-.335.041l-.298.073" style="display:inline;fill:#00f;fill-opacity:1;stroke-width:1.1;stroke-miterlimit:2"/></g><g id="layer1" style="display:inline"><path id="path4442" d="M559.858 40.65h62.364" style="display:inline;fill:#ffd5d5;stroke:#ffb3b3;stroke-width:8;stroke-miterlimit:2;stroke-dasharray:none;stroke-opacity:1"/><path id="path4444" d="M848.738 40.65h62.364" style="display:inline;fill:#ffd5d5;stroke:#ffe3b3;stroke-width:8;stroke-miterlimit:2;stroke-dasharray:none;stroke-opacity:1"/><path id="path4791" d="M1138.08 40.65h31.183" style="display:inline;fill:#ffd5d5;stroke:#beff99;stroke-width:8.00001;stroke-miterlimit:2;stroke-dasharray:none;stroke-opacity:1"/><path id="path5018" d="M270.978 40.65h62.364" style="display:inline;fill:#ffd5d5;stroke:#b3c5ff;stroke-width:8;stroke-miterlimit:2;stroke-dasharray:none;stroke-opacity:1"/><path id="path5227" d="M12.817 40.65h31.182" style="display:inline;fill:#ffd5d5;stroke:#e3b3ff;stroke-width:8;stroke-miterlimit:2;stroke-dasharray:none;stroke-opacity:1"/></g><g id="layer14" style="display:inline"><path id="path73621" d="M1110.656 173.43c-.308-1.151-.5-2.405-.574-2.861a32.258 32.258 0 0 1-.261-1.856c-.28-2.901-.256-5.024-.13-6.707.057-.74.193-1.674.193-1.674s.124.939.139 1.308c.053 1.358.033 2.391-.022 3.816-.058 1.5-.117 3.81-.425 5.283-.197.944-.598 1.532-1.193 2.081-.824.761-2.216.96-3.18.576-.955-.38-1.647-1.524-1.448-2.552.256-1.324 1.227-2.248 2.214-2.652.908-.371 2.332-.41 2.953.02" style="display:inline;fill:none;fill-opacity:1;stroke:#000;stroke-width:.999997;stroke-miterlimit:4;stroke-dasharray:none;stroke-opacity:1"/><path id="path73623" d="M1112.958 170.787c.887.48 2.558.167 3.41-.642.483-.466.813-1.191.57-1.85-.155-.407-.637-.558-1.041-.487-.93.153-1.787.606-2.499 1.207-.626.557-1.214 1.291-1.29 2.151-.075.94.617 1.8 1.488 2.11 1.004.347 2.135.394 3.144.036.678-.251 1.4-.514 1.895-1.06" style="display:inline;fill:none;stroke:#000;stroke-width:.999997;stroke-linecap:butt;stroke-linejoin:round;stroke-miterlimit:2;stroke-dasharray:none;stroke-opacity:1"/><path id="path73625" d="M1127.313 168.879c-.249-.253-.72-.481-1.216-.61-1.21-.317-2.864-.395-4.072.58-.643.519-.88 1.495-.896 2.068-.019.658.19 2.088.326 2.718.06.453-.139-.22-.171-.35-.496-1.833-.917-3.684-1.327-5.537" style="display:inline;fill:none;stroke:#000;stroke-width:.999997;stroke-miterlimit:2;stroke-dasharray:none"/><g id="g81554" style="display:inline;stroke-width:2.16621" transform="matrix(.49108 0 0 .49375 1850.401 1830.637)"><path id="path74353" d="M-1468.959-3372.05a1.34 1.34 0 0 1 .524-.146.986.986 0 0 1 .746.262c.168.132.32.354.299.612-.02.267-.232.422-.417.513-.333.162-.7.196-1.056.16-.297-.036-.622-.146-.804-.457-.103-.173-.085-.414 0-.593.153-.334.48-.495.781-.533" style="fill:none;stroke:#000;stroke-width:2.0308;stroke-miterlimit:2;stroke-dasharray:none"/><path id="path74355" d="M-1469.233-3355.203c-.14-1.074-.3-3.061-.345-4.498-.087-2.762-.067-5.557.4-8.29" style="fill:none;stroke:#000;stroke-width:2.0308;stroke-miterlimit:2;stroke-dasharray:none"/></g><path id="path74359" d="M1136.844 167.097c-.182.27-.213.625-.372.903-.675 1.592-1.51 3.09-2.148 4.689-.099.27-.19.548-.288.81-.015.055-.053.11-.068.163-.01.031.06.155-.023-.009-.342-.68-.668-1.367-.994-2.054-.57-1.22-1.1-2.464-1.76-3.638" style="display:inline;fill:none;stroke:#000;stroke-width:1.00001;stroke-miterlimit:2;stroke-dasharray:none"/><path id="path74361" d="M1142.628 167.975c-.163.037-.329.065-.49.113a6.146 6.146 0 0 0-2.817 1.763 5.47 5.47 0 0 0-.56.7c-.147.224-.276.46-.372.711-.237.616-.255 1.327.154 1.866.221.292.527.54.886.634.224.06.599.054.829.026 1.287-.16 2.435-1.153 3.165-2.216.203-.295.447-.725.595-1.053.27-.599.474-1.215.376-1.882-.018-.126-.113-.308-.262-.276-.073.015-.139.084-.192.217a1.05 1.05 0 0 0-.044.34c.022.573.155 1.219.405 1.727.11.223.233.439.378.64.163.225.348.438.544.635a6.995 6.995 0 0 0 2.139 1.477c.553.244.744.279 1.3.437" style="display:inline;fill:none;fill-opacity:1;stroke:#000;stroke-width:.999997;stroke-linecap:butt;stroke-linejoin:bevel;stroke-miterlimit:4;stroke-dasharray:none;stroke-opacity:1"/><path id="path74363" d="M1148.425 174.036c.026-1.486.039-2.972.052-4.465.026-3.132.019-6.27-.06-9.403" style="display:inline;fill:none;stroke:#000;stroke-width:.999994;stroke-opacity:1"/><path id="path74365" d="M1152.62 163.012c-.836.038-.376.014-1.38.064-2.05.103-4.093.217-6.123.517" style="display:inline;fill:none;stroke:#000;stroke-width:.999994;stroke-opacity:1"/><g id="g81558" style="display:inline;stroke-width:1.99182" transform="matrix(.53874 0 0 .53233 1919.307 1960.07)"><path id="path75099" d="M-1424.043-3371.484c.144-.196.55-.248.817-.232.683.04 1.042.26 1.33.76.188.33.16.733-.076 1.064-.147.207-.533.514-.913.62-.766.228-1.656.027-2.23-.489-.202-.148-.362-.461-.428-.698-.08-.295.13-.823.432-1.192.08-.1.164-.197.248-.295" style="fill:none;stroke:#000;stroke-width:1.86734;stroke-miterlimit:2;stroke-dasharray:none"/><path id="path75101" d="M-1423.395-3355.152c0-1.184-.052-2.415-.052-3.598-.105-2.699-.209-5.398-.157-8.096" style="fill:none;stroke:#000;stroke-width:1.86734;stroke-miterlimit:2;stroke-dasharray:none"/></g><path id="path75105" d="M1161.006 167.884a201.55 201.55 0 0 0-.76 1.83 271.668 271.668 0 0 1-1.616 3.909c-.187.349-.118.279-.311.01-.539-.838-1.002-1.718-1.499-2.583-.677-1.16-1.347-2.325-2.1-3.435" style="display:inline;fill:none;stroke:#000;stroke-width:.999997;stroke-miterlimit:2;stroke-dasharray:none"/><path id="path75107" d="M1162.585 170.49c1.222.28 2.563.313 3.76-.113.245-.088.468-.227.703-.341.16-.135.346-.246.482-.407.328-.386.339-.905-.087-1.229-.47-.357-.858-.416-1.346-.438a3.379 3.379 0 0 0-.829.067c-1.085.224-2.233.965-2.667 2.017a2.252 2.252 0 0 0-.17.781c-.01.265.033.535.12.785.465 1.327 1.935 1.945 3.236 2.065.428.04.862.023 1.29-.012 1.087-.09 2.142-.407 3.149-.822.188-.078.366-.177.55-.266" style="display:inline;fill:none;stroke:#000;stroke-width:.999997;stroke-linecap:square;stroke-linejoin:round;stroke-miterlimit:2;stroke-dasharray:none"/><g id="g635292" style="display:inline;stroke-width:1.05656" transform="matrix(1.0036 0 0 1.01556 2222.796 3536.951)"><path id="path311677-7" d="M-1122.356-3316.082c-.636.025-1.272.05-1.899.092-1.664.092-3.329.192-4.968.476" style="fill:none;stroke:#000;stroke-width:.990526;stroke-dasharray:none"/><path id="path311679-1" d="M-1121.915-3313.2H-1129.275" style="fill:none;stroke:#000;stroke-width:.990526;stroke-dasharray:none"/></g><path id="path92550" d="M1013.32 171.109c2.472-.213 1.066.045 2.024-.02 1.679-.112.228.04 1.488.006 1.046-.028 2.451-.078 2.898-.076.593.002 2.351.072 2.911.055.58-.017 2.106-.041 2.264-.04.316.002 2.358-.047 2.674-.046.158.001 1.614-.084 1.766-.08 1.578.034 1.802.093 2.212.026.442-.073 1.268-.084 1.714-.089l1.746-.02c.447-.004 1.479-.108 1.925-.106.688.003 1.03.006 1.55.01.316.002 1.875.237 2.176.194.15-.02 1.385-.193 1.532-.15.317.096 1.201.195 1.529.197.79.003 1.364-.136 1.928-.17.593-.035 1.353.105 1.967.107.79.003.811.097 1.62.1.389.003 1.063-.195 1.268-.224.15-.021 1.349.02 1.5-.002.49-.069.866.04 1.317.043.158.002 1.3-.07 1.451-.09.174-.025 1.243-.08 1.615-.078.316.002 1.257.269 1.558.226.15-.02 1.106-.072 1.257-.093.278-.039 1.384-.208 1.895-.206.316.002 2.252.205 2.566.19.665-.034 1.454-.163 2.124-.16.316.002 1.909.193 2.225.194 1.57.006 1.317-.067 2.302-.17.314-.032 1.989.228 2.29.186.152-.022 1.284-.123 1.435-.144.499-.07 1.706-.058 2.195-.025.867.058.993-.09 1.878-.087.69.003 1.159.06 1.695.068" style="display:inline;fill:none;stroke:#00f;stroke-width:2.5;stroke-miterlimit:2;stroke-dasharray:none"/><path id="path107717" d="M1115.46 184.866c.285.414 1.286.652 1.64.685.873.082 1.8.012 2.267-.36.371-.294.46-.73.307-1.082-.236-.542-.9-.827-1.45-1.127-.602-.328-1.264-.573-1.77-1.012-.238-.207-.371-.66-.232-.98.117-.267.465-.497.752-.599.616-.22 1.296-.167 1.854.052.303.119.628.385.669.65.016.11 0 .226-.03.337" style="display:inline;fill:none;stroke:#000;stroke-width:.899999;stroke-miterlimit:2;stroke-dasharray:none"/><path id="path107721" d="M1121.82 186.063c.01-.22.028-.441 0-.665-.02-.584.03-1.162.01-1.746-.03-.737.01-1.47-.032-2.206-.027-.495.02-1.3.024-1.646" style="display:inline;fill:none;stroke:#000;stroke-width:.899999;stroke-miterlimit:2;stroke-dasharray:none"/><path id="path107723" d="M1125.848 185.815c-.204-.182-.443-.316-.66-.484a31.9 31.9 0 0 1-1.875-1.55c-.5-.414-.994-.828-1.475-1.262" style="display:inline;fill:none;stroke:#000;stroke-width:.899999;stroke-miterlimit:2;stroke-dasharray:none"/><path id="path107727" d="M1125.575 180.18c-.236.178-.472.356-.7.542-.476.364-.948.728-1.458 1.053-.523.345-1.055.674-1.61.98" style="display:inline;fill:none;stroke:#000;stroke-width:.899999;stroke-miterlimit:2;stroke-dasharray:none"/><path id="path107739" d="M1137.755 180.133c-.273.004-.55.014-.824.026-.96.042-1.916.103-2.876.116-.592.005-.583.01-1.147.007-.286 0-.577-.016-.869-.01-.04 0-.087.006-.127.01" style="display:inline;fill:none;stroke:#000;stroke-width:.899999;stroke-miterlimit:2;stroke-dasharray:none"/><path id="path107743" d="M1135.029 185.744c-.01-.088-.023-.243-.037-.334-.06-.403-.091-.74-.13-1.149-.07-.762-.085-1.531-.122-2.298a24.7 24.7 0 0 1-.018-1.61" style="display:inline;fill:none;stroke:#000;stroke-width:.899999;stroke-miterlimit:2;stroke-dasharray:none"/><path id="path107745" d="M1142.024 185.339c-.594.328-1.344.344-2.003.157-.852-.24-1.562-.84-1.864-1.571-.178-.432-.15-.958-.088-1.407.132-.951.865-1.799 1.882-2.157.398-.14.886-.165 1.275.014" style="display:inline;fill:none;stroke:#000;stroke-width:.899999;stroke-miterlimit:2;stroke-dasharray:none"/><path id="path107747" d="M1143.058 185.813v-.678c0-.789-.01-1.577 0-2.365 0-.917-.01-1.838.067-2.75" style="display:inline;fill:none;stroke:#000;stroke-width:.899999;stroke-miterlimit:2;stroke-dasharray:none"/><path id="path107749" d="M1147.015 182.9c-.08.021-.037.01-.129.032-.315.037-.63.059-.95.066-.539.03-1.078.014-1.621.02-.41-.006-.826-.003-1.232-.05" style="display:inline;fill:none;stroke:#000;stroke-width:.899999;stroke-miterlimit:2;stroke-dasharray:none"/><path id="path107753" d="M1147.218 185.971a2.154 2.154 0 0 1-.033-.231c-.046-.425-.05-.85-.062-1.276-.025-.726-.062-1.452-.07-2.182-.016-.76-.05-1.518-.038-2.277" style="display:inline;fill:none;stroke:#000;stroke-width:.899999;stroke-miterlimit:2;stroke-dasharray:none"/><path id="path107757" d="M1155.549 180.208c.607.164 1.139.546 1.542.941.534.525.9 1.194.945 2.054.023.447-.07.896-.327 1.284-.222.335-.548.654-.953.82-.626.256-1.326.354-1.992.164-.656-.186-1.157-.516-1.549-1-.54-.669-.54-1.805-.226-2.46a3.467 3.467 0 0 1 1.327-1.438c.46-.276 1.129-.463 1.63-.15" style="display:inline;fill:none;stroke:#000;stroke-width:.899999;stroke-miterlimit:2;stroke-dasharray:none"/><path id="path107771" d="M1169.072 186.768c-.143-1.609 0-3.221.013-4.831.013-.47.014-1.098.033-1.568 0-.08.03-.64.024-.829-.145-.147-.528-.129-.872-.122-.751.013-1.504.014-2.254.062" style="display:inline;fill:none;stroke:#000;stroke-width:.899999;stroke-miterlimit:2;stroke-dasharray:none"/><path id="path107773" d="M1169.451 186.416c-.448.022-1.15.013-1.64.03-.596.022-1.204.018-1.8.064" style="display:inline;fill:none;stroke:#000;stroke-width:.899999;stroke-miterlimit:2;stroke-dasharray:none"/><path id="path107779" d="M1112.828 179.174c-.507.05-1.023.054-1.548.054-1.116.02-1.392.034-2.508.068" style="display:inline;fill:none;stroke:#000;stroke-width:.900001;stroke-miterlimit:2;stroke-dasharray:none"/><path id="path107781" d="M1112.816 186.279c-1.325.005-2.024.085-3.34.2-.246.183-.196-.361-.209-.53-.092-1.222 0-2.627-.108-4.02-.065-.981-.053-1.963-.051-2.944" style="display:inline;fill:none;stroke:#000;stroke-width:.900001;stroke-miterlimit:2;stroke-dasharray:none"/><path id="path107729" d="M1127.608 185.697c-.046-.25-.046-.503-.05-.752-.023-.972-.05-1.949-.11-2.922a30.67 30.67 0 0 1-.026-1.965" style="display:inline;fill:none;stroke:#000;stroke-width:.899999;stroke-miterlimit:2;stroke-dasharray:none"/><path id="path107731" d="M1131.21 180.22c-.155.004-.305.012-.46.012-.637.016-1.273.012-1.904-.012-.64 0-1.277 0-1.913-.004" style="display:inline;fill:none;stroke:#000;stroke-width:.899999;stroke-miterlimit:2;stroke-dasharray:none"/><path id="path107733" d="M1130.449 182.797c-.18.012-.364.015-.544.03-.456.027-.909.026-1.36.013-.347-.004-.693-.016-1.04.013" style="display:inline;fill:none;stroke:#000;stroke-width:.899999;stroke-miterlimit:2;stroke-dasharray:none"/><path id="path107735" d="M1131.76 185.44c-.35.062-.704.1-1.063.1-.72.029-1.44.03-2.163.039-.455.007-.91.006-1.366.022" style="display:inline;fill:none;stroke:#000;stroke-width:.899999;stroke-miterlimit:2;stroke-dasharray:none"/><path id="path107759" d="M1159.93 185.68a7.158 7.158 0 0 1-.09-.959c-.049-.86-.128-1.72-.234-2.581-.067-.692-.124-1.385-.107-2.08" style="display:inline;fill:none;stroke:#000;stroke-width:.899999;stroke-miterlimit:2;stroke-dasharray:none"/><path id="path107767" d="M1163.626 180.266c-.41 0-.82.004-1.23.012-.644.015-1.288.039-1.933.055-.468 0-.937 0-1.405-.004" style="display:inline;fill:none;stroke:#000;stroke-width:.899999;stroke-miterlimit:2;stroke-dasharray:none"/><path id="path107769" d="M1162.869 183.145c-.367-.004-.74 0-1.111 0-.722.008-1.444.015-2.156.11" style="display:inline;fill:none;stroke:#000;stroke-width:.899999;stroke-miterlimit:2;stroke-dasharray:none"/><path id="path111391" d="M1071.346 191.47c.239.925.421 2.038.413 2.86-.013.694-.231 1.378-.751 1.867-.378.355-.878.603-1.4.566-.602-.044-1.204-.39-1.495-.927-.415-.762-.526-1.661-.514-2.522.013-.604.049-1.21.164-1.803" style="display:inline;fill:none;stroke:#000;stroke-width:.899999;stroke-miterlimit:2;stroke-dasharray:none"/><g id="g198563" style="display:inline;stroke-width:1.92439;stroke-dasharray:none" transform="matrix(.50507 0 0 .43306 1412.541 1595.532)"><path id="path111393" d="M-670.308-3229.147c-.143-.996-.16-1.999-.215-3.002-.103-2.054-.167-4.108-.239-6.162-.032-1.313-.063-2.619.008-3.933" style="display:inline;opacity:1;fill:none;stroke:#000;stroke-width:1.92439;stroke-miterlimit:2;stroke-dasharray:none"/><path id="path111397" d="M-662.27-3229.125c-.084-.107-.168-.206-.25-.312a50.425 50.425 0 0 1-1.1-1.484c-.666-.958-1.307-1.936-1.965-2.9a200.134 200.134 0 0 1-3.316-5.13c-.687-1.055-1.399-2.098-2.008-3.2" style="display:inline;opacity:1;fill:none;stroke:#000;stroke-width:1.92439;stroke-miterlimit:2;stroke-dasharray:none"/><path id="path111399" d="M-662.491-3228.937c.022-.414.036-.828.041-1.242a66.875 66.875 0 0 0-.026-3.58c-.052-1.733-.057-3.464-.085-5.195.006-1.028.02-2.064.091-3.096" style="display:inline;opacity:1;fill:none;stroke:#000;stroke-width:1.92439;stroke-miterlimit:2;stroke-dasharray:none"/></g><g id="g198567" style="display:inline;stroke-width:2.13511;stroke-dasharray:none" transform="matrix(.45456 0 0 .39089 1380.024 1459.092)"><path id="path111401" d="M-658.723-3228.274a54.307 54.307 0 0 1-.205-3.075c-.088-2.108-.132-4.207-.263-6.315-.088-1.788-.198-3.585-.22-5.382" style="display:inline;fill:none;stroke:#000;stroke-width:2.13511;stroke-miterlimit:2;stroke-dasharray:none"/><path id="path111405" d="M-658.707-3229.48c.778.092 1.562.16 2.346.177 1.321.03 2.651-.546 3.51-1.544.94-1.09 1.343-2.549 1.385-3.963a7.754 7.754 0 0 0-.699-3.355c-.533-1.138-1.413-2.022-2.423-2.783-.847-.638-1.891-.964-2.951-.996-.7-.021-1.4-.05-2.097.01" style="display:inline;fill:none;stroke:#000;stroke-width:2.13511;stroke-miterlimit:2;stroke-dasharray:none"/></g><path id="path111443" d="M1105.671 196.516c-.33.154-.778.152-1.175.162-.755.018-1.522-.202-1.943-.6-.553-.521-.796-1.155-.749-1.772.05-.61.28-1.24.868-1.744a4.38 4.38 0 0 1 1.186-.711c.373-.147 1.162-.244 1.69-.098" style="display:inline;fill:none;stroke:#000;stroke-width:.899999;stroke-miterlimit:2;stroke-dasharray:none"/><path id="path111445" d="M1108.578 191.87c.327-.162.976-.24 1.377-.011.479.272.754.666.97 1.095.305.609.409 1.35.323 2.005-.066.498-.3 1-.777 1.34-.442.315-1.053.445-1.624.413-.525-.029-1.086-.191-1.387-.568-.449-.561-.577-1.255-.542-1.916.039-.706.221-1.435.78-1.996a1.57 1.57 0 0 1 .891-.445" style="display:inline;fill:none;stroke:#000;stroke-width:.899999;stroke-miterlimit:2;stroke-dasharray:none"/><g id="g231932" style="display:inline;stroke-width:.865242;stroke-dasharray:none" transform="matrix(1.14463 0 0 .94524 -283.613 21.412)"><g id="g231891" style="stroke-width:.865241;stroke-dasharray:none"><path id="path111447" d="M1220.384 185.679a3.639 3.639 0 0 1-.054-.34 10.412 10.412 0 0 1-.05-1.208c-.013-.712-.013-1.42-.033-2.128a32.411 32.411 0 0 0-.16-2.028" style="display:inline;fill:none;stroke:#000;stroke-width:.865241;stroke-miterlimit:2;stroke-dasharray:none"/><path id="path111449" d="M1224.153 185.812c-.04-.08-.099-.144-.15-.217-.246-.303-.509-.59-.75-.897-.303-.383-.585-.78-.87-1.177-.44-.63-.875-1.268-1.31-1.906-.388-.548-.78-1.107-1.259-1.58" style="display:inline;fill:none;stroke:#000;stroke-width:.865241;stroke-miterlimit:2;stroke-dasharray:none"/></g><path id="path111451" d="M1223.993 185.758a2.903 2.903 0 0 1-.028-.283c-.022-.358.01-.715.01-1.076.01-.745.01-1.49-.017-2.236-.011-.715-.029-1.431-.026-2.146" style="display:inline;fill:none;stroke:#000;stroke-width:.865241;stroke-miterlimit:2;stroke-dasharray:none"/></g><path id="path111453" d="M1119.038 195.67c0 .352.17.747.55.928.564.268 1.287.264 1.896.086.298-.087.541-.32.484-.596-.082-.402-.34-.761-.609-1.096-.42-.522-.944-.913-1.443-1.384-.328-.31-.47-.836-.234-1.21.244-.351.809-.6 1.196-.633.368-.031.628.061.795.215.25.23.296.475.325.783" style="display:inline;fill:none;stroke:#000;stroke-width:.899999;stroke-miterlimit:2;stroke-dasharray:none"/><g id="g231895" style="display:inline;stroke-width:.865242;stroke-dasharray:none" transform="matrix(1.14463 0 0 .94524 -282.714 21.412)"><path id="path111457" d="M1231.976 180.238c-.823-.004-1.642-.01-2.465-.028-.478-.014-.953-.036-1.43-.032" style="display:inline;fill:none;stroke:#000;stroke-width:.865241;stroke-miterlimit:2;stroke-dasharray:none"/><path id="path111459" d="M1230.156 185.6v-.007c-.01-.065-.011-.13-.014-.194a32.23 32.23 0 0 1-.054-1.037c-.01-.755-.022-1.514-.048-2.27-.025-.622-.065-1.245-.068-1.867" style="display:inline;fill:none;stroke:#000;stroke-width:.865241;stroke-miterlimit:2;stroke-dasharray:none"/></g><g id="g231899" style="display:inline;stroke-width:.865242;stroke-dasharray:none" transform="matrix(1.14463 0 0 .94524 -283.037 21.412)"><path id="path111461" d="M1233.67 185.661a49.12 49.12 0 0 1-.06-.855c-.06-.834-.107-1.669-.149-2.5-.038-.771-.078-1.542-.13-2.31" style="display:inline;fill:none;stroke:#000;stroke-width:.865241;stroke-miterlimit:2;stroke-dasharray:none"/><path id="path111463" d="M1236.274 185.632c-.508-.333-.836-.658-1.304-1.042-.47-.386-1.058-.858-1.572-1.41.202-.021.475-.162.684-.298.644-.387 1.326-.823 1.646-1.527a.754.754 0 0 0-.234-.925c-.263-.183-.6-.2-.904-.268-.608-.102-1.222.015-1.813.156" style="display:inline;fill:none;stroke:#000;stroke-width:.865241;stroke-miterlimit:2;stroke-dasharray:none"/></g><path id="path111465" d="M1136.57 191.823c.102.553.173 1.112.209 1.67.015.81-.014 1.646-.383 2.408-.284.626-1.238 1.023-2.008.758a1.583 1.583 0 0 1-.956-.97c-.256-.625-.308-1.368-.343-1.864-.054-.734-.015-1.547.03-2.28" style="display:inline;fill:none;stroke:#000;stroke-width:.899999;stroke-miterlimit:2;stroke-dasharray:none"/><path id="path111473" d="M1141.813 196.048c-.22.236-.404.39-.725.518-.492.196-1.279.091-1.662-.236-.487-.418-.785-.967-.849-1.538-.072-.66-.058-1.408.185-1.932.24-.519.741-.95 1.386-1.094.552-.124 1.241.147 1.488.555" style="display:inline;fill:none;stroke:#000;stroke-width:.899999;stroke-miterlimit:2;stroke-dasharray:none"/><g id="g231903" style="display:inline;stroke-width:.865242;stroke-dasharray:none" transform="matrix(1.14463 0 0 .94524 -282.094 21.412)"><path id="path111475" d="M1248.54 180.175c-.244.01-.112.007-.396.016-.675.02-1.35.023-2.024.004-.443-.01-.887-.023-1.33.013" style="display:inline;fill:none;stroke:#000;stroke-width:.865241;stroke-miterlimit:2;stroke-dasharray:none"/><path id="path111479" d="M1246.884 185.667c.017-.438.036-.873.017-1.311-.033-.723-.01-1.439-.077-2.158-.066-.65-.07-1.301-.075-1.955" style="display:inline;fill:none;stroke:#000;stroke-width:.865241;stroke-miterlimit:2;stroke-dasharray:none"/></g><path id="path111495" d="M1156.055 191.772c.354.06.738.123.991.358.403.374.662.866.767 1.345.112.506.14 1.308-.102 1.934-.163.424-.452.836-.901 1.087-.332.186-.74.245-1.152.216-.394-.029-.735-.116-1.18-.471-.373-.297-.638-.856-.742-1.255-.177-.677-.057-1.511.186-2.046.173-.383.41-.784.849-1.017.387-.205.872-.329 1.315-.185.038.011.07.024.106.04" style="display:inline;fill:none;stroke:#000;stroke-width:.899999;stroke-miterlimit:2;stroke-dasharray:none"/><g id="g231926" style="display:inline;stroke-width:.865242;stroke-dasharray:none" transform="matrix(1.14463 0 0 .94524 -281.38 21.412)"><g id="g231912" style="stroke-width:.865241;stroke-dasharray:none"><path id="path111503" d="M1262.155 185.864c-.288-.413-.58-.823-.827-1.263-.74-1.296-1.396-2.637-2.094-3.955a23.527 23.527 0 0 1-.36-.718" style="display:inline;fill:none;stroke:#000;stroke-width:.865241;stroke-miterlimit:2;stroke-dasharray:none"/><path id="path111497" d="M1259.087 185.608c-.01-.09-.01-.178-.014-.27-.028-.477-.063-.957-.09-1.434a47.88 47.88 0 0 0-.162-2.248c-.04-.529-.092-1.059-.092-1.588" style="display:inline;fill:none;stroke:#000;stroke-width:.865241;stroke-miterlimit:2;stroke-dasharray:none"/></g><path id="path111505" d="M1262.293 186.04c-.115-1.056-.255-2.11-.302-3.172-.043-.798-.08-1.597-.126-2.395a5.699 5.699 0 0 1 .01-.728" style="display:inline;fill:none;stroke:#000;stroke-width:.865241;stroke-miterlimit:2;stroke-dasharray:none"/></g><g id="g231916" style="display:inline;stroke-width:.711224;stroke-dasharray:none" transform="matrix(1.27923 0 0 1.25177 -451.614 -34.411)"><path id="path111507" d="M1266.634 185.582c-.05-.71-.126-1.42-.08-2.13.058-.882.088-1.764.08-2.647-.01-.2.022-.4-.01-.599-.187-.084-.468-.011-.694-.031-.619.004-1.237.022-1.855.041" style="display:inline;fill:none;stroke:#000;stroke-width:.711224;stroke-miterlimit:2;stroke-dasharray:none"/><path id="path111509" d="M1266.835 185.368c-.446.01-.213.008-.706.01-.732.008-1.463.009-2.19.035" style="display:inline;fill:none;stroke:#000;stroke-width:.711224;stroke-miterlimit:2;stroke-dasharray:none"/></g><g id="g235674" style="display:inline;stroke-width:1.02865" transform="matrix(.98956 0 0 .95504 3.947 9.356)"><path id="path111521" d="M1073.025 190.33a.57.57 0 0 1-.256.017 22.918 22.918 0 0 0-1.528-.052c-.501 0-.997 0-1.493-.005" style="display:inline;fill:none;stroke:#000;stroke-width:.925784;stroke-miterlimit:2;stroke-dasharray:none"/><path id="path111523" d="M1073.155 197.143c-.262.08-.568.052-.85.049-.582-.008-1.29-.005-1.872-.009-.063.016-.02-.209-.03-.3 0-1.16.053-2.254.015-3.41-.026-.783 0-1.478-.023-2.067-.014-.368-.016-.994-.048-1.36" style="display:inline;fill:none;stroke:#000;stroke-width:.925784;stroke-miterlimit:2;stroke-dasharray:none"/></g><g id="g200767" style="display:inline;stroke-width:2.07681;stroke-dasharray:none" transform="matrix(.46742 0 0 .40178 1388.968 1494.412)"><path id="path111407" d="M-639.64-3229.85c-.663.156-2.06.15-2.737.093-1.797-.152-3.594.116-5.392.101.015-.358.008-.988.009-1.446-.001-3.728-.087-7.455-.088-11.183" style="display:inline;fill:none;stroke:#000;stroke-width:2.07681;stroke-miterlimit:2;stroke-dasharray:none"/><path id="path111409" d="M-644.092-3236.05c-.505.01-1.017.015-1.522.023-.903.016-1.798.023-2.694.092" style="display:inline;fill:none;stroke:#000;stroke-width:2.07681;stroke-miterlimit:2;stroke-dasharray:none"/><path id="path111411" d="M-639.433-3241.94c-1.203.098-2.409.076-3.612.02-1.946-.048-3.891 0-5.837-.03" style="display:inline;fill:none;stroke:#000;stroke-width:2.07681;stroke-miterlimit:2;stroke-dasharray:none"/></g><g id="g231920" style="display:inline;stroke-width:.888396;stroke-dasharray:none" transform="matrix(1.08575 0 0 .94524 -212.972 21.412)"><path id="path111417" d="M1201.67 185.95c-.01-.247-.017-.498-.032-.748-.026-.601-.065-1.202-.08-1.804-.017-.679-.011-1.355-.011-2.034 0-.398 0-.796.01-1.193" style="display:inline;fill:none;stroke:#000;stroke-width:.888396;stroke-miterlimit:2;stroke-dasharray:none"/><path id="path111441" d="M1205.249 185.527a19.4 19.4 0 0 1-1.574-1.035c-.555-.41-1.154-.703-1.683-1.138-.117-.096-.37-.188-.296-.256.544-.035 1.274-.14 1.835-.346.752-.275 1.136-.568 1.258-.979.093-.312-.057-.588-.253-.808-.29-.326-.835-.528-1.325-.598-.556-.078-1.201-.059-1.68.083a3.651 3.651 0 0 0-.14.057" style="display:inline;fill:none;stroke:#000;stroke-width:.888396;stroke-miterlimit:2;stroke-dasharray:none"/></g><g id="g231908" style="display:inline;stroke-width:.865242;stroke-dasharray:none" transform="matrix(1.14463 0 0 .94524 -282.78 21.412)"><path id="path111481" d="M1254.024 180.197c-.638.052-1.275.06-1.917.056a53.152 53.152 0 0 1-2.51-.087" style="display:inline;fill:none;stroke:#000;stroke-width:.865241;stroke-miterlimit:2;stroke-dasharray:none"/><path id="path111487" d="M1251.893 185.666c-.01-.173-.01-.346-.01-.522-.02-.624-.039-1.247-.05-1.871-.018-.697-.043-1.394-.06-2.091 0-.384-.01-.776.08-1.151" style="display:inline;fill:none;stroke:#000;stroke-width:.865241;stroke-miterlimit:2;stroke-dasharray:none"/><path id="path111491" d="M1253.939 185.421c-.63-.007-1.265-.013-1.896-.015-.784-.004-1.564-.011-2.346.009" style="display:inline;fill:none;stroke:#000;stroke-width:.865241;stroke-miterlimit:2;stroke-dasharray:none"/></g></g><g id="layer28" style="display:inline"><g id="g1420" style="display:inline" transform="translate(434.318 -111.04)"><path id="path1388" d="M-277.26 219.94c-.058 1.468-.13 3.152-.1 4.4.026 1.15-.077 2.25.04 3.38l1.438.31c.251-1.157.018-2.747.067-3.744.074-1.298.082-2.554.127-4.078-.52-.005-1.051-.2-1.571-.267z" style="display:inline;fill:#000;stroke-width:1.1;stroke-miterlimit:2"/><path id="path1390" d="M11.657 208.666c-.058 1.245-.13 2.675-.101 3.734.027.975-.077 1.91.04 2.868l1.439.264c.25-.982.017-2.332.067-3.178.073-1.102.081-2.168.126-3.461-.52-.005-1.05-.17-1.57-.227z" style="display:inline;fill:#000;stroke-width:1.1;stroke-miterlimit:2"/><path id="path1392" d="M11.651 241.626c-.059 1.562-.13 3.355-.101 4.684.027 1.222-.077 2.394.04 3.597l1.439.33c.25-1.231.017-2.925.067-3.986.073-1.382.081-2.718.126-4.34-.52-.006-1.05-.213-1.57-.285z" style="display:inline;fill:#000;stroke-width:1.1;stroke-miterlimit:2"/><path id="path1394" d="M-277.377 208.964c-.068 2.128-.011 3.23.068 4.854.043.891.135 1.721-.013 2.512l1.623.283c.125-1.017-.081-1.8-.03-2.515.115-1.595-.137-2.785-.02-4.85-.47 0-1.158-.283-1.628-.284z" style="display:inline;fill:#000;stroke-width:1.1;stroke-miterlimit:2"/><path id="path1396" d="M-275.812 239.345c.002-1.1.097-1.807.034-2.705-.068-.984.02-2.46.011-3.966-.003-.58.022-.653.062-1.14l-1.656-.389c.068.437.032.895.077 1.399.09.995-.082 2.935-.026 4.143.04.84-.015 1.201-.049 2.291l1.547.367z" style="display:inline;fill:#000;stroke-width:1.1;stroke-miterlimit:2"/><path id="path1398" d="M-275.86 252.035c-.132-1.14.053-2.182.032-3.366-.025-1.387.004-3.159-.013-4.408-.008-.537-.06-.971-.005-1.322l-1.22-.48c-.145.322-.112.644-.137 1.133-.062 1.23-.029 3.195-.012 4.641.014 1.165-.1 2.17.083 3.368.159.053 1.137.388 1.272.434z" style="display:inline;fill:#000;stroke-width:1.1;stroke-miterlimit:2"/><path id="path1400" d="M13.062 227.633c-.042-1.422-.1-2.408-.055-3.98.028-.962-.058-3.022.1-4.215l-1.577-.49c.05.982-.065 2.398-.074 4.102-.008 1.517.095 2.73-.021 4.095" style="display:inline;fill:#000;stroke-width:1.1;stroke-miterlimit:2"/><path id="path1402" d="M589.274 221.014c-.068 1.88-.01 2.851.068 4.286.043.786.135 1.52-.013 2.218l1.623.249c.126-.898-.08-1.588-.029-2.22.115-1.408-.137-2.459-.02-4.281-.47-.001-1.158-.25-1.628-.252z" style="display:inline;fill:#000;stroke-width:1.1;stroke-miterlimit:2"/><path id="path1404" d="M11.518 231.05c-.059 1.294.073 2.78.102 3.881.027 1.014-.076 1.985.04 2.982l1.575.296c-.049-1.094-.122-2.402-.07-3.28.07-1.146-.121-2.254-.077-3.599-.542-.035-1.09-.195-1.57-.28z" style="display:inline;fill:#000;stroke-width:1.1;stroke-miterlimit:2"/><path id="path1406" d="M589.17 209.158c-.068 2.129-.01 3.23.069 4.855.043.89.135 1.721-.013 2.512l1.623.282c.125-1.017-.081-1.799-.029-2.514.115-1.595-.138-2.786-.02-4.85-.47 0-1.159-.283-1.628-.285z" style="display:inline;fill:#000;stroke-width:1.1;stroke-miterlimit:2"/><path id="path1408" d="M300.237 209.802c-.059 1.106-.13 2.376-.101 3.317.027.866-.077 1.695.04 2.547l1.439.234c.25-.872.017-2.071.066-2.822.074-.979.082-1.925.127-3.074-.52-.004-1.05-.15-1.571-.202z" style="display:inline;fill:#000;stroke-width:1.1;stroke-miterlimit:2"/><path id="path1410" d="M300.361 219.4c-.059 1.307-.13 2.806-.101 3.918.026 1.023-.077 2.003.04 3.009l1.438.276c.251-1.03.018-2.446.067-3.334.074-1.156.082-2.274.127-3.63-.52-.005-1.05-.179-1.571-.239z" style="display:inline;fill:#000;stroke-width:1.1;stroke-miterlimit:2"/><path id="path1412" d="M301.95 238.595c-.042-1.422-.1-2.407-.055-3.979.028-.962-.057-3.022.101-4.215l-1.578-.49c.05.982-.065 2.398-.074 4.101-.008 1.518.096 2.73-.021 4.095" style="display:inline;fill:#000;stroke-width:1.1;stroke-miterlimit:2"/><path id="path1414" d="M589.196 231.974c-.059 1.294.073 2.78.103 3.882.027 1.013-.077 1.985.04 2.981l1.575.297c-.048-1.094-.123-2.402-.07-3.281.07-1.146-.122-2.253-.076-3.598-.543-.036-1.09-.196-1.571-.281z" style="display:inline;fill:#000;stroke-width:1.1;stroke-miterlimit:2"/><path id="path1416" d="M589.18 243.34c-.069 1.987-.012 3.014.067 4.53.043.832.136 1.606-.013 2.344l1.624.264c.125-.95-.081-1.679-.03-2.347.115-1.488-.137-2.598-.02-4.524-.47-.001-1.158-.265-1.628-.266z" style="display:inline;fill:#000;stroke-width:1.1;stroke-miterlimit:2"/><path id="path1418" d="M301.764 250.82c-.132-1.14.054-2.183.033-3.367-.025-1.387.004-3.159-.013-4.408-.008-.537-.061-.971-.005-1.322l-1.22-.48c-.145.322-.112.644-.137 1.133-.063 1.23-.03 3.195-.012 4.641.013 1.164-.1 2.169.083 3.368l1.272.434z" style="display:inline;fill:#000;stroke-width:1.1;stroke-miterlimit:2"/></g></g><g id="layer29" style="display:inline"><g id="g412275" transform="translate(-528.744 5.608)"><path id="path2987" d="M540.71 70.063c-.07 2.129-.012 3.23.067 4.855.043.89.135 1.721-.013 2.512l1.623.282c.125-1.017-.081-1.799-.03-2.515.115-1.595-.137-2.785-.02-4.849-.47-.001-1.158-.284-1.628-.285z" style="display:inline;fill:#000;stroke-width:1.1;stroke-miterlimit:2"/><path id="path2989" d="M540.919 28.698c-.059 1.468-.13 3.152-.101 4.4.026 1.149-.077 2.25.04 3.38l1.438.31c.251-1.157.018-2.748.067-3.744.074-1.299.082-2.554.127-4.078-.52-.005-1.05-.2-1.571-.268z" style="display:inline;fill:#000;stroke-width:1.1;stroke-miterlimit:2"/><path id="path3090" d="M540.919 39.48c-.059 1.467-.13 3.151-.101 4.4.026 1.148-.077 2.249.04 3.378l1.438.311c.251-1.157.018-2.748.067-3.744.074-1.298.082-2.554.127-4.078-.52-.005-1.05-.2-1.571-.267z" style="display:inline;fill:#000;stroke-width:1.1;stroke-miterlimit:2"/><path id="path3092" d="M541.075 49.573c-.058 1.422-.13 3.054-.101 4.264.027 1.113-.077 2.18.04 3.275l1.439.3c.25-1.12.017-2.662.067-3.628.073-1.258.081-2.475.126-3.952-.52-.005-1.05-.193-1.57-.259z" style="display:inline;fill:#000;stroke-width:1.1;stroke-miterlimit:2"/><path id="path10057" d="M540.886 59.545c-.068 2.128-.011 3.23.068 4.854.043.891.135 1.722-.013 2.513l1.623.282c.125-1.017-.081-1.799-.03-2.515.115-1.595-.137-2.785-.02-4.85-.47 0-1.158-.283-1.628-.284z" style="display:inline;fill:#000;stroke-width:1.1;stroke-miterlimit:2"/><path id="path10206" d="M831.874 78.251c.002-1.22.096-2.004.034-3-.07-1.093.02-2.728.01-4.4-.003-.644.023-.724.062-1.265l-1.655-.431c.068.484.031.992.076 1.552.09 1.103-.082 3.256-.025 4.596.039.931-.016 1.332-.05 2.54l1.548.408z" style="display:inline;fill:#000;stroke-width:1.1;stroke-miterlimit:2"/><path id="path10208" d="M831.619 54.932c-.132-1.14.053-2.182.032-3.366-.025-1.387.004-3.16-.013-4.408-.008-.537-.06-.972-.005-1.323l-1.22-.479c-.145.321-.112.644-.137 1.133-.062 1.229-.029 3.195-.012 4.64.014 1.165-.1 2.17.083 3.368l1.272.435z" style="display:inline;fill:#000;stroke-width:1.1;stroke-miterlimit:2"/><path id="path10210" d="M831.784 66.386c-.042-1.422-.1-2.408-.055-3.98.028-.961-.057-3.022.1-4.215l-1.577-.49c.05.982-.065 2.398-.074 4.102-.008 1.517.096 2.73-.021 4.095" style="display:inline;fill:#000;stroke-width:1.1;stroke-miterlimit:2"/><path id="path10365" d="M830.084 34.938c-.068 2.129-.011 3.23.068 4.855.043.89.135 1.721-.013 2.512l1.623.282c.125-1.017-.081-1.799-.03-2.515.115-1.595-.137-2.785-.02-4.849-.47-.001-1.158-.284-1.628-.285z" style="display:inline;fill:#000;stroke-width:1.1;stroke-miterlimit:2"/><path id="path10519" d="M1118.673 46.44c-.09 2.13-.015 3.23.089 4.855.057.891.177 1.722-.017 2.513l2.124.282c.165-1.017-.106-1.8-.038-2.515.15-1.595-.18-2.785-.026-4.85-.615 0-1.516-.283-2.131-.284z" style="display:inline;fill:#000;stroke-width:1.1;stroke-miterlimit:2"/><path id="path10523" d="M1118.743 35.484c-.096 2.128-.016 3.23.095 4.854.061.891.19 1.722-.019 2.513l2.277.282c.176-1.017-.114-1.799-.041-2.515.16-1.595-.193-2.785-.028-4.85-.66 0-1.625-.283-2.284-.284z" style="display:inline;fill:#000;stroke-width:1.1;stroke-miterlimit:2"/><path id="path10529" d="M1120.888 77.93c-.227-1.14.092-2.182.056-3.366-.042-1.387.01-3.16-.022-4.408-.014-.537-.105-.972-.01-1.323l-2.097-.479c-.249.322-.192.644-.235 1.133-.108 1.229-.05 3.195-.021 4.64.024 1.165-.172 2.17.143 3.368.272.054 1.953.39 2.185.435z" style="display:inline;fill:#000;stroke-width:1.1;stroke-miterlimit:2"/><path id="path10531" d="M1118.548 57.398c-.094 2.128-.016 3.23.093 4.854.06.891.186 1.721-.018 2.512l2.232.283c.173-1.017-.111-1.8-.041-2.515.158-1.595-.19-2.785-.027-4.85-.646 0-1.593-.283-2.24-.284z" style="display:inline;fill:#000;stroke-width:1.1;stroke-miterlimit:2"/><path id="path11159" d="M1409.623 80.251c0-1.075.097-1.767.034-2.646-.068-.962.02-2.405.012-3.879 0-.567.021-.638.061-1.115l-1.655-.38c.068.427.03.875.077 1.368.089.973-.082 2.871-.026 4.053.039.82-.015 1.174-.05 2.24l1.548.36z" style="display:inline;fill:#000;stroke-width:1.1;stroke-miterlimit:2"/><path id="path11161" d="M1409.451 47.8c-.132-1.005.053-1.924.032-2.968-.025-1.223 0-2.785-.013-3.887-.01-.473-.06-.856-.01-1.166l-1.22-.422c-.144.283-.112.567-.136.999-.063 1.083-.03 2.817-.012 4.091.014 1.027-.1 1.913.083 2.97l1.271.383z" style="display:inline;fill:#000;stroke-width:1.1;stroke-miterlimit:2"/><path id="path11163" d="M1409.478 68.888c-.042-1.254-.1-2.123-.055-3.509.028-.848-.058-2.664.1-3.716l-1.578-.432c.051.866-.065 2.114-.074 3.616-.01 1.338.095 2.407-.02 3.61" style="display:inline;fill:#000;stroke-width:1.1;stroke-miterlimit:2"/><path id="path11165" d="M1407.834 51.143c-.068 1.877-.01 2.848.068 4.28.043.786.135 1.518-.013 2.215l1.623.25c.126-.898-.08-1.587-.029-2.218.115-1.406-.137-2.456-.02-4.276-.47 0-1.158-.25-1.628-.251z" style="display:inline;fill:#000;stroke-width:1.1;stroke-miterlimit:2"/><path id="path11327" d="M1698.64 38.834c-.132-1.14.053-2.181.032-3.366-.025-1.386 0-3.159-.013-4.408-.01-.537-.06-.971 0-1.322l-1.22-.479c-.145.321-.112.643-.137 1.133-.062 1.228-.028 3.195-.011 4.64.014 1.165-.1 2.17.083 3.368.158.054 1.136.389 1.271.434z" style="display:inline;fill:#000;stroke-width:1.1;stroke-miterlimit:2"/><path id="path11329" d="M1698.667 60.086c-.042-1.422-.1-2.408-.055-3.98.027-.961-.059-3.022.1-4.215l-1.578-.49c.051.982-.065 2.398-.074 4.102-.01 1.517.095 2.73-.02 4.095" style="display:inline;fill:#000;stroke-width:1.1;stroke-miterlimit:2"/><path id="path11331" d="M1697.023 41.293c-.068 2.129-.01 3.23.068 4.855.043.89.135 1.721-.013 2.512l1.623.282c.126-1.017-.08-1.799-.029-2.514.115-1.596-.137-2.786-.02-4.85-.47-.001-1.158-.284-1.628-.285z" style="display:inline;fill:#000;stroke-width:1.1;stroke-miterlimit:2"/><path id="path11335" d="M1697.159 62.544c-.059 1.422-.13 3.054-.101 4.264.027 1.113-.077 2.18.04 3.275l1.439.3c.25-1.12.017-2.662.067-3.628.073-1.258.082-2.475.126-3.952-.52-.004-1.05-.193-1.57-.259z" style="display:inline;fill:#000;stroke-width:1.1;stroke-miterlimit:2"/><path id="path11337" d="M1696.97 72.842c-.068 2.129-.011 3.23.068 4.855.043.891.135 1.721-.013 2.512l1.623.283c.125-1.017-.081-1.8-.03-2.515.116-1.595-.137-2.785-.02-4.85-.469 0-1.158-.283-1.627-.285z" style="display:inline;fill:#000;stroke-width:1.1;stroke-miterlimit:2"/><path id="path11505" d="M1409.451 36.014c-.132-.948.053-1.815.032-2.8-.025-1.153 0-2.627-.013-3.666-.01-.446-.06-.808 0-1.1l-1.22-.398c-.144.267-.112.535-.136.942-.063 1.022-.03 2.657-.012 3.86.014.968-.1 1.804.083 2.8l1.271.362z" style="display:inline;fill:#000;stroke-width:1.1;stroke-miterlimit:2"/></g></g><g id="g311745"><path id="rect308185" d="M1212.894 193.129h20.754v43.91h-20.754z" style="display:inline;fill:#f0f;stroke-width:1.1;stroke-miterlimit:2"/><path id="rect308492" d="M1208.547 235.179h25.101v1.86h-25.101z" style="display:inline;fill:#f0f;stroke-width:1.1;stroke-miterlimit:2"/></g></svg>