<svg xmlns="http://www.w3.org/2000/svg" xmlns:xlink="http://www.w3.org/1999/xlink" id="svg171797" width="1200" height="200" preserveAspectRatio="none" version="1.1" viewBox="-10 -10 1200 200"><style id="style171643" type="text/css">.grid{stroke:#9e9ed1;stroke-width:.4}.axes{stroke:#000;stroke-width:.9}</style><defs id="defs171655"><path id="STIXWEBMAIN-2212" stroke-width="1" d="M621 220H64v66h557z"/><path id="STIXWEBMAIN-31" stroke-width="1" d="M394 0H118v15c74 4 95 25 95 80v449c0 34-9 49-30 49-10 0-27-5-45-12l-27-10v14l179 91 9-3V76c0-43 20-61 95-61z"/><path id="STIXWEBMAIN-32" stroke-width="1" d="M474 137 420 0H29v12l178 189c94 99 130 175 130 260 0 91-54 141-139 141-72 0-107-32-147-130l-21 5c21 117 85 199 208 199 113 0 185-77 185-176 0-79-39-154-128-248L130 76h234c42 0 63 11 96 67z"/><path id="STIXWEBMAIN-39" stroke-width="1" d="M59-22 56-2c152 27 264 132 304 296-43-42-91-57-150-57-108 0-180 81-180 203 0 135 89 236 208 236 64 0 118-28 157-76 40-50 64-122 64-206 0-115-40-224-120-297C254 20 189-4 59-22Zm303 377v39c0 168-45 254-132 254-30 0-56-12-73-34-20-27-35-86-35-140 0-119 48-194 123-194 44 0 117 22 117 75z"/><path id="STIXWEBMAIN-36" stroke-width="1" d="m446 684 2-16c-157-26-269-134-296-285 49 38 83 45 127 45 117 0 189-80 189-209 0-64-18-120-51-160-37-46-93-73-159-73-79 0-142 37-177 101-28 51-47 122-47 192 0 108 38 203 109 276 86 90 165 114 303 129zm-68-496c0 128-42 194-135 194-57 0-116-24-116-116 0-152 48-252 142-252 72 0 109 72 109 174z"/><path id="STIXWEBMAIN-33" stroke-width="1" d="m61 510-16 4c29 95 92 162 196 162 93 0 156-55 156-137 0-48-26-98-93-138 44-19 62-31 83-53 28-31 44-77 44-129 0-53-17-102-46-140-48-64-143-93-232-93C80-14 41 7 41 43c0 21 18 36 41 36 17 0 33-6 61-26 37-26 58-31 86-31 74 0 130 68 130 153 0 76-35 125-104 145-22 7-45 10-102 10v14c38 13 64 24 84 36 49 28 81 73 81 134 0 68-42 102-108 102-62 0-108-32-149-106z"/><path id="STIXWEBMAIN-30" stroke-width="1" d="M476 330c0-172-63-344-226-344C79-14 24 172 24 336c0 177 69 340 230 340 131 0 222-141 222-346Zm-96-5c0 208-44 325-132 325-83 0-128-118-128-321S164 12 250 12c85 0 130 115 130 313z"/><mask id="mask248553" maskUnits="userSpaceOnUse"><path id="path248555" d="M1154.6.75v37.294L1039.669 160.71l-962.042-5.527L0 47.075V5.02Z" style="fill:#fff;stroke:none;stroke-width:.9;stroke-miterlimit:2"/></mask></defs><g id="grid" style="display:inline"><path id="path171657" d="M39.04 160.48V111.2m0-13.982V22.479" class="grid"/><path id="path171659" d="M85.04 160.48v-138" class="grid"/><path id="path171661" d="M131.04 160.48v-138" class="grid"/><path id="path171663" d="M177.04 160.48v-49.277m0-13.985V22.479" class="grid"/><path id="path171665" d="M223.04 160.48v-138" class="grid"/><path id="path171667" d="M269.04 160.48v-138" class="grid"/><path id="path171669" d="M315.04 160.48v-48.407m0-14.855V22.479" class="grid"/><path id="path171671" d="M361.04 160.48v-138" class="grid"/><path id="path171673" d="M407.04 160.48v-138" class="grid"/><path id="path171675" d="M453.04 160.48v-49.277m0-13.985V22.479" class="grid"/><path id="path171677" d="M499.04 160.48v-138" class="grid"/><path id="path171679" d="M545.04 160.48v-138" class="grid"/><path id="path171681" d="M591.04 160.48v-138" class="grid"/><path id="path171683" d="M637.04 160.48v-138" class="grid"/><path id="path171685" d="M683.04 160.48v-138" class="grid"/><path id="path171687" d="M729.04 160.48v-49.285m0-13.977V22.479" class="grid"/><path id="path171689" d="M775.04 160.48v-138" class="grid"/><path id="path171691" d="M821.04 160.48v-138" class="grid"/><path id="path171693" d="M867.04 160.48v-48.416m0-14.846V22.479" class="grid"/><path id="path171695" d="M913.04 160.48v-138" class="grid"/><path id="path171697" d="M959.04 160.48v-138" class="grid"/><path id="path171699" d="M1005.04 160.48v-49.285m0-13.977V22.479" class="grid"/><path id="path171701" d="M1051.04 160.48v-138" class="grid"/><path id="path171703" d="M1097.04 160.48v-138" class="grid"/><path id="path171705" d="M1143.04 160.48V111.2m0-13.983V22.479" class="grid"/><path id="path171707" d="M13.74 137.48h551.306m21.075 0h582.219" class="grid"/><path id="path171709" d="M13.74 91.48h1154.6" class="grid"/><path id="path171711" d="M13.74 45.48h562.668m9.713 0h582.219" class="grid"/></g><g id="axes" style="display:inline"><path id="path171714" d="M13.74 91.48h1154.6" class="axes"/><path id="path171716" d="M591.04 160.48v-138" class="axes"/></g><g id="notch labels" style="display:inline;stroke:none;fill:#b8b8de"><g id="g171727" transform="matrix(.01656 0 0 -.01656 25.071 109.425)"><use xlink:href="#STIXWEBMAIN-2212" id="use171719" x="0" y="0"/><g id="g171725" transform="translate(685)"><use xlink:href="#STIXWEBMAIN-31" id="use171721"/><use xlink:href="#STIXWEBMAIN-32" id="use171723" x="500" y="0"/></g></g><g id="g171733" transform="matrix(.01657 0 0 -.01657 167.215 109.427)"><use xlink:href="#STIXWEBMAIN-2212" id="use171729" x="0" y="0"/><use xlink:href="#STIXWEBMAIN-39" id="use171731" x="685" y="0"/></g><g id="g171739" transform="matrix(.01657 0 0 -.01657 305.215 110.296)"><use xlink:href="#STIXWEBMAIN-2212" id="use171735" x="0" y="0"/><use xlink:href="#STIXWEBMAIN-36" id="use171737" x="685" y="0"/></g><g id="g171745" transform="matrix(.01657 0 0 -.01657 443.215 109.427)"><use xlink:href="#STIXWEBMAIN-2212" id="use171741" x="0" y="0"/><use xlink:href="#STIXWEBMAIN-33" id="use171743" x="685" y="0"/></g><g id="g171749" transform="matrix(.01656 0 0 -.01656 724.896 109.42)"><use xlink:href="#STIXWEBMAIN-33" id="use171747" x="0" y="0"/></g><g id="g171753" transform="matrix(.01656 0 0 -.01656 862.896 110.289)"><use xlink:href="#STIXWEBMAIN-36" id="use171751" x="0" y="0"/></g><g id="g171757" transform="matrix(.01656 0 0 -.01656 1000.896 109.42)"><use xlink:href="#STIXWEBMAIN-39" id="use171755" x="0" y="0"/></g><g id="g171763" transform="matrix(.01657 0 0 -.01657 1134.748 109.426)"><use xlink:href="#STIXWEBMAIN-31" id="use171759"/><use xlink:href="#STIXWEBMAIN-32" id="use171761" x="500" y="0"/></g><g id="g171767" transform="matrix(.01656 0 0 -.01656 576.3 109.42)"><use xlink:href="#STIXWEBMAIN-30" id="use171765" x="0" y="0"/></g><g id="g171773" transform="matrix(.01657 0 0 -.01657 565.759 143.076)"><use xlink:href="#STIXWEBMAIN-2212" id="use171769" x="0" y="0"/><use xlink:href="#STIXWEBMAIN-31" id="use171771" x="685" y="0"/></g><g id="g171777" transform="matrix(.01656 0 0 -.01656 577.12 51.076)"><use xlink:href="#STIXWEBMAIN-31" id="use171775" x="0" y="0"/></g></g><g id="layer12" style="display:inline"><g id="g171782" clip-path="none" mask="url(#mask248553)" transform="translate(13.74 22.48)"><path id="path171780" d="M-.92 23c24.073-.087 48.147 21.723 72.22 45.796 24.227 24.227 48.453 46.32 72.68 46.203 24.073-.115 48.147-22.109 72.22-46.182S264.347 22.924 288.42 23c24.073.077 48.147 22.037 72.22 46.11s48.147 45.928 72.22 45.89c24.073-.038 48.147-21.963 72.22-46.037C529.153 44.89 553.227 23 577.3 23s48.147 21.89 72.22 45.963c24.073 24.074 48.147 45.999 72.22 46.037 24.073.038 48.147-21.817 72.22-45.89S842.107 23.077 866.18 23c24.073-.076 48.147 21.744 72.22 45.817s48.147 46.067 72.22 46.182c24.227.116 48.453-21.976 72.68-46.203 24.073-24.073 48.147-45.883 72.22-45.796" style="stroke:red;stroke-width:1.7;fill:none"/></g></g><g id="layer9" style="display:inline"><path id="path5176" d="M782.241 110.23 826.34 66.13" style="display:inline;fill:#f7ffd5;fill-opacity:1;stroke:#8affe4;stroke-width:8;stroke-miterlimit:2;stroke-dasharray:none;stroke-opacity:1"/><path id="path6021" d="m1071.573 109.907 44.098-44.098" style="display:inline;fill:#f7ffd5;fill-opacity:1;stroke:#ffc699;stroke-width:8;stroke-miterlimit:2;stroke-dasharray:none;stroke-opacity:1"/><path id="path6253" d="m493.353 110.074 44.098-44.098" style="display:inline;fill:#f7ffd5;fill-opacity:1;stroke:#ffde8a;stroke-width:8;stroke-miterlimit:2;stroke-dasharray:none;stroke-opacity:1"/><path id="path6983" d="m204.62 110.074 44.097-44.098" style="display:inline;fill:#f7ffd5;fill-opacity:1;stroke:#a3bfff;stroke-width:8;stroke-miterlimit:2;stroke-dasharray:none;stroke-opacity:1"/><path id="path306885" d="M1368.702-8.617h-62.364" style="display:inline;fill:#f7ffd5;fill-opacity:1;stroke:maroon;stroke-width:8;stroke-miterlimit:2;stroke-dasharray:none;stroke-opacity:1"/></g><g id="layer19" style="display:inline"><path id="path11382" d="m637.568 72.616 44.098 44.098" style="display:inline;fill:#f7ffd5;fill-opacity:1;stroke:#8ad3ff;stroke-width:8;stroke-miterlimit:2;stroke-dasharray:none;stroke-opacity:1"/><path id="path11384" d="m926.9 72.938 44.098 44.098" style="display:inline;fill:#f7ffd5;fill-opacity:1;stroke:#c0c4cb;stroke-width:8;stroke-miterlimit:2;stroke-dasharray:none;stroke-opacity:1"/><path id="path11386" d="m348.679 72.771 44.098 44.098" style="display:inline;fill:#f7ffd5;fill-opacity:1;stroke:#ffa8d9;stroke-width:8;stroke-miterlimit:2;stroke-dasharray:none;stroke-opacity:1"/><path id="path11388" d="m59.711 72.771 44.098 44.098" style="display:inline;fill:#f7ffd5;fill-opacity:1;stroke:#ffc879;stroke-width:8;stroke-miterlimit:2;stroke-dasharray:none;stroke-opacity:1"/></g><g id="layer18" style="display:inline"><path id="path352547" d="M109.684 1.294c.011.158.03.317.042.451.09.676.086 1.356.065 2.035-.01 1.77.037 3.54.04 5.31.001 1.918-.044 3.835-.075 5.753 0 .925-.014 1.853.086 2.776" style="display:inline;fill:none;stroke:#000;stroke-width:1.1;stroke-dasharray:none"/><path id="path352549" d="M37.794 15.47c.112.094.223.19.335.295a11.522 11.522 0 0 0 5.478 1.28c1.687-.444 1.727-1.015.559-2.305-.783-.666-1.596-1.216-2.46-1.776-.427-.275-1.24-.793-1.636-1.163-.152-.148-.274-.328-.406-.497-.02-.148-.072-.296-.05-.444.162-.856 1.372-1.205 2.052-1.258 1.067.014 2.124.159 3.13.508" style="display:inline;fill:none;stroke:#000;stroke-width:1.1;stroke-miterlimit:2;stroke-dasharray:none"/><path id="path352551" d="M48.21 17.579c-.013-.698-.022-1.402-.036-2.1a541.22 541.22 0 0 0-.253-7.613c-.079-2.294-.05-4.58-.18-6.866" style="display:inline;fill:none;stroke:#000;stroke-width:1.1;stroke-miterlimit:2;stroke-dasharray:none"/><path id="path352553" d="M54.947 9.625c-1.224.335-2.4.973-3.203 1.971-.195.243-.377.501-.51.782-.135.286-.24.59-.285.902-.147 1.016.26 2.054 1.025 2.739.756.677 1.236.817 2.206 1.058.454.113.934.112 1.401.09 1.65-.077 3.767-.805 4.598-2.348.153-.285.247-.607.284-.928.035-.31.01-.634-.074-.936-.399-1.443-1.917-2.525-3.286-2.947-.375-.116-.796-.224-1.158-.222-.33 0-.63.018-.99.073" style="display:inline;fill:none;fill-opacity:1;stroke:#000;stroke-width:1.1;stroke-linecap:butt;stroke-linejoin:miter;stroke-miterlimit:4;stroke-dasharray:none;stroke-opacity:1"/><path id="path352555" d="M64.736 15.144c1.68 1.195 2.473 1.376 4.16 1.795 1.579.392 3.81.066 4.986-1.143.988-1.016 1.101-3.384.39-4.515-.843-1.34-1.808-2.427-3.371-2.54-1.699-.124-3.162.581-4.13 1.778-2.45 3.027-3.429 6.973-3.736 10.782a52.07 52.07 0 0 0 .054 9.17c.037.383.42 1.411.397.45-.006-.255.022.374.012-.281-.09-5.597-.4-11.187-.592-16.78a46.894 46.894 0 0 1 .09-5.081" style="display:inline;fill:none;stroke:#000;stroke-width:1.1;stroke-miterlimit:2;stroke-dasharray:none"/><path id="path352557" d="M78.53 12.332c1.32.218 2.727.158 3.97-.381.26-.114.523-.239.745-.416.33-.261.645-.499.66-.968.019-.613-.64-1.07-1.105-1.319a3.095 3.095 0 0 0-.632-.266 2.334 2.334 0 0 0-.697-.102c-1.202.041-2.463 1.096-3.175 1.973a6.062 6.062 0 0 0-.632.94c-.178.332-.334.68-.437 1.042-.28.982-.254 2.087.417 2.914.539.666.952.836 1.742 1.117 1.649.587 3.18.503 4.842-.068.804-.277 1.218-.516 1.927-.931.204-.12.384-.275.576-.412" style="display:inline;fill:none;stroke:#000;stroke-width:1.1;stroke-linecap:butt;stroke-linejoin:round;stroke-miterlimit:2;stroke-dasharray:none"/><path id="path352559" d="M101.5 11.09c-.153.18-.07.09-.235.27-.331.317-.717.551-1.179.365-.641-.434-1-1.124-1.427-1.752-.724-.869-1.158-.49-2.04-.035-.814.47-1.627.945-2.303 1.614" style="display:inline;fill:none;stroke:#000;stroke-width:1.1;stroke-miterlimit:2;stroke-dasharray:none"/><path id="path352561" d="M102.282 13.484c-.371.445-.753.91-1.241 1.23-.733.31-1.192.123-1.828-.33-.635-.486-1.124-1.086-1.602-1.736-.333-.342-.606-.362-1.017-.094-.86.454-1.72.93-2.433 1.601" style="display:inline;fill:none;stroke:#000;stroke-width:1.1;stroke-miterlimit:2;stroke-dasharray:none"/><path id="path354606" d="M519.486 12.731c-2.862-.01-7.96-.093-10.328-.067-3.51.038-7.477-.496-11.475-.461-4.211.07-11.585-.05-15.774.05-4.68.045-9.333.08-13.988.03l-9.434-.102c-3.712-.04-7.424.21-11.136.29-3.776.07-7.535-.023-11.31-.063-3.886 0-7.772.162-11.642.117-3.807-.045-7.614-.19-11.421-.19h-11.453c-3.712 0-7.424.164-11.136.136-4.154-.032-8.309-.104-12.463-.183-4.297-.081-8.593-.056-12.89-.15-3.033-.066-6.066-.297-9.083-.177-1.422.06-2.828.15-4.218.34l-5.306-.673c-2.003.069-3.99.038-5.994.076-2.017.05-4.02.158-6.025.267-2.032.098-4.078-.262-6.109-.223-2.253.026-4.492.082-6.731.119a532.845 532.845 0 0 1-6.921-.113c-2.335-.075-4.668.309-7.016.224-2.433-.016-4.88-.021-7.314.043-2.462.074-4.925-.28-7.388-.206-2.574.092-5.16.135-7.735.258a378.43 378.43 0 0 1-8.927.076c-3.393.024-6.787.098-10.178.052-3.294-.034-6.588-.07-9.883-.084a424.41 424.41 0 0 0-10.08.054c-3.255.045-6.508.03-9.748.087-3.186.076-6.37.143-9.542.2-3.463.093-6.926.136-10.401.12a498.191 498.191 0 0 1-10.226-.339c-3.89-.14-7.795-.222-11.69-.123-4.02.127-8.042-.01-12.076.107-3.617.132-7.222.294-10.85.265-3.585-.048-7.185.067-10.77-.03-4.419-.127-8.823-.1-13.245-.078-4.99-.003-9.996.025-15.001.032-3.573-.038-7.159-.075-10.73-.123" style="display:inline;fill:none;stroke:#000;stroke-width:1.1;stroke-miterlimit:2;stroke-dasharray:none"/><path id="path352575" d="M519.24 78.259c.187-3.032.026-6.49-.022-9.54-.091-5.81.216-9.588.16-15.24-.035-3.516.144-6.382.089-9.817l-.09-5.631c.034-1.246-.051-7.44-.03-8.688.036-1.939-.54-8.087-.54-10.019.003-2.054.275-5.013.043-7.42" style="display:inline;fill:none;stroke:#000;stroke-width:1.1;stroke-miterlimit:2;stroke-dasharray:none"/><path id="path352577" d="M522.668 68.704c-.323.885-.15.412-.501 1.433-.7 2.199-1.292 4.422-1.92 6.654-.046.14-.393 1.364-.708 1.372-.164.015-.222-.131-.3-.245-.973-1.449-1.623-3.103-2.384-4.66a174.17 174.17 0 0 0-2.672-5.67" style="display:inline;fill:none;stroke:#000;stroke-width:1.1;stroke-miterlimit:2;stroke-dasharray:none"/><path id="path355256" d="M807.606 8.54c-2.965.081-8.381.074-11.346.125-2.985.062-7.93.192-10.895.314-3.006.111-7.524-.23-10.53-.178-3.334.041-6.648.112-9.962.162-3.416-.01-9.313.162-12.721-.058-3.205-.206-5.555-.228-9.636-.142-2.515.052-5.046-.026-7.563.042-2.546.07-5.094-.288-7.64-.206-2.661.085-5.334-.06-7.998.024-3.077.097-6.14-.164-9.231-.158-3.508.006-7.018.098-10.524.052-3.407-.035-6.813-.07-10.22-.084-3.464-.016-6.943-.011-10.423.053-3.365.046-6.729.032-10.08.088-3.294.076-6.587.142-9.866.199-3.581.093-7.162.137-10.756.12-3.52-.076-7.054-.192-10.573-.338-4.022-.14-8.06-.222-12.088-.123-4.157.127-8.316-.01-12.487.107-3.74.132-7.467.293-11.219.265-3.708-.048-7.43.067-11.137-.03-4.569-.127-9.123-.101-13.695-.078-5.161-.003-10.337.025-15.513.032-3.693-.038-7.402-.076-10.783-.109a40.49 40.49 0 0 0-1.077-.083c-2.714-.174-5.43-.298-8.158-.322a347.904 347.904 0 0 0-7.919-.088c-2.718.026-5.417.122-8.126.179-2.39.042-4.769.035-7.148.067-2.506.03-5.021-.03-7.527-.06-2.611-.011-5.234-.013-7.848.065-2.475.05-4.949.041-7.434.062-2.568-.041-5.147-.093-7.727-.114-2.654-.013-5.309-.006-7.966.102-1.626.057-3.262.105-4.885.063l-5.058.045c-2.197-.02-4.384.06-6.582.15-3.11.15-6.23.076-9.352.076-3.864.04-7.717.13-11.57.19-4.364 0-8.716-.01-13.08 0-3.99 0-7.993 0-11.995.04-3.46.04-6.932-.125-10.393-.065-3.47-.02-6.932.205-10.392.125-3.44-.07-6.88-.14-10.319-.11a805.68 805.68 0 0 1-13.895-.13c-4.332-.09-9.377.099-13.015.108-1.756.005-3.493-.169-5.234-.309l-5.29-.083c-.913.013-5.338.126-6.294.139-1.595.05-4.412.12-6.001.041-1.938-.066-4.364.204-6.298.058-2.512-.176-5.027-.033-7.542-.14-2.603-.068-5.21-.056-7.819.026-2.188.07-4.376.109-6.563.129-1.88-.035-3.746-.3-5.628-.305-1.853-.004-6.136.012-7.992.087-1.811.037-6.079.003-7.891.09-1.668.069-5.777.078-7.43.117-1.824.027-3.646.078-5.466-.036-2.007-.117-4.016-.214-6.028-.221-2.199-.041-4.383-.082-6.568-.102-2.388-.024-4.777-.018-7.17.077-2.261.089-4.522.157-6.78.135-2.07-.008-4.14.003-6.198.055-2.013.023-4.036-.064-6.062-.082-2.677-.04-5.354-.184-8.047-.174-2.621.031-5.247.278-7.883.32-2.418.015-4.847-.08-7.263-.115-2.618-.049-5.251.18-7.87.142-2.923-.044-5.86-.136-8.784-.13-3.301.009-6.589.326-9.888.285-3.069.003-6.155.056-9.227.149-3.2.03-6.401-.179-9.588-.128-3.651.093-7.305-.168-10.956-.085-4.795.081-9.588.122-14.384.224-3.81.049-7.631.048-11.452.018-2.359-.024-4.716-.078-7.051.04" style="display:inline;fill:none;stroke:#000;stroke-width:1.1;stroke-miterlimit:2;stroke-dasharray:none"/><path id="path352579" d="M808.077 76.1c-.04-2.393-.204-4.776-.252-7.177-.036-3.061.035-6.131-.206-9.168-.246-3.154-.267-6.54-.275-9.74-.008-3.297-.09-6.6-.058-9.92.034-3.491-.079-6.861.027-10.371.06-1.972-.094-3.83-.038-5.8l.202-7.127c.038-1.327.26-7.536.062-8.831" style="display:inline;fill:none;stroke:#000;stroke-width:1.1;stroke-miterlimit:2;stroke-dasharray:none"/><path id="path352581" d="M803.983 66.757c.578 1.577 1.262 3.122 1.975 4.638.74 1.63 1.457 3.267 2.039 4.95.19.592.248-.319.278-.403.374-1.724.741-3.455 1.2-5.163.537-1.783 1.082-3.574 1.956-5.222" style="display:inline;fill:none;stroke:#000;stroke-width:1.1;stroke-miterlimit:2;stroke-dasharray:none"/><path id="path355588" d="M1113.297-15.878c.08-4.371.1-8.742.119-13.112-.017-3.559.029-7.1-.05-10.656-.058-2.311-.056-4.646-.366-6.969" style="display:inline;fill:none;stroke:#000;stroke-width:1.1;stroke-miterlimit:2;stroke-dasharray:none"/><path id="path352583" d="M1096.88 74.174c.023-2.206-.11-4.42-.13-6.626-.029-3.405-.1-6.808.048-10.207.188-4.281-.254-5.12-.146-9.402.088-3.487.205-6.956.21-10.443 0-2.267-.208-7.987-.196-10.283l.033-6.117c.012-2.207-.339-9.583-.413-11.788-.114-3.403-.153-1.637-.09-5.038" style="display:inline;fill:none;stroke:#000;stroke-width:1.1;stroke-miterlimit:2;stroke-dasharray:none"/><path id="path352585" d="M1092.951 64.736c.862 2.25 1.694 4.512 2.57 6.748.563 1.497 1.225 2.984 1.528 4.566.131.836.395-.623.432-.656.56-2.059.992-4.152 1.46-6.237.412-1.578.914-3.116 1.416-4.653" style="display:inline;fill:none;stroke:#000;stroke-width:1.1;stroke-miterlimit:2;stroke-dasharray:none"/><path id="path352571" d="M230.276 77.616c-.025-.703-.002-.332-.038-1.095-.032-1.433.073-2.866.1-4.3 0-1.615-.467-3.238-.456-4.854.012-1.564.068-3.12.133-4.69.066-1.564-.07-3.127.02-4.702.096-1.663.13-2.809.052-4.477-.067-1.076.08-2.65.099-3.743l.064-3.657c.012-.704.123-3.519.155-4.282.024-1.434.028-2.779.007-4.212-.023-1.615-.062-3.326-.053-4.943-.05-1.562.179-3.117.104-4.686-.074-1.562.088-3.122-.011-4.696-.105-1.66.04-2.68.12-4.35.05-1.077-.344-2.812.036-3.876" style="display:inline;fill:none;stroke:#000;stroke-width:1.1;stroke-miterlimit:2;stroke-dasharray:none"/><path id="path352573" d="M224.631 63.88a178.302 178.302 0 0 1 1.885 4.577c1.094 2.759 2.267 5.5 3.219 8.323.132.481.23 1.548.811.57.79-1.643 1.17-3.425 1.693-5.161.44-1.404.922-2.8 1.608-4.102" style="display:inline;fill:none;stroke:#000;stroke-width:1.1;stroke-miterlimit:2;stroke-dasharray:none"/><path id="path353314" d="M231.078 15.512c-2.732-.073-4.614-.093-7.354.007-1.767.081-4.354-.046-6.148-.05l-6.008-.017a916.461 916.461 0 0 1-7.034-.1c-2.356-.005-4.565.008-6.918.047-2.654.045-5.463.106-8.118.117-2.567.07-5.122-.138-7.698-.043-2.566.094-5.13-.047-7.714.072-2.727.126-4.403-.006-7.146-.063-1.77-.037-4.579-.08-6.366.013-1.636.086-3.074.22-5.56.096-1.79-.09-2.633-.018-4.422-.07-2.046-.039-4.093-.077-6.141-.064-1.825.019-3.647.094-5.47.056-1.493-.015-2.984-.066-4.471-.055-1.617.034-3.234.067-4.855.05-1.648-.024-3.29-.037-4.932-.04-.81-.014-1.62-.033-2.414-.134" style="display:inline;fill:none;stroke:#000;stroke-width:1.1;stroke-miterlimit:2;stroke-dasharray:none"/><path id="path355584" d="m1096.237 5.038-8.056-.033c-2.906-.012-12.621.339-15.525.413-4.482.114-2.156.153-6.636.09-5.643-.08-11.286-.1-16.928-.118-4.594.017-9.165-.03-13.757.05-2.984.058-5.983.411-8.997.365l-7.846-.12a247.922 247.922 0 0 0-6.488-.039c-3.515.03-7.032.032-10.536-.018-4.413-.101-8.823-.142-13.235-.224-3.36-.082-6.72.178-10.08.086-2.933-.05-5.877.159-8.822.128a267.274 267.274 0 0 0-8.49-.15c-3.035.042-6.06-.275-9.097-.284-2.69-.006-5.393.086-8.082.13-2.41.038-4.832-.19-7.242-.142-2.223.034-4.457.13-6.682.114-2.426-.041-4.841-.288-7.253-.32-2.478-.01-4.941.135-7.404.175-1.864.017-3.726.105-5.578.082a179.789 179.789 0 0 0-5.703-.055c-2.077.021-4.157-.047-6.238-.135-2.201-.096-4.4-.101-6.596-.077-2.01.02-4.02.06-6.044.101-1.85.007-3.699.105-5.546.222-1.674.114-3.35.062-5.03.036-1.52-.04-5.3-.048-6.835-.118-1.668-.086-5.594-.052-7.26-.089-1.708-.076-5.649-.091-7.354-.087-1.731.005-3.448.27-5.178.304-2.012-.02-4.025-.059-6.039-.128-2.4-.082-4.798-.094-7.193-.026-2.314.107-4.629-.037-6.94.14-1.78.146-4.012-.124-5.794-.058-1.462.08-4.055.01-5.522-.041-.88-.013-4.95-.127-5.79-.14l-4.868.084c-1.602.14-3.2.313-4.816.309-3.347-.01-7.99-.199-11.974-.109-4.269.09-8.527.12-12.786.13-3.164-.03-6.329.04-9.493.11-3.184.08-6.369-.27-9.562-.29-3.185-.02-6.378.102-9.563.065-3.682-.043-7.364-.036-11.036-.04-4.015-.005-8.02.032-12.034 0-3.546-.028-7.09-.168-10.646-.19-2.871-.018-5.743.065-8.605-.076-2.021-.1-4.034-.004-6.056.016l-4.653.451c-1.488.145-3 0-4.495-.062a149.744 149.744 0 0 0-7.33-.102c-2.373.017-4.745.103-7.109.114-2.287.01-4.563 0-6.84-.063a198.72 198.72 0 0 0-7.22-.063c-2.306.02-4.62.092-6.926.06-2.189-.031-4.377-.022-6.576-.069-2.493-.052-4.976-.16-7.477-.178-2.423-.017-4.855.05-7.287.087-2.51.04-5.008-.348-7.506-.174-.42.029-.848.068-.99.083-3.111.033-6.523.071-9.922.109-4.762-.007-9.524-.034-14.272-.032-4.207-.023-8.397-.05-12.601.077-3.41.098-6.836-.017-10.247.031-3.452.028-6.88-.134-10.322-.265-3.839-.118-7.665.02-11.49-.107-3.705-.1-7.42-.018-11.121.123-3.238.146-6.49.262-9.729.338-3.306.017-6.6-.027-9.896-.12-3.017-.057-6.047-.123-9.078-.2-3.083-.055-6.178-.041-9.274-.087a384.159 384.159 0 0 0-9.59-.053c-3.135.015-6.269.05-9.403.084-3.226.046-6.455-.028-9.683-.052-2.844.011-5.662-.018-8.493-.076-2.45-.123-4.91-.166-7.36-.259-2.342-.074-4.686.28-7.029.207-2.316-.065-4.643-.059-6.958-.043-2.234.085-5.09.198-7.31.272-2.195.055-5.98.09-8.176.114-2.13-.037-4.26-.093-6.404-.12-1.932-.038-4.833.322-6.766.224-1.907-.11-5.086-.218-7.005-.267-1.905-.039-5.386-.008-7.292-.077l-6.639.673c-1.322-.19-9.737.127-11.09.068l-5.063.068c-2.555.12-5.11-.42-7.664-.33-2.69.13-7.409-.391-10.084-.231-2.99.11-5.966.14-8.942.22-3.381.09-6.763-.399-10.144-.349-3.532.07-7.064.21-10.596.29-3.591.07-7.168-.023-10.76-.063-3.697 0-7.394.489-11.076.449-3.622-.05-7.244-.13-10.866-.19h-10.895c-3.532 0-7.064 0-10.596-.03-3.952-.03-7.905.073-11.857-.017-4.088-.07-8.176-.05-12.263-.15l-8.3-.096c-2.554.12-5.11-.42-7.664-.33-2.69.13-7.408.106-10.084.266-2.99.11-5.966.14-8.942.22-3.381.09-6.762-.399-10.144-.349-3.532.07-7.063.21-10.595.29-3.592.07-7.169-.023-10.76-.063-3.698 0-7.395.489-11.077.449-3.622-.05-7.243-.13-10.865-.19H157.31c-3.532 0-7.063 0-10.595-.03-3.953-.03-7.905.073-11.858-.017-4.088-.07-8.175-.05-12.263-.15" style="display:inline;fill:none;stroke:#000;stroke-width:1.1;stroke-miterlimit:2;stroke-dasharray:none"/><rect id="rect362715" width="69.582" height="4.603" x="1226.892" y="301.22" rx="0" ry="0" style="fill:#f0f;stroke:none;stroke-width:1.1;stroke-miterlimit:2;stroke-dasharray:none"/><path id="path379664" d="M613.163 448.51c.88-3.156 2.42-6.214 3.644-9.276.331-.828.638-1.667.994-2.485.197-.453.475-.868.663-1.325.246-.598.205-1.365.662-1.822.229-.229.166.438.166.497v1.656c0 2.484.263 5 .662 7.454.745 4.573.583 3.11 1.657 6.792.167.573.828 2.392.828 2.982" style="fill:none;stroke:#000;stroke-width:1.1;stroke-miterlimit:2;stroke-dasharray:none"/><path id="path379670" d="m599.911 458.946-9.442-8.448" style="fill:none;stroke:#000;stroke-width:1.1;stroke-miterlimit:2;stroke-dasharray:none"/><path id="path379672" d="M629.396 503.173c.45-2.378 1.55-4.442 2.485-6.625.988-2.307-.76 1.42 1.325-2.982.818-1.726.2-.249.994-2.153.154-.37 1.503-3.645 1.656-3.645.166 0 0 .332 0 .497 0 1.338-.045.345.166 1.822.303 2.122.596 4.16 1.491 6.13 1.57 3.455-.373-1.313.828 1.49.22.514.422 1.01.663 1.491.06.122.112.61.165.663.04.039.11 0 .166 0" style="fill:none;stroke:#000;stroke-width:1.1;stroke-miterlimit:2;stroke-dasharray:none"/></g><g id="layer22" style="display:inline"><path id="path358641" d="M176.248 174.436c1.891 1.737 4.844 2.505 7.364 1.742 1.986-1.87-1.952-3.359-3.272-4.449-3.02-.9-1.86-4.265 1.052-3.295.74.173 1.547.425 2.054.998" style="display:inline;fill:none;stroke:#000;stroke-width:1.1;stroke-miterlimit:2;stroke-dasharray:none"/><path id="path358643" d="M195.82 169.131c2.363.742 4.758 3.971 2.395 5.91-2.83 2.08-8.12 1.018-8.916-2.557.238-3.051 4.105-4.507 6.895-4.52" style="display:inline;fill:none;stroke:#000;stroke-width:1.1;stroke-miterlimit:2;stroke-dasharray:none"/><path id="path358645" d="M186.996 176.449c-1.093-5.367-.807-10.887-.645-16.326.018-.373.037-.745.058-1.118" style="display:inline;fill:none;stroke:#000;stroke-width:1.1;stroke-miterlimit:2;stroke-dasharray:none"/><path id="path358647" d="M204.23 174.122c2.096 1.795 6.09 2.35 7.772-.235 1.508-3.214-3.693-6.92-6.39-4.31-2.832 2.785-3.584 6.893-3.756 10.632.12 1.59-.156 3.875.937 4.947.317-2.632-.07-5.364.012-8.037a264.838 264.838 0 0 0-.26-8.077" style="display:inline;fill:none;stroke:#000;stroke-width:1.1;stroke-miterlimit:2;stroke-dasharray:none"/><path id="path358690" d="M225.018 175.678c-2.95.658-6.603 1.377-9.148-.65-2.052-1.69-.617-4.7 1.52-5.63 1.427-1.435 6.699-.742 3.648 1.352-2.052.946-4.415.825-6.634.82" style="display:inline;fill:none;stroke:#000;stroke-width:1.1;stroke-dasharray:none;stroke-opacity:1"/><g id="g25940" style="display:inline;stroke-width:.777272;stroke-dasharray:none" transform="matrix(1.37645 0 0 1.45506 1485.035 4004.932)"><path id="path1754-4" d="M-902.967-2635.728c-.924 1.07-2.168 1.365-2.877-.068-1.278-.88-2.75.371-3.8 1.054" style="display:inline;fill:none;stroke:#000;stroke-width:.777272;stroke-miterlimit:2;stroke-dasharray:none"/><path id="path1756-8" d="M-903.1-2633.338c-1.141 1.9-2.412.215-3.696-.312-1.048-.078-1.986.56-2.83 1.096" style="display:inline;fill:none;stroke:#000;stroke-width:.777272;stroke-miterlimit:2;stroke-dasharray:none"/></g><path id="path706988-7" d="M261.357 160.75c.01.158.028.318.04.453.09.68.085 1.364.065 2.048-.011 1.78.036 3.562.04 5.342 0 1.93-.044 3.86-.074 5.79 0 .93-.014 1.865.084 2.793" style="display:inline;fill:none;stroke:#000;stroke-width:.999999;stroke-dasharray:none"/><path id="path1576-7" d="M258.022 170.394c-.987.12-2.05.085-3.061.132-2.14.01-4.277-.06-6.415-.094" style="display:inline;fill:none;stroke:#000;stroke-width:1.1;stroke-miterlimit:2;stroke-dasharray:none"/><path id="path374081" d="M271.582 167.382c3.344-.34 8.203-.147 12.036-.082 3.432.058 8.454-.137 11.99-.043 3.681.097 12.227-.303 15.49-.143 4.241.207 11.362.264 16.192.319 5.255.06 9.824-.684 16.28-.265 1.037.068 14.8.021 15.838.085 1.864.115 13.784-.702 15.536.09" style="display:inline;fill:none;stroke:#000;stroke-width:1.1;stroke-miterlimit:2;stroke-dasharray:none"/><path id="path374200" d="M85.523 173.156c4.758.03 10.913-.113 16.918-.11 6.111.001 12.068.147 16.238.231 6.167.126 10.973-.332 19.067-.22 5.89.08 13.712-.224 19.595-.053 1.671.048 8.713.26 11.784.053" style="display:inline;fill:none;stroke:#000;stroke-width:1.1;stroke-miterlimit:2;stroke-dasharray:none"/><path id="path376029" d="M374.622 166.718c-.01-3.42-.159-11.357.01-14.776.119-2.388.254-11.277.357-13.666.048-1.123-.584-12.343-.566-14.522.015-1.841.529-11.124-.029-13.642" style="display:inline;fill:none;stroke:#000;stroke-width:1.1;stroke-miterlimit:2;stroke-dasharray:none"/><path id="path374208" d="M272.246 170.677c6.219-.518 11.452.16 16.062-.273 5.975-.56 11.022-.17 15.717-.21 5.926-.05 12.971.28 17.676.383 4.389.095 9.607-.412 15.192-.116 1.542.082 8.399-.12 10.93-.203 4.302-.141 8.232-.404 14.026-.193 5.45.198 10.897-.177 16.342-.117 5.35.059 11.434.399 16.781.368 4.205-.025 9.083-.097 14.198-.01 2.689.046 8.216.015 14.494.213 3.43.108 9.288-.208 14.936-.23 6.777-.027 13.251.224 14.861.183 11.019-.274 19.528-.208 22.944-.196 5.97.02 14.335-.224 19.235-.102 3.915.097 10.719-.051 15.89-.034 8.18.027 15.584-.762 26.147.011 2.8.205 13.188.397 22.83.18 10.578-.239 14.497-.597 27.85-.386 12.133.192 16.475.438 27.267-.357 5.06-.373 18.458.444 23.53.264 1.337-.047 15.486-.364 25.081.08" style="display:inline;fill:none;stroke:#000;stroke-width:1.1;stroke-miterlimit:2;stroke-dasharray:none"/><path id="path374210" d="M82.211 113.762c.504-2.546.991-5.096 1.512-7.638.019-.091 1.273-4.97 1.578-4.559.326.44.26 1.82.405 2.307.295.984.66 1.946.989 2.919.266 1.063.502 2.134.798 3.19a50.442 50.442 0 0 0 1.503 4.492c.2.515.4.884.458 1.215" style="display:inline;fill:none;stroke:#000;stroke-width:1.1;stroke-miterlimit:2;stroke-dasharray:none"/><path id="path374212" d="M85.702 173.804c-.34-2.07-.494-4.26-.434-6.632.059-2.287.332-4.741-.043-7.418-.317-2.268-.302-8.38-.142-10.4.207-2.624.158-7.148.27-9.61.118-2.584-.518-6.486-.099-10.48.068-.642.021-9.157.085-9.8.115-1.152-.702-8.527.09-9.612" style="display:inline;fill:none;stroke:#000;stroke-width:1.1;stroke-miterlimit:2;stroke-dasharray:none"/><path id="path376023" d="M370.99 116.02c.637-1.34.865-2.12 1.046-2.673.468-1.428 1.028-2.827 1.394-4.29.257-1.027.566-2.042.776-3.082.018-.25.245-.806.379-.287.424 1.543.759 3.108 1.203 4.646.21.728.34 1.478.569 2.203.114.364.192 1.083.398 1.411.24.383.262.703.624 1.24" style="display:inline;fill:none;stroke:#000;stroke-width:1.1;stroke-miterlimit:2;stroke-dasharray:none"/><path id="path379299" d="M953.028 105.701c.003 4.03.135 13.387-.041 17.416-.124 2.815-.278 13.292-.386 16.108-.05 1.324.557 14.55.535 17.119-.019 2.17-.553 13.11 0 16.08" style="display:inline;fill:none;stroke:#000;stroke-width:1.1;stroke-miterlimit:2;stroke-dasharray:none"/><path id="path376025" d="M664.105 104.454c.505 6.336-.184 11.665.24 16.36.547 6.088-.352 11.258.176 16.01.51 4.595.047 11.53-.065 16.321-.104 4.47.277 9.697-.272 17.155" style="display:inline;fill:none;stroke:#000;stroke-width:1.1;stroke-miterlimit:2;stroke-dasharray:none"/><path id="path379295" d="M953.297 172c-7.543.27-13.887-.099-19.478.128-7.248.294-13.403-.188-19.06.095-5.471.273-13.727.025-19.433-.035-5.32-.056-11.545.148-20.424-.146-12.147-.402-15.545.177-23.28.18-4.175.002-13.871.073-18.046-.022-2.917-.067-13.773-.15-16.691-.207-1.372-.027-15.077.299-17.74.287-2.248-.01-13.572-.071-16.662 0l-8.42.193c-2.443.057-8.58-.12-10.54-.033-2.258.101-6.164-.154-7.998-.139-1.061.01-8.27.392-9.311.3-.414-.037-5.406-.304-5.82-.34-.865-.078-4.202.048-5.092.064-.717.013-6.266.258-6.983.27-1.925.036-6.234.261-8.14.093-.414-.037-6.187.048-6.6.01-1.831-.162-5.679-.196-7.419-.001-.676.076-6.504.198-6.987.127-.409-.06-6.812.106-7.226.07-2.537-.225-5.456-.203-8.025-.244-.859-.014-6.358.08-7.217.095-.589.011-5.762.205-6.351.215-.417.008-6.841-.321-7.257-.34-2.411-.106-5.49.075-7.819.118-2.167.039-5.853-.04-8.017-.136-1.852-.082-6.867.565-8.715.453-1.775-.108-6.702.052-8.45-.205-2.892-.427-5.281.053-9.5.13-3.072.056-6.654-.1-9.817-.24-1.536-.069-5.688-.083-7.39.047-1.946.147-9.63.042-11.9-.017-2.772-.071-9.375-.027-12.148-.075-5.855-.102-10.659.255-17.888.238-5.648-.013-12.344-.226-17.888-.075-4.712.128-10.71-.391-15.884-.193-2.842.109-10.355.298-13.203.27-1.317-.012-8.954.208-10.27.178-3.754-.085-6.645-.414-10.792-.354-1.995.03-6.45.434-8.758.417-1.85-.014-6.46-.12-7.935-.033-1.7.1-4.642-.154-6.022-.14-.8.01-6.227.392-7.01.3-.312-.037-4.07-.304-4.382-.34-.651-.077-3.163.048-3.834.064-.54.013-4.717-.093-5.257-.08-1.45.035-4.694.143-6.128-.025-.312-.037-4.658.047-4.97.01-1.378-.161-4.275-.079-5.585.116-.509.076-4.897.199-5.26.127-.308-.06-5.129.107-5.44.07-1.91-.225-4.108.149-6.042.108-.647-.014-4.787-.39-5.434-.373-.443.01-4.338.204-4.782.215-.313.008-4.068-.205-4.381-.223-1.815-.107-4.134.309-5.887.351-1.631.04-4.406-.04-6.036-.135-1.394-.082-5.17.213-6.561.101-1.336-.107-5.046.053-6.361-.205-2.178-.427-3.977-.064-7.154.013-2.312.056-6.091.016-8.472-.123-1.157-.068-4.282-.082-5.564.047-1.465.148-7.25.043-8.959-.016-2.087-.072-7.059.44-9.146.392-4.408-.101-8.025-.096-13.467-.113-4.253-.013-9.303-.057-13.468.277-4.522.362-8.064-.392-11.959-.193-2.14.109-7.796.298-9.94.27-.992-.012-6.743.09-7.731.178-4.333.383-4.915.149-9.81.115" style="display:inline;fill:none;stroke:#000;stroke-width:1.1;stroke-miterlimit:2;stroke-dasharray:none"/><path id="path379674" d="M659.008 119.531c.098-.34 1.177-1.947 1.481-2.822.845-.057.257-.614.335-.856.742-2.364 1.5-4.726 2.186-7.106.317-1.443.554-2.906.93-4.334.524.317.413 1.279.658 1.844.697 2.53 1.672 4.973 2.583 7.431a54.543 54.543 0 0 0 1.963 4.592c.145.355.335.703.394 1.085" style="display:inline;fill:none;stroke:#000;stroke-width:1.1;stroke-miterlimit:2;stroke-dasharray:none"/><path id="path386267" d="M949.882 114.634c.126-1.728 1.107-3.23 1.46-4.906.37-1.475.531-3.014 1.16-4.411.077-.583.22-1.151.496-1.674.102-.22.158-.87.282-.262.062 1.622.395 3.215.828 4.775.838 3.295 1.818 6.586 3.377 9.62.19.29.5.527.557.887" style="display:inline;fill:none;stroke:#000;stroke-width:1.1;stroke-miterlimit:2;stroke-dasharray:none"/></g><g id="g311745"><path id="rect308185" d="M1212.894 193.129h20.754v43.91h-20.754z" style="display:inline;fill:#f0f;stroke-width:1.1;stroke-miterlimit:2"/><path id="rect308492" d="M1208.547 235.179h25.101v1.86h-25.101z" style="display:inline;fill:#f0f;stroke-width:1.1;stroke-miterlimit:2"/></g></svg>