<svg xmlns="http://www.w3.org/2000/svg" id="svg171797" width="480" height="130" preserveAspectRatio="none" version="1.1" viewBox="-10 -10 480 130"><style id="style171643" type="text/css">.grid{stroke:#9e9ed1;stroke-width:.4}.notch-labels-in-grid{stroke:none;fill:#b8b8de}.graph,.graph-blue{stroke:red;stroke-width:1.7;fill:none}.graph-blue{stroke:#00f}.graph-green,.graph-yellow{stroke:#dd0;stroke-width:1.7;fill:none}.graph-green{stroke:#0c0}</style><defs id="defs171655"><path id="STIXWEBMAIN-2212" stroke-width="1" d="M621 220H64v66h557z"/><path id="STIXWEBMAIN-31" stroke-width="1" d="M394 0H118v15c74 4 95 25 95 80v449c0 34-9 49-30 49-10 0-27-5-45-12l-27-10v14l179 91 9-3V76c0-43 20-61 95-61z"/><path id="STIXWEBMAIN-32" stroke-width="1" d="M474 137 420 0H29v12l178 189c94 99 130 175 130 260 0 91-54 141-139 141-72 0-107-32-147-130l-21 5c21 117 85 199 208 199 113 0 185-77 185-176 0-79-39-154-128-248L130 76h234c42 0 63 11 96 67z"/><path id="STIXWEBMAIN-39" stroke-width="1" d="M59-22 56-2c152 27 264 132 304 296-43-42-91-57-150-57-108 0-180 81-180 203 0 135 89 236 208 236 64 0 118-28 157-76 40-50 64-122 64-206 0-115-40-224-120-297C254 20 189-4 59-22Zm303 377v39c0 168-45 254-132 254-30 0-56-12-73-34-20-27-35-86-35-140 0-119 48-194 123-194 44 0 117 22 117 75z"/><path id="STIXWEBMAIN-36" stroke-width="1" d="m446 684 2-16c-157-26-269-134-296-285 49 38 83 45 127 45 117 0 189-80 189-209 0-64-18-120-51-160-37-46-93-73-159-73-79 0-142 37-177 101-28 51-47 122-47 192 0 108 38 203 109 276 86 90 165 114 303 129zm-68-496c0 128-42 194-135 194-57 0-116-24-116-116 0-152 48-252 142-252 72 0 109 72 109 174z"/><path id="STIXWEBMAIN-33" stroke-width="1" d="m61 510-16 4c29 95 92 162 196 162 93 0 156-55 156-137 0-48-26-98-93-138 44-19 62-31 83-53 28-31 44-77 44-129 0-53-17-102-46-140-48-64-143-93-232-93C80-14 41 7 41 43c0 21 18 36 41 36 17 0 33-6 61-26 37-26 58-31 86-31 74 0 130 68 130 153 0 76-35 125-104 145-22 7-45 10-102 10v14c38 13 64 24 84 36 49 28 81 73 81 134 0 68-42 102-108 102-62 0-108-32-149-106z"/><path id="STIXWEBMAIN-30" stroke-width="1" d="M476 330c0-172-63-344-226-344C79-14 24 172 24 336c0 177 69 340 230 340 131 0 222-141 222-346Zm-96-5c0 208-44 325-132 325-83 0-128-118-128-321S164 12 250 12c85 0 130 115 130 313z"/></defs><g id="graphs" style="display:inline"><path id="path171714" d="M98.757 87.82h262.486" style="display:inline;stroke-width:.9;stroke-dasharray:none;stroke:#000"/><g id="g171782" clip-path="none" style="stroke-width:1.43873;stroke-dasharray:none" transform="matrix(1.66815 0 0 1.66815 -733.022 -27.283)"><path id="path19332" d="M505.08 68.963C529.153 44.89 553.227 23 577.3 23s48.147 21.89 72.22 45.963" style="fill:none;stroke:red;stroke-width:1.43873;stroke-dasharray:none"/></g><path id="path6180" d="M-785.035-2.375h62.364" style="fill:#ffd5d5;stroke:#e3b3ff;stroke-width:8;stroke-miterlimit:2;stroke-dasharray:none;stroke-opacity:1"/><g id="g26300" clip-path="none" style="stroke:#ff8100;stroke-width:1.43873;stroke-dasharray:none;stroke-opacity:.60000002" transform="matrix(1.66815 0 0 -1.66815 -492.074 202.8)"><path id="path26298" d="M505.08 68.963c4.31-4.309 8.618-8.548 12.928-12.604" style="fill:none;stroke:#ff8100;stroke-width:1.43873;stroke-dasharray:none;stroke-opacity:.60000002"/></g><g id="g27030" clip-path="none" style="stroke:#ff8100;stroke-width:1.43873;stroke-dasharray:none;stroke-opacity:.8" transform="matrix(1.66815 0 0 -1.66815 -1748.057 -11.261)"><path id="path27028" d="M577.3 23c24.073 0 48.147 21.89 72.22 45.963" style="fill:none;stroke:#ff8100;stroke-width:1.43873;stroke-dasharray:none;stroke-opacity:.8"/></g><g id="g27065" clip-path="none" style="stroke:#ff8100;stroke-width:1.43873;stroke-dasharray:none;stroke-opacity:.8" transform="matrix(1.66815 0 0 -1.66815 -1602.847 -184.286)"><path id="path27063" d="M505.08 68.963C529.153 44.89 553.227 23 577.3 23" style="fill:none;stroke:#ff8100;stroke-width:1.43873;stroke-dasharray:none;stroke-opacity:.8"/></g><g id="g27123" clip-path="none" style="stroke:#ff8100;stroke-width:1.43873;stroke-dasharray:none;stroke-opacity:.60000002" transform="matrix(-1.66815 0 0 -1.66815 952.074 202.8)"><path id="path27121" d="M505.08 68.963c4.31-4.309 8.618-8.548 12.928-12.604" style="fill:none;stroke:#ff8100;stroke-width:1.43873;stroke-dasharray:none;stroke-opacity:.60000002"/></g><path id="path27921" d="m-865.516-294.17 7.398-7.197" style="display:inline;fill:none;fill-opacity:1;stroke:#121212;stroke-width:.700001;stroke-miterlimit:2;stroke-dasharray:none;stroke-dashoffset:0;stroke-opacity:1"/><path id="path27925" d="m-863.152-291.59 7.398-7.198" style="display:inline;fill:none;fill-opacity:1;stroke:#121212;stroke-width:.700001;stroke-miterlimit:2;stroke-dasharray:none;stroke-dashoffset:0;stroke-opacity:1"/><path id="path27927" d="m-857.564-286.54 7.399-7.197" style="display:inline;fill:none;fill-opacity:1;stroke:#121212;stroke-width:.700001;stroke-miterlimit:2;stroke-dasharray:none;stroke-dashoffset:0;stroke-opacity:1"/><path id="path27929" d="m-855.307-284.067 7.398-7.198" style="display:inline;fill:none;fill-opacity:1;stroke:#121212;stroke-width:.700001;stroke-miterlimit:2;stroke-dasharray:none;stroke-dashoffset:0;stroke-opacity:1"/><g id="g28054" clip-path="none" style="stroke:#ff8100;stroke-width:1.43873;stroke-dasharray:none;stroke-opacity:.9" transform="matrix(1.66815 0 0 -1.66815 -1671.431 -185.623)"><path id="path28064" d="M514.37 59.823a439.163 439.163 0 0 1 3.638-3.464" style="fill:none;stroke:#ff8100;stroke-width:1.43873;stroke-dasharray:none;stroke-opacity:.9"/><path id="path28060" d="M509.927 64.152a605.86 605.86 0 0 1 3.041-2.973" style="fill:none;stroke:#ff8100;stroke-width:1.43873;stroke-dasharray:none;stroke-opacity:.9"/><path id="path28052" d="M505.08 68.963a920.75 920.75 0 0 1 3.426-3.409" style="fill:none;stroke:#ff8100;stroke-width:1.43873;stroke-dasharray:none;stroke-opacity:.9"/></g><g id="g28844" clip-path="none" style="stroke:#ff8100;stroke-width:1.43873;stroke-dasharray:none;stroke-opacity:.9" transform="matrix(-1.66815 0 0 -1.66815 164.45 -62.106)"><path id="path28838" d="M514.37 59.823a439.163 439.163 0 0 1 3.638-3.464" style="fill:none;stroke:#ff8100;stroke-width:1.43873;stroke-dasharray:none;stroke-opacity:.9"/><path id="path28840" d="M509.927 64.152a605.86 605.86 0 0 1 3.041-2.973" style="fill:none;stroke:#ff8100;stroke-width:1.43873;stroke-dasharray:none;stroke-opacity:.9"/><path id="path28842" d="M505.08 68.963a920.75 920.75 0 0 1 3.426-3.409" style="fill:none;stroke:#ff8100;stroke-width:1.43873;stroke-dasharray:none;stroke-opacity:.9"/></g></g></svg>