<svg xmlns="http://www.w3.org/2000/svg" xmlns:xlink="http://www.w3.org/1999/xlink" id="svg171797" width="700" height="480" preserveAspectRatio="none" version="1.1" viewBox="-10 -10 700 480"><style id="style171643" type="text/css">.axes{stroke:#000;stroke-width:.9}</style><defs id="defs171655"><path id="STIXWEBMAIN-2212" stroke-width="1" d="M621 220H64v66h557z"/><path id="STIXWEBMAIN-31" stroke-width="1" d="M394 0H118v15c74 4 95 25 95 80v449c0 34-9 49-30 49-10 0-27-5-45-12l-27-10v14l179 91 9-3V76c0-43 20-61 95-61z"/><path id="STIXWEBMAIN-32" stroke-width="1" d="M474 137 420 0H29v12l178 189c94 99 130 175 130 260 0 91-54 141-139 141-72 0-107-32-147-130l-21 5c21 117 85 199 208 199 113 0 185-77 185-176 0-79-39-154-128-248L130 76h234c42 0 63 11 96 67z"/><path id="STIXWEBMAIN-39" stroke-width="1" d="M59-22 56-2c152 27 264 132 304 296-43-42-91-57-150-57-108 0-180 81-180 203 0 135 89 236 208 236 64 0 118-28 157-76 40-50 64-122 64-206 0-115-40-224-120-297C254 20 189-4 59-22Zm303 377v39c0 168-45 254-132 254-30 0-56-12-73-34-20-27-35-86-35-140 0-119 48-194 123-194 44 0 117 22 117 75z"/><path id="STIXWEBMAIN-36" stroke-width="1" d="m446 684 2-16c-157-26-269-134-296-285 49 38 83 45 127 45 117 0 189-80 189-209 0-64-18-120-51-160-37-46-93-73-159-73-79 0-142 37-177 101-28 51-47 122-47 192 0 108 38 203 109 276 86 90 165 114 303 129zm-68-496c0 128-42 194-135 194-57 0-116-24-116-116 0-152 48-252 142-252 72 0 109 72 109 174z"/><path id="STIXWEBMAIN-33" stroke-width="1" d="m61 510-16 4c29 95 92 162 196 162 93 0 156-55 156-137 0-48-26-98-93-138 44-19 62-31 83-53 28-31 44-77 44-129 0-53-17-102-46-140-48-64-143-93-232-93C80-14 41 7 41 43c0 21 18 36 41 36 17 0 33-6 61-26 37-26 58-31 86-31 74 0 130 68 130 153 0 76-35 125-104 145-22 7-45 10-102 10v14c38 13 64 24 84 36 49 28 81 73 81 134 0 68-42 102-108 102-62 0-108-32-149-106z"/><path id="STIXWEBMAIN-30" stroke-width="1" d="M476 330c0-172-63-344-226-344C79-14 24 172 24 336c0 177 69 340 230 340 131 0 222-141 222-346Zm-96-5c0 208-44 325-132 325-83 0-128-118-128-321S164 12 250 12c85 0 130 115 130 313z"/></defs><g id="graphs" style="display:inline"><path id="path151955" d="M552.06 213.088c7.133-2.186 8.152-13.712 7.444-20.378-1.178-11.087-9.152-23.1-20.725-30.25-7.686-4.747-17.862-7.169-28.676-6.293-7.214.584-12.23 2.929-15.524 4.974-2.598 1.614-3.375 2.314-3.217 2.607.588.57 1.636-.81 1.601-1.851-.183-5.558-4.26-13.022-14.985-19.496-10.754-6.49-28.11-9.034-43.571-7.074-10.137 1.284-19.365 4.011-25.6 8.194-7.704 5.17-12.5 13.018-10.365 17.67.537 1.17.289 1.389.17 1.062.808-.618.683-1.169-.14-1.99-4.079-4.07-12.788-7.423-20.05-9.1-13.94-3.219-31.091-1.177-47.034 6.748-9.61 4.777-18.814 13.877-22.967 23.323-5.067 11.523-3.397 24.2 1.534 30.902 1.516 2.062 4.35 4.278 5.053 3.357.771-.886-1-2.009-2.672-2.305-2.743-.487-8.136-.844-14.103 1.388-5.536 2.072-10.859 5.573-14.861 10.024-4.24 4.716-8.173 14.372-7.298 21.501 1.098 8.936 3.866 13.168 8.163 17.78 5.214 5.594 11.289 8.416 14.26 9.557 2.133.82 2.652.903 3.257.387.993-1.14.815-2.096-1.263-.445-3.607 2.864-4.963 12.216-3.24 19.815 2.235 9.86 10.035 20.758 19.12 27.427 10.663 7.829 22.103 12.073 34.54 13.068 11.85.949 22.672-3.007 26.537-6.412 1.172-.93 2.463-1.889 2.107-2.687-1.2-.618-1.424-.204-1.22 2.029.776 8.542 13.53 15.438 25.614 18.931 16.99 4.911 37.806 5.12 55.018 2.212 15.074-2.545 26.805-7.837 35.178-16.252 2.301-2.313 3.051-4.735 2.641-6.161l-1.436.094c2.28 4.37 14.297 8.07 23.477 8.503 11.204.527 24.744-2.8 32.315-7.257 9.82-5.78 20.938-15.84 17.626-30.995-.96-4.394-2.465-7.043-5.718-9.743-.646-.537-1.055-.819-.817-.002 1.33.328 3.683-.198 5.659-1.288 4.287-2.364 8.56-6.372 11.936-11.475 2.586-3.91 6.649-14.34 4.73-27.03-2.273-15.023-13.417-26.202-24.716-31.398-4.265-1.96-7.833-2.09-7.833-2.09" style="fill:#e5f6ff;fill-opacity:1;stroke:#000;stroke-width:1;stroke-miterlimit:2;stroke-dasharray:none"/><path id="path130145" d="M-256.243-125.057c.487-.806.303-1.79-1.76-.064-3.582 2.994-4.881 14.167-3.117 21.978 2.29 10.133 10.137 21.271 19.241 28.036 10.687 7.94 22.107 11.764 34.54 12.387 10.37.52 20.704-2.11 24.502-3.998 1.348-.67 2.41-1.118 2.27-1.84-.866-.513-.407-.619-.122 1.318.647 4.395 12.031 13.023 26.977 16.66 14.03 3.413 32.787 2.299 47.102-.853 12.537-2.76 19.292-7.37 23.684-11.81 2.038-2.06 5.179-6.38 4.663-7.82l-1.202-.053c2.925 4.284 14.696 8.82 26.805 9.006 8.91.138 23.053-1.438 34.605-8.05C-6.335-76.865-.351-85.39 2.072-93.23c1.385-4.48 2.243-13.524-.19-15.79 3.28 1.107 6.542.18 9.352-1.986 2.231-1.72 6.846-5.413 9.177-10.846 1.792-4.18 5.352-12.21 3.924-26.295-1.698-16.76-11.755-30.209-23.368-35.498-4.263-1.941-7.412-2.076-7.412-2.076" style="fill:#e5f6ff;fill-opacity:1;stroke:#000;stroke-width:.999997;stroke-miterlimit:2;stroke-dasharray:none"/><path id="path130143" d="M-244.672-182.059c.934-1.036.446-1.23-1.032-1.495-2.424-.435-5.668-.736-12.44 1.896-4.92 1.912-9.12 4.918-12.501 9.331-3.651 4.765-6.638 12.897-6.103 20.43.513 7.217 2.184 11.795 6.5 17.124 4.725 5.836 9.547 7.927 12.175 8.985 1.888.76 2.346.833 2.372.73" style="fill:#e5f6ff;fill-opacity:1;stroke:#000;stroke-width:.999997;stroke-miterlimit:2;stroke-dasharray:none"/><path id="path130141" d="M-161.013-234.827c1.292-.342 1.154-.404.427-1.228-2.69-3.046-12.87-6.399-19.977-7.569-13.314-2.19-31.83-1.468-46.318 6.437-9.298 5.074-17.77 12.494-21.903 21.457-5.04 10.935-3.984 24.757.442 31.287 1.361 2.008 2.732 3.429 3.683 2.39" style="fill:#e5f6ff;fill-opacity:1;stroke:#000;stroke-width:1;stroke-miterlimit:2;stroke-dasharray:none"/><path id="path130203" d="M-62.397-234.795c.848.751 1.468 1.124 1.402.084-.436-6.854-8.927-15.426-23.524-20.565-21.341-7.515-45.44-5.084-60.419 2.908-8.882 4.74-16.48 12.829-17.084 16.853-.192 1.275.571.877 1.027.765" style="fill:#e5f6ff;fill-opacity:1;stroke:#000;stroke-width:.999997;stroke-miterlimit:2;stroke-dasharray:none"/><path id="path116775" d="M-6.982-184.765c9.404 1.56 10.801-8.049 10.157-14.505-1.196-11.973-11.01-26.682-23.737-35.033-7.462-4.897-19.396-7.484-30.129-5.805-5.182.811-8.581 2.192-9.805 2.963-2.574 1.62-2.28 1.863-1.9 2.35" style="fill:#e5f6ff;fill-opacity:1;stroke:#000;stroke-width:.999997;stroke-miterlimit:2;stroke-dasharray:none"/><path id="path66331" d="M-354.452 849.066c8.517 1.524 9.795-7.456 9.219-13.5-1.068-11.209-9.94-25.036-21.458-32.934-6.754-4.63-17.56-7.132-27.285-5.633-4.696.724-7.777 1.993-8.886 2.705-2.334 1.499-2.067 1.728-1.725 2.187.767.708 1.328 1.061 1.27.088-.387-6.415-15.809-15.365-29.477-18.815-38.943-9.83-81.705-1.586-108.143 11.579-8.99 4.476-28.988 19.022-33.176 27.722-5.108 10.613-11.92 20.516-7.523 26.943 1.352 1.976 2.716 3.38 3.658 2.407.908-.917.428-1.102-1.027-1.365-2.385-.43-5.58-.746-12.264 1.609-4.857 1.71-9.009 4.442-12.363 8.485-3.622 4.365-6.607 11.851-6.12 18.826.468 6.681 2.09 10.935 6.312 15.915 4.624 5.453 9.362 7.444 11.945 8.453 1.856.726 2.307.798 2.776.407.87-1.035.703-1.957-1.236-.365-3.365 2.761-4.63 11.777-3.023 19.102 2.086 9.505 9.364 20.012 17.841 26.44 9.95 7.548 20.609 11.251 32.23 11.972 9.694.602 19.372-1.743 22.933-3.467 1.264-.612 2.26-1.02 1.927-1.71-1.124-.5-.607-.59-.539 1.199.153 4.06 10.38 10.723 26.1 14.183 14.43 3.175 35.18 3.508 51.484 2.5 19.492-1.207 53.154-6.435 75.08-16.323 11.713-5.283 22.254-15.105 26.435-23.574 2.67-5.409 2.774-12.894-.478-14.862l-1.027.547c1.209.554 3.838-.843 5.389-1.96 2.263-1.63 5.189-4.438 7.809-9.292 2.257-4.182 5.272-13.52 3.349-25.95-2.412-15.59-11.867-27.978-22.874-32.653-4.04-1.716-6.987-1.77-6.987-1.77" style="fill:#e5f6ff;fill-opacity:1;stroke:#000;stroke-width:.999997;stroke-miterlimit:2;stroke-dasharray:none"/><path id="path6180" d="M-785.035-2.375h62.364" style="fill:#ffd5d5;stroke:#e3b3ff;stroke-width:8;stroke-miterlimit:2;stroke-dasharray:none;stroke-opacity:1"/><g id="g27030" clip-path="none" style="stroke:#ff8100;stroke-width:1.43873;stroke-dasharray:none;stroke-opacity:.8" transform="matrix(1.66815 0 0 -1.66815 -1748.057 -11.261)"><path id="path27028" d="M577.3 23c24.073 0 48.147 21.89 72.22 45.963" style="fill:none;stroke:#ff8100;stroke-width:1.43873;stroke-dasharray:none;stroke-opacity:.8"/></g><g id="g27065" clip-path="none" style="stroke:#ff8100;stroke-width:1.43873;stroke-dasharray:none;stroke-opacity:.8" transform="matrix(1.66815 0 0 -1.66815 -1602.847 -184.286)"><path id="path27063" d="M505.08 68.963C529.153 44.89 553.227 23 577.3 23" style="fill:none;stroke:#ff8100;stroke-width:1.43873;stroke-dasharray:none;stroke-opacity:.8"/></g><path id="path27921" d="m-865.516-294.17 7.398-7.197" style="display:inline;fill:none;fill-opacity:1;stroke:#121212;stroke-width:.700001;stroke-miterlimit:2;stroke-dasharray:none;stroke-dashoffset:0;stroke-opacity:1"/><path id="path27925" d="m-863.152-291.59 7.398-7.198" style="display:inline;fill:none;fill-opacity:1;stroke:#121212;stroke-width:.700001;stroke-miterlimit:2;stroke-dasharray:none;stroke-dashoffset:0;stroke-opacity:1"/><path id="path27927" d="m-857.564-286.54 7.399-7.197" style="display:inline;fill:none;fill-opacity:1;stroke:#121212;stroke-width:.700001;stroke-miterlimit:2;stroke-dasharray:none;stroke-dashoffset:0;stroke-opacity:1"/><path id="path27929" d="m-855.307-284.067 7.398-7.198" style="display:inline;fill:none;fill-opacity:1;stroke:#121212;stroke-width:.700001;stroke-miterlimit:2;stroke-dasharray:none;stroke-dashoffset:0;stroke-opacity:1"/><g id="g28054" clip-path="none" style="stroke:#ff8100;stroke-width:1.43873;stroke-dasharray:none;stroke-opacity:.9" transform="matrix(1.66815 0 0 -1.66815 -1671.431 -185.623)"><path id="path28064" d="M514.37 59.823a439.163 439.163 0 0 1 3.638-3.464" style="fill:none;stroke:#ff8100;stroke-width:1.43873;stroke-dasharray:none;stroke-opacity:.9"/><path id="path28060" d="M509.927 64.152a605.86 605.86 0 0 1 3.041-2.973" style="fill:none;stroke:#ff8100;stroke-width:1.43873;stroke-dasharray:none;stroke-opacity:.9"/><path id="path28052" d="M505.08 68.963a920.75 920.75 0 0 1 3.426-3.409" style="fill:none;stroke:#ff8100;stroke-width:1.43873;stroke-dasharray:none;stroke-opacity:.9"/></g><g id="g28844" clip-path="none" style="stroke:#ff8100;stroke-width:1.43873;stroke-dasharray:none;stroke-opacity:.9" transform="matrix(-1.66815 0 0 -1.66815 164.45 -62.106)"><path id="path28838" d="M514.37 59.823a439.163 439.163 0 0 1 3.638-3.464" style="fill:none;stroke:#ff8100;stroke-width:1.43873;stroke-dasharray:none;stroke-opacity:.9"/><path id="path28840" d="M509.927 64.152a605.86 605.86 0 0 1 3.041-2.973" style="fill:none;stroke:#ff8100;stroke-width:1.43873;stroke-dasharray:none;stroke-opacity:.9"/><path id="path28842" d="M505.08 68.963a920.75 920.75 0 0 1 3.426-3.409" style="fill:none;stroke:#ff8100;stroke-width:1.43873;stroke-dasharray:none;stroke-opacity:.9"/></g><path id="path49103" d="m-3.468-337.592 85.262-14.468 120.004-14.914 83.408 27.68 17.873 54.877 2.553 51.181-9.362 51.801-89.03 31.49-139.063-1.702-72.343-19.575-7.66-52.652-10.213-49.905z" style="display:inline;fill:#e5f6ff;fill-opacity:1;stroke:#000;stroke-width:1;stroke-miterlimit:2;stroke-dasharray:none;stroke-opacity:1"/><path id="path22668-4" d="M744.389 187.902c-4.161-4.519-7.845-10.695-7.032-17.46 1.145-9.52 7.683-16.98 14.637-22.035 7.146-5.195 15.946-7.603 24.43-6.298 8.944 1.375 16.73 7.992 21.079 16.713 4.69 9.407 5.096 21.528-.08 30.762-2.586 4.612-6.009 8.759-10.423 11.248-8.048 4.54-17.827 4.37-26.116.859-7.08-3-13.808-8.342-17.155-16.114" style="display:inline;fill:#e5f6ff;fill-opacity:1;stroke:#000;stroke-width:1;stroke-miterlimit:10;stroke-dasharray:none;stroke-opacity:1"/><path id="path52320" d="M824.532 163.55c1.741-1.471 4.087-2.737 6.576-2.322 3.503.585 6.153 3.14 7.907 5.809 1.803 2.742 2.547 6.053 1.923 9.185-.658 3.3-3.235 6.084-6.534 7.554-3.558 1.586-8.048 1.534-11.378-.544-1.663-1.038-3.14-2.38-3.987-4.062-1.545-3.067-1.32-6.699.118-9.72 1.227-2.582 3.316-4.993 6.246-6.107" style="display:inline;fill:#e5f6ff;fill-opacity:1;stroke:#000;stroke-width:1;stroke-miterlimit:10;stroke-dasharray:none;stroke-opacity:1"/><g id="g64181" transform="translate(0 -452.22)"><path id="path46252" d="M309.803 296.773H502.53" style="stroke:#9e9ed1;stroke-width:.98;stroke-dasharray:none"/><path id="path171711" d="M309.803 189.345H502.53" style="stroke:#9e9ed1;stroke-width:.980007;stroke-dasharray:none"/><path id="path171714" d="M309.803 243.059h193.321" class="axes" style="display:inline;stroke-width:.63;stroke-dasharray:none"/><g id="g171782" clip-path="none" style="stroke-width:1.43873;stroke-dasharray:none" transform="matrix(1.1677 0 0 1.1677 -267.652 162.487)"><path id="path19332" d="M505.08 68.963C529.153 44.89 553.227 23 577.3 23s48.147 21.89 72.22 45.963" style="fill:none;stroke:red;stroke-width:1.43873;stroke-dasharray:none"/></g><g id="g26300" clip-path="none" style="stroke:#ff8100;stroke-width:1.43873;stroke-dasharray:none;stroke-opacity:.6" transform="matrix(1.1677 0 0 -1.1677 -98.989 323.545)"><path id="path26298" d="M505.08 68.963c4.31-4.309 8.618-8.548 12.928-12.604" style="fill:none;stroke:#ff8100;stroke-width:1.43873;stroke-dasharray:none;stroke-opacity:.6"/></g><g id="g27123" clip-path="none" style="stroke:#ff8100;stroke-width:1.43873;stroke-dasharray:none;stroke-opacity:.6" transform="matrix(-1.1677 0 0 -1.1677 911.916 323.545)"><path id="path27121" d="M505.08 68.963c4.31-4.309 8.618-8.548 12.928-12.604" style="fill:none;stroke:#ff8100;stroke-width:1.43873;stroke-dasharray:none;stroke-opacity:.6"/></g><circle id="path42897" cx="321.538" cy="189.345" r="4.189" style="fill:#00f;stroke:none;stroke-width:.63;stroke-miterlimit:2;stroke-opacity:.6"/><circle id="circle43627" cx="406.464" cy="243.059" r="4.189" style="fill:#00f;stroke:none;stroke-width:.63;stroke-miterlimit:2;stroke-opacity:.6"/><circle id="circle43629" cx="490.795" cy="296.773" r="4.189" style="fill:#00f;stroke:none;stroke-width:.63;stroke-miterlimit:2;stroke-opacity:.6"/><path id="path43685" d="m321.538 189.345 169.257 107.428" style="fill:#00f;stroke:#00f;stroke-width:1.68;stroke-miterlimit:2;stroke-dasharray:none;stroke-opacity:1"/></g><path id="path64183" d="M357.478 297.236h168.663" style="stroke:#9e9ed1;stroke-width:.98;stroke-dasharray:none"/><path id="path64185" d="M356.884 189.807h169.257" style="stroke:#9e9ed1;stroke-width:.980007;stroke-dasharray:none"/><path id="path64187" d="M357.435 243.522h168.706" class="axes" style="display:inline;stroke-width:.63;stroke-dasharray:none"/><g id="g64191" clip-path="none" style="stroke-width:1.54149;stroke-dasharray:none" transform="matrix(1.1677 0 0 1.1677 -232.306 162.95)"><path id="path64189" d="M505.08 68.963C529.153 44.89 553.227 23 577.3 23s48.147 21.89 72.22 45.963" style="fill:none;stroke:red;stroke-width:1.54149;stroke-dasharray:none"/></g><circle id="circle64203" cx="441.81" cy="243.522" r="4.189" style="fill:#00f;stroke:none;stroke-width:.63;stroke-miterlimit:2;stroke-opacity:.6"/><circle id="circle64201" cx="357.478" cy="189.807" r="4.189" style="fill:#00f;stroke:none;stroke-width:.5;stroke-miterlimit:2;stroke-dasharray:none;stroke-opacity:.6"/><circle id="circle64205" cx="526.141" cy="297.236" r="4.189" style="fill:#00f;stroke:none;stroke-width:.5;stroke-miterlimit:2;stroke-dasharray:none;stroke-opacity:.6"/><path id="path2930" d="M525.43 297.236 357.435 189.807" style="fill:#e5f6ff;stroke:#00f;stroke-width:1.8;stroke-miterlimit:2;stroke-dasharray:none"/><g id="g8620" style="display:inline;fill:#b8b8de;fill-opacity:1" transform="translate(-16.152 62.254) scale(1.215)"><use xlink:href="#STIXWEBMAIN-2212" id="use8616" x="0" y="0" style="display:inline;fill:#b8b8de;fill-opacity:1" transform="matrix(.01656 0 0 -.01656 274.917 197.349)"/><use xlink:href="#STIXWEBMAIN-31" id="use8618" style="display:inline;fill:#b8b8de;fill-opacity:1" transform="matrix(.01656 0 0 -.01656 286.264 197.349)"/></g><use xlink:href="#STIXWEBMAIN-31" id="use171721" style="display:inline;fill:#b8b8de;fill-opacity:1" transform="matrix(.02013 0 0 -.02013 331.66 194.803)"/><use xlink:href="#STIXWEBMAIN-30" id="use171765" x="0" y="0" style="display:inline;fill:#b8b8de;fill-opacity:1" transform="matrix(.02012 0 0 -.02012 330.012 249.255)"/><path id="path48334" d="M-362.674 88.273c-11.2 2.604-22.753 3.3-34.187 4.187-11.945.68-23.965 1.38-35.902.16-7.439-.76-10.632-1.537-17.87-2.934-2.785-.824-5.625-1.482-8.355-2.472-2.681-.973-5.287-2.155-7.85-3.406-5.252-2.563-8.642-4.482-12.726-8.72-4.156-4.313-5.301-7.125-8.152-12.243-.696-2.407-1.62-4.76-2.088-7.221-1.357-7.129-1.07-14.738 1.163-21.65 1.817-5.628 3.186-7.328 6.131-12.29 4.782-6.2 10.838-11.52 18.098-14.626 2.818-1.205 4.274-1.392 7.13-2.004 1.272-.25 7.337-.174 6.024 2.704-.132.29-.379.511-.568.767-4.947 2.707-10.126-.966-14.28-3.525-5.715-4.14-11.056-8.874-15.585-14.304-3.033-3.636-4.154-5.488-6.783-9.36-1.7-3.202-3.847-6.586-4.42-10.274-.94-6.04 1.34-13.244 4.27-18.452 1.104-1.96 2.576-3.686 3.864-5.53 1.509-1.54 2.883-3.224 4.527-4.619 6.255-5.307 14.048-7.363 21.967-8.48-1.472.585 4.288-.727 3.596-.006-.463.482-2.472.024-2.863-.051-1.33-.663-2.544-1.061-3.379-2.464-2.266-3.809-1.884-9.256-.857-13.32.53-2.093 1.453-4.066 2.18-6.098 1.218-2.123 2.259-4.36 3.656-6.37 7.059-10.159 17.765-17.646 29.287-21.918 3.33-1.234 6.82-1.986 10.23-2.98 3.649-.596 7.265-1.448 10.947-1.79 14.517-1.35 30.766.275 44.528 5.24 2.51.905 4.883 2.156 7.324 3.234 4.157 2.413 13.572 8.278 9.181 14.471-.358.506-.92.83-1.381 1.244-.482.171-.936.474-1.446.512-2.333.176-1.001-2.811-.477-3.614 1.79-2.741 3.814-4.077 6.34-6.231 12.635-8.885 27.325-14.438 42.19-18.347 3.741-.984 7.539-1.74 11.309-2.61 14.54-2.83 29.458-3.555 44.088-.932 8.727 1.564 10.365 2.475 18.568 5.31 8.316 3.787 17.453 8.39 21.328 17.281 1.605 3.684 1.308 5.426 1.42 9.26-.669 5.244-2.332 10.702-6.984 13.696-.336.105-.659.282-1.01.314-1.041.096-1-.886-.567-1.507.845-1.214 1.515-1.378 2.854-2.186 6.232-2.594 13.142-2.768 19.469-.333 1.484.571 2.874 1.364 4.31 2.046 9.014 5.55 14.496 13.616 18.154 23.428.874 2.345 1.528 4.767 2.292 7.15 2.951 12.32 5.282 25.34 3.023 38-.39 2.184-1.104 4.297-1.656 6.446-3.332 8.894-8.753 15.982-17.2 20.514-1.178.632-2.44 1.092-3.66 1.638-2.491.769-5.068 1.614-7.718 1.508-.533-.022-1.948-.074-1.897-.892 2.305-1.12 5.207-.984 7.551-.024.837.343 1.59.862 2.386 1.294.752.662 1.643 1.196 2.257 1.988.831 1.073 1.469 2.295 2.024 3.533 3.846 8.583 3.142 18.238 2.754 27.366-.567 3.12-.96 6.278-1.702 9.361-2.846 11.82-8.087 23.75-16.67 32.568-1.987 2.04-4.331 3.698-6.496 5.547-2.518 1.423-4.922 3.067-7.552 4.268-11.212 5.115-23.905 5.813-36 4.506-2.859-.31-5.678-.913-8.517-1.37-9.43-2.234-19.37-5.287-26.39-12.335l-.714-.941c-.04-.075-.144-.306-.12-.224.38 1.325.084-.612.663 1.674.148.582.295 1.179.286 1.78-.012.77-.232 1.523-.348 2.285-.446.893-.774 1.855-1.339 2.677-3.792 5.524-10.665 7.924-16.95 9.123-2.374.454-4.794.622-7.192.933-2.662.057-5.324.264-7.985.172-11.209-.386-24.096-3.3-34.484-7.506-2.397-.97-4.677-2.208-7.015-3.313l-5.158-3.965-.045.058 5.174 3.969c2.341 1.104 4.623 2.341 7.023 3.312 10.397 4.205 23.29 7.123 34.506 7.512 2.663.093 5.329-.113 7.993-.17 2.4-.31 4.824-.478 7.202-.93 6.309-1.201 13.205-3.61 17.01-9.156.57-.83.9-1.801 1.35-2.702.116-.771.337-1.534.349-2.314.013-.888-.321-2.156-.753-2.976-.626-1.188-.192.532.483.766 7.049 7.042 16.991 10.105 26.443 12.335 2.842.456 5.663 1.059 8.525 1.368 12.106 1.305 24.812.609 36.035-4.512 2.634-1.203 5.04-2.85 7.562-4.275 2.167-1.852 4.515-3.512 6.503-5.555 8.59-8.829 13.83-20.768 16.68-32.598.744-3.086 1.139-6.246 1.708-9.37.39-9.14 1.104-18.814-2.747-27.41-.559-1.246-1.2-2.476-2.038-3.556-.619-.798-1.515-1.334-2.273-2.002-.801-.434-1.56-.956-2.404-1.302-2.342-.959-5.423-1.176-7.673.112.01.138-.06.31.03.412 1.47 1.663 8.172-.461 9.717-.953 1.223-.548 2.488-1.01 3.668-1.645 8.463-4.548 13.893-11.65 17.228-20.565.552-2.152 1.267-4.269 1.656-6.456 2.257-12.671-.077-25.7-3.027-38.028-.764-2.386-1.419-4.81-2.293-7.158-3.663-9.831-9.155-17.913-18.184-23.472-1.44-.684-2.834-1.48-4.322-2.052-6.35-2.443-13.284-2.265-19.539.333-.638.386-1.324.702-1.915 1.156-.543.418-2.468 2.917-.296 2.706.359-.035.688-.217 1.032-.326 4.67-3.023 6.35-8.497 7.015-13.778-.117-3.852.18-5.596-1.436-9.296-3.89-8.903-13.04-13.51-21.374-17.301-8.208-2.833-9.849-3.744-18.58-5.307-14.638-2.62-29.561-1.893-44.108.938-3.77.87-7.57 1.625-11.312 2.609-14.875 3.909-29.576 9.458-42.225 18.338-2.504 2.13-4.6 3.524-6.374 6.257-.585.901-1.833 3.934.593 3.737.521-.043.984-.355 1.475-.532.468-.425 1.04-.758 1.403-1.275 4.394-6.257-5.02-12.13-9.237-14.57-2.445-1.077-4.82-2.326-7.334-3.231-13.767-4.955-30.034-6.582-44.554-5.236-3.684.342-7.303 1.194-10.954 1.79-3.413.994-6.905 1.746-10.238 2.981-11.534 4.275-22.254 11.77-29.324 21.936-1.4 2.014-2.443 4.254-3.664 6.38-.73 2.037-1.656 4.014-2.187 6.112-1.036 4.094-1.416 9.563.87 13.396.847 1.42 2.077 1.821 3.425 2.491.466.089 2.518.714 2.938-.122.366-.727-4.533.588-3.666.001-7.936 1.129-15.74 3.194-22.008 8.515-1.646 1.398-3.022 3.086-4.533 4.63-1.29 1.846-2.766 3.577-3.87 5.54-2.941 5.226-5.222 12.446-4.278 18.506.575 3.693 2.727 7.087 4.43 10.293 2.63 3.871 3.758 5.731 6.79 9.368 4.533 5.436 9.88 10.175 15.597 14.325 3.838 2.365 8.364 5.638 13.156 4.165.448-.138.83-.437 1.245-.656.195-.268.454-.5.586-.805 1.293-2.991-4.768-3.055-6.137-2.807-2.864.618-4.322.807-7.148 2.018-7.27 3.117-13.335 8.448-18.124 14.66-2.946 4.967-4.32 6.678-6.138 12.31-2.234 6.924-2.52 14.546-1.16 21.686.47 2.466 1.395 4.824 2.093 7.236 2.856 5.124 4.005 7.943 8.169 12.261 4.093 4.245 7.481 6.161 12.744 8.727 2.566 1.251 5.174 2.435 7.858 3.408 2.732.991 5.574 1.65 8.36 2.474 7.232 1.393 10.448 2.172 17.879 2.933 11.94 1.221 23.963.52 35.91-.155 11.442-.887 23-1.581 34.21-4.163l-.027-.092z" style="fill:red;stroke:red;stroke-width:1.9;stroke-miterlimit:2"/><path id="path48338" d="M852.822-42.934c-2.014 4.016-3.976 8.106-6.635 11.75-.843 1.156-1.797 2.226-2.695 3.338-6.362 6.79-14.922 10.694-23.892 12.79-2.378.555-4.803.881-7.204 1.322-11.061 1.552-22.289 1.081-33.292-.707-6.99-1.136-9.814-2.006-16.631-3.731-11.047-3.727-23.09-8.254-31.851-16.258-.996-.91-1.854-1.961-2.781-2.942-1.31-1.303-5.007-8.009-.076-6.513.289.232.644.4.865.697 2.388 3.215-6.68 6.995-8.258 7.741-9.684 3.743-20.072 5.159-30.416 4.21-2.382-.22-4.738-.669-7.108-1.003-11.982-2.555-23.63-7.304-32.947-15.449-1.77-1.546-3.322-3.325-4.982-4.988-5.859-7.066-9.587-15.369-10.56-24.529-.591-5.557-.153-6.724.492-12.14 1.524-7.027 4.337-13.963 10.13-18.543.656-.52 1.4-.917 2.1-1.375 1.993-.968 5.668-1.282 5.287 1.919-.166.239-.268.539-.498.716-1.891 1.451-5.048-.921-6.279-2.124-.938-.917-1.711-1.99-2.567-2.984-5.162-7.154-8.553-15.476-10.395-24.09-.37-1.732-.572-3.496-.858-5.245-.4-5.984.459-12.053 4.603-16.69 2.125-2.376 3.809-3.177 6.464-4.85 4.474-2.175 9.625-4.328 14.672-3.044.211.12.47.18.633.36.175.197-.37.464-.633.472-2.063.065-4-.977-5.825-1.763-.932-.594-1.933-1.09-2.795-1.78-3.996-3.205-6.447-8.276-5.485-13.457.283-1.527.99-2.943 1.486-4.414 1.045-1.523 1.918-3.179 3.135-4.568 7.151-8.164 18.744-12.77 28.998-15.345 3.562-.894 7.21-1.4 10.814-2.1a118.88 118.88 0 0 1 48.625 2.645c2.158.576 4.264 1.332 6.396 1.997 3.505 1.536 7.792 2.777 10.27 5.977.598.773 1.041 1.8.393 2.696-.23.317-.648.44-.973.66-1.328.379-6.307.445-6.42-1.676-.02-.394.274-.74.41-1.11.512-.44.972-.947 1.534-1.318 2.02-1.332 4.844-2.517 7.048-3.29 6.353-2.228 12.894-3.407 19.5-4.575 14.452-2.132 29.24-2.292 43.757-.615 2.709.313 5.395.803 8.092 1.205 5.88 1.081 11.633 2.756 16.947 5.532 1.639.856 4.116 2.29 5.348 3.856.415.527.56 1.219.84 1.829-.06.592-.008 1.208-.184 1.776-.725 2.346-3.138 4.369-5.37 5.18-2.84.005 1.331-3.884 1.76-4.305 5.61-4.83 11.512-6.941 18.587-8.712 7.156-1.418 14.498-.969 21.353 1.59 1.477.552 2.89 1.257 4.335 1.886 5.674 2.886 10.753 6.73 13.971 12.332 2.078 3.617 2.295 5.179 3.509 9.182 1.106 6.302 2.536 14.967.199 21.176-.286.76-.766 1.433-1.15 2.15-1.113 1.496-2.556 2.448-4.23 3.193-.91.406-1.563.536-1.518.602.153.22.524.12.786.181 5.11.687 10.045 2.647 14.196 5.723 1.253.93 2.382 2.016 3.574 3.025 5.205 5.14 8.508 10.817 8.801 18.295.204 5.218-.586 6.794-1.858 11.836-.874 1.902-1.57 3.895-2.62 5.706-3.836 6.62-9.745 11.165-16.742 14.014-1.196.486-2.441.837-3.662 1.256.08.321-5.392 1.129-5.565 1.302-.107.107.173.263.306.334.439.235.935.348 1.381.568.727.358 1.423.776 2.135 1.164 6.39 4.635 9.847 11.97 10.687 19.735.217 2.001.108 4.024.161 6.036-.28 2.007-.404 4.043-.843 6.022-1.597 7.202-5.412 14.817-12.569 17.898-1.849.795-3.894 1.019-5.841 1.528-9.593.93-18.994-1.1-28.256-3.311l-.017.07c9.274 2.21 18.688 4.242 28.292 3.314 1.954-.512 4.008-.737 5.864-1.537 7.176-3.092 11-10.729 12.601-17.952.44-1.983.563-4.023.844-6.034-.053-2.016.056-4.043-.161-6.048-.843-7.79-4.312-15.147-10.719-19.8-.714-.39-1.413-.811-2.142-1.172-.439-.217-.907-.369-1.357-.56-.118-.049-.449-.086-.346-.16.537-.39 5.674-.817 5.573-1.317 1.222-.421 2.47-.775 3.667-1.263 7.012-2.862 12.932-7.42 16.776-14.056 1.052-1.815 1.75-3.813 2.625-5.72 1.275-5.053 2.068-6.633 1.862-11.864-.294-7.498-3.606-13.192-8.825-18.346-1.194-1.01-2.326-2.1-3.582-3.032-4.16-3.086-9.108-5.05-14.229-5.75-.253.002-.565.168-.76.005-.091-.077.442-.124 1.522-.607 1.691-.756 3.147-1.72 4.269-3.235.385-.724.867-1.404 1.155-2.171 2.334-6.226.9-14.904-.209-21.22-1.217-4.015-1.433-5.578-3.518-9.205-3.226-5.615-8.317-9.468-14.005-12.36-1.447-.63-2.864-1.338-4.342-1.89-6.87-2.565-14.227-3.014-21.398-1.593-7.09 1.774-13.007 3.89-18.63 8.727-.505.494-4.75 4.49-1.664 4.46 2.258-.83 4.708-2.875 5.43-5.26.176-.585.116-1.217.175-1.825-.288-.618-.442-1.32-.865-1.856-1.24-1.566-3.728-3.005-5.374-3.863-5.322-2.773-11.083-4.445-16.97-5.525-2.7-.4-5.386-.889-8.097-1.202-14.522-1.674-29.315-1.519-43.774.61-6.612 1.167-13.159 2.344-19.519 4.568-2.179.762-5.073 1.969-7.077 3.296-.575.381-1.042.904-1.563 1.355-.134.397-.433.773-.403 1.19.158 2.18 5.177 2.105 6.556 1.706.337-.238.776-.375 1.011-.713 2.54-3.651-9.084-8.186-10.734-8.767-2.134-.664-4.242-1.418-6.402-1.992a119.131 119.131 0 0 0-48.65-2.635c-3.607.7-7.257 1.205-10.821 2.098-10.27 2.574-21.882 7.183-29.045 15.357-1.222 1.395-2.099 3.058-3.148 4.587-.497 1.479-1.208 2.903-1.492 4.437-.965 5.212 1.504 10.31 5.522 13.531.865.694 1.87 1.193 2.806 1.79 1.86.803 2.687 1.3 4.583 1.675.722.143 2.568.14 1.957-.55-.166-.187-.437-.245-.656-.367-5.077-1.274-10.242.87-14.74 3.066-2.667 1.68-4.355 2.483-6.488 4.872-4.155 4.655-5.015 10.746-4.612 16.75.287 1.75.49 3.517.861 5.252 1.845 8.626 5.24 16.959 10.406 24.125.859 1 1.634 2.079 2.577 3 1.274 1.246 4.481 3.63 6.411 2.107.24-.189.343-.506.515-.76.028-.279.133-.56.085-.838-.447-2.595-3.948-1.967-5.518-1.166-.703.462-1.45.863-2.11 1.386-5.801 4.599-8.62 11.551-10.145 18.598-.644 5.425-1.083 6.597-.49 12.162.978 9.175 4.713 17.49 10.582 24.566 1.664 1.665 3.218 3.446 4.99 4.994 9.328 8.151 20.986 12.904 32.98 15.463 2.372.334 4.73.785 7.115 1.004 10.356.951 20.756-.465 30.455-4.206 1.65-.78 10.785-4.57 8.282-7.89-.23-.305-.598-.476-.897-.715-.332-.096-.65-.277-.994-.288-3.701-.125-.054 6.25.981 6.95.931.983 1.793 2.035 2.792 2.946 8.779 8.002 20.828 12.527 31.885 16.26 6.816 1.725 9.65 2.596 16.638 3.732 11.01 1.79 22.245 2.261 33.313.712 2.404-.44 4.832-.767 7.212-1.322 8.987-2.096 17.562-6.005 23.936-12.807.9-1.114 1.856-2.186 2.701-3.343 2.663-3.647 4.628-7.738 6.652-11.754l-.087-.043z" style="fill:red;stroke:red;stroke-width:1.9;stroke-miterlimit:2"/><path id="path48346" d="M-140.553 318.578c-16.38 3.154-33.144 3.728-49.77 4.366-27.383.673-54.948-.249-81.984-4.967-5.635-.984-11.207-2.302-16.81-3.453-19.79-4.948-39.661-11.823-55.75-24.823-9.196-7.43-9.841-9.577-16.608-18.901-1.654-3.598-3.69-7.044-4.961-10.794-3.86-11.38-4.04-24.07-1.388-35.725 2.448-10.755 4.776-13.85 9.735-23.683 2.626-3.731 5-7.652 7.876-11.193 13.117-16.143 30.774-28.16 49.486-36.91 5.212-2.438 10.64-4.386 15.959-6.58 23.46-8.197 48.116-12.576 72.962-13.124 16.844-.371 21.513.543 38.224 2.094 23.727 3.26 47.276 9.002 68.89 19.562 12.47 6.092 15.01 8.482 26.186 16.266 13.13 10.628 24.989 23.196 31.467 39.058 3.63 8.89 3.466 11.548 4.862 20.884-.033 3.428.193 6.868-.101 10.284-.862 10.012-4.039 19.672-9.086 28.343-4.479 7.695-6.425 9.21-12.327 15.843-2.617 2.282-5.095 4.733-7.85 6.844-12.44 9.527-27.291 15.779-42.25 20.104-4.174 1.207-8.43 2.107-12.646 3.16-12.982 2.787-26.133 4.442-39.405 4.8-4.216.114-8.435-.022-12.653-.034v.048c4.219.01 8.439.145 12.655.03 13.276-.359 26.43-2.01 39.414-4.798 4.217-1.054 8.474-1.954 12.65-3.16 14.966-4.326 29.825-10.576 42.272-20.107 2.758-2.112 5.238-4.565 7.856-6.848 5.907-6.64 7.855-8.155 12.337-15.856 5.051-8.678 8.23-18.348 9.09-28.369.294-3.418.067-6.861.1-10.292-1.4-9.344-1.235-12.003-4.871-20.9-6.485-15.867-18.353-28.437-31.492-39.065-11.18-7.783-13.723-10.173-26.196-16.263-21.618-10.557-45.171-16.295-68.9-19.556-16.713-1.55-21.382-2.464-38.228-2.093-24.848.548-49.507 4.923-72.972 13.12-5.32 2.192-10.748 4.14-15.961 6.577-18.72 8.751-36.384 20.767-49.508 36.913-2.878 3.542-5.254 7.465-7.88 11.197-4.965 9.84-7.294 12.934-9.744 23.697-2.655 11.663-2.473 24.365 1.39 35.753 1.273 3.753 3.312 7.201 4.968 10.802 6.775 9.33 7.419 11.475 16.623 18.907 16.097 12.998 35.975 19.87 55.77 24.817 5.603 1.15 11.175 2.468 16.81 3.452 27.039 4.718 54.605 5.644 81.99 4.984 16.635-.629 33.401-1.2 49.795-4.318l-.026-.093z" style="fill:red;stroke:red;stroke-width:1.9;stroke-miterlimit:2"/><path id="path49075" d="M624.174 227.05c-6.817-.184-12.643 1.671-16.05 5.98-4.05 5.12-4.485 13.891-1.374 20.527 4.611 9.837 11.732 13.054 19.523 14.236 5.948.903 15.257-.73 21.05-4.304 4.156-2.564 6.818-6.085 6.82-10.745.003-7.915-4.4-15.58-12.23-20.91-5.044-3.433-12.362-6.275-18.248-5.306" style="fill:#e5f6ff;fill-opacity:1;stroke:#000;stroke-width:.999993;stroke-miterlimit:2;stroke-dasharray:none"/><path id="path49217" d="M814.585 261.877c-1.664-1.628-4.394-1.774-6.325-.549-2.515 1.35-4.562 3.933-4.598 6.905-.139 2.675 1.38 5.234 3.59 6.63 2.311 1.55 5.19 1.908 7.896 1.592 2.518-.266 5.24-.948 6.942-2.982 1.333-1.533 1.213-3.81.443-5.575-1.148-2.558-3.577-4.281-6.082-5.317-1.773-.667-3.742-1.116-5.63-.752" style="fill:#e5f6ff;fill-opacity:1;stroke:#000;stroke-width:.999998;stroke-miterlimit:2;stroke-dasharray:none"/><path id="path63912" d="M46.753 676.513c1.48-.895 1.389-1.857-1.213-.554-4.515 2.261-7.21 11.197-6.133 18.878 1.398 9.967 9.105 21.779 18.807 29.65 11.388 9.239 24.104 15.092 38.367 17.92 13.587 2.693 26.577.442 31.457-2.309 3.13-1.96 4.365-2.171 4.055-4.457-.856-.612-2.26.96-.76 2.658 7.923 8.96 17.425 13.059 29.677 15.846 14.736 3.351 34.12 3.744 49.12.413 14.888-3.307 26.388-9.548 34.319-18.405 2.179-2.434 3.26-3.945 3.5-5.558l-1.78.844c2.348 4.607 14.732 8.508 24.19 8.963 11.546.556 25.497-2.95 33.3-7.649 10.118-6.093 21.574-16.699 18.16-32.675-.989-4.632-2.61-7.204-6.679-10.784-.656-.577-2.375-.533-2.13.383 2.587.921 5.478.318 7.908-.62 4.562-1.76 9.054-6.027 12.299-11.61 2.795-4.81 6.51-12.942 4.762-27.067-2.192-17.713-12.717-31.637-25.357-36.742-4.64-1.874-8.07-1.875-8.07-1.875" style="fill:none;fill-opacity:1;stroke:#000;stroke-width:1;stroke-miterlimit:2;stroke-dasharray:none"/><path id="path63914" d="M60.042 617.025c1.091-1.108-.734-2.266-2.457-2.573-2.826-.502-6.611-.87-14.532 1.877-5.755 1.997-10.583 5.255-14.649 9.9-3.484 3.981-8.422 14.61-7.52 21.968 1.131 9.222 3.014 14.13 7.747 18.57 6.155 5.774 10.345 8.203 14.72 9.327 2.278.585 2.602.904 3.402.42" style="fill:none;fill-opacity:1;stroke:#000;stroke-width:1;stroke-miterlimit:2;stroke-dasharray:none"/><path id="path63916" d="M305.819 613.604c4.053-1.722 6.483-6.235 6.978-13.284 1.067-15.174-8.745-34.714-21.796-43.958-11.473-8.127-21.774-9.062-29.631-7.621-6.74 1.235-13.199 4.09-16.756 8.277-2.082 2.452-2.756 3.541-1.891 4.147.716.574 1.397.03 1.27-1.058-.715-6.133-11.5-17.402-21.645-21.875-12.372-5.453-32.997-5.357-46.239 1.652-11.54 6.11-20.27 14.363-25.3 22.82-2.061 3.47-2.009 4.084-1.624 4.352 1.104.77 1.529-1.332.322-3.306-3.305-5.401-13.773-11.457-21.193-13.486-14.24-3.895-32.862-2.364-49.56 5.41-10.066 4.685-20.087 14.166-24.699 23.967-5.625 11.958-4.132 26.506.71 33.746 1.488 2.227 4.33 4.664 5.384 3.53" style="fill:none;fill-opacity:1;stroke:#000;stroke-width:1;stroke-miterlimit:2;stroke-dasharray:none"/><path id="path67871" d="M414.548 920.9c1.479-.897 1.388-1.858-1.214-.555-4.515 2.261-7.21 11.196-6.132 18.878 1.398 9.966 9.105 21.779 18.806 29.65 11.388 9.239 24.105 15.091 38.367 17.92 13.588 2.693 26.578.442 31.457-2.309 3.131-1.96 4.366-2.172 4.056-4.457-.857-.613-2.261.96-.76 2.657 7.923 8.96 17.425 13.06 29.677 15.846 14.736 3.352 34.12 3.745 49.12.413 14.888-3.306 26.388-9.548 34.318-18.404 2.18-2.434 3.26-3.945 3.501-5.558l-1.781.843c2.349 4.608 14.732 8.509 24.19 8.964 11.546.556 25.497-2.951 33.3-7.65 10.119-6.093 21.574-16.698 18.161-32.674-.99-4.632-2.611-7.204-6.68-10.784-.655-.577-2.375-.533-2.13.383 2.587.92 5.478.318 7.908-.62 4.563-1.76 9.054-6.028 12.3-11.61 2.795-4.81 6.51-12.943 4.762-27.067-2.192-17.713-12.717-31.638-25.357-36.743-4.64-1.873-8.071-1.875-8.071-1.875" style="fill:none;fill-opacity:1;stroke:#000;stroke-width:1;stroke-miterlimit:2;stroke-dasharray:none"/><path id="path67873" d="M427.836 861.41c1.092-1.107-.733-2.266-2.457-2.572-2.826-.502-6.611-.87-14.531 1.877-5.756 1.997-10.584 5.255-14.65 9.9-3.483 3.98-8.422 14.61-7.52 21.968 1.132 9.222 3.014 14.13 7.748 18.57 6.155 5.774 10.345 8.203 14.719 9.327 2.279.585 2.602.904 3.403.42" style="fill:none;fill-opacity:1;stroke:#000;stroke-width:1;stroke-miterlimit:2;stroke-dasharray:none"/><path id="path67875" d="M673.613 857.99c4.053-1.723 6.483-6.235 6.979-13.284 1.066-15.175-8.745-34.715-21.796-43.959-11.473-8.126-21.775-8.53-28.948-7.773-6.815.72-13.882 4.242-17.44 8.43-2.081 2.451-2.147 2.857-1.877 3.19.757.543 1.512-.142 1.073-1.046-2.386-4.912-12.55-12.08-24.066-15.95-14.423-4.846-34.846-4.806-49.212 2.621-9.858 5.096-15.94 9.81-20.56 17.341-1.896 3.088-1.052 3.633-.721 3.878 1.04.77 1.463-1.328.256-3.302-3.304-5.401-13.773-11.457-21.193-13.487-14.24-3.894-32.862-2.363-49.56 5.41-10.066 4.686-20.087 14.167-24.698 23.968-5.626 11.957-4.132 26.505.709 33.746 1.488 2.226 4.33 4.664 5.385 3.53" style="fill:none;fill-opacity:1;stroke:#000;stroke-width:1;stroke-miterlimit:2;stroke-dasharray:none"/><path id="path75904" d="M310.949 873.51c3.965-1.722 6.343-6.235 6.827-13.284 1.044-15.174-8.774-34.42-21.325-43.958-13.804-10.49-27.536-12.829-37.778-10.782-6.576 1.314-19.019 6.642-22.65 11.438-1.925 2.541.102 3.237.035 3.205.439.285.17-.782-.128-2.738-.091-7.485-8.385-14.687-19.386-19.255-29.07-12.071-65.95-7.823-79.17-5.16-14.473 2.914-35.87 9.457-51.924 19.594-9.388 5.928-21.806 17.176-26.418 26.978-5.625 11.957-4.132 26.505.71 33.745 1.488 2.227 4.33 4.664 5.33 3.585 1.038-1.055-.787-2.213-2.51-2.52-2.826-.502-6.611-.87-14.532 1.877-5.755 1.997-10.583 5.256-14.649 9.901-3.484 3.98-8.422 14.61-7.52 21.967 1.131 9.222 3.014 14.13 7.747 18.57 6.155 5.774 10.345 8.203 14.72 9.327 2.278.586 2.602.904 3.402.42 1.48-.896 1.389-1.858-1.213-.555-4.515 2.261-7.21 11.197-6.133 18.879 1.398 9.966 9.105 21.778 18.807 29.65 11.388 9.238 24.104 15.09 38.367 17.919 13.587 2.693 26.577.442 31.457-2.308 3.13-1.96 4.365-2.172 4.055-4.458-.856-.612-2.26.96-.76 2.658 7.923 8.96 17.425 13.06 29.677 15.846 14.736 3.351 34.12 3.744 49.12.413 14.888-3.306 26.388-9.548 34.319-18.405 2.179-2.433 3.26-3.945 3.5-5.558l-1.78.844c2.348 4.607 14.732 8.508 24.19 8.964 11.546.556 25.497-2.952 33.3-7.65 10.118-6.093 21.574-16.698 18.16-32.674-.989-4.633-2.61-7.205-6.679-10.784-.656-.578-2.376-.534-2.13.382 2.587.921 5.478.318 7.908-.62 4.562-1.76 9.054-6.027 12.299-11.61 2.795-4.81 6.51-12.942 4.762-27.067-2.192-17.712-12.717-31.637-25.357-36.742-4.64-1.874-8.07-1.875-8.07-1.875" style="fill:#e5f6ff;fill-opacity:1;stroke:#000;stroke-width:.999998;stroke-miterlimit:2;stroke-dasharray:none"/><path id="path79308" d="M1378.35 277.118c3.966-1.723 5.058-15.149 3.789-22.099-2.604-14.263-14.36-29.897-31.807-39.236-15.799-8.457-33.384-8.452-45.877-4.203-8.714 2.964-15.636 7.5-19.268 12.296-1.924 2.54-1.134 2.86-1.2 2.828.438.285 1.406-.406 1.107-2.362-1.058-4.798-11.494-13.915-22.425-18.646-20.864-9.033-49.397-7.304-67.012-4.25-12.278 2.13-27.056 6.418-43.11 16.556-9.387 5.928-21.501 18.695-26.113 28.497-5.625 11.957-4.132 26.505.71 33.746 1.488 2.226 4.33 4.663 5.33 3.584 1.038-1.054-.787-2.213-2.51-2.52-2.826-.502-6.611-.87-14.532 1.877-5.755 1.997-10.583 5.256-14.649 9.901-3.483 3.98-8.422 14.61-7.52 21.967 1.131 9.222 3.014 14.13 7.748 18.57 6.155 5.774 10.344 8.203 14.719 9.327 2.278.586 2.602.905 3.403.42 1.479-.896 1.388-1.857-1.214-.554-4.515 2.26-7.21 11.196-6.132 18.878 1.398 9.966 9.104 21.778 18.806 29.65 11.388 9.238 24.105 15.091 38.367 17.919 13.588 2.694 26.577.442 31.457-2.308 3.131-1.96 4.366-2.172 4.056-4.457-.857-.613-2.261.959-.76 2.657 7.923 8.96 17.424 13.06 29.677 15.846 14.735 3.351 34.119 3.744 49.12.413 14.888-3.306 26.387-9.548 34.318-18.405 2.179-2.433 3.26-3.944 3.501-5.557l-1.781.843c2.349 4.607 14.732 8.508 24.19 8.964 11.546.556 25.497-2.952 33.3-7.65 10.118-6.093 21.574-16.698 18.161-32.674-.99-4.633-2.611-7.205-6.68-10.784-.655-.577-2.375-.534-2.13.382 2.587.922 5.478.318 7.908-.62 4.562-1.76 9.054-6.027 12.299-11.61 2.796-4.81 6.207-15.374 4.459-29.498-2.193-17.713-11.806-30.726-25.054-37.655-4.434-2.319-8.07-1.875-8.07-1.875" style="fill:#e5f6ff;fill-opacity:1;stroke:#000;stroke-width:.999998;stroke-miterlimit:2;stroke-dasharray:none"/><path id="path80925" d="M668.584 600.143c4.054-1.722 6.484-6.235 6.979-13.284 1.066-15.174-8.745-34.714-21.796-43.958-11.473-8.126-21.774-9.062-29.632-7.621-6.74 1.236-13.198 4.09-16.755 8.278-2.082 2.451-2.148 2.856-1.892 3.159.717.573 1.441-.163 1.12-1.21-1.932-6.286-11.632-14.338-22.938-18.684-14.16-5.443-34.586-5.397-49.355 2.944-10.133 5.724-16.47 11.019-21.5 19.477-2.062 3.468-1.249 4.083-.864 4.351 1.104.77 1.529-1.331.321-3.305-3.304-5.402-13.773-11.458-21.193-13.487-14.24-3.895-32.862-2.364-49.56 5.41-10.066 4.685-20.087 14.166-24.698 23.968-5.626 11.957-4.132 26.505.709 33.745 1.488 2.227 4.33 4.664 5.331 3.585 1.038-1.055-.787-2.213-2.51-2.52-2.827-.502-6.612-.87-14.532 1.877-5.755 1.997-10.583 5.256-14.65 9.901-3.483 3.98-8.421 14.61-7.52 21.967 1.132 9.222 3.014 14.13 7.748 18.57 6.155 5.774 10.345 8.203 14.719 9.327 2.279.586 2.602.905 3.403.42 1.48-.896 1.388-1.858-1.213-.555-4.515 2.262-7.21 11.197-6.133 18.879 1.398 9.966 9.105 21.778 18.806 29.65 11.388 9.238 24.105 15.091 38.367 17.919 13.588 2.694 26.578.442 31.457-2.308 3.131-1.96 4.366-2.172 4.056-4.458-.857-.612-2.26.96-.76 2.658 7.923 8.96 17.425 13.06 29.677 15.846 14.736 3.351 34.12 3.744 49.12.413 14.888-3.306 26.388-9.548 34.318-18.405 2.18-2.433 3.26-3.944 3.501-5.557l-1.78.843c2.348 4.607 14.731 8.508 24.19 8.964 11.545.556 25.497-2.952 33.299-7.65 10.119-6.093 21.574-16.698 18.161-32.674-.99-4.633-2.61-7.205-6.68-10.784-.655-.578-2.375-.534-2.13.382 2.588.921 5.479.318 7.908-.62 4.563-1.76 9.055-6.027 12.3-11.61 2.795-4.81 6.51-12.942 4.762-27.067-2.192-17.712-12.717-31.637-25.357-36.742-4.64-1.874-8.071-1.875-8.071-1.875" style="fill:#e5f6ff;fill-opacity:1;stroke:#000;stroke-width:1;stroke-miterlimit:2;stroke-dasharray:none"/><path id="path85769" d="M450.715 1142.028c9.677 1.773 11.129-8.68 10.474-15.715-1.213-13.047-11.293-29.142-24.38-38.335-7.673-5.391-18.278-8.302-29.327-6.558-6.769 1.07-12.601 3.69-15.995 5.846-2.678 1.701-3.478 2.44-3.222 2.742.717.573 2.01-.961 1.689-2.009-1.932-6.285-11.632-15.02-22.938-19.367-14.16-5.443-37.777-4.79-52.774 2.564-10.45 5.124-16.576 12.733-18.84 20.313-.97 3.252-.451 2.791-.067 3.06 1.105.769 1.491.187.284-1.786-3.304-5.402-13.773-11.458-21.193-13.487-14.24-3.895-32.862-2.364-49.56 5.41-10.066 4.685-20.087 14.166-24.698 23.968-5.626 11.957-4.132 26.505.709 33.745 1.488 2.227 4.33 4.664 5.331 3.585 1.038-1.055-.787-2.213-2.51-2.52-2.827-.502-6.612-.87-14.532 1.877-5.756 1.997-10.584 5.256-14.65 9.901-3.483 3.98-8.422 14.61-7.52 21.967 1.132 9.222 3.014 14.13 7.748 18.57 6.155 5.774 10.345 8.203 14.719 9.327 2.278.586 2.602.904 3.403.42 1.479-.896 1.388-1.858-1.214-.555-4.515 2.261-7.21 11.197-6.132 18.879 1.398 9.966 9.105 21.778 18.806 29.65 11.388 9.238 24.105 15.091 38.367 17.919 13.588 2.693 26.578.442 31.457-2.308 3.131-1.96 4.366-2.172 4.056-4.458-.857-.612-2.261.96-.76 2.658 7.923 8.96 17.425 13.06 29.677 15.846 14.736 3.351 34.12 3.744 49.12.413 14.888-3.307 26.388-9.548 34.318-18.405 2.18-2.433 3.26-3.945 3.501-5.558l-1.781.844c2.349 4.607 14.732 8.508 24.19 8.964 11.546.556 25.497-2.952 33.3-7.65 10.119-6.093 21.574-16.698 18.161-32.674-.99-4.633-2.611-7.205-6.68-10.784-.655-.578-2.375-.534-2.13.382 2.587.921 5.478.318 7.908-.62 4.563-1.76 9.054-6.027 12.3-11.61 2.795-4.81 6.51-12.942 4.762-27.067-2.192-17.712-12.717-31.637-25.357-36.742-4.64-1.874-8.071-1.875-8.071-1.875" style="fill:#e5f6ff;fill-opacity:1;stroke:#000;stroke-width:1;stroke-miterlimit:2;stroke-dasharray:none"/><path id="path88205" d="M798.908 1134.29c9.676 1.774 11.129-8.68 10.474-15.715-1.213-13.047-11.293-29.142-24.38-38.335-7.673-5.39-18.278-8.302-29.327-6.557-6.77 1.069-12.601 3.69-15.996 5.846-2.677 1.7-3.478 2.439-3.22 2.741.716.574 2.01-.96 1.688-2.008-1.932-6.286-8.229-13.82-18.834-19.671-15.376-8.483-41.96-7.146-58.702 4.083-7.925 5.316-14.752 11.518-17.016 19.097-.971 3.252-.452 2.792-.067 3.06 1.105.77 1.491.188.284-1.786-3.304-5.401-13.773-11.457-21.193-13.487-14.24-3.894-32.862-2.363-49.56 5.41-10.066 4.685-20.087 14.167-24.699 23.968-5.625 11.957-4.132 26.505.71 33.746 1.488 2.226 4.33 4.664 5.33 3.584 1.038-1.054-.787-2.213-2.51-2.519-2.826-.502-6.611-.871-14.532 1.877-5.755 1.996-10.583 5.255-14.649 9.9-3.483 3.98-8.422 14.61-7.52 21.968 1.131 9.222 3.014 14.13 7.748 18.57 6.155 5.774 10.344 8.202 14.718 9.326 2.28.586 2.603.905 3.404.42 1.479-.896 1.388-1.857-1.214-.554-4.515 2.26-7.21 11.196-6.132 18.878 1.397 9.966 9.104 21.778 18.806 29.65 11.388 9.239 24.105 15.091 38.367 17.919 13.588 2.694 26.577.442 31.457-2.308 3.131-1.96 4.366-2.172 4.055-4.457-.856-.613-2.26.96-.759 2.657 7.922 8.96 17.424 13.06 29.677 15.846 14.735 3.352 34.12 3.745 49.12.413 14.888-3.306 26.387-9.548 34.318-18.404 2.18-2.434 3.26-3.945 3.501-5.558l-1.781.843c2.349 4.608 14.732 8.509 24.19 8.964 11.546.556 25.497-2.951 33.3-7.65 10.119-6.093 21.574-16.698 18.161-32.674-.99-4.632-2.611-7.204-6.68-10.784-.655-.577-2.375-.534-2.13.383 2.587.92 5.478.318 7.908-.62 4.562-1.761 9.054-6.028 12.299-11.61 2.796-4.81 6.51-12.943 4.763-27.067-2.193-17.713-12.718-31.638-25.358-36.743-4.64-1.874-8.07-1.875-8.07-1.875" style="fill:#e5f6ff;fill-opacity:1;stroke:#000;stroke-width:1;stroke-miterlimit:2;stroke-dasharray:none"/><path id="path90634" d="M1168.594 1135.15c9.677 1.774 11.129-8.68 10.474-15.715-1.213-13.047-11.293-29.142-24.38-38.335-7.673-5.391-18.278-8.302-29.327-6.557-6.769 1.068-12.601 3.69-15.996 5.846-2.677 1.7-3.477 2.438-3.22 2.74.716.574 2.01-.96 1.688-2.008-1.932-6.285-8.229-13.82-18.834-19.67-15.376-8.483-41.441-8.415-59.435 3.377-8.188 5.366-15.47 12.815-18.002 19.534-.477 1.266.338 1.455.793 1.34 1.426-.358 1.317-.944.498-1.839-4.056-4.434-13.128-9.415-20.548-11.445-14.24-3.894-32.862-2.363-49.56 5.41-10.066 4.685-20.087 14.166-24.698 23.968-5.626 11.957-4.132 26.505.709 33.746 1.488 2.226 4.33 4.664 5.33 3.584 1.039-1.054-.786-2.213-2.51-2.52-2.826-.502-6.611-.87-14.531 1.878-5.756 1.996-10.584 5.255-14.65 9.9-3.483 3.98-8.422 14.61-7.52 21.967 1.131 9.222 3.014 14.13 7.748 18.57 6.155 5.774 10.345 8.203 14.719 9.327 2.278.586 2.602.905 3.403.42 1.479-.896 1.388-1.857-1.214-.554-4.515 2.26-7.21 11.196-6.132 18.878 1.398 9.966 9.104 21.778 18.806 29.65 11.388 9.238 24.105 15.091 38.367 17.919 13.588 2.694 26.578.442 31.457-2.308 3.131-1.96 4.366-2.172 4.056-4.457-.857-.613-2.261.959-.76 2.657 7.923 8.96 17.425 13.06 29.677 15.846 14.736 3.351 34.12 3.744 49.12.413 14.888-3.306 26.387-9.548 34.318-18.405 2.18-2.433 3.26-3.944 3.501-5.557l-1.781.843c2.349 4.607 14.732 8.508 24.19 8.964 11.546.556 25.497-2.952 33.3-7.65 10.119-6.093 21.574-16.698 18.161-32.674-.99-4.633-2.611-7.205-6.68-10.784-.655-.577-2.375-.534-2.13.382 2.587.921 5.478.318 7.908-.62 4.562-1.76 9.054-6.027 12.299-11.61 2.796-4.81 6.51-12.942 4.763-27.067-2.192-17.712-12.718-31.637-25.357-36.742-4.64-1.874-8.071-1.875-8.071-1.875" style="fill:#e5f6ff;fill-opacity:1;stroke:#000;stroke-width:1;stroke-miterlimit:2;stroke-dasharray:none"/><path id="path93072" d="M1480.947 947.592c9.899 1.773 11.384-8.68 10.715-15.715-1.241-13.047-11.553-29.142-24.94-38.336-7.85-5.39-18.698-8.301-30-6.557-6.925 1.069-12.891 3.69-16.364 5.846-2.739 1.701-3.557 2.439-3.295 2.741.733.574 2.057-.96 1.727-2.008-1.976-6.285-8.417-13.82-19.266-19.67-15.73-8.483-42.393-8.416-60.8 3.377-8.376 5.365-15.825 12.814-18.415 19.534-.488 1.266.345 1.455.81 1.34 1.46-.359 1.348-.944.51-1.84-4.15-4.434-13.43-9.415-21.02-11.444-14.567-3.895-33.616-2.364-50.698 5.41-10.297 4.685-20.548 14.166-25.266 23.968-5.754 11.957-4.226 26.505.726 33.745 1.523 2.227 4.43 4.664 5.454 3.585 1.061-1.055-.806-2.213-2.569-2.52-2.891-.502-6.763-.87-14.865 1.877-5.887 1.997-10.826 5.256-14.986 9.901-3.563 3.98-8.615 14.61-7.692 21.967 1.157 9.222 3.082 14.13 7.925 18.57 6.296 5.774 10.582 8.203 15.057 9.327 2.33.586 2.662.904 3.481.42 1.513-.896 1.42-1.858-1.241-.555-4.619 2.261-7.376 11.197-6.274 18.878 1.43 9.967 9.314 21.779 19.239 29.65 11.65 9.24 24.658 15.092 39.247 17.92 13.9 2.693 27.188.442 32.18-2.309 3.203-1.96 4.466-2.171 4.149-4.346-.876-.53-2.313 1.114-.777 2.891 8.104 9.378 17.824 14.124 30.358 17.04 15.074 3.509 34.903 3.464 50.248-.023 15.23-3.46 26.994-9.993 35.106-19.262 2.23-2.548 3.336-4.129 3.582-5.817l-1.822.857c2.403 4.608 15.07 8.509 24.746 8.964 11.811.556 26.083-2.951 34.064-7.65 10.351-6.093 22.07-16.698 18.579-32.674-1.013-4.632-2.672-7.204-6.833-10.784-.671-.577-2.43-.533-2.18.383 2.647.921 5.604.318 8.09-.62 4.667-1.76 9.262-6.028 12.581-11.61 2.86-4.81 6.66-12.942 4.872-27.067-2.242-17.713-13.009-31.638-25.94-36.743-4.745-1.873-8.256-1.874-8.256-1.874" style="fill:#e5f6ff;fill-opacity:1;stroke:#000;stroke-width:1;stroke-miterlimit:2;stroke-dasharray:none"/><path id="path95577" d="M1499.185 1213.863c9.899 1.773 11.384-8.68 10.715-15.715-1.241-13.047-11.553-29.142-24.94-38.336-7.85-5.39-18.698-8.301-30.001-6.557-6.925 1.069-12.89 3.69-16.363 5.846-2.74 1.701-3.558 2.439-3.295 2.741.733.574 2.056-.96 1.727-2.008-1.976-6.285-8.417-13.82-19.266-19.67-15.73-8.483-42.393-8.416-60.8 3.377-8.376 5.366-15.825 12.814-18.416 19.534-.488 1.266.346 1.455.811 1.34 1.46-.359 1.348-.944.51-1.84-4.15-4.434-13.43-9.415-21.02-11.444-14.568-3.895-33.617-2.364-50.699 5.41-10.296 4.685-20.548 14.166-25.265 23.968-5.754 11.957-4.227 26.505.725 33.745 1.523 2.227 4.43 4.664 5.454 3.585 1.062-1.055-.805-2.213-2.568-2.52-2.891-.502-6.763-.87-14.865 1.877-5.888 1.997-10.827 5.256-14.986 9.901-3.564 3.98-8.616 14.61-7.692 21.967 1.156 9.222 3.082 14.13 7.925 18.57 6.296 5.774 11.898 8.687 15.03 9.864 2.25.847 2.796.932 3.434.396 1.046-1.205.859-2.213-1.332-.473-3.801 3.02-5.232 12.878-3.415 20.889 2.356 10.393 10.578 21.883 20.154 28.913 11.24 8.252 23.299 12.726 36.41 13.776 12.49 1 23.897-3.17 27.971-6.76 1.236-.98 2.597-1.991 2.222-2.833-1.266-.65-.89.378.339 2.396 5.013 8.235 14.9 16.017 27.685 19.53 7.058 1.938 15.347 3.178 23.624 3.685 9.755.599 22.119-.123 30.776-1.61 15.882-2.729 28.34-8.691 37.166-17.562 2.426-2.437 3.644-3.964 3.982-5.639l-1.513.1c2.403 4.608 15.07 8.509 24.746 8.964 11.81.556 26.082-2.951 34.064-7.65 10.351-6.093 22.07-16.698 18.578-32.674-1.012-4.632-2.67-7.204-6.833-10.784-.67-.577-2.43-.534-2.179.383 2.647.92 5.604.318 8.09-.62 4.667-1.761 9.262-6.028 12.581-11.61 2.86-4.81 6.66-12.943 4.872-27.067-2.242-17.713-13.01-31.638-25.94-36.743-4.746-1.874-8.256-1.875-8.256-1.875" style="fill:#e5f6ff;fill-opacity:1;stroke:#000;stroke-width:1;stroke-miterlimit:2;stroke-dasharray:none"/><path id="path99639" d="M456.01 1401.83c8.787 1.573 10.106-7.705 9.512-13.95-1.102-11.58-10.256-25.865-22.14-34.026-6.97-4.784-16.6-7.368-26.634-5.82-6.147.95-11.444 3.275-14.526 5.19-2.432 1.51-3.159 2.164-2.926 2.432.651.51 1.826-.852 1.534-1.782-1.754-5.579-7.458-12.324-16.952-17.764-17.915-10.265-45.993-8.077-59.446 3.302-6.742 5.702-10.857 10.918-11.03 17.338-.031 1.204.308 1.291.72 1.19 1.296-.319 1.197-.838.453-1.633-3.683-3.936-11.922-8.357-18.66-10.158-12.932-3.457-29.843-2.098-45.008 4.801-9.14 4.16-18.241 12.574-22.429 21.274-5.108 10.613-3.752 23.526.644 29.953 1.352 1.976 3.932 4.14 4.842 3.18.942-.935-.715-1.963-2.28-2.235-2.567-.446-6.004-.773-13.197 1.666-5.226 1.772-9.61 4.664-13.303 8.788-3.164 3.532-7.649 12.967-6.83 19.497 1.028 8.186 2.737 12.542 7.036 16.483 5.59 5.125 10.563 7.71 13.343 8.755 1.997.751 2.483.827 3.049.351.929-1.069.762-1.964-1.183-.42-3.374 2.68-4.644 11.431-3.031 18.541 2.092 9.225 9.39 19.423 17.892 25.663 9.978 7.325 20.683 11.296 32.322 12.228 11.088.887 21.215-2.814 24.832-6 1.097-.87 2.305-1.768 1.972-2.515-1.124-.578-1.333-.19-1.143 1.9.727 7.992 12.662 14.445 23.97 17.713 15.898 4.595 35.377 4.79 51.484 2.07 14.106-2.382 25.083-7.334 32.918-15.208 2.154-2.163 2.856-4.43 2.472-5.765l-1.344.088c2.133 4.09 13.379 7.552 21.969 7.957 10.485.493 23.154-2.62 30.24-6.79 9.19-5.408 19.592-14.821 16.493-29.002-.899-4.111-2.307-6.59-5.35-9.116-.605-.502-.988-.766-.765.047 1.244.46 3.447.152 5.296-.713 4.01-1.876 8.222-5.35 11.169-10.305 2.539-4.27 5.913-11.488 4.325-24.024-1.99-15.722-11.549-28.082-23.028-32.613-4.213-1.663-7.33-1.664-7.33-1.664" style="fill:#e5f6ff;fill-opacity:1;stroke:#000;stroke-width:1;stroke-miterlimit:2;stroke-dasharray:none"/><path id="path105158" d="M785.288 1389.793c8.788 1.574 10.106-7.704 9.512-13.949-1.102-11.58-10.256-25.866-22.14-34.026-6.969-4.785-18.12-7.368-28.153-5.82-6.147.949-8.366 2.06-10.575 2.91-2.671 1.027-2.094 1.214-1.861 1.483.65.509 1.445.819 1.153-.111-1.754-5.58-11.903-12.21-20.067-16.206-18.545-9.077-45.993-8.077-59.447 3.302-6.742 5.702-10.857 10.918-11.028 17.338-.033 1.204.306 1.291.72 1.19 1.295-.319 1.196-.838.452-1.633-3.684-3.936-11.922-8.357-18.66-10.158-12.933-3.457-29.844-2.098-45.008 4.801-9.14 4.159-18.241 12.574-22.429 21.274-5.109 10.613-3.752 23.526.644 29.952 1.352 1.976 3.932 4.14 4.841 3.182.943-.936-.715-1.964-2.28-2.236-2.566-.446-6.004-.773-13.196 1.666-5.227 1.772-9.611 4.664-13.304 8.787-3.163 3.533-7.648 12.968-6.829 19.498 1.027 8.185 2.737 12.542 7.036 16.483 5.59 5.125 10.563 7.71 13.343 8.755 1.997.751 2.482.827 3.048.351.93-1.07.763-1.964-1.182-.42-3.375 2.68-4.644 11.43-3.032 18.541 2.092 9.225 9.391 19.423 17.892 25.663 9.979 7.325 20.684 11.296 32.322 12.227 11.089.888 19.996-2.641 23.758-5.113 1.17-.769 2.493-1.445 2.16-2.192-1.124-.578-1.023-.505-.767 1.576.888 7.214 13.172 13.56 24.48 16.827 15.899 4.595 35.378 4.79 51.485 2.07 14.106-2.381 25.26-7.63 32.451-13.891 2.302-2.005 4.082-4.72 3.698-6.055l-.944.221c2.133 4.09 12.22 6.393 20.81 6.798 10.484.493 23.154-2.62 30.24-6.79 9.189-5.408 19.592-14.821 16.492-29.002-.898-4.111-2.778-7.273-3.673-7.113-.773.137-.72.107-.498.92 1.26.539 4.091-.92 5.772-2.078 2.453-1.688 5.65-4.581 8.597-9.536 2.54-4.27 6.065-13.767 4.478-26.304-1.991-15.722-11.55-28.081-23.028-32.612-4.214-1.664-7.33-1.665-7.33-1.665" style="fill:#e5f6ff;fill-opacity:1;stroke:#000;stroke-width:1;stroke-miterlimit:2;stroke-dasharray:none"/><path id="path108426" d="M1151.832 1395.817c8.517 1.523 9.795-7.457 9.22-13.501-1.069-11.208-9.94-25.035-21.459-32.933-6.753-4.631-17.56-7.132-27.285-5.633-4.696.723-7.776 1.992-8.886 2.705-2.333 1.498-2.067 1.727-1.725 2.186.767.708 1.329 1.062 1.27.088-.386-6.414-8.427-14.608-21.74-19.245-18.41-6.414-46.45-7.066-60.965 2.922-6.742 4.638-11.161 11.222-11.865 16.502-.16 1.194.839 1.9 1.252 1.798 1.295-.319 1.585-1.08.756-1.785-3.911-3.328-12.226-6.99-18.964-8.79-12.932-3.457-29.843-2.098-45.008 4.8-9.14 4.16-18.241 12.575-22.429 21.275-5.109 10.613-3.752 23.526.644 29.952 1.352 1.976 2.716 3.38 3.711 2.384.964-.974.483-1.167-.977-1.438-2.393-.446-5.598-.774-12.305 1.665-4.873 1.772-9.039 4.601-12.404 8.788-3.634 4.52-6.629 12.274-6.14 19.498.469 6.92 2.096 11.325 6.332 16.483 4.64 5.648 9.394 7.71 11.986 8.755 1.862.75 2.314.826 2.65.35.736-1.068.569-1.964-1.376-.42-3.374 2.681-4.644 11.432-3.032 18.542 2.093 9.225 9.391 19.423 17.892 25.663 9.98 7.325 20.668 10.92 32.322 11.62 9.721.583 19.426-1.693 22.998-3.366 1.268-.594 2.265-.99 1.932-1.736-1.123-.578-1.057-.594-.539 1.12 1.228 4.06 13.933 12.419 25.24 15.687 15.899 4.595 35.378 4.79 51.485 2.07 14.106-2.382 25.26-7.63 32.452-13.891 2.302-2.005 4.082-4.72 3.698-6.055l-.945.221c2.133 4.09 12.22 6.393 20.81 6.797 10.485.494 23.154-2.62 30.24-6.79 9.19-5.408 19.592-14.82 16.493-29-.899-4.112-2.778-7.274-3.673-7.115-.774.138-.721.108-.498.921 1.259.538 4.09-.921 5.772-2.078 2.453-1.689 5.65-4.581 8.597-9.537 2.539-4.269 6.064-13.767 4.477-26.303-1.991-15.722-11.55-28.082-23.028-32.613-4.213-1.663-7.33-1.664-7.33-1.664" style="fill:#e5f6ff;fill-opacity:1;stroke:#000;stroke-width:.999997;stroke-miterlimit:2;stroke-dasharray:none"/><path id="path111868" d="M1470.538 1465.502c8.517 1.523 9.795-7.457 9.219-13.5-1.068-11.21-9.94-25.036-21.458-32.934-6.754-4.631-17.56-7.132-27.285-5.633-4.696.724-7.777 1.993-8.887 2.705-2.333 1.498-2.066 1.727-1.724 2.186.767.709 1.328 1.062 1.27.088-.387-6.414-8.427-14.607-21.74-19.245-18.41-6.414-46.45-7.065-60.966 2.922-6.742 4.638-11.16 11.222-11.865 16.502-.159 1.194.84 1.9 1.252 1.798 1.296-.319 1.586-1.08.757-1.785-3.912-3.328-12.226-6.99-18.965-8.79-12.932-3.457-29.843-2.098-45.007 4.801-9.141 4.159-18.242 12.574-22.43 21.274-5.108 10.613-3.752 23.526.644 29.952 1.352 1.976 2.717 3.38 3.659 2.407.907-.916.428-1.102-1.027-1.365-2.385-.43-5.58-.746-12.264 1.609-4.857 1.711-9.01 4.442-12.363 8.485-3.622 4.365-6.607 11.851-6.12 18.826.467 6.681 2.09 10.935 6.311 15.915 4.625 5.453 9.363 7.444 11.946 8.453 1.856.726 2.307.799 2.776.407.87-1.034.703-1.957-1.236-.365-3.365 2.761-4.631 11.777-3.023 19.103 2.086 9.504 9.364 20.01 17.841 26.44 9.95 7.547 20.609 11.25 32.23 11.972 9.694.6 19.371-1.744 22.933-3.468 1.264-.612 2.259-1.019 1.927-1.71-1.124-.5-.607-.59-.54 1.2.154 4.06 9.742 11.344 25.24 15.686 15.936 4.465 35.379 4.79 51.485 2.07 14.106-2.382 25.261-7.63 32.452-13.891 2.302-2.005 4.082-4.72 3.698-6.055l-.947.221c2.228 4.09 10.937 6.545 19.906 6.95 10.949.493 24.42-2.522 31.577-7.094 8.228-5.256 18.635-13.454 19.198-27.786.166-4.214-3.053-8.337-3.987-8.178l-1.027.547c1.209.554 3.837-.843 5.388-1.96 2.263-1.63 5.19-4.438 7.81-9.292 2.257-4.182 5.271-13.52 3.348-25.95-2.411-15.59-11.866-27.978-22.873-32.653-4.04-1.716-6.988-1.769-6.988-1.769" style="fill:#e5f6ff;fill-opacity:1;stroke:#000;stroke-width:.999997;stroke-miterlimit:2;stroke-dasharray:none"/><path id="path112686" d="M1037.913 591.719c3.965-1.723 6.343-6.235 6.828-13.284 1.043-15.175-8.556-34.715-21.325-43.959-11.225-8.126-21.303-8.53-28.322-7.773-6.667.72-13.43 3.634-17.062 8.43-1.924 2.541.102 3.237.036 3.204.439.286.17-.781-.128-2.738-.77-5.05-7.436-14.439-17.167-20.71-19.33-12.458-46.657-11.991-64.477 2.39-9.92 8.006-14.802 16.816-16.108 21.798-.777 2.965-.155 3.507.086 3.626.337 1.356 1.773.148 1.174-.838-3.29-5.41-13.773-11.457-21.193-13.487-14.24-3.894-32.862-2.363-49.56 5.41-10.066 4.686-20.087 14.167-24.698 23.968-5.626 11.957-4.132 26.505.709 33.746 1.488 2.226 4.33 4.664 5.33 3.584 1.039-1.054-.786-2.213-2.51-2.519-2.826-.502-6.611-.87-14.531 1.877-5.756 1.997-10.584 5.255-14.65 9.9-3.483 3.98-8.422 14.61-7.52 21.968 1.131 9.222 3.014 14.13 7.748 18.57 6.155 5.774 10.345 8.203 14.719 9.327 2.278.585 2.602.904 3.403.42 1.479-.897 1.388-1.858-1.214-.555-4.515 2.261-7.21 11.196-6.132 18.878 1.398 9.966 9.104 21.779 18.806 29.65 11.388 9.239 24.105 15.091 38.367 17.92 13.588 2.693 26.578.442 31.457-2.309 3.131-1.96 4.366-2.172 4.056-4.457-.857-.613-2.261.96-.76 2.657 7.923 8.96 17.425 13.06 29.677 15.846 14.735 3.352 34.12 3.745 49.12.413 14.888-3.306 26.387-9.548 34.318-18.404 2.18-2.434 3.26-3.945 3.501-5.558l-1.781.843c2.349 4.608 14.732 8.509 24.19 8.964 11.546.556 25.497-2.951 33.3-7.65 10.119-6.093 21.574-16.698 18.161-32.674-.99-4.632-2.611-7.204-6.68-10.784-.655-.577-2.375-.533-2.13.383 2.587.92 5.478.318 7.908-.62 4.563-1.76 9.054-6.028 12.299-11.61 2.796-4.81 6.51-12.943 4.763-27.067-2.192-17.713-12.717-31.638-25.357-36.743-4.64-1.873-8.071-1.875-8.071-1.875" style="fill:#e5f6ff;fill-opacity:1;stroke:#000;stroke-width:.999998;stroke-miterlimit:2;stroke-dasharray:none"/><path id="path116777" d="M1441.223 1689.682c9.106 1.63 10.472-7.973 9.856-14.435-1.141-11.985-10.626-26.77-22.941-35.214-7.22-4.952-18.775-7.626-29.172-6.023-5.02.774-8.314 2.13-9.5 2.892-2.495 1.603-2.21 1.847-1.844 2.338.82.757 1.42 1.135 1.357.094-.413-6.859-8.625-15.494-22.754-20.74-20.66-7.67-44.002-5.413-58.52 2.473-8.608 4.677-15.978 12.714-16.568 16.735-.187 1.274.552.881.994.773 1.385-.34 1.238-.407.464-1.277-2.861-3.213-13.742-6.842-21.343-8.153-14.241-2.456-34.07-1.937-49.629 6.129-9.985 5.176-19.1 12.813-23.578 22.115-5.462 11.348-4.414 25.787.287 32.658 1.445 2.113 2.904 3.614 3.91 2.574.971-.98.458-1.179-1.097-1.46-2.55-.46-5.965-.798-13.112 1.72-5.193 1.83-9.632 4.75-13.218 9.073-3.872 4.667-7.064 12.672-6.542 20.13.5 7.144 2.233 11.692 6.747 17.017 4.944 5.83 10.01 7.96 12.772 9.039 1.984.775 2.466.853 2.968.434.93-1.106.751-2.092-1.322-.39-3.598 2.952-4.951 12.592-3.232 20.425 2.23 10.163 10.012 21.397 19.075 28.272 10.638 8.069 22.033 12.03 34.459 12.8 10.363.643 20.71-1.864 24.518-3.708 1.35-.654 2.415-1.089 2.06-1.828-1.202-.534-.649-.631-.577 1.282.164 4.342 10.415 12.13 26.985 16.774 17.038 4.774 37.824 5.121 55.044 2.213 15.082-2.547 27.008-8.158 34.696-14.853 2.461-2.144 4.364-5.048 3.953-6.474l-1.012.236c2.382 4.373 11.693 6.998 21.283 7.43 11.705.528 26.107-2.695 33.76-7.584 8.796-5.62 19.923-14.385 20.525-29.71.177-4.506-3.264-8.915-4.263-8.744l-1.098.585c1.292.591 4.103-.902 5.761-2.096 2.42-1.743 5.548-4.746 8.349-9.935 2.413-4.472 5.637-14.457 3.58-27.748-2.578-16.668-12.686-29.915-24.455-34.914-4.32-1.834-7.47-1.891-7.47-1.891" style="fill:#e5f6ff;fill-opacity:1;stroke:#000;stroke-width:.999997;stroke-miterlimit:2;stroke-dasharray:none"/><path id="path120051" d="M1068.417 1681.579c9.117 1.52 10.428-8.095 9.775-14.549-1.21-11.967-10.782-26.634-23.148-34.93-7.25-4.865-18.822-7.4-29.212-5.675-5.018.833-8.304 2.229-9.487 3.004-2.486 1.632-2.2 1.873-1.83 2.36.824.747 1.426 1.117 1.358.077-.453-6.852-8.716-15.387-22.879-20.464-20.707-7.422-44.043-4.888-58.518 3.169-8.584 4.777-15.91 12.9-16.477 16.926-.18 1.275.558.875.999.76 1.383-.356 1.236-.42.457-1.28-2.88-3.18-13.784-6.678-21.394-7.898-14.259-2.287-34.09-1.532-49.606 6.716-9.957 5.294-19.031 13.036-23.456 22.39-5.398 11.409-4.268 25.83.473 32.644 1.458 2.096 2.925 3.579 3.927 2.527.965-.991.45-1.184-1.106-1.446-2.554-.43-5.972-.727-13.106 1.875-5.183 1.891-9.607 4.863-13.169 9.227-3.846 4.712-6.993 12.752-6.428 20.202.54 7.136 2.3 11.662 6.846 16.932 4.978 5.77 10.057 7.838 12.826 8.884 1.99.752 2.472.824 2.971.4.923-1.118.74-2.101-1.324-.376-3.582 2.995-4.88 12.648-3.116 20.458 2.289 10.133 10.136 21.272 19.24 28.037 10.688 7.94 22.108 11.764 34.54 12.387 10.37.52 20.705-2.11 24.503-3.998 1.348-.67 2.41-1.118 2.05-1.852-1.204-.52-.652-.624-.569 1.289.189 4.338 10.486 12.002 27.087 16.447 17.069 4.57 37.862 4.67 55.07 1.56 15.07-2.726 26.966-8.478 34.618-15.262 2.45-2.172 4.336-5.098 3.917-6.52l-1.01.25c2.406 4.342 11.947 5.435 21.6 5.068 9.831-.373 23.781-4.093 31.407-9.072 8.767-5.723 19.384-14.392 20.672-26.143.593-5.412-1.423-9.431-2.58-9.298l-1.095.598c1.296.576 4.099-.95 5.75-2.164 2.41-1.77 5.523-4.81 8.295-10.031 2.388-4.499 5.555-14.52 3.422-27.783-2.674-16.632-12.86-29.755-24.66-34.612-4.332-1.783-7.483-1.802-7.483-1.802" style="fill:#e5f6ff;fill-opacity:1;stroke:#000;stroke-width:.999997;stroke-miterlimit:2;stroke-dasharray:none"/><path id="path120878" d="M716.541 1677.97c9.117 1.52 10.429-8.096 9.776-14.55-1.21-11.966-10.782-26.634-23.148-34.93-7.25-4.864-18.823-7.4-29.213-5.675-5.017.834-8.304 2.23-9.486 3.005-2.486 1.631-2.2 1.873-1.83 2.359.823.747 1.426 1.117 1.357.078-.452-6.852-8.715-15.388-22.878-20.464-20.708-7.423-44.043-4.889-58.519 3.168-8.583 4.777-15.909 12.9-16.476 16.926-.18 1.276.557.875.998.761 1.384-.357 1.236-.421.457-1.281-2.88-3.179-13.783-6.677-21.394-7.898-14.258-2.286-34.089-1.532-49.605 6.717-9.958 5.294-19.031 13.036-23.457 22.388-5.398 11.41-4.267 25.832.474 32.646 1.457 2.095 2.925 3.578 3.944 2.494.911-.986.435-1.172-1.005-1.424-2.362-.414-5.523-.7-12.121 1.806-4.795 1.82-8.886 4.683-12.181 8.885-3.558 4.537-6.468 12.28-5.946 19.454.5 6.872 2.128 11.23 6.332 16.305 4.605 5.557 9.303 7.548 11.864 8.555 1.84.724 2.286.794 2.31.695.487-.807.304-1.79-1.76-.065-3.582 2.994-4.88 14.167-3.116 21.978 2.289 10.133 10.136 21.271 19.24 28.036 10.687 7.94 22.108 11.764 34.54 12.387 10.37.52 20.705-2.109 24.503-3.998 1.348-.67 2.41-1.117 2.05-1.852-1.205-.52-.653-.624-.57 1.289.19 4.338 10.487 12.002 27.088 16.448 17.068 4.57 37.862 4.67 55.07 1.558 15.07-2.725 26.966-8.476 34.617-15.26 2.45-2.173 4.337-5.099 3.918-6.52l-1.011.249c2.407 4.343 11.948 5.435 21.601 5.069 9.831-.374 23.781-4.094 31.407-9.073 8.766-5.723 19.384-14.391 20.672-26.143.592-5.412-1.424-9.431-2.58-9.297l-1.095.597c1.296.576 4.098-.95 5.75-2.164 2.41-1.77 5.522-4.81 8.294-10.03 2.389-4.5 5.555-14.52 3.423-27.783-2.674-16.633-12.86-29.755-24.66-34.613-4.332-1.783-7.484-1.802-7.484-1.802" style="fill:#e5f6ff;fill-opacity:1;stroke:#000;stroke-width:.999997;stroke-miterlimit:2;stroke-dasharray:none"/><path id="path123354" d="M332.573 1779.7c1.274.624 4.156-.977 5.826-2.165 3.118-2.218 5.91-4.818 8.873-9.934 2.553-4.408 5.656-13.122 4.229-27.207-1.699-16.76-11.756-30.209-23.369-35.498-4.263-1.94-7.411-2.076-7.411-2.076" style="fill:none;fill-opacity:1;stroke:#000;stroke-width:.999997;stroke-miterlimit:2;stroke-dasharray:none"/><path id="path123356" d="M265.493 1817.805c2.308 4.284 13.068 6.329 22.323 5.967 9.426-.369 22.156-3.823 29.467-8.734 8.406-5.645 17.296-13.658 18.53-25.25.57-5.338-1.686-10.592-2.795-10.46l-.405.16" style="fill:none;fill-opacity:1;stroke:#000;stroke-width:.999994;stroke-miterlimit:2;stroke-dasharray:none"/><path id="path123358" d="M320.67 1703.464c9.116 1.52 10.428-8.095 9.775-14.548-1.21-11.968-10.782-26.635-23.148-34.931-7.25-4.865-18.823-7.4-29.213-5.675-5.017.833-8.304 2.23-9.486 3.005-2.486 1.631-2.2 1.872-1.83 2.359.824.747 1.426 1.117 1.357.078-.452-6.852-8.715-15.388-22.878-20.465-20.708-7.422-44.043-4.888-58.518 3.169-8.584 4.777-15.91 12.9-16.477 16.926-.18 1.276.557.875.998.761 1.384-.357 1.236-.422.457-1.281-2.88-3.18-13.783-6.677-21.394-7.898-14.258-2.286-34.089-1.532-49.605 6.717-9.958 5.293-19.031 13.036-23.456 22.388-5.399 11.41-4.268 25.832.473 32.646 1.458 2.095 2.925 3.578 3.944 2.494.911-.986.435-1.172-1.005-1.424-2.362-.414-5.523-.7-12.121 1.805-4.795 1.821-8.886 4.684-12.18 8.886-3.559 4.537-6.469 12.28-5.947 19.454.5 6.871 2.128 11.23 6.332 16.305 4.605 5.557 9.303 7.548 11.864 8.555 1.84.724 2.286.794 2.31.695.487-.807.304-1.79-1.76-.065-3.582 2.994-4.88 14.167-3.116 21.977 2.289 10.133 10.136 21.272 19.24 28.037 10.687 7.94 22.108 11.764 34.54 12.387 10.37.52 20.705-2.11 24.503-3.998 1.348-.67 2.41-1.118 2.05-1.852-1.205-.52-.652-.624-.57 1.289.19 4.338 10.487 12.002 27.088 16.447 17.068 4.57 37.862 4.67 55.07 1.56 15.07-2.726 26.966-8.478 34.617-15.262 2.45-2.172 4.337-5.098 3.918-6.52" style="fill:none;fill-opacity:1;stroke:#000;stroke-width:.999997;stroke-miterlimit:2;stroke-dasharray:none"/><path id="path138480" d="M1049.281 882.362c9.39 1.682 10.8-8.234 10.165-14.908-1.177-12.376-10.96-27.644-23.66-36.365-7.447-5.113-17.739-7.875-28.461-6.22-6.57 1.014-12.23 3.5-15.524 5.546-2.598 1.613-3.375 2.313-3.126 2.6.696.544 1.951-.911 1.639-1.905-1.875-5.963-7.97-13.171-18.115-18.985-19.145-10.97-49.15-8.632-63.527 3.529-7.205 6.094-11.602 11.669-11.786 18.53-.034 1.286.328 1.38.77 1.271 1.384-.34 1.278-.895.483-1.745-3.936-4.206-12.74-8.931-19.941-10.856-13.82-3.695-31.892-2.242-48.097 5.131-9.768 4.445-19.493 13.439-23.969 22.737-5.459 11.342-4.01 25.143.688 32.011 1.445 2.112 4.203 4.424 5.174 3.4 1.007-1-.764-2.099-2.436-2.39-2.743-.476-6.416-.826-14.103 1.78-5.585 1.895-10.27 4.986-14.216 9.393-3.381 3.775-8.174 13.859-7.298 20.838 1.098 8.748 2.924 13.403 7.518 17.616 5.974 5.477 11.289 8.24 14.26 9.357 2.133.802 2.652.883 3.257.375.993-1.143.815-2.1-1.263-.449-3.607 2.865-4.963 12.217-3.24 19.816 2.235 9.859 10.035 20.758 19.12 27.427 10.663 7.828 22.103 12.072 34.54 13.068 11.85.948 22.672-3.008 26.537-6.413 1.173-.929 2.463-1.889 2.107-2.687-1.2-.618-1.424-.203-1.22 2.03.776 8.542 13.53 15.438 25.614 18.93 16.99 4.911 37.806 5.12 55.018 2.213 15.074-2.546 26.805-7.838 35.178-16.253 2.301-2.312 3.051-4.735 2.641-6.161l-1.436.094c2.28 4.37 14.297 8.071 23.477 8.503 11.204.527 24.744-2.8 32.315-7.256 9.82-5.78 20.938-15.84 17.626-30.996-.96-4.394-2.465-7.042-5.718-9.743-.646-.536-1.055-.819-.817.05 1.33.492 3.683.163 5.659-.761 4.286-2.006 8.787-5.718 11.936-11.014 2.713-4.563 6.318-12.277 4.622-25.676-2.128-16.802-12.342-30.011-24.608-34.854-4.503-1.777-7.833-1.779-7.833-1.779" style="fill:#e5f6ff;fill-opacity:1;stroke:#000;stroke-width:1;stroke-miterlimit:2;stroke-dasharray:none"/><path id="path141798" d="M449.186 1957.03c9.39 1.683 10.8-8.233 10.165-14.907-1.178-12.376-10.96-27.644-23.66-36.365-7.447-5.113-17.739-7.875-28.462-6.22-6.569 1.014-12.229 3.5-15.523 5.546-2.598 1.613-3.375 2.313-3.126 2.6.695.544 1.951-.911 1.639-1.905-1.875-5.962-7.97-13.171-18.116-18.985-19.144-10.97-48.508-7.83-63.526 3.529-7.205 5.45-12.032 11.884-12.86 17.456-.19 1.272.327 1.38.769 1.27 1.384-.34 1.278-.895.483-1.744-3.936-4.206-12.525-7.857-19.726-9.782-13.82-3.695-31.032-2.242-47.237 5.131-9.768 4.445-19.494 13.439-23.969 22.737-5.46 11.342-4.01 25.143.688 32.011 1.445 2.112 4.202 4.424 5.174 3.4 1.007-1-.764-2.099-2.436-2.39-2.743-.476-6.416-.826-14.103 1.78-5.585 1.895-10.27 4.986-14.216 9.393-3.381 3.776-8.174 13.859-7.298 20.838 1.097 8.748 3.22 13.101 7.518 17.616 5.213 5.477 11.288 8.24 14.259 9.357 2.134.802 2.653.883 3.258.375.993-1.143.815-2.1-1.264-.449-3.606 2.865-4.963 12.217-3.24 19.816 2.236 9.859 10.036 20.758 19.12 27.427 10.664 7.828 22.104 12.072 34.541 13.068 11.85.948 22.671-3.008 26.537-6.413 1.172-.929 2.463-1.888 2.107-2.687-1.2-.618-1.424-.203-1.221 2.03.777 8.542 13.53 15.438 25.615 18.93 16.99 4.911 37.806 5.12 55.018 2.213 15.074-2.546 26.804-7.838 35.178-16.253 2.301-2.312 3.051-4.735 2.64-6.16l-1.435.093c2.28 4.37 14.297 8.071 23.477 8.503 11.204.527 24.743-2.8 32.315-7.256 9.82-5.78 20.937-15.84 17.625-30.995-.96-4.395-2.464-7.043-5.718-9.744-.645-.536-1.054-.819-.816.05 1.33.492 3.683.163 5.659-.762 4.286-2.005 8.787-5.718 11.936-11.013 2.713-4.563 6.318-12.707 4.622-26.106-2.128-16.802-13.417-28.614-24.609-33.994-4.363-2.097-7.832-2.209-7.832-2.209" style="fill:#e5f6ff;fill-opacity:1;stroke:#000;stroke-width:1;stroke-miterlimit:2;stroke-dasharray:none"/><path id="path144194" d="M785.502 1947.497c9.39 1.683 10.8-8.233 10.165-14.907-1.177-12.376-10.96-27.644-23.66-36.365-7.447-5.114-17.739-7.875-28.461-6.22-6.57 1.013-12.23 3.5-15.524 5.545-2.598 1.614-3.375 2.314-3.126 2.6.696.545 1.951-.91 1.639-1.905-1.874-5.962-7.97-13.17-18.115-18.984-19.145-10.97-48.509-7.831-63.527 3.528-7.205 5.45-12.032 11.884-12.86 17.456-.19 1.273.327 1.38.769 1.271 1.384-.34 1.278-.895.484-1.744-3.937-4.207-12.526-7.857-19.727-9.782-13.82-3.695-31.032-2.243-47.237 5.131-9.768 4.445-19.278 13.224-23.754 22.521-5.459 11.343-4.225 24.069.474 30.937 1.444 2.112 4.202 4.424 5.173 3.43 1.007-.993-.764-2.115-2.436-2.412-2.743-.487-8.136-.844-14.103 1.388-5.536 2.072-10.859 5.573-14.86 10.024-4.242 4.717-8.174 14.372-7.299 21.501 1.098 8.936 3.866 13.168 8.163 17.78 5.214 5.594 11.289 8.416 14.26 9.558 2.133.82 2.652.902 3.257.386.993-1.14.815-2.096-1.263-.445-3.606 2.864-4.963 12.216-3.24 19.815 2.235 9.86 10.035 20.758 19.12 27.427 10.663 7.829 22.103 12.073 34.54 13.068 11.85.949 22.672-3.007 26.537-6.412 1.173-.93 2.463-1.889 2.107-2.687-1.2-.618-1.424-.203-1.22 2.029.776 8.543 13.53 15.438 25.614 18.931 16.99 4.911 37.806 5.12 55.018 2.213 15.075-2.546 26.805-7.838 35.178-16.253 2.301-2.312 3.052-4.735 2.641-6.161l-1.436.094c2.28 4.37 14.298 8.07 23.477 8.503 11.204.527 24.744-2.8 32.315-7.257 9.82-5.78 20.938-15.84 17.626-30.995-.96-4.394-2.465-7.042-5.718-9.743-.646-.537-1.055-.819-.817.05 1.33.491 3.683.162 5.659-.762 4.287-2.005 8.787-5.718 11.936-11.014 2.713-4.563 6.319-12.707 4.622-26.105-2.127-16.803-13.416-28.615-24.608-33.995-4.363-2.097-7.833-2.208-7.833-2.208" style="fill:#e5f6ff;fill-opacity:1;stroke:#000;stroke-width:1;stroke-miterlimit:2;stroke-dasharray:none"/><path id="path146699" d="M1149.87 1947.574c9.39 1.682 10.8-8.234 10.165-14.908-1.177-12.376-10.96-27.644-23.66-36.365-7.447-5.113-17.739-7.875-28.461-6.22-6.57 1.014-12.23 3.5-15.523 5.546-2.6 1.613-3.376 2.313-3.127 2.6.696.544 1.951-.912 1.639-1.905-1.875-5.962-7.97-13.171-18.115-18.985-19.145-10.97-48.509-7.83-63.527 3.529-7.205 5.45-12.032 11.884-12.86 17.456-.19 1.272.327 1.38.769 1.27 1.384-.34 1.278-.895.484-1.744-3.937-4.206-12.526-7.857-19.727-9.782-13.82-3.695-31.032-2.242-47.237 5.131-9.768 4.445-19.279 13.224-23.754 22.522-5.459 11.342-4.225 24.068.473 30.937 1.445 2.112 4.203 4.424 5.174 3.429 1.007-.992-.764-2.115-2.436-2.412-2.743-.487-8.136-.844-14.103 1.389-5.536 2.071-10.859 5.572-14.861 10.023-4.24 4.717-8.173 14.372-7.298 21.501 1.098 8.936 3.866 13.168 8.163 17.78 5.214 5.595 11.289 8.417 14.26 9.558 2.133.82 2.652.902 3.257.386.993-1.139.815-2.096-1.263-.445-3.607 2.865-4.963 12.217-3.24 19.816 2.235 9.859 10.035 20.758 19.12 27.427 10.663 7.828 22.103 12.072 34.54 13.068 11.85.948 22.686-3.215 26.967-6.198 1.227-.855 2.204-1.978 1.194-2.687-1.105-.776-2.367-.804-1.168 1.09 4.08 6.437 14.15 14.654 26.045 18.744 18.368 6.315 37.591 6.701 54.803 3.795 15.074-2.546 27.02-8.509 35.393-16.924 2.301-2.312 3.051-4.735 2.641-6.161l-1.436.094c2.28 4.37 14.297 8.071 23.477 8.503 11.204.527 24.744-2.8 32.315-7.256 9.82-5.78 20.938-15.84 17.626-30.996-.96-4.394-2.465-7.042-5.718-9.743-.646-.536-1.055-.819-.817.05 1.33.492 3.683.163 5.659-.762 4.287-2.005 8.787-5.717 11.936-11.013 2.713-4.563 6.318-12.707 4.622-26.106-2.127-16.802-13.416-28.614-24.608-33.994-4.363-2.097-7.833-2.209-7.833-2.209" style="fill:#e5f6ff;fill-opacity:1;stroke:#000;stroke-width:1;stroke-miterlimit:2;stroke-dasharray:none"/><path id="path147537" d="M757.895 379.16c1.85 4.631 13.016 8.754 21.72 9.39 10.623.777 23.75-2.443 31.282-6.969 9.768-5.869 21.082-16.203 19.039-32.171-.593-4.63-1.831-7.44-4.73-10.338-.575-.576-.943-.88-.78.036" style="fill:none;fill-opacity:1;stroke:#000;stroke-width:1;stroke-miterlimit:2;stroke-dasharray:none"/><path id="path151953" d="M800.092 2189.452c9.391 1.682 10.8-8.234 10.165-14.908-1.177-12.376-10.96-27.644-23.66-36.365-7.447-5.114-17.739-7.875-28.461-6.22-6.57 1.014-12.23 3.5-15.523 5.545-2.599 1.614-3.375 2.314-3.126 2.6.695.545 1.95-.91 1.638-1.904-1.874-5.963-7.97-13.171-18.115-18.985-19.145-10.97-48.509-7.831-63.527 3.528-7.205 5.45-12.032 11.884-12.86 17.456-.19 1.273.328 1.38.77 1.271 1.384-.34 1.278-.895.483-1.745-3.937-4.206-12.526-7.857-19.727-9.782-13.82-3.694-31.031-2.242-47.237 5.132-9.768 4.445-19.278 13.224-23.753 22.521-5.46 11.343-4.225 24.069.473 30.937 1.444 2.112 4.202 4.424 5.174 3.43 1.007-.993-.764-2.116-2.437-2.412-2.743-.487-8.135-.844-14.102 1.388-5.536 2.072-10.86 5.573-14.862 10.024-4.24 4.716-8.173 14.372-7.298 21.501 1.098 8.936 3.866 13.168 8.164 17.78 5.213 5.594 11.288 8.416 14.258 9.557 2.135.82 2.653.903 3.258.387.993-1.14.815-2.096-1.263-.445-3.606 2.864-4.963 12.216-3.24 19.815 2.236 9.86 10.036 20.758 19.12 27.427 10.664 7.829 22.103 12.073 34.54 13.068 11.85.949 22.686-3.214 26.967-6.197 1.227-.856 2.205-1.978 1.194-2.688-1.105-.775-2.367-.803-1.167 1.09 4.079 6.438 14.15 14.654 26.044 18.744 18.369 6.316 37.592 6.702 54.804 3.795 15.074-2.545 27.019-8.508 35.392-16.923 2.302-2.313 3.052-4.735 2.641-6.161l-1.04.21c2.863 4.423 11.84 8.41 20.187 9.353 10.189 1.15 23.136-.853 30.746-5.224 12.077-6.937 20.579-17.37 20.35-32.459-.073-4.817-1.875-8.854-3.482-11.113-.465-.653-1.001-.79-1.11.024 1.126.352 3.48.023 5.455-.901 4.287-2.005 8.787-5.718 11.936-11.014 2.713-4.563 6.319-12.707 4.622-26.105-2.127-16.803-13.416-28.615-24.608-33.995-4.363-2.097-7.833-2.208-7.833-2.208" style="fill:#e5f6ff;fill-opacity:1;stroke:#000;stroke-width:1;stroke-miterlimit:2;stroke-dasharray:none"/><path id="path154459" d="M1175.79 2198.57c7.134-2.186 8.08-13.704 7.444-20.379-1.177-12.376-9.151-24.389-20.94-30.678-7.97-4.253-17.647-6.74-28.46-5.864-7.215.584-12.23 2.929-15.524 4.974-2.598 1.614-3.375 2.314-3.126 2.6.695.545 1.951-.91 1.639-1.905-1.875-5.962-7.97-13.17-18.116-18.984-19.144-10.97-48.508-7.831-63.526 3.528-7.205 5.45-12.032 11.884-12.86 17.456-.19 1.273.327 1.38.769 1.271 1.384-.34 1.278-.895.483-1.745-3.936-4.206-12.525-7.857-19.726-9.782-13.82-3.694-31.032-2.242-47.237 5.132-9.769 4.445-19.279 13.223-23.754 22.521-5.46 11.343-4.225 24.069.473 30.937 1.445 2.112 4.202 4.424 5.174 3.43 1.007-.993-.764-2.116-2.436-2.412-2.743-.487-8.136-.845-14.103 1.388-5.536 2.072-10.86 5.572-14.861 10.024-4.24 4.716-8.174 14.372-7.298 21.5 1.097 8.937 3.866 13.169 8.163 17.78 5.213 5.595 11.288 8.417 14.259 9.558 2.134.82 2.653.903 3.258.387.993-1.14.815-2.096-1.264-.445-3.606 2.864-4.963 12.216-3.24 19.815 2.236 9.86 10.036 20.758 19.12 27.427 10.664 7.829 22.104 12.073 34.541 13.068 11.85.949 22.671-3.007 26.537-6.412 1.172-.93 2.463-1.889 2.107-2.688-1.2-.617-1.424-.203-1.221 2.03.777 8.542 13.53 15.438 25.615 18.931 16.99 4.91 37.806 5.12 55.018 2.212 15.074-2.545 26.804-7.837 35.178-16.252 2.301-2.313 3.051-4.735 2.64-6.161l-1.435.093c2.28 4.371 14.297 8.071 23.477 8.504 11.204.527 24.743-2.8 32.315-7.257 9.82-5.78 20.937-15.84 17.625-30.995-.96-4.394-2.465-7.043-5.718-9.744-.646-.536-1.054-.818-.816.05 1.329.492 3.683.163 5.659-.761 4.286-2.005 8.787-5.718 11.935-11.014 2.714-4.563 6.32-12.707 4.623-26.105-2.128-16.803-13.417-28.615-24.609-33.995-4.363-2.097-7.832-2.208-7.832-2.208" style="fill:#e5f6ff;fill-opacity:1;stroke:#000;stroke-width:1;stroke-miterlimit:2;stroke-dasharray:none"/><path id="path167130" d="M1551.487 2199.234c7.134-2.186 8.153-13.712 7.445-20.379-1.178-11.086-9.152-23.1-20.725-30.249-7.685-4.747-17.862-7.169-28.676-6.293-7.214.584-12.23 2.929-15.523 4.974-2.6 1.614-3.376 2.314-3.218 2.607.588.57 1.885-.85 1.602-1.851-1.704-6.014-5.248-13.022-14.986-19.496-17.318-11.513-49.769-9.645-66.18 2.784-7.202 5.454-12.368 11.535-13.356 16.006-.277 1.256.289 1.389.17 1.062.808-.618.683-1.17-.14-1.99-4.079-4.07-12.788-7.423-20.05-9.1-13.939-3.219-31.09-1.177-47.034 6.748-9.61 4.777-18.814 13.877-22.967 23.323-5.067 11.523-3.397 24.199 1.534 30.902 1.516 2.061 4.351 4.278 5.053 3.357.771-.886-1-2.009-2.672-2.305-2.743-.487-8.136-.845-14.103 1.388-5.536 2.072-10.859 5.572-14.86 10.024-4.242 4.716-8.174 14.372-7.299 21.5 1.098 8.937 3.866 13.169 8.164 17.78 5.213 5.595 11.288 8.417 14.258 9.558 2.134.82 2.653.903 3.258.387.993-1.14.815-2.096-1.263-.445-3.606 2.864-4.963 12.216-3.24 19.815 2.236 9.86 10.035 20.758 19.12 27.427 10.663 7.829 22.103 12.073 34.54 13.068 11.85.949 22.672-3.007 26.537-6.412 1.173-.93 2.464-1.89 2.107-2.688-1.2-.617-1.424-.203-1.22 2.03.776 8.542 13.53 15.438 25.614 18.931 16.99 4.91 37.806 5.119 55.018 2.212 15.075-2.545 26.805-7.837 35.178-16.252 2.301-2.313 3.052-4.736 2.641-6.162l-1.436.094c2.28 4.371 14.298 8.071 23.477 8.504 11.204.527 24.744-2.8 32.315-7.257 9.82-5.78 20.938-15.84 17.626-30.995-.96-4.394-2.465-7.043-5.718-9.744-.646-.536-1.055-.818-.817.05 1.33.492 3.683.163 5.66-.761 4.286-2.006 8.786-5.718 11.935-11.014 2.713-4.563 6.319-12.707 4.622-26.105-2.127-16.803-13.416-28.615-24.608-33.995-4.363-2.097-7.833-2.208-7.833-2.208" style="fill:#e5f6ff;fill-opacity:1;stroke:#000;stroke-width:1;stroke-miterlimit:2;stroke-dasharray:none"/></g></svg>