<svg xmlns="http://www.w3.org/2000/svg" xmlns:xlink="http://www.w3.org/1999/xlink" id="svg171797" width="700" height="480" preserveAspectRatio="none" version="1.1" viewBox="-10 -10 700 480"><style id="style171643" type="text/css">.axes{stroke:#000;stroke-width:.9}</style><defs id="defs171655"><path id="STIXWEBMAIN-2212" stroke-width="1" d="M621 220H64v66h557z"/><path id="STIXWEBMAIN-31" stroke-width="1" d="M394 0H118v15c74 4 95 25 95 80v449c0 34-9 49-30 49-10 0-27-5-45-12l-27-10v14l179 91 9-3V76c0-43 20-61 95-61z"/><path id="STIXWEBMAIN-32" stroke-width="1" d="M474 137 420 0H29v12l178 189c94 99 130 175 130 260 0 91-54 141-139 141-72 0-107-32-147-130l-21 5c21 117 85 199 208 199 113 0 185-77 185-176 0-79-39-154-128-248L130 76h234c42 0 63 11 96 67z"/><path id="STIXWEBMAIN-39" stroke-width="1" d="M59-22 56-2c152 27 264 132 304 296-43-42-91-57-150-57-108 0-180 81-180 203 0 135 89 236 208 236 64 0 118-28 157-76 40-50 64-122 64-206 0-115-40-224-120-297C254 20 189-4 59-22Zm303 377v39c0 168-45 254-132 254-30 0-56-12-73-34-20-27-35-86-35-140 0-119 48-194 123-194 44 0 117 22 117 75z"/><path id="STIXWEBMAIN-36" stroke-width="1" d="m446 684 2-16c-157-26-269-134-296-285 49 38 83 45 127 45 117 0 189-80 189-209 0-64-18-120-51-160-37-46-93-73-159-73-79 0-142 37-177 101-28 51-47 122-47 192 0 108 38 203 109 276 86 90 165 114 303 129zm-68-496c0 128-42 194-135 194-57 0-116-24-116-116 0-152 48-252 142-252 72 0 109 72 109 174z"/><path id="STIXWEBMAIN-33" stroke-width="1" d="m61 510-16 4c29 95 92 162 196 162 93 0 156-55 156-137 0-48-26-98-93-138 44-19 62-31 83-53 28-31 44-77 44-129 0-53-17-102-46-140-48-64-143-93-232-93C80-14 41 7 41 43c0 21 18 36 41 36 17 0 33-6 61-26 37-26 58-31 86-31 74 0 130 68 130 153 0 76-35 125-104 145-22 7-45 10-102 10v14c38 13 64 24 84 36 49 28 81 73 81 134 0 68-42 102-108 102-62 0-108-32-149-106z"/><path id="STIXWEBMAIN-30" stroke-width="1" d="M476 330c0-172-63-344-226-344C79-14 24 172 24 336c0 177 69 340 230 340 131 0 222-141 222-346Zm-96-5c0 208-44 325-132 325-83 0-128-118-128-321S164 12 250 12c85 0 130 115 130 313z"/></defs><g id="layer9"><path id="path49103" d="m-351.228-287.345 85.262-14.468 120.004-14.914 83.408 27.68 17.873 54.876 2.553 51.182-9.362 51.8-89.03 31.491-139.063-1.702-72.343-19.575-7.66-52.652-10.213-49.905z" style="display:inline;fill:#e5f6ff;fill-opacity:1;stroke:#000;stroke-width:1;stroke-miterlimit:2;stroke-dasharray:none;stroke-opacity:1"/><path id="path22668-4" d="M726.883 190.83c-4.16-4.518-7.845-10.695-7.031-17.46 1.145-9.52 7.682-16.979 14.636-22.035 7.146-5.195 15.946-7.602 24.43-6.298 8.945 1.375 16.73 7.992 21.08 16.714 4.69 9.407 5.096 21.527-.08 30.761-2.586 4.613-6.01 8.76-10.424 11.249-8.048 4.539-17.826 4.37-26.116.858-7.08-3-13.807-8.342-17.154-16.114" style="display:inline;fill:#e5f6ff;fill-opacity:1;stroke:#000;stroke-width:1;stroke-miterlimit:10;stroke-dasharray:none;stroke-opacity:1"/><path id="path161369" d="M261.783 821.51c-6.144-.726-.014 7.654 2.217 9.616 10.448 9.185 23.421 14.842 36.552 18.666 21.781 6.345 45.716 7.243 65.44 1.254 10.939-3.32 22.421-11.576 27.58-21.865 1.092-2.176 2.238-4.324 3.334-6.498" style="display:inline;fill:none;stroke:#000;stroke-width:1.9;stroke-miterlimit:2"/><path id="path161371" d="M178.373 752.164c-3.048-5.01-7.268.692-9.757 3.836-7.974 10.267-9.817 24.505-6.477 36.882 3.936 15.606 16.226 27.827 30.521 34.508 19.398 9.373 42.89 11.436 62.866 2.623 2.579-1.382 10.892-4.944 6.257-8.503" style="display:inline;fill:none;stroke:#000;stroke-width:1.9;stroke-miterlimit:2"/><path id="path161373" d="M186.615 690.367c-3.62-1.602-7.813-.65-11.347.716-5.057 2.27-9.148 6.286-12.471 10.642-3.697 5.867-5.209 13-4.879 19.884.966 8.207 2.945 16.548 7.733 23.43 2.451 3.376 4.753 7.565 8.98 8.921 1.695.575 4.414-.064 4.817-2.01" style="display:inline;fill:none;stroke:#000;stroke-width:1.9;stroke-miterlimit:2"/><path id="path161375" d="M288.578 659.237c4.217-3.631-3.523-7.118-6.47-8.56-14.256-6.008-29.93-8.162-45.325-8.152-13.909.286-27.948 2.329-41.012 7.245-9.422 3.731-19.127 9.244-23.813 18.635-3.71 6.903-.61 15.97 6.05 19.819 2.19 1.115 6.854 4.108 8.607 2.143" style="display:inline;fill:none;stroke:#000;stroke-width:1.9;stroke-miterlimit:2"/><path id="path161377" d="M387.375 666.588c3.32-1.25 7.203-4.855 5.64-8.689-2.285-3.809-6.868-5.366-10.72-7.174-11.878-4.688-24.81-5.702-37.446-6.346-18.197-.554-35.241 1.665-52.515 7.625-3.318 1.145-5.654 2.58-7.646 5.651-.593 3.264.447 5.111 2.37 4.773" style="display:inline;fill:none;stroke:#000;stroke-width:1.9;stroke-miterlimit:2"/><path id="path161379" d="M448.74 708.82c4.694-1.248 6.628-5.973 8.482-10.45 3.016-7.287.472-21.704-5.86-30.33-6.637-9.549-18.011-15.088-29.384-16.355-9.776-1.057-19.676 1.81-28.127 6.617-2.606 2.11-7.665 4.47-7.353 8.15l.355.139.522-.003" style="display:inline;fill:none;stroke:#000;stroke-width:1.9;stroke-miterlimit:2"/><path id="path161381" d="M445.383 775.083c8.753-1.553 17.277-5.394 23.434-11.928 5.488-5.622 8.546-13.264 9.442-20.993 1-8.463-2.558-17.008-8.555-22.922-5.597-5.531-12.997-9.82-20.964-10.42" style="display:inline;fill:none;stroke:#000;stroke-width:1.9;stroke-miterlimit:2"/><path id="path161383" d="M409.878 829.04c4.118 4.613 16.25 6.854 27.417 4.763 6.406-1.251 16.138-8.537 19.473-13.919 5.924-9.56 6.05-22.494 1.067-32.76-2.61-5.262-6.81-10.006-12.452-12.04" style="display:inline;fill:none;stroke:#000;stroke-width:1.9;stroke-miterlimit:2"/><path id="rect163800" d="M737.091 353.531H900.95v90.944H737.091z" style="display:inline;opacity:.5;fill:#f0f;fill-opacity:1;stroke:none;stroke-width:1;stroke-miterlimit:2;stroke-dasharray:none"/><path id="path164760" d="M600.061 825.51c-6.072-.67-.334 6.967 1.702 8.778 9.536 8.48 21.387 13.838 34.257 16.904 20.076 4.783 44.997 5.182 65.316-.347 11.268-3.066 22.646-9.15 29.752-18.253 1.49-1.91 2.893-4.092 3.55-6" style="display:inline;fill:none;stroke:#000;stroke-width:.999996;stroke-miterlimit:2;stroke-dasharray:none"/><path id="path164762" d="M516.06 755.952c.284-4.903-6.645.89-9.112 4.051-7.996 10.25-9.703 24.475-6.477 36.882 4.05 15.577 16.061 28.473 30.306 35.26 19.45 9.267 43.185 10.864 63.081 1.871 2.666-1.204 10.892-4.944 6.257-8.503" style="display:inline;fill:none;stroke:#000;stroke-width:1;stroke-miterlimit:2;stroke-dasharray:none"/><path id="path164764" d="M524.947 694.37c-3.62-1.602-7.857-.761-11.347.716-5.104 2.16-9.685 7.898-11.934 11.824-3.447 6.017-5.208 13.215-4.878 20.099.966 8.207 2.407 15.151 7.195 22.034 2.451 3.375 4.975 5.932 7.69 7.416 1.57.858 4.737.902 4.495-.614" style="display:inline;fill:none;stroke:#000;stroke-width:1;stroke-miterlimit:2;stroke-dasharray:none"/><path id="path164766" d="M626.758 666.735c4.217-3.63-3.447-8.341-6.318-9.928-12.22-6.755-29.93-10.435-45.325-10.28-13.911.141-27.984 2.235-41.012 7.246-9.459 3.637-19.006 9.305-23.813 18.634-3.59 6.967-.66 16.057 6.05 19.82 2.143 1.202 6.854 4.108 8.607 2.143" style="display:inline;fill:none;stroke:#000;stroke-width:1;stroke-miterlimit:2;stroke-dasharray:none"/><path id="path164768" d="M727.508 670.743c1.25-2.163-1.208-7.902-3.97-10.817-13.234-13.967-30.827-17.355-46.219-18.08-21.127-.993-39.206 5.769-47.229 13.553-2.309 2.24-4.307 4.389-4.899 6.867-.726 3.042.086 4.503 1.943 4.165" style="display:inline;fill:none;stroke:#000;stroke-width:1;stroke-miterlimit:2;stroke-dasharray:none"/><path id="path164770" d="M787.072 712.822c4.694-1.247 6.628-5.972 8.482-10.45 3.016-7.286.472-21.703-5.86-30.329-6.637-9.549-18.011-15.088-29.384-16.355-9.776-1.057-19.676 1.81-28.127 6.617-2.606 2.11-7.665 4.47-7.353 8.15l.355.139.522-.003" style="display:inline;fill:none;stroke:#000;stroke-width:1;stroke-miterlimit:2;stroke-dasharray:none"/><path id="path164772" d="M783.815 779.086c6.555 1.671 14.224-4.927 19.365-11.372 3.515-4.407 6.853-13.785 6.818-21.549-.038-8.463-1.674-18.072-6.608-23.986-4.603-5.531-10.261-8.756-16.815-9.357" style="display:inline;fill:none;stroke:#000;stroke-width:1;stroke-miterlimit:2;stroke-dasharray:none"/><path id="path164774" d="M731.838 826.6c3.751 5.553 18.636 8.97 30.576 8.389 7.715-.376 19.376-4.71 24.458-9.578 9.026-8.645 13.577-20.83 10.087-32.36-1.852-5.923-5.67-11.627-11.77-14.835" style="display:inline;fill:none;stroke:#000;stroke-width:1;stroke-miterlimit:2;stroke-dasharray:none"/><path id="path164994" d="M934.42 825.51c-6.072-.67-.335 6.967 1.702 8.778 9.535 8.48 21.386 13.838 34.256 16.904 20.077 4.783 44.997 5.182 65.317-.347 11.268-3.066 22.646-9.15 29.752-18.253 1.49-1.91 2.893-4.092 3.549-6" style="display:inline;fill:none;stroke:#000;stroke-width:.999996;stroke-miterlimit:2;stroke-dasharray:none"/><path id="path164996" d="M850.419 755.952c.283-4.903-6.646.89-9.112 4.051-7.997 10.25-9.703 24.475-6.478 36.882 4.05 15.577 16.062 28.473 30.307 35.26 19.449 9.267 43.184 10.864 63.081 1.871 2.666-1.204 10.892-4.944 6.257-8.503" style="display:inline;fill:none;stroke:#000;stroke-width:1;stroke-miterlimit:2;stroke-dasharray:none"/><path id="path164998" d="M859.305 694.37c-3.62-1.602-7.857-.761-11.347.716-5.104 2.16-9.685 7.898-11.934 11.824-3.446 6.017-5.208 13.215-4.878 20.099.966 8.207 2.408 15.151 7.196 22.034 2.45 3.375 4.974 5.932 7.69 7.416 1.57.858 4.736.902 4.494-.614" style="display:inline;fill:none;stroke:#000;stroke-width:1;stroke-miterlimit:2;stroke-dasharray:none"/><path id="path165000" d="M958.351 666.735c4.118-3.63-3.366-8.341-6.17-9.928-11.934-6.755-29.229-10.435-44.262-10.28-13.586.141-27.328 2.235-40.052 7.246-9.237 3.637-18.56 9.305-23.255 18.634-3.505 6.967-.644 16.057 5.908 19.82 2.093 1.202 6.694 4.108 8.406 2.143" style="display:inline;fill:none;stroke:#000;stroke-width:1;stroke-miterlimit:2;stroke-dasharray:none"/><path id="path165002" d="M1058.642 670.528c1.25-2.163-1.207-7.902-3.969-10.817-13.235-13.967-30.828-17.355-46.22-18.08-21.127-.993-39.205 5.77-47.228 13.553-2.31 2.24-4.307 4.389-4.9 6.867-.726 3.042.087 4.503 1.944 4.165" style="display:inline;fill:none;stroke:#000;stroke-width:1;stroke-miterlimit:2;stroke-dasharray:none"/><path id="path165004" d="M1120.406 711.3c4.672-1.326 6.527-6.083 8.304-10.59 2.893-7.337.107-21.709-6.37-30.226-6.797-9.436-18.263-14.783-29.656-15.858-9.792-.892-19.642 2.14-28.011 7.09-2.57 2.154-7.589 4.599-7.215 8.273l.358.133.522-.012" style="display:inline;fill:none;stroke:#000;stroke-width:1;stroke-miterlimit:2;stroke-dasharray:none"/><path id="path165006" d="M1118.173 779.086c6.555 1.671 14.225-4.927 19.366-11.372 3.515-4.407 6.853-13.785 6.818-21.549-.038-8.463-3.209-18.728-8.113-24.846-4.139-5.163-10.261-9.83-17.244-11.72" style="display:inline;fill:none;stroke:#000;stroke-width:1;stroke-miterlimit:2;stroke-dasharray:none"/><path id="path165008" d="M1066.197 826.6c3.75 5.553 18.636 8.97 30.575 8.389 7.716-.376 19.376-4.71 24.458-9.578 9.026-8.645 13.578-20.83 10.088-32.36-1.853-5.923-5.67-11.627-11.77-14.835" style="display:inline;fill:none;stroke:#000;stroke-width:1;stroke-miterlimit:2;stroke-dasharray:none"/><path id="path165244" d="M954.793 1079.622c-6.072-.67-.334 6.967 1.702 8.778 9.536 8.481 21.387 13.838 34.257 16.905 20.076 4.783 44.997 5.182 65.316-.347 11.268-3.066 22.646-9.151 29.752-18.254 1.49-1.909 2.893-4.091 3.549-5.999" style="display:inline;fill:none;stroke:#000;stroke-width:.999996;stroke-miterlimit:2;stroke-dasharray:none"/><path id="path165246" d="M870.792 1010.064c.283-4.902-6.645.89-9.112 4.052-7.996 10.249-9.703 24.475-6.477 36.881 4.05 15.577 16.061 28.473 30.306 35.26 19.449 9.268 43.185 10.865 63.081 1.872 2.666-1.205 10.892-4.944 6.257-8.503" style="display:inline;fill:none;stroke:#000;stroke-width:1;stroke-miterlimit:2;stroke-dasharray:none"/><path id="path165248" d="M879.679 948.483c-3.62-1.603-8.77.758-11.803 2.843-4.568 3.14-8.925 8.658-11.174 12.584-3.447 6.017-4.448 13.215-4.119 20.1.966 8.206 1.8 12.11 6.588 18.993 2.451 3.375 4.519 5.629 7.234 7.112 1.57.859 4.737 1.359 4.495-.158" style="display:inline;fill:none;stroke:#000;stroke-width:1;stroke-miterlimit:2;stroke-dasharray:none"/><path id="path165250" d="M978.725 920.848c4.118-3.631-3.366-8.341-6.17-9.929-11.934-6.755-27.71-6.33-40.312-5.111-13.522 1.308-27.798 5.936-37.619 11.956-11.98 7.343-16.436 14.608-17.955 20.824-1.43 5.853.918 11.86 2.63 9.895" style="display:inline;fill:none;stroke:#000;stroke-width:1;stroke-miterlimit:2;stroke-dasharray:none"/><path id="path165252" d="M1079.016 924.64c1.25-2.162-1.208-7.902-3.97-10.816-13.234-13.967-30.827-17.356-46.219-18.08-21.127-.994-39.206 5.769-47.229 13.552-2.31 2.24-4.307 4.39-4.899 6.867-.727 3.042.086 4.504 1.943 4.166" style="display:inline;fill:none;stroke:#000;stroke-width:1;stroke-miterlimit:2;stroke-dasharray:none"/><path id="path165254" d="M1140.779 965.413c4.673-1.326 6.527-6.083 8.305-10.59 2.893-7.338.106-21.71-6.37-30.227-6.798-9.436-18.264-14.782-29.657-15.857-9.791-.892-19.642 2.14-28.011 7.09-2.57 2.154-7.588 4.598-7.214 8.272l.357.133.522-.012" style="display:inline;fill:none;stroke:#000;stroke-width:1;stroke-miterlimit:2;stroke-dasharray:none"/><path id="path165256" d="M1138.584 1033.199c5.636 1.67 12.23-4.927 16.652-11.373 3.022-4.406 5.892-13.785 5.862-21.549-.033-8.463-3.367-18.727-7.583-24.845-3.56-5.164-8.216-9.83-14.22-11.721" style="display:inline;fill:none;stroke:#000;stroke-width:1;stroke-miterlimit:2;stroke-dasharray:none"/><path id="path165258" d="M1086.57 1080.712c3.751 5.554 18.636 8.97 30.576 8.39 7.715-.376 19.376-4.711 24.458-9.579 9.026-8.645 13.577-20.83 10.087-32.36-1.852-5.922-5.67-11.627-11.77-14.834" style="display:inline;fill:none;stroke:#000;stroke-width:1;stroke-miterlimit:2;stroke-dasharray:none"/><path id="path165274" d="M356.8 1089.14c3.638 5.554 18.073 8.97 29.651 8.389 7.483-.375 18.791-4.71 23.72-9.578 8.753-8.645 13.166-20.83 9.782-32.36-1.797-5.922-5.5-11.627-11.414-14.834l-1.333.87c6.357 1.67 13.794-4.928 18.78-11.373 3.409-4.406 6.646-13.785 6.612-21.549-.037-8.463-3.112-18.727-7.867-24.845-4.014-5.164-9.952-9.83-16.724-11.722l1.364 1.703c4.531-1.326 6.33-6.084 8.053-10.591 2.806-7.337.104-21.709-6.177-30.226-6.592-9.436-17.712-14.782-28.76-15.858-9.496-.892-19.05 2.141-27.165 7.09-2.492 2.155-7.36 4.6-6.996 8.273.288.902 1.148.54 1.148.54 1.213-2.163-1.171-7.903-3.85-10.817-12.834-13.968-29.896-17.356-44.822-18.08-20.489-.994-38.02 5.768-45.801 13.552-2.24 2.24-4.177 4.39-4.751 6.867-.705 3.042.083 4.503 1.924 4.425 4.033-3.371-3.224-8.082-5.943-9.669-11.574-6.755-28.346-10.434-42.926-10.279-13.175.14-26.502 2.235-38.84 7.245-8.959 3.638-18 9.305-22.553 18.635-3.4 6.967-.624 16.056 5.73 19.82 2.029 1.201 6.49 4.108 7.983 2.001-3.678-1.743-8.671.617-11.613 2.703-4.43 3.14-8.656 8.657-10.836 12.583-3.343 6.017-4.314 13.216-3.994 20.1.936 8.206 1.745 12.111 6.388 18.994 2.377 3.375 4.382 5.628 7.015 7.112 1.524.858 4.594 1.358 4.659.037.574-4.708-6.145 1.085-8.537 4.246-7.755 10.25-9.41 24.475-6.282 36.881 3.927 15.578 15.576 28.473 29.39 35.261 18.861 9.267 41.88 10.864 61.175 1.871 2.585-1.205 10.563-4.944 6.042-8.505-5.915-.672-.35 6.966 1.624 8.777 9.247 8.48 20.74 13.838 33.221 16.904 19.47 4.783 43.637 5.182 63.343-.347 10.927-3.066 21.961-9.15 28.853-18.254 1.445-1.909 2.805-4.09 3.441-5.999" style="display:inline;fill:#e5f6ff;fill-opacity:1;stroke:#000;stroke-width:.999998;stroke-miterlimit:2;stroke-dasharray:none"/><path id="path165528" d="M600.41 1078.715c-5.888-.67-.323 6.967 1.652 8.778 9.247 8.481 20.74 13.838 33.22 16.905 19.47 4.783 43.638 5.182 63.343-.347 10.928-3.066 21.962-9.151 28.854-18.254 1.445-1.91 2.805-4.091 3.441-5.999" style="display:inline;fill:none;stroke:#000;stroke-width:.999998;stroke-miterlimit:2;stroke-dasharray:none"/><path id="path165530" d="M518.949 1009.157c.274-4.902-6.445.89-8.837 4.052-7.755 10.249-9.41 24.475-6.282 36.881 3.928 15.578 15.576 28.473 29.391 35.26 18.861 9.268 41.88 10.865 61.175 1.872 2.585-1.205 10.562-4.944 6.068-8.503" style="display:inline;fill:none;stroke:#000;stroke-width:.999998;stroke-miterlimit:2;stroke-dasharray:none"/><path id="path165532" d="M623.62 919.94c3.993-3.63-3.265-8.34-5.984-9.928-11.574-6.755-28.346-10.434-42.925-10.279-13.175.14-26.502 2.235-38.84 7.245-8.96 3.638-18.001 9.306-22.554 18.635-3.4 6.967-.624 16.057 5.73 19.82 2.03 1.201 6.491 4.108 8.151 2.143" style="display:inline;fill:none;stroke:#000;stroke-width:.999998;stroke-miterlimit:2;stroke-dasharray:none"/><path id="path165534" d="M720.88 923.733c1.212-2.162-1.172-7.902-3.85-10.816-12.835-13.967-29.896-17.356-44.822-18.08-20.49-.994-38.021 5.769-45.802 13.552-2.24 2.24-4.177 4.39-4.75 6.867-.706 3.042.083 4.504 1.883 4.166" style="display:inline;fill:none;stroke:#000;stroke-width:.999998;stroke-miterlimit:2;stroke-dasharray:none"/><path id="path165536" d="M780.776 964.506c4.532-1.326 6.33-6.083 8.054-10.591 2.806-7.337.103-21.709-6.178-30.226-6.592-9.436-17.711-14.782-28.76-15.858-9.495-.891-19.048 2.141-27.164 7.09-2.492 2.155-7.36 4.6-6.997 8.273l.347.133.506-.012" style="display:inline;fill:none;stroke:#000;stroke-width:.999998;stroke-miterlimit:2;stroke-dasharray:none"/><path id="path165538" d="M778.611 1032.292c6.357 1.67 13.795-4.927 18.78-11.373 3.41-4.406 6.646-13.785 6.612-21.549-.036-8.463-3.11-18.727-7.867-24.845-4.014-5.164-9.95-9.83-16.723-11.721" style="display:inline;fill:none;stroke:#000;stroke-width:.999998;stroke-miterlimit:2;stroke-dasharray:none"/><path id="path165540" d="M728.206 1079.805c3.637 5.554 18.072 8.97 29.651 8.39 7.483-.376 18.79-4.712 23.72-9.579 8.752-8.645 13.166-20.83 9.782-32.36-1.797-5.922-5.5-11.627-11.415-14.834" style="display:inline;fill:none;stroke:#000;stroke-width:.999998;stroke-miterlimit:2;stroke-dasharray:none"/><path id="path165542" d="M526.864 947.293c-3.51-1.602-8.504.759-11.446 2.844-4.43 3.14-8.656 8.657-10.837 12.583-3.343 6.018-4.314 13.216-3.994 20.1.937 8.207 1.746 12.111 6.389 18.994 2.377 3.375 4.382 5.628 7.015 7.112 1.523.858 4.594 1.359 4.36-.158" style="display:inline;fill:none;stroke:#000;stroke-width:.999998;stroke-miterlimit:2;stroke-dasharray:none"/><rect id="rect166033" width="163.859" height="253.207" x="730.13" y="-136.603" ry="0" style="display:inline;opacity:.5;fill:#f0f;fill-opacity:1;stroke:none;stroke-width:1;stroke-miterlimit:2;stroke-dasharray:none"/><path id="path170853" d="M561.232 202.731c4.57-1.444 6.442-6.221 7.364-11.023 1.423-7.415-2.67-20.564-11.322-29.175-8.612-8.571-19.147-14.264-28.738-15.185-9.833-.944-20.076.48-26.607 5.413-2.634 1.99-7.243 4.857-6.6 8.625l.366.13.387-.119c1.006-2.292-1.578-8.019-4.36-10.901-13.332-13.814-30.533-16.921-45.505-17.388-20.55-.64-37.875 6.462-45.4 14.421-2.165 2.291-3.862 4.524-4.521 6.985-.396 1.478.293 2.426.87 2.094 1.18-.676-1.732-4.457-6.29-6.876-9.435-5.007-24.742-5.071-35.859-2.728-10.497 2.212-22.02 7.435-31.49 15.922-11.085 9.936-15.512 20.57-16.281 28.608-.82 8.57 3.19 13.495 4.373 11.278.533-.674-.973-1.067-1.77-1.01-3.592.253-9.502 4.254-12.071 6.772-3.769 3.692-6.717 7.712-9.35 13.444-6.389 13.909-4.374 33.966 2.93 42.413 2.887 3.34 4.659 4.78 7.438 6.124 4.577 2.215 10.53 1.59 10.147.17-.162-3.58-5.393 1.402-6.824 4.104-3.946 7.455-4.451 18.515-1.125 28.094 4.177 12.028 14.789 21.168 26.58 26.235 16.1 6.918 38.258 5.483 45.933.787 1.94-1.188 5.947-2.518 4.524-4.391-4.336-.678.41 5.027 2.4 6.855 9.318 8.561 20.172 13.618 32.39 16.813 18.703 4.89 44.874 4.584 63.9-1.435 10.552-3.338 21.101-9.782 27.504-19.257 1.343-1.987 2.593-4.254 3.146-6.226l-1.838.04c3.349 5.653 15.5 8.34 27.468 7.534 7.735-.52 20.294-6.979 25.51-12.295 8.722-8.892 13.57-20.281 12.944-30.901-.365-6.205-2.85-12.218-8.713-15.414l-1.212.45c6.968 2.034 14.937-2.1 20.121-8.478 3.544-4.36 6.65-12.856 6.122-22.128-.607-10.69-4.774-20.403-10.391-27.289-4.876-5.976-10.505-10.79-17.502-13.5" style="display:inline;fill:#e5f6ff;fill-opacity:1;stroke:#000;stroke-width:1;stroke-miterlimit:2;stroke-dasharray:none"/><path id="path171783" d="M573.53-28.375c4.504-1.326 6.134-6.083 7.699-10.59 2.546-7.337-.704-21.71-7.33-30.227-6.975-9.435-18.346-14.782-29.487-15.857-9.574-.892-19.06 2.14-27.03 7.09-2.424 2.154-7.224 4.599-6.722 8.273l.353.133.508-.012" style="display:inline;fill:none;stroke:#000;stroke-width:1;stroke-miterlimit:2;stroke-dasharray:none"/><path id="path172635" d="M224.342 1343.361c-5.603-.67-.308 6.968 1.57 8.778 8.8 8.482 19.734 13.839 31.61 16.905 18.525 4.783 41.52 5.182 60.269-.347 10.397-3.066 20.896-9.151 27.453-18.254 1.375-1.909 2.67-4.091 3.274-5.999" style="display:inline;fill:none;stroke:#000;stroke-width:.999994;stroke-miterlimit:2;stroke-dasharray:none"/><path id="path172637" d="M156.307 1288.071c.23-4.07-5.412.74-7.421 3.364-6.512 8.51-7.902 20.32-5.275 30.62 3.298 12.932 13.08 23.639 24.68 29.274 15.839 7.694 35.168 9.02 51.371 1.553 2.17-1 8.87-4.104 5.095-7.06" style="display:inline;fill:none;stroke:#000;stroke-width:1;stroke-miterlimit:2;stroke-dasharray:none"/><path id="path172639" d="M159.233 1220.184c-5.142.5-9.667 4.231-12.73 6.77-3.892 3.228-9.023 9.565-11.393 13.903-8.136 14.894-6.32 31.973 1.557 40.601 3.113 3.41 5.046 4.89 8.115 6.292 5.054 2.31 11.762 1.785 11.5.122" style="display:inline;fill:none;stroke:#000;stroke-width:1;stroke-miterlimit:2;stroke-dasharray:none"/><path id="path172641" d="M247.067 1184.36c3.438-3.981-4.39-8.706-7.226-9.764-11.142-4.158-25.353-3.405-36.796-1.07-12.279 2.508-24.94 8.386-33.385 15.253-10.304 8.377-13.714 16.006-14.529 22.33-.767 5.953 1.945 11.724 3.332 9.615" style="display:inline;fill:none;stroke:#000;stroke-width:.999999;stroke-miterlimit:2;stroke-dasharray:none"/><path id="path172643" d="M342.741 1187.73c1.185-2.114-1.144-7.725-3.76-10.574-12.537-13.656-29.202-16.968-43.782-17.676-20.014-.972-37.14 5.64-44.74 13.249-2.187 2.19-4.08 4.291-4.64 6.714-.688 2.974.082 4.402 1.84 4.072" style="display:inline;fill:none;stroke:#000;stroke-width:1;stroke-miterlimit:2;stroke-dasharray:none"/><path id="path172645" d="M346.725 1344.451c3.076 5.554 17.224 8.97 28.918 8.39 7.558-.376 19.371-4.711 24.83-9.579 9.695-8.644 15.399-20.83 13.2-32.36-1.189-5.922-4.315-11.627-9.924-14.834" style="display:inline;fill:none;stroke:#000;stroke-width:1;stroke-miterlimit:2;stroke-dasharray:none"/><path id="path172647" d="M405.006 1228.57c4.504-1.327 6.133-6.084 7.698-10.592 2.546-7.337-.703-21.708-7.33-30.226-6.975-9.436-18.346-14.782-29.487-15.857-9.574-.892-19.06 2.14-27.03 7.09-2.424 2.154-7.223 4.599-6.722 8.272l.353.133.508-.012" style="display:inline;fill:none;stroke:#000;stroke-width:1;stroke-miterlimit:2;stroke-dasharray:none"/><path id="path172649" d="M402.995 1297.038c5.637 1.67 12.231-4.927 16.652-11.373 3.022-4.406 5.892-13.785 5.862-21.548-.033-8.463-3.367-18.728-7.583-24.846-3.56-5.163-8.216-9.83-14.22-11.721" style="display:inline;fill:none;stroke:#000;stroke-width:1;stroke-miterlimit:2;stroke-dasharray:none"/><path id="path172651" d="M224.342 1343.361c-5.603-.67-.308 6.968 1.57 8.778 8.8 8.482 19.734 13.839 31.61 16.905 18.525 4.783 41.52 5.182 60.269-.347 10.397-3.066 20.896-9.151 27.453-18.254 1.375-1.909 2.67-4.091 3.274-5.999" style="display:inline;fill:none;stroke:#000;stroke-width:.999994;stroke-miterlimit:2;stroke-dasharray:none"/><path id="path172653" d="M156.307 1288.071c.23-4.07-5.412.74-7.421 3.364-6.512 8.51-7.902 20.32-5.275 30.62 3.298 12.932 13.08 23.639 24.68 29.274 15.839 7.694 35.168 9.02 51.371 1.553 2.17-1 8.87-4.104 5.095-7.06" style="display:inline;fill:none;stroke:#000;stroke-width:1;stroke-miterlimit:2;stroke-dasharray:none"/><path id="path172655" d="M159.233 1220.184c-5.142.5-9.667 4.231-12.73 6.77-3.892 3.228-9.023 9.565-11.393 13.903-8.136 14.894-6.32 31.973 1.557 40.601 3.113 3.41 5.046 4.89 8.115 6.292 5.054 2.31 11.762 1.785 11.5.122" style="display:inline;fill:none;stroke:#000;stroke-width:1;stroke-miterlimit:2;stroke-dasharray:none"/><path id="path172657" d="M247.067 1184.36c3.438-3.981-4.39-8.706-7.226-9.764-11.142-4.158-25.353-3.405-36.796-1.07-12.279 2.508-24.94 8.386-33.385 15.253-10.304 8.377-13.714 16.006-14.529 22.33-.767 5.953 1.945 11.724 3.332 9.615" style="display:inline;fill:none;stroke:#000;stroke-width:.999999;stroke-miterlimit:2;stroke-dasharray:none"/><path id="path172659" d="M342.741 1187.73c1.185-2.114-1.144-7.725-3.76-10.574-12.537-13.656-29.202-16.968-43.782-17.676-20.014-.972-37.14 5.64-44.74 13.249-2.187 2.19-4.08 4.291-4.64 6.714-.688 2.974.082 4.402 1.84 4.072" style="display:inline;fill:none;stroke:#000;stroke-width:1;stroke-miterlimit:2;stroke-dasharray:none"/><path id="path172661" d="M346.725 1344.451c3.076 5.554 17.224 8.97 28.918 8.39 7.558-.376 19.371-4.711 24.83-9.579 9.695-8.644 15.399-20.83 13.2-32.36-1.189-5.922-4.315-11.627-9.924-14.834" style="display:inline;fill:none;stroke:#000;stroke-width:1;stroke-miterlimit:2;stroke-dasharray:none"/><path id="path172663" d="M405.006 1228.57c4.504-1.327 6.133-6.084 7.698-10.592 2.546-7.337-.703-21.708-7.33-30.226-6.975-9.436-18.346-14.782-29.487-15.857-9.574-.892-19.06 2.14-27.03 7.09-2.424 2.154-7.223 4.599-6.722 8.272l.353.133.508-.012" style="display:inline;fill:none;stroke:#000;stroke-width:1;stroke-miterlimit:2;stroke-dasharray:none"/><path id="path172665" d="M402.995 1297.038c5.637 1.67 12.231-4.927 16.652-11.373 3.022-4.406 5.892-13.785 5.862-21.548-.033-8.463-3.367-18.728-7.583-24.846-3.56-5.163-8.216-9.83-14.22-11.721" style="display:inline;fill:none;stroke:#000;stroke-width:1;stroke-miterlimit:2;stroke-dasharray:none"/><path id="path173331" d="M585.45 1337.282c-5.604-.67-.31 6.967 1.57 8.778 8.798 8.481 19.734 13.838 31.61 16.904 18.524 4.784 41.519 5.183 60.268-.346 10.397-3.066 20.896-9.151 27.453-18.254 1.375-1.91 2.67-4.091 3.274-6" style="display:inline;fill:none;stroke:#000;stroke-width:.999994;stroke-miterlimit:2;stroke-dasharray:none"/><path id="path173333" d="M517.414 1281.992c.23-4.07-5.412.74-7.42 3.364-6.513 8.509-7.903 20.32-5.276 30.62 3.298 12.932 13.08 23.638 24.68 29.274 15.839 7.693 35.168 9.02 51.371 1.553 2.171-1 8.87-4.105 5.096-7.06" style="display:inline;fill:none;stroke:#000;stroke-width:1;stroke-miterlimit:2;stroke-dasharray:none"/><path id="path173335" d="M608.198 1178.28c3.343-3.98-4.268-8.705-7.025-9.763-10.833-4.158-24.649-3.405-35.773-1.07-11.938 2.507-24.246 8.386-32.457 15.253-10.017 8.377-13.333 16.006-14.125 22.33-.746 5.953 1.89 11.724 3.24 9.615" style="display:inline;fill:none;stroke:#000;stroke-width:1;stroke-miterlimit:2;stroke-dasharray:none"/><path id="path173337" d="M703.849 1181.651c1.184-2.114-1.144-7.725-3.76-10.575-12.537-13.655-29.203-16.968-43.783-17.675-20.014-.972-37.139 5.639-44.739 13.249-2.188 2.19-4.08 4.29-4.64 6.714-.69 2.973.08 4.402 1.84 4.072" style="display:inline;fill:none;stroke:#000;stroke-width:1;stroke-miterlimit:2;stroke-dasharray:none"/><path id="path173339" d="M707.832 1338.372c3.077 5.554 17.224 8.97 28.919 8.39 7.557-.376 19.37-4.712 24.829-9.579 9.695-8.645 15.4-20.83 13.2-32.36-1.189-5.922-4.315-11.627-9.924-14.834" style="display:inline;fill:none;stroke:#000;stroke-width:1;stroke-miterlimit:2;stroke-dasharray:none"/><path id="path173341" d="M766.113 1222.49c4.504-1.326 6.134-6.083 7.698-10.591 2.547-7.337-.703-21.709-7.33-30.226-6.974-9.436-18.345-14.782-29.487-15.858-9.574-.891-19.06 2.141-27.03 7.09-2.424 2.155-7.223 4.6-6.722 8.273l.353.133.508-.012" style="display:inline;fill:none;stroke:#000;stroke-width:1;stroke-miterlimit:2;stroke-dasharray:none"/><path id="path173343" d="M764.103 1290.959c5.636 1.67 12.23-4.927 16.651-11.373 3.022-4.406 5.892-13.785 5.862-21.548-.033-8.464-3.366-18.728-7.583-24.846-3.559-5.164-8.215-9.83-14.22-11.721" style="display:inline;fill:none;stroke:#000;stroke-width:1;stroke-miterlimit:2;stroke-dasharray:none"/><path id="path173345" d="M521.835 1214.712c.729-.875-.739-1.124-1.504-1.254-3.35-.572-8.794 2.576-11.383 5.064-3.797 3.65-7.26 8.27-9.723 14.128-6.417 15.26-5.098 34.1 1.741 42.729 2.703 3.41 4.382 4.89 7.047 6.292 4.388 2.309 10.213 1.784 9.985.121" style="display:inline;fill:none;stroke:#000;stroke-width:.999996;stroke-miterlimit:2;stroke-dasharray:none"/><path id="path174043" d="M771.563 318.399c3.129 5.648 17.518 9.123 29.412 8.532 7.687-.382 19.702-4.79 25.254-9.741 9.86-8.793 15.662-21.187 13.425-32.914-1.209-6.024-4.388-11.826-10.093-15.088" style="display:inline;fill:none;stroke:#000;stroke-width:1;stroke-miterlimit:2;stroke-dasharray:none"/><path id="path174045" d="M951.66 1343.467c-5.698-.682-.313 7.086 1.598 8.928 8.949 8.626 20.071 14.075 32.15 17.193 18.84 4.865 42.228 5.271 61.297-.352 10.575-3.119 21.253-9.308 27.922-18.566 1.399-1.942 2.715-4.161 3.33-6.102" style="display:inline;fill:none;stroke:#000;stroke-width:.999994;stroke-miterlimit:2;stroke-dasharray:none"/><path id="path174047" d="M882.859 1290.366c.06-3.765-5.238.684-7.087 3.112-5.994 7.872-6.87 18.8-3.895 28.329 3.734 11.965 13.688 21.87 25.208 27.083 15.728 7.118 34.597 8.345 50.066 1.438 2.073-.926 8.468-3.798 4.674-6.532" style="display:inline;fill:none;stroke:#000;stroke-width:.999998;stroke-miterlimit:2;stroke-dasharray:none"/><path id="path174049" d="M974.798 1183.04c3.4-4.453-4.341-9.738-7.145-10.922-11.017-4.65-25.07-3.809-36.384-1.196-12.141 2.804-24.66 9.38-33.011 17.061-10.188 9.37-13.56 17.904-14.366 24.977-.758 6.66 1.923 13.115 3.295 10.756" style="display:inline;fill:none;stroke:#000;stroke-width:1;stroke-miterlimit:2;stroke-dasharray:none"/><path id="path174051" d="M1072.082 1185.176c1.205-2.15-1.164-7.858-3.824-10.756-12.752-13.889-29.702-17.258-44.53-17.978-20.356-.988-37.774 5.736-45.503 13.476-2.225 2.227-4.15 4.364-4.72 6.828-.7 3.025.083 4.478 1.871 4.142" style="display:inline;fill:none;stroke:#000;stroke-width:1;stroke-miterlimit:2;stroke-dasharray:none"/><path id="path174053" d="M1135.41 1227.268c4.58-1.349 6.598-6.04 7.674-10.772 1.663-7.308-1.952-20.38-10.238-29.043-8.249-8.623-18.502-14.434-27.98-15.51-9.717-1.103-19.922.127-26.564 4.893-2.68 1.923-7.347 4.677-6.837 8.414l.359.135.517-.012" style="display:inline;fill:none;stroke:#000;stroke-width:1;stroke-miterlimit:2;stroke-dasharray:none"/><path id="path174055" d="M1076.133 1344.576c3.13 5.648 17.518 9.123 29.413 8.532 7.686-.382 19.7-4.791 25.253-9.742 9.86-8.792 15.662-21.186 13.425-32.913-1.209-6.024-4.388-11.826-10.093-15.088" style="display:inline;fill:none;stroke:#000;stroke-width:1;stroke-miterlimit:2;stroke-dasharray:none"/><path id="path174057" d="M1133.325 1295.486c6.614 2.126 14.352-4.084 19.54-10.305 3.546-4.252 6.914-13.573 6.879-21.472-.04-8.61-3.95-19.303-8.899-25.845-4.176-5.522-9.64-10.622-16.686-13" style="display:inline;fill:none;stroke:#000;stroke-width:1;stroke-miterlimit:2;stroke-dasharray:none"/><path id="path174059" d="M886.96 1224.003c.742-.86-.75-1.105-1.53-1.233-3.407-.562-8.944 2.531-11.577 4.976-3.861 3.586-7.383 8.127-9.889 13.884-6.526 14.995-5.185 33.509 1.771 41.988 2.75 3.35 4.457 4.805 7.167 6.183 4.463 2.269 10.388 1.753 10.156.119" style="display:inline;fill:none;stroke:#000;stroke-width:.999998;stroke-miterlimit:2;stroke-dasharray:none"/><path id="path175634" d="M746.94 286.02c-6.818-.184-12.644 1.671-16.052 5.98-4.05 5.12-4.484 13.891-1.374 20.527 4.612 9.837 11.733 13.054 19.523 14.236 5.95.903 15.258-.729 21.051-4.304 4.156-2.564 6.818-6.084 6.82-10.745.003-7.915-4.4-15.58-12.23-20.91-5.044-3.433-12.362-6.275-18.249-5.306" style="display:inline;fill:#e5f6ff;fill-opacity:1;stroke:#000;stroke-width:.999993;stroke-miterlimit:2;stroke-dasharray:none"/><path id="path176488" d="M397.32 1501.22c4.58-1.35 6.598-6.04 7.674-10.773 1.663-7.307-1.952-20.379-10.238-29.042-8.25-8.624-18.502-14.434-27.98-15.51-9.718-1.104-19.923.127-26.565 4.893-2.68 1.922-7.346 4.677-6.836 8.413l.359.136.387-.111c1.075-2.25-1.293-7.957-3.954-10.855-12.75-13.888-29.7-17.257-44.53-17.977-20.355-.989-37.773 5.735-45.503 13.475-2.225 2.228-4.15 4.365-4.72 6.829-.7 3.025.083 4.478 1.886 4.078 2.351-1.934-2.876-6.654-7.738-8.706-11.017-4.65-25.069-3.809-36.383-1.196-12.141 2.804-24.66 9.38-33.011 17.06-10.188 9.37-13.56 17.905-14.366 24.978-.759 6.66 1.923 13.114 3.181 10.9.628-.718-.864-.962-1.643-1.09-3.407-.563-8.944 2.53-11.577 4.976-3.861 3.586-7.383 8.126-9.89 13.883-6.526 14.996-5.184 33.51 1.772 41.988 2.75 3.351 4.457 4.806 7.167 6.183 4.463 2.27 10.388 1.754 10.056.343-.04-3.543-5.338.907-7.187 3.335-5.994 7.872-6.868 18.799-3.895 28.328 3.734 11.965 13.689 21.87 25.209 27.084 15.728 7.118 34.597 8.345 50.066 1.437 2.072-.925 8.467-3.797 4.592-6.696-5.78-.846-.396 6.922 1.515 8.764 8.949 8.626 20.07 14.075 32.149 17.193 18.841 4.865 42.229 5.27 61.298-.352 10.574-3.12 21.253-9.308 27.922-18.566 1.398-1.942 2.714-4.162 3.33-6.102l-1.824.01c3.129 5.649 15.086 8.515 26.98 7.924 7.687-.381 20.359-6.55 25.71-11.717 8.949-8.64 14.142-19.818 13.88-30.33-.152-6.141-2.411-12.13-8.116-15.392l-1.263.425c6.614 2.127 14.353-4.084 19.54-10.304 3.547-4.253 6.909-13.574 6.88-21.472-.04-10.587-3.04-19.911-8.443-26.606-4.349-5.387-10.097-9.862-17.143-12.24" style="display:inline;fill:#e5f6ff;fill-opacity:1;stroke:#000;stroke-width:1;stroke-miterlimit:2;stroke-dasharray:none"/><path id="path177033" d="M759.268 1499.5c4.58-1.349 6.598-6.04 7.675-10.772 1.662-7.308-1.952-20.38-10.239-29.042-8.249-8.624-18.502-14.435-27.98-15.51-9.717-1.104-19.922.126-26.564 4.892-2.68 1.923-7.347 4.677-6.837 8.414l.36.135.387-.11c1.075-2.25-1.294-7.957-3.954-10.855-12.751-13.889-29.701-17.258-44.53-17.978-20.356-.988-37.773 5.736-45.503 13.476-2.225 2.228-4.15 4.364-4.72 6.828-.7 3.025.264 4.991 1.85 4.141 2.627-1.407-2.476-6.773-7.063-8.963-10.393-4.963-23.988-4.394-35.032-1.964-11.85 2.608-24.253 9.05-32.692 16.704-10.294 9.336-13.973 17.96-15.104 25.15-1.064 6.768 1.2 13.398 2.447 11.226.55-.657-.942-.902-1.72-1.03-3.408-.562-9.705 3.291-12.338 5.737-3.86 3.585-7.383 8.126-9.889 13.883-6.526 14.995-5.184 33.509 1.772 41.988 2.749 3.35 4.457 4.805 7.167 6.183 4.463 2.269 10.388 1.753 10.055.342-.04-3.542-5.337.907-7.186 3.335-5.994 7.873-6.869 18.8-3.895 28.329 3.734 11.965 13.688 21.87 25.208 27.084 15.729 7.118 34.597 8.344 50.066 1.437 2.073-.926 8.468-3.798 4.592-6.696-5.78-.847-.396 6.921 1.515 8.763 8.95 8.626 20.071 14.075 32.15 17.194 18.841 4.864 42.228 5.27 61.297-.353 10.575-3.119 21.253-9.307 27.922-18.566 1.399-1.942 2.715-4.161 3.33-6.102l-1.824.01c3.13 5.649 15.087 8.516 26.981 7.925 7.686-.382 20.358-6.55 25.71-11.717 8.948-8.641 14.142-19.819 13.88-30.33-.152-6.142-2.412-12.13-8.117-15.392l-1.262.424c6.614 2.127 14.352-4.083 19.54-10.304 3.546-4.252 6.908-13.573 6.88-21.472-.04-10.586-3.04-19.911-8.444-26.605-4.348-5.387-10.096-9.862-17.142-12.241" style="display:inline;fill:#e5f6ff;fill-opacity:1;stroke:#000;stroke-width:1;stroke-miterlimit:2;stroke-dasharray:none"/><path id="path177395" d="M782.63 230.765c7.623-.245 14.562 3.97 20.09 8.84 3.73 3.564 7.585 7.548 8.965 12.664 1.493 5.33-.88 11.102-5.013 14.578-5.035 4.332-11.602 6.674-18.156 7.31-5.628.217-11.614-.365-16.474-3.428-6.376-4.558-9.189-12.644-9.486-20.222-.004-4.792.87-9.86 3.88-13.735 2.452-4.005 7.35-5.633 11.857-5.405 1.46.067 2.913.244 4.35.517" style="fill:#e5f6ff;fill-opacity:1;stroke:#000;stroke-width:.999997;stroke-miterlimit:2;stroke-dasharray:none"/><path id="path52320" d="M623.91 221.928c3.416-2.76 8.02-5.137 12.903-4.357 6.872 1.098 12.072 5.893 15.515 10.903 3.537 5.148 4.996 11.362 3.772 17.24-1.29 6.197-6.348 11.42-12.82 14.18-6.981 2.977-15.791 2.88-22.324-1.022-3.263-1.948-6.16-4.466-7.823-7.624-3.032-5.757-2.59-12.573.23-18.245 2.409-4.845 6.507-9.37 12.257-11.462" style="display:inline;fill:#e5f6ff;fill-opacity:1;stroke:#000;stroke-width:1;stroke-miterlimit:10;stroke-dasharray:none;stroke-opacity:1"/><path id="path179557" d="M1137.544 1493.963c4.57-1.444 6.443-6.221 7.364-11.023 1.424-7.416-2.67-20.564-11.321-29.175-8.613-8.571-19.148-14.264-28.738-15.185-9.833-.944-20.077.48-26.607 5.413-2.634 1.99-7.243 4.857-6.6 8.625l.366.13.386-.119c1.007-2.292-1.578-8.019-4.36-10.901-13.331-13.814-30.532-16.921-45.504-17.388-20.551-.64-37.875 6.462-45.4 14.421-2.165 2.291-3.862 4.524-4.521 6.985-.397 1.478.292 2.426.87 2.094 1.18-.676-1.733-4.457-6.29-6.876-9.435-5.007-24.742-5.071-35.859-2.728-10.497 2.212-22.02 7.435-31.49 15.923-11.085 9.935-15.512 20.57-16.281 28.607-.82 8.57 3.19 13.495 4.373 11.278.532-.674-.974-1.067-1.77-1.01-3.592.254-9.502 4.254-12.072 6.772-3.768 3.692-6.717 7.712-9.35 13.444-6.388 13.909-4.373 33.966 2.931 42.414 2.887 3.338 4.658 4.778 7.437 6.123 4.577 2.215 10.531 1.59 10.148.17-.163-3.58-5.349 1.01-7.129 3.497-5.77 8.062-6.274 19.122-2.948 28.701 4.177 12.028 14.552 21.865 26.344 26.932 16.099 6.918 35.16 7.826 50.513.572 2.057-.972 5.25-3 3.828-4.873-4.336-.678.41 5.027 2.4 6.855 9.317 8.562 20.715 13.873 32.997 16.813 19.16 4.585 42.747 4.584 61.773-1.435 10.551-3.338 21.1-9.782 27.503-19.257 1.343-1.987 2.593-4.254 3.147-6.226l-1.839.04c3.35 5.653 15.5 8.34 27.469 7.534 7.734-.521 20.294-6.979 25.51-12.296 8.721-8.89 13.57-20.28 12.944-30.9-.366-6.205-2.85-12.218-8.713-15.415l-1.258.452c6.74 2.033 14.326-4.38 19.34-10.76 3.428-4.36 6.495-13.84 6.193-21.823-.404-10.7-3.75-20.072-9.428-26.743-4.57-5.369-10.517-9.79-17.701-12.071" style="display:inline;fill:#e5f6ff;fill-opacity:1;stroke:#000;stroke-width:1;stroke-miterlimit:2;stroke-dasharray:none"/><path id="path180287" d="M386.705 1787.223c4.57-1.444 6.443-6.221 7.365-11.023 1.423-7.415-2.671-20.564-11.322-29.175-8.612-8.571-19.148-14.263-28.738-15.184-9.833-.945-20.077.478-26.607 5.412-2.634 1.99-7.243 4.857-6.6 8.625l.366.13.387-.118c1.006-2.293-1.578-8.02-4.36-10.902-13.332-13.814-30.533-16.921-45.505-17.388-20.551-.64-37.875 6.462-45.4 14.421-2.165 2.291-3.862 4.524-4.521 6.985-.396 1.478.292 2.426.87 2.094 1.18-.676-1.732-4.457-6.29-6.876-9.435-5.007-24.742-5.071-35.859-2.728-10.497 2.213-22.02 7.435-31.49 15.923-11.085 9.935-15.512 20.57-16.281 28.607-.82 8.57 3.19 13.496 4.373 11.279.533-.675-.974-1.068-1.77-1.012-3.592.255-9.502 4.255-12.072 6.773-3.768 3.692-6.716 7.712-9.35 13.444-6.388 13.909-4.373 33.966 2.931 42.414 2.887 3.338 4.658 4.778 7.437 6.123 4.577 2.215 10.531 1.59 10.148.17-.163-3.58-5.394 1.402-6.824 4.105-3.947 7.454-4.451 18.514-1.125 28.094 4.177 12.028 12.424 20.952 24.216 26.02 16.099 6.917 35.464 5.697 48.082.571 2.108-.856 6.162-2.088 4.739-3.961-4.336-.678.41 5.027 2.4 6.855 9.317 8.562 20.172 13.619 32.39 16.813 18.703 4.89 44.874 4.584 63.9-1.435 10.552-3.338 21.101-9.781 27.504-19.257 1.342-1.987 2.592-4.253 3.146-6.226l-1.839.04c3.35 5.654 15.5 8.34 27.47 7.534 7.733-.52 20.293-6.979 25.508-12.295 8.722-8.891 13.571-20.28 12.945-30.9-.366-6.206-2.85-12.219-8.713-15.415l-1.212.45c6.968 2.034 14.81-4.38 19.993-10.758 3.543-4.36 6.714-13.84 6.402-21.824-.418-10.7-3.877-20.072-9.747-26.743-4.723-5.369-10.872-9.79-18.299-12.07" style="display:inline;fill:#e5f6ff;fill-opacity:1;stroke:#000;stroke-width:1;stroke-miterlimit:2;stroke-dasharray:none"/><path id="path252342" d="M763.27 1787.223c4.57-1.444 6.442-6.221 7.364-11.023 1.423-7.415-2.671-20.564-11.322-29.175-8.612-8.571-19.148-14.263-28.738-15.184-9.833-.945-20.077.478-26.607 5.412-2.634 1.99-7.243 4.857-6.6 8.625l.366.13.387-.118c1.006-2.293-1.578-8.02-4.36-10.902-13.332-13.814-30.533-16.921-45.505-17.388-20.551-.64-37.875 6.462-45.4 14.421-2.165 2.291-3.862 4.524-4.521 6.985-.396 1.478.293 2.426.87 2.094 1.18-.676-1.732-4.457-6.29-6.876-9.435-5.007-24.742-5.071-35.859-2.728-10.497 2.213-22.02 7.435-31.49 15.923-11.085 9.935-15.512 20.57-16.281 28.607-.82 8.57 3.19 13.496 4.373 11.279.533-.675-.974-1.068-1.77-1.012-3.592.255-9.502 4.255-12.072 6.773-3.768 3.692-6.716 7.712-9.35 13.444-6.388 13.909-4.373 33.966 2.931 42.414 2.887 3.338 4.658 4.778 7.437 6.123 4.577 2.215 10.531 1.59 10.148.17-.162-3.58-5.394 1.402-6.824 4.105-3.947 7.454-4.451 18.514-1.125 28.094 4.177 12.028 14.789 21.167 26.58 26.234 16.1 6.918 38.258 5.483 45.933.787 1.94-1.188 5.947-2.518 4.524-4.391-4.336-.678.41 5.027 2.4 6.855 9.317 8.562 20.172 13.619 32.39 16.813 18.703 4.89 44.874 4.584 63.9-1.435 10.552-3.338 21.101-9.781 27.504-19.257 1.342-1.987 2.592-4.253 3.146-6.226l-1.839.04c3.35 5.654 15.501 8.34 27.47 7.534 7.733-.52 20.293-6.979 25.508-12.295 8.722-8.891 13.571-20.28 12.945-30.9-.366-6.206-2.85-12.219-8.713-15.415l-1.212.45c6.968 2.034 14.81-4.38 19.993-10.758 3.544-4.36 6.714-13.84 6.402-21.824-.418-10.7-3.877-20.072-9.747-26.743-4.723-5.369-10.872-9.79-18.299-12.07" style="display:inline;fill:#e5f6ff;fill-opacity:1;stroke:#000;stroke-width:1;stroke-miterlimit:2;stroke-dasharray:none"/><path id="path252527" d="M1031.507 320.515c4.57-1.444 6.442-6.221 7.364-11.023 1.423-7.416-2.67-20.565-11.322-29.175-8.612-8.572-19.147-14.264-28.738-15.185-9.832-.944-20.076.479-26.606 5.413-2.635 1.99-7.244 4.857-6.601 8.625l.366.13.387-.119c1.006-2.292-1.578-8.02-4.36-10.901-13.332-13.814-30.533-16.921-45.505-17.388-20.55-.641-37.875 6.462-45.399 14.42-2.166 2.292-3.862 4.525-4.522 6.986-.396 1.478.293 2.426.871 2.094 1.18-.677-1.733-4.458-6.291-6.877-9.435-5.006-24.742-5.07-35.858-2.727-10.498 2.212-22.02 7.434-31.49 15.922-11.085 9.936-15.513 20.57-16.282 28.608-.82 8.57 3.19 13.495 4.373 11.278.533-.674-.973-1.067-1.769-1.011-3.592.254-9.503 4.255-12.072 6.772-3.768 3.693-6.717 7.712-9.35 13.445-6.389 13.909-4.373 33.966 2.93 42.413 2.887 3.339 4.659 4.779 7.438 6.124 4.577 2.214 10.53 1.59 10.148.169-.163-3.58-5.394 1.402-6.825 4.105-3.946 7.455-4.45 18.514-1.125 28.094 4.177 12.028 14.79 21.168 26.58 26.235 16.1 6.918 38.258 5.483 45.933.786 1.94-1.187 5.947-2.517 4.524-4.39-4.336-.678.41 5.027 2.4 6.855 9.318 8.561 20.172 13.618 32.39 16.812 18.703 4.89 44.874 4.585 63.9-1.434 10.552-3.339 21.102-9.782 27.504-19.257 1.343-1.988 2.593-4.254 3.146-6.226l-1.838.039c3.349 5.654 15.5 8.341 27.469 7.535 7.734-.521 20.294-6.98 25.509-12.296 8.722-8.89 13.57-20.28 12.945-30.9-.366-6.205-2.85-12.218-8.713-15.415l-1.212.452c6.967 2.033 15.569-2.86 20.753-9.24 3.543-4.36 6.105-13.385 5.793-21.368-.418-10.7-4.433-20.617-10.05-27.503-4.876-5.976-10.72-11.006-18.147-13.286" style="display:inline;fill:#e5f6ff;fill-opacity:1;stroke:#000;stroke-width:1;stroke-miterlimit:2;stroke-dasharray:none"/></g><g id="graphs" style="display:inline"><path id="path6180" d="M-785.035-2.375h62.364" style="fill:#ffd5d5;stroke:#e3b3ff;stroke-width:8;stroke-miterlimit:2;stroke-dasharray:none;stroke-opacity:1"/><g id="g27030" clip-path="none" style="stroke:#ff8100;stroke-width:1.43873;stroke-dasharray:none;stroke-opacity:.8" transform="matrix(1.66815 0 0 -1.66815 -1748.057 -11.261)"><path id="path27028" d="M577.3 23c24.073 0 48.147 21.89 72.22 45.963" style="fill:none;stroke:#ff8100;stroke-width:1.43873;stroke-dasharray:none;stroke-opacity:.8"/></g><g id="g27065" clip-path="none" style="stroke:#ff8100;stroke-width:1.43873;stroke-dasharray:none;stroke-opacity:.8" transform="matrix(1.66815 0 0 -1.66815 -1602.847 -184.286)"><path id="path27063" d="M505.08 68.963C529.153 44.89 553.227 23 577.3 23" style="fill:none;stroke:#ff8100;stroke-width:1.43873;stroke-dasharray:none;stroke-opacity:.8"/></g><path id="path27921" d="m-865.516-294.17 7.398-7.197" style="display:inline;fill:none;fill-opacity:1;stroke:#121212;stroke-width:.700001;stroke-miterlimit:2;stroke-dasharray:none;stroke-dashoffset:0;stroke-opacity:1"/><path id="path27925" d="m-863.152-291.59 7.398-7.198" style="display:inline;fill:none;fill-opacity:1;stroke:#121212;stroke-width:.700001;stroke-miterlimit:2;stroke-dasharray:none;stroke-dashoffset:0;stroke-opacity:1"/><path id="path27927" d="m-857.564-286.54 7.399-7.197" style="display:inline;fill:none;fill-opacity:1;stroke:#121212;stroke-width:.700001;stroke-miterlimit:2;stroke-dasharray:none;stroke-dashoffset:0;stroke-opacity:1"/><path id="path27929" d="m-855.307-284.067 7.398-7.198" style="display:inline;fill:none;fill-opacity:1;stroke:#121212;stroke-width:.700001;stroke-miterlimit:2;stroke-dasharray:none;stroke-dashoffset:0;stroke-opacity:1"/><g id="g28054" clip-path="none" style="stroke:#ff8100;stroke-width:1.43873;stroke-dasharray:none;stroke-opacity:.9" transform="matrix(1.66815 0 0 -1.66815 -1671.431 -185.623)"><path id="path28064" d="M514.37 59.823a439.163 439.163 0 0 1 3.638-3.464" style="fill:none;stroke:#ff8100;stroke-width:1.43873;stroke-dasharray:none;stroke-opacity:.9"/><path id="path28060" d="M509.927 64.152a605.86 605.86 0 0 1 3.041-2.973" style="fill:none;stroke:#ff8100;stroke-width:1.43873;stroke-dasharray:none;stroke-opacity:.9"/><path id="path28052" d="M505.08 68.963a920.75 920.75 0 0 1 3.426-3.409" style="fill:none;stroke:#ff8100;stroke-width:1.43873;stroke-dasharray:none;stroke-opacity:.9"/></g><g id="g28844" clip-path="none" style="stroke:#ff8100;stroke-width:1.43873;stroke-dasharray:none;stroke-opacity:.9" transform="matrix(-1.66815 0 0 -1.66815 164.45 -62.106)"><path id="path28838" d="M514.37 59.823a439.163 439.163 0 0 1 3.638-3.464" style="fill:none;stroke:#ff8100;stroke-width:1.43873;stroke-dasharray:none;stroke-opacity:.9"/><path id="path28840" d="M509.927 64.152a605.86 605.86 0 0 1 3.041-2.973" style="fill:none;stroke:#ff8100;stroke-width:1.43873;stroke-dasharray:none;stroke-opacity:.9"/><path id="path28842" d="M505.08 68.963a920.75 920.75 0 0 1 3.426-3.409" style="fill:none;stroke:#ff8100;stroke-width:1.43873;stroke-dasharray:none;stroke-opacity:.9"/></g><path id="path46252" d="M357.468 297.236h168.663" style="stroke:#9e9ed1;stroke-width:.98;stroke-dasharray:none"/><path id="path171711" d="M357.468 189.807h168.663" style="stroke:#9e9ed1;stroke-width:.980007;stroke-dasharray:none"/><path id="path171714" d="M357.468 243.522h168.663" class="axes" style="display:inline;stroke-width:.63;stroke-dasharray:none"/><circle id="circle43627" cx="441.8" cy="243.522" r="4.189" style="fill:#00f;stroke:none;stroke-width:.63;stroke-miterlimit:2;stroke-opacity:.6"/><circle id="path42897" cx="357.468" cy="-297.236" r="4.189" style="fill:#00f;stroke:none;stroke-width:1.7;stroke-miterlimit:2;stroke-dasharray:none;stroke-opacity:.6" transform="scale(1 -1)"/><circle id="circle43629" cx="526.131" cy="-189.807" r="4.189" style="fill:#00f;stroke:none;stroke-width:1.7;stroke-miterlimit:2;stroke-dasharray:none;stroke-opacity:.6" transform="scale(1 -1)"/><path id="path43685" d="m357.468 297.236 168.663-107.429" style="fill:#00f;stroke:#00f;stroke-width:1.8;stroke-miterlimit:2;stroke-dasharray:none;stroke-opacity:1"/><path id="path62548" d="M428.748-199.316h192.728" style="stroke:#9e9ed1;stroke-width:.98;stroke-dasharray:none"/><path id="path62550" d="M428.748-306.745h192.728" style="stroke:#9e9ed1;stroke-width:.980007;stroke-dasharray:none"/><path id="path62552" d="M428.748-253.03H622.07" class="axes" style="display:inline;stroke-width:.63;stroke-dasharray:none"/><g id="g62566" transform="matrix(.7 0 0 -.7 364.409 -68.185)"><g id="g62556" clip-path="none" style="stroke-width:1.43873;stroke-dasharray:none" transform="matrix(1.66815 0 0 1.66815 -733.022 148.963)"><path id="path62554" d="M505.08 68.963C529.153 44.89 553.227 23 577.3 23s48.147 21.89 72.22 45.963" style="fill:none;stroke:red;stroke-width:1.43873;stroke-dasharray:none"/></g><g id="g62560" clip-path="none" style="stroke:#ff8100;stroke-width:1.43873;stroke-dasharray:none;stroke-opacity:.6" transform="matrix(1.66815 0 0 -1.66815 -492.074 379.045)"><path id="path62558" d="M505.08 68.963c4.31-4.309 8.618-8.548 12.928-12.604" style="fill:none;stroke:#ff8100;stroke-width:1.43873;stroke-dasharray:none;stroke-opacity:.6"/></g><g id="g62564" clip-path="none" style="stroke:#ff8100;stroke-width:1.43873;stroke-dasharray:none;stroke-opacity:.6" transform="matrix(-1.66815 0 0 -1.66815 952.074 379.045)"><path id="path62562" d="M505.08 68.963c4.31-4.309 8.618-8.548 12.928-12.604" style="fill:none;stroke:#ff8100;stroke-width:1.43873;stroke-dasharray:none;stroke-opacity:.6"/></g></g><circle id="circle62568" cx="441.077" cy="-306.745" r="4.189" style="fill:#00f;stroke:none;stroke-width:.63;stroke-miterlimit:2;stroke-opacity:.6"/><circle id="circle62570" cx="525.409" cy="-253.031" r="4.189" style="fill:#00f;stroke:none;stroke-width:.63;stroke-miterlimit:2;stroke-opacity:.6"/><circle id="circle62572" cx="609.74" cy="-199.316" r="4.189" style="fill:#00f;stroke:none;stroke-width:.63;stroke-miterlimit:2;stroke-opacity:.6"/><path id="path62574" d="M441.077-306.745 609.74-199.316" style="fill:#00f;stroke:#00f;stroke-width:1.68;stroke-miterlimit:2;stroke-dasharray:none;stroke-opacity:1"/><g id="g1776" style="stroke-width:2.57143;stroke-dasharray:none" transform="matrix(.7 0 0 -.7 280.8 428.369)"><g id="g1770" clip-path="none" style="stroke-width:1.54149;stroke-dasharray:none" transform="matrix(1.66815 0 0 1.66815 -733.022 148.963)"><path id="path1768" d="M505.08 68.963C529.153 44.89 553.227 23 577.3 23s48.147 21.89 72.22 45.963" style="fill:none;stroke:red;stroke-width:1.54149;stroke-dasharray:none"/></g></g><g id="g8620" style="fill:#b8b8de;fill-opacity:1" transform="translate(-15.937 63.196) scale(1.215)"><use xlink:href="#STIXWEBMAIN-2212" id="use8616" x="0" y="0" style="display:inline;fill:#b8b8de;fill-opacity:1" transform="matrix(.01656 0 0 -.01656 274.917 197.349)"/><use xlink:href="#STIXWEBMAIN-31" id="use8618" style="display:inline;fill:#b8b8de;fill-opacity:1" transform="matrix(.01656 0 0 -.01656 286.264 197.349)"/></g><use xlink:href="#STIXWEBMAIN-2212" id="use171719" x="0" y="0" style="display:inline;fill:#b8b8de;fill-opacity:1" transform="matrix(.02485 0 0 -.02485 -74.206 200.042)"/><use xlink:href="#STIXWEBMAIN-31" id="use171721" style="display:inline;fill:#b8b8de;fill-opacity:1" transform="matrix(.02013 0 0 -.02013 331.874 195.745)"/><use xlink:href="#STIXWEBMAIN-2212" id="use8626" x="0" y="0" style="display:inline;fill:#b8b8de;fill-opacity:1" transform="matrix(0 .02485 .02485 0 -71.982 185.246)"/><path id="path6180-8" d="M590.293-131.603h62.365" style="display:inline;fill:#b8b8de;fill-opacity:1;stroke:#b8b8de;stroke-width:8;stroke-miterlimit:2;stroke-dasharray:none;stroke-opacity:1"/><use xlink:href="#STIXWEBMAIN-30" id="use171765" x="0" y="0" style="display:inline;fill:#b8b8de;fill-opacity:1" transform="matrix(.02012 0 0 -.02012 330.039 250.197)"/><g id="g14018" style="fill:#b8b8de;fill-opacity:1" transform="matrix(1.35 0 0 1.35 228.557 -458.621)"><use xlink:href="#STIXWEBMAIN-2212" id="use14014" x="0" y="0" style="display:inline;fill:#b8b8de;fill-opacity:1" transform="matrix(.01656 0 0 -.01656 274.917 197.349)"/><use xlink:href="#STIXWEBMAIN-31" id="use14016" style="display:inline;fill:#b8b8de;fill-opacity:1" transform="matrix(.01656 0 0 -.01656 286.264 197.349)"/></g><use xlink:href="#STIXWEBMAIN-31" id="use14022" style="display:inline;fill:#b8b8de;fill-opacity:1" transform="matrix(.02236 0 0 -.02236 606.829 -299.43)"/><g id="g14207" transform="translate(11.247 -408.221)"><use xlink:href="#STIXWEBMAIN-2212" id="use14020" x="0" y="0" style="display:inline;fill:#b8b8de;fill-opacity:1" transform="matrix(.02485 0 0 -.02485 489.949 200.042)"/><use xlink:href="#STIXWEBMAIN-2212" id="use14024" x="0" y="0" style="display:inline;fill:#b8b8de;fill-opacity:1" transform="matrix(0 .02485 .02485 0 492.172 185.246)"/></g><use xlink:href="#STIXWEBMAIN-30" id="use14028" x="0" y="0" style="display:inline;fill:#b8b8de;fill-opacity:1" transform="matrix(.02235 0 0 -.02235 606.887 -244.995)"/><path id="path172601" d="M357.468 297.236h168.663" style="stroke:#9e9ed1;stroke-width:.98;stroke-dasharray:none"/><path id="path172603" d="M357.468 189.807h168.663" style="stroke:#9e9ed1;stroke-width:.980007;stroke-dasharray:none"/><path id="path172605" d="M357.468 243.522h168.663" class="axes" style="display:inline;stroke-width:.63;stroke-dasharray:none"/><circle id="circle172607" cx="441.8" cy="243.522" r="4.189" style="fill:#00f;stroke:none;stroke-width:.63;stroke-miterlimit:2;stroke-opacity:.6"/><circle id="circle172609" cx="357.468" cy="-297.236" r="4.189" style="fill:#00f;stroke:none;stroke-width:1.7;stroke-miterlimit:2;stroke-dasharray:none;stroke-opacity:.6" transform="scale(1 -1)"/><circle id="circle172611" cx="526.131" cy="-189.807" r="4.189" style="fill:#00f;stroke:none;stroke-width:1.7;stroke-miterlimit:2;stroke-dasharray:none;stroke-opacity:.6" transform="scale(1 -1)"/><path id="path172613" d="m357.468 297.236 168.663-107.429" style="fill:#00f;stroke:#00f;stroke-width:1.8;stroke-miterlimit:2;stroke-dasharray:none;stroke-opacity:1"/><g id="g172623" style="stroke-width:2.57143;stroke-dasharray:none" transform="matrix(.7 0 0 -.7 280.8 428.369)"><g id="g172617" clip-path="none" style="stroke-width:1.54149;stroke-dasharray:none" transform="matrix(1.66815 0 0 1.66815 -733.022 148.963)"><path id="path172615" d="M505.08 68.963C529.153 44.89 553.227 23 577.3 23s48.147 21.89 72.22 45.963" style="fill:none;stroke:red;stroke-width:1.54149;stroke-dasharray:none"/></g></g><g id="g172629" style="fill:#b8b8de;fill-opacity:1" transform="translate(-15.937 63.196) scale(1.215)"><use xlink:href="#STIXWEBMAIN-2212" id="use172625" x="0" y="0" style="display:inline;fill:#b8b8de;fill-opacity:1" transform="matrix(.01656 0 0 -.01656 274.917 197.349)"/><use xlink:href="#STIXWEBMAIN-31" id="use172627" style="display:inline;fill:#b8b8de;fill-opacity:1" transform="matrix(.01656 0 0 -.01656 286.264 197.349)"/></g><use xlink:href="#STIXWEBMAIN-31" id="use172631" style="display:inline;fill:#b8b8de;fill-opacity:1" transform="matrix(.02013 0 0 -.02013 331.874 195.745)"/><use xlink:href="#STIXWEBMAIN-30" id="use172633" x="0" y="0" style="display:inline;fill:#b8b8de;fill-opacity:1" transform="matrix(.02012 0 0 -.02012 330.039 250.197)"/></g></svg>