<svg xmlns="http://www.w3.org/2000/svg" width="600" height="300" viewBox="0 0 562.5 281.25"><g style="display:inline"><path d="M93.222-346.667c-4.181 3.588-8.897 6.035-13.63 8.308-6.116 2.738-12.473 4.63-18.909 5.844-4.431.835-6.576 1.007-11.04 1.53-7.784.634-15.68.892-23.416-.6-1.069-.206-2.124-.511-3.186-.767-1.806-.589-6.586-2.24-6.034-5.684.073-.452.306-.844.459-1.266.97-1.088 2.614-2.6 4.065-2.032.19.074.338.256.507.384.078.238.232.459.232.715.004 2.429-3.147 4.152-4.58 5.022-4.889 2.442-10.199 2.426-15.39 2.228-4.513-.577-9.276-1.073-13.462-3.41-.543-.304-1.046-.705-1.569-1.058-.345-.357-.745-.647-1.035-1.071-1.363-1.998-.03-3.743 1.337-4.832.333-.282 2.076-.97 1.62.337-.103.225-1.058.867-1.195.97-3.365 2.195-7.066 2.876-10.77 3.414-5.164.375-10.392-.09-15.402-1.809-.994-.34-1.966-.783-2.949-1.175-5.275-2.395-10.097-6.415-13.774-11.853-.714-1.056-1.33-2.215-1.995-3.323-1.903-3.713-3.733-7.614-3.901-12.338-.083-2.314.041-3.063.198-5.347.32-4.67 2.478-10.162 5.431-14.461 5.279-7.684 17.723-14.234 28.9-8.382-2.853 2.128-2.872-3.003-2.872-3.003-.043-.308.013-1.027.142-1.52 1.378-5.278 7.072-8.18 11.488-10.277 9.234-4.383 20.024-6.783 30.184-7.637 2.124-.179 4.26-.184 6.39-.275 7.315.21 14.886.924 21.548 4.227 3.358 1.664 3.867 2.39 6.58 4.742 2.033 2.296 6.275 6.493 4.463 10.032-.212.412-.628.682-.942 1.023-1.414.802-3.28.965-4.158-.721-.54-1.037-.282-1.597-.156-2.734.241-.456.422-.95.724-1.368 2.443-3.39 7.58-4.393 11.357-5.258 6.102-.937 12.363-.52 18.37.866 1.13.26 2.238.615 3.358.923 3.864 1.303 7.912 3.03 10.46 6.383.291.383.517.812.776 1.218.267.736.803 1.965-.205 2.596-.726.465-1.532-.196-2.004-.547-.14-.186-.324-.336-.422-.56-1.052-2.398 4.13-3.84 5.072-4.184 6.114-1.923 12.484-2.263 18.764-1.69 1.643.15 3.277.418 4.915.627 8.21 1.398 16.221 4.658 23.107 10.374 1.253 1.04 2.409 2.244 3.613 3.366 3.814 4.283 7.246 9.443 7.917 15.935.386 3.734-.093 4.753-.787 8.376-.494 1.26-.894 2.58-1.483 3.779-2.313 4.71-5.978 8.083-10.055 10.267-.925.495-1.895.86-2.843 1.289-2.91 1.034-6.7 2.356-9.463-.016-.258-.222-.444-.547-.666-.82-.066-.283-.225-.556-.196-.847.2-2.026 2.624-1.73 3.726-1.418.485.137.945.384 1.417.576 1.913 1.136 3.53 2.953 3.702 5.693.12 1.915-.26 2.469-.825 4.28-.442.67-.824 1.408-1.327 2.013-4.015 4.824-10.064 5.952-15.353 7.093-6.297 1.02-12.72 1.131-18.974-.391-3.989-.971-4.663-1.511-8.364-3.271-3.699-2.014-6.866-4.979-9.794-8.328" style="opacity:1;fill:#d5f6ff;fill-opacity:1;stroke:#000;stroke-width:1;stroke-linecap:butt;stroke-linejoin:miter;stroke-miterlimit:4;stroke-dasharray:none;stroke-dashoffset:0;stroke-opacity:.826471" transform="translate(98.796 41.129)"/><path d="M1067.383 423.806c-.202.099-1.564.818-1.767.913-11.863 5.566-26.518 4.396-37.471-2.725-10.659-6.928-14.04-23.04-7.352-34.582 6.444-11.12 17.414-17.679 28.936-20.908 9.73-2.727 20.813-4.029 30.36-.497 1.641.6.035 1.214-.982.624.043-.298.122-.613.24-.944 2.976-8.279 11.058-12.523 18.356-15.412 17.218-6.818 36.966-8.362 54.642-2.392 6.655 2.248 14.16 6.733 15.804 14.331.51 2.351.054 5.261-1.571 7.088-.875.971-6.026-.245-.86-.69 2.151-.148 4.63-.095 7.287.057 5.229.301 11.485 1.336 16.626 3.253 11.614 4.332 20.646 12.111 23.394 25.118.465 2.2.506 4.655.216 7.168-.659 5.699-3.216 11.744-6.355 15.197-5.25 5.515-14.192 9.752-22.202 11.257-10.136 1.905-22.688.476-31.273-2.076-1.116-.331-2.05-.621-2.887-.897-1.773-.465 2.693-1.157 1.205-.22-3.477 3.492-9.66 6.966-14.662 9.026-4.416 1.818-10.243 3.402-18.517 4.244-12.1 1.23-24.264-.362-34.723-4.56-2.11-.847-4.663-1.892-6.89-3.176-5.015-2.892-8.843-5.111-13.576-9.966M296.506-332.452c-1.794 1.233-4.829 2.394-6.977 3.063-14.404 4.49-32.008.161-38.957-6.675-5.267-5.182-8.466-9.795-8.659-16.712-.166-6.004 1.814-12.07 5.924-17.527 5.115-6.791 15.516-12.469 26.78-13.524 2.48-.232 5.005-.453 7.444-.284 1.94 2.42 1.192 3.326-1.687.341-.441-.648-.167-.193-.469-.819-.32-.66-.543-1.278-.63-1.788-2.317-7.599 2.725-15.282 9.187-18.977 11.755-8.18 29.398-7.89 40.059 2.044 1.404 1.306 2.518 2.804 3.458 4.472l-.463.686c1.74-4.47 6.055-8.957 10.131-11.955 7.95-4.602 16.724-7.4 25.795-8.077 7.081-.528 9.166.034 16.253.81 7.78 1.416 15.436 3.807 22.258 8.153 3.462 2.205 7.05 5.187 9.41 8.745.997 1.502 1.833 3.177 2.328 4.924.453 1.6.622 3.31.475 4.966-.281 3.166-1.56 5.85-3.407 8.064.303-.167-.192-.933-.143-1.783h1.347c4.027-.4 8.912.408 12.957 1.804 9.14 3.154 16.434 9.488 19.105 20.777 1.613 6.82-.81 16.803-4.504 21.863-4.248 5.82-11.743 10.586-18.575 12.568-8.645 2.508-19.543 1.834-27.076-.198-3.521-.95-4.976-1.498-7.834-2.79.006-.957.057-1.47 1.122-.895.354.19.877.564.021 1.49-3.21 3.476-11.182 7.383-17.459 9.57-4.836 1.685-11.217 3.153-20.279 3.933-13.251 1.14-26.573-.335-38.028-4.225-2.31-.785-5.107-1.754-7.546-2.944-5.493-2.68-9.685-4.737-14.869-9.237" style="display:inline;opacity:1;fill:#d5f6ff;fill-opacity:1;fill-rule:nonzero;stroke:#000;stroke-width:1.03125;stroke-linecap:round;stroke-linejoin:round;stroke-miterlimit:4;stroke-dasharray:none;stroke-dashoffset:0;stroke-opacity:1" transform="translate(98.796 41.129)"/><path d="M-219.321 143.754c-3.92-.143-7.848-.299-11.745-.765-3.663-.439-5.123-.77-8.806-1.449-8.159-1.902-16.574-4.283-23.394-9.374-1.306-.975-2.462-2.137-3.693-3.205-1.006-1.233-2.142-2.37-3.017-3.7-3.853-5.853-5.062-13.3-3.342-20.092.48-1.89 1.38-3.649 2.069-5.473 1.157-1.777 2.139-3.682 3.472-5.33 3.467-4.29 6.793-6.741 11.567-9.586 4.507-2.687 10.728-5.542 15.787-6.932 3.135-.861 6.383-1.236 9.575-1.854 7.807-.895 15.696-.82 23.335 1.176 2.018.527 4.822 1.53 6.586 2.903.389.303.607.776.91 1.164-.136.4-.09.923-.41 1.2-.389.338-.969.395-1.483.442-2.277.21-4.891-.533-5.716-2.952-.318-.933-.135-1.967-.203-2.95.517-1.252.81-2.623 1.551-3.756 2.052-3.133 5.6-5.71 8.73-7.527 4.722-2.744 10.55-5.027 15.765-6.496 3.2-.9 6.49-1.45 9.735-2.176 10.162-1.6 20.49-1.928 30.657-.14 5.516.971 10.862 2.504 15.77 5.261 1.854 1.042 3.438 2.504 5.157 3.756 1.075 1.335 2.364 2.523 3.226 4.005 2.005 3.448 2.199 8.563-1.021 11.368-.34.295-.791.427-1.187.64" style="display:inline;opacity:1;fill:none;fill-opacity:1;fill-rule:nonzero;stroke:#000;stroke-width:1.03125;stroke-linecap:round;stroke-linejoin:round;stroke-miterlimit:4;stroke-dasharray:none;stroke-dashoffset:0;stroke-opacity:1" transform="translate(98.796 41.129)"/><path d="M-340.994 449.423c-13.05 7.267-30.26 6.54-42.856-1.179-11.307-6.928-14.895-23.04-7.799-34.582 6.837-11.12 18.474-17.679 30.697-20.908 11.937-3.153 25.792-4.401 36.827 1.528 7.915 4.253-8.005 4.624-5.413-2.345 3.079-8.279 11.442-12.523 18.994-15.412 17.817-6.818 38.252-8.362 56.543-2.392 6.886 2.248 14.652 6.733 16.354 14.331.687 3.067-.323 7.086-3.507 8.409" style="display:inline;opacity:1;fill:#d5f6ff;fill-opacity:1;fill-rule:nonzero;stroke:#000;stroke-width:1.03125;stroke-linecap:round;stroke-linejoin:round;stroke-miterlimit:4;stroke-dasharray:none;stroke-dashoffset:0;stroke-opacity:1" transform="translate(98.796 41.129)"/><path d="M-349.038 376.52c11.755-8.179 29.398-7.89 40.059 2.045 1.404 1.306 2.518 2.804 3.458 4.472l-.463.686c1.74-4.47 6.054-8.957 10.131-11.955 7.95-4.602 16.724-7.4 25.795-8.077 7.081-.528 9.166.034 16.253.81 7.78 1.416 15.436 3.807 22.258 8.153 3.462 2.205 7.05 5.187 9.41 8.745.997 1.502 1.833 3.177 2.328 4.924.453 1.6.622 3.31.475 4.966-.281 3.166-1.56 5.85-3.407 8.064.303-.167-.192-.933-.143-1.783h1.347c4.027-.4 8.912.408 12.957 1.804 9.14 3.154 16.434 9.488 19.105 20.777 1.613 6.82-.81 16.803-4.504 21.863-4.248 5.82-11.743 10.586-18.575 12.568-8.645 2.508-19.543 1.834-27.076-.198-3.521-.95-4.976-1.498-7.834-2.79M-254.927 450.81c.33.207.818.61.02 1.61-2.994 3.75-10.431 7.965-16.286 10.325-4.511 1.818-10.464 3.402-18.917 4.244-12.36 1.23-24.787-.362-35.472-4.56-2.156-.847-4.764-1.892-7.04-3.176-5.123-2.892-9.033-5.111-13.869-9.966" style="display:inline;opacity:1;fill:none;fill-opacity:1;fill-rule:nonzero;stroke:#000;stroke-width:1.03125;stroke-linecap:round;stroke-linejoin:round;stroke-miterlimit:4;stroke-dasharray:none;stroke-dashoffset:0;stroke-opacity:1" transform="translate(98.796 41.129)"/><path d="M-87.366 451.335c-13.05 7.266-30.26 6.539-42.855-1.18-11.308-6.928-14.895-23.04-7.8-34.581 6.837-11.121 18.475-17.68 30.697-20.908 11.937-3.154 25.792-4.402 36.827 1.528 7.915 4.253-8.004 4.624-5.413-2.345 3.08-8.28 11.442-12.524 18.994-15.413 17.818-6.817 38.252-8.362 56.544-2.392 6.886 2.248 14.651 6.733 16.354 14.332.687 3.067-.323 7.085-3.508 8.408" style="display:inline;opacity:1;fill:#d5f6ff;fill-opacity:1;fill-rule:nonzero;stroke:#000;stroke-width:1.03125;stroke-linecap:round;stroke-linejoin:round;stroke-miterlimit:4;stroke-dasharray:none;stroke-dashoffset:0;stroke-opacity:1" transform="translate(98.796 41.129)"/><path d="M-95.41 378.432c11.756-8.18 29.398-7.89 40.06 2.044 1.403 1.306 2.518 2.805 3.457 4.472l-.463.687c1.741-4.471 6.055-8.957 10.131-11.955 7.95-4.603 16.725-7.4 25.795-8.077 7.082-.529 9.166.034 16.253.81 7.78 1.415 15.436 3.806 22.259 8.153 3.461 2.205 7.05 5.187 9.41 8.744.997 1.502 1.832 3.177 2.327 4.924.454 1.6.623 3.311.475 4.966-.281 3.167-1.56 5.85-3.407 8.065.303-.168-.192-.934-.143-1.783h1.347c4.028-.4 8.912.407 12.957 1.803 9.14 3.154 16.434 9.488 19.105 20.778.452 1.91.587 4.067.467 6.295-.361 5.729-2.697 11.924-5.801 15.568-4.958 5.82-13.708 10.585-21.682 12.567-10.091 2.509-22.812 1.834-31.606-.198-4.11-.95-5.809-1.497-9.144-2.79-.186-.711-1.084-2.387 2.314-.783.33.206.818.609.02 1.609-2.994 3.75-10.43 7.965-16.286 10.325-4.511 1.819-10.464 3.402-18.916 4.244-12.361 1.23-24.788-.362-35.473-4.56-2.155-.846-4.764-1.892-7.039-3.176-5.123-2.892-9.034-5.111-13.87-9.966" style="display:inline;opacity:1;fill:none;fill-opacity:1;fill-rule:nonzero;stroke:#000;stroke-width:1.03125;stroke-linecap:round;stroke-linejoin:round;stroke-miterlimit:4;stroke-dasharray:none;stroke-dashoffset:0;stroke-opacity:1" transform="translate(98.796 41.129)"/><path d="M330.46 424.746c-12.695 5.896-28.576 4.81-40.395-2.433-11.307-6.928-14.894-23.04-7.799-34.582 6.837-11.12 18.474-17.679 30.697-20.908 11.937-3.153 25.792-4.401 36.827 1.528 4.203 2.259 1.685 3.423-1.157 2.974-2.567-.396-5.495-2.05-4.249-5.319 3.156-8.279 11.73-12.523 19.472-15.412 18.267-6.818 39.216-8.362 57.968-2.392 7.06 2.248 15.02 6.733 16.766 14.331.705 3.067-.331 7.086-3.596 8.409-2.651 1.541-6.806-1.143-.816-1.84 2.655-.34 5.954-.31 9.564-.114 5.546.301 12.183 1.336 17.637 3.253 12.321 4.332 21.902 12.111 24.818 25.118.493 2.2.536 4.655.23 7.168-.7 5.699-3.413 11.744-6.743 15.197-5.32 5.515-14.38 9.752-22.495 11.257-10.27 1.904-22.988.475-31.686-2.076-4.066-1.192-5.736-1.84-9.078-3.284-.258-.67-1.153-2.346 2.233-.741.329.205.815.609.02 1.608-2.984 3.75-10.393 7.966-16.228 10.326-4.494 1.818-10.426 3.402-18.848 4.244-12.316 1.23-24.698-.362-35.344-4.56-2.148-.847-4.747-1.892-7.014-3.176-5.105-2.892-9.001-5.111-13.82-9.966M567.46 420.769c-11.966 5.896-26.937 4.809-38.077-2.433-10.66-6.929-14.04-23.04-7.352-34.582 6.444-11.121 17.414-17.68 28.935-20.908 11.253-3.154 24.313-4.402 34.715 1.528 3.962 2.258 1.588 3.422-1.09 2.973-2.42-.396-5.18-2.05-4.006-5.318 2.976-8.28 11.058-12.523 18.356-15.413 17.218-6.817 36.965-8.362 54.642-2.391 6.654 2.247 14.159 6.733 15.804 14.33.664 3.068-.312 7.087-3.39 8.41-2.499 1.54-6.415-1.144-.769-1.84 2.503-.34 5.613-.31 9.015-.114 5.228.3 11.485 1.335 16.626 3.253 11.614 4.331 20.646 12.11 23.394 25.118.465 2.2.505 4.654.216 7.168-.66 5.698-3.216 11.744-6.355 15.196-5.015 5.515-13.555 9.752-21.205 11.257-9.681 1.905-21.67.476-29.868-2.075-3.833-1.193-5.408-1.84-8.557-3.285-.244-.669-1.087-2.345 2.104-.741.31.206.769.61.02 1.609-2.813 3.75-9.798 7.966-15.297 10.326-4.237 1.818-9.828 3.402-17.767 4.243-11.61 1.23-23.282-.361-33.317-4.56-2.025-.846-4.475-1.891-6.612-3.176-4.812-2.892-8.485-5.11-13.027-9.966M811.223 422.552c-11.967 5.896-26.938 4.81-38.078-2.433-10.659-6.928-14.04-23.04-7.352-34.582 6.444-11.12 17.414-17.679 28.936-20.908 11.252-3.153 24.312-4.401 34.714 1.528 3.962 2.259 1.589 3.423-1.09 2.974-2.42-.396-5.18-2.05-4.005-5.319 2.975-8.279 11.057-12.523 18.355-15.412 17.218-6.818 36.966-8.362 54.642-2.392 6.655 2.248 14.16 6.733 15.804 14.331.51 2.351.055 5.261-1.571 7.088-.71 1.22-4.286-.287-.86-.69 2.151-.148 4.63-.095 7.287.057 5.229.301 11.485 1.336 16.626 3.253 11.614 4.332 20.646 12.111 23.394 25.118.465 2.2.506 4.655.216 7.168-.659 5.699-3.216 11.744-6.355 15.197-5.25 5.515-14.192 9.752-22.202 11.257-10.136 1.905-22.688.476-31.272-2.076-1.117-.331-2.05-.621-2.888-.897-1.773-.465 2.693-1.157 1.205-.22-3.477 3.492-9.66 6.966-14.662 9.026-4.416 1.818-10.243 3.402-18.517 4.244-12.1 1.23-24.264-.362-34.723-4.56-2.11-.847-4.663-1.892-6.89-3.176-5.015-2.892-8.843-5.111-13.576-9.966M-134.392-70.15c-13.05 7.266-30.26 6.539-42.855-1.179-11.307-6.929-14.895-23.04-7.8-34.582 6.837-11.121 18.475-17.68 30.697-20.908 11.938-3.154 25.792-4.402 36.827 1.528 4.203 2.258 1.685 3.422-1.212 2.973-2.56-.396-5.416-2.05-4.2-5.318 3.079-8.28 11.443-12.523 18.995-15.413 17.819-6.817 38.255-8.362 56.548-2.391 6.886 2.247 14.652 6.733 16.355 14.33.687 3.068-.323 7.087-3.508 8.41-2.573 1.276-6.253-1.121-1.587-1.725 3.353-.37 6.208-.51 9.451-.674 5.496-.277 12.127.579 17.63 2.118 12.437 3.478 22.362 10.463 25.996 22.912.615 2.106.799 4.485.642 6.942-.354 5.73-2.69 11.925-5.794 15.568C6.835-71.74-1.914-66.974-9.889-64.992c-10.091 2.509-22.812 1.834-31.606-.198-4.11-.95-5.808-1.497-9.144-2.79-.186-.71-1.084-2.387 2.314-.783.33.206.819.61.02 1.609-2.994 3.75-10.43 7.966-16.286 10.326-4.51 1.818-10.463 3.402-18.916 4.243-12.361 1.23-24.788-.361-35.473-4.56-2.155-.846-4.764-1.891-7.039-3.176-5.123-2.892-9.033-5.11-13.87-9.966M93.322-68.275c-12.576 7.266-29.16 6.539-41.298-1.179-10.896-6.929-14.353-23.04-7.516-34.582 6.588-11.121 17.803-17.68 29.581-20.908 11.504-3.154 24.855-4.402 35.489 1.528 4.05 2.258 1.624 3.422-1.169 2.973-2.466-.396-5.219-2.05-4.047-5.318 2.967-8.28 11.027-12.523 18.304-15.413 17.172-6.817 36.865-8.362 54.493-2.391 6.636 2.247 14.12 6.733 15.76 14.33.663 3.068-.31 7.087-3.38 8.41-2.48 1.276-6.025-1.121-1.53-1.725 3.232-.37 5.983-.51 9.109-.674 5.296-.277 11.686.579 16.99 2.118 11.983 3.478 21.547 10.463 25.05 22.912.592 2.106.77 4.485.619 6.942-.342 5.73-2.593 11.925-5.584 15.568-4.778 5.82-13.21 10.585-20.894 12.567-9.724 2.509-21.983 1.834-30.457-.198-3.96-.95-5.597-1.497-8.812-2.79-.179-.71-1.044-2.387 2.23-.783.319.206.789.61.02 1.609-2.886 3.75-10.052 7.966-15.694 10.326-4.347 1.818-10.084 3.402-18.23 4.243-11.91 1.23-23.886-.361-34.182-4.56-2.077-.846-4.591-1.891-6.783-3.176-4.938-2.892-8.706-5.11-13.366-9.966M349.26-72.025c-12.576 7.266-29.16 6.539-41.298-1.179-10.897-6.929-14.354-23.04-7.516-34.582 6.588-11.121 17.802-17.68 29.58-20.908 11.504-3.154 24.855-4.402 35.49 1.528 4.05 2.258 1.623 3.422-1.17 2.973-2.466-.396-5.218-2.05-4.047-5.318 2.967-8.28 11.027-12.523 18.305-15.413 17.171-6.817 36.864-8.362 54.492-2.391 6.636 2.247 14.12 6.733 15.761 14.33.662 3.068-.311 7.087-3.38 8.41-2.48 1.276-6.026-1.121-1.53-1.725 3.232-.37 5.983-.51 9.108-.674 5.297-.277 11.686.579 16.99 2.118 11.984 3.478 21.548 10.463 25.05 22.912.593 2.106.77 4.485.62 6.942-.342 5.73-2.593 11.925-5.584 15.568-4.779 5.82-13.21 10.585-20.894 12.567-9.725 2.509-21.983 1.834-30.457-.198a86.974 86.974 0 0 1-3.403-.876c.773-1.124 3.845-2.088 3.022-1.088a13.73 13.73 0 0 1-.993 1.074c-3.53 3.456-10.333 7.115-15.8 9.252-4.652 1.818-10.79 3.402-19.506 4.243-12.746 1.23-25.56-.361-36.577-4.56-2.223-.846-4.913-1.891-7.258-3.176-5.284-2.892-9.316-5.11-14.302-9.966M594.884-72.025c-12.575 7.266-29.16 6.539-41.297-1.179-10.897-6.929-14.354-23.04-7.516-34.582 6.588-11.121 17.802-17.68 29.58-20.908 11.504-3.154 24.855-4.402 35.49 1.528 4.05 2.258 1.623 3.422-1.17 2.973-2.466-.396-5.218-2.05-4.047-5.318 2.967-8.28 11.027-12.523 18.305-15.413 17.171-6.817 36.864-8.362 54.492-2.391 6.636 2.247 14.12 6.733 15.761 14.33.419 1.94.09 4.448-.916 6.226-.3.374-.055.092.807.03 1.454-.26 2.817-.448 4.307-.526 5.297-.278 11.686.672 16.99 2.212 11.984 3.478 21.548 10.65 25.05 23.099.593 2.106.77 4.485.62 6.942-.342 5.73-2.593 11.925-5.584 15.568-4.779 5.82-13.21 10.585-20.894 12.567-9.725 2.509-21.983 1.834-30.457-.198a86.974 86.974 0 0 1-3.403-.876c.773-1.124 3.025-1.209 2.202-.21-.292.355.195-.165-.173.196-3.53 3.456-10.333 7.115-15.8 9.252-4.652 1.818-10.79 3.402-19.506 4.243-12.746 1.23-25.56-.361-36.577-4.56-2.223-.846-4.913-1.891-7.258-3.176-5.284-2.892-9.316-5.11-14.302-9.966M596.464 57.366c-12.575 7.266-29.16 6.54-41.297-1.179-10.897-6.929-14.354-23.04-7.516-34.582 6.588-11.12 17.802-17.679 29.58-20.908 9.843-2.698 21.039-4.002 30.727-.607 1.114.232-.78 1.03-.601.272.04-.157.088-.317.147-.482 2.967-8.28 11.027-12.523 18.305-15.413 17.171-6.817 36.864-8.361 54.493-2.391 6.635 2.247 14.12 6.733 15.76 14.33.419 1.94-.017 4.392-.916 6.227-1.015 2.07-2.187.717.807.03.995-.229 2.733-.337 4.307-.38 4.925-.14 11.686.526 16.99 2.065 11.984 3.478 21.548 10.65 25.05 23.1.593 2.105.77 4.484.62 6.941-.342 5.73-2.593 11.925-5.584 15.568-4.778 5.82-13.21 10.585-20.894 12.568-9.725 2.508-21.983 1.834-30.457-.199-1.343-.322-1.342-.39-2.326-.669.162-.604 1.095-.398.952-.22-.25.245-.518.491-.8.738-3.689 3.23-9.921 6.528-15 8.513-4.652 1.818-10.79 3.402-19.506 4.243-12.746 1.23-25.56-.361-36.577-4.56-2.223-.846-4.912-1.891-7.258-3.175-5.283-2.893-9.316-5.112-14.302-9.967M597.588 177.19c-14.896 4.614-29.989 3.887-42.126-3.832-10.897-6.928-14.523-23.142-7.516-34.582 5.594-9.132 14.882-15.945 26.432-19.913 7.337-2.521 22.074-4.692 31.88-2.2 2.49.491-.531 1.058-.237.388 2.695-5.296 11.248-12.523 18.671-15.412 17.516-6.818 37.604-8.362 55.585-2.392 6.77 2.248 14.403 6.733 16.077 14.331.427 1.94-.017 4.392-.924 6.226-1.004 2.07-2.176.717.818.03.995-.228 2.733-.336 4.307-.38 4.924-.14 11.686.526 16.99 2.065 11.984 3.478 21.548 10.65 25.05 23.1.593 2.105.77 4.484.62 6.941-.342 5.73-2.593 11.925-5.584 15.568-4.779 5.82-13.21 10.586-20.894 12.568-9.725 2.508-21.983 1.834-30.457-.198-1.344-.323-1.342-.391-2.326-.67.161-.604 1.095-.398.952-.22-.25.245-.518.491-.8.738-3.689 3.23-9.921 6.528-15 8.513-4.652 1.818-10.79 3.402-19.506 4.244-12.746 1.23-25.56-.362-36.577-4.56-2.223-.847-4.913-1.892-7.258-3.176-3.865-2.116-7.06-3.871-10.45-6.562-1.244-.987-.99-.812-1.626-1.412M840.944 174.728c.011.005-.476.167-1.271.4-12.876 3.755-25.763 2.687-36.246-4.582-9.992-6.929-13.318-23.142-6.892-34.582 5.13-9.132 13.647-15.945 24.238-19.914 6.729-2.52 20.242-4.692 29.235-2.2 2.49.492-.531 1.058-.237.389 2.695-5.296 11.248-12.523 18.671-15.413 17.516-6.817 37.604-8.362 55.585-2.391 6.77 2.247 14.403 6.733 16.077 14.33.427 1.94-.017 4.392-.924 6.226-1.004 2.07-2.176.718.818.03.995-.228 2.733-.336 4.307-.38 4.924-.139 11.686.526 16.99 2.066 11.984 3.478 21.548 10.65 25.05 23.099.593 2.106.77 4.485.62 6.942-.342 5.73-2.593 11.925-5.584 15.568-4.779 5.82-13.21 10.585-20.894 12.567-9.725 2.509-21.983 1.834-30.457-.198-1.344-.322-1.342-.39-2.326-.669.161-.605 1.095-.398.952-.22-.25.244-.518.49-.8.738-3.689 3.23-9.921 6.527-15 8.513-4.652 1.818-10.79 3.402-19.506 4.243-12.746 1.23-25.56-.361-36.577-4.56-2.223-.846-4.913-1.891-7.258-3.176-3.865-2.115-7.06-3.87-10.45-6.561-1.244-.988-1.211-.998-1.211-.998M1099.387 171.739c.011.005-.476.167-1.271.399-12.876 3.755-25.763 2.688-36.246-4.582-6.87-4.764-10.596-13.587-10.154-22.891.194-4.078 1.81-9.111 3.91-12.685 5.369-9.132 15.293-15.416 24.304-18.978 8.52-3.368 23.097-4.413 31.407-1.688 2.44.766-.715 1.169-.482.5-.086-.647-.076-.539.02-1.194.842-5.72 8.291-11.636 16.371-15.446 15.837-7.468 37.213-8.196 54.7-2.226 6.582 2.247 14.973 7.23 16.6 14.828.428 1.94-.017 4.392-.923 6.226-1.005 2.07-2.176.717.817.03.996-.228 2.734-.336 4.308-.38 4.924-.14 11.686.526 16.99 2.065 11.984 3.478 21.548 10.65 25.05 23.1.593 2.105.77 4.484.62 6.941-.343 5.73-2.594 11.925-5.585 15.568-4.778 5.82-13.209 10.586-20.893 12.568-9.725 2.508-21.984 1.834-30.457-.198-1.344-.323-1.343-.391-2.326-.67.161-.604 1.095-.398.95-.22-.245.245-.505.491-.78.738-3.596 3.23-9.671 6.528-14.622 8.513-4.534 1.818-10.518 3.402-19.014 4.244-12.424 1.23-24.915-.362-35.655-4.56-2.166-.847-4.788-1.892-7.075-3.176-3.767-2.116-6.882-3.871-10.186-6.562-1.212-.987-1.18-.998-1.18-.998" style="display:inline;opacity:1;fill:#d5f6ff;fill-opacity:1;fill-rule:nonzero;stroke:#000;stroke-width:1.03125;stroke-linecap:round;stroke-linejoin:round;stroke-miterlimit:4;stroke-dasharray:none;stroke-dashoffset:0;stroke-opacity:1" transform="translate(98.796 41.129)"/><g style="stroke-width:.857633"><path d="M-53.298 82.791c2.51-.863 1.16-.572 4.07-.772 1.937.404 2.96.322 4.455 1.804 2.048 2.03 2.124 5.137 1.092 7.67-.36.882-.984 1.63-1.475 2.446-.699.62-1.31 1.356-2.096 1.861-2.836 1.822-6.995 2.14-9.497-.458-.502-.521-.76-1.231-1.14-1.847-.083-.792-.301-1.58-.248-2.374.226-3.363 2.852-6.429 5.668-8.023M71.29 113.239s-2.477.782-3.457 1.069c-12.357 3.627-24.733 2.623-34.81-4.338-6.606-4.562-10.197-13.025-9.788-21.958.179-3.915 1.721-8.75 3.733-12.184 5.139-8.775 14.658-14.824 23.304-18.259 8.175-3.247 22.17-4.275 30.154-1.673 2.345.731-.685 1.123-.462.48-.084-.62-.074-.516.017-1.146.799-5.491 7.942-11.184 15.694-14.855 15.194-7.195 35.717-7.93 52.518-2.228 6.324 2.146 14.389 6.915 15.964 14.207.414 1.861-.009 4.215-.876 5.978-.961 1.989-2.088.692.785.027.955-.22 2.624-.327 4.135-.372 4.728-.142 11.222.485 16.317 1.954 11.513 3.319 20.708 10.188 24.092 22.133.572 2.02.747 4.304.606 6.663-.318 5.5-2.47 11.452-5.335 14.954-4.579 5.595-12.666 10.184-20.041 12.1-9.333 2.425-21.105 1.798-29.245-.14-1.29-.306-.74-.196-1.685-.461-.178-.001.108-.188-.03-.017-.235.235-.091.1-.355.337-3.447 3.106-9.275 6.283-14.026 8.197-4.35 1.753-10.093 3.283-18.25 4.105-11.927 1.202-23.923-.305-34.242-4.317-2.082-.81-4.602-1.808-6.8-3.037-3.62-2.025-6.614-3.705-9.79-6.282-.904-.733-.94-.75-.94-.75M-20.155 82.802c.821-.536 1.609-1.13 2.465-1.61 2.232-1.252 2.829-1.311 5.206-2.062 2.094-.296 2.62-.532 4.698-.218 3.065.463 5.736 2.101 7.844 4.317.47.627.995 1.216 1.409 1.882 1.645 2.652 2.425 5.947 1.931 9.043-.13.82-.413 1.61-.62 2.415C1.81 98.66 1.638 99.374.13 101.2c-2.395 2.901-5.719 4.395-9.392 4.89-.975.01-1.952.103-2.924.031-3.884-.287-7.64-1.766-10.376-4.59-.618-.637-1.108-1.386-1.662-2.08-.396-.752-.852-1.476-1.186-2.257-1.16-2.714-1.562-5.878-.898-8.771.134-.586.38-1.14.571-1.711.31-.52.575-1.071.931-1.561 1.335-1.838 3.395-2.936 5.486-3.68" style="display:inline;fill:#e5f6ff;fill-opacity:1;fill-rule:nonzero;stroke:none;stroke-width:.804031;stroke-linecap:round;stroke-linejoin:round;stroke-miterlimit:4;stroke-dasharray:none;stroke-dashoffset:0;stroke-opacity:1" transform="translate(114.21 45.534) scale(1.166)"/><path d="M-53.299 82.312c2.49-.857 1.29-.597 4.184-.795l.05-.004.044.01c1.908.397 3.055.349 4.6 1.88 2.15 2.13 2.256 5.433 1.142 8.169-.415 1.019-1.076 1.801-1.527 2.548l-.06.1-.085.075c-.643.572-1.283 1.35-2.18 1.925-3.044 1.956-7.354 2.259-9.975-.463-.558-.58-.823-1.32-1.18-1.898l-.042-.069-.01-.09c-.077-.74-.31-1.543-.248-2.46.243-3.623 3.06-6.901 6.024-8.58l.185.875c-2.667 1.51-5.103 4.365-5.31 7.467-.044.646.143 1.39.235 2.197.38.633.63 1.282 1.06 1.728 2.383 2.475 6.39 2.142 9.017.454.651-.419 1.216-1.077 1.929-1.723.516-.837 1.07-1.526 1.362-2.242.95-2.333.906-5.245-1.041-7.173-1.434-1.421-2.329-1.318-4.265-1.717-2.861.193-1.393-.121-3.908.744zM71.279 113.722s-2.47.78-3.468 1.072c-12.462 3.658-24.947 2.643-35.103-4.372-6.7-4.627-10.34-13.188-9.924-22.28.185-4.034 1.745-8.93 3.828-12.487 5.27-8.998 14.917-15.093 23.637-18.557 8.33-3.309 22.311-4.331 30.415-1.69 2.388.746-1.764 3.217-1.162 1.072-.066-.514-.05-.6.034-1.174.863-5.93 8.25-11.678 16.084-15.388 15.357-7.273 35.938-7.987 52.816-2.258 6.378 2.164 14.532 6.903 16.162 14.441.401 1.808.078 3.998-.69 5.817.066-.018.134-.035.205-.052 1.036-.24 2.695-.337 4.216-.383 4.77-.143 11.28.486 16.42 1.967 11.577 3.338 20.872 10.263 24.296 22.348.587 2.075.764 4.41.62 6.816-.325 5.618-2.481 11.663-5.497 15.349-4.728 5.777-12.894 10.378-20.363 12.318-9.444 2.453-21.235 1.815-29.426-.134-1.293-.308-.76-.203-1.697-.466l.088.012c-.434-.002.69-.61.399-.252l-.025.03-.026.027c-.23.23-.124.132-.383.365-3.566 3.212-9.41 6.38-14.21 8.314-4.401 1.773-10.188 3.312-18.375 4.137-11.988 1.208-24.031-.306-34.399-4.336-2.083-.81-4.614-1.812-6.835-3.055-3.62-2.024-6.633-3.715-9.83-6.309l-.877-.71.537-.954s.097.053 1.002.787c3.156 2.56 6.13 4.23 9.751 6.255 2.175 1.216 4.683 2.212 6.763 3.02 10.27 3.994 22.22 5.494 34.088 4.299 8.126-.82 13.824-2.342 18.124-4.074 4.701-1.894 10.512-5.08 13.842-8.08.268-.241.085-.068.326-.31l-.051.057c-.015.018.538-.218.458-.218h.047l.042.012c.953.268.386.153 1.673.459 8.089 1.925 19.841 2.54 29.064.144 7.28-1.891 15.29-6.468 19.719-11.88 2.716-3.32 4.86-9.177 5.172-14.56.138-2.312-.033-4.545-.59-6.51-3.344-11.806-12.44-18.619-23.887-21.918-5.052-1.457-11.53-2.083-16.215-1.943-1.502.045-3.18.16-4.055.362-2.723.63-1.929 1.03-1.122-.64l.001-.003.001-.002c.794-1.613 1.203-3.867.818-5.6v-.002c-1.522-7.044-9.498-11.843-15.768-13.971-16.723-5.676-37.189-4.92-52.22 2.198-7.67 3.632-14.569 9.27-15.303 14.323-.094.644-.1.38-.016 1.003l.017.124-.048.137c.386-1.113 2.056.667-.19-.034h-.003c-7.864-2.564-21.873-1.53-29.891 1.655-8.572 3.405-17.963 9.408-22.972 17.961-1.94 3.312-3.465 8.086-3.639 11.88-.401 8.775 3.141 17.14 9.652 21.638 10 6.907 22.266 7.898 34.517 4.302.965-.282 3.448-1.066 3.448-1.066zM-20.281 82.385c.797-.52 1.597-1.125 2.5-1.631 2.265-1.27 2.946-1.361 5.308-2.107l.036-.012.036-.005c2.074-.293 2.695-.537 4.804-.218 3.15.476 5.87 2.15 8.014 4.403l.011.013.011.014c.459.613.991 1.207 1.423 1.904 1.684 2.713 2.499 6.083 1.98 9.34-.142.895-.436 1.707-.632 2.472l-.016.06-.027.06c-.955 2.064-1.2 2.916-2.753 4.797-2.534 3.07-6.014 4.611-9.764 5.116l-.024.003h-.023c-.954.01-1.944.105-2.955.03-3.954-.292-7.776-1.794-10.568-4.676-.643-.664-1.138-1.423-1.68-2.101l-.018-.023-.014-.027c-.388-.737-.85-1.466-1.198-2.282-1.187-2.777-1.613-6.019-.915-9.065.153-.666.413-1.244.59-1.773l.024-.074.041-.069c.287-.48.559-1.054.97-1.619 1.47-2.024 3.654-3.159 5.794-3.92l.01.955c-2.04.726-3.977 1.787-5.177 3.438-.289.398-.537.9-.851 1.433-.199.582-.418 1.09-.53 1.576-.628 2.74-.251 5.827.881 8.477.316.739.761 1.448 1.161 2.206.558.701 1.04 1.432 1.625 2.036 2.679 2.766 6.371 4.221 10.184 4.503.926.069 1.883-.02 2.87-.032 3.588-.487 6.746-1.933 8.997-4.66 1.452-1.758 1.563-2.337 2.518-4.409.214-.82.477-1.567.593-2.296.467-2.935-.277-6.156-1.884-8.746-.391-.63-.906-1.21-1.383-1.846-2.071-2.172-4.69-3.768-7.664-4.218-2.033-.307-2.473-.083-4.556.213-2.361.744-2.88.779-5.068 2.006-.809.454-1.583 1.036-2.429 1.588z" style="stroke-width:.857633" transform="translate(114.21 45.534) scale(1.166)"/></g><path d="M-150.049-18.431c-3.906-1.922-9.895-1.4-12.597-.67-4.115 1.113-8.13 3.11-10.463 6.775-4.85 7.619-2.795 18.763 4.62 23.95 6.08 4.251 13.993 4.811 21.122 3.478 4.129-.772 9.385-3.255 11.533-7.682 1.772-3.65 1.726-8.045-.185-11.651-2.412-4.553-6.267-8.385-11.14-10.177-1.66-.61-3.647-1.16-5.24-1.424" style="fill:#e5f6ff;fill-opacity:1;stroke:#000;stroke-width:.9375;stroke-linejoin:round;stroke-miterlimit:2;stroke-dasharray:none;stroke-dashoffset:0" transform="translate(98.796 41.129)"/></g></svg>