<svg xmlns="http://www.w3.org/2000/svg" width="600" height="280"><path d="M468.056 253.79c-12.781.2-34.28-.025-47.026-.247l-2.052 7.883c14.075.16 37.041.342 49.078.484v-8.12z" style="display:inline;fill:#a9ffff;fill-opacity:1;stroke:none;stroke-width:.9;stroke-miterlimit:2;stroke-dasharray:none"/><path d="M183.431 253.877c-20.048.267-36.807.221-53.95.095-3.15-.057-27.187.153-30.337.096-.093 2.535-.247 5.07-.343 7.603 3.432.045 22.048.085 25.48.128 25.415.27 35.737.434 61.2.172-1.41-2.75-1.67-5.592-2.05-8.095z" style="display:inline;fill:#ffd5d5;fill-opacity:1;stroke:none;stroke-width:.900001;stroke-miterlimit:2;stroke-dasharray:none"/><path d="M-394.768 54.018c-.15-1.886-.296-3.773-.426-5.661a867.976 867.976 0 0 1-.795-11.304c-.31-5.074-.548-10.151-.812-15.227-.187-3.71-.423-7.417-.654-11.124-.15-2.627-.347-5.251-.573-7.872-.207-2.283-.27-4.573-.364-6.862a35.73 35.73 0 0 1 .005-3.098l.008-.12-.008.12a35.65 35.65 0 0 0-.005 3.098c.093 2.289.157 4.58.364 6.862.226 2.621.424 5.245.573 7.872.23 3.707.466 7.414.654 11.124.263 5.076.501 10.153.812 15.227.245 3.77.5 7.538.794 11.304.13 1.888.278 3.775.427 5.661z" style="fill:#e5f6ff;stroke:#000;stroke-width:.264583;stroke-miterlimit:2"/><path d="M-399.424-4.657c.365-.754.524-1.582.702-2.394.09-.456.18-.913.255-1.372.02-.125.023-.344.095-.464.18.654.328 1.322.527 1.974.267.796.68 1.526 1.09 2.254-.41-.728-.823-1.458-1.09-2.254-.199-.652-.347-1.32-.527-1.974-.072.12-.075.34-.095.464-.075.459-.165.916-.255 1.372-.178.812-.337 1.64-.702 2.394zM-411.917 40.588c1.106.052 2.215.061 3.322.092 2.618.075 5.238.016 7.856-.023 3.67-.1 7.341-.13 11.013-.125 3.797-.027 7.594-.032 11.392-.04 3.415.017 6.829-.101 10.243-.156 2.575-.04 5.15.056 7.72.2a51.975 51.975 0 0 0 0 0c-2.57-.145-5.145-.24-7.72-.2-3.414.055-6.828.173-10.243.156-3.798.008-7.595.013-11.392.04-3.672-.006-7.343.025-11.013.124-2.618.04-5.238.1-7.856.024-1.107-.03-2.216-.04-3.322-.092zM-359.623 39.87c.857.215 1.701.478 2.536.767.278.1.558.198.831.311.012.005.037.009.025.032-.04.074-.398.136-.433.146a112.81 112.81 0 0 0-3.857 1.049c-.632.23-1.318.295-1.951.516.633-.221 1.32-.286 1.95-.516 1.28-.372 2.566-.723 3.858-1.049.035-.01.394-.072.433-.146.013-.023-.013-.027-.025-.032-.273-.114-.553-.21-.83-.312a30.37 30.37 0 0 0-2.537-.766z" style="fill:#e5f6ff;stroke:#000;stroke-width:.264583;stroke-miterlimit:2"/><path d="M-362.174 39.076c.825.381 1.692.658 2.563.913.979.308 1.985.51 2.977.767.229.047.459.1.692.12.05.004.198-.016.15-.005-.019.004-.037.005-.056.008-.635.136-1.243.418-1.839.674-.82.383-1.65.754-2.424 1.228-.201.136-.116.065-.26.203.144-.137.059-.067.26-.203.773-.474 1.604-.845 2.424-1.228.596-.256 1.204-.538 1.84-.674.018-.003.037-.002.054-.009.047-.017-.1.01-.149.006-.233-.02-.463-.073-.692-.12-.992-.258-1.998-.46-2.977-.767-.87-.255-1.738-.532-2.563-.913zM-396.894 35.433c.903.04 1.81-.008 2.713-.054.399-.035.215-.015.552-.056-.337.04-.153.02-.552.055-.903.047-1.81.096-2.713.055zM-397.443 29.118a48.435 48.435 0 0 0 0 0zM-398.376 22.915a46.237 46.237 0 0 1 2.822-.393l.388-.033-.388.032c-.945.098-1.886.238-2.822.394zM-398.586 15.884c.657-.052 1.313-.11 1.971-.142-.658.032-1.314.09-1.971.141zM-398.775 10.962c.755-.085 1.506-.205 2.262-.285l.378-.034-.378.033c-.756.08-1.507.2-2.262.286zM-399.292 4.308a91.176 91.176 0 0 0 0 0zM-401.926 39.335c-.155.601-.177 1.229-.22 1.845.043-.616.065-1.244.22-1.845zM-408.923 39.603a41.812 41.812 0 0 1 0 0zM-389.087 38.654c.121.748.186 1.503.26 2.256-.074-.754-.138-1.508-.26-2.256zM-381.696 38.284c-.188 1.106-.149 2.236-.222 3.353.073-1.117.034-2.247.222-3.352zM-374.894 38.661c.034.41.012.172.066.712-.053-.54-.032-.303-.066-.711zM-369.072 38.952c.226.882.314 1.792.432 2.694l.079.612-.08-.613c-.117-.9-.205-1.81-.431-2.693zM-396.605 47.488a57.675 57.675 0 0 0 0 0zM-398.97 34.825c-.037.389.002.78.047 1.167.02.157.044.315.072.471.01.057.028.114.027.172-.008.02-.002.013-.015.022.013-.01.007-.002.015-.022.001-.058-.016-.115-.027-.172a9.63 9.63 0 0 1-.072-.471c-.044-.387-.084-.778-.046-1.167zM-400.207 28.35c.247-.13.513-.213.79-.249.056-.003.13-.021.18.025.128.122-.027.539-.066.673-.146.44-.333.866-.524 1.29-.014.057-.172.279-.104.328.271.004.543-.035.814-.06a24.001 24.001 0 0 1 0 0c-.27.024-.543.063-.814.06-.067-.049.09-.271.104-.329.19-.423.379-.848.524-1.289.039-.134.194-.55.066-.673-.05-.047-.124-.028-.18-.025a2.323 2.323 0 0 0-.79.249zM-401.359 22.064c.304-.2.634-.34.992-.397.156-.001.427.016.42.235-.001.04-.016.078-.024.117-.138.307-.422.488-.698.658-.078.063-.197.08-.034.082.114.002.12.007.242.024.371.065.637.253.846.559.113.267.174.432-.062.637-.339.168-.725.074-1.075-.006-.163-.045-.341-.08-.48-.185.138.104.316.14.48.186.35.08.736.173 1.075.005.236-.205.175-.37.062-.637-.209-.307-.475-.495-.846-.56-.123-.016-.128-.022-.242-.023-.163-.002-.045-.019.034-.082.276-.17.56-.35.698-.658.008-.04.022-.077.024-.117.007-.22-.263-.236-.42-.235a2.529 2.529 0 0 0-.992.397zM-401.298 14.523c-.176.26-.29.545-.337.856.003.043-.002.087.01.129.08.306.527.268.76.267.256-.027.527-.03.772-.117-.246.087-.516.09-.771.117-.234.001-.681.039-.761-.267-.011-.042-.006-.086-.01-.13.046-.31.162-.595.337-.855z" style="fill:#e5f6ff;stroke:#000;stroke-width:.264583;stroke-miterlimit:2"/><path d="M-400.42 14.919c-.126.397-.172.816-.202 1.23-.033.316-.003.633-.007.95.004-.317-.026-.634.007-.95.03-.414.077-.832.202-1.23zM-402.157 9.61c.336.04.674.038 1.01.023l.131-.008-.13.008a6.314 6.314 0 0 1-1.011-.023zM-402.172 9.86c-.105.168-.226.335-.264.534.028.156.247.155.37.18l.178.038c.376.086.703.208.967.497.147.196.182.32-.017.483-.305.173-.655.078-.974-.002a4.595 4.595 0 0 1 0 0c.32.08.67.176.974.003.2-.164.164-.288.017-.484-.264-.29-.59-.412-.967-.497l-.178-.038c-.123-.025-.342-.024-.37-.18.038-.199.159-.366.264-.534zM-401.163 3.056c-.377.15-.733.373-1.023.66-.071.07-.133.148-.2.223-.285.361-.448.787-.36 1.25.014.072.04.142.06.213.109.275.304.516.62.532.053.003.106-.006.16-.01.346-.065.58-.249.795-.518.085-.135.29-.35.184-.526-.015-.025-.039-.044-.058-.066-.27-.168-.594-.114-.886-.04a1.159 1.159 0 0 1 0 0c.292-.074.616-.128.885.04.02.022.044.04.06.066.105.177-.1.39-.185.526-.214.269-.449.453-.796.518-.053.004-.106.013-.159.01-.315-.016-.511-.258-.62-.532-.02-.071-.045-.141-.06-.214-.087-.462.075-.887.36-1.25.067-.074.129-.152.2-.223.29-.286.646-.509 1.024-.659zM-404.616 3.235c-.37.057-.69.265-.976.494-.124.12-.288.266-.324.446-.05.247.065.485.16.7.237.321.575.665 1.006.668.061 0 .121-.018.182-.028.216-.08.448-.248.412-.51-.006-.041-.023-.08-.035-.12-.13-.277-.399-.358-.681-.389-.312-.002-.549.184-.775.375-.121.107-.067.052-.165.164.098-.112.044-.056.165-.164.226-.19.463-.377.775-.374.282.03.552.11.681.388.012.04.029.079.034.12.037.262-.195.43-.411.51-.06.01-.12.028-.182.028-.431-.003-.77-.347-1.006-.667-.095-.216-.21-.454-.16-.7.036-.18.2-.327.324-.447.286-.229.607-.436.976-.494zM-400.925 48.139c.38-.023.757.037 1.134.071l.288.026-.288-.026c-.377-.034-.754-.095-1.134-.071zM-398.457 47.025c.058.429.102.86.16 1.289-.006.192.113.46.08.65.033-.19-.087-.458-.08-.65-.058-.43-.102-.86-.16-1.29zM-400.797 54.18c.392-.014.783-.026 1.173-.067.244-.013.486-.073.73-.073-.244 0-.486.06-.73.072-.39.042-.781.053-1.173.067zM-398.865 53.147c.276-.147.591-.176.899-.174.33.026.311.15.231.428-.14.378-.316.743-.487 1.108l-.285.605c.042-.017-.022.025-.013.026.09.01.21-.032.297-.045.302-.054.604-.1.904-.161l.137-.03-.137.03c-.3.06-.602.107-.904.161-.088.013-.205.054-.297.045-.01 0 .055-.043.013-.026.096-.201.19-.403.285-.605.171-.365.347-.73.487-1.108.08-.277.1-.402-.231-.428-.308-.003-.623.026-.9.173zM-388.604 42.574c.027.4.023.802.035 1.203.018.312.021.63.102.934-.08-.304-.084-.622-.102-.934-.011-.401-.007-.803-.034-1.203zM-382.83 43.672c.372-.15.753-.256 1.148-.318.269-.036.387-.055.336.254-.122.338-.368.616-.597.886-.098.145-.274.243-.339.41-.002.008-.009.027.006.032.055.02.366-.002.423-.002.409.008.816-.034 1.214-.121-.092-.082.115.01.104-.024-.003-.01-.02-.002-.03-.003.01 0 .027-.007.03.003.012.033-.197-.058-.104.024a5.22 5.22 0 0 1-1.214.12c-.057.001-.367.023-.422.003-.015-.005-.008-.024-.006-.032.064-.167.24-.265.338-.41.23-.27.476-.548.597-.886.051-.31-.067-.29-.336-.254a5.224 5.224 0 0 0-1.147.318zM-375.73 42.876c.276-.178.589-.27.915-.285.333.056.274.277.145.509-.062.102-.157.174-.237.26-.01.009-.06.055-.032.082.015.014.037.017.056.025.338.085.654.216.948.402.16.134.365.32.292.553-.01.034-.03.065-.046.098-.183.276-.485.331-.794.344-.23-.034-.5-.057-.691-.206.19.15.461.172.691.206.309-.013.611-.068.794-.344.015-.033.036-.063.047-.098.072-.234-.133-.42-.293-.553a3.227 3.227 0 0 0-.948-.402c-.019-.008-.04-.01-.056-.025-.028-.027.023-.073.032-.082.08-.086.176-.158.237-.26.13-.232.188-.453-.145-.509-.326.016-.639.106-.915.285zM-369.142 43.182c-.083.205-.244.438-.17.671.042.135.118.167.223.25.322.14.679.159 1.026.15.024-.006.125-.001.12-.048l-.004-.004c0 .002.002.003.004.004.005.047-.097.042-.12.048-.347.008-.703-.01-1.026-.15-.105-.084-.18-.115-.223-.25-.073-.233.087-.466.17-.671z" style="fill:#e5f6ff;stroke:#000;stroke-width:.264583;stroke-miterlimit:2"/><path d="M-368.281 43.428c-.056.45-.004.906.043 1.355.023.167.036.336.064.502.008.05.023.094.024.144 0-.05-.015-.095-.023-.144-.029-.166-.042-.335-.065-.502-.047-.45-.099-.904-.043-1.355zM-403.927 44.515c.393.083.799.078 1.198.067a1.25 1.25 0 0 1 0 0c-.4.01-.805.015-1.198-.067zM-401.942 43.718a32.7 32.7 0 0 0 .122 1.872l.035.357-.034-.357a32.544 32.544 0 0 1-.123-1.872zM-410.862 45.01c.34-.034.68-.056 1.021-.068a11.284 11.284 0 0 0 0 0c-.34.012-.681.034-1.02.067zM-409.575 44.641c.35-.189.726-.302 1.113-.383.158-.019.516-.077.536.177.004.05-.01.1-.015.151-.101.453-.347.852-.6 1.235-.019.03-.243.32-.198.359.02.018.121.003.127.003.354-.031.709-.04 1.063-.037.12-.015.331.05.44-.025.006-.016.006-.008.002-.023.003.015.003.007-.003.023-.108.074-.32.01-.44.024-.354-.003-.709.006-1.062.037-.005 0-.107.016-.127-.002-.045-.04.18-.33.198-.36.253-.382.499-.78.6-1.234.005-.05.019-.1.015-.151-.02-.255-.378-.196-.536-.177-.387.08-.764.194-1.113.383z" style="fill:#e5f6ff;stroke:#000;stroke-width:.264583;stroke-miterlimit:2"/><path d="M-407.527 44.002c1.031-.648 2.07-1.287 3.112-1.917 2.19-1.344 4.388-2.673 6.584-4.007 2.418-1.444 4.881-2.812 7.323-4.216 2.302-1.343 4.604-2.687 6.918-4.01 2.04-1.192 4.092-2.365 6.112-3.591a379.403 379.403 0 0 0 5.767-3.673c2.125-1.401 4.295-2.731 6.461-4.067 2.038-1.28 4.093-2.533 6.11-3.847.826-.645 1.895-1.054 2.583-1.87.128-.16.16-.36-.012-.495.172.135.14.334.012.496-.688.815-1.757 1.224-2.584 1.868-2.016 1.314-4.071 2.567-6.109 3.848-2.166 1.336-4.336 2.666-6.46 4.067a379.375 379.375 0 0 1-5.769 3.673c-2.02 1.226-4.07 2.399-6.111 3.59-2.314 1.324-4.616 2.668-6.918 4.011-2.442 1.404-4.905 2.772-7.323 4.215-2.196 1.335-4.394 2.663-6.584 4.007-1.043.63-2.08 1.27-3.112 1.918z" style="fill:#e5f6ff;stroke:#c87137;stroke-width:.264583;stroke-miterlimit:2"/><path d="M-376.846 29.175c.038 1.51.118 3.02.269 4.524-.008.484.206.973.139 1.457.067-.484-.147-.973-.139-1.457a60.97 60.97 0 0 1-.269-4.524z" style="fill:#e5f6ff;stroke:#000;stroke-width:.264583;stroke-miterlimit:2"/><path d="M-377.448 32.251c2.75.39 5.551.305 8.321.245 1.666-.055 3.34-.089 4.986-.37-1.647.281-3.32.315-4.986.37-2.77.06-5.57.144-8.32-.245z" style="fill:#e5f6ff;stroke:#000;stroke-width:.264583;stroke-miterlimit:2"/><path d="M-366.696 30.023c.48.873 1.138 1.632 1.767 2.4l.222.284.151.203c.001.002.114.132.102.133-.062.007-.123-.022-.186-.02-.723.41-1.246 1.178-1.65 1.888l-.126.33.126-.33c.404-.71.927-1.477 1.65-1.888.063-.002.124.027.186.02.012 0-.1-.13-.102-.133-.051-.067-.1-.135-.15-.203l-.223-.285c-.629-.767-1.287-1.526-1.767-2.399z" style="fill:#e5f6ff;stroke:#000;stroke-width:.264583;stroke-miterlimit:2"/><path d="M-365.185 28.879c.135 1.503.301 3.004.385 4.51a31.638 31.638 0 0 0 0 0c-.084-1.506-.25-3.007-.385-4.51zM-362.054 28.448c1.395-.128 2.793-.208 4.18-.42l.348-.061-.348.06c-1.387.212-2.785.293-4.18.42v.001z" style="fill:#e5f6ff;stroke:#000;stroke-width:.264583;stroke-miterlimit:2"/><path d="M-377.235 25.905c.181-.207.772-.387.623.071-.092.13-.182.147-.328.124.073.062.282-.016.328-.124.187-.444-.683-.495-.623-.07z" style="fill:#000;stroke:#000;stroke-width:.264583;stroke-miterlimit:2"/><path d="M-366.162 19.493c.057-.32.234-.807.636-.748.27.215.153.533-.079.716-.364.183-.583-.11-.564-.457l.036-.13-.036.13c-.02.348.2.64.565.457.231-.183.348-.501.078-.716-.402-.059-.58.428-.636.748zM-363.02 19.507c.107-.024.213-.056.323-.071.227-.033.917-.074 1.112-.088.666-.047 1.33-.106 1.995-.171.366-.037.731-.083 1.098-.111-.367.028-.732.074-1.098.11-.665.066-1.329.125-1.995.172-.195.013-.885.055-1.113.088-.109.015-.215.047-.323.07zM-362.806 22.029a31.52 31.52 0 0 0 1.625-1.56c.224-.24.447-.482.62-.764.063-.14.101-.134.23-.036.469.396.931.798 1.418 1.172.288.216.152.116.407.303-.254-.188-.119-.087-.407-.303-.487-.375-.95-.776-1.418-1.173-.129-.098-.167-.103-.23.037-.173.281-.397.523-.62.765a31.508 31.508 0 0 1-1.625 1.559z" style="fill:#e5f6ff;stroke:#000;stroke-width:.264583;stroke-miterlimit:2"/><path d="M-360.691 20.173c-.042 1.212.069 2.422.125 3.631.063 1.334.176 2.665.23 3.998a2.182 2.182 0 0 1 0 0c-.054-1.333-.166-2.664-.23-3.998-.056-1.21-.166-2.419-.125-3.631zM-373.873 35.335c.167.364.297.745.432 1.123.043.142.104.278.134.424a.359.359 0 0 1 .007.056c0 .003-.002.009-.004.007-.008-.014-.011-.03-.017-.045-.07-.29.038-.582.232-.803.054-.06.119-.111.178-.167a1.669 1.669 0 0 0 0 0c-.06.056-.125.106-.178.167-.195.22-.303.512-.232.803.006.015.01.03.018.045 0 .002.004-.004.004-.007a.359.359 0 0 0-.007-.056c-.03-.146-.091-.282-.135-.424-.135-.378-.265-.759-.432-1.123zM-371.045 35.667c-.146.32-.157.691.058.985.05.068.115.121.173.181.071.045.137.1.213.136.26.124.635.154.887-.011.053-.035.091-.089.137-.133.176-.29.155-.618.097-.939-.028-.09-.012-.05-.045-.121.032.07.016.03.044.121.059.321.08.648-.097.939-.045.044-.083.098-.136.133-.252.165-.627.135-.887.01-.076-.036-.142-.09-.213-.135-.057-.06-.123-.113-.173-.18-.215-.295-.204-.667-.058-.986zM-368.983 35.984c.005.374.016.747.029 1.12l.008.21c0 .007.004.026 0 .02-.026-.066-.013-.168-.012-.234.025-.38.209-.661.526-.872.07-.046.148-.08.221-.12.253-.11.602-.22.83.005.031.031.053.071.079.107.138.258.058.526-.053.778-.067.138-.14.273-.225.401l-.018.026.018-.026a3.51 3.51 0 0 0 .226-.401c.11-.252.19-.52.052-.779-.026-.035-.048-.075-.079-.106-.228-.226-.577-.115-.83-.006-.074.04-.151.074-.221.12-.317.212-.502.493-.527.873 0 .065-.014.17.014.234.003.006-.001-.013-.001-.02l-.008-.21a49.836 49.836 0 0 1-.03-1.12zM-358.122 23.062c.097.402.128.815.184 1.224l.015.094c.02.135-.011-.023-.012-.048-.002-.036 0-.072.002-.108.009-.34.163-.637.421-.858.063-.053.135-.096.203-.145.246-.146.518-.255.808-.242a.228.228 0 0 0 0 0c-.29-.014-.563.095-.808.242-.068.049-.14.091-.203.145-.258.22-.412.519-.421.858-.001.036-.004.072-.002.108 0 .026.033.183.012.048l-.015-.094c-.056-.41-.086-.822-.183-1.224zM-356.323 22.248c-.041.145.022.327.204.301.035-.005.066-.023.099-.035.132-.182.148-.353-.044-.492.191.14.176.31.043.492-.032.012-.063.03-.098.035-.182.026-.245-.156-.204-.301zM-356.455 23.161a10.16 10.16 0 0 0-.004 1.196c.013.16.022.32.051.477.001.008.004.015.006.023-.002-.008-.005-.015-.005-.023-.03-.157-.04-.317-.052-.477-.018-.398-.025-.798.004-1.196zM-354.486 23.036c-.245-.1-.515-.031-.748.069-.157.083-.444.216-.401.442.007.039.03.072.045.108.317.315.727.507 1.078.779.09.089.26.246.158.386-.018.025-.043.042-.065.064-.287.173-.648.14-.963.072-.18-.062-.356-.139-.487-.28.13.142.307.218.487.28.315.068.676.1.964-.072.021-.021.046-.04.064-.064.103-.14-.068-.297-.158-.386-.35-.272-.761-.464-1.078-.78-.015-.035-.038-.068-.045-.107-.042-.226.245-.359.4-.442.234-.1.504-.17.749-.068zM-353.906 23.923c.31.13.646.107.964.021.108-.05.408-.147.414-.302.001-.024-.01-.047-.016-.07-.125-.214-.309-.282-.546-.288-.322.018-.542.24-.702.5-.153.323-.157.556.005.874.198.287.511.327.835.3.208-.044.452-.081.617-.229-.165.147-.41.185-.617.229-.324.027-.637-.013-.835-.3-.162-.318-.158-.55-.005-.875.16-.26.38-.48.702-.498.237.005.421.073.546.287.005.023.017.046.016.07-.006.155-.306.25-.414.302-.318.086-.653.11-.963-.021z" style="fill:#e5f6ff;stroke:#000;stroke-width:.264583;stroke-miterlimit:2"/><path d="M-410.843 18.79c.984 2.028 2.273 3.887 3.55 5.738 1.055 1.471 2.128 2.943 3.438 4.202.68.653 1.119.981 1.848 1.569 1.178.896 2.44 1.682 3.799 2.272.792.344 1.116.435 1.93.71 1.743.548 3.556.632 5.333.19.42-.104.827-.251 1.24-.377 2.92-1.02 5.285-2.98 7.54-5.028 2.617-2.47 4.79-5.358 6.822-8.315 2.06-3.08 3.853-6.326 5.63-9.573 1.67-2.97 3.065-6.071 4.25-9.261.693-1.936 1.255-3.918 1.498-5.961-.243 2.043-.805 4.025-1.497 5.96-1.186 3.19-2.58 6.292-4.251 9.262-1.777 3.247-3.57 6.494-5.63 9.573-2.032 2.957-4.205 5.845-6.822 8.315-2.255 2.047-4.62 4.008-7.54 5.028-.413.125-.82.273-1.24.377-1.777.442-3.59.358-5.334-.19-.813-.275-1.137-.366-1.929-.71-1.36-.59-2.62-1.376-3.799-2.272-.729-.588-1.167-.916-1.847-1.57-1.311-1.258-2.384-2.73-3.44-4.201-1.276-1.85-2.565-3.71-3.549-5.738z" style="fill:red;stroke:red;stroke-width:.264583;stroke-miterlimit:2"/><path d="M106.55 22.034c-.487 3.7-.118 8.662-.11 12.383.016 7.35-.275 15.145.014 23.403.269 9.48.429 18.954.38 28.437.02 13.382.06 26.766-.096 40.15-.183 18.32-.475 36.634-.472 54.954.069 13.605.17 27.221.436 40.828.07 6.823.197 13.64.345 20.458" style="fill:none;stroke:#000;stroke-width:1;stroke-miterlimit:2;stroke-dasharray:none"/><path d="M111.506 29.62c-1.506-3.101-2.26-5.388-3.12-8.757-.695-2.722-1.097-5.526-1.685-8.254-.324.473-.39 1.377-.497 1.885-.431 1.866-.916 3.73-1.401 5.592-.933 3.291-1.794 6.663-3.486 9.678M256.805 201.035c-3.034-.327-6.524-.46-9.57-.637-10.596-.62-20.027-.4-30.645-.236-14.09.23-28.168.721-42.258.645-15.66.043-31.333.054-46.994.163-15.137-.02-30.285.11-45.422.525-10.805.152-21.609.404-32.403.087-4.572-.12-9.145-.164-13.707-.371" style="fill:none;stroke:#000;stroke-width:1;stroke-miterlimit:2;stroke-dasharray:none"/><path d="M-282.958 35.557c.632-.222 1.32-.286 1.95-.519 1.28-.37 2.566-.722 3.857-1.047.035-.011.394-.072.434-.146.013-.024-.013-.026-.024-.032-.275-.114-.553-.211-.83-.312-.837-.288-1.68-.55-2.538-.767" style="fill:none;stroke:#000;stroke-width:.264583;stroke-miterlimit:2"/><path d="M244.32 209.007c.62-.534.255-.26 1.126-.779 3.29-1.774 6.798-3.109 10.264-4.5 2.51-.91 5.082-1.937 7.728-2.347.077-.008.153-.004.231-.03.19-.055-.416.02-.622-.015-.954-.13-1.89-.4-2.816-.65-4.027-1.285-8.133-2.346-12.093-3.847-3.526-1.248-7.026-2.592-10.337-4.352M113.294 123.552l-1.608.061c-3.91.235-7.806.645-11.694 1.122" style="fill:none;stroke:#000;stroke-width:1;stroke-miterlimit:2;stroke-dasharray:none"/><path d="M112.553 98.864c-3.613-.034-7.221.04-10.826.083" style="fill:#e5f6ff;stroke:#000;stroke-width:1;stroke-miterlimit:2;stroke-dasharray:none"/><path d="M112.285 73.478a75 75 0 0 0-1.567.047c-3.135.137-6.248.44-9.385.61" style="fill:none;stroke:#000;stroke-width:1;stroke-miterlimit:2;stroke-dasharray:none"/><path d="M77.62 195.955c-.309 3.6-.06 7.268.083 10.862l.002.018c-.145-3.61-.393-7.279-.086-10.878v-.002zM48.772 195.645a167.43 167.43 0 0 0 .152 11.226c-.163-3.745-.218-7.48-.152-11.226zM134.93 194.651c.137 3.392.03 6.8-.032 10.191.061-3.39.169-6.799.032-10.19zM163.766 206.037c-.082-3.696.11-7.922-.225-11.098M192.586 205.902c-.218-8.168-.131-4.582-.273-10.718.142 6.136.055 2.55.273 10.718" style="fill:#e5f6ff;stroke:#000;stroke-width:1;stroke-miterlimit:2;stroke-dasharray:none"/><path d="M221.248 205.887c.021-1.32.006-.606.04-2.127.05-3.12.234-6.26-.158-9.378" style="fill:none;stroke:#000;stroke-width:1;stroke-miterlimit:2;stroke-dasharray:none"/><path d="M112.538 229.304c-3.84-.242-7.677-.335-11.513-.393" style="fill:#e5f6ff;stroke:#000;stroke-width:1;stroke-miterlimit:2;stroke-dasharray:none"/><path d="M-274.964-10.397c.106-.123.046-.063.177-.177.243-.209.5-.409.837-.406.306.034.594.12.734.42.014.043.031.083.037.128.04.283-.211.463-.443.552-.065.008-.131.028-.197.028-.465-.003-.83-.374-1.085-.72-.103-.234-.225-.488-.174-.754.04-.197.217-.354.351-.482.309-.249.654-.471 1.054-.534M-273.781 41.494c-.265-.016-.528.031-.794.03-.422.02-.845.005-1.268-.004" style="fill:none;stroke:#000;stroke-width:.264583;stroke-miterlimit:2"/><path d="M498.075-87.785c.272-1.999-.612-4.019-.579-6.017-.622-6.203-.95-12.438-1.113-18.674" style="fill:none;stroke:#000;stroke-width:1;stroke-miterlimit:2;stroke-dasharray:none"/><path d="M548.79-100.3c-6.788 1.169-13.697 1.31-20.561 1.53-11.427.25-22.984.6-34.323-1.005" style="fill:none;stroke:#000;stroke-width:1;stroke-miterlimit:2;stroke-dasharray:none"/><path d="M539.404-87.447c.175-.447.35-.895.524-1.354 1.67-2.926 3.83-6.093 6.81-7.786.251-.01.513.11.764.077.055 0-.415-.535-.415-.546-.218-.273-.414-.557-.633-.841-.294-.393-.6-.786-.905-1.18-2.598-3.166-5.315-6.29-7.29-9.893" style="fill:none;stroke:#000;stroke-width:1;stroke-miterlimit:2;stroke-dasharray:none"/><path d="M546.192-86.387c.066-2.894.013-5.799-.12-8.693-.338-6.213-1.025-12.416-1.582-18.619M411.81-72.867c.61.098.982.032 1.353-.514.622-1.889-1.822-1.146-2.565-.294M467.441-106.26c-.044.175-.098.361-.142.536-.087 1.43.819 2.643 2.325 1.889.96-.753 1.44-2.075.327-2.96-1.659-.24-2.39 1.77-2.63 3.091" style="fill:none;stroke:#000;stroke-width:1;stroke-miterlimit:2;stroke-dasharray:none"/><path d="M211.95 23.025c-1.598 7.242-5.338 16.631-8.257 24.604-4.83 13.191-10.424 24.538-17.241 38.517-6.693 13.725-15.02 26.501-23.522 39.212-8.381 12.209-17.341 24.123-28.135 34.322-9.298 8.453-19.055 16.544-31.093 20.749-1.713.524-3.394 1.124-5.118 1.561-7.334 1.824-14.81 1.474-22.002-.786-3.361-1.136-4.693-1.507-7.956-2.927-5.61-2.446-10.815-5.678-15.672-9.38-3.012-2.424-4.813-3.778-7.628-6.476-5.403-5.198-9.823-11.27-14.177-17.34a397.476 397.476 0 0 1-5.552-8.267" style="fill:none;stroke:red;stroke-width:1.1;stroke-miterlimit:2;stroke-dasharray:none"/><rect width="6.948" height="7.146" x="-295.626" y="44.644" rx="0" ry="0" style="fill:#f0f;stroke:none;stroke-width:.264583;stroke-miterlimit:2"/><rect width="6.299" height="6.479" x="-304.268" y="-9.934" rx="0" ry="0" style="fill:#ffd5d5;stroke:none;stroke-width:.264583;stroke-miterlimit:2"/><path d="M111.691 174.207c-.62.104-1.203.15-1.868.178-1.984.084-6.217.223-9.155-.037" style="fill:none;stroke:#000;stroke-width:1;stroke-miterlimit:2;stroke-dasharray:none"/><path d="M102.25 149.46c3.125-.129 6.241-.138 9.374-.111-3.133-.027-6.25-.018-9.372.101l-.002.01z" style="fill:#e5f6ff;stroke:#000;stroke-width:1;stroke-miterlimit:2;stroke-dasharray:none"/><path d="M498.049-249.23c-1.004 8.43-3.318 16.61-6.177 24.603-4.89 13.17-10.64 25.968-17.538 38.22-7.323 13.4-14.723 26.799-23.224 39.51-8.382 12.208-17.342 24.122-28.136 34.322-9.298 8.452-19.055 16.544-31.092 20.748-1.714.524-3.394 1.125-5.119 1.562-7.334 1.823-14.81 1.474-22.002-.787-3.36-1.135-4.692-1.507-7.956-2.926-5.61-2.446-10.815-5.679-15.671-9.38-3.013-2.425-4.813-3.779-7.63-6.476-5.401-5.198-9.821-11.27-14.176-17.341-5.271-7.645-10.586-15.321-14.646-23.686" style="fill:none;stroke:red;stroke-width:1;stroke-miterlimit:2;stroke-dasharray:none"/><path d="M-136.043 195.582c.348-1.081.905-2.36 1.517-3.312 1.525-2.377 3.331-5.144 5.817-6.572.374.053 1.062.2.495-.292-2.863-1.914-4.461-3.642-6.632-6.408-.435-.555-1.335-2.092-1.748-3.305" style="fill:none;stroke:#000;stroke-width:1;stroke-miterlimit:2;stroke-dasharray:none"/><path d="M363.817-94.843c-.7.017-1.4.013-2.1.005-.312-.006-.623-.003-.932-.036l-.16 1.292c.352.01.703.009 1.055.01.7.006 1.4.017 2.098.048l.04-1.319zM359.089-94.876c-.561-.063-1.129-.02-1.696-.042-.23-.007-.98-.013-1.21-.02l-.046 1.317c.22-.002.965.006 1.153.008.473.015 1.26-.002 1.723.067.026-.42.05-.91.076-1.33zM353.615-94.94c-.562-.004-1.176.026-1.86.035-.195-.003-.651.03-.842-.003l-.036 1.273c.298.02.601.015.856.019.754-.02 1.51-.032 2.263-.066l-.024-1.251zM348.766-94.919c-.682.006-1.377.055-2.057 0-.326.02-1.123.023-1.155.017l.124 1.265h.258c.081 0 .567.008.648.013.73.015 1.46-.02 2.19.012l-.009-1.306zM338.303-93.59c-.799-.054-1.15-.04-1.95-.01-.43.02-.681.01-1.06.033l-.108-1.293c.508-.009.721-.006 1.081-.013.852-.02 1.25-.022 2.102-.032zM343.45-94.91c-.657.024-1.378.05-1.967.015-.298-.017-.58.012-.877-.016l-.126 1.315c.274-.009.544-.039.77-.018.546.038 1.471-.013 2.209.025z" style="display:inline;fill:#000;fill-opacity:1;stroke:none;stroke-width:.900002;stroke-miterlimit:2;stroke-dasharray:none"/><path d="M579.95-5.241c.611.098.982.032 1.353-.514.622-1.889-1.822-1.146-2.565-.294" style="fill:none;stroke:#000;stroke-width:1;stroke-miterlimit:2;stroke-dasharray:none"/><path d="M-166.45 37.262c-1.6 7.242-5.34 16.632-8.259 24.604-4.83 13.191-10.423 24.539-17.24 38.517-6.694 13.725-15.02 26.501-23.522 39.212-8.381 12.209-17.342 24.123-28.135 34.322-9.298 8.453-19.055 16.544-31.093 20.749-1.713.524-3.394 1.124-5.118 1.561-7.334 1.824-14.81 1.474-22.002-.786-3.361-1.136-4.693-1.507-7.956-2.927-5.61-2.446-10.815-5.678-15.672-9.38-3.012-2.424-4.813-3.778-7.629-6.476-5.402-5.198-9.822-11.27-14.176-17.34-5.272-7.645-10.587-15.322-14.646-23.687" style="fill:none;stroke:red;stroke-width:1;stroke-miterlimit:2;stroke-dasharray:none"/><path d="M401.563 22.034c-.487 3.7-.118 8.662-.11 12.383.016 7.35-.275 15.145.014 23.403.269 9.48.429 18.954.38 28.437.02 13.382.06 26.766-.096 40.15-.183 18.32-.475 36.634-.472 54.954.069 13.605.17 27.221.435 40.828.072 6.823.198 13.64.346 20.458" style="fill:none;stroke:#000;stroke-width:1;stroke-miterlimit:2;stroke-dasharray:none"/><path d="M406.519 29.62c-1.506-3.101-2.26-5.388-3.12-8.757-.695-2.722-1.097-5.526-1.685-8.254-.324.473-.39 1.377-.498 1.885-.43 1.866-.915 3.73-1.4 5.592-.933 3.291-1.794 6.663-3.486 9.678M551.818 201.035c-3.034-.327-6.524-.46-9.57-.637-10.596-.62-20.027-.4-30.646-.236-14.089.23-28.168.721-42.257.645-15.66.043-31.333.054-46.994.163-15.137-.02-30.285.11-45.422.525-10.805.152-21.609.404-32.403.087-4.572-.12-9.145-.164-13.707-.371" style="fill:none;stroke:#000;stroke-width:1;stroke-miterlimit:2;stroke-dasharray:none"/><path d="M539.333 209.007c.62-.534.255-.26 1.126-.779 3.29-1.774 6.798-3.109 10.264-4.5 2.51-.91 5.082-1.937 7.728-2.347.077-.008.153-.004.231-.03.19-.055-.416.02-.622-.015-.955-.13-1.89-.4-2.816-.65-4.027-1.285-8.133-2.346-12.093-3.847-3.526-1.248-7.026-2.592-10.337-4.352M408.307 123.552l-1.608.061c-3.91.235-7.806.645-11.694 1.122" style="fill:none;stroke:#000;stroke-width:1;stroke-miterlimit:2;stroke-dasharray:none"/><path d="M407.566 98.864c-3.613-.034-7.221.04-10.827.083" style="fill:#e5f6ff;stroke:#000;stroke-width:1;stroke-miterlimit:2;stroke-dasharray:none"/><path d="M407.298 73.478a75 75 0 0 0-1.567.047c-3.135.137-6.248.44-9.385.61" style="fill:none;stroke:#000;stroke-width:1;stroke-miterlimit:2;stroke-dasharray:none"/><path d="M372.632 195.955c-.308 3.6-.059 7.268.084 10.862l.002.018c-.144-3.61-.393-7.279-.085-10.878v-.002zM343.785 195.645a167.4 167.4 0 0 0 .152 11.226c-.163-3.745-.218-7.48-.152-11.226zM429.943 194.651c.136 3.392.03 6.8-.032 10.191.061-3.39.168-6.799.032-10.19zM458.779 206.037c-.082-3.696.11-7.922-.225-11.098M487.599 205.902c-.218-8.168-.131-4.582-.273-10.718.142 6.136.055 2.55.273 10.718" style="fill:#e5f6ff;stroke:#000;stroke-width:1;stroke-miterlimit:2;stroke-dasharray:none"/><path d="M516.26 205.887c.022-1.32.007-.606.042-2.127.049-3.12.233-6.26-.16-9.378" style="fill:none;stroke:#000;stroke-width:1;stroke-miterlimit:2;stroke-dasharray:none"/><path d="M407.55 229.304c-3.839-.242-7.676-.335-11.512-.393" style="fill:#e5f6ff;stroke:#000;stroke-width:1;stroke-miterlimit:2;stroke-dasharray:none"/><path d="M506.964 23.025c-1.599 7.242-5.34 16.631-8.258 24.604-4.83 13.191-10.424 24.538-17.241 38.517-6.693 13.725-15.02 26.501-23.522 39.212-8.381 12.209-17.341 24.123-28.135 34.322-9.298 8.453-19.055 16.544-31.093 20.749-1.713.524-3.394 1.124-5.118 1.561-7.334 1.824-14.81 1.474-22.002-.786-3.361-1.136-4.693-1.507-7.956-2.927-5.61-2.446-10.815-5.678-15.672-9.38-3.012-2.424-4.813-3.778-7.628-6.476-5.403-5.198-9.823-11.27-14.177-17.34a397.528 397.528 0 0 1-5.552-8.267" style="fill:none;stroke:red;stroke-width:1.1;stroke-miterlimit:2;stroke-dasharray:none"/><path d="M406.704 174.207c-.62.104-1.203.15-1.868.178-1.984.084-6.217.223-9.155-.037" style="fill:none;stroke:#000;stroke-width:1;stroke-miterlimit:2;stroke-dasharray:none"/><path d="M397.263 149.46c3.125-.129 6.241-.138 9.374-.111-3.133-.027-6.25-.018-9.372.101l-.002.01z" style="fill:#e5f6ff;stroke:#000;stroke-width:1;stroke-miterlimit:2;stroke-dasharray:none"/><path d="M93.844 337.44c-.812-.236-1.796-.808-2.41-1.385a5.184 5.184 0 0 1-.541-.592c-1.101-1.416-1.275-3.022-.822-4.586.108-.37.257-.743.43-1.103a12.448 12.448 0 0 1 2.839-3.775c.12-.107.263-.218.42-.33M100.508 261.678c-.13-.566-.254-1.872-.26-2.457-.018-1.498-.012-3.105-.012-4.662M106.485 253.834c-.027.89-.03 1.601-.022 2.406.013 1.54.01 3.079-.02 4.618 0 .16.06.38-.17.371-.15 0-.16-.176-.25-.265a19.854 19.854 0 0 0-2.045-2.353c-1.218-1.212-2.415-2.442-3.533-3.724M110.943 254.613a4.962 4.962 0 0 1 2.236-.124c1.045.182 2.065.662 2.768 1.53.779.961.62 2.546.056 3.539-.57 1.002-1.763 2.101-3.875 1.87-1.094-.12-2.299-1.031-2.742-1.918-.515-1.033-.6-2.74.59-3.836.71-.655 1.854-1.22 2.534-.805M124.935 254.423c-.703.1-1.406.174-2.107.23-1.873.122-3.74.111-5.62.163M121.58 261.622c-.149-.629-.119-1.299-.229-1.938-.17-1.571-.359-3.153-.349-4.745M135.94 259.821c.054.337.234.626.514.874.938.634 1.958.618 3.086.498.885-.12 1.77-.281 2.383-.906.054-.08.126-.145.162-.225.244-.553-.36-1.067-.73-1.427-1.11-.883-2.383-1.548-3.692-2.158-.298-.184-.713-.376-.911-.665-.361-.49.27-.834.686-1.019 1.02-.328 1.868-.344 2.797.209M150.126 260.503c-.107.06-.259.139-.386.178-1.13.347-2.233.596-3.412.217-1.065-.343-1.824-1.118-2.03-2.221-.207-1.12.182-2.738 1.402-3.542.785-.516 1.798-.643 2.754-.351M151.527 261.41c.591-1.035 1.25-2.035 1.792-3.097.707-1.291 1.356-2.627 2.228-3.839" style="fill:none;stroke:#000;stroke-width:1.10001;stroke-miterlimit:2;stroke-dasharray:none;stroke-opacity:1"/><path d="M158.636 261.374c-.203-.398-.416-.805-.62-1.212-.958-1.884-1.908-3.768-2.77-5.697M156.832 258.5c-.187.017-.363.035-.539.052-1.309.098-2.64.08-3.937.24M166.09 261.023a46.37 46.37 0 0 1-1.445-.004c-1.315 0-2.632.015-3.938.023-.26-.006-.116-.106-.141-.294.019-.89-.032-1.78-.027-2.677.006-1.033.05-2.522.07-3.79M174.839 260.936c-.302-.007-.495-.009-.583-.01-1.26-.014-3.579-.041-4.98.133-.117.014-.234.022-.351.036-.16.022-.285.088-.294-.08-.067-.693-.1-1.386-.134-2.08-.042-1.401-.042-2.803.126-4.197" style="fill:none;stroke:#000;stroke-width:1.10001;stroke-miterlimit:2;stroke-dasharray:none;stroke-opacity:1"/><path d="M168.078 258.112c1.081.006 2.172-.022 3.236-.156-1.064.134-2.155.164-3.236.156z" style="fill:#f0f;stroke:#000;stroke-width:1.10001;stroke-miterlimit:2;stroke-dasharray:none;stroke-opacity:1"/><path d="M174.517 254.652a47.62 47.62 0 0 1-1.786.082c-1.643.03-3.286-.067-4.93.037M177.607 261.546a29.458 29.458 0 0 1-.318-2.558c-.082-1.602-.14-3.203-.115-4.814" style="fill:none;stroke:#000;stroke-width:1.10001;stroke-miterlimit:2;stroke-dasharray:none;stroke-opacity:1"/><path d="M177.764 260.887c.764.078 1.836.037 2.47-.068.676-.113 1.713-.32 2.4-.759.769-.49 1.09-.963.8-1.783-.432-1.225-1.724-2.25-2.791-2.793-.957-.487-2.122-.977-3.567-.731M189.6 337.554c1.634-.741 2.979-1.946 3.415-3.415.51-1.715-.018-3.814-1.036-5.149-.808-1.06-1.75-2.008-3.013-2.767a20.967 20.967 0 0 0-.647-.397" style="fill:none;stroke:#000;stroke-width:1.10001;stroke-miterlimit:2;stroke-dasharray:none;stroke-opacity:1"/><path d="M419.375 259.848c.386.349.81.662 1.306.862.168.057.336.128.504.171.86.221 1.773.128 2.605-.135.657-.307 1.11-.67.964-1.44-.248-.713-.62-1.09-1.27-1.504-.861-.527-1.796-.926-2.664-1.44-.562-.456-.788-.784-.205-1.368.48-.306 1.234-.417 1.88-.417.765 0 1.144.145 1.629.238" style="fill:none;stroke:#000;stroke-width:1.10002;stroke-miterlimit:2;stroke-dasharray:none;stroke-opacity:1"/><path d="M432.878 260.75c-.782.251-1.642.287-2.482.251-1.071-.13-2.018-.454-2.538-1.201-.528-.759-.59-1.551-.358-2.387.377-.879.975-1.643 2.018-2.183.763-.41 1.583-.771 2.558-.699" style="fill:none;stroke:#000;stroke-width:1.10001;stroke-miterlimit:2;stroke-dasharray:none;stroke-opacity:1"/><path d="M434.609 261.527c.537-1.042 1.09-2.077 1.564-3.15.65-1.361 1.316-2.715 1.933-4.092M441.946 261.272a85.902 85.902 0 0 1-1.101-1.772c-.98-1.646-1.958-3.307-2.823-5.02" style="fill:none;stroke:#000;stroke-width:1.10002;stroke-miterlimit:2;stroke-dasharray:none;stroke-opacity:1"/><path d="M435.842 258.514c1.382-.074 2.764-.044 4.137-.081-1.373.037-2.755.007-4.137.081z" style="fill:#f0f;stroke:#000;stroke-width:1.10002;stroke-miterlimit:2;stroke-dasharray:none;stroke-opacity:1"/><path d="M450.003 260.982c-.594.005-1.424.002-2.134.04-.85.044-2.37.093-3.287.23-.195.115-.074-.036-.102-.158.009-.878.02-1.755.037-2.633.029-1.417-.027-2.754-.014-4.291" style="fill:none;stroke:#000;stroke-width:1.10002;stroke-miterlimit:2;stroke-dasharray:none;stroke-opacity:1"/><g style="stroke-width:1.09052"><path d="M329.632 276.888c-.609.038-1.217.076-1.824.098-1.358.053-2.7.068-4.053.09-.04-.165-.046-.33-.065-.488a18.61 18.61 0 0 1 .028-2.961c.051-1.195.036-2.39.2-3.593" style="fill:none;stroke:#000;stroke-width:1.19958;stroke-miterlimit:2;stroke-dasharray:none;stroke-opacity:1" transform="matrix(.93112 0 0 .9031 150.71 10.933)"/><path d="M327.926 273.664a15.366 15.366 0 0 0-1.019-.083 39.727 39.727 0 0 0-3.416-.105M329.754 269.787c-.531.022-1.062.045-1.598.053-1.69.041-3.362-.022-5.053.027" style="fill:none;stroke:#000;stroke-width:1.19958;stroke-miterlimit:2;stroke-dasharray:none;stroke-opacity:1" transform="matrix(.93112 0 0 .9031 150.71 10.933)"/></g><g style="stroke-width:1.09052"><path d="M335.02 277.099c.016-.917.032-1.834.024-2.75.003-1.58-.002-3.157-.067-4.728" style="fill:none;stroke:#000;stroke-width:1.19958;stroke-miterlimit:2;stroke-dasharray:none;stroke-opacity:1" transform="matrix(.93112 0 0 .9031 149.42 10.933)"/><path d="M334.417 276.667c.803.538 2.097.366 2.988.264 1.252-.144 2.492-.576 3.124-1.376.254-.322.482-.686.563-1.091.178-.905-.232-1.812-.634-2.39-.866-1.244-2.215-1.993-4.04-2.225-1.15-.145-2.341.023-3.438.43" style="fill:none;stroke:#000;stroke-width:1.19958;stroke-miterlimit:2;stroke-dasharray:none;stroke-opacity:1" transform="matrix(.93112 0 0 .9031 149.42 10.933)"/></g><path d="M413.842 337.459c-1.005-.286-2.049-1.037-2.6-1.765-.872-1.154-1.197-2.505-1.162-3.855.042-1.592.533-2.715 1.168-3.68.542-.822 1.226-1.692 2.21-2.25M473.138 337.838c.43-.11.927-.511 1.06-.607 1.571-1.136 2.3-2.857 2.45-4.44.131-1.37-.435-3.092-1.153-4.21-.754-1.175-1.67-2.13-2.645-2.687" style="fill:none;stroke:#000;stroke-width:.999993;stroke-miterlimit:2;stroke-dasharray:none;stroke-opacity:1"/><path d="M196.528 373.666c-1.13-.17-1.9-1.05-2.58-1.9-.19-.3-.41-.58-.58-.89-1.18-2.13-1.33-4.54-.88-6.9.15-.55.27-1.12.46-1.66.66-1.96 1.75-4.06 3.04-5.68.13-.16.3-.29.45-.44M202.348 369.076c-.13-.64-.24-1.3-.28-1.96-.06-1.75-.03-3.51-.03-5.27M208.038 361.026c.13.9.22 1.81.24 2.72 0 1.74.01 3.48-.02 5.22 0 .18.06.43-.17.42-.15 0-.16-.2-.25-.3-.61-.94-1.3-1.82-2.05-2.66-1.22-1.37-2.42-2.76-3.54-4.21M212.768 361.486c.73-.23 1.47-.33 2.24-.14 1.13.37 2.11 1.02 2.83 1.99.11.17.24.33.33.52.55 1.07.29 2.24-.33 3.22-.92 1.15-1.91 1.95-3.43 2.09-.21-.02-.42-.01-.62-.05-1.23-.26-1.95-1.36-2.45-2.41-.53-1.51-.72-2.77.46-4.02.93-.65 1.45-.7 2.54-.49M226.908 361.156c-.7.14-1.4.25-2.1.34-1.87.21-3.74.27-5.62.4M223.428 368.266c-.15-.6-.12-1.24-.23-1.85-.17-1.5-.36-3.01-.35-4.53M237.488 367.206c.06.42.26.78.57 1.09 1.04.79 2.17.77 3.42.62.98-.15 1.96-.35 2.64-1.13.06-.1.14-.18.18-.28.27-.69-.4-1.33-.81-1.78-1.23-1.1-2.64-1.93-4.09-2.69-.33-.23-.79-.47-1.01-.83-.4-.61.3-1.04.76-1.27 1.13-.41 2.07-.43 3.1.26M252.598 367.936c-.13.05-.26.09-.39.14-1.17.4-2.32.76-3.54.32-1.27-.49-1.97-1.17-2.1-2.59.03-1.5.28-3.08 1.45-4.13.89-.48 1.86-.75 2.85-.41M254.258 368.426c.61-1.17 1.29-2.3 1.85-3.5.73-1.46 1.4-2.97 2.3-4.34" style="fill:none;stroke:#000;stroke-width:1;stroke-miterlimit:2;stroke-dasharray:none;stroke-opacity:1"/><path d="M261.598 368.386c-.21-.45-.43-.91-.64-1.37-.99-2.13-1.97-4.26-2.86-6.44M259.198 365.136l-.49.06c-1.19.11-2.4.09-3.58.27M270.268 367.596c-.48.06-.96.11-1.44.15-1.31.14-2.62.3-3.92.45-.26.02-.13-.12-.18-.35-.1-1.11-.2-2.22-.28-3.34-.11-1.58-.13-3.16-.28-4.74M279.448 367.446c-.11.02-.22.05-.32.08-1.66.38-3.33.66-5 .9-.14.02-.28.03-.42.05-.19.03-.34.12-.35-.11-.08-.95-.12-1.9-.16-2.85-.05-1.92-.05-3.84.15-5.75" style="fill:none;stroke:#000;stroke-width:1;stroke-miterlimit:2;stroke-dasharray:none;stroke-opacity:1"/><path d="M272.698 364.306c1.29.01 2.59-.03 3.86-.21-1.27.18-2.57.22-3.86.21z" style="fill:#f0f;stroke:#000;stroke-width:1.2;stroke-miterlimit:2;stroke-dasharray:none;stroke-opacity:1"/><path d="M280.378 359.656c-.71.05-1.42.09-2.13.11-1.96.04-3.92-.09-5.88.05M283.718 368.246a27 27 0 0 1-.39-2.7c-.1-1.69-.17-3.38-.14-5.08M284.888 368.576c.64.27 1.41-.14 2.05-.21 1.01-.24 2.06-.42 2.94-.99.9-.75 1.2-1.34.98-2.54-.66-1.7-1.96-2.8-3.42-3.82-1.47-.93-2.6-1.55-4.37-1.2M297.728 372.106c1.14-.67 2.18-1.51 2.97-2.58.17-.27.35-.52.5-.79.83-1.48 1.11-3.16.9-4.84-.06-.36-.11-.73-.2-1.09-.45-1.95-1.36-3.77-2.44-5.43-.23-.31-.44-.64-.68-.94-.75-.93-1.67-1.68-2.63-2.39" style="fill:none;stroke:#000;stroke-width:1;stroke-miterlimit:2;stroke-dasharray:none;stroke-opacity:1"/><path d="M383.875 229.005c-1.516.05-3.032.08-4.548.18M390.678 231.972c-1.266.088-2.532.163-3.798.289-.391.04-.783.071-1.183.118-.125.01-.442.093-.583.049-.016-.008-.009-.023-.016-.03.346-.566.809-1.066 1.172-1.624.894-1.232 1.771-2.5 2.3-3.896.13-.437.503-1.222.082-1.62-.165-.164-.34-.163-.564-.215-1.04-.01-2.025.25-3.001.549" style="fill:none;stroke:#000;stroke-width:1;stroke-miterlimit:2"/><path d="M389.874 149.188c-.671 0-1.343-.013-2.014-.02-.57-.014-1.085-.02-1.655-.047-.515-.02-1.248.02-1.709-.258-.027-.034-.06-.061-.075-.109-.094-.325.32-1.105.367-1.43.346-1.066.678-2.137.976-3.223" style="fill:none;stroke:#000;stroke-width:.999997;stroke-miterlimit:2"/><path d="M387.71 152.472a42.523 42.523 0 0 1-.121-2.477c-.016-1.056 0-2.118.12-3.174" style="fill:none;stroke:#000;stroke-width:.999997;stroke-miterlimit:2"/><path d="M384.919 124.508c.26-.262.546-.48.874-.641.704-.324 1.317-.417 2.076-.25.668.194.99.443 1.244 1.12.018.113.049.219.06.324.037.635-.303 1.208-.721 1.637-.104.075-.195.162-.304.224-.631.386-1.402.467-2.106.28-.14-.056-.292-.1-.42-.18-.764-.442-1.055-1.288-1.092-2.141.006-.2 0-.398.03-.591.14-1.083.687-2.079 1.36-2.906.522-.536 1.111-1.145 1.864-1.301M493.129 343.682a31.1 31.1 0 0 1-2.82 1.85c-.85.52-1.8 1-2.08 2.04-.01.13-.04.26-.04.39.03.95.85 1.57 1.56 2.08.22.12.43.25.65.36 1.16.55 2.47.69 3.74.62 1.03-.24 1.66-.52 1.85-1.65-.01-1.19-.51-2.29-1.05-3.33-.81-1.44-1.79-2.75-2.81-4.05-.75-1.09-1.51-2.16-1.02-3.54.51-.87 1.04-1.25 2.08-1.1.99.31 1.77.95 2.28 1.85.5.93.89 1.92.5 2.96-.46.88-.97 1.27-1.79 1.78M508.969 343.952c-.69.32-1.38.66-1.98 1.12-.72.61-.86 1-.55 1.91.49 1.08 1.31 1.45 2.4 1.81 1.48.38 3.04.56 4.56.3.8-.23 1.15-.49.83-1.35-.41-.91-.92-1.77-1.51-2.58-.89-1-1.93-1.83-3.02-2.61-1.1-.91-2.25-1.95-2.5-3.43.02-.15.01-.32.06-.47.3-.97 1.48-1.14 2.33-1.25.52.01.86-.02 1.36.13.77.23 1.37.84 1.86 1.45.63 1.02.94 1.94.1 2.95-.74.7-1.59 1.23-2.45 1.74" style="fill:none;stroke:#000;stroke-width:1;stroke-miterlimit:2"/><path d="M386.514 98.848c-.643.302-1.3.59-1.88 1.006-.491.493-.408.633-.09 1.238.408.591.96 1.013 1.61 1.302.7.274 1.418.57 2.186.471.415-.105.864-.267 1.01-.717.11-.535-.111-.824-.374-1.288-.491-.739-1.086-1.386-1.66-2.061-.497-.655-.975-1.351-.975-2.21.104-.837.395-1.188 1.21-1.378.92-.057 1.307.077 1.446 1.069-.014.148-.006.296-.035.443-.152.823-.72 1.45-1.293 2.02" style="fill:none;stroke:#000;stroke-width:.999998;stroke-miterlimit:2"/><path d="M603.434 348.003c-.013-.332.001-.14-.013-.573-.035-1.668-.078-3.337-.044-5 .035-1.643-.101-3.284.042-4.918" style="fill:none;stroke:#000;stroke-width:1;stroke-miterlimit:2"/><path d="M612.558 347.075c-.877-.069-1.76-.004-2.639.02-.978.064-1.98.151-2.897.52-.538.268.045-.34.17-.497 1.187-1.461 2.143-3.106 2.888-4.834.395-.986.753-2.066.506-3.136-.092-.512-.59-.899-1.11-.822-.391.034-.754.24-1.118.384-.906.414-1.743.97-2.497 1.62" style="fill:none;stroke:#000;stroke-width:.999997;stroke-miterlimit:2"/><path d="M391.218 176.866h-1.928c-1.023 0-2.039 0-3.063.024-.032.008-.496.04-.512.008-.008-.016.016-.024.024-.04.296-.442.664-.835.96-1.27.608-.81 1.216-1.646 1.568-2.61.192-.522.664-1.735.112-2.185-.088-.072-.2-.105-.304-.153-.128-.024-.256-.056-.384-.056-.664 0-1.384.354-1.984.635" style="fill:none;stroke:#000;stroke-width:.999998;stroke-miterlimit:2"/><g style="stroke-width:.989524"><path d="M378.838 91.911a159.673 159.673 0 0 0-.351-3.845 41.837 41.837 0 0 1-.149-4.08M383.34 85.006c.904-.179 1.669-.17 2.394.475.11.11.234.218.336.335.538.646.842 1.456 1.06 2.258.024.147.063.303.071.459.055.856-.406 1.58-1.03 2.125-1.115.817-2.122 1.261-3.542 1.09-.187-.055-.374-.094-.554-.164-.912-.358-1.498-1.105-1.677-2.055 0-.21-.023-.42-.016-.623a5.32 5.32 0 0 1 .991-2.693c.117-.171.273-.311.414-.467.624-.56 1.334-1.09 2.208-1.144" style="fill:none;stroke:#000;stroke-width:.989521;stroke-miterlimit:2" transform="matrix(1.0109 0 0 1.01027 -2.16 -15.14)"/></g><g style="stroke-width:.979391"><path d="M378.6 66.718V59.153M387.497 66.235h-2.122c-1.127 0-2.245 0-3.372.026-.035.01-.546.044-.564.01-.009-.018.018-.027.027-.045.326-.483.73-.914 1.056-1.39.67-.888 1.339-1.803 1.726-2.858.212-.572.731-1.9.124-2.393-.097-.08-.22-.115-.335-.167-.141-.027-.282-.062-.423-.062-.73 0-1.523.387-2.183.695" style="fill:none;stroke:#000;stroke-width:.979391;stroke-miterlimit:2" transform="matrix(1.02112 0 0 1.02096 -6.078 -15.556)"/></g><path d="M101.133 47.973c3.422 0 6.841.056 10.257.154M406.403 48.127a357.306 357.306 0 0 0-10.257-.154" style="fill:none;stroke:#000;stroke-width:1;stroke-miterlimit:2;stroke-dasharray:none"/><path d="M94.096 178.34c.001-.225-.003-.453-.004-.67l-.013-1.845c-.005-1.5-.01-3.01.007-4.512" style="fill:none;stroke:#000;stroke-width:.999993;stroke-miterlimit:2;stroke-dasharray:none"/><path d="M-148.916 141.207c.477.416 1.216.867 1.808 1.05 1.247.384 2.529.53 3.797-.014.911-.689.917-1.686.372-2.595-.445-.745-1.619-1.627-2.955-1.934a4.243 4.243 0 0 0-.87-.14c-.596-.046-.16-.078.134-.292 1.047-.555 2.215-1.098 2.756-2.2.066-.132.1-.392.078-.535-.142-.924-.936-.968-1.504-.95-1.058.032-2.501.515-3.696 1.306" style="fill:none;stroke:#000;stroke-width:1;stroke-miterlimit:2;stroke-dasharray:none"/><g style="stroke-width:.272987;stroke-dasharray:none"><path d="M23.281 30.5c-.25.071-.52.058-.776.071-.235-.014-.683-.004-.744-.313-.008-.043 0-.087 0-.13.064-.306.195-.584.388-.835" style="fill:none;stroke:#000;stroke-width:.272987;stroke-miterlimit:2;stroke-dasharray:none" transform="matrix(3.64506 0 0 3.68139 -205.284 .023)"/><path d="M22.685 31.836c-.003-.33.02-.634.066-.947.06-.41.127-.828.275-1.216" style="fill:none;stroke:#000;stroke-width:.272987;stroke-miterlimit:2;stroke-dasharray:none" transform="matrix(3.64506 0 0 3.68139 -205.284 .023)"/></g><g style="stroke-width:.274498;stroke-dasharray:none"><path d="M22.907 23.587h-.13a6.452 6.452 0 0 1-1.008-.082" style="fill:none;stroke:#000;stroke-width:.274498;stroke-miterlimit:2;stroke-dasharray:none" transform="matrix(3.63379 0 0 3.65227 -204.245 -1.61)"/><path d="M21.4 25.35c.198.148.346.197.48.243.31.105.685.14.986-.036.223-.13.211-.406.075-.61-.246-.304-.593-.32-.963-.427-.06-.017-.117-.034-.177-.048-.12-.034-.34-.045-.357-.202.05-.196.292-.647.406-.81" style="fill:none;stroke:#000;stroke-width:.274498;stroke-miterlimit:2;stroke-dasharray:none" transform="matrix(3.63379 0 0 3.65227 -204.245 -1.61)"/></g><path d="M-130.739 63.024c.624-.576 1.444-1.089 2.284-1.202.857-.117 1.753.003 2.386.657.387.4.58 1.321.27 1.799-.693 1.065-1.873 1.653-2.861 1.695-.659.027-1.808-.275-2.368-.801-.876-.82-.969-2.238-.733-3.4.32-1.578 1.434-2.861 2.679-3.803a9.977 9.977 0 0 1 2.918-1.508" style="fill:none;stroke:#000;stroke-width:1;stroke-miterlimit:2;stroke-dasharray:none"/><g style="stroke-width:1.20764"><path d="M67.401 243.523c-.745.017-.35.005-1.194.022-1.556.03-3.134-.038-4.674.232M70.139 247.998c-.054-.719-.326-2.734-.246-3.623-.131-2.034-.21-4.053-.33-6.074" style="fill:none;stroke:#000;stroke-width:1.20764;stroke-miterlimit:2;stroke-dasharray:none" transform="matrix(.82304 0 0 .83311 37.325 26.342)"/></g><path d="M134.514 219.592c-.177-1.045-.183-2.134-.224-3.206-.03-1.38-.018-2.752-.077-4.133" style="fill:none;stroke:#000;stroke-width:.999989;stroke-miterlimit:2;stroke-dasharray:none"/><path d="M167.184 218.633a18.192 18.192 0 0 1-4.151.408c-.2 0-1.257.07-1.447.01-.045-.017-.017-.08-.017-.106.217-.558.833-1.098 1.49-1.838.795-.896 1.628-1.833 2.044-2.966.172-1.036-.235-.974-1.149-.85a18.607 18.607 0 0 0-3.925 1.062" style="fill:none;stroke:#000;stroke-width:.999981;stroke-miterlimit:2;stroke-dasharray:none"/><path d="M190.831 217.794c.508.401 1.235.458 1.848.55.818-.036 1.622-.184 2.116-.916.035-.085.091-.17.12-.26.197-.628-.353-1.12-.776-1.473a8.644 8.644 0 0 0-2.532-1.07c-.049-.021-.106-.028-.148-.064-.07-.077.063-.197.085-.225.218-.225.472-.416.634-.69.346-.62.501-1.204-.387-1.352-.868.042-1.7.281-2.44.76M223.09 215.346c-.182.035-.553.026-.634.044-1.169.027-2.41.042-3.462-.503-.301-.156-.605-.379-.75-.828-.248-.777.229-1.749.737-2.518" style="fill:none;stroke:#000;stroke-width:1;stroke-miterlimit:2;stroke-dasharray:none"/><path d="M222.366 220.008c0-.173-.038-.318-.057-.491-.063-.573-.129-1.154-.175-1.729-.124-1.545-.21-3.112-.078-4.659" style="fill:none;stroke:#000;stroke-width:1.00001;stroke-miterlimit:2;stroke-dasharray:none"/><g style="stroke-width:1.20762"><path d="M48.99 233.653c-.36.077-.71.11-1.07.11-1.648.043-3.329.295-4.944-.044M51.93 237.56c-.086-.905-.043-.414-.141-1.473-.251-2.567-.404-5.144-.513-7.72" style="fill:none;stroke:#000;stroke-width:1.20762;stroke-miterlimit:2;stroke-dasharray:none" transform="matrix(.82319 0 0 .83302 34.065 24.664)"/></g><g style="stroke-width:1.21439"><path d="M19.599 233.963c-.568 0-1.135.013-1.703.02a67.523 67.523 0 0 0-4.213.285M28.585 236.79c-.504-.039-1.32-.071-1.811-.017a48.298 48.298 0 0 0-4.377.153c-.021 0-.447.065-.534-.013-.175-.163.742-1.354.818-1.474 1.048-1.583 1.608-2.14 2.592-3.78.538-.896.65-1.735.64-1.942-.088-1.06-1.56-.798-2.216-.732-1.142.116-2.294.568-3.104 1.182" style="fill:none;stroke:#000;stroke-width:1.21439;stroke-miterlimit:2;stroke-dasharray:none" transform="matrix(.83328 0 0 .81373 29.198 29.15)"/></g><path d="M95.871 152.356c-.68.026-1.35.061-2.018.08-1.003.02-2.02.082-3.025.023-.234-.138.403-.704.465-.857.798-1.09 1.588-2.194 2.226-3.348.167-.353.84-1.436.395-1.78-.175-.134-.453-.097-.659-.099a11.58 11.58 0 0 0-2.98.535" style="fill:none;stroke:#000;stroke-width:.999989;stroke-miterlimit:2;stroke-dasharray:none"/><path d="M88.295 121.4c.936-.602 1.954-1.024 3.06-1.197.482-.004 1.316.047 1.293.707-.004.12-.048.235-.072.353-.426.926-1.302 1.47-2.154 1.984-.24.187-.608.241-.103.247.35.005.367.02.747.072 1.144.194 1.964.76 2.608 1.684.347.805.536 1.303-.193 1.919-1.043.506-2.237.388-3.312.132a4.298 4.298 0 0 1-1.48-.707" style="fill:none;stroke:#000;stroke-width:.999972;stroke-miterlimit:2"/><path d="M90.518 94.627a6.198 6.198 0 0 0-1.028 2.592c.01.13-.005.264.028.39.245.927 1.612.94 2.325.9.784-.044 1.606-.18 2.356-.445" style="fill:none;stroke:#000;stroke-width:.999996;stroke-miterlimit:2"/><path d="M93.458 95.955c-.31 1.091-.486 2.55-.575 3.684-.068.868-.057 2.137-.018 2.912" style="fill:#e5f6ff;stroke:#000;stroke-width:.999977;stroke-miterlimit:2"/><path d="M89.476 70.499c1.056-.03 2.122-.03 3.183-.018l.41.007" style="fill:#e5f6ff;stroke:#000;stroke-width:.999999;stroke-miterlimit:2"/><path d="m93.07 70.487-.411-.006a79.5 79.5 0 0 0-3.183.017" style="fill:#e5f6ff;stroke:#000;stroke-width:.999986;stroke-miterlimit:2"/><path d="M89.792 71.145c-.325.521-1.083 1.81-1.2 2.425.087.483.762.48 1.14.558.184.037.367.077.55.116 1.158.265 2.164.642 2.978 1.537.452.605.561.99-.052 1.495-.94.535-2.345.412-3.321.142-.423-.117-1.141-.264-1.653-.6" style="fill:none;stroke:#000;stroke-width:.999962;stroke-miterlimit:2"/><path d="M92.837 43.85c-1.708.697-3.284 1.941-4.044 3.672-.489 1.177-.41 2.656.42 3.66.384.462.992.57 1.595.576 1.358.015 2.582-1.003 2.819-1.784.117-.387.105-.92-.276-1.231-.522-.427-1.254-.379-1.879-.281-.769.108-1.513.443-2.049 1.021" style="fill:none;stroke:#000;stroke-width:1;stroke-miterlimit:2"/><g style="stroke-width:1.20764"><path d="M67.401 243.523c-.745.017-.35.005-1.194.022-1.556.03-3.134-.038-4.674.232M70.139 247.998c-.054-.719-.326-2.734-.246-3.623-.131-2.034-.21-4.053-.33-6.074" style="fill:none;stroke:#000;stroke-width:1.20764;stroke-miterlimit:2;stroke-dasharray:none" transform="matrix(.82304 0 0 .83311 279.07 141.306)"/></g><path d="M317.755 61.514c-.089.015-.04.006-.147.023-.329.045-.657.074-.985.114-.095.009-.226.044-.322.03-.012-.001.062-.043.016-.028.115-.21.231-.421.344-.635.21-.382.421-.76.597-1.162.107-.291.135-.424-.22-.474-.33-.024-.671-.013-.98.126" style="fill:none;stroke:#000;stroke-width:.264583;stroke-miterlimit:2"/><path d="M429.527 219.592c-.177-1.045-.183-2.134-.224-3.206-.03-1.38-.018-2.752-.077-4.133" style="fill:none;stroke:#000;stroke-width:.999989;stroke-miterlimit:2;stroke-dasharray:none"/><path d="M462.197 218.633a18.192 18.192 0 0 1-4.151.408c-.2 0-1.257.07-1.447.01-.045-.017-.017-.08-.017-.106.217-.558.833-1.098 1.49-1.838.795-.896 1.628-1.833 2.044-2.966.172-1.036-.235-.974-1.149-.85a18.607 18.607 0 0 0-3.925 1.062" style="fill:none;stroke:#000;stroke-width:.999981;stroke-miterlimit:2;stroke-dasharray:none"/><path d="M485.844 217.794c.508.401 1.234.458 1.848.55.818-.036 1.622-.184 2.116-.916.035-.085.091-.17.12-.26.197-.628-.353-1.12-.776-1.473a8.644 8.644 0 0 0-2.532-1.07c-.05-.021-.106-.028-.148-.064-.07-.077.063-.197.085-.225.218-.225.472-.416.634-.69.346-.62.501-1.204-.388-1.352-.867.042-1.7.281-2.44.76M518.103 215.346c-.182.035-.553.026-.634.044-1.169.027-2.41.042-3.462-.503-.301-.156-.606-.379-.75-.828-.248-.777.229-1.749.737-2.518" style="fill:none;stroke:#000;stroke-width:1;stroke-miterlimit:2;stroke-dasharray:none"/><path d="M517.379 220.008c0-.173-.038-.318-.057-.491-.063-.573-.129-1.154-.175-1.729-.124-1.545-.21-3.112-.078-4.659" style="fill:none;stroke:#000;stroke-width:1.00001;stroke-miterlimit:2;stroke-dasharray:none"/><g style="stroke-width:1.20762"><path d="M48.99 233.653c-.36.077-.71.11-1.07.11-1.648.043-3.329.295-4.944-.044M51.93 237.56c-.086-.905-.043-.414-.141-1.473-.251-2.567-.404-5.144-.513-7.72" style="fill:none;stroke:#000;stroke-width:1.20762;stroke-miterlimit:2;stroke-dasharray:none" transform="matrix(.82319 0 0 .83302 329.078 24.664)"/></g><g style="stroke-width:1.21439"><path d="M19.599 233.963c-.568 0-1.135.013-1.703.02a67.523 67.523 0 0 0-4.213.285M28.585 236.79c-.504-.039-1.32-.071-1.811-.017a48.298 48.298 0 0 0-4.377.153c-.021 0-.447.065-.534-.013-.175-.163.742-1.354.818-1.474 1.048-1.583 1.608-2.14 2.592-3.78.538-.896.65-1.735.64-1.942-.088-1.06-1.56-.798-2.216-.732-1.142.116-2.294.568-3.104 1.182" style="fill:none;stroke:#000;stroke-width:1.21439;stroke-miterlimit:2;stroke-dasharray:none" transform="matrix(.83328 0 0 .81373 324.21 29.15)"/></g><path d="M290.614 393.414h9.877v8.253h-9.877zM359.54 124.748c-.017.121-.028.243-.052.363-.216 1.075-.594 2.581-.83 3.522-.306 1.216-.61 2.432-.933 3.643-.802 3.008-2.047 7.403-2.875 10.349a3233.515 3233.515 0 0 0-6.58 23.448l-.455 1.674.456-1.674c2.16-7.825 4.36-15.64 6.58-23.448.827-2.946 2.072-7.34 2.874-10.349.323-1.211.627-2.427.933-3.643.236-.94.614-2.447.83-3.522.024-.12.036-.242.054-.363h-.001z" style="fill:#f0f;stroke:none;stroke-width:1.1;stroke-miterlimit:2;stroke-dasharray:none;stroke-opacity:1"/><path d="M256.31 36.342c-1.895 3.972-5.733 6.724-8.367 10.155-6.674 7.354-13.572 14.496-20.366 21.734-7.242 7.593-14.522 15.173-21.54 22.978-6.34 6.95-12.713 13.854-19.183 20.692-6.778 6.997-13.738 13.816-20.644 20.712-7.848 7.694-15.631 15.462-23.415 23.23-8.282 8.147-16.685 16.179-24.828 24.47-7.372 7.615-14.76 15.212-22.09 22.861a862.419 862.419 0 0 0-10.426 10.908M551.322 36.342c-1.894 3.972-5.732 6.724-8.366 10.155-6.674 7.354-13.572 14.496-20.366 21.734-7.242 7.593-14.522 15.173-21.54 22.978-6.34 6.95-12.713 13.854-19.183 20.692-6.778 6.997-13.738 13.816-20.644 20.712-7.848 7.694-15.631 15.462-23.415 23.23-8.282 8.147-16.685 16.179-24.828 24.47-7.372 7.615-14.76 15.212-22.09 22.861a862.398 862.398 0 0 0-10.426 10.908" style="fill:none;stroke:#fca;stroke-width:5;stroke-miterlimit:2;stroke-dasharray:none;stroke-opacity:1"/><path d="M251.277 132.256c-4.556.417-9.125.359-13.687.468" style="fill:none;stroke:#000;stroke-width:.999999;stroke-miterlimit:2;stroke-dasharray:none"/><path d="M251.242 77.389c-1.15.019-2.302.089-3.461.133-2.093.077-4.185.129-6.282.146-.608.003-2.779-.003-3.498.054-.343.029-.689.11-1.025.164M250.284 83.214c-.827-.608-.388-.283-1.326-.985-1.584-1.209-3.373-2.73-4.905-4.015-.414-.317-.543-.334-.75.12-.559.908-.926 1.332-1.649 2.112-1.687 1.765-2.747 2.753-4.555 4.39" style="fill:none;stroke:#000;stroke-width:1;stroke-miterlimit:2;stroke-dasharray:none"/><path d="M244.61 132.852a23.573 23.573 0 0 1-.453-4.78c-.035-8.925-.31-17.85-.378-26.778-.054-8.094-.325-16.205.015-24.286" style="fill:none;stroke:#000;stroke-width:.999999;stroke-miterlimit:2;stroke-dasharray:none"/><path d="M190.744 177.85c-.883.104-1.684.37-2.41.865-.19.168-.388.32-.561.504-.603.672-.941 1.552-.718 2.431a.633.633 0 0 0 .057.136c.01.01.01-.015.01-.024a.613.613 0 0 0-.026-.168c-.09-.44-.28-.856-.42-1.28-.422-1.143-.826-2.248-1.346-3.352M196.72 177.989c.093.215.05.088.122.367.157.968.214 1.952-.265 2.831-.122.136-.222.296-.365.408-.68.496-1.695.408-2.396.032-.208-.112-.386-.272-.58-.408-.15-.184-.329-.343-.465-.551-.579-.888-.55-2.016-.157-2.975M203.723 182.054c.264-.392.495-.8.71-1.216.339-.76.594-1.575.157-2.35-.074-.113-.148-.233-.24-.329-.71-.68-1.807-.344-2.591-.015-.231.12-.47.224-.694.368-.99.632-1.56 1.487-1.642 2.631 0 .2-.041.512.041.712.009.015 0-.04 0-.056-.009-.16-.016-.52-.025-.64a154.608 154.608 0 0 1-.09-3.383" style="fill:none;stroke:#000;stroke-width:1.2;stroke-miterlimit:2;stroke-dasharray:none"/><g style="stroke-width:1.20003;stroke-dasharray:none"><path d="M241.805 121.673c-.14.317-.058.673-.01 1.001.193.874.678 1.683 1.305 2.362a4.002 4.002 0 0 0 2.878 1.2c.16.032.564-.023.554-.042-1.505.204-3.033.29-4.515.616" style="fill:none;stroke:#000;stroke-width:1.20003;stroke-miterlimit:2;stroke-dasharray:none" transform="matrix(1.0001 0 0 .99986 29.015 -12.328)"/><g style="stroke-width:1.60861;stroke-dasharray:none"><path d="M216.17 182.873c.785.568.72 1.277.174 2.03-.131.045-.262.121-.404.143-.742.11-1.004-.644-.84-1.245M215.94 194.63c-.12-.656-.153-1.31-.208-1.977-.076-1.638-.11-3.287.012-4.936" style="fill:none;stroke:#000;stroke-width:1.60861;stroke-miterlimit:2;stroke-dasharray:none" transform="matrix(0 -.70732 .78676 0 122.791 259.91)"/></g><path d="M245.493 117.604c.313-.367.484-.869.626-1.378.148-.892.225-1.911-.165-2.728-.047-.06-.083-.135-.142-.18-.313-.292-.661.187-.862.442-.609.997-1.034 2.158-1.737 3.058-.082.037-.153.104-.242.127-.502.12-.94-.413-1.105-.862-.242-.653-.259-1.7-.035-2.39M245.63 107.035c.405.443.506 1.101.622 1.666.072.873-.036 1.717-.817 2.254-.867.436-1.503.429-2.392.013-.708-.43-1.308-1.023-1.358-1.895.014-.644.202-1.138.78-1.474.065-.013.13-.05.195-.043.42.014.687.823.824 1.116.239.858.296 1.767-.058 2.604" style="fill:none;stroke:#000;stroke-width:1.20003;stroke-miterlimit:2;stroke-dasharray:none" transform="matrix(1.0001 0 0 .99986 29.015 -12.328)"/></g><path d="M169.382 163.46c-.197-1.358-.173-2.458-.186-3.678-.043-3.799-.14-7.6.1-11.403" style="fill:none;stroke:#000;stroke-width:.999996;stroke-miterlimit:2;stroke-dasharray:none"/><path d="M222.382 155.319c-5.944.57-14.085.244-20.773.33-11.13.143-22.464.016-32.693-.075" style="fill:none;stroke:#000;stroke-width:.999996;stroke-miterlimit:2;stroke-dasharray:none"/><path d="M221.593 162.743c.183-1.893.099-3.797.127-5.696.018-4.082-.062-5.244-.215-9.327" style="fill:none;stroke:#000;stroke-width:.999995;stroke-miterlimit:2;stroke-dasharray:none"/><path d="M215.864 162.527a9.677 9.677 0 0 1 1.149-2.284c1.196-1.741 2.776-3.75 4.601-4.41.293.038.833.145.388-.214-2.011-2.546-3.26-3.767-4.87-5.909-.298-.435-.994-1.34-1.26-1.793" style="fill:none;stroke:#000;stroke-width:.999995;stroke-miterlimit:2;stroke-dasharray:none"/><path d="M221.637 167.065c.568 1.711-.922 3.116-2.537 3.293-4.798 1.148-9.79.821-14.68.758-2.618.003-5.321-.51-7.881.203-1.393.025-1.778 2.965-.191 2.124.665-2.276-2.55-2.76-4.163-2.877-6.552-.313-13.116.836-19.659.147-1.464-.301-4.476-.618-3.747-2.847M253.837 77.283c2.338-.508 4.656 1.422 4.82 3.771.925 4.905-.292 9.896.297 14.815.555 3.274 2.032 6.799 5.024 8.514-1.523-.044-3.235.805-3.467 2.468-.424 3.035-.16 6.119.059 9.16.252 3.49.34 7.125-.023 10.469-.206 1.907-.74 4.631-2.579 5.324-.15.056-1.277.226-1.77.143" style="fill:none;stroke:#000;stroke-width:1.2;stroke-miterlimit:2;stroke-dasharray:none;stroke-opacity:1"/><path d="M222.267 116.963a21.338 21.338 0 0 0-.001 1.776c.009.29.01.582.014.873l-1.283-.017c.012-.278.007-.56.01-.797-.016-.61-.033-1.218-.042-1.828z" style="display:inline;fill:#000;fill-opacity:1;stroke:none;stroke-width:.900001;stroke-miterlimit:2;stroke-dasharray:none"/><path d="M222.206 121.298c-.024.183-.062.38-.042.561a4.95 4.95 0 0 1-.007 1.194c-.032.285.018.571.006.859v.12l-1.22.004c.021-.1.017-.277-.018-.415.046-.274 0-.434.023-.712.022-.281.043-.564 0-.844-.034-.235-.005-.469-.042-.704z" style="display:inline;fill:#000;fill-opacity:1;stroke:none;stroke-width:.899993;stroke-miterlimit:2;stroke-dasharray:none"/><path d="M169.86 130.565c-.017.19 0 .005-.022.351-.013.246-.022.45-.025.618 0 .383.015.648.047 1.027.008.079.014.157.028.234l-1.336.13c-.018-.09-.018-.2-.021-.282-.043-.35-.008-.655-.03-1.07-.007-.213.01-.57.01-.785 0-.087.007-.174 0-.26l1.348.037z" style="display:inline;fill:#000;fill-opacity:1;stroke:none;stroke-width:.9;stroke-miterlimit:2;stroke-dasharray:none"/><path d="M222.213 130.825c.014.37 0 .906.018 1.554 0 .097 0 .195.006.292l-1.281.04c0-.252-.015-.659-.022-.911-.014-.55-.023-1.033.011-1.825l1.27.091c-.001.23.006.6 0 .759z" style="display:inline;fill:#000;fill-opacity:1;stroke:none;stroke-width:.900001;stroke-miterlimit:2;stroke-dasharray:none"/><path d="M169.869 145.885c.04-.735.026-1.153.013-1.784-.008-.33-.027-.286-.033-.57l-1.338.099c.034.341.025.299.045.55.028.604.007 1.068-.044 1.669l1.356.036z" style="display:inline;fill:#000;fill-opacity:1;stroke:none;stroke-width:.9;stroke-miterlimit:2;stroke-dasharray:none"/><path d="M222.187 139.192c.011.491-.006.868-.006 1.467.006.171-.01.667.027.832l-1.265-.06c-.024-.26.033-.67.026-.892.01-.661-.055-.985-.033-1.645l1.237-.015zM222.165 143.178c.046.7.034.964.048 1.587.006.212-.058.705-.047.916l-1.233-.01c.01-.276.029-.554.045-.824 0-.603-.054-1.03-.056-1.633l1.242-.036z" style="display:inline;fill:#000;fill-opacity:1;stroke:none;stroke-width:.900001;stroke-miterlimit:2;stroke-dasharray:none"/><path d="M169.878 139.54c.007.495-.028 1.037-.037 1.641 0 .173-.032.576 0 .744l-1.313.03c-.02-.263-.015-.53-.02-.756.021-.666.034-1.333.069-1.998l1.29.023z" style="display:inline;fill:#000;fill-opacity:1;stroke:none;stroke-width:.9;stroke-miterlimit:2;stroke-dasharray:none"/><path d="M222.225 134.47c-.026.855-.042.912-.011 1.572.02.412.01.834.03 1.127l-1.312.024c0-.335-.026-.94-.026-1.237-.034-.962.04-.595.013-1.558z" style="display:inline;fill:#000;fill-opacity:1;stroke:none;stroke-width:.900001;stroke-miterlimit:2;stroke-dasharray:none"/><path d="M169.86 134.858c.009.561-.016 1.176-.018 1.86.007.195-.024.652.011.842l-1.313.065c-.023-.298-.02-.601-.028-.856.013-.755.017-1.51.045-2.265l1.29-.004z" style="display:inline;fill:#000;fill-opacity:1;stroke:none;stroke-width:.9;stroke-miterlimit:2;stroke-dasharray:none"/><path d="M222.222 125.748c-.09.188-.076 1.395-.045 1.665.02.314.01.635.03.858l-1.311.018c0-.254-.029-1.197-.014-1.423.02-.302-.035-.662-.015-1.144zM222.242 97.054c-.021-.329-.03-.66-.024-.967.006-.499.009-.388.018-.887-.033-.192.024-.79.037-.697l-1.303-.056c0 .145-.01.667 0 .736.047.407.024.374 0 .787-.023.372.011.673-.028 1.04l1.303.044zM222.235 101.634c0-.377-.01-.9-.032-1.276a7.898 7.898 0 0 1 .025-1.142c.007-.084-.074-.393-.059-.476l-1.185.013c0 .109-.021.373-.02.466-.007.46-.007.79.005 1.25.006.397-.004.757.025 1.138.438-.031.86.068 1.24.027zM222.28 115.105c-.045-.512-.012-.881-.024-1.396-.01-.395-.03-.938-.051-1.332l-1.3.143c.083.412.01.834.069 1.244.017.554-.016.959.006 1.513l1.299-.172zM222.262 106.216c.013-.394-.002-.694.001-1.089.041-.348 0-.753-.018-1.011 0-.092-.053-.525-.073-.786l-1.195.052c.036.15-.023.784-.014.912.039.307.027.264.03.576-.01.296.019 1.081-.045 1.364.437.12.92-.125 1.314-.018zM222.28 110.573c0-.01-.006-.017-.008-.027-.006-.055-.006-.11-.01-.165-.005-.08-.012-.16-.016-.24-.014-.289-.013-.58-.015-.87a13.31 13.31 0 0 1 .028-1.259l-1.253-.058c.015.436.031.872.028 1.309-.006.477-.016.953-.052 1.427l1.297-.117zM220.982 92.76c-.056-.855-.05-1.342-.051-2.08 0-.384.018-.334.019-.665l1.283.072c-.025.4-.017.35-.031.645-.014.703.02 1.244.078 1.944l-1.298.085zM222.236 83.952c-.016-.2 0-.005-.02-.368-.013-.257-.021-.47-.025-.647 0-.4.015-.678.046-1.075.007-.082.013-.164.026-.245l-1.28-.135c-.017.094-.017.208-.02.295-.041.367-.007.685-.03 1.119-.005.224.012.598.01.822 0 .09.007.182 0 .272l1.293-.038zM222.204 88.269c.006-.563-.027-1.273 0-1.818a5.45 5.45 0 0 0-.01-.74l-1.25-.035c.031.104-.034.647-.027.75-.01.553-.007 1.188.016 1.903zM222.19 79.735c-.04-.359-.023-.73-.02-1.092.008-.41 0-.819 0-1.228 0-.122.001-.244.014-.365 0 .041.006-.276 0-.236l-1.295.028a3.37 3.37 0 0 0-.011.184c.007.165.013.33.03.495.025.358.01.717.006 1.077-.009.4.016.8-.02 1.198l1.299-.061zM235.79 132.135c-.803.028-1.609.028-2.414.018-.389-.007-.21-.003-.536-.012v1.284c.326-.01.147-.005.536-.013.805-.01 1.61-.01 2.415.019v-1.296zM231.445 132.212c-.708.032-1.899-.004-2.605-.04l-.113 1.26c.78.026 2.052.055 2.718.078v-1.298zM223.101 132.097c-.877.031-1.436.046-2.314.02l-.74-.022-.092 1.247.776.01c.897.016 1.474.007 2.37.043zM205.347 132.143a49.38 49.38 0 0 1-1.99.022c-.282.009-.563-.013-.843-.034l-.176 1.272c.355.024.717.016 1.02.021a47.258 47.258 0 0 1 1.989.022v-1.303zM227.332 132.17c-.636.034-1.271.013-1.905-.026-.247-.018-.63-.016-.874-.045l-.057 1.278.803.029c.677.025 1.354.049 2.033.062v-1.298zM209.681 132.145c-.662.083-1.289.065-1.96.045-.359-.017-.668.022-.98.002l.11 1.28.567.01c.737.005 1.474 0 2.209-.04-.05-.433.104-.865.054-1.297zM218.56 132.111c-.874.048-1.72.041-2.613.019-.091-.015-.519.013-.61-.002l-.048 1.202.361.04c.966.085 1.937.011 2.91.036v-1.295zM213.828 132.127a16.52 16.52 0 0 1-1.748.015c-.102-.009-.88.025-.983.016-.003.402-.008.804-.01 1.207.11.007.714.013.825.02.823.043 1.157.069 1.982.027-.045-.436-.054-.887-.066-1.285zM200.896 132.135c-.804.028-1.61.028-2.414.018-.39-.007-.21-.003-.536-.012v1.284c.325-.01.147-.005.536-.013.805-.01 1.61-.01 2.414.019v-1.296zM196.551 132.212c-.708.032-1.899-.004-2.605-.04l-.114 1.26c.78.026 2.052.055 2.719.078v-1.298zM188.207 132.097c-.878.031-1.437.046-2.315.02l-.74-.022-.092 1.247.777.01c.897.016 1.474.007 2.37.043zM170.452 132.143a49.38 49.38 0 0 1-1.989.022c-.283.009-.563-.013-.843-.034l-.176 1.272c.355.024.717.016 1.02.021a47.258 47.258 0 0 1 1.988.022v-1.303zM192.437 132.17c-.635.034-1.27.013-1.905-.026-.246-.018-.63-.016-.874-.045l-.056 1.278.802.029c.678.025 1.355.049 2.033.062v-1.298zM174.787 132.145c-.663.083-1.29.065-1.961.045-.358-.017-.667.022-.979.002l.11 1.28.567.01c.737.005 1.473 0 2.208-.04-.05-.433.105-.865.055-1.297zM183.665 132.111c-.873.048-1.72.041-2.613.019-.09-.015-.518.013-.61-.002l-.047 1.202.361.04c.965.085 1.937.011 2.91.036v-1.295zM178.934 132.127a16.52 16.52 0 0 1-1.748.015c-.102-.009-.88.025-.983.016l-.011 1.207c.111.007.714.013.825.02.824.043 1.158.069 1.983.027-.046-.436-.054-.887-.066-1.285z" style="display:inline;fill:#000;fill-opacity:1;stroke:none;stroke-width:.900001;stroke-miterlimit:2;stroke-dasharray:none"/><path d="M225.048 76.942a28.084 28.084 0 0 1-2.875.113l.065 1.308c.249-.012.498-.024.747-.033.692-.027 1.385-.043 2.077-.07l-.014-1.319zM234.614 76.983c-.682.004-1.378.052-2.057-.005a20.4 20.4 0 0 1-1.155.013l.116 1.266h.258c.081 0 .567.01.648.015.73.017 1.46-.015 2.19.018v-1.306zM229.78 76.951a50.164 50.164 0 0 1-2.925-.001l-.075-.003v1.33l.075-.003a50.32 50.32 0 0 1 2.925-.001V76.95z" style="display:inline;fill:#000;fill-opacity:1;stroke:none;stroke-width:.900002;stroke-miterlimit:2;stroke-dasharray:none"/><path d="M546.29 132.256c-4.556.417-9.125.359-13.687.468" style="fill:none;stroke:#000;stroke-width:.999999;stroke-miterlimit:2;stroke-dasharray:none"/><path d="M546.255 77.389c-1.15.019-2.302.089-3.461.133-2.093.077-4.185.129-6.282.146-.608.003-2.78-.003-3.498.054-.343.029-.689.11-1.025.164M545.296 83.214c-.826-.608-.387-.283-1.325-.985-1.584-1.209-3.373-2.73-4.905-4.015-.414-.317-.543-.334-.75.12-.559.908-.926 1.332-1.649 2.112-1.687 1.765-2.747 2.753-4.555 4.39" style="fill:none;stroke:#000;stroke-width:1;stroke-miterlimit:2;stroke-dasharray:none"/><path d="M539.624 132.852a23.573 23.573 0 0 1-.454-4.78c-.035-8.925-.31-17.85-.378-26.778-.054-8.094-.325-16.205.015-24.286" style="fill:none;stroke:#000;stroke-width:.999999;stroke-miterlimit:2;stroke-dasharray:none"/><path d="M485.757 177.85c-.883.104-1.684.37-2.41.865-.19.168-.388.32-.561.504-.603.672-.941 1.552-.718 2.431a.633.633 0 0 0 .057.136c.01.01.01-.015.01-.024a.613.613 0 0 0-.026-.168c-.09-.44-.28-.856-.42-1.28-.422-1.143-.826-2.248-1.346-3.352M491.733 177.989c.093.215.05.088.122.367.157.968.214 1.952-.265 2.831-.122.136-.222.296-.365.408-.68.496-1.695.408-2.396.032-.208-.112-.387-.272-.58-.408-.15-.184-.329-.343-.465-.551-.579-.888-.55-2.016-.157-2.975M498.736 182.054c.264-.392.495-.8.71-1.216.338-.76.594-1.575.157-2.35-.074-.113-.149-.233-.24-.329-.71-.68-1.807-.344-2.591-.015-.231.12-.47.224-.694.368-.99.632-1.56 1.487-1.642 2.631 0 .2-.041.512.04.712.01.015 0-.04 0-.056-.008-.16-.015-.52-.024-.64a154.608 154.608 0 0 1-.09-3.383" style="fill:none;stroke:#000;stroke-width:1.2;stroke-miterlimit:2;stroke-dasharray:none"/><g style="stroke-width:1.20003;stroke-dasharray:none"><path d="M241.805 121.673c-.14.317-.058.673-.01 1.001.193.874.678 1.683 1.305 2.362a4.002 4.002 0 0 0 2.878 1.2c.16.032.564-.023.554-.042-1.505.204-3.033.29-4.515.616" style="fill:none;stroke:#000;stroke-width:1.20003;stroke-miterlimit:2;stroke-dasharray:none" transform="matrix(1.0001 0 0 .99986 324.028 -12.328)"/><g style="stroke-width:1.60861;stroke-dasharray:none"><path d="M216.17 182.873c.785.568.72 1.277.174 2.03-.131.045-.262.121-.404.143-.742.11-1.004-.644-.84-1.245M215.94 194.63c-.12-.656-.153-1.31-.208-1.977-.076-1.638-.11-3.287.012-4.936" style="fill:none;stroke:#000;stroke-width:1.60861;stroke-miterlimit:2;stroke-dasharray:none" transform="matrix(0 -.70732 .78676 0 417.804 259.91)"/></g><path d="M245.493 117.604c.313-.367.484-.869.626-1.378.148-.892.225-1.911-.165-2.728-.047-.06-.083-.135-.142-.18-.313-.292-.661.187-.862.442-.609.997-1.034 2.158-1.737 3.058-.082.037-.153.104-.242.127-.502.12-.94-.413-1.105-.862-.242-.653-.259-1.7-.035-2.39M245.63 107.035c.405.443.506 1.101.622 1.666.072.873-.036 1.717-.817 2.254-.867.436-1.503.429-2.392.013-.708-.43-1.308-1.023-1.358-1.895.014-.644.202-1.138.78-1.474.065-.013.13-.05.195-.043.42.014.687.823.824 1.116.239.858.296 1.767-.058 2.604" style="fill:none;stroke:#000;stroke-width:1.20003;stroke-miterlimit:2;stroke-dasharray:none" transform="matrix(1.0001 0 0 .99986 324.028 -12.328)"/></g><path d="M464.395 163.46c-.197-1.358-.173-2.458-.186-3.678-.043-3.799-.14-7.6.1-11.403" style="fill:none;stroke:#000;stroke-width:.999996;stroke-miterlimit:2;stroke-dasharray:none"/><path d="M517.395 155.319c-5.944.57-14.085.244-20.773.33-11.13.143-22.464.016-32.693-.075" style="fill:none;stroke:#000;stroke-width:.999996;stroke-miterlimit:2;stroke-dasharray:none"/><path d="M516.606 162.743c.183-1.893.099-3.797.127-5.696.018-4.082-.062-5.244-.215-9.327" style="fill:none;stroke:#000;stroke-width:.999995;stroke-miterlimit:2;stroke-dasharray:none"/><path d="M510.877 162.527a9.677 9.677 0 0 1 1.149-2.284c1.195-1.741 2.776-3.75 4.601-4.41.293.038.833.145.388-.214-2.011-2.546-3.26-3.767-4.87-5.909-.298-.435-.994-1.34-1.26-1.793" style="fill:none;stroke:#000;stroke-width:.999995;stroke-miterlimit:2;stroke-dasharray:none"/><path d="M516.65 167.065c.568 1.711-.922 3.116-2.537 3.293-4.798 1.148-9.79.821-14.68.758-2.618.003-5.321-.51-7.882.203-1.392.025-1.777 2.965-.19 2.124.665-2.276-2.55-2.76-4.163-2.877-6.552-.313-13.116.836-19.659.147-1.464-.301-4.476-.618-3.747-2.847M548.85 77.283c2.338-.508 4.656 1.422 4.82 3.771.925 4.905-.292 9.896.297 14.815.555 3.274 2.032 6.799 5.024 8.514-1.523-.044-3.235.805-3.467 2.468-.424 3.035-.16 6.119.059 9.16.252 3.49.34 7.125-.023 10.469-.206 1.907-.74 4.631-2.579 5.324-.15.056-1.277.226-1.77.143" style="fill:none;stroke:#000;stroke-width:1.2;stroke-miterlimit:2;stroke-dasharray:none;stroke-opacity:1"/><path d="M517.28 116.963a21.338 21.338 0 0 0-.001 1.776c.009.29.01.582.014.873l-1.283-.017c.012-.278.007-.56.01-.797-.016-.61-.033-1.218-.042-1.828z" style="display:inline;fill:#000;fill-opacity:1;stroke:none;stroke-width:.900001;stroke-miterlimit:2;stroke-dasharray:none"/><path d="M517.22 121.298c-.025.183-.063.38-.043.561a4.95 4.95 0 0 1-.007 1.194c-.032.285.018.571.006.859v.12l-1.22.004c.021-.1.017-.277-.018-.415.046-.274 0-.434.023-.712.022-.281.043-.564 0-.844-.034-.235-.005-.469-.042-.704z" style="display:inline;fill:#000;fill-opacity:1;stroke:none;stroke-width:.899993;stroke-miterlimit:2;stroke-dasharray:none"/><path d="M464.873 130.565c-.017.19 0 .005-.022.351-.013.246-.022.45-.025.618 0 .383.015.648.047 1.027.008.079.014.157.028.234l-1.336.13c-.018-.09-.018-.2-.021-.282-.043-.35-.008-.655-.03-1.07-.008-.213.01-.57.01-.785 0-.087.007-.174 0-.26l1.348.037z" style="display:inline;fill:#000;fill-opacity:1;stroke:none;stroke-width:.9;stroke-miterlimit:2;stroke-dasharray:none"/><path d="M517.226 130.825c.014.37 0 .906.018 1.554 0 .097 0 .195.006.292l-1.281.04c0-.252-.015-.659-.022-.911-.014-.55-.023-1.033.011-1.825l1.27.091c-.001.23.006.6 0 .759z" style="display:inline;fill:#000;fill-opacity:1;stroke:none;stroke-width:.900001;stroke-miterlimit:2;stroke-dasharray:none"/><path d="M464.882 145.885c.04-.735.026-1.153.013-1.784-.008-.33-.027-.286-.033-.57l-1.338.099c.034.341.025.299.045.55.028.604.007 1.068-.044 1.669l1.356.036z" style="display:inline;fill:#000;fill-opacity:1;stroke:none;stroke-width:.9;stroke-miterlimit:2;stroke-dasharray:none"/><path d="M517.2 139.192c.011.491-.006.868-.006 1.467.006.171-.01.667.027.832l-1.265-.06c-.024-.26.033-.67.026-.892.01-.661-.056-.985-.033-1.645l1.237-.015zM517.178 143.178c.046.7.034.964.048 1.587.006.212-.058.705-.047.916l-1.233-.01c.01-.276.029-.554.045-.824 0-.603-.054-1.03-.056-1.633l1.242-.036z" style="display:inline;fill:#000;fill-opacity:1;stroke:none;stroke-width:.900001;stroke-miterlimit:2;stroke-dasharray:none"/><path d="M464.89 139.54c.008.495-.027 1.037-.036 1.641 0 .173-.032.576 0 .744l-1.313.03c-.02-.263-.016-.53-.02-.756.021-.666.033-1.333.069-1.998l1.29.023z" style="display:inline;fill:#000;fill-opacity:1;stroke:none;stroke-width:.9;stroke-miterlimit:2;stroke-dasharray:none"/><path d="M517.238 134.47c-.026.855-.042.912-.011 1.572.02.412.01.834.03 1.127l-1.312.024c0-.335-.026-.94-.026-1.237-.034-.962.04-.595.013-1.558z" style="display:inline;fill:#000;fill-opacity:1;stroke:none;stroke-width:.900001;stroke-miterlimit:2;stroke-dasharray:none"/><path d="M464.873 134.858c.009.561-.016 1.176-.018 1.86.007.195-.024.652.011.842l-1.313.065c-.023-.298-.02-.601-.028-.856.013-.755.017-1.51.045-2.265l1.29-.004z" style="display:inline;fill:#000;fill-opacity:1;stroke:none;stroke-width:.9;stroke-miterlimit:2;stroke-dasharray:none"/><path d="M517.235 125.748c-.09.188-.076 1.395-.045 1.665.02.314.01.635.03.858l-1.311.018c0-.254-.029-1.197-.014-1.423.02-.302-.035-.662-.015-1.144zM517.255 97.054c-.021-.329-.03-.66-.024-.967.006-.499.009-.388.018-.887-.033-.192.024-.79.037-.697l-1.303-.056c0 .145-.01.667 0 .736.046.407.024.374 0 .787-.023.372.011.673-.028 1.04l1.303.044zM517.248 101.634c0-.377-.01-.9-.032-1.276a7.898 7.898 0 0 1 .025-1.142c.007-.084-.074-.393-.059-.476l-1.185.013c0 .109-.021.373-.02.466-.007.46-.007.79.005 1.25.006.397-.004.757.025 1.138.438-.031.86.068 1.24.027zM517.292 115.105c-.044-.512-.01-.881-.023-1.396-.01-.395-.03-.938-.051-1.332l-1.3.143c.083.412.01.834.069 1.244.017.554-.016.959.006 1.513l1.299-.172zM517.275 106.216c.013-.394-.002-.694.001-1.089.04-.348 0-.753-.018-1.011 0-.092-.053-.525-.073-.786l-1.195.052c.035.15-.023.784-.014.912.039.307.027.264.03.576-.01.296.019 1.081-.045 1.364.437.12.92-.125 1.314-.018zM517.294 110.573c0-.01-.007-.017-.01-.027-.005-.055-.005-.11-.008-.165-.006-.08-.013-.16-.017-.24-.014-.289-.013-.58-.015-.87a13.31 13.31 0 0 1 .028-1.259l-1.253-.058c.015.436.031.872.028 1.309-.006.477-.016.953-.052 1.427l1.297-.117zM515.995 92.76c-.056-.855-.05-1.342-.051-2.08 0-.384.018-.334.019-.665l1.283.072c-.025.4-.017.35-.032.645-.013.703.02 1.244.079 1.944l-1.298.085zM517.25 83.952c-.017-.2-.001-.005-.021-.368-.013-.257-.021-.47-.025-.647 0-.4.015-.678.046-1.075.007-.082.013-.164.026-.245l-1.28-.135c-.017.094-.017.208-.02.295-.041.367-.007.685-.03 1.119-.005.224.012.598.01.822 0 .09.007.182 0 .272l1.293-.038zM517.217 88.269c.006-.563-.027-1.273 0-1.818a5.45 5.45 0 0 0-.01-.74l-1.25-.035c.031.104-.034.647-.027.75-.01.553-.007 1.188.016 1.903zM517.204 79.735c-.04-.359-.024-.73-.02-1.092.007-.41 0-.819 0-1.228 0-.122 0-.244.013-.365 0 .041.006-.276 0-.236l-1.295.028a3.37 3.37 0 0 0-.011.184c.007.165.013.33.03.495.025.358.01.717.006 1.077-.009.4.016.8-.02 1.198l1.299-.061zM530.804 132.135c-.804.028-1.61.028-2.415.018-.389-.007-.21-.003-.536-.012v1.284c.326-.01.147-.005.536-.013.805-.01 1.61-.01 2.415.019v-1.296zM526.458 132.212c-.708.032-1.899-.004-2.605-.04l-.113 1.26c.78.026 2.052.055 2.718.078v-1.298zM518.114 132.097c-.877.031-1.436.046-2.314.02l-.74-.022-.092 1.247.776.01c.897.016 1.474.007 2.37.043zM500.36 132.143a49.38 49.38 0 0 1-1.99.022c-.282.009-.563-.013-.843-.034l-.176 1.272c.355.024.717.016 1.02.021a47.258 47.258 0 0 1 1.988.022v-1.303zM522.345 132.17c-.636.034-1.271.013-1.905-.026-.247-.018-.63-.016-.875-.045l-.056 1.278.802.029c.678.025 1.355.049 2.034.062v-1.298zM504.694 132.145c-.662.083-1.29.065-1.96.045-.359-.017-.668.022-.98.002l.11 1.28.567.01c.737.005 1.474 0 2.209-.04-.05-.433.104-.865.054-1.297zM513.573 132.111c-.874.048-1.72.041-2.613.019-.091-.015-.519.013-.61-.002l-.048 1.202.361.04c.965.085 1.937.011 2.91.036v-1.295zM508.841 132.127a16.52 16.52 0 0 1-1.748.015c-.102-.009-.88.025-.983.016-.003.402-.008.804-.01 1.207.11.007.713.013.825.02.823.043 1.157.069 1.982.027-.045-.436-.054-.887-.066-1.285zM495.91 132.135c-.805.028-1.61.028-2.415.018-.39-.007-.21-.003-.536-.012v1.284c.325-.01.147-.005.536-.013.805-.01 1.61-.01 2.414.019v-1.296zM491.564 132.212c-.708.032-1.899-.004-2.605-.04l-.114 1.26c.78.026 2.052.055 2.719.078v-1.298zM483.22 132.097c-.878.031-1.437.046-2.315.02l-.74-.022-.092 1.247.777.01c.897.016 1.474.007 2.37.043zM465.465 132.143a49.38 49.38 0 0 1-1.989.022c-.283.009-.563-.013-.844-.034l-.175 1.272c.355.024.717.016 1.02.021a47.258 47.258 0 0 1 1.988.022v-1.303zM487.45 132.17c-.636.034-1.27.013-1.905-.026-.246-.018-.63-.016-.874-.045l-.056 1.278.802.029c.678.025 1.355.049 2.033.062v-1.298zM469.8 132.145c-.663.083-1.29.065-1.961.045-.358-.017-.667.022-.979.002l.11 1.28.567.01c.737.005 1.473 0 2.208-.04-.05-.433.105-.865.055-1.297zM478.678 132.111c-.873.048-1.72.041-2.613.019-.09-.015-.518.013-.61-.002l-.047 1.202.361.04c.965.085 1.937.011 2.91.036v-1.295zM473.947 132.127a16.52 16.52 0 0 1-1.748.015c-.102-.009-.881.025-.983.016l-.011 1.207c.111.007.714.013.825.02.824.043 1.158.069 1.983.027-.046-.436-.054-.887-.066-1.285z" style="display:inline;fill:#000;fill-opacity:1;stroke:none;stroke-width:.900001;stroke-miterlimit:2;stroke-dasharray:none"/><path d="M520.061 76.942a28.084 28.084 0 0 1-2.875.113l.065 1.308c.249-.012.498-.024.747-.033.692-.027 1.385-.043 2.077-.07l-.014-1.319zM529.627 76.983c-.682.004-1.378.052-2.057-.005a20.4 20.4 0 0 1-1.155.013l.116 1.266h.258c.081 0 .567.01.648.015.73.017 1.46-.015 2.19.018v-1.306zM524.793 76.951a50.164 50.164 0 0 1-2.925-.001l-.075-.003v1.33l.075-.003a50.32 50.32 0 0 1 2.925-.001V76.95z" style="display:inline;fill:#000;fill-opacity:1;stroke:none;stroke-width:.900002;stroke-miterlimit:2;stroke-dasharray:none"/></svg>