<svg xmlns="http://www.w3.org/2000/svg" width="400" height="300" viewBox="0 0 105.833 79.375"><path d="M1.957 1.005C1.909.81 1.895.609 1.876.45c.12-.996.56-1.818 1.259-2.561 1.141-1.214 2.082-1.85 3.673-2.223 1.083-.255 2.2-.346 3.299-.519 1.156.115 2.333.095 3.468.344 1.876.41 4.024 1.338 5.468 2.668.53.489.948 1.108 1.267 1.755.245.499.262 1.08.393 1.62" style="fill:red;stroke:#000;stroke-width:.0264583" transform="translate(-3.969 -45.357)"/><path d="M21.745.967c-.159-.54-.205-1.128-.476-1.622-.867-1.587-2.15-2.515-3.774-3.29a14.942 14.942 0 0 0-3.157-1.107c-1.133-.254-2.309-.25-3.464-.376-1.091.156-2.224.134-3.275.467-1.267.401-2.462 1.028-3.603 1.712-1.28.767-2.307 1.837-2.978 3.162C.838.27.753.673.693 1.07c-.031.206.037.415.056.622M20.43 16.994c-.8.42-1.519.981-2.225 1.274-1.015.409-2.075.743-3.159.894-4.272.596-8.82-.39-12.314-2.983-1.121-.832-1.95-1.998-2.926-2.997-.532-1.136-1.245-2.204-1.596-3.408-.552-1.9-.476-3.958.259-5.791.244-.608.75-1.076 1.089-1.636.03-.049-.047-.143.003-.17.23-.126.498-.162.748-.243" style="fill:red;stroke:#000;stroke-width:.0264583" transform="translate(-3.969 -45.357)"/><path d="M1.423 1.125c-1.276.39-1.74.448-3.01 1.675-.461.446-.782 1.041-.996 1.646-.657 1.851-.66 3.903-.065 5.778.382 1.204 1.116 2.267 1.674 3.4.997.998 1.852 2.161 2.992 2.992 3.506 2.555 8.053 3.583 12.326 3.059 1.058-.13 2.096-.435 3.092-.816.768-.294 1.44-.795 2.16-1.192M20.161 17.562c1.36-.932 2.567-2.057 3.49-3.436.412-.614.798-1.255 1.076-1.94.276-.68.497-1.394.574-2.123.072-.691-.088-1.387-.132-2.08" style="fill:red;stroke:#000;stroke-width:.0264583" transform="translate(-3.969 -45.357)"/><path d="M24.163 8.503c.014.724.189 1.433.13 2.04-.078.72-.301 1.427-.58 2.097-.286.683-.68 1.32-1.1 1.928-.982 1.419-2.27 2.553-3.71 3.482" style="fill:red;stroke:#000;stroke-width:.0264583" transform="translate(-3.969 -45.357)"/><path d="M12.478 48.866c-.799.42-1.518.98-2.224 1.274-1.015.409-2.075.743-3.16.894-4.271.596-8.818-.39-12.313-2.983-1.122-.832-1.951-1.998-2.926-2.997-.532-1.136-1.246-2.204-1.596-3.408-.552-1.9-.477-3.958.259-5.792.244-.607.75-1.075 1.089-1.635.029-.049-.047-.143.002-.17.23-.126.5-.162.749-.243" style="fill:red;stroke:#000;stroke-width:.0264583" transform="translate(-46.302 13.418)"/><path d="M8.844 56.357c-.14-.467-.682-.974-1.132-1.33-1.44-1.14-2.93-1.5-4.631-1.582a12.853 12.853 0 0 0-3.127.214c-1.058.21-2.034.68-3.051 1.019-.837.577-1.789 1.005-2.512 1.732-.871.877-1.58 1.936-2.219 3.026a7.68 7.68 0 0 0-1.041 4.135c.012.406.125.816.255 1.21.067.205.22.374.329.56" style="fill:red;stroke:#000;stroke-width:.0258836" transform="translate(-46.302 13.418)"/><path d="M14.558 63.203c.54.4.929.974 1.224 1.496.308.543.508 1.131.63 1.726.124.606.132 1.231.101 1.85-.071 1.441-.553 2.828-1.26 4.119-.465.647-.853 1.39-1.418 1.988-.733.775-1.536 1.5-2.433 2.075-3.624 2.324-8.167 3.368-12.434 2.585-1.387-.255-2.662-.933-3.993-1.4-.994-.78-2.116-1.42-2.982-2.339-1.349-1.431-2.235-3.282-2.446-5.235-.068-.638-.037-1.314.185-1.915.613-1.657 1.006-1.91 1.986-2.814" style="fill:red;stroke:#000;stroke-width:.0241819" transform="translate(-46.302 13.418)"/><path d="M57.087 56.09c-.141-.467-.683-.974-1.132-1.33-1.442-1.14-2.93-1.5-4.632-1.582a12.853 12.853 0 0 0-3.127.213c-1.058.211-2.034.68-3.051 1.02-.837.577-1.789 1.005-2.512 1.732-.871.877-1.58 1.935-2.218 3.026a7.68 7.68 0 0 0-1.042 4.135c.012.405.125.816.255 1.21.068.205.22.374.33.56" style="fill:red;stroke:#000;stroke-width:.0258836" transform="translate(3.402 32.884)"/><path d="M62.8 62.935c.54.402.929.975 1.224 1.496.308.544.508 1.132.63 1.726.124.607.132 1.232.102 1.85-.072 1.442-.554 2.828-1.262 4.12-.463.647-.852 1.39-1.417 1.988-.732.774-1.536 1.5-2.433 2.075-3.624 2.324-8.167 3.368-12.434 2.585-1.387-.255-2.662-.933-3.993-1.4-.994-.78-2.116-1.42-2.982-2.34-1.349-1.43-2.235-3.281-2.445-5.235-.07-.637-.038-1.313.184-1.914.614-1.657 1.006-1.91 1.987-2.814" style="fill:red;stroke:#000;stroke-width:.0241819" transform="translate(3.402 32.884)"/><path d="M54.656 62.226c-.49-.686-.677-1.551-.467-2.349.36-1.895 1.794-3.573 3.724-4.142a4.28 4.28 0 0 1 2.976.113c1.191.426 2.286 1.25 2.786 2.4a4.142 4.142 0 0 1-.037 3.458c-.242.665-.744 1.18-1.214 1.699-.05.06-.097.12-.143.183" style="fill:red;stroke:#000;stroke-width:.0268224" transform="translate(3.402 32.884)"/><path d="M58.871 30.58c-.332-.025-.664-.107-.995-.076-1.356.13-2.468.498-3.577 1.354-1.719 1.326-3.018 2.263-2.942 4.538.025.749.443 1.43.665 2.146.569.526 1.038 1.187 1.706 1.579a5.687 5.687 0 0 0 4.367.547c1.283-.373 3.073-1.972 3.666-2.99.273-.47.115-1.08.172-1.619M54.175 26.058c-.508 1.086-1.137 1.466-2.229 1.798-1.423.434-3.037.285-4.33-.458-.655-.377-1.262-.897-1.668-1.534-.392-.615-.56-1.366-.643-2.09-.138-1.199.18-2.426 1.07-3.355.855-.896 1.743-1.23 2.936-1.377.76-.094 1.32.116 1.947.14M81.662 30.741c-.289.02-.583-.002-.866.06-2.23.488-5.297 2.266-4.943 4.975.072.552.43 1.028.644 1.542.44.359.81.826 1.32 1.076 1.816.892 3.917.087 5.142-1.42.466-.574-.01-1.747-.156-2.28M74.563 35.864c.415.506.63.938.666 1.28-.003.1-.343 1.101-.434 1.144-.998.475-2.088.52-3.105.044-.497-.234-.858-.686-1.286-1.029-.205-.495-.55-.953-.614-1.485-.167-1.385.445-1.96 1.237-2.958.096-.122.199-.254.34-.318 1.006-.456 1.11-.393 2.038-.441" style="fill:red;stroke:#000;stroke-width:.0264583" transform="translate(15.686 -53.106)"/><path d="M66.2 17.381c.505.446 1.071 1.164 1.321 1.708.261.568.412 1.17.483 1.773.072.615.028 1.239-.055 1.852a8.814 8.814 0 0 1-1.604 3.998c-.468.645-.966 1.314-1.58 1.862-.795.71-1.657 1.365-2.6 1.863-3.806 2.01-8.421 2.667-12.607 1.527a13.763 13.763 0 0 1-3.86-1.731c-1.06-.689-1.99-1.593-2.775-2.582-1.223-1.54-1.95-3.459-1.995-5.423-.015-.641.073-1.312.345-1.892.64-1.364 1.378-2.122 2.215-2.636-.15-.186-.219-.379-.283-.585a3.823 3.823 0 0 1-.152-1.227 7.68 7.68 0 0 1 1.386-4.033c.728-1.033 1.524-2.028 2.467-2.828.781-.664 1.702-1.142 2.648-1.514a12.314 12.314 0 0 1 3.126-.759 12.853 12.853 0 0 1 3.134.051c1.689.226 3.102.753 4.482 1.967.416.367.79.954 1.008 1.409.333-.19.63-.281 1.011-.33.703-.088 1.885-.026 2.806.421 1.138.553 2.165 1.441 2.574 2.627.395 1.144.235 2.395-.329 3.442a4.12 4.12 0 0 1-1.19 1.343" style="fill:#d5f6ff;stroke:#000;stroke-width:.264583;stroke-miterlimit:4;stroke-dasharray:none" transform="translate(15.686 -53.106)"/><path d="M45.782 35.815a3.03 3.03 0 0 1 1.064-.678c.78-.31 2.157-.591 3.348-.352 1.471.297 2.915 1.012 3.737 2.252.794 1.198.981 2.682.646 4.052a4.888 4.888 0 0 1-.967 1.896" style="fill:#d5f6ff;stroke:#000;stroke-width:.330937;stroke-miterlimit:4;stroke-dasharray:none" transform="translate(15.686 -53.106)"/><path d="M44.947 39.524c.716-1.684 2.555-2.327 4.545-2.066 2.244.295 3.981 1.87 4.74 3.488.884 1.887.647 3.15.044 4.219-.412.731-.917 1.134-1.501 1.395" style="fill:#d5f6ff;stroke:#000;stroke-width:.330937;stroke-miterlimit:4;stroke-dasharray:none" transform="translate(15.686 -53.106)"/><path d="M31.812 28.49c.312-1.563 1.67-2.285 3.285-2.208 1.82.086 3.432 1.36 4.276 2.747.985 1.619.987 2.768.672 3.773-.216.687-.555 1.087-.978 1.367" style="fill:#dbe3e2;stroke:#000;stroke-width:.343958;stroke-miterlimit:4;stroke-dasharray:none" transform="translate(-46.113 -16.253)"/><path d="M15.878 33.694a1.85 1.85 0 0 1-.228-.6 4.136 4.136 0 0 1-.087-1.206c.132-1.446.528-2.828 1.298-3.855.686-.916 1.458-1.718 2.389-2.343.753-.506 1.556-.909 2.41-1.16a9.702 9.702 0 0 1 2.805-.371c.918.007 1.857.156 2.78.413 1.49.415 2.726 1.09 3.903 2.427.355.404.664 1.015.84 1.482" style="fill:#dbe3e2;stroke:#000;stroke-width:.343958;stroke-miterlimit:4;stroke-dasharray:none" transform="translate(-46.113 -16.253)"/><path d="M39.215 33.654c.484.474 1.135 1.441 1.36 2.003.235.586.358 1.202.402 1.815.045.625-.028 1.254-.138 1.87a8.974 8.974 0 0 1-1.783 3.97c-.497.63-1.025 1.284-1.663 1.81-.826.681-1.716 1.304-2.68 1.764-3.894 1.859-8.534 2.313-12.663.968a13.698 13.698 0 0 1-3.778-1.927c-1.027-.745-1.915-1.702-2.655-2.739-1.152-1.613-1.792-3.586-1.748-5.575.014-.649.132-1.323.43-1.897.702-1.35 1.473-2.083 2.332-2.564" style="fill:#dbe3e2;stroke:#000;stroke-width:.343958;stroke-miterlimit:4;stroke-dasharray:none" transform="translate(-46.113 -16.253)"/><path d="M-9.466 62.75-26.8 64.767l6.918-16.02z" style="fill:#fd5;stroke:#000;stroke-width:1.09136;stroke-miterlimit:4;stroke-dasharray:none"/><g transform="matrix(.99 0 0 .99 -28.79 -.793)"><path d="m27.342 38.785-.892-4.06c-.082-.319.01-.768.586-.828.708-.075.874.306.899.661l.173 4.13c.011.169-.141.304-.316.33-.16.022-.404-.05-.45-.233z" style="fill:#000;stroke:none;stroke-width:.237019px;stroke-linecap:butt;stroke-linejoin:miter;stroke-opacity:1"/><ellipse cx="27.97" cy="40.556" rx=".765" ry=".85" style="fill:#000;stroke:none;stroke-width:2.69135;stroke-miterlimit:4;stroke-dasharray:none"/></g><path d="M-33.12-20.477c.454.431 1.066 1.31 1.278 1.821a5.32 5.32 0 0 1 .378 1.65c.042.568-.027 1.14-.13 1.7a8.033 8.033 0 0 1-1.676 3.61c-.467.572-.964 1.167-1.563 1.645-.777.62-1.614 1.186-2.52 1.604-3.66 1.69-8.021 2.102-11.903.88a13.044 13.044 0 0 1-3.55-1.753c-.966-.677-1.8-1.547-2.496-2.489-1.083-1.467-1.684-3.26-1.643-5.068a4.52 4.52 0 0 1 .405-1.725c.414-.927.99-1.465 1.602-1.872.306-.21.266.662-.08.124-.12-.18-.203-.448-.25-.636a3.582 3.582 0 0 1-.083-1.097c.126-1.314.504-2.57 1.24-3.504.655-.832 1.392-1.56 2.28-2.13a8.55 8.55 0 0 1 2.303-1.053 9.71 9.71 0 0 1 2.68-.338c.876.007 1.772.143 2.655.376 1.423.377 2.602.991 3.727 2.206.339.366.634.923.802 1.346.1.243-.293.253-.24.009.287-1.423 1.536-2.079 3.02-2.01 1.673.08 3.155 1.237 3.931 2.5.906 1.472.908 2.516.618 3.43-.199.626-.51.99-.899 1.244M-37.224 4.576c.573.478 1.161 1.38 1.373 1.892a5.32 5.32 0 0 1 .378 1.65c.042.568-.027 1.14-.13 1.7a8.033 8.033 0 0 1-1.677 3.609c-.466.573-.963 1.167-1.562 1.645-.777.62-1.614 1.186-2.52 1.604-3.66 1.69-8.021 2.102-11.903.88a13.044 13.044 0 0 1-3.55-1.752c-.966-.678-1.8-1.547-2.496-2.49-1.083-1.466-1.684-3.26-1.643-5.068a4.52 4.52 0 0 1 .404-1.725c.415-.927.99-1.465 1.603-1.872.1-.068.012.375-.115.218-.124-.175-.225-.52-.276-.706a3.931 3.931 0 0 1-.093-1.155c.104-1.304.522-2.361 1.194-3.347.508-.746 1.385-1.58 2.278-2.165a8.853 8.853 0 0 1 2.319-1.1c.87-.26 1.787-.386 2.714-.402a11.14 11.14 0 0 1 2.704.306c1.453.337 2.662.916 3.827 2.09.351.355.661.898.84 1.314.08.188-.205.125-.19-.013.201-1.468 1.342-2.14 2.739-2.061 1.574.089 3.022 1.292 3.811 2.6.922 1.526.975 2.605.747 3.548a2.434 2.434 0 0 1-.878 1.376" style="fill:#dbe3e2;stroke:#000;stroke-width:.396875;stroke-miterlimit:4;stroke-dasharray:none"/><path d="M28.503-16.209c-.096.16-.206.312-.289.48a5.72 5.72 0 0 0-.334.776c-.365 1.13-.418 2.269.032 3.392.163.407.431.763.646 1.145.332.324.632.684.994.974.36.288.756.532 1.162.751.82.443 1.597.714 2.526.816 1.211.133 1.471-.015 2.639-.257 1.348-.568 2.692-1.16 3.246-2.64.28-.749.277-1.56.129-2.333-.08-.415-.246-.81-.37-1.214-.196-.39-.362-.797-.588-1.17-.824-1.359-2.112-2.62-3.664-3.093-.331-.102-.683-.118-1.025-.177-1.33.137-.687-.017-1.932.46M116.768-7.147c.149-.128.583-.157.184-.366-.96-.749-2.19-1.06-3.383-1.164-.857-.091-1.747.04-2.492.493-.527.32-1.092.652-1.446 1.171a3.111 3.111 0 0 0-.238 1.74c.17 1.526 1.188 2.826 2.365 3.748a8.825 8.825 0 0 0 3.828 1.701c.957.156 2.011.076 2.81-.527.471-.34.99-.672 1.306-1.17a3.604 3.604 0 0 0-.22-3.045c-.229-.453-.573-.824-.89-1.213" style="fill:#000;stroke:none;stroke-width:.396999;stroke-miterlimit:4;stroke-dasharray:none"/><path d="M36.756 36.585c-.208-.278-.35-.68-.414-1.018-.047-.246-.101-.65-.083-.933.066-1.05.375-1.899.878-2.687.381-.597 1.044-1.26 1.72-1.723a6.42 6.42 0 0 1 1.763-.864 7.295 7.295 0 0 1 2.073-.295 8.183 8.183 0 0 1 2.073.275c1.115.288 2.046.767 2.95 1.727.13.138.254.311.362.491.12.378-.146.252-.123.072.031-.211.03-.235.112-.404.382-.79 1.282-1.219 2.345-1.111 1.454.146 2.821 1.195 3.534 2.429.654 1.133.89 2.242.708 2.963-.132.527-.208.615-.532.815-.15.122-.062-.334.017-.235.464.386.79 1.017.961 1.43.179.432.272 1.002.306 1.453.034.46-.022.922-.106 1.376a6.5 6.5 0 0 1-1.356 2.92c-.378.465-.78.945-1.265 1.332-.629.502-1.306.96-2.04 1.299-2.962 1.367-6.492 1.7-9.634.712a10.56 10.56 0 0 1-2.875-1.419c-.781-.548-1.456-1.252-2.02-2.014-.876-1.187-1.363-2.64-1.33-4.102.011-.478.133-.96.328-1.396.309-.69.888-1.253 1.402-1.511a1.296 1.296 0 0 1 1.186.016" style="fill:#e6e6e6;stroke:#000;stroke-width:.35;stroke-miterlimit:4;stroke-dasharray:none;fill-opacity:1"/><path d="M50.773 42.81s-1.47.096-2.196.216c-1.15.19-2.34.288-3.326.333-.882.04-1.553.097-2.223.219-.944.172-2.48.24-2.48.24-.837.082-1.622-.446-1.062-1.542 0 0 .705-1.23.853-1.91.149-.689.701-1.393.95-2.129.296-.88.88-1.757 1.176-2.638.286-.85 1.096-2.456 1.096-2.456.469-1.156 1.433-1.044 2.04-.156 0 0 .745.922 1.384 1.93.37.585.489.479.92 1.314.494.954 1.883 2.432 2.242 3.032.468.78 1.3 1.904 1.3 1.904.532.74.234 1.535-.674 1.643z" style="fill:#fd5;stroke:#000;stroke-width:.793749;stroke-miterlimit:4;stroke-dasharray:none" transform="matrix(.90617 0 0 .90617 4.27 3.471)"/><path d="M44.863 39.664s-.007-.604-.16-1.164c-.114-.411-.187-1.124-.233-1.443-.1-.51-.323-1.195-.323-1.195-.072-.282.009-.678.517-.732.625-.066.771.27.793.584.071.62.052 1.323.087 1.727.064.733.018 1.879.018 1.879a4.757 4.757 0 0 1-.7.344z" style="fill:#000;stroke:none;stroke-width:.793749;stroke-linecap:butt;stroke-linejoin:miter;stroke-miterlimit:4;stroke-dasharray:none;stroke-opacity:1" transform="matrix(.90617 0 0 .90617 4.27 3.471)"/><path d="M46.175 41.028c-.006.414-.313.745-.686.74-.372-.006-.717-.349-.71-.763.006-.414.36-.742.733-.737.372.006.67.346.663.76z" style="fill:#000;stroke:none;stroke-width:.793749;stroke-miterlimit:4;stroke-dasharray:none" transform="matrix(.90617 0 0 .90617 4.27 3.471)"/><path d="M60.813 36.66c-.328-.355.3-1.33.458-1.476.58-.534 1.59-.68 2.128-.643 1.186.079 2.764 1.22 3.43 2.425.873 1.577 1.096 3.578-.33 4.75-.5.41-1.245.648-1.886.716-1.957.208-3.532-.755-4.329-1.896-.725-1.04-.914-2.43-.535-3.568.128-.386.56-1.065 1.075-1.44.063-.045.31-.233.485.007" style="fill:#e6e6e6;fill-opacity:1;stroke:#000;stroke-width:.35;stroke-miterlimit:4;stroke-dasharray:none"/><path d="M76.22 37.37c.205.281.415.565.504.953.08.357.13.789.052 1.203-.084.448-.415.833-.734 1.118-.568.507-1.3.58-1.823.478-.847-.165-1.592-.765-2.032-1.54-.225-.394-.332-.895-.312-1.446.018-.49.273-1.023.483-1.286a2.185 2.185 0 0 1 1.564-.827c.55-.028 1.152.187 1.495.604.042.052.277.411.13.829" style="fill:#e6e6e6;fill-opacity:1;stroke:#000;stroke-width:.35;stroke-miterlimit:4;stroke-dasharray:none;stroke-opacity:1"/><path d="M-98.144 45.94c-.154-.197-.349-.787-.415-1.045a3.551 3.551 0 0 1-.085-.942 5.438 5.438 0 0 1 .903-2.715c.391-.603 1.072-1.274 1.768-1.741a6.645 6.645 0 0 1 1.811-.873 7.617 7.617 0 0 1 2.13-.298c.7-.003 1.42.098 2.13.278 1.147.29 2.104.775 3.032 1.744.28.293.53.739.675 1.08.108.323-.264.26-.248.015.174-1.199 1.164-1.747 2.376-1.683 1.367.073 2.623 1.056 3.309 2.123.8 1.246.846 2.127.648 2.897-.136.527-.38.84-.686 1.053-.12.078-.052-.49.062-.396.469.39.95 1.13 1.123 1.547.18.436.275.894.309 1.349.034.465-.022.932-.107 1.39a6.568 6.568 0 0 1-1.37 2.951c-.382.469-.788.955-1.278 1.346-.635.506-1.32.97-2.06 1.311-2.993 1.382-6.56 1.72-9.733.72a10.666 10.666 0 0 1-2.904-1.433c-.79-.554-1.472-1.265-2.04-2.036-.886-1.199-1.377-2.666-1.344-4.144.011-.482.133-.969.331-1.41.312-.697.898-1.264 1.416-1.527.046-.023.351-.156.602-.174" style="fill:#dbe3e2;stroke:#000;stroke-width:.396875;stroke-miterlimit:4;stroke-dasharray:none"/><g style="stroke-width:.989478" transform="matrix(1.07798 0 0 1.07805 -47.44 -40.14)"><path d="m37.562 41.507-9.367 1.065c-.766.087-1.493-.386-.995-1.4l3.613-8.434c.414-1.067 1.3-.977 1.87-.171 0 0 .695.835 1.295 1.752.349.531.456.432.863 1.192.466.869 1.76 2.205 2.098 2.75.44.71 1.22 1.73 1.22 1.73.497.672.235 1.405-.597 1.516z" style="fill:#fd5;stroke:#000;stroke-width:.697455;stroke-miterlimit:4;stroke-dasharray:none"/><path d="m32.13 38.609-.722-3.395c-.066-.259.009-.622.475-.671.573-.06.707.248.727.535l.14 3.453s-.6.073-.62.078z" style="fill:#000;stroke:none;stroke-width:.189851px;stroke-linecap:butt;stroke-linejoin:miter;stroke-opacity:1"/><ellipse cx="32.639" cy="39.933" rx=".619" ry=".688" style="fill:#000;stroke:none;stroke-width:2.15576;stroke-miterlimit:4;stroke-dasharray:none"/></g><path d="M-55.34 34.069c-.149-.195-.232-.515-.296-.77a3.573 3.573 0 0 1-.083-.933c.066-1.05.375-1.899.879-2.687.381-.596 1.043-1.26 1.72-1.723a6.42 6.42 0 0 1 1.763-.863 7.295 7.295 0 0 1 2.073-.296 8.183 8.183 0 0 1 2.072.275c1.115.288 2.047.767 2.95 1.727.273.29.516.731.657 1.068.097.274-.263.203-.245.016.178-1.187 1.19-1.73 2.43-1.666 1.397.072 2.682 1.044 3.383 2.101.818 1.233.865 2.106.662 2.868-.138.52-.388.83-.7 1.041m.086-.391c.464.386.94 1.117 1.112 1.53.178.432.272.885.305 1.336.034.46-.021.922-.105 1.376a6.5 6.5 0 0 1-1.357 2.92c-.377.465-.78.946-1.265 1.333-.628.501-1.306.96-2.04 1.298-2.962 1.367-6.492 1.701-9.634.712a10.56 10.56 0 0 1-2.874-1.418c-.781-.548-1.457-1.252-2.02-2.015-.876-1.187-1.363-2.64-1.33-4.102.011-.477.132-.96.328-1.396.308-.69.888-1.25 1.402-1.511.045-.023.347-.155.595-.173M-1.916-13.084c-.15-.195-.232-.514-.296-.77a3.573 3.573 0 0 1-.083-.932c.066-1.05.375-1.9.879-2.687.38-.597 1.043-1.26 1.72-1.723a6.42 6.42 0 0 1 1.763-.864 7.295 7.295 0 0 1 2.073-.295 8.183 8.183 0 0 1 2.072.275c1.115.287 2.047.767 2.95 1.726.273.29.516.731.657 1.069m-.245.015c.178-1.187 1.19-1.73 2.43-1.666 1.397.072 2.682 1.045 3.383 2.102.817 1.233.864 2.105.662 2.867-.139.521-.204.613-.517.824m.053-.19c.464.386.79 1.017.961 1.43.18.431.273 1.002.306 1.452.034.46-.021.923-.105 1.376a6.5 6.5 0 0 1-1.357 2.921c-.378.464-.78.945-1.265 1.332-.628.502-1.306.96-2.04 1.298-2.962 1.368-6.492 1.701-9.634.712A10.56 10.56 0 0 1-.423-4.23c-.782-.548-1.457-1.252-2.02-2.015-.877-1.187-1.363-2.639-1.33-4.102.01-.477.132-.959.328-1.396.308-.689.888-1.25 1.402-1.51.045-.023.347-.155.595-.173" style="fill:#dbe3e2;stroke:#000;stroke-width:.396875;stroke-miterlimit:4;stroke-dasharray:none"/><path d="M86.061 84.19h46.772v9.622H86.061z" style="fill:#999;fill-opacity:1;stroke:#000;stroke-width:.396875"/><path d="M117.751 31.989h11.306v31.713h-11.306z" style="fill:#c4c4c4;fill-opacity:1;stroke:#000;stroke-width:.264583"/></svg>