<svg xmlns="http://www.w3.org/2000/svg" width="800" height="800" viewBox="0 0 211.667 211.667"><path d="M41.508 126.543c-.4 3.743 1.051 7.397 3.28 10.248 2.746 3.51 7.64 6.021 13.1 6.618 2.854.311 6.51.186 9.269-.693 3.289-1.047 6.054-3.328 7.676-6.158 1.22-2.13 1.723-4.72 1.99-7.188.048-.43-.05-1.192-.488-1.43-1.115.746-.402 5.228 1.174 7.534 3.201 4.683 7.414 7.343 12.126 8.748 6.177 1.843 12.98 1.481 19.063-.849 3.168-1.213 6.374-4.477 7.163-8.136.47-2.181-.779-4.485-1.106-4.072.033 4.045 3.88 7.688 8.954 9.431 3.374 1.16 7.507 1.048 10.839-.087 2.694-.918 4.576-2.587 6.171-4.58 1.82-2.277 2.848-5.192 3.08-7.887.164-1.907-.138-4.034-1.425-5.251-.752-.686-1.514-1.155-1.668-.573 1.504.745 2.59 1.238 4.517 1.267 3.37.053 7.008-.583 9.636-2.782 2.607-2.181 4.944-5.807 5.222-10.01.347-5.26-.565-11.788-3.373-18.177-2.227-5.067-5.041-8.883-8.618-11.881-1.77-1.485-4.954-2.924-7.374-2.874-2.929.06-5.713 1.425-7.378 3.342 2.047-1.211 2.535-3.151 2.535-5.346 0-3.512-1.39-6.019-3.874-8.507-2.438-2.443-8.31-4.505-11.67-5.15-7.518-1.441-14.382-1.11-20.301 1.222-2.779 1.095-5.63 2.58-7.685 4.819-1.229 1.339-2.172 3.664-1.581 4.007.8.33.395-1.26.306-1.66-.853-3.858-4.514-7.218-8.899-8.727-7.41-2.55-20.394-1.456-28.646 3.053-3.997 2.184-7.117 4.683-8.79 7.883-.66 1.263-1.256 3.834-.123 5.523.373.557.572-.372.638-.383-.873-.42-2.385-.56-3.806-.513-1.697.056-4.468.66-6.592 1.8-4.566 2.452-7.456 6.52-9.804 10.821-3.794 6.951-5.21 14.927-4.282 22.686.585 4.898 1.914 9.531 5.688 13.12 2.392 2.273 4.943 3.309 7.964 3.429 3.062.121 6.024-.221 7.935-1.93" style="fill:#e5f6ff;fill-opacity:1;stroke:#000;stroke-width:.264583;stroke-miterlimit:2;stroke-dasharray:none"/><path d="M175.376 109.983c1.715.546 3.658.36 5.321-.275 4.285-1.636 6.588-7.74 4.559-11.912-1.444-2.91-4.276-5.172-7.496-5.742-2.187-.284-4.515.141-6.317 1.46-3.529 2.38-5.07 7.23-3.622 11.22.933 2.815 3.37 5.203 6.372 5.616a7.779 7.779 0 0 0 2.498.031" style="fill:#e5f6ff;fill-opacity:1;stroke:#000;stroke-width:.238125;stroke-miterlimit:2;stroke-dasharray:none"/><ellipse cx="33.585" cy="107.535" rx="7.509" ry="7.425" style="fill:#fff6d8;fill-opacity:1;stroke:none;stroke-width:.26458333;stroke-opacity:1;stroke-dasharray:none"/><ellipse cx="60.992" cy="87.117" rx="7.509" ry="7.425" style="fill:#fff6d8;fill-opacity:1;stroke:none;stroke-width:.26458333;stroke-opacity:1;stroke-dasharray:none"/><path d="M125.28 109.04c-.15-.052-.306-.09-.438-.19a1.526 1.526 0 0 1-.672-.745c-.102-.25-.097-.594.107-.777.103-.105.271-.045.325.09.089.208.005.448-.081.638-.158.311-.4.573-.686.731-.292.142-.632.244-.945.128a.646.646 0 0 1-.39-.696c.07-.387.354-.691.632-.901.34-.241.713-.43 1.118-.476.028.002.056.01.085.01M125.742 109.003c-.005-.086-.005-.172-.008-.25a67.825 67.825 0 0 1-.063-1.733c-.01-.468-.044-.944-.055-1.42-.005-.196-.003-.391-.008-.594-.003-.14-.013-.28-.016-.421-.005-.235-.008-.219-.024-.414" style="display:inline;fill:none;stroke:#000;stroke-width:.15875;stroke-miterlimit:2;stroke-dasharray:none"/><path d="M124.325 105.907c.715-.018 1.6-.05 2.073-.079.241-.015.397-.028.575-.008M131.335 108.746c.016-.11.007-.24.006-.353-.004-.5-.012-1-.024-1.494-.03-1.113-.06-2.237-.032-3.349" style="display:inline;fill:none;stroke:#000;stroke-width:.15875;stroke-miterlimit:2;stroke-dasharray:none"/><path d="M133.056 104.955c-1.14.089-2.28.206-3.408.33M132.323 105.782c.028.019.06.023.084.046a.316.316 0 0 1 .066.083c.093.176-.027.364-.187.443a.296.296 0 0 1-.131.028c-.039 0-.076 0-.113-.019-.187-.1.047-.369.169-.406M132.444 108.885c.005-.08-.02-.227-.026-.28-.025-.232-.052-.361-.071-.612-.022-.29-.057-.586-.071-.88a.835.835 0 0 0-.03-.17M137.13 108.895c0-.045-.003-.04.014-.148.063-.366.142-.828.02-1.203a.791.791 0 0 0-.13-.246.572.572 0 0 0-.212-.168c-.474-.203-1.025.228-1.298.562-.09.11-.17.226-.231.355-.131.277-.137.316-.191.601-.006.031-.03.207 0 .227.04.029.041-.073.05-.148.052-.433.058-.994-.11-1.4a.717.717 0 0 0-.132-.226.39.39 0 0 0-.18-.119c-.161-.04-.363.06-.484.148a2.153 2.153 0 0 0-.815 1.558c-.005.06 0 .11 0 .158 0 .02.01.058-.01.049-.07-.03-.028-.136-.04-.227a31.49 31.49 0 0 0-.252-1.577M140.146 108.445a.451.451 0 0 1-.23.238c-.323.175-.695.228-1.057.23-.244-.007-.496-.032-.718-.147a.695.695 0 0 1-.413-.393c-.109-.242-.018-.521.132-.722.2-.272.503-.463.838-.522.23-.041.388.005.49.094.073.065.106.389-.137.492a2.001 2.001 0 0 1-.792.152 3.778 3.778 0 0 1-.333-.022M142.974 104.539c-.085.84-.092 1.688-.075 2.528.012.636.075 1.908.075 1.908" style="display:inline;fill:none;stroke:#000;stroke-width:.15875;stroke-miterlimit:2;stroke-dasharray:none"/><path d="M144.037 106.188c-.197-.014-.078-.014-.356-.017-.644-.01-1.286-.038-1.92-.06M30.946 108.947c.013-.022.023-.04.04-.058.37-.432.778-.827 1.148-1.254l.2-.229c.135-.154.304-.354.415-.439" style="display:inline;fill:none;stroke:#000;stroke-width:.15875;stroke-miterlimit:2;stroke-dasharray:none"/><path d="M33.052 108.998c-.33-.254-.627-.553-.928-.843-.4-.387-.79-.783-1.175-1.192" style="display:inline;fill:none;stroke:#000;stroke-width:.15875;stroke-miterlimit:2;stroke-dasharray:none"/><path d="M33.288 107.094c.035-.114.06-.18.122-.33.085-.208.236-.58.408-.974" style="display:inline;fill:none;stroke:#000;stroke-width:.251354;stroke-miterlimit:2;stroke-dasharray:none"/><g style="display:inline;stroke-width:2.14735;stroke-dasharray:none"><path d="M7825.48 248.158c-5.279-.051-9.843-3.45-12.944-7.403-2.264-2.71-3.637-6.12-4.61-9.466-1.245-5.144-.075-10.5 1.648-15.393 1.845-4.75 4.7-8.934 8.027-12.824 1.482-1.639 3.241-3.257 5.098-4.44M7838.892 243.189c-.444-5.355-.493-10.706-1.006-16.174-.818-8.739-1.77-17.485-3.323-26.118" style="fill:none;stroke:#000;stroke-width:2.14736;stroke-miterlimit:2;stroke-dasharray:none" transform="matrix(.06195 0 0 .06126 -449.662 94.265)"/><path d="M7850.274 214.233c-2.85.217-8.71.653-10.754.854-2.234.22-10.584.976-16.41 1.598M7858.524 250.73c1.979-.78 3.604-1.716 4.974-2.858 2.057-1.715 3.55-3.16 5.23-6.76 3.421-7.329 2.248-15.348-.444-22.62-.749-2.023-1.528-3.84-2.551-5.683-2.595-4.678-6.433-10.163-10.87-14.207" style="fill:none;stroke:#000;stroke-width:2.14736;stroke-miterlimit:2;stroke-dasharray:none" transform="matrix(.06195 0 0 .06126 -449.662 94.265)"/></g><g style="display:inline;stroke-width:1.81325;stroke-dasharray:none"><path d="M7926.957 216.334c-2.008.052-5.544.11-8.208.11-8.208 0-16.304.436-24.4.655M7926.237 226.317c-1.094-.101-2.4-.2-3.815-.262-1.248-.053-3.658-.015-5.428-.006-6.69.037-15.001-.003-22.79.543" style="fill:none;stroke:#000;stroke-width:1.81324;stroke-miterlimit:2;stroke-dasharray:none" transform="matrix(.07138 0 0 .07457 -522.718 91.584)"/></g><path d="M48.664 107.476c-.082-.087-.165-.1-.264-.105a1.97 1.97 0 0 0-.298.008c-.504.048-1.202.245-1.503.686a.622.622 0 0 0-.116.298c-.018.282-.02.268.058.524.02.066.068.13.083.202.001.008.008.023-.008-.008-.017-.032-.04-.057-.058-.089a38.537 38.537 0 0 1-.818-1.62M51.035 108.79c-.31-.205-.635-.422-.819-.755-.079-.118-.134-.269-.092-.41.1-.089.114.144.09.212-.046.295-.208.563-.402.787-.217.24-.52.433-.854.444-.207.008-.426-.129-.463-.341-.045-.277.096-.547.266-.757.205-.247.475-.436.762-.58.157-.075.328-.128.504-.123M51.472 109.115c-.041-.088-.051-.322-.057-.387-.028-.29-.037-.572-.058-.863-.07-.927-.108-1.862-.174-2.79" style="display:inline;fill:none;stroke:#000;stroke-width:.15875;stroke-miterlimit:2;stroke-dasharray:none"/><path d="M53.075 106.35c-.137-.01-.304.014-.438.016-.852.013-1.71.096-2.56.129M53.914 108.82c-.023.023-.038.038-.06.052-.198.126-.463.2-.69.23a2.281 2.281 0 0 1-.357.014 1.275 1.275 0 0 1-.349-.051c-.166-.053-.41-.192-.5-.348-.085-.147-.052-.354 0-.503a.963.963 0 0 1 .129-.243c.052-.074.112-.142.174-.207.158-.165.425-.348.667-.348.038 0 .085 0 .121.015a.455.455 0 0 1 .198.133.24.24 0 0 1 .007.303.374.374 0 0 1-.098.089c-.05.03-.1.05-.152.066-.304.101-.637.067-.948.015" style="display:inline;fill:none;stroke:#000;stroke-width:.15875;stroke-miterlimit:2;stroke-dasharray:none"/><g style="display:inline;stroke-width:2.14735;stroke-dasharray:none"><path d="M8228.062 214.825c3.552 1.76 7.015 3.966 9.283 7.306 2.495 3.23 4.387 7.783 2.54 11.76-1.832 3.787-5.9 5.81-9.764 6.913-7.061 1.832-15.051.412-20.81-4.145-2.72-2.398-5.224-5.542-5.601-9.269-.129-4.24 2.575-7.877 5.506-10.646 5.134-4.116 10.817-6.318 17.407-7.065a23.788 23.788 0 0 1 2.836-.067M8249.807 258.73c.134-.948.038-1.898 0-2.847-.115-5.018-.203-10.038-.406-15.189-.745-18.852-1.96-37.855-.677-56.82.478-7.083.684-18.157 8.395-21.834.82-.392 1.59-.744 2.573-.814.955-.068 1.874.09 2.843.271 4.859.906 9.208 4.069 12.864 7.323" style="fill:none;stroke:#000;stroke-width:2.14736;stroke-miterlimit:2;stroke-dasharray:none" transform="matrix(.06195 0 0 .06126 -451.001 94.404)"/><path d="M8232.71 216.75c11.195-1.53 22.555-1.87 34.079-1.53-11.524-.341-22.884 0-34.08 1.53z" style="fill:none;stroke:#000;stroke-width:2.14736;stroke-miterlimit:2;stroke-dasharray:none" transform="matrix(.06195 0 0 .06126 -451.001 94.404)"/></g><path d="M84.202 107.007c.221-.106.46-.016.666.12.187.13.356.328.474.582.09.192.114.487-.01.659-.159.278-.397.415-.629.498a1.028 1.028 0 0 1-1.339-.732.877.877 0 0 1 .135-.717c.135-.181.3-.314.47-.398a.714.714 0 0 1 .478-.048" style="display:inline;fill:none;stroke:#000;stroke-width:.15875;stroke-miterlimit:2;stroke-dasharray:none"/><path d="M87.118 107.496c-.708.114-1.459.1-2.076.14M94.104 109.434c-.077-.119-.19-.222-.285-.312-.289-.276-.338-.325-.657-.603-.656-.572-1.348-1.109-1.863-1.808" style="display:inline;fill:none;stroke:#000;stroke-width:.15875;stroke-miterlimit:2;stroke-dasharray:none"/><path d="M91.591 108.803c.131-.122.26-.24.394-.351a31.774 31.774 0 0 1 1.84-1.44M94.228 107.984a83.748 83.748 0 0 0 1.93-.08M86.094 110.334v.027c0 .063.003-.126 0-.189-.01-.332-.017-.665-.035-1.006-.062-1.249-.159-2.507-.057-3.764.028-.34.068-.815.304-1.16a.71.71 0 0 1 .19-.19.571.571 0 0 1 .23-.09c.423-.06.856.279 1.073.521.057.063.103.135.16.207M98.672 108.626c.035.11-.094.177-.174.227a1.64 1.64 0 0 1-.634.187c-.342.038-.725-.056-.944-.33-.234-.288-.22-.703-.058-1.02.1-.209.278-.377.474-.506.219-.145.568-.244.872-.192M99.734 107.161c.14.015.28.032.413.084.155.061.294.152.418.256.199.166.362.386.417.64.028.13-.054.31-.15.401-.176.169-.37.269-.607.327-.215.054-.442.061-.664.011-.395-.088-.727-.405-.758-.803a.692.692 0 0 1 .05-.285c.11-.287.377-.488.652-.624M101.896 107.233c.49-.007 1.056.21 1.224.72.062.188-.017.404-.146.534-.22.248-.532.356-.834.393-.308.034-.645-.056-.86-.325-.146-.174-.217-.452-.114-.675.118-.281.354-.492.606-.582M105.422 107.387c-.018-.06-.119-.131-.215-.157-.26-.071-.539.009-.761.13-.128.068-.248.154-.336.258-.119.14-.218.296-.267.469-.079.271.034 1.1-.01.827-.064-.394-.136-.563-.203-.896-.032-.16-.118-.414-.154-.574l-.041-.136M107.986 109.215c.06.071.027.227-.04.074-.21-.461-.263-.972-.358-1.464-.155-.966-.172-1.947-.18-2.923-.033-.022.007-.253.082-.071.139.288.156.618.178.932.017.863-.207 1.834-.641 2.484-.286.427-.653.682-1.133.72a.578.578 0 0 1-.612-.526c-.029-.27.137-.55.354-.727.237-.195.45-.306.75-.382.277-.07.67-.049.929.108M108.59 106.622c.042.01.075.04.105.069a.11.11 0 0 1 .005.13.199.199 0 0 1-.16.079.216.216 0 0 1-.148-.06c-.019-.022-.034-.052-.025-.08a.132.132 0 0 1 .063-.074.445.445 0 0 1 .198-.05M108.692 108.928c-.006.026-.012.096-.018 0-.036-.518-.086-1.035-.117-1.56M111.993 108.953c-.056-.437-.064-.892-.264-1.3-.115-.217-.264-.454-.529-.541a.602.602 0 0 0-.482.045c-.399.182-.659.544-.77.925-.055.154-.1.313-.1.476-.008.132-.03.265-.016.398-.053-.086-.042-.19-.056-.29-.021-.151-.007-.375-.042-.562-.033-.288-.062-.583-.192-.852M115.767 108.884a2.799 2.799 0 0 1-.927-.502 2.053 2.053 0 0 1-.651-.86.869.869 0 0 1-.047-.371c.128-.022.157.206.197.302.079.286.012.588-.11.852-.205.364-.61.64-1.046.619a.917.917 0 0 1-.496-.18.6.6 0 0 1-.132-.704c.117-.28.37-.498.636-.636.311-.173.66-.283 1.023-.277M116.03 108.9c-.001.015.006.051.005.037-.013-.457-.031-.914-.044-1.371-.028-1.001-.073-2.003-.07-3.01" style="display:inline;fill:none;stroke:#000;stroke-width:.15875;stroke-miterlimit:2;stroke-dasharray:none"/><path d="M117.397 106a2.19 2.19 0 0 0-.212-.013c-.764-.007-1.535-.013-2.31.041M119.415 108.24c-.254.28-.569.47-.959.594-.442.14-.956.19-1.372-.048-.343-.183-.545-.597-.455-.975.073-.336.306-.628.596-.811.214-.113.472-.221.715-.135a.244.244 0 0 1 .136.337c-.103.205-.314.323-.501.44-.2.114-.42.197-.639.271M66.272 108.63c-.029.1-.117.155-.206.203-.192.128-.437.145-.664.133a1.25 1.25 0 0 1-.835-.402c-.099-.14-.21-.29-.203-.468-.013-.313.19-.593.433-.784.197-.154.447-.259.703-.256a.528.528 0 0 1 .291.089M68.386 108.95c-.002-.03.013-.134.015-.16.01-.116.012-.17.027-.303.03-.264.057-.464.027-.736-.015-.14-.049-.34-.145-.466a.366.366 0 0 0-.154-.124.76.76 0 0 0-.277-.024c-.209.03-.426.15-.562.266-.308.264-.437.533-.54.89-.024.079-.046.424-.064.502-.028.116-.02.287-.019.015l.01-1.081c.006-.789.009-1.59-.01-2.286M71.911 108.928a1.909 1.909 0 0 1-.69-.248c-.308-.174-.587-.42-.715-.735-.07-.179-.061-.396.067-.551.138-.07.173.136.174.224.003.483-.313.95-.776 1.178-.255.13-.58.22-.857.094a.484.484 0 0 1-.293-.385c-.038-.315.16-.609.388-.828a1.73 1.73 0 0 1 .871-.44.792.792 0 0 1 .398.041M73.672 108.905c.069-.232.105-.471.13-.71.01-.264-.018-.53-.195-.753a.45.45 0 0 0-.265-.18c-.227-.05-.504.045-.674.17-.303.221-.453.532-.542.867-.043.106-.048.218-.056.33-.02.05.015.186-.055.181-.07-.078.008-.18-.01-.276-.054-.29-.126-.687-.12-1.062M79.368 108.348c.046.133-.1.231-.202.293a2.348 2.348 0 0 1-1.504.258c-.373-.068-.75-.285-.888-.64a.662.662 0 0 1 .13-.683c.244-.28.606-.47.986-.504.149-.01.312.006.424.113.116.093.104.262.018.369-.184.221-.49.303-.771.337-.207.022-.54.038-.803-.013M73.469 110.2c-.074.188-.072.401.055.567.296.414.79.664 1.288.766.351.064.72.07 1.07-.006.298-.083.578-.305.618-.62.062-.429-.068-.852-.138-1.272-.13-.678-.305-1.355-.328-2.048-.043-.16.148-.411.247-.16.097.285-.015.6-.167.846-.323.496-1.006.795-1.587.574-.221-.11-.43-.304-.44-.56-.046-.403.266-.748.592-.951.344-.214.82-.353 1.194-.128a.724.724 0 0 1 .076.054M59.225 114.62c-.058.01-.238.035-.296.037-.86.036-1.844.038-2.704-.019M56.242 115.563a94.048 94.048 0 0 1 2.154-.04c.132-.002.525.002.525.002M63.752 116.084c-.02-.402.012-.812-.093-1.205-.05-.195-.237-.294-.45-.33-.317-.054-.711.086-.864.45-.146.36-.191.75-.195 1.134.04.039.002-.207.005-.275-.067-.909-.115-1.57-.193-2.478-.028-.285-.051-.834-.08-1.093M65.19 114.347c.135-.088.311-.096.474-.087.152.02.287.095.408.181.28.201.39.48.417.78.022.248-.16.478-.37.604-.332.202-.714.26-1.1.24-.179-.025-.366-.06-.518-.164-.192-.13-.332-.343-.328-.577-.006-.28.175-.536.408-.683.152-.096.364-.2.519-.153M68.961 114.519a1.236 1.236 0 0 0-.458-.096 1.66 1.66 0 0 0-1.036.365c-.153.132-.285.306-.318.508a2.69 2.69 0 0 0 .046.695c.005.056.055.118.048.023-.022-.095-.032-.193-.042-.29-.05-.368-.182-.719-.336-1.056M69.842 113.644c.028.03.064.06.069.104.015.08-.04.157-.108.199a.547.547 0 0 1-.346.063c-.073-.01-.136-.034-.179-.095-.026-.044-.011-.094.012-.134.062-.108.272-.207.415-.224M69.71 116.205c-.008-.134-.023-.276-.032-.41-.03-.45-.08-.898-.072-1.348M72.525 116.046c-.351 0-.703-.01-1.055-.01-.36 0-.713-.038-1.072-.009-.04.003-.084.14-.056.11.296-.308.6-.622.928-.898.289-.244.306-.248.608-.465.082-.059.158-.12.248-.18.094-.066.175-.143.295-.143.08 0 .073.018-.016.032a1.444 1.444 0 0 1-.296.016c-.616-.013-1.231-.063-1.847-.095M73.927 114.428c.196.04.38.12.556.212.273.151.532.401.583.72a.492.492 0 0 1-.209.492c-.237.173-.536.228-.826.246a1.811 1.811 0 0 1-.893-.195.888.888 0 0 1-.355-.436.677.677 0 0 1 .1-.598c.202-.285.546-.445.887-.503.134-.021.27-.026.405-.012M77.268 116.2a.783.783 0 0 0 .122-.224c.11-.311.113-.676.034-.973a.97.97 0 0 0-.221-.426.507.507 0 0 0-.525-.124c-.257.084-.46.268-.625.474-.201.253-.309.574-.373.885-.017.043-.005.21-.064.164-.163-.514-.188-1.056-.244-1.588M77.949 115.978c.024.047.087.178.064.134-.03-.06-.025-.182-.032-.245a17.653 17.653 0 0 1-.104-1.757c-.006-.764.024-1.536.072-2.3" style="display:inline;fill:none;stroke:#000;stroke-width:.15875;stroke-miterlimit:2;stroke-dasharray:none"/><path d="M79.405 112.818h-.432c-.865 0-1.712.165-2.568.276M81.87 116.523a3.372 3.372 0 0 1-1.132-.492c-.373-.254-.737-.597-.824-1.054-.034-.137.03-.404.22-.335.194.107.25.368.16.56-.164.393-.565.651-.976.738-.315.064-.7.003-.891-.276-.1-.14-.097-.381-.03-.538.124-.288.445-.54.761-.68a2.57 2.57 0 0 1 .452-.15" style="display:inline;fill:none;stroke:#000;stroke-width:.15875;stroke-miterlimit:2;stroke-dasharray:none"/><path d="M81.36 116.314c.015-.689.014-1.377.014-2.066 0-.784-.006-1.997-.041-2.962M87.808 114.374c.101-.11-.009-.052-.052.002a11.61 11.61 0 0 0-1.028 1.512c-.075.13-.181.268-.115.423.058.135.014.011.007.016-.007.004-.026-.029-.045-.059-.117-.194-.23-.387-.34-.571-.189-.312-.353-.63-.527-.94-.072-.128-.14-.255-.218-.387a.553.553 0 0 0-.059-.084M89.553 115.957a3.68 3.68 0 0 1-.875.11c-.329-.002-.678-.032-.957-.219a.489.489 0 0 1-.235-.414c.01-.245.17-.458.342-.623a1.23 1.23 0 0 1 .761-.345c.167-.01.335.038.381.166.043.118-.031.221-.115.285-.18.134-.356.177-.57.227a2.286 2.286 0 0 1-.652.033M89.922 116.153c-.008-.15-.01-.3-.016-.449-.05-1.206-.136-2.403-.144-3.6M91.355 114.286c.169.051.327.123.48.216.298.18.467.459.534.738a.637.637 0 0 1-.27.68c-.261.164-.5.221-.888.21a.995.995 0 0 1-.571-.216.77.77 0 0 1-.264-.785c.079-.355.373-.622.693-.778.108-.054.22-.098.334-.136M94.756 115.796a.218.218 0 0 1-.05.064c-.1.103-.3.207-.542.242-.286.04-.467.046-.736-.008-.322-.064-.636-.265-.736-.555a.564.564 0 0 1-.032-.242.586.586 0 0 1 .077-.22c.18-.314.68-.573 1.17-.705M95.177 113.435a.186.186 0 0 1 .081.036c.05.033.08.072.1.134a.205.205 0 0 1-.054.194.311.311 0 0 1-.228.075.218.218 0 0 1-.169-.083.135.135 0 0 1-.013-.14.35.35 0 0 1 .15-.142.77.77 0 0 1 .174-.073M95.301 116.004l.008.078c0 .008.013.11-.008 0-.02-.107-.039-.22-.056-.33a7.282 7.282 0 0 1-.104-1.427M96.286 116.13c.024-.119.016-.04 0-.229-.032-.394-.074-.796-.104-1.19-.074-1.008-.16-2.025-.087-3.033" style="display:inline;fill:none;stroke:#000;stroke-width:.15875;stroke-miterlimit:2;stroke-dasharray:none"/><path d="m97.473 112.493-.821.021c-.647.017-.32.013-.974.04-.304.013-.6.012-.904.026M97.025 118.38c.136.121.235.186.37.255.147.076.407.178.622.212.307.048.851.062 1.17-.123a.528.528 0 0 0 .223-.236.84.84 0 0 0 .067-.35c.007-.287-.113-.76-.175-1.021-.137-.58-.341-1.14-.447-1.731-.06-.332-.076-.441-.042-.751.008-.066.022-.124.042-.188.006-.018.02-.072.041-.057.078.05.019.283-.216.612-.196.276-.364.523-.63.743-.198.164-.448.32-.721.326a.53.53 0 0 1-.282-.065.478.478 0 0 1-.174-.204c-.2-.392-.02-.924.166-1.282.03-.059.074-.114.107-.171M105.613 116.119a3.939 3.939 0 0 1-.566-.24c-.4-.221-.779-.54-.927-.981-.033-.144-.12-.39.05-.472.14.023.176.2.197.317a.947.947 0 0 1-.277.82c-.21.24-.513.38-.818.46-.33.082-.725.012-.938-.267-.166-.21-.137-.515.016-.724.194-.274.483-.489.784-.638.304-.15.514-.195.782-.188.135.004.18.06.225.159" style="display:inline;fill:none;stroke:#000;stroke-width:.15875;stroke-miterlimit:2;stroke-dasharray:none"/><path d="M105.646 116.401c-.048-.11-.06-.267-.072-.378-.06-.512-.08-1.032-.096-1.544-.031-.97-.048-1.946.056-2.916" style="display:inline;fill:none;stroke:#000;stroke-width:.15875;stroke-miterlimit:2;stroke-dasharray:none"/><path d="M106.816 112.96a6.188 6.188 0 0 0-.36-.015c-.767-.008-1.362.103-2.122.166" style="display:inline;fill:none;stroke:#000;stroke-width:.132292;stroke-miterlimit:2;stroke-dasharray:none"/><path d="M112.719 112.643c-.152 0-.294.002-.446.008-.496.018-.759.023-1.275.063-.618.047-1.225.134-1.843.189" style="display:inline;fill:none;stroke:#000;stroke-width:.15875;stroke-miterlimit:2;stroke-dasharray:none"/><path d="M110.468 116.144c0-.062-.014-.265-.018-.308-.043-.51-.07-1.012-.074-1.52-.008-.946-.016-1.891.027-2.834M111.318 113.363c.174.058.323.347.141.489a.31.31 0 0 1-.157.058.476.476 0 0 1-.19-.025c-.31-.12-.23-.485-.06-.578M111.428 116.173c-.005-.034-.014-.073-.018-.103a5.192 5.192 0 0 1-.04-.417 19.09 19.09 0 0 0-.128-1.403M115.855 116.22a3.492 3.492 0 0 0-.016-1.07c-.036-.196-.1-.413-.268-.54-.167-.127-.4-.09-.578-.006-.444.21-.74.671-.77 1.153-.007.14-.015.44-.007.423l.01-.022c.048-.1.002-.218 0-.326-.005-.283 0-.568-.045-.848-.03-.183-.096-.378-.265-.482-.22-.136-.499-.078-.717.028a1.39 1.39 0 0 0-.667.669 1.803 1.803 0 0 0-.151.686c-.002.057.022.241-.007.203-.11-.148-.084-.353-.121-.531a12.167 12.167 0 0 1-.18-1.2M118.582 115.79c-.23.155-.508.237-.776.3-.396.078-.825.093-1.207-.062-.2-.078-.377-.264-.365-.488.015-.274.188-.512.377-.7.204-.182.447-.339.72-.392.231-.045.487-.01.563.205a.2.2 0 0 1-.114.253c-.21.101-.451.11-.68.117-.198 0-.395-.021-.59-.053" style="display:inline;fill:none;stroke:#000;stroke-width:.15875;stroke-miterlimit:2;stroke-dasharray:none"/><path d="M120.964 115.986c.008.023.014.053.022.082.007.023.027.09.03.067.007-.03.002-.051.003-.074 0-.059.005-.118.004-.17-.007-.305-.008-.416-.017-.742-.028-1.025-.086-2.056-.057-3.08" style="display:inline;fill:none;stroke:#000;stroke-width:.132292;stroke-miterlimit:2;stroke-dasharray:none"/><path d="M121.844 113.204c-.025.004-.062.01-.101.013a19.34 19.34 0 0 1-1.632.015" style="display:inline;fill:none;stroke:#000;stroke-width:.132292;stroke-miterlimit:2;stroke-dasharray:none"/><g style="display:inline;stroke-width:2.8804;stroke-dasharray:none"><path d="M6526.203 204.502c-6.46 6.377-13.133 12.733-18.454 18.39-5.573 5.925-11.11 11.882-16.668 17.82" style="fill:none;stroke:#000;stroke-width:2.8804;stroke-miterlimit:2;stroke-dasharray:none" transform="matrix(.0462 0 0 .04566 -241.356 77.546)"/><path d="M6490.508 202.715c4.789 4.392 9.001 9.347 13.487 14.035 1.365 1.425 2.737 2.844 4.16 4.21 6.771 6.496 13.33 13.207 20.088 19.715a29.562 29.562 0 0 0 2.093 1.824" style="fill:none;stroke:#000;stroke-width:2.8804;stroke-miterlimit:2;stroke-dasharray:none" transform="matrix(.0462 0 0 .04566 -241.356 77.546)"/></g><path d="M63.926 88.747c.392-.355.553-.822.475-1.273-.08-.453-.276-.746-.586-1.064a1.446 1.446 0 0 0-.425-.273" style="display:inline;fill:none;stroke:#000;stroke-width:.15875;stroke-linecap:butt;stroke-miterlimit:2;stroke-dasharray:none"/><path d="M61.432 86.18c-.375.408-.73.927-.748 1.433a1.16 1.16 0 0 0 .04.337c.077.287.268.528.54.733M62.607 88.568c-.055-.204-.05-.415-.067-.593-.074-.771-.1-1.547-.104-2.322" style="display:inline;fill:none;stroke:#000;stroke-width:.15875;stroke-miterlimit:2;stroke-dasharray:none"/><path d="M63.39 86.678c-.143.024-.25.04-.378.053-.418.045-.84.07-1.254.148M69.67 87.153a1.72 1.72 0 0 1-.121.011c-.169.013-.511.01-.719.018-.506.017-.952.005-1.388-.007M69.953 87.826c-.2 0-.4.005-.6.009-.658.012-1.317.02-1.976.002" style="display:inline;fill:none;stroke:#000;stroke-width:.15875;stroke-miterlimit:2;stroke-dasharray:none"/><g style="display:inline;stroke-width:2.54596;stroke-dasharray:none"><path d="M6779.195 202.554c-1.047.985-2.014 1.891-2.902 2.746-.416.402-5.218 4.834-5.302 4.912-7.027 6.486-13.991 13.043-21.216 19.311-4.41 3.849-8.778 7.747-12.834 11.973" style="fill:none;stroke:#000;stroke-width:2.54596;stroke-miterlimit:2;stroke-dasharray:none" transform="matrix(.05228 0 0 .05165 -279.43 76.29)"/><path d="M6778.08 240.633c-6.05-4.443-11.673-9.409-17.066-14.634-6.56-6.355-3.475-3.254-9.87-9.753-3.52-3.578-6.975-7.253-10.615-10.713-.459-.436-.949-.838-1.423-1.257" style="fill:none;stroke:#000;stroke-width:2.54596;stroke-miterlimit:2;stroke-dasharray:none" transform="matrix(.05228 0 0 .05165 -279.43 76.29)"/></g><path d="M76.732 87.572H75.26M79.357 88.346c-.205.14-.471.167-.72.186-.407.015-.845-.07-1.142-.335-.185-.163-.291-.419-.22-.649.083-.288.366-.482.648-.617.275-.131.515-.165.714-.176.127-.006.314.02.379.057M80.43 86.576c.341-.025.714-.014 1.002.19a.895.895 0 0 1 .253 1.084c-.151.302-.468.497-.793.57-.447.094-.976.065-1.331-.196-.174-.129-.301-.33-.284-.554.025-.335.289-.644.576-.807a1.08 1.08 0 0 1 .576-.156M82.989 86.863c.286.04.594.123.791.345.152.188.245.431.191.668-.052.228-.226.38-.42.47-.256.12-.57.142-.864.114-.323-.033-.66-.198-.803-.498-.132-.274-.02-.612.204-.805.177-.15.4-.249.63-.293.222-.035.455-.014.663.071M86.07 87.022c-.017-.017-.031-.036-.05-.05-.225-.175-.526-.308-.819-.27a.926.926 0 0 0-.27.078c-.176.087-.264.157-.396.364-.203.319-.17.72-.126 1.074.007.054.017.108.027.161.005.027.015.052.019.079 0 .002-.004.006-.005.004-.055-.094-.07-.211-.098-.314a4.662 4.662 0 0 1-.2-1.233M88.701 88.292c.023.139-.125.374-.235.165-.193-.307-.315-.647-.448-.98-.187-.501-.304-1.023-.417-1.542-.088-.404-.177-1.257-.117-1.708.022-.172.125-.394.212-.164.14.325.192.755.24 1.138.071.564.148 1.369.07 1.935a1.517 1.517 0 0 1-.636 1.047c-.303.223-.756.358-1.107.149-.288-.162-.42-.531-.259-.814.205-.377.604-.582 1.017-.709.176-.048.394-.074.578-.066M89.285 86.113a.128.128 0 0 1 .048-.013.092.092 0 0 1 .07.024c.015.012.03.033.027.056-.001.025-.021.04-.038.048a.18.18 0 0 1-.098.014c-.028-.003-.058-.013-.075-.042a.06.06 0 0 1 0-.054.09.09 0 0 1 .072-.05M89.231 88.424c.004.025.03.072.005.071-.033 0-.026-.091-.03-.116-.021-.167-.024-.336-.029-.504a5.426 5.426 0 0 1 .05-1.06M91.367 88.515c.187-.3.306-.55.372-.794.058-.215.091-.474-.016-.682-.087-.219-.38-.328-.63-.287-.3.044-.545.224-.74.418-.24.248-.403.571-.37.901.014.116.012.239.067.346.094.063.052-.137.049-.185-.081-.412-.231-.812-.385-1.207M94.83 88.39a1.541 1.541 0 0 1-.72-.394c-.266-.249-.382-.625-.437-.95-.024-.137-.03-.224.06-.246.092.138.085.31.087.468-.006.342-.157.747-.449.963a1.041 1.041 0 0 1-.75.22.537.537 0 0 1-.354-.2c-.123-.14-.147-.336-.129-.52.04-.41.375-.767.779-.934.198-.09.424-.123.643-.086" style="display:inline;fill:none;stroke:#000;stroke-width:.15875;stroke-miterlimit:2;stroke-dasharray:none"/><g style="display:inline;stroke-width:2.28287;stroke-dasharray:none"><path d="M7137.913 244.657c0 .014.084 2.571.062 1.765-.241-2.505-.362-5.023-.48-7.537-.358-7.753-.561-15.513-.514-23.275.088-14.68.223-29.394 1.56-44.021" style="fill:none;stroke:#000;stroke-width:2.28287;stroke-miterlimit:2;stroke-dasharray:none" transform="matrix(.05828 0 0 .05762 -321.02 74.29)"/><path d="M7157.835 193.418c-.817.19-2.446.253-3.012.27-11.981.366-23.976-.032-35.96.108" style="fill:none;stroke:#000;stroke-width:2.28287;stroke-miterlimit:2;stroke-dasharray:none" transform="matrix(.05828 0 0 .05762 -321.02 74.29)"/></g><path d="M97.901 87.982c-.125.149-.43.281-.616.338-.397.122-.72.15-1.14.082-.207-.049-.415-.127-.56-.28-.24-.215-.308-.587-.121-.85.077-.13.188-.246.314-.338.221-.163.474-.304.754-.352.173-.03.348 0 .435.155.064.112-.013.29-.1.358-.326.257-.668.323-1.047.36-.09.01-.317.015-.422.002M103.63 88.634c-.28-.017-.538-.135-.77-.281a1.842 1.842 0 0 1-.631-.694.998.998 0 0 1-.103-.577c.02-.124.121-.331.216-.154a.81.81 0 0 1-.086.835c-.197.283-.503.48-.827.594-.27.094-.614.074-.807-.157-.211-.24-.178-.597-.036-.862.193-.368.563-.578.903-.638.16-.028.424 0 .531.12" style="display:inline;fill:none;stroke:#000;stroke-width:.15875;stroke-miterlimit:2;stroke-dasharray:none"/><path d="M103.465 88.467c-.103-.893-.114-1.794-.13-2.692-.01-.607-.001-1.215.032-1.82" style="display:inline;fill:none;stroke:#000;stroke-width:.15875;stroke-miterlimit:2;stroke-dasharray:none"/><path d="M104.584 85.606a.217.217 0 0 0-.077-.012 35.258 35.258 0 0 0-2.205.068M109.838 85.213c-.041-.004-.076-.002-.111-.003-.286-.007-.57-.017-.857-.015-.264.001-.525.001-.805.013-.217.01-.442.014-.66.027a.494.494 0 0 1-.069 0" style="display:inline;fill:none;stroke:#000;stroke-width:.15875;stroke-miterlimit:2;stroke-dasharray:none"/><path d="M108.489 88.479c.008-.82-.008-1.63-.024-2.44-.016-.795-.04-1.581-.048-2.376M109.486 85.745c.031-.043.12-.055.178-.052.149.01.227.058.29.167a.216.216 0 0 1-.017.235.417.417 0 0 1-.199.136.522.522 0 0 1-.487-.108.31.31 0 0 1-.093-.153c-.018-.065.028-.18.094-.262a2.33 2.33 0 0 1 .054-.065M109.612 88.465c0-.194-.004-.394-.009-.587-.012-.44-.034-.88-.025-1.321M113.524 88.502c.042-.233.046-.509.033-.704-.018-.27-.053-.563-.236-.794-.117-.15-.365-.155-.54-.092-.39.14-.617.49-.718.864-.056.19-.08.389-.061.585.045.139.07-.02.069-.094a4.681 4.681 0 0 0-.108-.943c-.043-.188-.113-.374-.267-.507-.102-.089-.299-.083-.422-.016-.216.118-.373.295-.508.52-.167.3-.235.544-.267.878-.003.077-.014.262.02.278a7.284 7.284 0 0 1-.108-.939 3.793 3.793 0 0 1 .024-.71M116.394 87.918a2.643 2.643 0 0 1-.5.332c-.392.18-.74.276-1.184.203a.98.98 0 0 1-.704-.477.778.778 0 0 1 .154-.892c.23-.225.488-.336.79-.36.162-.014.3.012.383.054.103.052.178.152.114.252-.076.117-.21.192-.342.242a2.03 2.03 0 0 1-1.058.069M119.087 88.558c.005-.11 0-.22 0-.336 0-.417-.002-.691-.01-1.016-.018-.826-.036-1.982-.023-3.385" style="display:inline;fill:none;stroke:#000;stroke-width:.15875;stroke-miterlimit:2;stroke-dasharray:none"/><path d="M120.271 85.569c-.05.009-.149.01-.205.013-.075.002-.178.004-.297.005-.523.007-1.237.03-1.902.001M91.354 99.321c.015-.105.024-.258.03-.342.03-.473.04-1.434.02-2.017-.044-1.358.013-2.33-.016-3.553M89.638 99.274c-.003-.464-.013-.927-.022-1.39-.03-1.532.013-2.543-.005-4.179M90.55 100.192c.028-.037.074-.089.099-.117.14-.158.45-.46.63-.649.44-.462.85-.846 1.25-1.222M88.424 98.212c.164.16.331.318.498.476a47.95 47.95 0 0 1 1.622 1.595" style="display:inline;fill:none;stroke:#000;stroke-width:.15875;stroke-miterlimit:2;stroke-dasharray:none"/><path d="M-147.017 123.103c-2.158 3.911-5.443 7.552-9.788 8.983-2.96.976-6.11-.729-7.609-3.342-2.725-4.75-2.813-10.417-2.484-15.703.52-8.372 3.473-16.62 8.633-23.284 3.194-4.125 7.091-8.062 12.042-9.96 2.346-.9 5.502-1.282 7.322-.207.834.492 1.642 2.498 1.004 3.54M-72.173 132.267s.473 0 .707.034c.929.14 1.006.176 1.847.675.35.207.656.495.904.816 1.56 2.02.852 4.839-.503 6.76a10.506 10.506 0 0 1-1.838 2.008 14.278 14.278 0 0 1-2.624 1.717c-4.502 2.314-10.465 3.038-15.462 2.915a43.204 43.204 0 0 1-4.156-.314 43.001 43.001 0 0 1-3.97-.675c-4.295-.937-8.558-2.533-11.964-5.381a18.02 18.02 0 0 1-1.761-1.707 12.007 12.007 0 0 1-1.203-1.552c-.754-1.166-1.163-2.483-.222-3.661.106-.133.231-.26.382-.339a.346.346 0 0 1 .292-.01c.259.12.114.595.08.721-.376 1.431-1.104 2.764-1.875 4.005-1.077 1.734-1.67 2.626-3.222 4.044-1.482 1.356-3.165 2.443-5.082 3.088-2.813.945-3.698.85-6.66.614-1.277-.102-2.53-.457-3.748-.855-3.663-1.194-7.673-3.566-10.378-6.327-1.638-1.673-2.348-3.046-3.355-5.099-.396-.808-.657-1.68-.887-2.55-.59-2.232-.654-4.719-.033-6.955.055-.198.15-.383.226-.574" style="fill:none;stroke:#000;stroke-width:.264583;stroke-miterlimit:2;stroke-dasharray:none"/><path d="M-112.036 133.563c-1.433.995-.915 2.993-.024 4.205 3.549 4.829 9.348 7.305 15.038 8.488 6.958 1.447 14.39 1.394 21.134-1.008 3.513-1.251 7.047-3.742 7.941-7.591.51-2.195-.633-4.897-2.957-5.262-.368-.058-1.013-.412-1.27-.128M-111.744 133.552a.347.347 0 0 0-.292.01" style="fill:none;stroke:#000;stroke-width:.264583;stroke-miterlimit:2;stroke-dasharray:none"/><path d="M-146.678 123.664c-1.328 3.65-.475 7.77 1.237 11.17 2.126 4.221 6.087 7.14 10.229 9.15 2.801 1.36 5.87 2.17 9 2.194 3.87.03 7.613-1.826 10.232-4.606 1.759-1.865 3.19-4.099 4.07-6.503.154-.42.56-1.13.166-1.517M-43.83 123.07c1.04 1.718 2.99 2.756 4.654 3.843 2.734 1.786 6.617 3.228 9.536 1.239 3.035-2.067 3.33-6.174 3.635-9.546.649-7.196-.52-14.42-1.957-21.47-1.19-5.846-2.512-11.904-5.87-16.903-1.328-1.978-3.132-4.026-5.563-4.588-3.118-.72-5.698 2.038-7.066 4.53-.404.736-1.029 1.42-1.15 2.27" style="fill:none;stroke:#000;stroke-width:.264583;stroke-miterlimit:2;stroke-dasharray:none"/><path d="M-64.44 141.394c3.06 1.245 6.409 2.18 9.736 2.187.859.002 1.724-.036 2.57-.185.847-.149 1.685-.38 2.483-.703 2.523-1.019 4.516-2.883 6.1-5.055 1.449-1.985 1.786-2.71 2.723-4.962.889-2.137 1.444-4.454 1.286-6.798-.056-.841-.237-1.68-.783-2.35a2.192 2.192 0 0 0-.686-.542c-.68-.354-1.419-.34-2.167-.23-.116.017-.63.032-.652.315M-94.842 80.471c-1.243-1.659-.438-4.144.632-5.681 1.79-2.573 4.757-4.082 7.552-5.373 7.134-3.298 15.075-5.098 22.956-4.665 3.52.194 7.16.906 10.074 2.95 3.74 2.622 5.876 7.258 6.044 11.794.019.503-.198.981-.199 1.485" style="fill:none;stroke:#000;stroke-width:.264583;stroke-miterlimit:2;stroke-dasharray:none"/><path d="M-137.43 85.032c-.17-2.036.502-4.017 1.645-5.692 3.41-5 9.03-7.886 14.607-9.793 6.011-1.954 12.787-2.604 18.769-.203 3.929 1.67 6.517 5.508 7.869 9.43.062.417.618 1.987-.302 1.697" style="fill:none;stroke:#000;stroke-width:.264583;stroke-miterlimit:2;stroke-dasharray:none"/><path d="M-52.568 38.18s.2-.987.199-1.487c-.002-.708-.07-1.42-.21-2.115-.559-2.782-1.89-5.785-3.848-7.867-2.073-2.203-2.931-2.481-5.725-3.586-1.189-.47-2.467-.688-3.73-.887-5.476-.861-11.557-.095-16.888 1.28a52.215 52.215 0 0 0-4.007 1.214 50.46 50.46 0 0 0-3.681 1.442c-2.175.948-3.851 1.813-5.755 3.191-.696.504-1.38 1.037-1.982 1.649-.913.926-1.186 1.6-1.651 2.745-.151.373-.215.778-.281 1.175-.11.657-.16 1.956.286 2.547a.53.53 0 0 0 .213.188c.299.116.497.073.506-.347.023-1.197-.596-2.432-1.062-3.473-.318-.708-.7-1.389-1.127-2.036-1.037-1.568-2.305-3.096-3.87-4.174-1.664-1.147-3.726-1.81-5.684-2.188a25.079 25.079 0 0 0-3.557-.425 27.963 27.963 0 0 0-3.721.082c-4.792.415-9.668 1.986-13.916 4.216a29.834 29.834 0 0 0-2.892 1.71c-.881.598-1.73 1.25-2.522 1.962-1.878 1.69-3.733 3.962-4.5 6.415-.293.936-.24 1.865-.243 2.819" style="fill:#faa;stroke:#000;stroke-width:.264583;stroke-miterlimit:2;stroke-dasharray:none"/><path d="M-138.865 187.025c-1.838-2.306-4.829-4.43-7.901-3.424-3.79 1.624-6.28 5.186-8.301 8.63-3.5 6.468-5.38 13.817-5.543 21.16-.087 7.9 2.575 16.36 8.988 21.369 3.069 2.459 7.61 3.476 11.124 1.327 2.26-1.283 3.837-3.553 4.77-5.933" style="fill:none;stroke:#000;stroke-width:.264583;stroke-miterlimit:2;stroke-dasharray:none"/><path d="M-105.329 238.419c1.597.458.675 2.855.533 4.098-.706 3.293-2.448 6.28-4.56 8.865-3.611 3.943-9.46 5.639-14.601 4.11-6.805-1.776-12.087-7.874-13.199-14.77-.715-4.07.28-8.187 1.693-11.991" style="fill:none;stroke:#000;stroke-width:.264583;stroke-miterlimit:2;stroke-dasharray:none"/><path d="M-70.459 236.704c1.859-.845 3.993.523 4.469 2.397.636 2.587-.534 5.242-1.942 7.37-3.724 5.32-10.095 8.244-16.396 9.082-6.031.84-12.667-.775-16.927-5.308-2.58-2.767-4.473-6.3-4.942-10.078-.042-.661.08-1.587.868-1.748" style="fill:none;stroke:#000;stroke-width:.264583;stroke-miterlimit:2;stroke-dasharray:none"/><path d="M-40.89 222.21c2.486 1.23 3.247 4.285 3.133 6.853-.288 5.247-3.834 9.82-8.126 12.59-4.168 2.728-9.468 3.773-14.307 2.436a25.816 25.816 0 0 1-10.405-5.635c-.69-.53-.915-1.476.136-1.75" style="fill:none;stroke:#000;stroke-width:.264583;stroke-miterlimit:2;stroke-dasharray:none"/><path d="M-38.977 228.423s1.744.288 2.719.053c2.946-.712 6.213-2.957 8.014-5.361.909-1.213 1.635-2.565 2.262-3.944a29.998 29.998 0 0 0 1.632-4.62 31.13 31.13 0 0 0 .55-13.812c-.65-3.465-1.002-4.159-2.517-7.202-.476-.955-1.122-1.826-1.813-2.639-1.639-1.928-3.877-3.351-6.45-3.519-1.864-.122-2.435.159-4.07.9-.615.28-1.153.72-1.663 1.163-1.53 1.329-2.511 3.121-3.156 5.016-.171.5-.907 1.402-.396 1.537M-101.472 179.962c.445.199.757-.142.933-.51.703-1.468.491-3.283.155-4.77-.479-2.12-.772-3.125-2.157-4.95-2.2-2.9-5.583-4.627-9.101-5.327a21.853 21.853 0 0 0-4.281-.405 25.06 25.06 0 0 0-4.448.415c-5.238.955-10.695 3.617-14.28 7.619a16.632 16.632 0 0 0-2.02 2.774 14.755 14.755 0 0 0-1.257 2.909c-.982 3.093-.808 6.432.278 9.464.132.368.326.71.49 1.065" style="fill:none;stroke:#000;stroke-width:.264583;stroke-miterlimit:2;stroke-dasharray:none"/><path d="M-70.9 187.567c.911.312 1.73-1.505 1.864-1.741 1.615-2.829 2.79-5.914 3.28-9.122.394-2.58.681-4.25-.295-6.767-1.34-3.454-4.73-4.943-8.117-5.61a25.454 25.454 0 0 0-4.36-.457 31.24 31.24 0 0 0-4.572.26c-5.328.67-10.533 2.615-14.91 5.734a19.217 19.217 0 0 0-2.158 1.764 10.922 10.922 0 0 0-1.46 1.704c-1.296 1.895-1.56 4.273-.307 6.212.113.174.273.333.463.418" style="fill:none;stroke:#000;stroke-width:.264583;stroke-miterlimit:2;stroke-dasharray:none"/><path d="M-40.27 195.192s2.062-4.69 2.05-8.293c-.01-2.962-.75-5.595-2.532-7.994-.89-1.197-2.005-2.234-3.2-3.129-1.328-.996-2.793-1.818-4.308-2.497-4.587-2.056-9.348-2.81-14.227-1.341-2.465.742-3.551 1.668-5.425 3.292-.723.627-1.317 1.399-1.86 2.187-1.564 2.27-2.437 5.317-2.066 8.076.061.457.158.92.348 1.34.13.286.292.633.59.734M232.29 104.266c1.373 1.052 2.374 1.767 4.317 2.18 3.399.723 7.206.804 10.301-.898 3.071-1.688 6.157-4.892 7.274-9.088 1.398-5.253 1.437-11.953 0-19.004-1.19-5.845-2.981-9.824-6.15-13.79-1.488-1.86-4.397-4.155-6.875-4.443-3.776-.438-8.534 1.239-9.968 3.87-.402.737-1.394.881-1.515 1.732M-3.201 298.12c-1.97 1.836-3.957 2.625-7.28 2.568-3.116-.054-5.744-1.242-8.21-3.684-3.89-3.855-5.261-8.832-5.864-14.093-.956-8.334.503-16.972 4.414-24.438 2.42-4.621 5.567-9.18 10.108-11.918 2.152-1.297 4.846-1.96 6.797-1.864 1.264.062 3.289.567 4.394 1.846M33 299.121c-1.146.73-.412 5.35 1.214 7.728 3.3 4.829 7.643 7.57 12.5 9.02 6.37 1.9 13.383 1.527 19.654-.875 3.267-1.252 6.572-4.617 7.385-8.39.485-2.248-.803-4.624-1.14-4.197" style="fill:none;stroke:#000;stroke-width:.264583;stroke-miterlimit:2;stroke-dasharray:none"/><path d="M-2.903 297.641c-.411 3.86 1.084 7.627 3.383 10.566 2.83 3.62 7.876 6.208 13.505 6.823 2.942.321 6.71.192 9.556-.714 3.39-1.08 6.242-3.43 7.913-6.35 1.258-2.194 1.777-4.866 2.053-7.41.048-.443-.051-1.23-.5-1.513M72.613 302.407c.034 4.17 4 7.926 9.232 9.724 3.478 1.195 7.739 1.08 11.174-.09 2.778-.947 4.718-2.668 6.362-4.723 1.878-2.348 2.937-5.352 3.176-8.131.17-1.967-.143-4.16-1.47-5.414-.774-.708-1.56-1.191-1.719-.591M48.118 242.973c-1.009-1.811.122-4.166 1.389-5.546 2.119-2.309 5.058-3.84 7.923-4.968 6.102-2.404 13.18-2.746 20.93-1.26 3.464.665 9.517 2.791 12.031 5.31 2.561 2.565 3.994 5.15 3.994 8.77 0 2.263-.503 4.264-2.616 5.644" style="fill:none;stroke:#000;stroke-width:.264583;stroke-miterlimit:2;stroke-dasharray:none"/><path d="M1.158 246.537c-.142-2.039.638-4.004 1.931-5.652 3.86-4.92 10.104-7.674 16.282-9.45 6.656-1.813 14.126-2.304 20.657.236 4.288 1.762 7.054 5.659 8.458 9.612.06.418.638 2-.368 1.69" style="fill:none;stroke:#000;stroke-width:.264583;stroke-miterlimit:2;stroke-dasharray:none"/><path d="M99.368 293.182c1.55.768 2.67 1.276 4.657 1.307 3.474.054 7.225-.602 9.934-2.869 2.688-2.249 5.097-5.987 5.384-10.32.358-5.424-.896-12.007-3.665-18.647-2.297-5.506-4.822-9.065-8.697-12.344-1.818-1.54-5.115-3.23-7.602-3.034-3.79.299-8.135 2.862-9.035 5.72-.252.801-1.197 1.134-1.151 1.992" style="fill:none;stroke:red;stroke-width:.264583;stroke-miterlimit:2;stroke-dasharray:none"/><path d="M-25 48.316c-1.97 1.71-3.958 2.444-7.28 2.39-3.116-.05-5.745-1.155-8.21-3.429-3.891-3.588-5.262-8.222-5.865-13.119-.956-7.758.504-15.799 4.415-22.75 2.42-4.301 5.567-8.28 10.107-10.828 2.152-1.208 4.847-1.824 6.797-1.735 1.264.057 3.289.261 4.395 1.452M-20.641.297c.056-2.179 1.008-5.28 2.175-7.19 4.199-6.522 8.914-9.857 16.037-12.23 6.907-2.3 14.69-2.398 20.657.519 4.165 2.035 7.054 6.034 8.459 9.987.06.418.637 2.001-.369 1.69M59.806-10.799c-1.97 1.836-3.958 2.625-7.28 2.568-3.116-.053-5.744-1.241-8.21-3.684-3.89-3.854-5.261-8.832-5.865-14.093-.956-8.334.504-16.971 4.415-24.438 2.42-4.621 5.567-9.18 10.108-11.918 2.152-1.297 4.846-1.959 6.796-1.864 1.265.062 3.29.567 4.395 1.846" style="fill:none;stroke:#000;stroke-width:.264583;stroke-miterlimit:2;stroke-dasharray:none"/><path d="M64.165-62.382c-2.21-2.227-1.48-4.504-.419-6.31 1.51-2.569 4.96-5.055 9.608-7.475 7.87-4.1 22.303-4.373 29.68-1.08 4.233 1.89 7.054 5.658 8.46 9.611.06.419.637 2.001-.37 1.69M196.233-40.636c-1.147.73-.412 5.35 1.213 7.728 3.3 4.829 7.643 7.57 12.501 9.02 6.369 1.9 13.382 1.526 19.654-.876 3.267-1.25 6.571-4.616 7.384-8.388.485-2.25-.802-4.625-1.14-4.198" style="fill:none;stroke:#000;stroke-width:.264583;stroke-miterlimit:2;stroke-dasharray:none"/><path d="M160.33-42.116c-.412 3.86 1.084 7.627 3.382 10.566 2.83 3.619 7.876 6.208 13.505 6.823 2.942.32 6.71.191 9.556-.714 3.39-1.08 6.242-3.431 7.914-6.35 1.257-2.195 1.776-4.866 2.053-7.41.048-.444-.052-1.23-.501-1.514M235.845-37.35c.034 4.17 4 7.926 9.232 9.723 3.478 1.195 7.74 1.08 11.175-.09 2.777-.946 4.718-2.667 6.362-4.723 1.877-2.347 2.936-5.352 3.175-8.13.17-1.967-.142-4.16-1.469-5.415-.775-.707-1.56-1.19-1.72-.59M211.35-96.785c-1.008-1.81.123-4.165 1.39-5.545 2.118-2.309 5.058-3.84 7.922-4.969 6.103-2.404 13.18-2.746 20.93-1.259 3.464.665 9.518 2.79 12.032 5.31 2.56 2.565 3.993 5.149 3.993 8.77 0 2.263-.503 4.263-2.615 5.643" style="fill:none;stroke:#000;stroke-width:.264583;stroke-miterlimit:2;stroke-dasharray:none"/><path d="M262.6-46.575c1.551.768 2.671 1.276 4.657 1.306 3.475.054 7.226-.601 9.935-2.868 2.687-2.249 5.097-5.988 5.383-10.32.359-5.425-.896-12.007-3.665-18.648-2.296-5.506-4.822-9.064-8.696-12.344-1.819-1.539-5.115-3.229-7.603-3.033-3.79.298-8.134 2.861-9.034 5.72-.252.801-1.198 1.134-1.152 1.992M160.297-41.862c-1.97 1.762-3.957 2.52-7.279 2.465-3.116-.052-5.745-1.192-8.21-3.536-3.891-3.7-5.262-8.477-5.865-13.527-.956-8 .504-16.29 4.415-23.456 2.42-4.435 5.567-8.811 10.107-11.439 2.152-1.245 4.847-1.88 6.797-1.789 1.264.06 3.289.544 4.395 1.772" style="fill:none;stroke:#000;stroke-width:.264583;stroke-miterlimit:2;stroke-dasharray:none"/><path d="M164.512-91.367c-2.36-2.068-1.659-4.823-.858-6.266 1.925-3.466 4.942-5.875 9.063-8.127 8.507-4.649 21.895-5.777 29.533-3.148 4.52 1.556 8.296 5.02 9.175 8.998.091.413.51 2.051-.316 1.711" style="fill:none;stroke:#000;stroke-width:.264583;stroke-miterlimit:2;stroke-dasharray:none"/><path d="M-43.253 74.203c-.087.026-.177.046-.261.08-.585.228-1.137.6-1.514 1.104a2.643 2.643 0 0 0-.432.854c-.148.522-.085 1.125.21 1.586.328.515.975.796 1.458.924.608.162 1.367.077 1.814-.06.82-.25 1.36-.632 1.691-1.192.228-.386.294-.787.267-1.187a1.714 1.714 0 0 0-.364-.934c-.277-.352-.522-.556-.894-.74a3.764 3.764 0 0 0-1.306-.362c-.462-.045-.72-.047-1.141.055" style="fill:#e5f6ff;fill-opacity:1;stroke:#000;stroke-width:.238125;stroke-miterlimit:2;stroke-dasharray:none"/><path d="M281.72 25.013c-.411 3.86 1.084 7.626 3.383 10.565 2.83 3.62 7.876 6.209 13.505 6.824 2.942.32 6.71.191 9.555-.715 3.391-1.08 6.243-3.43 7.914-6.349 1.258-2.195 1.777-4.866 2.053-7.41.048-.444-.051-1.23-.504-1.475-1.15.77-.415 5.39 1.21 7.768 3.301 4.828 7.644 7.57 12.502 9.02 6.368 1.9 13.382 1.526 19.653-.876 3.267-1.251 6.571-4.616 7.385-8.389.485-2.248-.803-4.624-1.14-4.198.034 4.17 4 7.927 9.232 9.724 3.478 1.195 7.739 1.08 11.174-.09 2.778-.947 4.718-2.667 6.362-4.723 1.878-2.347 2.937-5.352 3.176-8.13.17-1.967-.143-4.16-1.47-5.415-.774-.707-1.56-1.19-1.719-.59 1.55.767 2.67 1.276 4.657 1.306 3.474.054 7.225-.602 9.934-2.868 2.688-2.25 5.097-5.988 5.384-10.32.358-5.425-.582-12.155-3.478-18.742-2.296-5.224-5.197-9.158-8.884-12.25-1.825-1.53-5.108-3.014-7.602-2.963-3.02.062-5.89 1.47-7.607 3.446 2.11-1.249 2.613-3.25 2.613-5.512 0-3.621-1.433-6.205-3.994-8.771-2.514-2.519-8.568-4.645-12.03-5.309-7.752-1.487-14.829-1.145-20.932 1.26-2.864 1.128-5.803 2.659-7.922 4.968-1.267 1.38-2.24 3.777-1.63 4.131.825.34.407-1.298.316-1.711-.88-3.979-4.655-7.442-9.175-8.998-7.639-2.63-21.026-1.501-29.533 3.147-4.122 2.253-7.138 4.662-9.063 8.128-.801 1.443-1.502 4.198.93 6.263-1.034-1.23-3.058-1.715-4.322-1.774-1.95-.091-4.645.544-6.797 1.789-4.54 2.627-7.687 7.004-10.108 11.439-3.91 7.166-5.37 15.457-4.415 23.456.604 5.05 1.974 9.827 5.865 13.527 2.466 2.344 5.094 3.484 8.21 3.535 3.322.055 5.53-.815 7.5-2.577M333.095 129.092c-.412 3.86 1.084 7.627 3.382 10.566 2.831 3.619 7.876 6.208 13.506 6.823 2.942.32 6.71.191 9.555-.715 3.391-1.08 6.242-3.43 7.914-6.349 1.257-2.195 1.776-4.866 2.053-7.41.048-.444-.052-1.23-.504-1.474-1.15.769-.415 5.389 1.21 7.767 3.3 4.829 7.643 7.57 12.501 9.02 6.37 1.9 13.382 1.526 19.654-.876 3.267-1.251 6.571-4.616 7.385-8.389.485-2.248-.803-4.624-1.14-4.198.033 4.17 4 7.927 9.231 9.724 3.479 1.195 7.74 1.08 11.175-.09 2.778-.947 4.718-2.667 6.362-4.723 1.877-2.347 2.936-5.352 3.176-8.13.169-1.967-.143-4.16-1.47-5.415-.775-.707-1.56-1.19-1.719-.59 1.55.768 2.67 1.276 4.657 1.306 3.474.054 7.225-.601 9.934-2.868 2.687-2.249 5.097-5.988 5.383-10.32.359-5.425-.582-12.155-3.477-18.742-2.296-5.224-5.197-9.158-8.884-12.25-1.826-1.53-5.108-3.014-7.603-2.963-3.02.063-5.89 1.47-7.607 3.446 2.11-1.249 2.614-3.25 2.614-5.512 0-3.621-1.433-6.205-3.994-8.77-2.514-2.52-8.568-4.646-12.031-5.31-7.751-1.487-14.828-1.145-20.93 1.26-2.865 1.128-5.805 2.659-7.924 4.968-1.266 1.38-2.239 3.777-1.63 4.131.826.34.408-1.298.316-1.711-.88-3.978-4.654-7.442-9.175-8.998-7.638-2.63-21.025-1.501-29.533 3.148-4.12 2.252-7.138 4.661-9.062 8.127-.802 1.443-1.503 4.198.93 6.263-1.034-1.23-3.059-1.715-4.323-1.774-1.95-.091-4.644.544-6.796 1.79-4.541 2.627-7.688 7.003-10.108 11.438-3.911 7.167-5.37 15.457-4.415 23.456.604 5.05 1.974 9.827 5.865 13.527 2.466 2.344 5.096 3.412 8.21 3.535 3.158.126 6.211-.228 8.181-1.99" style="fill:#e5f6ff;fill-opacity:1;stroke:#000;stroke-width:.264583;stroke-miterlimit:2;stroke-dasharray:none"/></svg>