<svg xmlns="http://www.w3.org/2000/svg" width="500" height="270" viewBox="0 0 132.292 71.437"><g transform="matrix(.26458 0 0 .26458 23.88 -92.467)"><ellipse cx="118.462" cy="466.74" rx="9.002" ry="8.766" style="fill:#fcff80;fill-opacity:1;stroke:#000;stroke-width:.986833;stroke-dasharray:none;stroke-opacity:1"/><path d="M120.53 471.246q0 .112-.31.112H119.516q-.534-.014-1.083-.014-.972 0-1.24.014-.267.014-.421.014-.338 0-.338-.126t.197-.126q.31 0 .661-.014.437-.014.465-.21.042-.21.042-.881v-6.575q0-.448-.028-.532-.028-.083-.197-.083-.07 0-.915.07-.169.013-.225.013-.17 0-.17-.097 0-.112.17-.126.661-.07 1.337-.392.676-.336 1.084-.783.155-.126.211-.126.113 0 .113.14v.265q-.014.112-.014.252v8.366q0 .503.042.587.056.084.352.098l.323.014.24.014h.21q.198 0 .198.126z" style="font-size:36.4174px;font-family:&quot;Bodoni 72&quot;;-inkscape-font-specification:&quot;Bodoni 72, &quot;;fill:#000;fill-opacity:1;stroke:#000;stroke-width:.2;stroke-dasharray:none"/></g><g transform="matrix(.26458 0 0 .26458 -5.709 -77.932)"><ellipse cx="152.862" cy="466.74" rx="9.002" ry="8.766" style="fill:#8dff80;fill-opacity:1;stroke:#000;stroke-width:.986833;stroke-dasharray:none;stroke-opacity:1"/><path d="M156.044 468.749q0 .042-.028.223-.07.462-.225 2.28l-.014.169q-1.45-.07-3.308-.07-1 0-1.873.028-.872.028-.76.028-.38 0-.38-.14 0-.112.732-.7 1.76-1.427 2.506-2.322 1.295-1.553 1.295-3.651 0-1.413-.591-2.14-.45-.56-1.267-.56-.803 0-1.267.49-.366.377-.366.755 0 .238.38.252.985.042.985.853 0 .77-.816.77-.521 0-.83-.322-.31-.322-.31-.882 0-1.035.732-1.664.732-.63 1.928-.63 1.197 0 1.985.756.915.88.915 2.294 0 1.553-1.042 2.868-1.041 1.3-3.505 2.84.93-.029 2.337-.029 1.168 0 1.478-.028.31-.042.549-.181.197-.126.338-.938.098-.56.281-.56.141 0 .141.21z" style="font-size:36.4174px;font-family:&quot;Bodoni 72&quot;;-inkscape-font-specification:&quot;Bodoni 72, &quot;;fill:#000;fill-opacity:1;stroke:#000;stroke-width:.2;stroke-dasharray:none;stroke-opacity:1"/></g><g transform="matrix(.26458 0 0 .26458 16.017 -60.53)"><ellipse cx="179.883" cy="466.74" rx="9.002" ry="8.766" style="fill:#80edff;fill-opacity:1;stroke:#000;stroke-width:.986833;stroke-dasharray:none;stroke-opacity:1"/><path d="M183.273 468.956q0 1.161-.943 1.987-1.042.91-2.66.91-1.324 0-1.943-.616-.394-.392-.394-.896 0-.433.267-.685.282-.266.746-.266.366 0 .606.21t.24.531q0 .49-.663.77-.267.112-.267.224 0 .181.366.335.366.14.802.14 1.07 0 1.732-.727.675-.728.675-1.903 0-2.364-2.14-2.364-.21 0-.309.014h-.098q-.183 0-.183-.126 0-.098.338-.154.985-.14 1.52-.713.535-.588.535-1.497 0-.895-.465-1.427-.464-.545-1.253-.545-.577 0-1.013.251-.422.238-.422.56 0 .126.197.168.929.224.929.77 0 .713-.746.713-.479 0-.775-.28-.281-.28-.281-.742 0-.755.647-1.259.662-.517 1.83-.517 1.338 0 2.041.685.704.686.704 1.595 0 1.26-1.196 1.86-.423.21-1.366.35v.098q1.169.042 1.887.518 1.055.7 1.055 2.028z" style="font-size:36.4174px;font-family:&quot;Bodoni 72&quot;;-inkscape-font-specification:&quot;Bodoni 72, &quot;;fill:#000;stroke:#000;stroke-width:.2;stroke-dasharray:none"/></g><g transform="matrix(.26458 0 0 .26458 30.627 -76.38)"><ellipse cx="225.783" cy="466.74" rx="9.002" ry="8.766" style="fill:#80beff;fill-opacity:1;stroke:#000;stroke-width:.986833;stroke-dasharray:none;stroke-opacity:1"/><path d="M228.749 469.725q0 .14-.14.14-.128 0-.17-.154-.028-.168-.098-.881-.028-.112-.113-.168-.169-.098-.746-.098-.155 0-.296.014l.014 2.196q.07.168.226.21.169.042.802.042.31 0 .366.056.014.028.014.084 0 .098-.563.098t-3.153.028q-.14.014-.31.014-.281 0-.281-.14t.408-.126q.479.014.873-.056.169-.028.21-.14.043-.126.043-.532v-1.692q-.281-.014-.647-.014h-.578q-.197 0-.436.014h-.267l-1.788-.042q-.197-.014-.197-.112 0-.07 2.069-2.896.648-.91 2.858-4 .098-.14.197-.14.14 0 .14.265v6.575h.141q.479 0 .746-.056.282-.056.282-.28-.014-.881-.014-.601.014-.504.154-.504.198 0 .198.392v.63l.014 1.007q.014.517.028.657.014.126.014.21zm-2.83-6.24q-.14.225-.59.854-.62.853-1.873 2.546l-1 1.357q.521.042 2.239.042.605 0 1.14-.014v-.993q0-.7.042-1.889.042-1.399.042-1.902z" style="font-size:36.4174px;font-family:&quot;Bodoni 72&quot;;-inkscape-font-specification:&quot;Bodoni 72, &quot;;fill:#000;fill-opacity:1;stroke:#000;stroke-width:.2;stroke-dasharray:none;stroke-opacity:1"/></g><g transform="matrix(.26458 0 0 .26458 13.38 -92.653)"><ellipse cx="242.439" cy="466.74" rx="9.002" ry="8.766" style="fill:#b580ff;fill-opacity:1;stroke:#000;stroke-width:.986833;stroke-dasharray:none;stroke-opacity:1"/><path d="M245.394 468.366q0 1.79-1.38 2.742-.83.573-2.153.573t-1.942-.685q-.338-.378-.338-.895 0-.434.281-.7.282-.28.732-.28.366 0 .606.21.253.21.253.518 0 .517-.69.783-.31.112-.31.252 0 .224.409.406.422.168.929.168.985 0 1.478-.672.675-.923.675-2.49 0-1.147-.534-1.777-.535-.63-1.52-.63-.76 0-1.676.574.085-3.147.127-3.973.014-.475.211-.573.197-.112 1.07-.112h.478q.338.014.535.014h.479q.971 0 1.126-.028.169-.042.211-.238.057-.322.197-.322.141 0 .141.154 0 .098-.014.154l-.028.322q-.07.783-.296.98-.21.181-1.055.181l-2.69-.014q-.055.476-.098 2.868.803-.364 1.676-.364 1.45 0 2.28.77.83.755.83 2.084z" style="font-size:36.4174px;font-family:&quot;Bodoni 72&quot;;-inkscape-font-specification:&quot;Bodoni 72, &quot;;fill:#000;stroke:#000;stroke-width:.2;stroke-dasharray:none"/></g><g transform="matrix(.26458 0 0 .26458 2.974 -112.858)"><ellipse cx="273.804" cy="466.74" rx="9.002" ry="8.766" style="fill:#ec80ff;fill-opacity:1;stroke:#000;stroke-width:.986833;stroke-dasharray:none;stroke-opacity:1"/><path d="M276.571 468.394q0 1.357-.83 2.322-.83.965-1.985.965-1.45 0-2.35-1.189-.901-1.189-.901-3.091 0-1.749.76-3.19.774-1.44 2.055-2.098 1.07-.546 2.337-.546.295 0 .295.112 0 .098-.197.112-1.267.112-2.238.91-1.267 1.035-1.492 3.525.774-.728 1.745-.728.789 0 1.478.42 1.323.797 1.323 2.476zm-1.45.042q0-2.602-1.618-2.602-.732 0-1.126.63-.394.615-.394 1.734 0 1.609.577 2.602.366.63 1.07.63 1.492 0 1.492-2.994z" style="font-size:36.4174px;font-family:&quot;Bodoni 72&quot;;-inkscape-font-specification:&quot;Bodoni 72, &quot;;fill:#000;fill-opacity:1;stroke:#000;stroke-width:.2;stroke-dasharray:none;stroke-opacity:1"/></g><g style="stroke-width:.956817"><path d="M48.848 40.505c.86-.142 1.736-.097 2.603-.084 1.438.026 2.876.05 4.314.059 1.453.003 2.906.005 4.358.005l3.919.008c1.073.001 2.147-.002 3.22.017.308.006.617.01.925.02v-1.565c-.308.009-.617.014-.925.02-1.073.019-2.147.015-3.22.016-1.307.002-2.613.007-3.919.01-1.45 0-2.9.002-4.35-.009-1.43-.01-2.861-.019-4.292-.065-.946-.031-1.895-.084-2.84.015l.207 1.552z" style="fill:#fcff80;fill-opacity:1;stroke:#000;stroke-width:.278474" transform="matrix(1.04497 -.00453 .00452 1.04527 -6.714 .053)"/><path d="M52.412 35.779c-.683.603-1.429 1.13-2.166 1.663-.54.396-1.088.77-1.723.99a1.519 1.519 0 0 0-.823.445c-.052.238-.157.47-.154.714.004.382.848.956 1.098 1.15.998.747 2.01 1.475 2.98 2.258.217.196.453.369.673.56l.967-1.225c-.238-.172-.483-.334-.707-.525-.985-.75-1.992-1.473-2.954-2.253-.446-.378-.156-.123-.52-.462l-.064-.056c-.005-.005-.016-.019-.014-.013.155.46.128.06-.086.861-.05.049-.064.069-.122.1-.023.012-.098.027-.074.018.115-.045.24-.063.352-.12.748-.301 1.42-.73 2.06-1.218.763-.558 1.529-1.11 2.28-1.684l-1.003-1.203z" style="fill:#fcff80;fill-opacity:1;stroke:#000;stroke-width:.278474" transform="matrix(1.04497 -.00453 .00452 1.04527 -6.714 .053)"/></g><g style="stroke-width:.956817"><path d="M49.141 54.146c-.166-.863-.12-1.75-.103-2.624.008-1.344.051-2.806.07-4.15.013-1.461-.023-2.923-.06-4.384-.028-1.105-.083-2.209-.05-3.314l-1.522-.033c-.016 1.131.05 2.26.087 3.39.045 1.437.081 2.876.057 4.314-.03 1.341-.053 2.8-.075 4.141-.03.99-.079 1.988.057 2.973l1.54-.313z" style="fill:#8dff80;fill-opacity:1;stroke:#000;stroke-width:.278474" transform="matrix(1.04497 -.00453 .00452 1.04527 -6.714 .053)"/><path d="M44.278 51.633c.745.815 1.383 1.721 2.016 2.625.409.625.81 1.256 1.184 1.902.23.416.441.465 1.096.418.235-.016.394-.377.513-.538.479-.721 1.091-1.34 1.684-1.967a46.425 46.425 0 0 0 1.566-1.665l-1.198-.988c-.439.58-.947 1.1-1.45 1.623-.648.675-1.321 1.333-1.878 2.088-.296.42-.008-.014.14-.007.293.016.576.116.856.205.033.01.09.09.056.088-.035-.003-.04-.059-.06-.088-.432-.641-.86-1.286-1.293-1.927-.67-.95-1.345-1.9-2.065-2.814l-1.167 1.044z" style="fill:#8dff80;fill-opacity:1;stroke:#000;stroke-width:.278474" transform="matrix(1.04497 -.00453 .00452 1.04527 -6.714 .053)"/></g><g style="stroke-width:.956817"><path d="M48.506 56.943c1.464-.264 2.965-.275 4.448-.327 3.54-.054 7.082.014 10.623.053 3.77.061 7.54.037 11.311.036 2.484-.024 4.969.041 7.452.004.503-.01 1.005-.031 1.507-.053l-.12-1.535c-.476.055-.953.096-1.431.12-2.469.114-4.943.085-7.413.134-3.764.031-7.528.032-11.291.005-3.558-.044-7.115-.159-10.673-.177-1.587.023-3.185.014-4.762.218l.349 1.522z" style="fill:#80edff;fill-opacity:1;stroke:#000;stroke-width:.278474" transform="matrix(1.04497 -.00453 .00452 1.04527 -6.714 .053)"/><path d="M79.931 53.652c.904.326 1.673.954 2.448 1.507.66.51 1.372.955 1.99 1.517l.077.076c.118.121-.04-.011-.03-.037.172-.414.391-.805.587-1.208-1.14.216-2.17.865-3.116 1.51-.502.373-1 .758-1.437 1.208l1.166 1.056c.318-.4.735-.712 1.126-1.034.693-.493 1.487-1.024 2.342-1.16.686-1.23.977-1.025.293-1.6-.685-.548-1.434-1.005-2.134-1.533-.92-.663-1.82-1.407-2.891-1.812l-.421 1.51z" style="fill:#80edff;fill-opacity:1;stroke:#000;stroke-width:.278474" transform="matrix(1.04497 -.00453 .00452 1.04527 -6.714 .053)"/></g><g style="stroke-width:.956817"><path d="M85.43 55.976c-.04-1.402-.047-2.806-.056-4.209-.037-2.197.084-4.39.185-6.583.073-1.582.115-3.166.156-4.75.014-.512.006-.278.022-.701l-1.553-.017c.009.417.005.186.01.69a110.8 110.8 0 0 1-.093 4.688c-.093 2.223-.2 4.446-.185 6.673-.01 1.403-.015 2.807-.055 4.21h1.568z" style="fill:#80beff;fill-opacity:1;stroke:#000;stroke-width:.278474" transform="matrix(1.04469 -.02469 .02468 1.04499 -7.644 1.782)"/><path d="M82.677 44.057a43.984 43.984 0 0 0 2.169-3.568c.185-.361.39-.714.549-1.09.007-.02.045-.066.023-.062-.455.075-.9.206-1.353.284-.019.003-.045-.061-.037-.044.175.369.411.714.63 1.057.677 1.042 1.482 1.991 2.326 2.9-.046-.04.48.489.37.405l1.301-.893c-.168-.215-.37-.392-.572-.576-.805-.794-1.55-1.653-2.136-2.626-.172-.294-.33-.584-.478-.89-.045-.091-.035-.268-.137-.274-1.314-.075-1.629.625-1.417.164-.07.333-.298.626-.408.943-.571 1.14-1.204 2.265-2.016 3.253l1.186 1.017z" style="fill:#80beff;fill-opacity:1;stroke:#000;stroke-width:.278474" transform="matrix(1.04469 -.02469 .02468 1.04499 -7.644 1.782)"/></g><g style="stroke-width:.956817"><path d="M84.736 38.833c-.87.127-1.75.133-2.626.153-1.37.067-2.741.044-4.112.071-1.365.028-2.729.031-4.093-.004a220.064 220.064 0 0 0-3.838-.184c-.55-.022-1.102-.04-1.653-.066l-.01 1.571a35.373 35.373 0 0 1 1.625-.005c1.282.026 2.562.097 3.843.16 1.385.038 2.77.04 4.154.01 1.37-.03 2.737-.012 4.105-.066.936-.01 1.875-.01 2.809-.088l-.204-1.552z" style="fill:#b580ff;fill-opacity:1;stroke:#000;stroke-width:.278474" transform="matrix(1.04497 -.00453 .00452 1.04527 -6.714 .053)"/><path d="M74.25 42.624c-.714-.683-1.484-1.308-2.234-1.95-.72-.655-1.482-1.26-2.33-1.74-.283-.112-.427-.365-.132.03.077.715.128.266-.194.878-.007.014.03-.009.044-.014.067-.025.132-.053.198-.076.253-.09.508-.173.76-.26.955-.369 1.88-.82 2.732-1.388.243-.17.485-.347.665-.585l.085-.162-1.478-.576.077-.145c.17-.208-.18.223-.233.203-.706.523-1.502.915-2.329 1.209-.579.184-1.571.329-1.805.994-.062.177.021.374.031.56.064.097.122.197.191.29.153.2.444.29.654.405.774.388 1.447.932 2.087 1.51.674.584 1.361 1.16 1.985 1.797l1.226-.98z" style="fill:#b580ff;fill-opacity:1;stroke:#000;stroke-width:.278474" transform="matrix(1.04497 -.00453 .00452 1.04527 -6.714 .053)"/></g><path d="M65.649 40.726c-.148-1.384-.113-2.787-.072-4.18.108-2.477.15-4.958.173-7.44.023-2.713.026-5.428.032-8.142.005-2.154.013-4.307.017-6.46-.05-1.853-.082-3.707-.154-5.558-.05-1.532-.157-3.067-.117-4.601.02-.386.019-.43.05-.787.023-.27-.007-.324.038-.22l-1.57-.622c-.09.525-.108 1.055-.114 1.593-.003 1.582.1 3.162.157 4.741.068 1.817.101 3.637.155 5.454.006 2.153.016 4.306.02 6.459.004 2.704.006 5.409-.022 8.113-.034 2.46-.085 4.92-.209 7.375-.061 1.514-.103 3.031-.007 4.544l1.623-.269z" style="fill:#ec80ff;fill-opacity:1;stroke:#000;stroke-width:.291041"/><path d="M61.571 7.024a76.903 76.903 0 0 1 2.045-2.314c.361-.377.706-.771 1.08-1.137.06-.059.243-.25.346-.282-.038.025-.068.071-.113.076-.221.023-.452-.055-.666.005-.117.033.234.075.355.082.204.01.34-.055.507-.148.06-.034-.125.06-.187.09-.163-.001-.326.004-.488-.004-.032-.001-.11-.057-.09-.033.204.23.438.446.647.672.66.724 1.35 1.423 1.96 2.19.086.135.54.678.55.845.002.029-.028-.049-.043-.074l-.04-.368 1.636.253-.033-.415c-.203-.463-.515-.868-.831-1.258-.646-.768-1.357-1.48-2.013-2.238-.23-.264-.8-1.062-1.176-1.127-.182-.032-.37-.019-.554-.028-.557.245-.001-.029.204-.013.106.009.414.065.309.08-.238.034-.482-.044-.721-.02-.073.006-.126.072-.19.109-.597.499-1.058 1.136-1.6 1.69-.679.741-1.355 1.484-2.055 2.205l1.161 1.162z" style="fill:#ec80ff;fill-opacity:1;stroke:#000;stroke-width:.291042"/><path d="M37.611-28.493a.826.826 0 0 1 .646.03c.42.18.705.635.637 1.08-.044.338-.312.627-.612.777-.302.149-.676.216-1.008.103-.274-.089-.498-.328-.523-.612-.042-.398.182-.794.509-1.027.043-.03.089-.058.136-.083" style="display:inline;fill:none;stroke:#000;stroke-width:.264584;stroke-dasharray:none;stroke-opacity:1"/><path d="M52.096 36.766c.146.08.285.087.447.043a.175.175 0 0 0 .084-.036c.008-.007.024-.029.024-.043-.008-.131-.278-.088-.355-.066" style="display:inline;fill:none;stroke:#000;stroke-width:.264583;stroke-dasharray:none;stroke-opacity:1"/><path d="M49.737 34.802c.271-.155.572-.286.894-.313.075-.006.184-.007.258 0 .163.016.376.053.406.257.031.209-.12.374-.26.505-.124.114-.229.18-.368.26.108.017.313.051.427.098.215.089.4.204.515.384.135.213.045.428-.116.558-.124.1-.31.187-.441.231-.271.09-.539.108-.87.064-.14-.02-.271-.08-.363-.118a1.122 1.122 0 0 1-.222-.135" style="display:inline;fill:none;fill-opacity:1;stroke:#000;stroke-width:.264583;stroke-linecap:butt;stroke-linejoin:miter;stroke-miterlimit:4;stroke-dasharray:none;stroke-opacity:1"/><path d="M49.44 35.96h-.113c-.207 0-.414-.003-.62-.005a12.297 12.297 0 0 0-.637.007l-.347.009M53.065 36.682c.365.107.743.158 1.113.117.277-.03.495-.09.706-.22.13-.08.174-.226.11-.351-.135-.262-.406-.442-.676-.56a2.066 2.066 0 0 0-.207-.075c-.07-.017-.08-.008.003-.031.065-.038.209-.098.273-.132.221-.117.369-.258.439-.465.034-.101.018-.237-.101-.313-.171-.11-.435-.123-.637-.107-.386.03-.746.127-1.088.28" style="display:inline;fill:none;stroke:#000;stroke-width:.264583;stroke-dasharray:none"/><g style="stroke-width:.192821;stroke-dasharray:none"><path d="M60.34 29.033c.044-.067.093-.132.133-.188.208-.294.41-.591.61-.888a6.29 6.29 0 0 1 .362-.489.03.03 0 0 0 .008-.019c0-.027-.132-.018-.15-.019a19.957 19.957 0 0 0-1.646.002" style="display:inline;fill:none;stroke:#000;stroke-width:.192821;stroke-dasharray:none" transform="matrix(1.35608 0 0 1.38846 -25.646 -3.472)"/><path d="M60.335 28.3c.208-.003.335.01.543.007.076-.001.17.002.215 0 .008 0 .139-.005.158-.008" style="display:inline;fill:#000;stroke:#000;stroke-width:.192821;stroke-dasharray:none" transform="matrix(1.35608 0 0 1.38846 -25.646 -3.472)"/></g><g style="display:inline;stroke-width:4.16869;stroke-dasharray:none"><path d="M-698.623-3366.226c-1.298-.16-2.924.066-4.477.16-6.92.424-11.25.877-18.25 1.137" style="fill:none;stroke:#000;stroke-width:4.16869;stroke-dasharray:none;stroke-opacity:1" transform="matrix(.06712 0 0 .06002 106.565 236.755)"/><path d="M-722.041-3336.057c.11 1.695 2.161 1.931 3.452 2.419 5.983 2.257 12.145 1.713 18.033.343 3.1-.722 6.557-2.392 7.683-5.607 1.097-3.133-.41-6.367-2.215-8.836-3.398-4.652-9.65-7.174-15.36-6.695-1.805.15-3.6.397-5.298 1.144-1.65.725-3.238 1.513-4.567 2.705-.295-.236-.132-1.545-.124-2.32l.124-12.716" style="fill:none;stroke:#000;stroke-width:4.16869;stroke-dasharray:none;stroke-opacity:1" transform="matrix(.06712 0 0 .06002 106.565 236.755)"/></g><path d="M34.968 51.98c.178-.05.23-.139.19-.316-.012-.025-.037-.063-.063-.075-.076-.063-.217-.026-.255.063-.038.1-.025.252-.012.34" style="display:inline;fill:none;stroke:#000;stroke-width:.264583;stroke-dasharray:none;stroke-opacity:1"/><g style="stroke-width:1.03241"><path d="M36.01 52.368a6.61 6.61 0 0 0 .171-.322c.197-.389.363-.792.53-1.195.083-.2.165-.402.244-.605.02-.052.07-.174.089-.234a.661.661 0 0 0 .018-.071.218.218 0 0 0 .005-.048c-.002-.081-.108-.078-.164-.078-.31.002-.619.041-.929.048-.327.007-.654.012-.981.01" style="display:inline;fill:none;stroke:#000;stroke-width:.273159;stroke-dasharray:none" transform="matrix(.96972 0 0 .96749 .998 1.204)"/><path d="M37.295 51.074c-.204.031-.413.013-.589.02-.325.004-.651.005-.976.026" style="display:inline;fill:#000;stroke:#000;stroke-width:.273159;stroke-dasharray:none" transform="matrix(.96972 0 0 .96749 .998 1.204)"/></g><path d="M29.65 51.08c.293 0 .586.006.88.009l.744.005h.075M34.354 51.852c-.013-.006-.025-.014-.036-.02-.288-.087-.592-.106-.891-.126-.416-.011-.833 0-1.24.097-.116.027-.236.049-.338.111v.02c0 .004.005-.005.009-.007l.101-.058c.28-.168.535-.37.761-.604.147-.152.205-.208.34-.372.199-.24.38-.496.536-.764.091-.156.27-.448.182-.639a.193.193 0 0 0-.052-.067.278.278 0 0 0-.083-.044c-.243-.088-.545-.036-.794.022a4.313 4.313 0 0 0-.896.295" style="display:inline;fill:none;stroke:#000;stroke-width:.264583;stroke-dasharray:none"/><g transform="matrix(.26458 0 0 .26458 -69.136 -8.16)"><ellipse cx="118.462" cy="466.74" rx="9.002" ry="8.766" style="fill:#fcff80;fill-opacity:1;stroke:#000;stroke-width:.986833;stroke-dasharray:none;stroke-opacity:1"/><path d="M120.53 471.246q0 .112-.31.112H119.516q-.534-.014-1.083-.014-.972 0-1.24.014-.267.014-.421.014-.338 0-.338-.126t.197-.126q.31 0 .661-.014.437-.014.465-.21.042-.21.042-.881v-6.575q0-.448-.028-.532-.028-.083-.197-.083-.07 0-.915.07-.169.013-.225.013-.17 0-.17-.097 0-.112.17-.126.661-.07 1.337-.392.676-.336 1.084-.783.155-.126.211-.126.113 0 .113.14v.265q-.014.112-.014.252v8.366q0 .503.042.587.056.084.352.098l.323.014.24.014h.21q.198 0 .198.126z" style="font-size:36.4174px;font-family:&quot;Bodoni 72&quot;;-inkscape-font-specification:&quot;Bodoni 72, &quot;;fill:#000;fill-opacity:1;stroke:#000;stroke-width:.2;stroke-dasharray:none"/></g><g transform="matrix(.26458 0 0 .26458 -98.373 3.968)"><ellipse cx="152.862" cy="466.74" rx="9.002" ry="8.766" style="fill:#8dff80;fill-opacity:1;stroke:#000;stroke-width:.986833;stroke-dasharray:none;stroke-opacity:1"/><path d="M156.044 468.749q0 .042-.028.223-.07.462-.225 2.28l-.014.169q-1.45-.07-3.308-.07-1 0-1.873.028-.872.028-.76.028-.38 0-.38-.14 0-.112.732-.7 1.76-1.427 2.506-2.322 1.295-1.553 1.295-3.651 0-1.413-.591-2.14-.45-.56-1.267-.56-.803 0-1.267.49-.366.377-.366.755 0 .238.38.252.985.042.985.853 0 .77-.816.77-.521 0-.83-.322-.31-.322-.31-.882 0-1.035.732-1.664.732-.63 1.928-.63 1.197 0 1.985.756.915.88.915 2.294 0 1.553-1.042 2.868-1.041 1.3-3.505 2.84.93-.029 2.337-.029 1.168 0 1.478-.028.31-.042.549-.181.197-.126.338-.938.098-.56.281-.56.141 0 .141.21z" style="font-size:36.4174px;font-family:&quot;Bodoni 72&quot;;-inkscape-font-specification:&quot;Bodoni 72, &quot;;fill:#000;fill-opacity:1;stroke:#000;stroke-width:.2;stroke-dasharray:none;stroke-opacity:1"/></g><g transform="matrix(.26458 0 0 .26458 -80.164 20.669)"><ellipse cx="179.883" cy="466.74" rx="9.002" ry="8.766" style="fill:#80edff;fill-opacity:1;stroke:#000;stroke-width:.986833;stroke-dasharray:none;stroke-opacity:1"/><path d="M183.273 468.956q0 1.161-.943 1.987-1.042.91-2.66.91-1.324 0-1.943-.616-.394-.392-.394-.896 0-.433.267-.685.282-.266.746-.266.366 0 .606.21t.24.531q0 .49-.663.77-.267.112-.267.224 0 .181.366.335.366.14.802.14 1.07 0 1.732-.727.675-.728.675-1.903 0-2.364-2.14-2.364-.21 0-.309.014h-.098q-.183 0-.183-.126 0-.098.338-.154.985-.14 1.52-.713.535-.588.535-1.497 0-.895-.465-1.427-.464-.545-1.253-.545-.577 0-1.013.251-.422.238-.422.56 0 .126.197.168.929.224.929.77 0 .713-.746.713-.479 0-.775-.28-.281-.28-.281-.742 0-.755.647-1.259.662-.517 1.83-.517 1.338 0 2.041.685.704.686.704 1.595 0 1.26-1.196 1.86-.423.21-1.366.35v.098q1.169.042 1.887.518 1.055.7 1.055 2.028z" style="font-size:36.4174px;font-family:&quot;Bodoni 72&quot;;-inkscape-font-specification:&quot;Bodoni 72, &quot;;fill:#000;stroke:#000;stroke-width:.2;stroke-dasharray:none"/></g><g transform="matrix(.26458 0 0 .26458 -66.405 9.085)"><ellipse cx="225.783" cy="466.74" rx="9.002" ry="8.766" style="fill:#80beff;fill-opacity:1;stroke:#000;stroke-width:.986833;stroke-dasharray:none;stroke-opacity:1"/><path d="M228.749 469.725q0 .14-.14.14-.128 0-.17-.154-.028-.168-.098-.881-.028-.112-.113-.168-.169-.098-.746-.098-.155 0-.296.014l.014 2.196q.07.168.226.21.169.042.802.042.31 0 .366.056.014.028.014.084 0 .098-.563.098t-3.153.028q-.14.014-.31.014-.281 0-.281-.14t.408-.126q.479.014.873-.056.169-.028.21-.14.043-.126.043-.532v-1.692q-.281-.014-.647-.014h-.578q-.197 0-.436.014h-.267l-1.788-.042q-.197-.014-.197-.112 0-.07 2.069-2.896.648-.91 2.858-4 .098-.14.197-.14.14 0 .14.265v6.575h.141q.479 0 .746-.056.282-.056.282-.28-.014-.881-.014-.601.014-.504.154-.504.198 0 .198.392v.63l.014 1.007q.014.517.028.657.014.126.014.21zm-2.83-6.24q-.14.225-.59.854-.62.853-1.873 2.546l-1 1.357q.521.042 2.239.042.605 0 1.14-.014v-.993q0-.7.042-1.889.042-1.399.042-1.902z" style="font-size:36.4174px;font-family:&quot;Bodoni 72&quot;;-inkscape-font-specification:&quot;Bodoni 72, &quot;;fill:#000;fill-opacity:1;stroke:#000;stroke-width:.2;stroke-dasharray:none;stroke-opacity:1"/></g><g transform="matrix(.26458 0 0 .26458 -82.835 -5.694)"><ellipse cx="242.439" cy="466.74" rx="9.002" ry="8.766" style="fill:#b580ff;fill-opacity:1;stroke:#000;stroke-width:.986833;stroke-dasharray:none;stroke-opacity:1"/><path d="M245.394 468.366q0 1.79-1.38 2.742-.83.573-2.153.573t-1.942-.685q-.338-.378-.338-.895 0-.434.281-.7.282-.28.732-.28.366 0 .606.21.253.21.253.518 0 .517-.69.783-.31.112-.31.252 0 .224.409.406.422.168.929.168.985 0 1.478-.672.675-.923.675-2.49 0-1.147-.534-1.777-.535-.63-1.52-.63-.76 0-1.676.574.085-3.147.127-3.973.014-.475.211-.573.197-.112 1.07-.112h.478q.338.014.535.014h.479q.971 0 1.126-.028.169-.042.211-.238.057-.322.197-.322.141 0 .141.154 0 .098-.014.154l-.028.322q-.07.783-.296.98-.21.181-1.055.181l-2.69-.014q-.055.476-.098 2.868.803-.364 1.676-.364 1.45 0 2.28.77.83.755.83 2.084z" style="font-size:36.4174px;font-family:&quot;Bodoni 72&quot;;-inkscape-font-specification:&quot;Bodoni 72, &quot;;fill:#000;stroke:#000;stroke-width:.2;stroke-dasharray:none"/></g><g transform="matrix(.26458 0 0 .26458 -96.997 -26.16)"><ellipse cx="273.804" cy="466.74" rx="9.002" ry="8.766" style="fill:#ec80ff;fill-opacity:1;stroke:#000;stroke-width:.986833;stroke-dasharray:none;stroke-opacity:1"/><path d="M276.571 468.394q0 1.357-.83 2.322-.83.965-1.985.965-1.45 0-2.35-1.189-.901-1.189-.901-3.091 0-1.749.76-3.19.774-1.44 2.055-2.098 1.07-.546 2.337-.546.295 0 .295.112 0 .098-.197.112-1.267.112-2.238.91-1.267 1.035-1.492 3.525.774-.728 1.745-.728.789 0 1.478.42 1.323.797 1.323 2.476zm-1.45.042q0-2.602-1.618-2.602-.732 0-1.126.63-.394.615-.394 1.734 0 1.609.577 2.602.366.63 1.07.63 1.492 0 1.492-2.994z" style="font-size:36.4174px;font-family:&quot;Bodoni 72&quot;;-inkscape-font-specification:&quot;Bodoni 72, &quot;;fill:#000;fill-opacity:1;stroke:#000;stroke-width:.2;stroke-dasharray:none;stroke-opacity:1"/></g><path d="M48.848 40.505c.86-.142 1.736-.097 2.603-.084 1.438.026 2.876.05 4.314.059 1.453.003 2.906.005 4.358.005l3.919.008c1.073.001 2.147-.002 3.22.017.308.006.617.01.925.02v-1.565c-.308.009-.617.014-.925.02-1.073.019-2.147.015-3.22.016-1.307.002-2.613.007-3.919.01-1.45 0-2.9.002-4.35-.009-1.43-.01-2.861-.019-4.292-.065-.946-.031-1.895-.084-2.84.015l.207 1.552z" style="fill:#fcff80;fill-opacity:1;stroke:#000;stroke-width:.291042" transform="rotate(-.248 19389.656 22829.735)"/><path d="M52.412 35.779c-.683.603-1.429 1.13-2.166 1.663-.54.396-1.088.77-1.723.99a1.519 1.519 0 0 0-.823.445c-.052.238-.157.47-.154.714.004.382.848.956 1.098 1.15.998.747 2.01 1.475 2.98 2.258.217.196.453.369.673.56l.967-1.225c-.238-.172-.483-.334-.707-.525-.985-.75-1.992-1.473-2.954-2.253-.446-.378-.156-.123-.52-.462l-.064-.056c-.005-.005-.016-.019-.014-.013.155.46.128.06-.086.861-.05.049-.064.069-.122.1-.023.012-.098.027-.074.018.115-.045.24-.063.352-.12.748-.301 1.42-.73 2.06-1.218.763-.558 1.529-1.11 2.28-1.684l-1.003-1.203z" style="fill:#fcff80;fill-opacity:1;stroke:#000;stroke-width:.291042" transform="rotate(-.248 19389.656 22829.735)"/><path d="M49.141 54.146c-.166-.863-.12-1.75-.103-2.624.008-1.344.051-2.806.07-4.15.013-1.461-.023-2.923-.06-4.384-.028-1.105-.083-2.209-.05-3.314l-1.522-.033c-.016 1.131.05 2.26.087 3.39.045 1.437.081 2.876.057 4.314-.03 1.341-.053 2.8-.075 4.141-.03.99-.079 1.988.057 2.973l1.54-.313z" style="fill:#8dff80;fill-opacity:1;stroke:#000;stroke-width:.291042" transform="rotate(-.248 19389.656 22829.735)"/><path d="M44.278 51.633c.745.815 1.383 1.721 2.016 2.625.409.625.81 1.256 1.184 1.902.23.416.441.465 1.096.418.235-.016.394-.377.513-.538.479-.721 1.091-1.34 1.684-1.967a46.425 46.425 0 0 0 1.566-1.665l-1.198-.988c-.439.58-.947 1.1-1.45 1.623-.648.675-1.321 1.333-1.878 2.088-.296.42-.008-.014.14-.007.293.016.576.116.856.205.033.01.09.09.056.088-.035-.003-.04-.059-.06-.088-.432-.641-.86-1.286-1.293-1.927-.67-.95-1.345-1.9-2.065-2.814l-1.167 1.044z" style="fill:#8dff80;fill-opacity:1;stroke:#000;stroke-width:.291042" transform="rotate(-.248 19389.656 22829.735)"/><path d="M48.506 56.943c1.464-.264 2.965-.275 4.448-.327 3.54-.054 7.082.014 10.623.053 3.77.061 7.54.037 11.311.036 2.484-.024 4.969.041 7.452.004.503-.01 1.005-.031 1.507-.053l-.12-1.535c-.476.055-.953.096-1.431.12-2.469.114-4.943.085-7.413.134-3.764.031-7.528.032-11.291.005-3.558-.044-7.115-.159-10.673-.177-1.587.023-3.185.014-4.762.218l.349 1.522z" style="fill:#80edff;fill-opacity:1;stroke:#000;stroke-width:.291042" transform="rotate(-.248 19389.656 22829.735)"/><path d="M79.931 53.652c.904.326 1.673.954 2.448 1.507.66.51 1.372.955 1.99 1.517l.077.076c.118.121-.04-.011-.03-.037.172-.414.391-.805.587-1.208-1.14.216-2.17.865-3.116 1.51-.502.373-1 .758-1.437 1.208l1.166 1.056c.318-.4.735-.712 1.126-1.034.693-.493 1.487-1.024 2.342-1.16.686-1.23.977-1.025.293-1.6-.685-.548-1.434-1.005-2.134-1.533-.92-.663-1.82-1.407-2.891-1.812l-.421 1.51z" style="fill:#80edff;fill-opacity:1;stroke:#000;stroke-width:.291042" transform="rotate(-.248 19389.656 22829.735)"/><path d="M85.43 55.976c-.04-1.402-.047-2.806-.056-4.209-.037-2.197.084-4.39.185-6.583.073-1.582.115-3.166.156-4.75.014-.512.006-.278.022-.701l-1.553-.017c.009.417.005.186.01.69a110.8 110.8 0 0 1-.093 4.688c-.093 2.223-.2 4.446-.185 6.673-.01 1.403-.015 2.807-.055 4.21h1.568z" style="fill:#80beff;fill-opacity:1;stroke:#000;stroke-width:.291042" transform="rotate(-1.353 3582.444 4256.443)"/><path d="M82.677 44.057a43.984 43.984 0 0 0 2.169-3.568c.185-.361.39-.714.549-1.09.007-.02.045-.066.023-.062-.455.075-.9.206-1.353.284-.019.003-.045-.061-.037-.044.175.369.411.714.63 1.057.677 1.042 1.482 1.991 2.326 2.9-.046-.04.48.489.37.405l1.301-.893c-.168-.215-.37-.392-.572-.576-.805-.794-1.55-1.653-2.136-2.626-.172-.294-.33-.584-.478-.89-.045-.091-.035-.268-.137-.274-1.314-.075-1.629.625-1.417.164-.07.333-.298.626-.408.943-.571 1.14-1.204 2.265-2.016 3.253l1.186 1.017z" style="fill:#80beff;fill-opacity:1;stroke:#000;stroke-width:.291042" transform="rotate(-1.353 3582.444 4256.443)"/><path d="M84.736 38.833c-.87.127-1.75.133-2.626.153-1.37.067-2.741.044-4.112.071-1.365.028-2.729.031-4.093-.004a220.064 220.064 0 0 0-3.838-.184c-.55-.022-1.102-.04-1.653-.066l-.01 1.571a35.373 35.373 0 0 1 1.625-.005c1.282.026 2.562.097 3.843.16 1.385.038 2.77.04 4.154.01 1.37-.03 2.737-.012 4.105-.066.936-.01 1.875-.01 2.809-.088l-.204-1.552z" style="fill:#b580ff;fill-opacity:1;stroke:#000;stroke-width:.291042" transform="rotate(-.248 19389.656 22829.735)"/><path d="M74.25 42.624c-.714-.683-1.484-1.308-2.234-1.95-.72-.655-1.482-1.26-2.33-1.74-.283-.112-.427-.365-.132.03.077.715.128.266-.194.878-.007.014.03-.009.044-.014.067-.025.132-.053.198-.076.253-.09.508-.173.76-.26.955-.369 1.88-.82 2.732-1.388.243-.17.485-.347.665-.585l.085-.162-1.478-.576.077-.145c.17-.208-.18.223-.233.203-.706.523-1.502.915-2.329 1.209-.579.184-1.571.329-1.805.994-.062.177.021.374.031.56.064.097.122.197.191.29.153.2.444.29.654.405.774.388 1.447.932 2.087 1.51.674.584 1.361 1.16 1.985 1.797l1.226-.98z" style="fill:#b580ff;fill-opacity:1;stroke:#000;stroke-width:.291042" transform="rotate(-.248 19389.656 22829.735)"/><path d="M-29.4 123.062c-.142-1.324-.108-2.666-.069-3.998.104-2.37.143-4.744.166-7.117.021-2.597.024-5.194.03-7.791.005-2.06.013-4.12.017-6.18-.049-1.772-.08-3.546-.148-5.317-.047-1.466-.15-2.934-.112-4.402.02-.369.018-.41.047-.753.023-.258-.006-.31.038-.21l-1.504-.595c-.085.502-.103 1.01-.108 1.524-.003 1.513.096 3.024.15 4.536.065 1.738.097 3.478.149 5.218.005 2.06.014 4.119.018 6.178.005 2.587.007 5.175-.02 7.762a193.218 193.218 0 0 1-.2 7.056c-.059 1.448-.1 2.9-.008 4.347l1.554-.258z" style="fill:#ec80ff;fill-opacity:1;stroke:#000;stroke-width:.291041"/><path d="M-33.302 90.82a73.581 73.581 0 0 1 1.956-2.214c.346-.36.676-.737 1.033-1.087.058-.057.233-.24.332-.27-.036.024-.065.068-.109.072-.21.022-.432-.052-.636.005-.112.032.223.072.339.078.195.01.325-.051.485-.14.058-.033-.119.057-.178.085-.156 0-.312.004-.468-.004-.03 0-.105-.055-.085-.032.195.22.418.428.618.644.631.692 1.293 1.361 1.877 2.094.081.13.517.65.526.81.002.027-.028-.048-.042-.071l-.038-.353 1.565.243-.031-.398c-.194-.442-.493-.83-.795-1.204-.619-.734-1.298-1.414-1.927-2.14-.22-.253-.766-1.016-1.125-1.079-.174-.03-.353-.018-.53-.027-.533.235-.001-.027.195-.012.101.008.396.063.296.077-.228.033-.461-.042-.69-.02-.07.007-.12.07-.181.105-.572.477-1.013 1.087-1.533 1.617-.649.709-1.296 1.42-1.966 2.11l1.112 1.11z" style="fill:#ec80ff;fill-opacity:1;stroke:#000;stroke-width:.291042"/><path d="M-40.111 120.509a.53.53 0 0 0 .42.041c.03-.007.059-.014.08-.034.008-.007.023-.028.023-.041-.008-.124-.262-.083-.335-.062" style="display:inline;fill:none;stroke:#000;stroke-width:.264583;stroke-dasharray:none;stroke-opacity:1"/><path d="M-42.064 118.653c.256-.146.54-.27.843-.295.07-.006.173-.007.244 0 .153.015.354.05.383.242.029.198-.113.354-.246.478-.117.108-.215.17-.347.245.102.016.296.049.403.093.202.084.378.193.485.363.128.201.07.377-.109.517-.118.092-.29.162-.416.196-.29.076-.59.095-.892.076a1.507 1.507 0 0 1-.402-.084.914.914 0 0 1-.193-.106" style="display:inline;fill:none;fill-opacity:1;stroke:#000;stroke-width:.264583;stroke-linecap:butt;stroke-linejoin:miter;stroke-miterlimit:4;stroke-dasharray:none;stroke-opacity:1"/><path d="M-42.533 119.78h-.102c-.188 0-.376-.002-.564-.004a11.17 11.17 0 0 0-.58.006l-.314.008M-39.198 120.43c.345.1.702.149 1.05.11a1.51 1.51 0 0 0 .667-.208c.123-.076.163-.213.102-.331-.127-.248-.382-.418-.636-.53a1.948 1.948 0 0 0-.196-.07c-.065-.016-.076-.008.003-.03.061-.035.197-.092.258-.124.208-.11.348-.244.413-.44.033-.095.018-.223-.095-.295-.161-.104-.41-.116-.6-.102-.365.029-.705.121-1.027.266" style="display:inline;fill:none;stroke:#000;stroke-width:.264583;stroke-dasharray:none"/><g style="stroke-width:.199627;stroke-dasharray:none"><path d="M60.34 29.033c.044-.067.093-.132.133-.188.208-.294.41-.591.61-.888a6.29 6.29 0 0 1 .362-.489.03.03 0 0 0 .008-.019c0-.027-.132-.018-.15-.019a19.957 19.957 0 0 0-1.646.002" style="display:inline;fill:none;stroke:#000;stroke-width:.199627;stroke-dasharray:none" transform="matrix(1.30984 0 0 1.34113 -115.464 81.71)"/><path d="M60.335 28.3c.208-.003.335.01.543.007.076-.001.17.002.215 0 .008 0 .139-.005.158-.008" style="display:inline;fill:#000;stroke:#000;stroke-width:.199627;stroke-dasharray:none" transform="matrix(1.30984 0 0 1.34113 -115.464 81.71)"/></g><g style="display:inline;stroke-width:3.99346;stroke-dasharray:none"><path d="M-698.623-3366.226c-1.298-.16-2.924.066-4.477.16-6.92.424-11.25.877-18.25 1.137" style="fill:none;stroke:#000;stroke-width:3.99346;stroke-dasharray:none;stroke-opacity:1" transform="matrix(.07008 0 0 .06264 15.821 329.225)"/><path d="M-722.041-3336.057c.11 1.695 2.161 1.931 3.452 2.419 5.983 2.257 12.145 1.713 18.033.343 3.1-.722 6.557-2.392 7.683-5.607 1.097-3.133-.41-6.367-2.215-8.836-3.398-4.652-9.65-7.174-15.36-6.695-1.805.15-3.6.397-5.298 1.144-1.65.725-3.238 1.513-4.567 2.705-.295-.236-.132-1.545-.124-2.32l.124-12.716" style="fill:none;stroke:#000;stroke-width:3.99346;stroke-dasharray:none;stroke-opacity:1" transform="matrix(.07008 0 0 .06264 15.821 329.225)"/></g><path d="M-57.287 132.987c.15-.043.192-.117.16-.265-.01-.02-.032-.053-.053-.063-.064-.053-.182-.021-.214.053a.647.647 0 0 0-.01.285" style="display:inline;fill:none;stroke:#000;stroke-width:.264583;stroke-dasharray:none;stroke-opacity:1"/><path d="m-56.493 132.909.007-.011c.049-.085.093-.172.137-.259.165-.326.304-.664.444-1 .07-.169.138-.338.205-.508.017-.043.058-.146.074-.196a.553.553 0 0 0 .02-.1c-.002-.067-.09-.065-.138-.065-.26.001-.52.035-.78.04-.274.006-.548.01-.823.008" style="display:inline;fill:none;stroke:#000;stroke-width:.264583;stroke-dasharray:none"/><path d="M-55.415 131.825c-.171.026-.347.01-.494.017-.273.003-.546.004-.819.022" style="display:inline;fill:#000;stroke:#000;stroke-width:.264583;stroke-dasharray:none"/><path d="M-61.749 132.233c.246 0 .492.005.738.007l.625.004h.063M-57.802 132.88a1.788 1.788 0 0 0-.03-.017c-.242-.073-.497-.09-.748-.106-.349-.01-.699 0-1.04.081-.097.023-.198.041-.284.094v.016c0 .003.005-.004.008-.006.027-.017.057-.033.085-.049.234-.14.449-.31.639-.505.123-.128.171-.175.285-.312.166-.202.318-.415.45-.64.076-.131.225-.376.152-.535a.16.16 0 0 0-.044-.057.233.233 0 0 0-.07-.037c-.203-.073-.456-.03-.665.019-.257.06-.514.132-.752.247" style="display:inline;fill:none;stroke:#000;stroke-width:.264583;stroke-dasharray:none"/><path d="M63.383 66.697c-.139.03-.277.094-.425.185-.244.151-.51.437-.624.668-.062.127-.118.26-.141.396-.048.274-.066.47.117.76.209.33.653.491 1.074.45.146-.014.298-.043.422-.11.493-.274.693-.683.504-1.19a1.504 1.504 0 0 0-.467-.629 2.401 2.401 0 0 0-.498-.331" style="display:inline;fill:none;fill-opacity:1;stroke:#000;stroke-width:.264583;stroke-linecap:butt;stroke-linejoin:miter;stroke-miterlimit:4;stroke-dasharray:none;stroke-opacity:1"/><path d="M61.14 68.883c.17-.009.349-.017.528 0 .02 0 .04 0 .05.008.04.016-.01.058-.02.066a.607.607 0 0 1-.28.149c-.137.038-.383.073-.358-.1.025-.17.19-.19.369-.24" style="display:inline;fill:none;stroke:#000;stroke-width:.264582;stroke-dasharray:none;stroke-opacity:1"/><path d="M69.159 66.868c-.104-.022-.236-.017-.362-.021-.562-.02-.914-.017-1.48-.049" style="display:inline;fill:none;stroke:#000;stroke-width:.264584;stroke-dasharray:none;stroke-opacity:1"/><path d="M67.261 68.96c.01.126.172.154.28.18a3.36 3.36 0 0 0 1.46.007c.252-.054.532-.178.623-.418.089-.233-.033-.474-.18-.658-.275-.346-.781-.534-1.244-.498a1.419 1.419 0 0 0-.799.286c-.024-.017-.01-.115-.01-.172l.01-.948" style="display:inline;fill:none;stroke:#000;stroke-width:.264584;stroke-dasharray:none;stroke-opacity:1"/><path d="M58.925 68.316a.6.6 0 0 1 .377-.318c.287-.078.598-.07.884.01.289.082.528.363.493.66-.029.24-.265.397-.489.463-.338.098-.726.095-1.038-.073a.694.694 0 0 1-.325-.391c-.12-.36-.02-.75.142-1.08.201-.407.503-.78.902-1.02a.93.93 0 0 1 .233-.097M65.228 69.13c.066-.103.143-.202.204-.287.32-.447.63-.9.942-1.352.175-.255.357-.506.558-.744a.048.048 0 0 0 .011-.029c.001-.04-.203-.027-.23-.028a31.21 31.21 0 0 0-1.25-.027c-.43.002-.86.006-1.29.029" style="display:inline;fill:none;stroke:#000;stroke-width:.264583;stroke-dasharray:none"/><path d="M65.254 67.98c.32-.004.64.016.961.012.117-.002.263.003.332 0 .012 0 .09-.007.12-.012" style="display:inline;fill:#000;stroke:#000;stroke-width:.264583;stroke-dasharray:none"/><path d="m71.39 69.004-.088.062a.997.997 0 0 1-.457.153.783.783 0 0 1-.402-.066.703.703 0 0 1-.416-.611.85.85 0 0 1 .486-.824.636.636 0 0 1 .139-.047c.172-.035.295.001.398.125M38.903 51.68c-.03.022-.061.045-.088.062a.997.997 0 0 1-.457.153.783.783 0 0 1-.402-.065.703.703 0 0 1-.416-.612.85.85 0 0 1 .486-.824.636.636 0 0 1 .139-.047c.173-.035.295.001.399.125M61.997 36.593c-.03.022-.061.045-.088.062a.997.997 0 0 1-.457.153.783.783 0 0 1-.402-.065.703.703 0 0 1-.416-.612.85.85 0 0 1 .486-.824.636.636 0 0 1 .139-.047c.172-.035.295.001.398.125" style="display:inline;fill:none;fill-opacity:1;stroke:#000;stroke-width:.283244;stroke-linecap:butt;stroke-linejoin:miter;stroke-miterlimit:4;stroke-dasharray:none;stroke-opacity:1"/><path d="M90.292 50.979c.354-.04.71-.061 1.067-.075.285-.012.57-.019.856-.018.103 0 .14-.023.083.081-.157.287-.278.59-.395.894-.158.414-.321.827-.48 1.241-.058.15-.122.3-.168.455-.007.021-.004.012-.008.029" style="display:inline;fill:none;stroke:#000;stroke-width:.264583;stroke-dasharray:none"/><path d="m92.215 52.168-.292.009c-.277.01-.554.018-.83.041M91.095 52.234c.276-.024.552-.033.829-.042l.291-.008" style="display:inline;fill:#000;stroke:#000;stroke-width:.264583;stroke-dasharray:none"/><path d="M89.68 53.54a8.208 8.208 0 0 0-1.1-.147c-.434-.018-.874-.023-1.3.082-.04.011-.12.018-.146.067-.002.004.008-.003.012-.006l.058-.044c.222-.184.428-.392.627-.606.342-.37.705-.801 1.006-1.279.073-.116.291-.475.194-.637-.044-.071-.112-.084-.18-.1a.687.687 0 0 0-.149-.013c-.384-.002-.668.05-1.01.235-.277.149-.53.326-.736.59" style="display:inline;fill:none;stroke:#000;stroke-width:.264583;stroke-dasharray:none"/><path d="M90.157 53.124a.963.963 0 0 1 .345 0c.013 0 .026 0 .033.014.026.028-.006.097-.013.111a.513.513 0 0 1-.183.25c-.09.064-.251.123-.234-.167.016-.287.123-.319.24-.402" style="display:inline;fill:none;stroke:#000;stroke-width:.264582;stroke-dasharray:none;stroke-opacity:1"/><path d="m93.9 53.384-.089.063a.997.997 0 0 1-.457.153.783.783 0 0 1-.402-.066.703.703 0 0 1-.416-.612.85.85 0 0 1 .486-.824.637.637 0 0 1 .139-.047c.172-.035.295.002.398.125" style="display:inline;fill:none;fill-opacity:1;stroke:#000;stroke-width:.283244;stroke-linecap:butt;stroke-linejoin:miter;stroke-miterlimit:4;stroke-dasharray:none;stroke-opacity:1"/><path d="M82.924 16.763c-.114.018-.23.038-.327.045-.406.028-.878-.032-1.179-.275-.1-.082-.193-.18-.223-.29a.756.756 0 0 1 .036-.434.996.996 0 0 1 .378-.445c.267-.18.62-.269.893-.236" style="fill:none;fill-opacity:1;stroke:#000;stroke-width:.264583;stroke-linecap:butt;stroke-linejoin:round;stroke-miterlimit:4;stroke-dasharray:none;stroke-dashoffset:0;stroke-opacity:1"/><path d="M69.764 15.632a1.548 1.548 0 0 1 1.001-.053.978.978 0 0 1 .554.453c.118.208.113.49-.062.665-.236.236-.614.271-.938.22-.375-.06-.69-.349-.762-.707-.074-.379.048-.765.241-1.091.143-.24.333-.456.574-.61.184-.118.382-.217.595-.276" style="display:inline;fill:none;stroke:#000;stroke-width:.264583;stroke-dasharray:none"/><path d="M71.68 16.871a.626.626 0 0 0 .495.048c.035-.008.069-.016.094-.04.01-.008.026-.032.026-.048-.009-.144-.307-.096-.392-.072" style="display:inline;fill:none;stroke:#000;stroke-width:.264584;stroke-dasharray:none;stroke-opacity:1"/><path d="M73.045 14.508a.531.531 0 0 1 .196-.11 1.37 1.37 0 0 1 1.109.088 1.055 1.055 0 0 1 .4.412c.202.376.15.861-.038 1.23a1.254 1.254 0 0 1-.377.45c-.294.22-.702.343-1.064.241a1.02 1.02 0 0 1-.241-.095.938.938 0 0 1-.204-.162 1.136 1.136 0 0 1-.287-1.016c.02-.09.053-.165.09-.243a1.354 1.354 0 0 1 1.154-.736" style="display:inline;fill:none;stroke:#000;stroke-width:.264583;stroke-dasharray:none;stroke-opacity:1"/><path d="M76.042 16.914c.066-.107.143-.21.204-.3.322-.464.633-.936.945-1.408.176-.265.359-.527.56-.775a.049.049 0 0 0 .011-.03c.001-.043-.203-.029-.23-.03a30.144 30.144 0 0 0-1.255-.027c-.431.001-.863.006-1.293.03" style="display:inline;fill:none;stroke:#000;stroke-width:.264583;stroke-dasharray:none"/><path d="M76.08 15.723c.322-.002.644.007.965.005h.333l.12-.005" style="display:inline;fill:#000;stroke:#000;stroke-width:.264583;stroke-dasharray:none"/><path d="M80.047 14.339c-.209.016-.494.046-.702.073-.413.055-.811.127-1.254.215" style="display:inline;fill:none;stroke:#000;stroke-width:.264583;stroke-dasharray:none;stroke-opacity:1"/><path d="M78.114 16.809c.12.083.275.128.39.16.109.03.216.037.32.042.485.02.983-.08 1.386-.353.083-.056.167-.111.23-.185.12-.14.19-.228.194-.422.005-.236-.17-.443-.346-.573a2.02 2.02 0 0 0-.251-.156 1.674 1.674 0 0 0-.598-.164 1.567 1.567 0 0 0-.987.236.946.946 0 0 0-.191.16c-.009.008-.017.025-.026.034-.017.016-.013-.15.008-.263.041-.227.079-.623.122-.951" style="display:inline;fill:none;stroke:#000;stroke-width:.264583;stroke-dasharray:none;stroke-opacity:1"/><path d="M75.059 35.35a4.822 4.822 0 0 1 1.02-.588c.07-.029.14-.052.21-.078.069-.02.533-.177.54 0 .001.03-.013.059-.019.088-.022.043-.042.088-.067.13-.225.377-.548.719-.842 1.042a8.13 8.13 0 0 1-.931.856c-.052.04-.102.081-.155.12-.007.006-.03.012-.022.018.007.005.016.005.024.008.332-.078.675-.092 1.014-.106.494-.01.988.01 1.479.063l.124.016" style="display:inline;fill:none;stroke:#000;stroke-width:.264583;stroke-dasharray:none"/><g style="stroke-width:1.04392"><path d="m78.508 36.942.022-.037c.175-.286.37-.561.552-.843.274-.422.562-.835.829-1.261.017-.027.123-.18.096-.232-.008-.017-.026-.023-.043-.026-.225-.03-.456.004-.683.004-.47 0-.94.023-1.411.02" style="display:inline;fill:none;stroke:#000;stroke-width:.276203;stroke-dasharray:none" transform="matrix(.9681 0 0 .94786 2.566 1.887)"/><path d="M78.568 35.816c.306-.017.612-.011.918-.006a2.6 2.6 0 0 0 .382-.01" style="display:inline;fill:none;stroke:#000;stroke-width:.276203;stroke-dasharray:none" transform="matrix(.9681 0 0 .94786 2.566 1.887)"/></g><path d="M72.685 35.917c.402-.004.804.015 1.206.011.147-.002.329.004.415 0 .016 0 .113-.007.15-.012" style="display:inline;fill:#000;stroke:#000;stroke-width:.264583;stroke-dasharray:none"/><path d="M78.158 36.78c-.061-.159-.149-.198-.313-.15-.023.013-.056.04-.066.063-.054.075-.008.2.079.228.098.027.24.004.322-.014" style="display:inline;fill:none;stroke:#000;stroke-width:.264583;stroke-dasharray:none;stroke-opacity:1"/><path d="M82.133 36.876c-.11.017-.223.036-.318.043-.393.027-.852-.031-1.144-.267-.098-.078-.188-.174-.217-.281a.732.732 0 0 1 .035-.42.966.966 0 0 1 .367-.431c.26-.175.602-.262.867-.23" style="fill:none;fill-opacity:1;stroke:#000;stroke-width:.264583;stroke-linecap:butt;stroke-linejoin:round;stroke-miterlimit:4;stroke-dasharray:none;stroke-dashoffset:0;stroke-opacity:1"/></svg>