<svg xmlns="http://www.w3.org/2000/svg" width="500" height="270" viewBox="0 0 132.292 71.437"><g transform="matrix(.26458 0 0 .26458 23.54 -92.467)"><ellipse cx="118.462" cy="466.74" rx="9.002" ry="8.766" style="fill:#fcff80;fill-opacity:1;stroke:#000;stroke-width:.986833;stroke-dasharray:none;stroke-opacity:1"/><path d="M120.53 471.246q0 .112-.31.112H119.516q-.534-.014-1.083-.014-.972 0-1.24.014-.267.014-.421.014-.338 0-.338-.126t.197-.126q.31 0 .661-.014.437-.014.465-.21.042-.21.042-.881v-6.575q0-.448-.028-.532-.028-.083-.197-.083-.07 0-.915.07-.169.013-.225.013-.17 0-.17-.097 0-.112.17-.126.661-.07 1.337-.392.676-.336 1.084-.783.155-.126.211-.126.113 0 .113.14v.265q-.014.112-.014.252v8.366q0 .503.042.587.056.084.352.098l.323.014.24.014h.21q.198 0 .198.126z" style="font-size:36.4174px;font-family:&quot;Bodoni 72&quot;;-inkscape-font-specification:&quot;Bodoni 72, &quot;;fill:#000;fill-opacity:1;stroke:#000;stroke-width:.2;stroke-dasharray:none"/></g><g transform="matrix(.26458 0 0 .26458 -6.173 -79.689)"><ellipse cx="152.862" cy="466.74" rx="9.002" ry="8.766" style="fill:#8dff80;fill-opacity:1;stroke:#000;stroke-width:.986833;stroke-dasharray:none;stroke-opacity:1"/><path d="M156.044 468.749q0 .042-.028.223-.07.462-.225 2.28l-.014.169q-1.45-.07-3.308-.07-1 0-1.873.028-.872.028-.76.028-.38 0-.38-.14 0-.112.732-.7 1.76-1.427 2.506-2.322 1.295-1.553 1.295-3.651 0-1.413-.591-2.14-.45-.56-1.267-.56-.803 0-1.267.49-.366.377-.366.755 0 .238.38.252.985.042.985.853 0 .77-.816.77-.521 0-.83-.322-.31-.322-.31-.882 0-1.035.732-1.664.732-.63 1.928-.63 1.197 0 1.985.756.915.88.915 2.294 0 1.553-1.042 2.868-1.041 1.3-3.505 2.84.93-.029 2.337-.029 1.168 0 1.478-.028.31-.042.549-.181.197-.126.338-.938.098-.56.281-.56.141 0 .141.21z" style="font-size:36.4174px;font-family:&quot;Bodoni 72&quot;;-inkscape-font-specification:&quot;Bodoni 72, &quot;;fill:#000;fill-opacity:1;stroke:#000;stroke-width:.2;stroke-dasharray:none;stroke-opacity:1"/></g><g transform="matrix(.26458 0 0 .26458 16.017 -60.53)"><ellipse cx="179.883" cy="466.74" rx="9.002" ry="8.766" style="fill:#80edff;fill-opacity:1;stroke:#000;stroke-width:.986833;stroke-dasharray:none;stroke-opacity:1"/><path d="M183.273 468.956q0 1.161-.943 1.987-1.042.91-2.66.91-1.324 0-1.943-.616-.394-.392-.394-.896 0-.433.267-.685.282-.266.746-.266.366 0 .606.21t.24.531q0 .49-.663.77-.267.112-.267.224 0 .181.366.335.366.14.802.14 1.07 0 1.732-.727.675-.728.675-1.903 0-2.364-2.14-2.364-.21 0-.309.014h-.098q-.183 0-.183-.126 0-.098.338-.154.985-.14 1.52-.713.535-.588.535-1.497 0-.895-.465-1.427-.464-.545-1.253-.545-.577 0-1.013.251-.422.238-.422.56 0 .126.197.168.929.224.929.77 0 .713-.746.713-.479 0-.775-.28-.281-.28-.281-.742 0-.755.647-1.259.662-.517 1.83-.517 1.338 0 2.041.685.704.686.704 1.595 0 1.26-1.196 1.86-.423.21-1.366.35v.098q1.169.042 1.887.518 1.055.7 1.055 2.028z" style="font-size:36.4174px;font-family:&quot;Bodoni 72&quot;;-inkscape-font-specification:&quot;Bodoni 72, &quot;;fill:#000;stroke:#000;stroke-width:.2;stroke-dasharray:none"/></g><g transform="matrix(.26458 0 0 .26458 32.775 -80.152)"><ellipse cx="225.783" cy="466.74" rx="9.002" ry="8.766" style="fill:#80beff;fill-opacity:1;stroke:#000;stroke-width:.986833;stroke-dasharray:none;stroke-opacity:1"/><path d="M228.749 469.725q0 .14-.14.14-.128 0-.17-.154-.028-.168-.098-.881-.028-.112-.113-.168-.169-.098-.746-.098-.155 0-.296.014l.014 2.196q.07.168.226.21.169.042.802.042.31 0 .366.056.014.028.014.084 0 .098-.563.098t-3.153.028q-.14.014-.31.014-.281 0-.281-.14t.408-.126q.479.014.873-.056.169-.028.21-.14.043-.126.043-.532v-1.692q-.281-.014-.647-.014h-.578q-.197 0-.436.014h-.267l-1.788-.042q-.197-.014-.197-.112 0-.07 2.069-2.896.648-.91 2.858-4 .098-.14.197-.14.14 0 .14.265v6.575h.141q.479 0 .746-.056.282-.056.282-.28-.014-.881-.014-.601.014-.504.154-.504.198 0 .198.392v.63l.014 1.007q.014.517.028.657.014.126.014.21zm-2.83-6.24q-.14.225-.59.854-.62.853-1.873 2.546l-1 1.357q.521.042 2.239.042.605 0 1.14-.014v-.993q0-.7.042-1.889.042-1.399.042-1.902z" style="font-size:36.4174px;font-family:&quot;Bodoni 72&quot;;-inkscape-font-specification:&quot;Bodoni 72, &quot;;fill:#000;fill-opacity:1;stroke:#000;stroke-width:.2;stroke-dasharray:none;stroke-opacity:1"/></g><g transform="matrix(.26458 0 0 .26458 9.534 -92.268)"><ellipse cx="242.439" cy="466.74" rx="9.002" ry="8.766" style="fill:#b580ff;fill-opacity:1;stroke:#000;stroke-width:.986833;stroke-dasharray:none;stroke-opacity:1"/><path d="M245.394 468.366q0 1.79-1.38 2.742-.83.573-2.153.573t-1.942-.685q-.338-.378-.338-.895 0-.434.281-.7.282-.28.732-.28.366 0 .606.21.253.21.253.518 0 .517-.69.783-.31.112-.31.252 0 .224.409.406.422.168.929.168.985 0 1.478-.672.675-.923.675-2.49 0-1.147-.534-1.777-.535-.63-1.52-.63-.76 0-1.676.574.085-3.147.127-3.973.014-.475.211-.573.197-.112 1.07-.112h.478q.338.014.535.014h.479q.971 0 1.126-.028.169-.042.211-.238.057-.322.197-.322.141 0 .141.154 0 .098-.014.154l-.028.322q-.07.783-.296.98-.21.181-1.055.181l-2.69-.014q-.055.476-.098 2.868.803-.364 1.676-.364 1.45 0 2.28.77.83.755.83 2.084z" style="font-size:36.4174px;font-family:&quot;Bodoni 72&quot;;-inkscape-font-specification:&quot;Bodoni 72, &quot;;fill:#000;stroke:#000;stroke-width:.2;stroke-dasharray:none"/></g><g transform="matrix(.26458 0 0 .26458 -1.93 -114.3)"><ellipse cx="273.804" cy="466.74" rx="9.002" ry="8.766" style="fill:#ec80ff;fill-opacity:1;stroke:#000;stroke-width:.986833;stroke-dasharray:none;stroke-opacity:1"/><path d="M276.571 468.394q0 1.357-.83 2.322-.83.965-1.985.965-1.45 0-2.35-1.189-.901-1.189-.901-3.091 0-1.749.76-3.19.774-1.44 2.055-2.098 1.07-.546 2.337-.546.295 0 .295.112 0 .098-.197.112-1.267.112-2.238.91-1.267 1.035-1.492 3.525.774-.728 1.745-.728.789 0 1.478.42 1.323.797 1.323 2.476zm-1.45.042q0-2.602-1.618-2.602-.732 0-1.126.63-.394.615-.394 1.734 0 1.609.577 2.602.366.63 1.07.63 1.492 0 1.492-2.994z" style="font-size:36.4174px;font-family:&quot;Bodoni 72&quot;;-inkscape-font-specification:&quot;Bodoni 72, &quot;;fill:#000;fill-opacity:1;stroke:#000;stroke-width:.2;stroke-dasharray:none;stroke-opacity:1"/></g><g style="stroke-width:.956817"><path d="M48.848 40.505c.86-.142 1.736-.097 2.603-.084 1.438.026 2.876.05 4.314.059 1.453.003 2.906.005 4.358.005l3.919.008c1.073.001 2.147-.002 3.22.017.308.006.617.01.925.02v-1.565c-.308.009-.617.014-.925.02-1.073.019-2.147.015-3.22.016-1.307.002-2.613.007-3.919.01-1.45 0-2.9.002-4.35-.009-1.43-.01-2.861-.019-4.292-.065-.946-.031-1.895-.084-2.84.015l.207 1.552z" style="fill:#fcff80;fill-opacity:1;stroke:#000;stroke-width:.278474" transform="matrix(1.04497 -.00453 .00452 1.04527 -6.714 .438)"/><path d="M52.412 35.779c-.683.603-1.429 1.13-2.166 1.663-.54.396-1.088.77-1.723.99a1.519 1.519 0 0 0-.823.445c-.052.238-.157.47-.154.714.004.382.848.956 1.098 1.15.998.747 2.01 1.475 2.98 2.258.217.196.453.369.673.56l.967-1.225c-.238-.172-.483-.334-.707-.525-.985-.75-1.992-1.473-2.954-2.253-.446-.378-.156-.123-.52-.462l-.064-.056c-.005-.005-.016-.019-.014-.013.155.46.128.06-.086.861-.05.049-.064.069-.122.1-.023.012-.098.027-.074.018.115-.045.24-.063.352-.12.748-.301 1.42-.73 2.06-1.218.763-.558 1.529-1.11 2.28-1.684l-1.003-1.203z" style="fill:#fcff80;fill-opacity:1;stroke:#000;stroke-width:.278474" transform="matrix(1.04497 -.00453 .00452 1.04527 -6.714 .438)"/></g><g style="stroke-width:.956817"><path d="M49.141 54.146c-.166-.863-.12-1.75-.103-2.624.008-1.344.051-2.806.07-4.15.013-1.461-.023-2.923-.06-4.384-.028-1.105-.083-2.209-.05-3.314l-1.522-.033c-.016 1.131.05 2.26.087 3.39.045 1.437.081 2.876.057 4.314-.03 1.341-.053 2.8-.075 4.141-.03.99-.079 1.988.057 2.973l1.54-.313z" style="fill:#8dff80;fill-opacity:1;stroke:#000;stroke-width:.278474" transform="matrix(1.04497 -.00453 .00452 1.04527 -6.714 .053)"/><path d="M44.278 51.633c.745.815 1.383 1.721 2.016 2.625.409.625.81 1.256 1.184 1.902.23.416.441.465 1.096.418.235-.016.394-.377.513-.538.479-.721 1.091-1.34 1.684-1.967a46.425 46.425 0 0 0 1.566-1.665l-1.198-.988c-.439.58-.947 1.1-1.45 1.623-.648.675-1.321 1.333-1.878 2.088-.296.42-.008-.014.14-.007.293.016.576.116.856.205.033.01.09.09.056.088-.035-.003-.04-.059-.06-.088-.432-.641-.86-1.286-1.293-1.927-.67-.95-1.345-1.9-2.065-2.814l-1.167 1.044z" style="fill:#8dff80;fill-opacity:1;stroke:#000;stroke-width:.278474" transform="matrix(1.04497 -.00453 .00452 1.04527 -6.714 .053)"/></g><g style="stroke-width:.956817"><path d="M48.506 56.943c1.464-.264 2.965-.275 4.448-.327 3.54-.054 7.082.014 10.623.053 3.77.061 7.54.037 11.311.036 2.484-.024 4.969.041 7.452.004.503-.01 1.005-.031 1.507-.053l-.12-1.535c-.476.055-.953.096-1.431.12-2.469.114-4.943.085-7.413.134-3.764.031-7.528.032-11.291.005-3.558-.044-7.115-.159-10.673-.177-1.587.023-3.185.014-4.762.218l.349 1.522z" style="fill:#80edff;fill-opacity:1;stroke:#000;stroke-width:.278474" transform="matrix(1.04497 -.00453 .00452 1.04527 -6.714 .053)"/><path d="M79.931 53.652c.904.326 1.673.954 2.448 1.507.66.51 1.372.955 1.99 1.517l.077.076c.118.121-.04-.011-.03-.037.172-.414.391-.805.587-1.208-1.14.216-2.17.865-3.116 1.51-.502.373-1 .758-1.437 1.208l1.166 1.056c.318-.4.735-.712 1.126-1.034.693-.493 1.487-1.024 2.342-1.16.686-1.23.977-1.025.293-1.6-.685-.548-1.434-1.005-2.134-1.533-.92-.663-1.82-1.407-2.891-1.812l-.421 1.51z" style="fill:#80edff;fill-opacity:1;stroke:#000;stroke-width:.278474" transform="matrix(1.04497 -.00453 .00452 1.04527 -6.714 .053)"/></g><g style="stroke-width:.956817"><path d="M85.43 55.976c-.04-1.402-.047-2.806-.056-4.209-.037-2.197.084-4.39.185-6.583.073-1.582.115-3.166.156-4.75.014-.512.006-.278.022-.701l-1.553-.017c.009.417.005.186.01.69a110.8 110.8 0 0 1-.093 4.688c-.093 2.223-.2 4.446-.185 6.673-.01 1.403-.015 2.807-.055 4.21h1.568z" style="fill:#80beff;fill-opacity:1;stroke:#000;stroke-width:.278474" transform="matrix(1.04469 -.02469 .02468 1.04499 -7.644 1.782)"/><path d="M82.677 44.057a43.984 43.984 0 0 0 2.169-3.568c.185-.361.39-.714.549-1.09.007-.02.045-.066.023-.062-.455.075-.9.206-1.353.284-.019.003-.045-.061-.037-.044.175.369.411.714.63 1.057.677 1.042 1.482 1.991 2.326 2.9-.046-.04.48.489.37.405l1.301-.893c-.168-.215-.37-.392-.572-.576-.805-.794-1.55-1.653-2.136-2.626-.172-.294-.33-.584-.478-.89-.045-.091-.035-.268-.137-.274-1.314-.075-1.629.625-1.417.164-.07.333-.298.626-.408.943-.571 1.14-1.204 2.265-2.016 3.253l1.186 1.017z" style="fill:#80beff;fill-opacity:1;stroke:#000;stroke-width:.278474" transform="matrix(1.04469 -.02469 .02468 1.04499 -7.644 1.782)"/></g><path d="M82.013 40.26c-.887.138-1.787.148-2.682.173-1.4.077-2.8.058-4.2.093-1.395.035-2.789-.075-4.182-.106-1.307-.071-2.615-.006-3.922-.055-.564-.02-1.127-.037-1.69-.061l-.003 1.642a35.268 35.268 0 0 1 1.66-.013c1.31.021 2.619-.03 3.928.03 1.414.033 2.83.15 4.244.112 1.398-.037 2.796-.026 4.194-.088.956-.015 1.915-.018 2.869-.105l-.216-1.621z" style="fill:#b580ff;fill-opacity:1;stroke:#000;stroke-width:.291042"/><path d="M69.722 44.27c-.749-.71-1.556-1.36-2.343-2.028-.756-.68-1.555-1.31-2.442-1.808-.297-.115-.449-.38-.139.032.085.748.136.278-.198.92-.007.014.03-.01.046-.016.07-.026.137-.055.206-.08.264-.095.53-.183.794-.276.995-.39 1.96-.865 2.848-1.462.253-.179.505-.365.692-.615l.088-.17-1.547-.595.08-.151c.176-.219-.187.233-.243.212-.735.55-1.565.964-2.428 1.275-.604.195-1.64.35-1.881 1.047-.064.185.023.39.035.585.067.1.127.205.2.301.16.21.465.303.686.421.81.402 1.516.968 2.187 1.57.707.607 1.428 1.206 2.082 1.87l1.277-1.031z" style="fill:#b580ff;fill-opacity:1;stroke:#000;stroke-width:.291042"/><path d="M64.303 40.726c-.148-1.384-.113-2.787-.072-4.18.108-2.477.15-4.958.173-7.44.023-2.713.026-5.428.032-8.142.005-2.154.013-4.307.017-6.46-.05-1.853-.082-3.707-.154-5.558-.05-1.532-.157-3.067-.117-4.601.02-.386.019-.43.05-.787.023-.27-.007-.324.038-.22l-1.57-.622c-.09.525-.108 1.055-.114 1.593-.003 1.582.1 3.162.157 4.741.068 1.817.101 3.637.155 5.454.006 2.153.016 4.306.02 6.459.005 2.704.006 5.409-.022 8.113-.034 2.46-.085 4.92-.209 7.375-.061 1.514-.103 3.031-.007 4.544l1.623-.269z" style="fill:#ec80ff;fill-opacity:1;stroke:#000;stroke-width:.291041"/><path d="M60.225 7.024A76.903 76.903 0 0 1 62.27 4.71c.361-.377.706-.771 1.08-1.137.06-.059.243-.25.346-.282-.038.025-.068.071-.113.076-.221.023-.452-.055-.666.005-.117.033.234.075.355.082.204.01.34-.055.507-.148.06-.034-.125.06-.187.09-.163-.001-.326.004-.488-.004-.032-.001-.11-.057-.09-.033.204.23.438.446.647.672.66.724 1.35 1.423 1.96 2.19.086.135.54.678.55.845.002.029-.028-.049-.043-.074l-.04-.368 1.636.253-.033-.415c-.203-.463-.515-.868-.83-1.258-.647-.768-1.358-1.48-2.014-2.238-.23-.264-.8-1.062-1.176-1.127-.182-.032-.37-.019-.554-.028-.557.245-.001-.029.204-.013.106.009.414.065.309.08-.238.034-.482-.044-.721-.02-.073.006-.126.072-.19.109-.597.499-1.058 1.136-1.6 1.69-.679.741-1.355 1.484-2.055 2.205l1.161 1.162z" style="fill:#ec80ff;fill-opacity:1;stroke:#000;stroke-width:.291042"/><path d="M37.611-28.493a.826.826 0 0 1 .646.03c.42.18.705.635.637 1.08-.044.338-.312.627-.612.777-.302.149-.676.216-1.008.103-.274-.089-.498-.328-.523-.612-.042-.398.182-.794.509-1.027.043-.03.089-.058.136-.083" style="display:inline;fill:none;stroke:#000;stroke-width:.264584;stroke-dasharray:none;stroke-opacity:1"/><path d="M52.353 36.766c.147.08.285.087.447.043a.175.175 0 0 0 .085-.036c.007-.007.023-.029.023-.043-.008-.131-.277-.088-.354-.066" style="display:inline;fill:none;stroke:#000;stroke-width:.264583;stroke-dasharray:none;stroke-opacity:1"/><path d="M49.995 34.802c.27-.155.572-.286.894-.313.074-.006.183-.007.258 0 .162.016.375.053.406.257.03.209-.12.374-.26.505-.124.114-.23.18-.368.26.108.017.313.051.427.098.214.089.4.204.514.384.135.213.045.428-.115.558-.124.1-.31.187-.442.231-.27.09-.538.108-.87.064-.14-.02-.27-.08-.362-.118a1.122 1.122 0 0 1-.222-.135" style="display:inline;fill:none;fill-opacity:1;stroke:#000;stroke-width:.264583;stroke-linecap:butt;stroke-linejoin:miter;stroke-miterlimit:4;stroke-dasharray:none;stroke-opacity:1"/><path d="M49.697 35.96h-.112c-.207 0-.414-.003-.62-.005a12.297 12.297 0 0 0-.638.007l-.346.009M53.322 36.682c.365.107.744.158 1.113.117.278-.03.496-.09.707-.22.13-.08.173-.226.109-.351-.135-.262-.406-.442-.675-.56a2.066 2.066 0 0 0-.208-.075c-.069-.017-.08-.008.004-.031.064-.038.208-.098.273-.132.22-.117.368-.258.438-.465.034-.101.019-.237-.1-.313-.172-.11-.435-.123-.637-.107-.387.03-.747.127-1.089.28" style="display:inline;fill:none;stroke:#000;stroke-width:.264583;stroke-dasharray:none"/><g style="stroke-width:.192821;stroke-dasharray:none"><path d="M60.34 29.033c.044-.067.093-.132.133-.188.208-.294.41-.591.61-.888a6.29 6.29 0 0 1 .362-.489.03.03 0 0 0 .008-.019c0-.027-.132-.018-.15-.019a19.957 19.957 0 0 0-1.646.002" style="display:inline;fill:none;stroke:#000;stroke-width:.192821;stroke-dasharray:none" transform="matrix(1.35608 0 0 1.38846 -36.537 -48.068)"/><path d="M60.335 28.3c.208-.003.335.01.543.007.076-.001.17.002.215 0 .008 0 .139-.005.158-.008" style="display:inline;fill:#000;stroke:#000;stroke-width:.192821;stroke-dasharray:none" transform="matrix(1.35608 0 0 1.38846 -36.537 -48.068)"/></g><g style="display:inline;stroke-width:4.16869;stroke-dasharray:none"><path d="M-698.623-3366.226c-1.298-.16-2.924.066-4.477.16-6.92.424-11.25.877-18.25 1.137" style="fill:none;stroke:#000;stroke-width:4.16869;stroke-dasharray:none;stroke-opacity:1" transform="matrix(.06712 0 0 .06002 95.673 192.159)"/><path d="M-722.041-3336.057c.11 1.695 2.161 1.931 3.452 2.419 5.983 2.257 12.145 1.713 18.033.343 3.1-.722 6.557-2.392 7.683-5.607 1.097-3.133-.41-6.367-2.215-8.836-3.398-4.652-9.65-7.174-15.36-6.695-1.805.15-3.6.397-5.298 1.144-1.65.725-3.238 1.513-4.567 2.705-.295-.236-.132-1.545-.124-2.32l.124-12.716" style="fill:none;stroke:#000;stroke-width:4.16869;stroke-dasharray:none;stroke-opacity:1" transform="matrix(.06712 0 0 .06002 95.673 192.159)"/></g><path d="M30.897 49.152c.294 0 .587.005.88.009l.745.004h.075" style="display:inline;fill:none;stroke:#000;stroke-width:.264583;stroke-dasharray:none"/><g transform="matrix(.26458 0 0 .26458 -69.136 -8.16)"><ellipse cx="118.462" cy="466.74" rx="9.002" ry="8.766" style="fill:#fcff80;fill-opacity:1;stroke:#000;stroke-width:.986833;stroke-dasharray:none;stroke-opacity:1"/><path d="M120.53 471.246q0 .112-.31.112H119.516q-.534-.014-1.083-.014-.972 0-1.24.014-.267.014-.421.014-.338 0-.338-.126t.197-.126q.31 0 .661-.014.437-.014.465-.21.042-.21.042-.881v-6.575q0-.448-.028-.532-.028-.083-.197-.083-.07 0-.915.07-.169.013-.225.013-.17 0-.17-.097 0-.112.17-.126.661-.07 1.337-.392.676-.336 1.084-.783.155-.126.211-.126.113 0 .113.14v.265q-.014.112-.014.252v8.366q0 .503.042.587.056.084.352.098l.323.014.24.014h.21q.198 0 .198.126z" style="font-size:36.4174px;font-family:&quot;Bodoni 72&quot;;-inkscape-font-specification:&quot;Bodoni 72, &quot;;fill:#000;fill-opacity:1;stroke:#000;stroke-width:.2;stroke-dasharray:none"/></g><g transform="matrix(.26458 0 0 .26458 -98.373 3.968)"><ellipse cx="152.862" cy="466.74" rx="9.002" ry="8.766" style="fill:#8dff80;fill-opacity:1;stroke:#000;stroke-width:.986833;stroke-dasharray:none;stroke-opacity:1"/><path d="M156.044 468.749q0 .042-.028.223-.07.462-.225 2.28l-.014.169q-1.45-.07-3.308-.07-1 0-1.873.028-.872.028-.76.028-.38 0-.38-.14 0-.112.732-.7 1.76-1.427 2.506-2.322 1.295-1.553 1.295-3.651 0-1.413-.591-2.14-.45-.56-1.267-.56-.803 0-1.267.49-.366.377-.366.755 0 .238.38.252.985.042.985.853 0 .77-.816.77-.521 0-.83-.322-.31-.322-.31-.882 0-1.035.732-1.664.732-.63 1.928-.63 1.197 0 1.985.756.915.88.915 2.294 0 1.553-1.042 2.868-1.041 1.3-3.505 2.84.93-.029 2.337-.029 1.168 0 1.478-.028.31-.042.549-.181.197-.126.338-.938.098-.56.281-.56.141 0 .141.21z" style="font-size:36.4174px;font-family:&quot;Bodoni 72&quot;;-inkscape-font-specification:&quot;Bodoni 72, &quot;;fill:#000;fill-opacity:1;stroke:#000;stroke-width:.2;stroke-dasharray:none;stroke-opacity:1"/></g><g transform="matrix(.26458 0 0 .26458 -80.164 20.669)"><ellipse cx="179.883" cy="466.74" rx="9.002" ry="8.766" style="fill:#80edff;fill-opacity:1;stroke:#000;stroke-width:.986833;stroke-dasharray:none;stroke-opacity:1"/><path d="M183.273 468.956q0 1.161-.943 1.987-1.042.91-2.66.91-1.324 0-1.943-.616-.394-.392-.394-.896 0-.433.267-.685.282-.266.746-.266.366 0 .606.21t.24.531q0 .49-.663.77-.267.112-.267.224 0 .181.366.335.366.14.802.14 1.07 0 1.732-.727.675-.728.675-1.903 0-2.364-2.14-2.364-.21 0-.309.014h-.098q-.183 0-.183-.126 0-.098.338-.154.985-.14 1.52-.713.535-.588.535-1.497 0-.895-.465-1.427-.464-.545-1.253-.545-.577 0-1.013.251-.422.238-.422.56 0 .126.197.168.929.224.929.77 0 .713-.746.713-.479 0-.775-.28-.281-.28-.281-.742 0-.755.647-1.259.662-.517 1.83-.517 1.338 0 2.041.685.704.686.704 1.595 0 1.26-1.196 1.86-.423.21-1.366.35v.098q1.169.042 1.887.518 1.055.7 1.055 2.028z" style="font-size:36.4174px;font-family:&quot;Bodoni 72&quot;;-inkscape-font-specification:&quot;Bodoni 72, &quot;;fill:#000;stroke:#000;stroke-width:.2;stroke-dasharray:none"/></g><g transform="matrix(.26458 0 0 .26458 -66.405 9.085)"><ellipse cx="225.783" cy="466.74" rx="9.002" ry="8.766" style="fill:#80beff;fill-opacity:1;stroke:#000;stroke-width:.986833;stroke-dasharray:none;stroke-opacity:1"/><path d="M228.749 469.725q0 .14-.14.14-.128 0-.17-.154-.028-.168-.098-.881-.028-.112-.113-.168-.169-.098-.746-.098-.155 0-.296.014l.014 2.196q.07.168.226.21.169.042.802.042.31 0 .366.056.014.028.014.084 0 .098-.563.098t-3.153.028q-.14.014-.31.014-.281 0-.281-.14t.408-.126q.479.014.873-.056.169-.028.21-.14.043-.126.043-.532v-1.692q-.281-.014-.647-.014h-.578q-.197 0-.436.014h-.267l-1.788-.042q-.197-.014-.197-.112 0-.07 2.069-2.896.648-.91 2.858-4 .098-.14.197-.14.14 0 .14.265v6.575h.141q.479 0 .746-.056.282-.056.282-.28-.014-.881-.014-.601.014-.504.154-.504.198 0 .198.392v.63l.014 1.007q.014.517.028.657.014.126.014.21zm-2.83-6.24q-.14.225-.59.854-.62.853-1.873 2.546l-1 1.357q.521.042 2.239.042.605 0 1.14-.014v-.993q0-.7.042-1.889.042-1.399.042-1.902z" style="font-size:36.4174px;font-family:&quot;Bodoni 72&quot;;-inkscape-font-specification:&quot;Bodoni 72, &quot;;fill:#000;fill-opacity:1;stroke:#000;stroke-width:.2;stroke-dasharray:none;stroke-opacity:1"/></g><g transform="matrix(.26458 0 0 .26458 -82.835 -5.694)"><ellipse cx="242.439" cy="466.74" rx="9.002" ry="8.766" style="fill:#b580ff;fill-opacity:1;stroke:#000;stroke-width:.986833;stroke-dasharray:none;stroke-opacity:1"/><path d="M245.394 468.366q0 1.79-1.38 2.742-.83.573-2.153.573t-1.942-.685q-.338-.378-.338-.895 0-.434.281-.7.282-.28.732-.28.366 0 .606.21.253.21.253.518 0 .517-.69.783-.31.112-.31.252 0 .224.409.406.422.168.929.168.985 0 1.478-.672.675-.923.675-2.49 0-1.147-.534-1.777-.535-.63-1.52-.63-.76 0-1.676.574.085-3.147.127-3.973.014-.475.211-.573.197-.112 1.07-.112h.478q.338.014.535.014h.479q.971 0 1.126-.028.169-.042.211-.238.057-.322.197-.322.141 0 .141.154 0 .098-.014.154l-.028.322q-.07.783-.296.98-.21.181-1.055.181l-2.69-.014q-.055.476-.098 2.868.803-.364 1.676-.364 1.45 0 2.28.77.83.755.83 2.084z" style="font-size:36.4174px;font-family:&quot;Bodoni 72&quot;;-inkscape-font-specification:&quot;Bodoni 72, &quot;;fill:#000;stroke:#000;stroke-width:.2;stroke-dasharray:none"/></g><g transform="matrix(.26458 0 0 .26458 -96.997 -26.16)"><ellipse cx="273.804" cy="466.74" rx="9.002" ry="8.766" style="fill:#ec80ff;fill-opacity:1;stroke:#000;stroke-width:.986833;stroke-dasharray:none;stroke-opacity:1"/><path d="M276.571 468.394q0 1.357-.83 2.322-.83.965-1.985.965-1.45 0-2.35-1.189-.901-1.189-.901-3.091 0-1.749.76-3.19.774-1.44 2.055-2.098 1.07-.546 2.337-.546.295 0 .295.112 0 .098-.197.112-1.267.112-2.238.91-1.267 1.035-1.492 3.525.774-.728 1.745-.728.789 0 1.478.42 1.323.797 1.323 2.476zm-1.45.042q0-2.602-1.618-2.602-.732 0-1.126.63-.394.615-.394 1.734 0 1.609.577 2.602.366.63 1.07.63 1.492 0 1.492-2.994z" style="font-size:36.4174px;font-family:&quot;Bodoni 72&quot;;-inkscape-font-specification:&quot;Bodoni 72, &quot;;fill:#000;fill-opacity:1;stroke:#000;stroke-width:.2;stroke-dasharray:none;stroke-opacity:1"/></g><path d="M48.848 40.505c.86-.142 1.736-.097 2.603-.084 1.438.026 2.876.05 4.314.059 1.453.003 2.906.005 4.358.005l3.919.008c1.073.001 2.147-.002 3.22.017.308.006.617.01.925.02v-1.565c-.308.009-.617.014-.925.02-1.073.019-2.147.015-3.22.016-1.307.002-2.613.007-3.919.01-1.45 0-2.9.002-4.35-.009-1.43-.01-2.861-.019-4.292-.065-.946-.031-1.895-.084-2.84.015l.207 1.552z" style="fill:#fcff80;fill-opacity:1;stroke:#000;stroke-width:.291042" transform="rotate(-.248 19389.656 22829.735)"/><path d="M52.412 35.779c-.683.603-1.429 1.13-2.166 1.663-.54.396-1.088.77-1.723.99a1.519 1.519 0 0 0-.823.445c-.052.238-.157.47-.154.714.004.382.848.956 1.098 1.15.998.747 2.01 1.475 2.98 2.258.217.196.453.369.673.56l.967-1.225c-.238-.172-.483-.334-.707-.525-.985-.75-1.992-1.473-2.954-2.253-.446-.378-.156-.123-.52-.462l-.064-.056c-.005-.005-.016-.019-.014-.013.155.46.128.06-.086.861-.05.049-.064.069-.122.1-.023.012-.098.027-.074.018.115-.045.24-.063.352-.12.748-.301 1.42-.73 2.06-1.218.763-.558 1.529-1.11 2.28-1.684l-1.003-1.203z" style="fill:#fcff80;fill-opacity:1;stroke:#000;stroke-width:.291042" transform="rotate(-.248 19389.656 22829.735)"/><path d="M49.141 54.146c-.166-.863-.12-1.75-.103-2.624.008-1.344.051-2.806.07-4.15.013-1.461-.023-2.923-.06-4.384-.028-1.105-.083-2.209-.05-3.314l-1.522-.033c-.016 1.131.05 2.26.087 3.39.045 1.437.081 2.876.057 4.314-.03 1.341-.053 2.8-.075 4.141-.03.99-.079 1.988.057 2.973l1.54-.313z" style="fill:#8dff80;fill-opacity:1;stroke:#000;stroke-width:.291042" transform="rotate(-.248 19389.656 22829.735)"/><path d="M44.278 51.633c.745.815 1.383 1.721 2.016 2.625.409.625.81 1.256 1.184 1.902.23.416.441.465 1.096.418.235-.016.394-.377.513-.538.479-.721 1.091-1.34 1.684-1.967a46.425 46.425 0 0 0 1.566-1.665l-1.198-.988c-.439.58-.947 1.1-1.45 1.623-.648.675-1.321 1.333-1.878 2.088-.296.42-.008-.014.14-.007.293.016.576.116.856.205.033.01.09.09.056.088-.035-.003-.04-.059-.06-.088-.432-.641-.86-1.286-1.293-1.927-.67-.95-1.345-1.9-2.065-2.814l-1.167 1.044z" style="fill:#8dff80;fill-opacity:1;stroke:#000;stroke-width:.291042" transform="rotate(-.248 19389.656 22829.735)"/><path d="M48.506 56.943c1.464-.264 2.965-.275 4.448-.327 3.54-.054 7.082.014 10.623.053 3.77.061 7.54.037 11.311.036 2.484-.024 4.969.041 7.452.004.503-.01 1.005-.031 1.507-.053l-.12-1.535c-.476.055-.953.096-1.431.12-2.469.114-4.943.085-7.413.134-3.764.031-7.528.032-11.291.005-3.558-.044-7.115-.159-10.673-.177-1.587.023-3.185.014-4.762.218l.349 1.522z" style="fill:#80edff;fill-opacity:1;stroke:#000;stroke-width:.291042" transform="rotate(-.248 19389.656 22829.735)"/><path d="M79.931 53.652c.904.326 1.673.954 2.448 1.507.66.51 1.372.955 1.99 1.517l.077.076c.118.121-.04-.011-.03-.037.172-.414.391-.805.587-1.208-1.14.216-2.17.865-3.116 1.51-.502.373-1 .758-1.437 1.208l1.166 1.056c.318-.4.735-.712 1.126-1.034.693-.493 1.487-1.024 2.342-1.16.686-1.23.977-1.025.293-1.6-.685-.548-1.434-1.005-2.134-1.533-.92-.663-1.82-1.407-2.891-1.812l-.421 1.51z" style="fill:#80edff;fill-opacity:1;stroke:#000;stroke-width:.291042" transform="rotate(-.248 19389.656 22829.735)"/><path d="M85.43 55.976c-.04-1.402-.047-2.806-.056-4.209-.037-2.197.084-4.39.185-6.583.073-1.582.115-3.166.156-4.75.014-.512.006-.278.022-.701l-1.553-.017c.009.417.005.186.01.69a110.8 110.8 0 0 1-.093 4.688c-.093 2.223-.2 4.446-.185 6.673-.01 1.403-.015 2.807-.055 4.21h1.568z" style="fill:#80beff;fill-opacity:1;stroke:#000;stroke-width:.291042" transform="rotate(-1.353 3582.444 4256.443)"/><path d="M82.677 44.057a43.984 43.984 0 0 0 2.169-3.568c.185-.361.39-.714.549-1.09.007-.02.045-.066.023-.062-.455.075-.9.206-1.353.284-.019.003-.045-.061-.037-.044.175.369.411.714.63 1.057.677 1.042 1.482 1.991 2.326 2.9-.046-.04.48.489.37.405l1.301-.893c-.168-.215-.37-.392-.572-.576-.805-.794-1.55-1.653-2.136-2.626-.172-.294-.33-.584-.478-.89-.045-.091-.035-.268-.137-.274-1.314-.075-1.629.625-1.417.164-.07.333-.298.626-.408.943-.571 1.14-1.204 2.265-2.016 3.253l1.186 1.017z" style="fill:#80beff;fill-opacity:1;stroke:#000;stroke-width:.291042" transform="rotate(-1.353 3582.444 4256.443)"/><path d="M84.736 38.833c-.87.127-1.75.133-2.626.153-1.37.067-2.741.044-4.112.071-1.365.028-2.729.031-4.093-.004a220.064 220.064 0 0 0-3.838-.184c-.55-.022-1.102-.04-1.653-.066l-.01 1.571a35.373 35.373 0 0 1 1.625-.005c1.282.026 2.562.097 3.843.16 1.385.038 2.77.04 4.154.01 1.37-.03 2.737-.012 4.105-.066.936-.01 1.875-.01 2.809-.088l-.204-1.552z" style="fill:#b580ff;fill-opacity:1;stroke:#000;stroke-width:.291042" transform="rotate(-.248 19389.656 22829.735)"/><path d="M74.25 42.624c-.714-.683-1.484-1.308-2.234-1.95-.72-.655-1.482-1.26-2.33-1.74-.283-.112-.427-.365-.132.03.077.715.128.266-.194.878-.007.014.03-.009.044-.014.067-.025.132-.053.198-.076.253-.09.508-.173.76-.26.955-.369 1.88-.82 2.732-1.388.243-.17.485-.347.665-.585l.085-.162-1.478-.576.077-.145c.17-.208-.18.223-.233.203-.706.523-1.502.915-2.329 1.209-.579.184-1.571.329-1.805.994-.062.177.021.374.031.56.064.097.122.197.191.29.153.2.444.29.654.405.774.388 1.447.932 2.087 1.51.674.584 1.361 1.16 1.985 1.797l1.226-.98z" style="fill:#b580ff;fill-opacity:1;stroke:#000;stroke-width:.291042" transform="rotate(-.248 19389.656 22829.735)"/><path d="M-29.4 123.062c-.142-1.324-.108-2.666-.069-3.998.104-2.37.143-4.744.166-7.117.021-2.597.024-5.194.03-7.791.005-2.06.013-4.12.017-6.18-.049-1.772-.08-3.546-.148-5.317-.047-1.466-.15-2.934-.112-4.402.02-.369.018-.41.047-.753.023-.258-.006-.31.038-.21l-1.504-.595c-.085.502-.103 1.01-.108 1.524-.003 1.513.096 3.024.15 4.536.065 1.738.097 3.478.149 5.218.005 2.06.014 4.119.018 6.178.005 2.587.007 5.175-.02 7.762a193.218 193.218 0 0 1-.2 7.056c-.059 1.448-.1 2.9-.008 4.347l1.554-.258z" style="fill:#ec80ff;fill-opacity:1;stroke:#000;stroke-width:.291041"/><path d="M-33.302 90.82a73.581 73.581 0 0 1 1.956-2.214c.346-.36.676-.737 1.033-1.087.058-.057.233-.24.332-.27-.036.024-.065.068-.109.072-.21.022-.432-.052-.636.005-.112.032.223.072.339.078.195.01.325-.051.485-.14.058-.033-.119.057-.178.085-.156 0-.312.004-.468-.004-.03 0-.105-.055-.085-.032.195.22.418.428.618.644.631.692 1.293 1.361 1.877 2.094.081.13.517.65.526.81.002.027-.028-.048-.042-.071l-.038-.353 1.565.243-.031-.398c-.194-.442-.493-.83-.795-1.204-.619-.734-1.298-1.414-1.927-2.14-.22-.253-.766-1.016-1.125-1.079-.174-.03-.353-.018-.53-.027-.533.235-.001-.027.195-.012.101.008.396.063.296.077-.228.033-.461-.042-.69-.02-.07.007-.12.07-.181.105-.572.477-1.013 1.087-1.533 1.617-.649.709-1.296 1.42-1.966 2.11l1.112 1.11z" style="fill:#ec80ff;fill-opacity:1;stroke:#000;stroke-width:.291042"/><path d="M-40.111 120.509a.53.53 0 0 0 .42.041c.03-.007.059-.014.08-.034.008-.007.023-.028.023-.041-.008-.124-.262-.083-.335-.062" style="display:inline;fill:none;stroke:#000;stroke-width:.264583;stroke-dasharray:none;stroke-opacity:1"/><path d="M-42.064 118.653c.256-.146.54-.27.843-.295.07-.006.173-.007.244 0 .153.015.354.05.383.242.029.198-.113.354-.246.478-.117.108-.215.17-.347.245.102.016.296.049.403.093.202.084.378.193.485.363.128.201.07.377-.109.517-.118.092-.29.162-.416.196-.29.076-.59.095-.892.076a1.507 1.507 0 0 1-.402-.084.914.914 0 0 1-.193-.106" style="display:inline;fill:none;fill-opacity:1;stroke:#000;stroke-width:.264583;stroke-linecap:butt;stroke-linejoin:miter;stroke-miterlimit:4;stroke-dasharray:none;stroke-opacity:1"/><path d="M-42.533 119.78h-.102c-.188 0-.376-.002-.564-.004a11.17 11.17 0 0 0-.58.006l-.314.008M-39.198 120.43c.345.1.702.149 1.05.11a1.51 1.51 0 0 0 .667-.208c.123-.076.163-.213.102-.331-.127-.248-.382-.418-.636-.53a1.948 1.948 0 0 0-.196-.07c-.065-.016-.076-.008.003-.03.061-.035.197-.092.258-.124.208-.11.348-.244.413-.44.033-.095.018-.223-.095-.295-.161-.104-.41-.116-.6-.102-.365.029-.705.121-1.027.266" style="display:inline;fill:none;stroke:#000;stroke-width:.264583;stroke-dasharray:none"/><g style="stroke-width:.199627;stroke-dasharray:none"><path d="M60.34 29.033c.044-.067.093-.132.133-.188.208-.294.41-.591.61-.888a6.29 6.29 0 0 1 .362-.489.03.03 0 0 0 .008-.019c0-.027-.132-.018-.15-.019a19.957 19.957 0 0 0-1.646.002" style="display:inline;fill:none;stroke:#000;stroke-width:.199627;stroke-dasharray:none" transform="matrix(1.30984 0 0 1.34113 -115.464 81.71)"/><path d="M60.335 28.3c.208-.003.335.01.543.007.076-.001.17.002.215 0 .008 0 .139-.005.158-.008" style="display:inline;fill:#000;stroke:#000;stroke-width:.199627;stroke-dasharray:none" transform="matrix(1.30984 0 0 1.34113 -115.464 81.71)"/></g><g style="display:inline;stroke-width:3.99346;stroke-dasharray:none"><path d="M-698.623-3366.226c-1.298-.16-2.924.066-4.477.16-6.92.424-11.25.877-18.25 1.137" style="fill:none;stroke:#000;stroke-width:3.99346;stroke-dasharray:none;stroke-opacity:1" transform="matrix(.07008 0 0 .06264 15.821 329.225)"/><path d="M-722.041-3336.057c.11 1.695 2.161 1.931 3.452 2.419 5.983 2.257 12.145 1.713 18.033.343 3.1-.722 6.557-2.392 7.683-5.607 1.097-3.133-.41-6.367-2.215-8.836-3.398-4.652-9.65-7.174-15.36-6.695-1.805.15-3.6.397-5.298 1.144-1.65.725-3.238 1.513-4.567 2.705-.295-.236-.132-1.545-.124-2.32l.124-12.716" style="fill:none;stroke:#000;stroke-width:3.99346;stroke-dasharray:none;stroke-opacity:1" transform="matrix(.07008 0 0 .06264 15.821 329.225)"/></g><path d="M-57.287 132.987c.15-.043.192-.117.16-.265-.01-.02-.032-.053-.053-.063-.064-.053-.182-.021-.214.053a.647.647 0 0 0-.01.285" style="display:inline;fill:none;stroke:#000;stroke-width:.264583;stroke-dasharray:none;stroke-opacity:1"/><path d="m-56.493 132.909.007-.011c.049-.085.093-.172.137-.259.165-.326.304-.664.444-1 .07-.169.138-.338.205-.508.017-.043.058-.146.074-.196a.553.553 0 0 0 .02-.1c-.002-.067-.09-.065-.138-.065-.26.001-.52.035-.78.04-.274.006-.548.01-.823.008" style="display:inline;fill:none;stroke:#000;stroke-width:.264583;stroke-dasharray:none"/><path d="M-55.415 131.825c-.171.026-.347.01-.494.017-.273.003-.546.004-.819.022" style="display:inline;fill:#000;stroke:#000;stroke-width:.264583;stroke-dasharray:none"/><path d="M-61.749 132.233c.246 0 .492.005.738.007l.625.004h.063M-57.802 132.88a1.788 1.788 0 0 0-.03-.017c-.242-.073-.497-.09-.748-.106-.349-.01-.699 0-1.04.081-.097.023-.198.041-.284.094v.016c0 .003.005-.004.008-.006.027-.017.057-.033.085-.049.234-.14.449-.31.639-.505.123-.128.171-.175.285-.312.166-.202.318-.415.45-.64.076-.131.225-.376.152-.535a.16.16 0 0 0-.044-.057.233.233 0 0 0-.07-.037c-.203-.073-.456-.03-.665.019-.257.06-.514.132-.752.247M61.714 73.72a.6.6 0 0 1 .376-.317c.287-.079.598-.07.884.01.289.081.528.362.493.659-.029.24-.265.398-.489.463-.338.099-.726.096-1.038-.072a.694.694 0 0 1-.325-.392c-.12-.359-.02-.749.142-1.079.201-.407.503-.78.902-1.02a.93.93 0 0 1 .233-.098" style="display:inline;fill:none;stroke:#000;stroke-width:.264583;stroke-dasharray:none"/><path d="M65.333 68.922c-.03.022-.06.044-.088.062a.997.997 0 0 1-.457.153.783.783 0 0 1-.402-.066.703.703 0 0 1-.416-.611.85.85 0 0 1 .486-.824.636.636 0 0 1 .14-.047c.172-.035.294 0 .398.125M36.498 49.728l-.088.062a.997.997 0 0 1-.457.153.783.783 0 0 1-.402-.066.703.703 0 0 1-.416-.611.85.85 0 0 1 .486-.824.636.636 0 0 1 .139-.047c.172-.036.295 0 .398.124M59.971 36.593c-.03.022-.061.045-.088.062a.997.997 0 0 1-.457.153.783.783 0 0 1-.402-.065.703.703 0 0 1-.416-.612.85.85 0 0 1 .486-.824.636.636 0 0 1 .139-.047c.172-.035.295.001.398.125" style="display:inline;fill:none;fill-opacity:1;stroke:#000;stroke-width:.283244;stroke-linecap:butt;stroke-linejoin:miter;stroke-miterlimit:4;stroke-dasharray:none;stroke-opacity:1"/><path d="m94.54 49.42-.088.061a.997.997 0 0 1-.458.153.783.783 0 0 1-.402-.065.703.703 0 0 1-.416-.612.85.85 0 0 1 .486-.824.637.637 0 0 1 .14-.047c.172-.035.295.001.398.125" style="display:inline;fill:none;fill-opacity:1;stroke:#000;stroke-width:.264583;stroke-linecap:butt;stroke-linejoin:miter;stroke-miterlimit:4;stroke-dasharray:none;stroke-opacity:1"/><path d="M72.826 15.854c-.11.017-.22.036-.313.042-.386.027-.836-.03-1.122-.262-.096-.077-.185-.171-.213-.276a.72.72 0 0 1 .034-.412.949.949 0 0 1 .36-.424c.255-.171.591-.256.85-.225" style="fill:none;fill-opacity:1;stroke:#000;stroke-width:.264583;stroke-linecap:butt;stroke-linejoin:round;stroke-miterlimit:4;stroke-dasharray:none;stroke-dashoffset:0;stroke-opacity:1"/><path d="M68.988 14.594c.3-.118.644-.144.954-.05a.931.931 0 0 1 .528.431c.112.198.107.466-.06.633-.224.224-.584.258-.893.209-.357-.057-.659-.332-.726-.673-.071-.36.046-.728.23-1.039.135-.229.316-.433.546-.58.175-.113.365-.207.567-.263" style="display:inline;fill:none;stroke:#000;stroke-width:.264583;stroke-dasharray:none"/><path d="M69.906 35.966c.398-.003.796.013 1.193.01.146-.002.326.002.412 0 .015 0 .112-.006.148-.01" style="display:inline;fill:#000;stroke:#000;stroke-width:.264583;stroke-dasharray:none"/><path d="M32.647 47.943c.27-.155.572-.286.894-.312.074-.006.183-.008.258 0 .162.016.375.053.405.256.031.21-.119.375-.26.506-.123.114-.228.18-.368.26.109.016.314.051.428.098.214.088.4.203.514.384.135.213.045.428-.115.558-.124.1-.31.187-.442.23-.271.091-.538.109-.87.064-.14-.018-.271-.08-.362-.118a1.122 1.122 0 0 1-.222-.134" style="display:inline;fill:none;fill-opacity:1;stroke:#000;stroke-width:.264583;stroke-linecap:butt;stroke-linejoin:miter;stroke-miterlimit:4;stroke-dasharray:none;stroke-opacity:1"/><path d="M90.719 49.446c.365.106.744.157 1.113.117.278-.03.496-.09.707-.221.13-.08.173-.226.109-.351-.135-.262-.406-.442-.675-.56a2.066 2.066 0 0 0-.208-.075c-.069-.017-.08-.008.004-.031.064-.038.208-.098.273-.132.22-.116.368-.258.438-.465.034-.101.019-.237-.1-.313-.172-.11-.435-.123-.637-.107-.387.03-.747.128-1.089.28" style="display:inline;fill:none;stroke:#000;stroke-width:.264583;stroke-dasharray:none"/><g style="stroke-width:1.02168"><path d="M76.244 36.906c-.109.017-.219.036-.312.042-.385.027-.834-.03-1.12-.26-.095-.077-.183-.171-.21-.275a.714.714 0 0 1 .033-.41.944.944 0 0 1 .36-.422c.253-.17.588-.255.847-.224" style="fill:none;fill-opacity:1;stroke:#000;stroke-width:.27032;stroke-linecap:butt;stroke-linejoin:round;stroke-miterlimit:4;stroke-dasharray:none;stroke-dashoffset:0;stroke-opacity:1" transform="matrix(.97962 0 0 .97793 1.51 .789)"/><path d="M72.183 34.836c.272-.155.574-.287.898-.314.075-.006.184-.007.259 0 .163.016.377.053.407.258.031.21-.12.377-.261.508-.124.115-.23.182-.37.261a2.3 2.3 0 0 1 .43.1c.215.089.402.204.516.386.136.214.046.43-.116.561a1.56 1.56 0 0 1-.443.232c-.272.091-.54.109-.874.064-.14-.019-.272-.08-.364-.119a1.126 1.126 0 0 1-.222-.135" style="display:inline;fill:none;fill-opacity:1;stroke:#000;stroke-width:.27032;stroke-linecap:butt;stroke-linejoin:miter;stroke-miterlimit:4;stroke-dasharray:none;stroke-opacity:1" transform="matrix(.97962 0 0 .97793 1.51 .789)"/></g><path d="M34.755 56.636c-.143-.002-.304 0-.426 0-.396-.001-.6-.001-.979.01-.01 0-.134.013-.2.023-.09.015-.173.064-.22.027-.045-.021.017-.225.015-.266.088-.423.177-.758.238-1.185" style="display:inline;fill:none;fill-opacity:1;stroke:#000;stroke-width:.264584;stroke-linecap:butt;stroke-linejoin:miter;stroke-miterlimit:4;stroke-dasharray:none;stroke-opacity:1"/><path d="M34.294 55.523c-.013.55.04 1.647.04 1.647.011.172.03.344.062.514" style="display:inline;fill:none;fill-opacity:1;stroke:#000;stroke-width:.264584;stroke-linecap:butt;stroke-linejoin:miter;stroke-miterlimit:4;stroke-dasharray:none;stroke-opacity:1"/><path d="M36.433 57.394c-.067.07-.018.046-.119.105-.329.193-.637.194-.965.007a.523.523 0 0 1-.232-.23c-.116-.216-.058-.504.062-.677a.856.856 0 0 1 .134-.16c.241-.208.555-.217.82-.084.129.064.164.1.275.21" style="display:inline;fill:none;stroke:#000;stroke-width:.264584;stroke-dasharray:none;stroke-opacity:1"/><path d="M30.896 56.906c.276 0 .551-.005.827-.009l.7-.004h.07" style="display:inline;fill:none;stroke:#000;stroke-width:.264583;stroke-dasharray:none"/><path d="M33.767 50.446c.06.384.161.762.246 1.141.017.082.028.128.037.205 0 .005.022.09-.012.081-.037-.01-.041-.094-.057-.16-.076-.311-.121-.683.079-.963a.95.95 0 0 1 .171-.183c.068-.055.145-.107.223-.147.231-.12.54-.21.803-.135.037.01.07.032.104.048M32.573 50.35c-.377.06-.747.26-.94.585-.064.128-.129.27-.088.415.049.24.287.391.517.45.337.084.702.034 1.017-.102.245-.107.47-.315.5-.583a.604.604 0 0 0-.347-.611c-.15-.077-.323-.091-.489-.11a1.015 1.015 0 0 0-.361.05" style="display:inline;fill:none;fill-opacity:1;stroke:#000;stroke-width:.264583;stroke-linecap:butt;stroke-linejoin:bevel;stroke-miterlimit:4;stroke-dasharray:none;stroke-opacity:1" transform="translate(.952 1.7)"/><path d="M30.232 52.796c.144.067.328.292.663.302.244.008.308-.373.595-.38.17-.003.418.12.568.198M36.012 52.676c.144.067.329.291.663.302.245.008.308-.374.595-.38.17-.004.418.12.569.198" style="display:inline;fill:none;stroke:#000;stroke-width:.264583;stroke-dasharray:none"/><path d="M55.518 36.747c.09.027.177.03.277.015.02-.003.038-.005.052-.012.005-.003.015-.01.015-.015-.005-.044-.172-.03-.22-.022M56.538 36.747c.09.027.176.03.277.015.019-.003.038-.005.052-.012.005-.003.015-.01.015-.015-.005-.044-.172-.03-.22-.022M57.557 36.747a.624.624 0 0 0 .33.003c.005-.003.014-.01.014-.015-.005-.044-.172-.03-.22-.022" style="display:inline;fill:none;stroke:#000;stroke-width:.264583;stroke-dasharray:none;stroke-opacity:1"/><path d="M93.096 51.294c.027.42.13 1.01.193 1.394.003.017.055.248-.09.184 0 0-.02-.032-.027-.058a1.248 1.248 0 0 1-.011-.483c.018-.103.048-.196.079-.294.124-.392.36-.71.768-.858a.709.709 0 0 1 .195-.033.886.886 0 0 1 .408.09" style="display:inline;fill:none;fill-opacity:1;stroke:#000;stroke-width:.264583;stroke-linecap:butt;stroke-linejoin:miter;stroke-miterlimit:4;stroke-dasharray:none;stroke-opacity:1"/><path d="M92.118 51.225c.061.016.126.024.175.046.069.03.135.065.195.11.244.182.494.55.435.884-.013.073-.056.137-.084.205-.054.053-.101.115-.162.158-.081.056-.17.1-.26.135-.249.1-.525.12-.781.037a.892.892 0 0 1-.225-.105.65.65 0 0 1-.157-.154.711.711 0 0 1-.098-.592c.037-.15.096-.222.174-.349.043-.048.081-.102.13-.144.108-.097.264-.198.413-.202.026 0 .053.005.078.013" style="display:inline;fill:none;fill-opacity:1;stroke:#000;stroke-width:.264583;stroke-linecap:butt;stroke-linejoin:bevel;stroke-miterlimit:4;stroke-dasharray:none;stroke-opacity:1"/><path d="M88.987 51.999s.354.459.634.438c.306-.023.306-.534.608-.582.19-.03.494.288.494.288M94.01 51.933s.282.53.534.524c.322-.01.368-.672.688-.707.264-.028.568.367.568.367" style="opacity:1;fill:none;fill-opacity:1;stroke:#000;stroke-width:.264583;stroke-linecap:butt;stroke-dasharray:none"/><g style="display:inline;stroke-width:2.99313;stroke-dasharray:none"><path d="M-1005.295-3307.382a2.746 2.746 0 0 0-1.315-.266c-5.531.162-11.148.691-16.506 1.987-1.468.346-2.851.692-4.234 1.47-.26.172-.518.518-.778.431-.085-.085 0-.172 0-.259.346-1.9.951-3.716 1.383-5.617.864-3.284 1.556-6.654 2.16-9.938" style="fill:none;stroke:#000;stroke-width:2.99313;stroke-dasharray:none;stroke-opacity:1" transform="matrix(.08797 0 0 .08882 181.194 349.009)"/><path d="M-1008.17-3291.718c-.323-.712-.58-1.587-.687-1.963-.715-2.534-1.004-5.149-1.21-7.685-.572-7.052-.345-14.03-.432-21.08" style="fill:none;stroke:#000;stroke-width:2.99313;stroke-dasharray:none;stroke-opacity:1" transform="matrix(.08797 0 0 .08882 181.194 349.009)"/></g><path d="M94.166 54.953c-.383-.011-.786.126-1.04.424-.089.12-.18.253-.169.41.002.255.207.456.422.561.316.15.685.168 1.022.087" style="display:inline;fill:none;fill-opacity:1;stroke:#000;stroke-width:.264583;stroke-linecap:butt;stroke-linejoin:bevel;stroke-miterlimit:4;stroke-dasharray:none;stroke-opacity:1"/><path d="M72.569 22.235c-.165.113-.38.135-.58.15-.329.013-.682-.056-.921-.27-.15-.131-.235-.338-.178-.524.067-.232.295-.39.522-.498.222-.106.416-.133.576-.142a.737.737 0 0 1 .306.046" style="display:inline;fill:none;stroke:#000;stroke-width:.264583;stroke-miterlimit:2;stroke-dasharray:none"/><g style="display:inline;stroke-width:1.92011;stroke-dasharray:none"><path d="M-406.725-3400.044c2.318-.268 4.646-.404 6.976-.5 1.865-.075 3.732-.122 5.598-.12.673 0 .918-.152.543.541-1.026 1.9-1.819 3.914-2.58 5.929-1.037 2.746-2.104 5.48-3.14 8.227-.377 1-.796 1.987-1.1 3.013-.042.145-.023.08-.05.195" style="fill:none;stroke:#000;stroke-width:1.92011;stroke-dasharray:none" transform="matrix(.13725 0 0 .13834 124.563 490.477)"/><path d="m-394.23-3392.178-1.905.069c-1.808.072-3.618.141-5.42.317M-401.537-3391.69c1.796-.182 3.602-.251 5.406-.322.635-.024 1.27-.044 1.905-.064" style="fill:#000;stroke:#000;stroke-width:1.92011;stroke-dasharray:none" transform="matrix(.13725 0 0 .13834 124.563 490.477)"/></g><g style="stroke-width:1.01096"><g style="stroke-width:1.06886"><path d="M69.764 17.216c-.275.073-.538.212-.718.43a.87.87 0 0 0-.114.172.688.688 0 0 0-.064.197.673.673 0 0 0 .23.598c.169.148.277.179.494.231.102.025.209.025.314.02.37-.017.844-.176 1.03-.513a.554.554 0 0 0 .047-.407c-.09-.316-.43-.552-.736-.645a.937.937 0 0 0-.481-.032M71.118 17.259c.08.306.145.604.22.912.06.243.12.494.16.733-.052-.439 0-.753.176-1.07.107-.193.359-.543.672-.588.121-.018.25.05.333.139.068.07.133.152.193.245" style="display:inline;fill:none;fill-opacity:1;stroke:#000;stroke-width:.282802;stroke-linecap:butt;stroke-linejoin:miter;stroke-miterlimit:4;stroke-dasharray:none;stroke-opacity:1" transform="matrix(.93786 0 0 .9333 4.402 1.205)"/></g><path d="M66.613 18.044s.379-.504.658-.465c.371.053.302.75.673.806.243.036.548-.403.548-.403M72.982 18.237s.353-.484.627-.465c.383.026.383.81.767.79.338-.017.516-.45.516-.45" style="opacity:1;fill:none;fill-opacity:1;stroke:#000;stroke-width:.267483;stroke-linecap:butt;stroke-dasharray:none" transform="matrix(.98972 0 0 .9886 .727 .206)"/></g><path d="M61.817 68.499c.047-.184.244-.296.381-.344.34-.119.947-.105 1.182.226.099.139.147.334.011.522a.817.817 0 0 1-.435.283c-.345.102-.759.03-1.044-.196a.762.762 0 0 1-.192-.2.865.865 0 0 1-.145-.512c.002-.372.215-.79.485-1.075.37-.391 1.028-.62 1.415-.565" style="display:inline;fill:none;fill-opacity:1;stroke:#000;stroke-width:.264583;stroke-linecap:butt;stroke-linejoin:miter;stroke-miterlimit:4;stroke-dasharray:none;stroke-opacity:1"/></svg>