<svg xmlns="http://www.w3.org/2000/svg" id="svg18788" width="750" height="730" preserveAspectRatio="xMinYMin" version="1.1" viewBox="70 20 750 730"><style id="style17942" type="text/css"></style><text id="text556" x="107.75" y="-111.898" class="screen_text1" style="font-size:16px;font-family:Emulogic;fill:#fdfdfd" text-anchor="start">1up</text><text id="text558" x="107.75" y="-91.898" class="screen_text1" style="font-size:16px;font-family:Emulogic;fill:#fdfdfd" text-anchor="start">7330</text><text id="text560-1" x="606.25" y="-122.746" class="screen_text1" style="font-size:16px;font-family:Emulogic;fill:#fdfdfd" text-anchor="start">high score</text><text id="text562-0" x="606.25" y="-102.746" class="screen_text1" style="font-size:16px;font-family:Emulogic;fill:#fdfdfd">7330</text><g id="layer6" style="display:inline"><rect id="rect17944" width="100%" height="100%" x="70" y="20" style="fill:#000"/></g><g id="layer7" style="display:inline"><path id="path17946" d="M467 117v-4a6 6 0 0 1 6-6h4a6 6 0 0 1 6 6v4a6 6 0 0 1-6 6h-4a6 6 0 0 1-6-6z" style="fill:none;stroke:#193fff;stroke-width:2.5"/><path id="path17948" d="M423 113v4a6 6 0 0 1-6 6h-4a6 6 0 0 1-6-6v-4a6 6 0 0 1 6-6h4a6 6 0 0 1 6 6z" style="fill:none;stroke:#193fff;stroke-width:2.5"/><path id="path17950" d="M467 177v-4a6 6 0 0 1 6-6h4a6 6 0 0 1 6 6v4a6 6 0 0 1-6 6h-4a6 6 0 0 1-6-6z" style="fill:none;stroke:#193fff;stroke-width:2.5"/><path id="path17952" d="M423 173v4a6 6 0 0 1-6 6h-4a6 6 0 0 1-6-6v-4a6 6 0 0 1 6-6h4a6 6 0 0 1 6 6z" style="fill:none;stroke:#193fff;stroke-width:2.5"/><path id="path17954" d="M467 297v-4a6 6 0 0 1 6-6h32a38.013 38.013 0 0 1 26.87 11.13A38.013 38.013 0 0 1 543 325v32a6 6 0 0 1-6 6h-4a6 6 0 0 1-6-6v-48a6 6 0 0 0-6-6h-48a6 6 0 0 1-6-6z" style="fill:none;stroke:#193fff;stroke-width:2.5"/><path id="path17956" d="M423 293v4a6 6 0 0 1-6 6h-48a6 6 0 0 0-6 6v48a6 6 0 0 1-6 6h-4a6 6 0 0 1-6-6v-32a38.013 38.013 0 0 1 11.13-26.87A38.013 38.013 0 0 1 385 287h32a6 6 0 0 1 6 6z" style="fill:none;stroke:#193fff;stroke-width:2.5"/><path id="path17960" d="M363 114.753v4.071a6.135 6.135 0 0 1-5.351 6.037 202.087 202.087 0 0 0-115.485 57.303 202.087 202.087 0 0 0-57.303 115.485 6.135 6.135 0 0 1-6.037 5.351h-4.07a5.877 5.877 0 0 1-5.867-6.614 218.094 218.094 0 0 1 61.964-125.535 218.094 218.094 0 0 1 125.535-61.964 5.877 5.877 0 0 1 6.614 5.866Z" style="fill:none;stroke:#193fff;stroke-width:2.5"/><path id="path17962" d="M527 118.824v-4.07a5.877 5.877 0 0 1 6.614-5.867 218.094 218.094 0 0 1 125.535 61.964 218.094 218.094 0 0 1 61.964 125.535 5.877 5.877 0 0 1-5.866 6.614h-4.071a6.135 6.135 0 0 1-6.037-5.351 202.087 202.087 0 0 0-57.303-115.485 202.087 202.087 0 0 0-115.485-57.303 6.135 6.135 0 0 1-5.351-6.037Z" style="fill:none;stroke:#193fff;stroke-width:2.5"/><path id="path17964" d="M413 227h64a6 6 0 0 1 6 6v4a6 6 0 0 1-6 6h-64a6 6 0 0 1-6-6v-4a6 6 0 0 1 6-6z" style="fill:none;stroke:#193fff;stroke-width:2.5"/><path id="path17966" d="M363 237.043v4.408a6.277 6.277 0 0 1-4.332 5.894 82.008 82.008 0 0 0-31.65 19.672 82.008 82.008 0 0 0-19.673 31.651 6.277 6.277 0 0 1-5.894 4.332h-4.408a5.672 5.672 0 0 1-5.575-7.246 98.017 98.017 0 0 1 24.236-40.05 98.017 98.017 0 0 1 40.05-24.236 5.672 5.672 0 0 1 7.246 5.575Z" style="fill:none;stroke:#193fff;stroke-width:2.5"/><path id="path17968" d="M363 175.443v4.14a6.176 6.176 0 0 1-5.052 6.02 142.057 142.057 0 0 0-73.357 38.988 142.057 142.057 0 0 0-38.989 73.357 6.176 6.176 0 0 1-6.018 5.052h-4.14a5.815 5.815 0 0 1-5.793-6.814 158.064 158.064 0 0 1 43.626-82.909 158.064 158.064 0 0 1 82.909-43.626 5.815 5.815 0 0 1 6.814 5.792Z" style="fill:none;stroke:#193fff;stroke-width:2.5"/><path id="path17970" d="M527 241.451v-4.408a5.672 5.672 0 0 1 7.246-5.575 98.017 98.017 0 0 1 40.05 24.236 98.017 98.017 0 0 1 24.236 40.05 5.672 5.672 0 0 1-5.575 7.246h-4.408a6.277 6.277 0 0 1-5.894-4.332 82.008 82.008 0 0 0-19.672-31.65 82.008 82.008 0 0 0-31.651-19.673 6.277 6.277 0 0 1-4.332-5.894Z" style="fill:none;stroke:#193fff;stroke-width:2.5"/><path id="path17972" d="M527 179.584v-4.14a5.815 5.815 0 0 1 6.814-5.793 158.064 158.064 0 0 1 82.909 43.626 158.064 158.064 0 0 1 43.626 82.909 5.815 5.815 0 0 1-5.792 6.814h-4.14a6.176 6.176 0 0 1-6.02-5.052 142.057 142.057 0 0 0-38.988-73.357 142.057 142.057 0 0 0-73.357-38.989 6.176 6.176 0 0 1-5.052-6.018Z" style="fill:none;stroke:#193fff;stroke-width:2.5"/><path id="path17974" d="M233 407h4a6 6 0 0 1 6 6v4a6 6 0 0 1-6 6h-4a6 6 0 0 1-6-6v-4a6 6 0 0 1 6-6z" style="fill:none;stroke:#193fff;stroke-width:2.5"/><path id="path17976" d="M237 363h-4a6 6 0 0 1-6-6v-4a6 6 0 0 1 6-6h4a6 6 0 0 1 6 6v4a6 6 0 0 1-6 6z" style="fill:none;stroke:#193fff;stroke-width:2.5"/><path id="path17978" d="M293 407h4a6 6 0 0 1 6 6v4a6 6 0 0 1-6 6h-4a6 6 0 0 1-6-6v-4a6 6 0 0 1 6-6z" style="fill:none;stroke:#193fff;stroke-width:2.5"/><path id="path17980" d="M297 363h-4a6 6 0 0 1-6-6v-4a6 6 0 0 1 6-6h4a6 6 0 0 1 6 6v4a6 6 0 0 1-6 6z" style="fill:none;stroke:#193fff;stroke-width:2.5"/><path id="path17982" d="M353 407h4a6 6 0 0 1 6 6v48a6 6 0 0 0 6 6h48a6 6 0 0 1 6 6v4a6 6 0 0 1-6 6h-32a38.013 38.013 0 0 1-26.87-11.13A38.013 38.013 0 0 1 347 445v-32a6 6 0 0 1 6-6z" style="fill:none;stroke:#193fff;stroke-width:2.5"/><path id="path17984" d="M167 417v-64a6 6 0 0 1 6-6h4a6 6 0 0 1 6 6v64a6 6 0 0 1-6 6h-4a6 6 0 0 1-6-6z" style="fill:none;stroke:#193fff;stroke-width:2.5"/><path id="path17986" d="M174.753 467h4.071a6.135 6.135 0 0 1 6.037 5.351 202.087 202.087 0 0 0 57.303 115.485 202.087 202.087 0 0 0 115.485 57.303 6.135 6.135 0 0 1 5.351 6.037v4.07a5.877 5.877 0 0 1-6.614 5.867 218.094 218.094 0 0 1-125.535-61.964 218.094 218.094 0 0 1-61.964-125.535 5.877 5.877 0 0 1 5.866-6.614Z" style="fill:none;stroke:#193fff;stroke-width:2.5"/><path id="path17988" d="M235.443 467h4.14a6.176 6.176 0 0 1 6.02 5.052 142.057 142.057 0 0 0 38.988 73.357 142.057 142.057 0 0 0 73.357 38.989 6.176 6.176 0 0 1 5.052 6.018v4.14a5.815 5.815 0 0 1-6.814 5.793 158.064 158.064 0 0 1-82.909-43.626 158.064 158.064 0 0 1-43.626-82.909 5.815 5.815 0 0 1 5.792-6.814Z" style="fill:none;stroke:#193fff;stroke-width:2.5"/><path id="path17990" d="M297.043 467h4.408a6.277 6.277 0 0 1 5.894 4.332 82.008 82.008 0 0 0 19.672 31.65 82.008 82.008 0 0 0 31.651 19.673 6.277 6.277 0 0 1 4.332 5.894v4.408a5.672 5.672 0 0 1-7.246 5.575 98.017 98.017 0 0 1-40.05-24.236 98.017 98.017 0 0 1-24.236-40.05 5.672 5.672 0 0 1 5.575-7.246Z" style="fill:none;stroke:#193fff;stroke-width:2.5"/><path id="path17992" d="M413 347h4a6 6 0 0 1 6 6v4a6 6 0 0 1-6 6h-4a6 6 0 0 1-6-6v-4a6 6 0 0 1 6-6z" style="fill:none;stroke:#193fff;stroke-width:2.5"/><path id="path17994" d="M473 347h4a6 6 0 0 1 6 6v4a6 6 0 0 1-6 6h-4a6 6 0 0 1-6-6v-4a6 6 0 0 1 6-6z" style="fill:none;stroke:#193fff;stroke-width:2.5"/><path id="path17996" d="M407 417v-4a6 6 0 0 1 6-6h4a6 6 0 0 1 6 6v4a6 6 0 0 1-6 6h-4a6 6 0 0 1-6-6z" style="fill:none;stroke:#193fff;stroke-width:2.5"/><path id="path17998" d="M533 407h4a6 6 0 0 1 6 6v32a38.013 38.013 0 0 1-11.13 26.87A38.013 38.013 0 0 1 505 483h-32a6 6 0 0 1-6-6v-4a6 6 0 0 1 6-6h48a6 6 0 0 0 6-6v-48a6 6 0 0 1 6-6z" style="fill:none;stroke:#193fff;stroke-width:2.5"/><path id="path18000" d="M483 413v4a6 6 0 0 1-6 6h-4a6 6 0 0 1-6-6v-4a6 6 0 0 1 6-6h4a6 6 0 0 1 6 6z" style="fill:none;stroke:#193fff;stroke-width:2.5"/><path id="path18002" d="M593 407h4a6 6 0 0 1 6 6v4a6 6 0 0 1-6 6h-4a6 6 0 0 1-6-6v-4a6 6 0 0 1 6-6z" style="fill:none;stroke:#193fff;stroke-width:2.5"/><path id="path18004" d="M597 363h-4a6 6 0 0 1-6-6v-4a6 6 0 0 1 6-6h4a6 6 0 0 1 6 6v4a6 6 0 0 1-6 6z" style="fill:none;stroke:#193fff;stroke-width:2.5"/><path id="path18006" d="M653 407h4a6 6 0 0 1 6 6v4a6 6 0 0 1-6 6h-4a6 6 0 0 1-6-6v-4a6 6 0 0 1 6-6z" style="fill:none;stroke:#193fff;stroke-width:2.5"/><path id="path18008" d="M657 363h-4a6 6 0 0 1-6-6v-4a6 6 0 0 1 6-6h4a6 6 0 0 1 6 6v4a6 6 0 0 1-6 6z" style="fill:none;stroke:#193fff;stroke-width:2.5"/><path id="path18010" d="M588.549 467h4.408a5.672 5.672 0 0 1 5.575 7.246 98.017 98.017 0 0 1-24.236 40.05 98.017 98.017 0 0 1-40.05 24.236 5.672 5.672 0 0 1-7.246-5.575v-4.408a6.277 6.277 0 0 1 4.332-5.894 82.008 82.008 0 0 0 31.65-19.672 82.008 82.008 0 0 0 19.673-31.651 6.277 6.277 0 0 1 5.894-4.332Z" style="fill:none;stroke:#193fff;stroke-width:2.5"/><path id="path18012" d="M707 417v-64a6 6 0 0 1 6-6h4a6 6 0 0 1 6 6v64a6 6 0 0 1-6 6h-4a6 6 0 0 1-6-6z" style="fill:none;stroke:#193fff;stroke-width:2.5"/><path id="path18014" d="M650.416 467h4.14a5.815 5.815 0 0 1 5.793 6.814 158.064 158.064 0 0 1-43.626 82.909 158.064 158.064 0 0 1-82.909 43.626 5.815 5.815 0 0 1-6.814-5.792v-4.14a6.176 6.176 0 0 1 5.052-6.02 142.057 142.057 0 0 0 73.357-38.988 142.057 142.057 0 0 0 38.989-73.357 6.176 6.176 0 0 1 6.018-5.052Z" style="fill:none;stroke:#193fff;stroke-width:2.5"/><path id="path18016" d="M711.176 467h4.07a5.877 5.877 0 0 1 5.867 6.614 218.094 218.094 0 0 1-61.964 125.535 218.094 218.094 0 0 1-125.535 61.964 5.877 5.877 0 0 1-6.614-5.866v-4.071a6.135 6.135 0 0 1 5.351-6.037 202.087 202.087 0 0 0 115.485-57.303 202.087 202.087 0 0 0 57.303-115.485 6.135 6.135 0 0 1 6.037-5.351Z" style="fill:none;stroke:#193fff;stroke-width:2.5"/><path id="path18018" d="M467 597v-4a6 6 0 0 1 6-6h4a6 6 0 0 1 6 6v4a6 6 0 0 1-6 6h-4a6 6 0 0 1-6-6z" style="fill:none;stroke:#193fff;stroke-width:2.5"/><path id="path18020" d="M423 593v4a6 6 0 0 1-6 6h-4a6 6 0 0 1-6-6v-4a6 6 0 0 1 6-6h4a6 6 0 0 1 6 6z" style="fill:none;stroke:#193fff;stroke-width:2.5"/><path id="path18022" d="M467 657v-4a6 6 0 0 1 6-6h4a6 6 0 0 1 6 6v4a6 6 0 0 1-6 6h-4a6 6 0 0 1-6-6z" style="fill:none;stroke:#193fff;stroke-width:2.5"/><path id="path18024" d="M423 653v4a6 6 0 0 1-6 6h-4a6 6 0 0 1-6-6v-4a6 6 0 0 1 6-6h4a6 6 0 0 1 6 6z" style="fill:none;stroke:#193fff;stroke-width:2.5"/><path id="path18026" d="M445 543h-32a6 6 0 0 1-6-6v-4a6 6 0 0 1 6-6h64a6 6 0 0 1 6 6v4a6 6 0 0 1-6 6z" style="fill:none;stroke:#193fff;stroke-width:2.5"/><circle id="circle18106" cx="305" cy="385" r="3.2" style="fill:#000"/><circle id="circle18108" cx="345" cy="385" r="3.2" style="fill:#000"/><circle id="circle18110" cx="365" cy="385" r="3.2" style="fill:#000"/><circle id="circle18218" cx="405" cy="385" r="3.2" style="fill:#000"/><circle id="circle18220" cx="425" cy="385" r="3.2" style="fill:#000"/><circle id="circle18714" cx="325" cy="385" r="3.2" style="fill:#000"/><circle id="circle18716" cx="385" cy="385" r="3.2" style="fill:#000"/><circle id="circle18752" cx="445" cy="385" r="3.2" style="fill:#000"/><g id="text556-1" aria-label="1up" class="screen_text1" style="font-size:16px;font-family:Emulogic;fill:#fdfdfd" transform="translate(10.25 -7.04)"><path id="path47416" d="M108.75 74.04v-8h-2v-2h2v-2h4v12h4v2h-12v-2z"/><path id="path47418" d="M118.75 74.04v-12h4v12h6v-12h4v12h-2v2h-10v-2z"/><path id="path47420" d="M146.75 62.04v2h2v6h-2v2h-8v4h-4v-14zm-8 8h6v-6h-6z"/></g><g id="text558-9" aria-label="7330" class="screen_text1" style="font-size:16px;font-family:Emulogic;fill:#fdfdfd" transform="translate(12.25 -7.04)"><path id="path47407" d="M108.75 90.04v-2h2v-2h2v-2h-6v2h-4v-4h14v4h-2v2h-2v2h-2v6h-4v-6z"/><path id="path47409" d="M118.75 94.04v-2h4v2h6v-4h-6v-2h2v-2h2v-2h-6v-2h12v2h-2v2h-2v2h2v2h2v4h-2v2h-10v-2z"/><path id="path47411" d="M134.75 94.04v-2h4v2h6v-4h-6v-2h2v-2h2v-2h-6v-2h12v2h-2v2h-2v2h2v2h2v4h-2v2h-10v-2z"/><path id="path47413" d="M156.75 94.04h4v2h-6v-2h-2v-2h-2v-6h2v-2h2v8h2zm4 0v-8h-2v-2h-4v-2h6v2h2v2h2v6h-2v2z"/></g><g id="g48926" transform="translate(106)"><path id="path47423" d="M611 55v6h6v-6h4v14h-4v-6h-6v6h-4V55Z" style="font-size:16px;font-family:Emulogic;fill:#fdfdfd"/><path id="path47425" d="M629 67V57h-4v-2h12v2h-4v10h4v2h-12v-2z" style="font-size:16px;font-family:Emulogic;fill:#fdfdfd"/><path id="path47427" d="M641 67v-2h-2v-6h2v-2h2v-2h10v2h-8v2h-2v6h2v2h4v-4h-2v-2h6v8h-10v-2z" style="font-size:16px;font-family:Emulogic;fill:#fdfdfd"/><path id="path47429" d="M659 55v6h6v-6h4v14h-4v-6h-6v6h-4V55Z" style="font-size:16px;font-family:Emulogic;fill:#fdfdfd"/></g><g id="g48933" transform="translate(10 20)"><path id="path47431" d="M687 67v-2h4v2h6v-4h-8v-2h-2v-4h2v-2h8v2h2v2h-4v-2h-4v4h8v2h2v4h-2v2h-10v-2z" style="font-size:16px;font-family:Emulogic;fill:#fdfdfd"/><path id="path47433" d="M705 67v-2h-2v-6h2v-2h2v-2h8v2h2v2h-4v-2h-4v2h-2v6h2v2h4v-2h4v2h-2v2h-8v-2z" style="font-size:16px;font-family:Emulogic;fill:#fdfdfd"/><path id="path47435" d="M719 67V57h2v-2h10v2h2v10h-2v2h-10v-2zm4 0h6V57h-6z" style="font-size:16px;font-family:Emulogic;fill:#fdfdfd"/><path id="path47437" d="M747 55v2h2v6h-4v2h2v2h2v2h-6v-2h-2v-2h-2v4h-4V55Zm-8 8h4v-2h2v-4h-6z" style="font-size:16px;font-family:Emulogic;fill:#fdfdfd"/><path id="path47439" d="M765 55v2h-10v4h8v2h-8v4h10v2h-14V55Z" style="font-size:16px;font-family:Emulogic;fill:#fdfdfd"/></g><g id="text562" aria-label="7330" class="screen_text1" style="font-size:16px;font-family:Emulogic;fill:#fdfdfd" transform="translate(112.2 28.016)"><path id="path47442" d="M606.8 74.984v-2h2v-2h2v-2h-6v2h-4v-4h14v4h-2v2h-2v2h-2v6h-4v-6z"/><path id="path47444" d="M616.8 78.984v-2h4v2h6v-4h-6v-2h2v-2h2v-2h-6v-2h12v2h-2v2h-2v2h2v2h2v4h-2v2h-10v-2z"/><path id="path47446" d="M632.8 78.984v-2h4v2h6v-4h-6v-2h2v-2h2v-2h-6v-2h12v2h-2v2h-2v2h2v2h2v4h-2v2h-10v-2z"/><path id="path47448" d="M654.8 78.984h4v2h-6v-2h-2v-2h-2v-6h2v-2h2v8h2zm4 0v-8h-2v-2h-4v-2h6v2h2v2h2v6h-2v2z"/></g><path id="path608" d="m122.594 701.5 16.951 7.763a13.5 13.5 0 1 1 0-15.526" class="pacman" style="fill:#fff200;stroke:none"/><path id="path610" d="m159.719 701.5 16.951 7.763a13.5 13.5 0 1 1 0-15.526" class="pacman" style="fill:#fff200;stroke:none"/><g id="g624" transform="translate(750.25 688)"><circle id="circle612" cx="3.375" cy="17.357" r="6.75" class="cherry_very_red" style="fill:red"/><circle id="circle614" cx="18" cy="20.25" r="6.75" class="cherry_very_red" style="fill:red"/><circle id="circle616" cx="3.75" cy="15" r="1.929" class="cherry_lesser_red" style="fill:#670303"/><circle id="circle618" cx="18" cy="18" r="1.929" class="cherry_lesser_red" style="fill:#670303"/><path id="path620" d="M3.375 13.5C4.5 18 3.857 6.75 20.25 3.375M16.2 18c4.57 0-7.2-7.2 4.05-14.625" class="cherry_stem_stroke" style="fill:none;stroke:#959817;stroke-width:2"/><path id="rect622" d="M18 2.25h3v3h-3z" class="cherry_stem_fill" style="fill:#959817;stroke:none"/></g><path id="path58178" d="M119 364v42" style="fill:#000;stroke:#fff;stroke-width:5;stroke-miterlimit:2;stroke-dasharray:none"/><path id="path65736" d="M771 364v42" style="fill:#000;stroke:#fff;stroke-width:5;stroke-miterlimit:2;stroke-dasharray:none"/><path id="path18028" d="M767 364v-39c0-69.46-27.622-136.146-76.738-185.262C641.146 90.622 574.46 63 505 63H385c-69.46 0-136.146 27.622-185.262 76.738C150.622 188.854 123 255.54 123 325v39h-8v-39c0-71.58 28.466-140.304 79.081-190.919C244.696 83.466 313.42 55 385 55h120c71.58 0 140.304 28.466 190.919 79.081C746.534 184.696 775 253.42 775 325v39z" style="fill:none;stroke:#193fff;stroke-width:2.5"/><path id="path62825" d="M775 406v39c0 71.58-28.466 140.304-79.081 190.919C645.304 686.534 576.58 715 505 715H385c-71.58 0-140.304-28.466-190.919-79.081C143.466 585.304 115 516.58 115 445v-39h8v39c0 69.46 27.623 136.146 76.738 185.262C248.854 679.377 315.54 707 385 707h120c69.46 0 136.146-27.623 185.262-76.738C739.377 581.146 767 514.46 767 445v-39z" style="fill:none;stroke:#193fff;stroke-width:2.5"/><g id="g81556" transform="translate(-270.03 210.248)"><path id="path565" d="M370 191v-18c0-8 6-14 14-14s14 6 14 14v18l-4.667-5.333-4.667 5.333-4.666-5.333-4.667 5.333-4.667-5.333" class="clyde" style="fill:#f99c00;stroke:none"/><path id="path567" d="M380 167c-3 0-4 3-4 5s1 5 4 5 4-3 4-5-1-5-4-5" class="eyewhite" style="fill:#fff;stroke:none"/><path id="path569" d="M392 167c-3 0-4 3-4 5s1 5 4 5 4-3 4-5-1-5-4-5" class="eyewhite" style="fill:#fff;stroke:none"/><circle id="circle571" cx="382" cy="173" r="2" class="pupils_blue" style="fill:#0000fa;stroke:none"/><circle id="circle573" cx="394" cy="173" r="2" class="pupils_blue" style="fill:#0000fa;stroke:none"/></g><g id="g81549" transform="translate(-247.886 135.691)"><path id="path575" d="M380 351v-18c0-8 6-14 14-14s14 6 14 14v18l-3.667-5.333-3.667 5.333-3.333-5.333-4.667 5.333-3.666-5.333-3.667 5.333-2.667-5.333" class="pinky" style="fill:#feaec9;stroke:none"/><path id="path577" d="M388 332c-3 0-4 3-4 5s1 5 4 5 4-3 4-5-1-5-4-5" class="eyewhite" style="fill:#fff;stroke:none"/><path id="path579" d="M400 332c-3 0-4 3-4 5s1 5 4 5 4-3 4-5-1-5-4-5" class="eyewhite" style="fill:#fff;stroke:none"/><circle id="circle581" cx="388" cy="341" r="2" class="pupils_blue" style="fill:#0000fa;stroke:none"/><circle id="circle583" cx="400" cy="341" r="2" class="pupils_blue" style="fill:#0000fa;stroke:none"/></g><g id="g81535" transform="matrix(-1 0 0 1 1080.754 90.67)"><path id="path585" d="M268 311v-18c0-8 6-14 14-14s14 6 14 14v18l-3.667-5.333-3.667 5.333-3.333-5.333-4.667 5.333-3.666-5.333-3.667 5.333-2.667-5.333" class="blinky" style="fill:#ed1b24;stroke:none"/><path id="path587" d="M278 287c-3 0-4 3-4 5s1 5 4 5 4-3 4-5-1-5-4-5" class="eyewhite" style="fill:#fff;stroke:none"/><path id="path589" d="M290 287c-3 0-4 3-4 5s1 5 4 5 4-3 4-5-1-5-4-5" class="eyewhite" style="fill:#fff;stroke:none"/><circle id="circle591" cx="280" cy="293" r="2" class="pupils_blue" style="fill:#0000fa;stroke:none"/><circle id="circle593" cx="292" cy="293" r="2" class="pupils_blue" style="fill:#0000fa;stroke:none"/></g><g id="g81542" transform="translate(441 97.2)"><path id="path595" d="M290 271v-18c0-8 6-14 14-14s14 6 14 14v18l-4.667-5.333-4.667 5.333-4.666-5.333-4.667 5.333-4.667-5.333" class="inky" style="fill:#4adecb;stroke:none"/><path id="path597" d="M298 242c-3 0-4 3-4 5s1 5 4 5 4-3 4-5-1-5-4-5" class="eyewhite" style="fill:#fff;stroke:none"/><path id="path599" d="M310 242c-3 0-4 3-4 5s1 5 4 5 4-3 4-5-1-5-4-5" class="eyewhite" style="fill:#fff;stroke:none"/><circle id="circle601" cx="298" cy="244" r="2" class="pupils_blue" style="fill:#0000fa;stroke:none"/><circle id="circle603" cx="310" cy="244" r="2" class="pupils_blue" style="fill:#0000fa;stroke:none"/></g><path id="path83875" d="m296.797 385-16.951-7.763a13.5 13.5 0 1 1 0 15.526" class="pacman" style="fill:#fff200;stroke:none"/></g><g id="layer9" style="display:inline"><circle id="circle18032" cx="445" cy="125" r="3.2" style="fill:#dca5be"/><circle id="circle18034" cx="445" cy="105" r="3.2" style="fill:#dca5be"/><circle id="circle18036" cx="445" cy="185" r="3.2" style="fill:#dca5be"/><circle id="circle18038" cx="445" cy="165" r="3.2" style="fill:#dca5be"/><circle id="circle18040" cx="445" cy="305" r="3.2" style="fill:#dca5be"/><circle id="circle18042" cx="445" cy="285" r="3.2" style="fill:#dca5be"/><circle id="circle18044" cx="405" cy="85" r="3.2" style="fill:#dca5be"/><circle id="circle18046" cx="425" cy="85" r="3.2" style="fill:#dca5be"/><circle id="circle18048" cx="465" cy="85" r="3.2" style="fill:#dca5be"/><circle id="circle18050" cx="485" cy="85" r="3.2" style="fill:#dca5be"/><circle id="circle18052" cx="385" cy="125" r="3.2" style="fill:#dca5be"/><circle id="circle18054" cx="385" cy="105" r="3.2" style="fill:#dca5be"/><circle id="circle18056" cx="505" cy="125" r="3.2" style="fill:#dca5be"/><circle id="circle18058" cx="505" cy="105" r="3.2" style="fill:#dca5be"/><circle id="circle18060" cx="405" cy="145" r="3.2" style="fill:#dca5be"/><circle id="circle18062" cx="425" cy="145" r="3.2" style="fill:#dca5be"/><circle id="circle18064" cx="465" cy="145" r="3.2" style="fill:#dca5be"/><circle id="circle18066" cx="485" cy="145" r="3.2" style="fill:#dca5be"/><circle id="circle18068" cx="405" cy="205" r="3.2" style="fill:#dca5be"/><circle id="circle18070" cx="425" cy="205" r="3.2" style="fill:#dca5be"/><circle id="circle18072" cx="385" cy="245" r="3.2" style="fill:#dca5be"/><circle id="circle18074" cx="385" cy="225" r="3.2" style="fill:#dca5be"/><circle id="circle18076" cx="385" cy="185" r="3.2" style="fill:#dca5be"/><circle id="circle18078" cx="385" cy="165" r="3.2" style="fill:#dca5be"/><circle id="circle18080" cx="465" cy="205" r="3.2" style="fill:#dca5be"/><circle id="circle18082" cx="485" cy="205" r="3.2" style="fill:#dca5be"/><circle id="circle18084" cx="505" cy="245" r="3.2" style="fill:#dca5be"/><circle id="circle18086" cx="505" cy="225" r="3.2" style="fill:#dca5be"/><circle id="circle18088" cx="505" cy="185" r="3.2" style="fill:#dca5be"/><circle id="circle18090" cx="505" cy="165" r="3.2" style="fill:#dca5be"/><circle id="circle18092" cx="405" cy="265" r="3.2" style="fill:#dca5be"/><circle id="circle18094" cx="425" cy="265" r="3.2" style="fill:#dca5be"/><circle id="circle18096" cx="465" cy="265" r="3.2" style="fill:#dca5be"/><circle id="circle18098" cx="485" cy="265" r="3.2" style="fill:#dca5be"/><circle id="circle18100" cx="225" cy="385" r="3.2" style="fill:#dca5be"/><circle id="circle18102" cx="245" cy="385" r="3.2" style="fill:#dca5be"/><circle id="circle18104" cx="285" cy="385" r="3.2" style="fill:#dca5be"/><circle id="circle18112" cx="145" cy="425" r="3.2" style="fill:#dca5be"/><circle id="circle18114" cx="145" cy="405" r="3.2" style="fill:#dca5be"/><circle id="circle18116" cx="145" cy="385" r="3.2" style="fill:#dca5be"/><circle id="circle18118" cx="145" cy="365" r="3.2" style="fill:#dca5be"/><circle id="circle18120" cx="145" cy="345" r="3.2" style="fill:#dca5be"/><circle id="circle18122" cx="165" cy="325" r="3.2" style="fill:#dca5be"/><circle id="circle18124" cx="185" cy="325" r="3.2" style="fill:#dca5be"/><circle id="circle18126" cx="165" cy="445" r="3.2" style="fill:#dca5be"/><circle id="circle18128" cx="185" cy="445" r="3.2" style="fill:#dca5be"/><circle id="circle18130" cx="205" cy="425" r="3.2" style="fill:#dca5be"/><circle id="circle18132" cx="205" cy="405" r="3.2" style="fill:#dca5be"/><circle id="circle18134" cx="205" cy="365" r="3.2" style="fill:#dca5be"/><circle id="circle18136" cx="205" cy="345" r="3.2" style="fill:#dca5be"/><circle id="circle18138" cx="265" cy="425" r="3.2" style="fill:#dca5be"/><circle id="circle18140" cx="265" cy="405" r="3.2" style="fill:#dca5be"/><circle id="circle18142" cx="225" cy="445" r="3.2" style="fill:#dca5be"/><circle id="circle18144" cx="245" cy="445" r="3.2" style="fill:#dca5be"/><circle id="circle18146" cx="285" cy="445" r="3.2" style="fill:#dca5be"/><circle id="circle18148" cx="305" cy="445" r="3.2" style="fill:#dca5be"/><circle id="circle18150" cx="265" cy="365" r="3.2" style="fill:#dca5be"/><circle id="circle18152" cx="265" cy="345" r="3.2" style="fill:#dca5be"/><circle id="circle18154" cx="225" cy="325" r="3.2" style="fill:#dca5be"/><circle id="circle18156" cx="245" cy="325" r="3.2" style="fill:#dca5be"/><circle id="circle18158" cx="285" cy="325" r="3.2" style="fill:#dca5be"/><circle id="circle18160" cx="305" cy="325" r="3.2" style="fill:#dca5be"/><circle id="circle18162" cx="325" cy="425" r="3.2" style="fill:#dca5be"/><circle id="circle18164" cx="325" cy="405" r="3.2" style="fill:#dca5be"/><circle id="circle18166" cx="325" cy="365" r="3.2" style="fill:#dca5be"/><circle id="circle18168" cx="325" cy="345" r="3.2" style="fill:#dca5be"/><circle id="circle18170" cx="405" cy="325" r="3.2" style="fill:#dca5be"/><circle id="circle18172" cx="425" cy="325" r="3.2" style="fill:#dca5be"/><circle id="circle18174" cx="465" cy="325" r="3.2" style="fill:#dca5be"/><circle id="circle18176" cx="485" cy="325" r="3.2" style="fill:#dca5be"/><circle id="circle18178" cx="385" cy="425" r="3.2" style="fill:#dca5be"/><circle id="circle18180" cx="385" cy="405" r="3.2" style="fill:#dca5be"/><circle id="circle18182" cx="385" cy="365" r="3.2" style="fill:#dca5be"/><circle id="circle18184" cx="385" cy="345" r="3.2" style="fill:#dca5be"/><circle id="circle18186" cx="525" cy="385" r="3.2" style="fill:#dca5be"/><circle id="circle18188" cx="545" cy="385" r="3.2" style="fill:#dca5be"/><circle id="circle18190" cx="505" cy="425" r="3.2" style="fill:#dca5be"/><circle id="circle18192" cx="505" cy="405" r="3.2" style="fill:#dca5be"/><circle id="circle18194" cx="505" cy="365" r="3.2" style="fill:#dca5be"/><circle id="circle18196" cx="505" cy="345" r="3.2" style="fill:#dca5be"/><circle id="circle18198" cx="585" cy="385" r="3.2" style="fill:#dca5be"/><circle id="circle18200" cx="605" cy="385" r="3.2" style="fill:#dca5be"/><circle id="circle18202" cx="645" cy="385" r="3.2" style="fill:#dca5be"/><circle id="circle18204" cx="665" cy="385" r="3.2" style="fill:#dca5be"/><circle id="circle18206" cx="405" cy="445" r="3.2" style="fill:#dca5be;fill-opacity:1"/><circle id="circle18208" cx="425" cy="445" r="3.2" style="fill:#dca5be;fill-opacity:1"/><circle id="circle18210" cx="465" cy="445" r="3.2" style="fill:#dca5be"/><circle id="circle18212" cx="485" cy="445" r="3.2" style="fill:#dca5be"/><circle id="circle18214" cx="445" cy="425" r="3.2" style="fill:#dca5be;fill-opacity:1"/><circle id="circle18216" cx="445" cy="405" r="3.2" style="fill:#dca5be;fill-opacity:1"/><circle id="circle18222" cx="465" cy="385" r="3.2" style="fill:#dca5be"/><circle id="circle18224" cx="485" cy="385" r="3.2" style="fill:#dca5be"/><circle id="circle18226" cx="445" cy="365" r="3.2" style="fill:#dca5be"/><circle id="circle18228" cx="445" cy="345" r="3.2" style="fill:#dca5be"/><circle id="circle18230" cx="565" cy="425" r="3.2" style="fill:#dca5be"/><circle id="circle18232" cx="565" cy="405" r="3.2" style="fill:#dca5be"/><circle id="circle18234" cx="565" cy="365" r="3.2" style="fill:#dca5be"/><circle id="circle18236" cx="565" cy="345" r="3.2" style="fill:#dca5be"/><circle id="circle18238" cx="585" cy="325" r="3.2" style="fill:#dca5be"/><circle id="circle18240" cx="605" cy="325" r="3.2" style="fill:#dca5be"/><circle id="circle18242" cx="585" cy="445" r="3.2" style="fill:#dca5be"/><circle id="circle18244" cx="605" cy="445" r="3.2" style="fill:#dca5be"/><circle id="circle18246" cx="625" cy="425" r="3.2" style="fill:#dca5be"/><circle id="circle18248" cx="625" cy="405" r="3.2" style="fill:#dca5be"/><circle id="circle18250" cx="625" cy="365" r="3.2" style="fill:#dca5be"/><circle id="circle18252" cx="625" cy="345" r="3.2" style="fill:#dca5be"/><circle id="circle18254" cx="685" cy="425" r="3.2" style="fill:#dca5be"/><circle id="circle18256" cx="685" cy="405" r="3.2" style="fill:#dca5be"/><circle id="circle18258" cx="645" cy="445" r="3.2" style="fill:#dca5be"/><circle id="circle18260" cx="665" cy="445" r="3.2" style="fill:#dca5be"/><circle id="circle18262" cx="705" cy="445" r="3.2" style="fill:#dca5be"/><circle id="circle18264" cx="725" cy="445" r="3.2" style="fill:#dca5be"/><circle id="circle18266" cx="685" cy="365" r="3.2" style="fill:#dca5be"/><circle id="circle18268" cx="685" cy="345" r="3.2" style="fill:#dca5be"/><circle id="circle18270" cx="645" cy="325" r="3.2" style="fill:#dca5be"/><circle id="circle18272" cx="665" cy="325" r="3.2" style="fill:#dca5be"/><circle id="circle18274" cx="705" cy="325" r="3.2" style="fill:#dca5be"/><circle id="circle18276" cx="725" cy="325" r="3.2" style="fill:#dca5be"/><circle id="circle18278" cx="745" cy="425" r="3.2" style="fill:#dca5be"/><circle id="circle18280" cx="745" cy="405" r="3.2" style="fill:#dca5be"/><circle id="circle18282" cx="745" cy="385" r="3.2" style="fill:#dca5be"/><circle id="circle18284" cx="745" cy="365" r="3.2" style="fill:#dca5be"/><circle id="circle18286" cx="745" cy="345" r="3.2" style="fill:#dca5be"/><circle id="circle18288" cx="445" cy="485" r="3.2" style="fill:#dca5be;fill-opacity:1"/><circle id="circle18290" cx="445" cy="465" r="3.2" style="fill:#dca5be;fill-opacity:1"/><circle id="circle18292" cx="445" cy="605" r="3.2" style="fill:#dca5be"/><circle id="circle18294" cx="445" cy="585" r="3.2" style="fill:#dca5be"/><circle id="circle18296" cx="445" cy="665" r="3.2" style="fill:#dca5be"/><circle id="circle18298" cx="445" cy="645" r="3.2" style="fill:#dca5be"/><circle id="circle18300" cx="405" cy="685" r="3.2" style="fill:#dca5be"/><circle id="circle18302" cx="425" cy="685" r="3.2" style="fill:#dca5be"/><circle id="circle18304" cx="465" cy="685" r="3.2" style="fill:#dca5be"/><circle id="circle18306" cx="485" cy="685" r="3.2" style="fill:#dca5be"/><circle id="circle18308" cx="385" cy="665" r="3.2" style="fill:#dca5be"/><circle id="circle18310" cx="385" cy="645" r="3.2" style="fill:#dca5be"/><circle id="circle18312" cx="505" cy="665" r="3.2" style="fill:#dca5be"/><circle id="circle18314" cx="505" cy="645" r="3.2" style="fill:#dca5be"/><circle id="circle18316" cx="405" cy="625" r="3.2" style="fill:#dca5be"/><circle id="circle18318" cx="425" cy="625" r="3.2" style="fill:#dca5be"/><circle id="circle18320" cx="465" cy="625" r="3.2" style="fill:#dca5be"/><circle id="circle18322" cx="485" cy="625" r="3.2" style="fill:#dca5be"/><circle id="circle18324" cx="405" cy="565" r="3.2" style="fill:#dca5be"/><circle id="circle18326" cx="425" cy="565" r="3.2" style="fill:#dca5be"/><circle id="circle18328" cx="385" cy="605" r="3.2" style="fill:#dca5be"/><circle id="circle18330" cx="385" cy="585" r="3.2" style="fill:#dca5be"/><circle id="circle18332" cx="385" cy="545" r="3.2" style="fill:#dca5be"/><circle id="circle18334" cx="385" cy="525" r="3.2" style="fill:#dca5be"/><circle id="circle18336" cx="465" cy="565" r="3.2" style="fill:#dca5be"/><circle id="circle18338" cx="485" cy="565" r="3.2" style="fill:#dca5be"/><circle id="circle18340" cx="505" cy="605" r="3.2" style="fill:#dca5be"/><circle id="circle18342" cx="505" cy="585" r="3.2" style="fill:#dca5be"/><circle id="circle18344" cx="505" cy="545" r="3.2" style="fill:#dca5be"/><circle id="circle18346" cx="505" cy="525" r="3.2" style="fill:#dca5be"/><circle id="circle18348" cx="405" cy="505" r="3.2" style="fill:#dca5be"/><circle id="circle18350" cx="425" cy="505" r="3.2" style="fill:#dca5be"/><circle id="circle18352" cx="465" cy="505" r="3.2" style="fill:#dca5be"/><circle id="circle18354" cx="485" cy="505" r="3.2" style="fill:#dca5be"/><circle id="circle18356" cx="328.303" cy="305.368" r="3.2" style="fill:#dca5be"/><circle id="circle18358" cx="365.368" cy="268.303" r="3.2" style="fill:#dca5be"/><circle id="circle18360" cx="337.847" cy="287.898" r="3.2" style="fill:#dca5be"/><circle id="circle18362" cx="347.898" cy="277.847" r="3.2" style="fill:#dca5be"/><circle id="circle18364" cx="266.663" cy="305.092" r="3.2" style="fill:#dca5be"/><circle id="circle18366" cx="365.092" cy="206.663" r="3.2" style="fill:#dca5be"/><circle id="circle18368" cx="271.605" cy="285.737" r="3.2" style="fill:#dca5be"/><circle id="circle18370" cx="345.737" cy="211.605" r="3.2" style="fill:#dca5be"/><circle id="circle18372" cx="279.69" cy="267.469" r="3.2" style="fill:#dca5be"/><circle id="circle18374" cx="327.469" cy="219.69" r="3.2" style="fill:#dca5be"/><circle id="circle18376" cx="290.694" cy="250.796" r="3.2" style="fill:#dca5be"/><circle id="circle18378" cx="310.796" cy="230.694" r="3.2" style="fill:#dca5be"/><circle id="circle18380" cx="206.11" cy="305.041" r="3.2" style="fill:#dca5be"/><circle id="circle18382" cx="365.041" cy="146.11" r="3.2" style="fill:#dca5be"/><circle id="circle18384" cx="209.426" cy="285.328" r="3.2" style="fill:#dca5be"/><circle id="circle18386" cx="345.328" cy="149.426" r="3.2" style="fill:#dca5be"/><circle id="circle18388" cx="214.908" cy="266.105" r="3.2" style="fill:#dca5be"/><circle id="circle18390" cx="326.105" cy="154.908" r="3.2" style="fill:#dca5be"/><circle id="circle18392" cx="222.487" cy="247.608" r="3.2" style="fill:#dca5be"/><circle id="circle18394" cx="307.608" cy="162.487" r="3.2" style="fill:#dca5be"/><circle id="circle18396" cx="232.071" cy="230.065" r="3.2" style="fill:#dca5be"/><circle id="circle18398" cx="290.065" cy="172.071" r="3.2" style="fill:#dca5be"/><circle id="circle18400" cx="243.54" cy="213.693" r="3.2" style="fill:#dca5be"/><circle id="circle18402" cx="273.693" cy="183.54" r="3.2" style="fill:#dca5be"/><circle id="circle18404" cx="145.833" cy="305.023" r="3.2" style="fill:#dca5be"/><circle id="circle18406" cx="365.023" cy="85.833" r="3.2" style="fill:#dca5be"/><circle id="circle18408" cx="148.326" cy="285.185" r="3.2" style="fill:#dca5be"/><circle id="circle18410" cx="345.185" cy="88.326" r="3.2" style="fill:#dca5be"/><circle id="circle18412" cx="152.461" cy="265.623" r="3.2" style="fill:#dca5be"/><circle id="circle18414" cx="325.623" cy="92.461" r="3.2" style="fill:#dca5be"/><circle id="circle18416" cx="158.21" cy="246.473" r="3.2" style="fill:#dca5be"/><circle id="circle18418" cx="306.473" cy="98.21" r="3.2" style="fill:#dca5be"/><circle id="circle18420" cx="165.534" cy="227.869" r="3.2" style="fill:#dca5be"/><circle id="circle18422" cx="287.868" cy="105.534" r="3.2" style="fill:#dca5be"/><circle id="circle18424" cx="174.38" cy="209.938" r="3.2" style="fill:#dca5be"/><circle id="circle18426" cx="269.938" cy="114.38" r="3.2" style="fill:#dca5be"/><circle id="circle18428" cx="184.689" cy="192.806" r="3.2" style="fill:#dca5be"/><circle id="circle18430" cx="252.806" cy="124.689" r="3.2" style="fill:#dca5be"/><circle id="circle18432" cx="196.387" cy="176.591" r="3.2" style="fill:#dca5be"/><circle id="circle18434" cx="236.591" cy="136.387" r="3.2" style="fill:#dca5be"/><circle id="circle18436" cx="365.368" cy="501.697" r="3.2" style="fill:#dca5be"/><circle id="circle18438" cx="328.303" cy="464.632" r="3.2" style="fill:#dca5be"/><circle id="circle18440" cx="347.898" cy="492.153" r="3.2" style="fill:#dca5be"/><circle id="circle18442" cx="337.847" cy="482.102" r="3.2" style="fill:#dca5be"/><circle id="circle18444" cx="365.092" cy="563.337" r="3.2" style="fill:#dca5be"/><circle id="circle18446" cx="266.663" cy="464.908" r="3.2" style="fill:#dca5be"/><circle id="circle18448" cx="345.737" cy="558.395" r="3.2" style="fill:#dca5be"/><circle id="circle18450" cx="271.605" cy="484.263" r="3.2" style="fill:#dca5be"/><circle id="circle18452" cx="327.469" cy="550.31" r="3.2" style="fill:#dca5be"/><circle id="circle18454" cx="279.69" cy="502.531" r="3.2" style="fill:#dca5be"/><circle id="circle18456" cx="310.796" cy="539.306" r="3.2" style="fill:#dca5be"/><circle id="circle18458" cx="290.694" cy="519.204" r="3.2" style="fill:#dca5be"/><circle id="circle18460" cx="365.041" cy="623.89" r="3.2" style="fill:#dca5be"/><circle id="circle18462" cx="206.11" cy="464.959" r="3.2" style="fill:#dca5be"/><circle id="circle18464" cx="345.328" cy="620.574" r="3.2" style="fill:#dca5be"/><circle id="circle18466" cx="209.426" cy="484.672" r="3.2" style="fill:#dca5be"/><circle id="circle18468" cx="326.105" cy="615.092" r="3.2" style="fill:#dca5be"/><circle id="circle18470" cx="214.908" cy="503.895" r="3.2" style="fill:#dca5be"/><circle id="circle18472" cx="307.608" cy="607.513" r="3.2" style="fill:#dca5be"/><circle id="circle18474" cx="222.487" cy="522.392" r="3.2" style="fill:#dca5be"/><circle id="circle18476" cx="290.065" cy="597.929" r="3.2" style="fill:#dca5be"/><circle id="circle18478" cx="232.071" cy="539.935" r="3.2" style="fill:#dca5be"/><circle id="circle18480" cx="273.693" cy="586.46" r="3.2" style="fill:#dca5be"/><circle id="circle18482" cx="243.54" cy="556.307" r="3.2" style="fill:#dca5be"/><circle id="circle18484" cx="365.023" cy="684.167" r="3.2" style="fill:#dca5be"/><circle id="circle18486" cx="145.833" cy="464.977" r="3.2" style="fill:#dca5be"/><circle id="circle18488" cx="345.185" cy="681.674" r="3.2" style="fill:#dca5be"/><circle id="circle18490" cx="148.326" cy="484.815" r="3.2" style="fill:#dca5be"/><circle id="circle18492" cx="325.623" cy="677.539" r="3.2" style="fill:#dca5be"/><circle id="circle18494" cx="152.461" cy="504.377" r="3.2" style="fill:#dca5be"/><circle id="circle18496" cx="306.473" cy="671.79" r="3.2" style="fill:#dca5be"/><circle id="circle18498" cx="158.21" cy="523.527" r="3.2" style="fill:#dca5be"/><circle id="circle18500" cx="287.868" cy="664.466" r="3.2" style="fill:#dca5be"/><circle id="circle18502" cx="165.534" cy="542.131" r="3.2" style="fill:#dca5be"/><circle id="circle18504" cx="269.938" cy="655.62" r="3.2" style="fill:#dca5be"/><circle id="circle18506" cx="174.38" cy="560.062" r="3.2" style="fill:#dca5be"/><circle id="circle18508" cx="252.806" cy="645.312" r="3.2" style="fill:#dca5be"/><circle id="circle18510" cx="184.689" cy="577.194" r="3.2" style="fill:#dca5be"/><circle id="circle18512" cx="236.591" cy="633.613" r="3.2" style="fill:#dca5be"/><circle id="circle18514" cx="196.387" cy="593.409" r="3.2" style="fill:#dca5be"/><circle id="circle18516" cx="561.697" cy="464.632" r="3.2" style="fill:#dca5be"/><circle id="circle18518" cx="524.632" cy="501.697" r="3.2" style="fill:#dca5be"/><circle id="circle18520" cx="552.153" cy="482.102" r="3.2" style="fill:#dca5be"/><circle id="circle18522" cx="542.102" cy="492.153" r="3.2" style="fill:#dca5be"/><circle id="circle18524" cx="623.337" cy="464.908" r="3.2" style="fill:#dca5be"/><circle id="circle18526" cx="524.908" cy="563.337" r="3.2" style="fill:#dca5be"/><circle id="circle18528" cx="618.395" cy="484.263" r="3.2" style="fill:#dca5be"/><circle id="circle18530" cx="544.263" cy="558.395" r="3.2" style="fill:#dca5be"/><circle id="circle18532" cx="610.31" cy="502.531" r="3.2" style="fill:#dca5be"/><circle id="circle18534" cx="562.531" cy="550.31" r="3.2" style="fill:#dca5be"/><circle id="circle18536" cx="599.306" cy="519.204" r="3.2" style="fill:#dca5be"/><circle id="circle18538" cx="579.204" cy="539.306" r="3.2" style="fill:#dca5be"/><circle id="circle18540" cx="683.89" cy="464.959" r="3.2" style="fill:#dca5be"/><circle id="circle18542" cx="524.959" cy="623.89" r="3.2" style="fill:#dca5be"/><circle id="circle18544" cx="680.574" cy="484.672" r="3.2" style="fill:#dca5be"/><circle id="circle18546" cx="544.672" cy="620.574" r="3.2" style="fill:#dca5be"/><circle id="circle18548" cx="675.092" cy="503.895" r="3.2" style="fill:#dca5be"/><circle id="circle18550" cx="563.895" cy="615.092" r="3.2" style="fill:#dca5be"/><circle id="circle18552" cx="667.513" cy="522.392" r="3.2" style="fill:#dca5be"/><circle id="circle18554" cx="582.392" cy="607.513" r="3.2" style="fill:#dca5be"/><circle id="circle18556" cx="657.929" cy="539.935" r="3.2" style="fill:#dca5be"/><circle id="circle18558" cx="599.935" cy="597.929" r="3.2" style="fill:#dca5be"/><circle id="circle18560" cx="646.46" cy="556.307" r="3.2" style="fill:#dca5be"/><circle id="circle18562" cx="616.307" cy="586.46" r="3.2" style="fill:#dca5be"/><circle id="circle18564" cx="744.167" cy="464.977" r="3.2" style="fill:#dca5be"/><circle id="circle18566" cx="524.977" cy="684.167" r="3.2" style="fill:#dca5be"/><circle id="circle18568" cx="741.674" cy="484.815" r="3.2" style="fill:#dca5be"/><circle id="circle18570" cx="544.815" cy="681.674" r="3.2" style="fill:#dca5be"/><circle id="circle18572" cx="737.539" cy="504.377" r="3.2" style="fill:#dca5be"/><circle id="circle18574" cx="564.377" cy="677.539" r="3.2" style="fill:#dca5be"/><circle id="circle18576" cx="731.79" cy="523.527" r="3.2" style="fill:#dca5be"/><circle id="circle18578" cx="583.527" cy="671.79" r="3.2" style="fill:#dca5be"/><circle id="circle18580" cx="724.466" cy="542.131" r="3.2" style="fill:#dca5be"/><circle id="circle18582" cx="602.131" cy="664.466" r="3.2" style="fill:#dca5be"/><circle id="circle18584" cx="715.62" cy="560.062" r="3.2" style="fill:#dca5be"/><circle id="circle18586" cx="620.062" cy="655.62" r="3.2" style="fill:#dca5be"/><circle id="circle18588" cx="705.312" cy="577.194" r="3.2" style="fill:#dca5be"/><circle id="circle18590" cx="637.194" cy="645.312" r="3.2" style="fill:#dca5be"/><circle id="circle18592" cx="693.613" cy="593.409" r="3.2" style="fill:#dca5be"/><circle id="circle18594" cx="653.409" cy="633.613" r="3.2" style="fill:#dca5be"/><circle id="circle18596" cx="524.632" cy="268.303" r="3.2" style="fill:#dca5be"/><circle id="circle18598" cx="561.697" cy="305.368" r="3.2" style="fill:#dca5be"/><circle id="circle18600" cx="542.102" cy="277.847" r="3.2" style="fill:#dca5be"/><circle id="circle18602" cx="552.153" cy="287.898" r="3.2" style="fill:#dca5be"/><circle id="circle18604" cx="524.908" cy="206.663" r="3.2" style="fill:#dca5be"/><circle id="circle18606" cx="623.337" cy="305.092" r="3.2" style="fill:#dca5be"/><circle id="circle18608" cx="544.263" cy="211.605" r="3.2" style="fill:#dca5be"/><circle id="circle18610" cx="618.395" cy="285.737" r="3.2" style="fill:#dca5be"/><circle id="circle18612" cx="562.531" cy="219.69" r="3.2" style="fill:#dca5be"/><circle id="circle18614" cx="610.31" cy="267.469" r="3.2" style="fill:#dca5be"/><circle id="circle18616" cx="579.204" cy="230.694" r="3.2" style="fill:#dca5be"/><circle id="circle18618" cx="599.306" cy="250.796" r="3.2" style="fill:#dca5be"/><circle id="circle18620" cx="524.959" cy="146.11" r="3.2" style="fill:#dca5be"/><circle id="circle18622" cx="683.89" cy="305.041" r="3.2" style="fill:#dca5be"/><circle id="circle18624" cx="544.672" cy="149.426" r="3.2" style="fill:#dca5be"/><circle id="circle18626" cx="680.574" cy="285.328" r="3.2" style="fill:#dca5be"/><circle id="circle18628" cx="563.895" cy="154.908" r="3.2" style="fill:#dca5be"/><circle id="circle18630" cx="675.092" cy="266.105" r="3.2" style="fill:#dca5be"/><circle id="circle18632" cx="582.392" cy="162.487" r="3.2" style="fill:#dca5be"/><circle id="circle18634" cx="667.513" cy="247.608" r="3.2" style="fill:#dca5be"/><circle id="circle18636" cx="599.935" cy="172.071" r="3.2" style="fill:#dca5be"/><circle id="circle18638" cx="657.929" cy="230.065" r="3.2" style="fill:#dca5be"/><circle id="circle18640" cx="616.307" cy="183.54" r="3.2" style="fill:#dca5be"/><circle id="circle18642" cx="646.46" cy="213.693" r="3.2" style="fill:#dca5be"/><circle id="circle18644" cx="524.977" cy="85.833" r="3.2" style="fill:#dca5be"/><circle id="circle18646" cx="744.167" cy="305.023" r="3.2" style="fill:#dca5be"/><circle id="circle18648" cx="544.815" cy="88.326" r="3.2" style="fill:#dca5be"/><circle id="circle18650" cx="741.674" cy="285.185" r="3.2" style="fill:#dca5be"/><circle id="circle18652" cx="564.377" cy="92.461" r="3.2" style="fill:#dca5be"/><circle id="circle18654" cx="737.539" cy="265.623" r="3.2" style="fill:#dca5be"/><circle id="circle18656" cx="583.527" cy="98.21" r="3.2" style="fill:#dca5be"/><circle id="circle18658" cx="731.79" cy="246.473" r="3.2" style="fill:#dca5be"/><circle id="circle18660" cx="602.131" cy="105.534" r="3.2" style="fill:#dca5be"/><circle id="circle18662" cx="724.466" cy="227.869" r="3.2" style="fill:#dca5be"/><circle id="circle18664" cx="620.062" cy="114.38" r="3.2" style="fill:#dca5be"/><circle id="circle18666" cx="715.62" cy="209.938" r="3.2" style="fill:#dca5be"/><circle id="circle18668" cx="637.194" cy="124.689" r="3.2" style="fill:#dca5be"/><circle id="circle18670" cx="705.312" cy="192.806" r="3.2" style="fill:#dca5be"/><circle id="circle18672" cx="653.409" cy="136.387" r="3.2" style="fill:#dca5be"/><circle id="circle18674" cx="693.613" cy="176.591" r="3.2" style="fill:#dca5be"/><circle id="circle18676" cx="385" cy="265" r="3.2" style="fill:#dca5be"/><circle id="circle18678" cx="385" cy="85" r="3.2" style="fill:#dca5be"/><circle id="circle18680" cx="505" cy="265" r="3.2" style="fill:#dca5be"/><circle id="circle18682" cx="505" cy="85" r="3.2" style="fill:#dca5be"/><circle id="circle18684" cx="445" cy="145" r="3.2" style="fill:#dca5be"/><circle id="circle18686" cx="445" cy="85" r="7" style="fill:#dca5be"/><circle id="circle18688" cx="445" cy="205" r="3.2" style="fill:#dca5be"/><circle id="circle18690" cx="445" cy="325" r="3.2" style="fill:#dca5be"/><circle id="circle18692" cx="445" cy="265" r="3.2" style="fill:#dca5be"/><circle id="circle18694" cx="385" cy="145" r="3.2" style="fill:#dca5be"/><circle id="circle18696" cx="505" cy="145" r="3.2" style="fill:#dca5be"/><circle id="circle18698" cx="385" cy="205" r="3.2" style="fill:#dca5be"/><circle id="circle18700" cx="505" cy="205" r="3.2" style="fill:#dca5be"/><circle id="circle18702" cx="145" cy="325" r="3.2" style="fill:#dca5be"/><circle id="circle18704" cx="325" cy="325" r="3.2" style="fill:#dca5be"/><circle id="circle18706" cx="145" cy="445" r="3.2" style="fill:#dca5be"/><circle id="circle18708" cx="325" cy="445" r="3.2" style="fill:#dca5be"/><circle id="circle18710" cx="205" cy="385" r="7" style="fill:#dca5be"/><circle id="circle18712" cx="265" cy="385" r="3.2" style="fill:#dca5be"/><circle id="circle18718" cx="205" cy="445" r="3.2" style="fill:#dca5be"/><circle id="circle18720" cx="205" cy="325" r="3.2" style="fill:#dca5be"/><circle id="circle18722" cx="265" cy="445" r="3.2" style="fill:#dca5be"/><circle id="circle18724" cx="265" cy="325" r="3.2" style="fill:#dca5be"/><circle id="circle18726" cx="385" cy="325" r="3.2" style="fill:#dca5be"/><circle id="circle18728" cx="505" cy="325" r="3.2" style="fill:#dca5be"/><circle id="circle18730" cx="505" cy="445" r="3.2" style="fill:#dca5be"/><circle id="circle18732" cx="385" cy="445" r="3.2" style="fill:#dca5be;fill-opacity:1"/><circle id="circle18734" cx="565" cy="325" r="3.2" style="fill:#dca5be"/><circle id="circle18736" cx="745" cy="325" r="3.2" style="fill:#dca5be"/><circle id="circle18738" cx="565" cy="445" r="3.2" style="fill:#dca5be"/><circle id="circle18740" cx="745" cy="445" r="3.2" style="fill:#dca5be"/><circle id="circle18742" cx="505" cy="385" r="3.2" style="fill:#dca5be"/><circle id="circle18744" cx="565" cy="385" r="3.2" style="fill:#dca5be"/><circle id="circle18746" cx="625" cy="385" r="3.2" style="fill:#dca5be"/><circle id="circle18748" cx="685" cy="385" r="7" style="fill:#dca5be"/><circle id="circle18750" cx="445" cy="445" r="3.2" style="fill:#dca5be;fill-opacity:1"/><circle id="circle18754" cx="625" cy="445" r="3.2" style="fill:#dca5be"/><circle id="circle18756" cx="625" cy="325" r="3.2" style="fill:#dca5be"/><circle id="circle18758" cx="685" cy="445" r="3.2" style="fill:#dca5be"/><circle id="circle18760" cx="685" cy="325" r="3.2" style="fill:#dca5be"/><circle id="circle18762" cx="385" cy="685" r="3.2" style="fill:#dca5be"/><circle id="circle18764" cx="385" cy="505" r="3.2" style="fill:#dca5be"/><circle id="circle18766" cx="505" cy="685" r="3.2" style="fill:#dca5be"/><circle id="circle18768" cx="505" cy="505" r="3.2" style="fill:#dca5be"/><circle id="circle18770" cx="445" cy="505" r="3.2" style="fill:#dca5be"/><circle id="circle18772" cx="445" cy="625" r="3.2" style="fill:#dca5be"/><circle id="circle18774" cx="445" cy="565" r="3.2" style="fill:#dca5be"/><circle id="circle18776" cx="445" cy="685" r="7" style="fill:#dca5be"/><circle id="circle18778" cx="385" cy="625" r="3.2" style="fill:#dca5be"/><circle id="circle18780" cx="505" cy="625" r="3.2" style="fill:#dca5be"/><circle id="circle18782" cx="385" cy="565" r="3.2" style="fill:#dca5be"/><circle id="circle18784" cx="505" cy="565" r="3.2" style="fill:#dca5be"/><circle id="circle292704" cx="185" cy="325" r="3.2" style="fill:#dca5be"/><circle id="circle292706" cx="225" cy="325" r="3.2" style="fill:#dca5be"/><circle id="circle292708" cx="245" cy="325" r="3.2" style="fill:#dca5be"/><circle id="circle292710" cx="285" cy="325" r="3.2" style="fill:#dca5be"/><circle id="circle292712" cx="305" cy="325" r="3.2" style="fill:#dca5be"/><circle id="circle292714" cx="325" cy="325" r="3.2" style="fill:#dca5be"/><circle id="circle292716" cx="205" cy="325" r="3.2" style="fill:#dca5be"/><circle id="circle292718" cx="265" cy="325" r="3.2" style="fill:#dca5be"/></g></svg>