<svg xmlns="http://www.w3.org/2000/svg" xmlns:xlink="http://www.w3.org/1999/xlink" width="500" height="200" aria-hidden="true" viewBox="0 -29.756 500 200"><defs><path id="a" stroke-width="1" d="M94 250q0 69 10 131t23 107q13 45 37 88t38 67q14 24 42 52t33 34q5 6 25 21h17q14 0 14-9 0-3-17-21t-41-53q-24-35-49-86t-42-138q-17-87-17-193t17-192q17-86 41-139t49-86q25-33 42-53t17-21q0-9-15-9h-16l-28 24q-94 85-137 212T94 250Z"/><path id="b" stroke-width="1" d="M208 74q0-24 46-28 18 0 18-11 0-1-2-13-3-14-6-18t-13-4h-12q-10 0-34 1t-64 1Q70 2 50 0h-8q-7 7-7 11 2 27 13 35h14q70 3 102 50 6 6 181 305t178 303q7 12 24 12h25q6-9 6-10l28-323q28-323 30-326 5-11 65-11 25 0 25-10 0-2-3-14-3-15-5-18t-14-4h-14q-11 0-39 1t-73 1q-94 0-123-2h-12q-6 6-6 9t2 18q4 13 6 16l4 3h20q54 3 64 17l-12 150H283l-34-58q-41-69-41-81Zm308 186q0 11-12 156t-14 146l-27-43q-16-27-63-107l-90-152 103-1q103 0 103 1z"/><path id="c" stroke-width="1" d="M231 637q-27 0-32 1t-5 11q0 27 11 33 1 1 130 1 259 0 273-2 63-10 105-45t43-92q0-64-58-115t-133-69l-10-3q64-9 105-46t42-92q0-73-72-141T453 1q-7-1-211-1Q42 0 39 2q-4 3-4 8 0 7 2 14 5 19 10 21 4 1 15 1h6q27 0 60 3 14 3 19 12 3 4 72 278t69 289q0 7-57 9zm418-93q0 30-15 56t-49 34q-7 2-92 3h-42q-22 0-35-1h-13q-15-1-19-10-2-4-32-120 0-3-1-6l-31-126h81q81 0 93 2 60 10 107 58t48 110zm-54-315q0 44-23 73t-60 34q-6 1-83 1-118 0-119-1 0-2-17-73t-35-141l-18-70q0-4 12-4t81-2q89 0 96 1 62 7 114 58t52 124z"/><path id="d" stroke-width="1" d="m60 749 4 1h22l28-24q94-85 137-212t43-264q0-68-10-131T261 12q-13-44-37-88t-38-67q-14-23-41-51t-32-33q-5-5-23-19l-4-4H63q-3 0-5 3t-3 9q1 1 11 13Q221-64 221 250T66 725q-10 12-11 13 0 8 5 11z"/><path id="e" stroke-width="1" d="M26 385q-7 7-7 10 0 4 3 16t5 14q2 5 9 5t51 1h53l19 80q3 11 7 29t7 26q3 8 6 20t8 17q5 5 10 12t14 9q9 2 18 2 18-1 25-11t7-19q0-7-9-47t-20-79l-10-37q0-2 50-2h51q7-7 7-11 0-22-13-35H210l-36-145Q135 80 135 68q0-42 27-42 35 0 68 34t53 84q2 6 5 7t15 2h4q15 0 15-8 0-3-3-12-5-16-18-38t-34-47q-21-25-51-42t-61-17q-30 0-57 15T59 56q-2 8-2 27v18l35 140q35 141 36 142 0 2-51 2z"/><path id="f" stroke-width="1" d="M96 585q56 81 153 81 48 0 96-26t78-92q37-83 37-228 0-155-43-237-20-42-55-67t-61-31q-26-6-51-7-26 0-52 6t-61 32q-35 26-55 67-43 82-43 237 0 174 57 265zm225 12q-30 32-71 32-42 0-72-32-25-26-33-72t-8-192q0-158 8-208t36-79q28-30 69-30 40 0 68 30 29 30 36 84t8 203q0 145-8 191t-33 73z"/><path id="g" stroke-width="1" d="M56 237v13q0 13 14 20h299v150l1 150q10 13 19 13 13 0 20-15V270h298q15-8 15-20t-15-20H409V-68q-8-14-18-14h-4q-12 0-18 14v298H70q-14 7-14 20z"/><path id="h" stroke-width="1" d="M51 0q-5 4-5 7 0 2 169 350t173 352q3 7 28 7 23 0 28-7 3-4 172-352T786 7q0-3-5-7Zm456 344L384 596 137 92l246-1h247q0 2-123 253z"/><path id="i" stroke-width="1" d="M84 237v13q0 13 14 20h581q15-8 15-20t-15-20H98q-14 7-14 20z"/></defs><path d="M64.854 26.568c-5.308-3.833-10.48-9.981-9.248-17.415C57.15-.166 65.3-5.971 72.633-9.672c16.118-8.136 34.56-9.349 52.01-7.194 21.413 2.643 42.27 12.447 57.957 28.694 4.014 4.157 8.52 8.093 11.133 13.546.244.51.016.823-.316.923-3.063-1.482-4.897-5.016-5.908-8.337-1.34-4.406-.511-9.375 1.854-13.256 3.5-5.74 9.433-9.083 15.488-10.352 12.448-2.608 25.912.344 36.311 8.232 5.377 4.078 10.313 9.564 11.773 16.668.564 2.746-.304 5.935-2.127 8.364l-.203.27-.083-.359c2.462-3.355 6.849-4.23 10.585-4.547 12.733-1.082 26.077 6.03 32.44 18.17 6.655 12.697 6.58 28.493 2.165 41.72-5.145 15.412-19.295 27.557-33.947 31.512-12.56 3.39-26.516 3.285-38.219-3.105-1.813-.99-3.972-2.218-4.806-4.367 1.435-.851 8.043 4.88 10.244 8.943 2.466 5.272-.284 11.453-4.374 14.683-8.792 8.242-20.742 11.017-32.018 12.087-18.472 1.326-37.572-2.21-53.671-12.5-7.47-4.723-15.029-10.248-19.72-18.324-.385-.875-.786-2.047-.182-2.928l.695.57c2.628 3.51 1.955 8.76-.197 12.334-2.63 4.083-7.583 5.08-11.89 5.137-5.186-.003-10.323-1.265-15.19-3.148-7.213-3.057-13.786-8.296-18.054-15.378-1.858-3.393-3.675-7.663-2.255-11.622.201-.498.467-.964.788-1.38l-.091-.224c-3.308 4.577-8.48 6.79-13.283 8.642-12.398 4.778-26.526 4.885-38.597-1.235-8.277-4.196-14.714-12.676-16.88-22.713C1.641 68.63 5.898 56.972 12.291 48.56c9.595-12.623 22.096-20.429 36.555-23.097 6.33-1.168 11.471-.955 16.278.566" style="fill:#e5f6ff;fill-opacity:1;stroke:#000;stroke-width:1.3"/><path d="M43.684 75.22h219.474v-1.142H43.684z"/><g transform="matrix(.01904 0 0 -.01904 44.826 65.605)"><use xlink:href="#a"/><use xlink:href="#b" x="389"/><use xlink:href="#c" x="1140"/><use xlink:href="#d" x="1899"/><use xlink:href="#a" x="2289"/><g transform="translate(2678)"><use xlink:href="#e"/><use xlink:href="#f" x="511" y="-213" transform="scale(.707)"/></g><use xlink:href="#g" x="3716"/><use xlink:href="#h" x="4716"/><use xlink:href="#e" x="5550"/><use xlink:href="#d" x="5911"/><use xlink:href="#i" x="6523"/><use xlink:href="#a" x="7524"/><use xlink:href="#b" x="7913"/><use xlink:href="#c" x="8664"/><use xlink:href="#d" x="9423"/><use xlink:href="#a" x="9813"/><g transform="translate(10202)"><use xlink:href="#e"/><use xlink:href="#f" x="511" y="-213" transform="scale(.707)"/></g><use xlink:href="#d" x="11018"/></g><g transform="matrix(.01904 0 0 -.01904 142.045 92.585)"><use xlink:href="#h"/><use xlink:href="#e" x="833"/></g><path d="M31.625-150.388c-3.578-.32-7.171.297-10.678.958-1.02.192-2.041.379-3.047.634-1.04.265-2.057.617-3.086.926-5.485 1.968-10.428 5.136-14.668 9.127-2.864 2.695-4.003 4.282-6.442 7.272-3.405 4.685-5.509 10.01-5.38 15.868.074 3.403.654 5.28 1.38 8.546.473 1.255.828 2.56 1.417 3.764 2.746 5.625 7.881 9.629 13.318 12.477 1.7.89 3.491 1.59 5.237 2.385 6.983 2.508 14.35 4.136 21.797 4.183 4.25.026 5.533-.29 9.68-.846 3.554-.72 7.098-1.626 10.432-3.078.917-.4 2.41-1.123 3.18-1.904.225-.229.33-.551.496-.827-.038-.23.014-.495-.113-.69-.133-.205-.373-.333-.603-.412-1.222-.422-2.534-.17-3.363.896-.316.407-.457.924-.685 1.387-.055.63-.206 1.26-.166 1.89.258 3.988 3.038 7.397 6.054 9.763 1.023.803 2.16 1.45 3.24 2.176 6.295 3.448 13.437 5.125 20.623 4.537 1.288-.105 2.557-.381 3.835-.572 4.45-1.075 9.294-2.469 12.338-6.119.21-.431.366-.634.436-1.07.015-.093-.272-.043-.28.052-.017.198.103.389.195.566.166.32.384.61.575.916.385.414.735.863 1.154 1.242 3.469 3.144 8.322 5.302 12.71 6.74 1.726.565 3.499.975 5.248 1.463 10.338 2.222 21.091 3.232 31.643 2.059 1.92-.213 3.814-.611 5.722-.917 1.66-.46 3.35-.825 4.98-1.381 4.038-1.377 8.505-3.634 10.918-7.338.323-.496.501-1.074.752-1.61.588-2.649-.633-4.734-2.458-6.527.064-.198-1.347-.928-1.365-.837-.045.232 1.443 1.199 1.468 1.216a86.637 86.637 0 0 0 13.631 6.254c7.303 2.447 15.02 2.384 22.621 2.097 8.103-.494 16.132-2.224 23.634-5.36 1.695-.708 3.33-1.55 4.996-2.326 8.613-4.514 16.178-10.908 21.351-19.218 1.003-1.612 1.798-3.344 2.697-5.016.676-1.732 1.46-3.425 2.027-5.195 1.44-4.491 2.462-9.923 2.24-14.665-.19-4.08-.762-4.945-2.018-8.82-.774-1.44-1.441-2.941-2.322-4.317-4.24-6.622-10.608-11.647-17.384-15.479-1.971-1.115-4.041-2.047-6.062-3.071-8.519-3.72-17.699-6.4-27.088-5.877-1.129.063-2.245.272-3.367.407-1.834.552-6.286 1.249-6.19 3.966.067.094.308.53.52.125.095-.182-.008-.414-.053-.615-.389-1.75-1.39-3.11-2.378-4.568-2.114-2.717-4.272-5.5-7.141-7.47-2.451-1.682-3.241-1.855-6.109-3.127-7.651-2.68-15.847-3.48-23.911-2.793-1.571.134-3.126.418-4.688.627-1.462.385-2.95.681-4.387 1.155-4.413 1.455-8.917 3.884-11.721 7.714-.433.592-.725 1.275-1.087 1.912-.535 1.276-.796 2.595-.723 3.975.025.483.212.897.235 1.36.02-.054.09-.115.057-.162-.395-.563-1.937-1.938-2.23-2.181-1.874-1.56-3.587-2.778-5.729-4.014-1.47-.849-3.003-1.583-4.504-2.375-10.788-4.844-22.503-7.654-34.316-8.315-2.94-.164-5.889-.08-8.833-.12-14.047.549-28.07 3.45-40.72 9.742-1.795.893-3.483 1.985-5.225 2.977-2.618 2.1-7.403 5.587-6.092 9.797.328 1.054 1.31 1.777 1.966 2.666l.346.149c-.657-.88-1.638-1.594-1.973-2.64-1.343-4.21 3.39-7.693 6.01-9.805 1.736-.995 3.418-2.09 5.208-2.985 12.622-6.314 26.631-9.214 40.661-9.769 2.943.04 5.891-.046 8.83.12 11.833.672 23.564 3.517 34.368 8.368 1.333.694 2.697 1.332 4 2.083 2.145 1.237 3.837 2.44 5.711 4 2.68 2.234.515.519 2.21 2.169.17.166.372.298.557.447-.045-.478-.232-.873-.266-1.374-.095-1.381.158-2.694.699-3.97.363-.635.657-1.315 1.09-1.903 2.81-3.813 7.29-6.253 11.698-7.71 1.433-.475 2.92-.77 4.38-1.156 1.559-.21 3.11-.495 4.679-.63 8.078-.694 16.28.13 23.939 2.83 2.758 1.162 3.145 1.157 5.578 2.822 2.875 1.968 5.042 4.749 7.16 7.467 1.095 1.616 1.372 1.812 2.046 3.485 1.042 2.585-.077-.03.37 1.652.034.126.154.216.195.34.02.063-.088-.1-.132-.15-.12-2.679 4.368-3.39 6.154-3.932 1.118-.137 2.23-.348 3.354-.413 9.37-.541 18.533 2.14 27.035 5.853 1.88.943 3.808 1.794 5.64 2.828 6.766 3.822 13.138 8.837 17.362 15.455.875 1.371 1.535 2.868 2.303 4.302 1.244 3.866 1.81 4.733 2 8.8.223 4.742-.779 10.176-2.208 14.67-.563 1.77-1.343 3.465-2.014 5.198-2.472 4.63-2.738 5.636-6.06 9.782-4.87 6.08-11.064 10.873-17.956 14.452-1.663.776-3.297 1.62-4.99 2.328-7.503 3.141-15.537 4.854-23.641 5.345-7.61.287-15.333.338-22.641-2.126a88.92 88.92 0 0 1-13.093-5.952c-.3-.206-1.497-1.084-1.5-1.13-.004-.08.172-.001.236.047.19.144.368.306.551.459 1.833 1.78 3.065 3.854 2.499 6.502-.247.537-.421 1.113-.74 1.61-2.38 3.714-6.82 5.986-10.848 7.363-1.629.557-3.317.922-4.976 1.382-1.907.305-3.802.702-5.722.915-10.56 1.172-21.32.158-31.663-2.085-1.753-.491-3.53-.906-5.258-1.474-4.845-1.594-9.9-3.86-13.381-7.697-.192-.303-.408-.591-.574-.908-.636-1.217.26.013-.51-.937-.012-.016.048.022.046.042-.04.412-.229.685-.41 1.07-3.006 3.667-7.841 5.069-12.278 6.135-1.279.19-2.548.464-3.837.568-7.012.563-14.015-1.029-20.203-4.31-1.079-.724-2.214-1.37-3.236-2.171-3.01-2.357-5.796-5.756-6.052-9.735-.04-.627.112-1.252.168-1.878.228-.459.367-.972.683-1.375.528-.673 2.748-1.792 3.457-.766.13.188.083.448.125.672-.162.274-.265.593-.486.821-.771.796-2.211 1.504-3.142 1.92-3.31 1.475-6.835 2.395-10.377 3.108-4.161.558-5.415.87-9.68.842-7.45-.05-14.818-1.68-21.802-4.195-1.628-.728-3.303-1.36-4.884-2.184-5.434-2.835-10.57-6.846-13.316-12.46-.589-1.204-.947-2.509-1.42-3.763-.734-3.282-1.31-5.12-1.383-8.54-.125-5.85 1.978-11.175 5.367-15.86 2.414-2.995 3.552-4.602 6.403-7.294 4.23-3.994 9.169-7.168 14.65-9.131 1.029-.308 2.046-.658 3.086-.923 1.004-.256 2.024-.445 3.042-.638 3.522-.665 7.138-1.276 10.73-.913z" style="fill:#363636;stroke:#000;stroke-width:1.3"/><path d="M336.426 51.286c-4.67.436-9.208 2.116-13.066 4.796-.987.686-1.88 1.5-2.82 2.25-.825.888-1.721 1.716-2.475 2.665-2.99 3.762-4.936 8.56-4.502 13.434.105 1.175.483 2.31.724 3.464.538 1.087.953 2.243 1.615 3.26 3.113 4.779 8.509 7.647 13.914 9.002 1.483.372 3.013.524 4.52.785 5.543.414 11.2-.257 16.067-3.13 2.216-1.309 3.133-2.35 4.945-4.06.536-.754 1.148-1.458 1.606-2.261 1.957-3.432 2.28-7.598 1.696-11.44-.159-1.045-.46-2.064-.69-3.097-1.592-4.965-4.5-9.385-8.653-12.586-.7-.54-1.468-.985-2.201-1.477-.873-.4-1.71-.89-2.62-1.201-3.619-1.24-7.754-.76-11.265.599-.927.359-1.786.874-2.679 1.31" style="fill:#e5f6ff;fill-opacity:1;stroke:#000;stroke-width:1.3"/><path d="M-348.907 32.849c-4.23-1.14-8.664-1.262-12.995-.674-1.49.203-2.96.533-4.44.799-9.634 2.398-18.777 6.826-26.304 13.364-1.55 1.347-2.933 2.873-4.4 4.31-4.741 5.72-8.436 12.338-8.66 19.945-.136 4.573.529 5.542 1.816 9.854.795 1.514 1.443 3.116 2.385 4.543 3.026 4.586 7.372 8.023 12.315 10.341 4.394 2.061 6.24 2.19 10.957 3.23 1.93.176 3.852.466 5.788.53 6.952.232 14.093-1.012 20.622-3.389 1.238-.45 2.425-1.03 3.638-1.545 2.177-1.09 4.373-2.269 6.113-4.009.355-.355.924-1.084.791-1.254-.112-.144-.36-.058-.54-.087-1.947 2.36-1.188 5.8-.075 8.37.46 1.063 1.09 2.043 1.635 3.065.82 1.058 1.561 2.181 2.46 3.173 4.424 4.888 10.242 8.412 16.489 10.44 1.552.505 3.162.81 4.743 1.214 1.527.206 3.044.51 4.58.617 4.28.297 9.709-.103 12.868-3.469.608-.647.96-1.493 1.44-2.24.247-.794.579-1.567.74-2.382.428-2.167.193-4.87-1.325-6.605-.174-.2-.419-.327-.628-.49-.253-.023-.542-.203-.757-.07-.44.272.144 1.773.145 1.776.997 2.319 2.894 4.147 4.562 5.968 5.828 5.677 12.88 9.907 20.187 13.402 1.596.763 3.234 1.432 4.85 2.148 10.107 3.856 20.95 5.522 31.748 5.545 2.405.005 4.807-.166 7.21-.25 8.329-.761 16.687-2.506 24.044-6.653 3.355-1.89 3.969-2.665 6.71-5.084.645-.854 1.406-1.632 1.935-2.562 1.34-2.356 1.644-5.129.672-7.67-.706-1.847-1.54-2.595-2.777-4.072-1.467-1.453-3.15-2.653-4.946-3.663-.407-.23-1.512-.9-2.172-.936-.124-.007-.23.096-.344.144.03.146.018.308.09.439.29.53 1.067 1.19 1.476 1.514 1.976 1.568 4.16 2.555 6.457 3.555 6.465 2.347 13.406 3.276 20.273 2.952 1.658-.079 3.306-.303 4.96-.454 6.677-.907 13.151-2.942 18.906-6.499 3.89-2.403 4.364-3.111 7.754-6.17 6.488-6.626 10.15-14.404 12.16-23.401.39-1.746.605-3.527.909-5.29.736-6.996.255-14.138-2.94-20.528-2.072-4.145-2.967-4.674-6.032-8.06-1.303-1.035-2.529-2.179-3.911-3.107a36.145 36.145 0 0 0-13.565-5.502c-3.671-.67-4.591-.468-8.196-.371-2.668.332-5.328.944-7.641 2.375-.453.28-1.25.869-1.483 1.46-.04.103.038.218.056.326.246.035.496.167.736.105.253-.065.452-.272.635-.459 1.12-1.14 1.504-2.75 1.459-4.316-.023-.804-.216-1.594-.323-2.39-.311-.903-.54-1.837-.933-2.707-2.288-5.054-6.359-9.268-10.984-12.25-1.545-.997-3.214-1.788-4.821-2.681-1.708-.685-3.375-1.484-5.124-2.055-6.89-2.249-14.545-2.97-21.713-1.767-1.58.265-3.112.767-4.668 1.15-1.372.623-2.81 1.118-4.117 1.869-3.366 1.933-6.252 4.86-7.74 8.488-1.088 2.657-.845 3.494-.876 6.253.21.932.33 1.888.63 2.795.77 2.33 2.603 5.175 4.758 6.495.326.2.702.302 1.053.453.132-.086.357-.107.396-.26.146-.575-.688-1.878-.837-2.11-1.767-2.759-4.192-4.947-6.52-7.214-4.754-4.403-9.612-8.73-15.049-12.288-4.723-3.09-6.208-3.668-11.377-6.317-9.577-4.392-19.76-7.379-30.234-8.613-7.573-.892-9.82-.66-17.427-.642-2.87.249-5.755.372-8.611.747-9.859 1.296-20.054 4.032-28.39 9.664-1.563 1.056-2.93 2.377-4.397 3.565-.996 1.278-2.162 2.441-2.99 3.835-2.066 3.48-2.528 7.486-.92 11.234 1.23 2.867 2.5 3.82 4.59 6.038l3.034 2.283" style="fill:#363636;stroke:#000;stroke-width:1.3"/><path d="M380.145 63.859c.614-.885 1.385-1.404 2.199-1.97.473-.234.935-.505 1.42-.7 2.63-1.058 5.03-1.055 7.613.175.428.248.879.446 1.284.745 2.302 1.705 3.736 4.52 4.421 7.606.14 1.467.296 1.957.004 3.414-.537 2.688-2.319 4.453-4.185 5.841-.626.356-1.233.766-1.88 1.067-3.609 1.68-7.511 1.804-11.244.691-.651-.272-1.321-.488-1.954-.817-1.871-.972-3.618-2.642-4.207-5.078-.114-.472-.126-.971-.188-1.457.05-.478.058-.965.153-1.434.637-3.172 2.717-5.516 4.889-7.256.544-.345 1.072-.728 1.632-1.035 2.018-1.108 4.257-1.73 6.477-1.458" style="fill:#e5f6ff;fill-opacity:1;stroke:#000;stroke-width:1.3"/><path d="M-63.462 85.753c2.39.505 3.415 2.482 3.67 4.823.309 2.83-.134 5.872-2.245 8.068-2.705 2.708-6.786 4.354-10.598 3.385-4.176-1.005-7.573-4.773-7.881-9.087-.185-2.644.925-5.277 2.668-7.278 3.17-3.637 7.877-3.736 12.3-1.293 1.134.626 3.056 2.436 3.328 3.488" style="display:inline;fill:#e5f6ff;fill-opacity:1;stroke:#000;stroke-width:.927097;stroke-miterlimit:10;stroke-dasharray:none;stroke-opacity:1"/></svg>