<svg xmlns="http://www.w3.org/2000/svg" xmlns:xlink="http://www.w3.org/1999/xlink" width="500" height="300" aria-hidden="true" viewBox="0 -38.904 500 300"><defs><path id="b" stroke-width="1" d="M208 74q0-24 46-28 18 0 18-11 0-1-2-13-3-14-6-18t-13-4h-12q-10 0-34 1t-64 1Q70 2 50 0h-8q-7 7-7 11 2 27 13 35h14q70 3 102 50 6 6 181 305t178 303q7 12 24 12h25q6-9 6-10l28-323q28-323 30-326 5-11 65-11 25 0 25-10 0-2-3-14-3-15-5-18t-14-4h-14q-11 0-39 1t-73 1q-94 0-123-2h-12q-6 6-6 9t2 18q4 13 6 16l4 3h20q54 3 64 17l-12 150H283l-34-58q-41-69-41-81Zm308 186q0 11-12 156t-14 146l-27-43q-16-27-63-107l-90-152 103-1q103 0 103 1z"/><path id="c" stroke-width="1" d="M231 637q-27 0-32 1t-5 11q0 27 11 33 1 1 130 1 259 0 273-2 63-10 105-45t43-92q0-64-58-115t-133-69l-10-3q64-9 105-46t42-92q0-73-72-141T453 1q-7-1-211-1Q42 0 39 2q-4 3-4 8 0 7 2 14 5 19 10 21 4 1 15 1h6q27 0 60 3 14 3 19 12 3 4 72 278t69 289q0 7-57 9zm418-93q0 30-15 56t-49 34q-7 2-92 3h-42q-22 0-35-1h-13q-15-1-19-10-2-4-32-120 0-3-1-6l-31-126h81q81 0 93 2 60 10 107 58t48 110zm-54-315q0 44-23 73t-60 34q-6 1-83 1-118 0-119-1 0-2-17-73t-35-141l-18-70q0-4 12-4t81-2q89 0 96 1 62 7 114 58t52 124z"/><path id="d" stroke-width="1" d="M26 385q-7 7-7 10 0 4 3 16t5 14q2 5 9 5t51 1h53l19 80q3 11 7 29t7 26q3 8 6 20t8 17q5 5 10 12t14 9q9 2 18 2 18-1 25-11t7-19q0-7-9-47t-20-79l-10-37q0-2 50-2h51q7-7 7-11 0-22-13-35H210l-36-145Q135 80 135 68q0-42 27-42 35 0 68 34t53 84q2 6 5 7t15 2h4q15 0 15-8 0-3-3-12-5-16-18-38t-34-47q-21-25-51-42t-61-17q-30 0-57 15T59 56q-2 8-2 27v18l35 140q35 141 36 142 0 2-51 2z"/><path id="e" stroke-width="1" d="M96 585q56 81 153 81 48 0 96-26t78-92q37-83 37-228 0-155-43-237-20-42-55-67t-61-31q-26-6-51-7-26 0-52 6t-61 32q-35 26-55 67-43 82-43 237 0 174 57 265zm225 12q-30 32-71 32-42 0-72-32-25-26-33-72t-8-192q0-158 8-208t36-79q28-30 69-30 40 0 68 30 29 30 36 84t8 203q0 145-8 191t-33 73z"/><path id="f" stroke-width="1" d="M56 237v13q0 13 14 20h299v150l1 150q10 13 19 13 13 0 20-15V270h298q15-8 15-20t-15-20H409V-68q-8-14-18-14h-4q-12 0-18 14v298H70q-14 7-14 20z"/><path id="g" stroke-width="1" d="M51 0q-5 4-5 7 0 2 169 350t173 352q3 7 28 7 23 0 28-7 3-4 172-352T786 7q0-3-5-7Zm456 344L384 596 137 92l246-1h247q0 2-123 253z"/><path id="a" stroke-width="1" d="M758-1237v-3q0-3-6-9h-16q-18 0-19 1-6 3-45 49Q237-706 237 251t435 1449q25 30 44 49 2 1 19 1h17q6-6 6-9 0-4-18-28t-51-69q-33-45-70-107t-79-157q-42-95-77-204-115-374-115-925 0-493 93-850t303-619q14-19 14-22z"/><path id="h" stroke-width="1" d="M33 1741q0 9 18 9h14q8 0 16-7t38-43q435-493 435-1449 0-958-435-1450-43-51-53-51h-4q-3 0-6 1h-3q-2 0-4-1-16 0-16 11 0 3 17 25t48 64q31 42 65 98t75 142q41 86 73 183 132 392 132 978 0 151-7 281t-31 299q-24 169-66 311t-115 296q-73 154-174 278-17 21-17 25z"/></defs><g transform="translate(-3005.6)"><use xlink:href="#a" transform="matrix(.01904 0 0 -.01904 2.919 29.918)"/><text x="59.41" y="14.229" style="font-size:20px;stroke-width:1.02471"><tspan style="font-style:normal;font-variant:normal;font-weight:400;font-stretch:normal;font-size:20px;font-family:Baskerville;-inkscape-font-specification:Baskerville">change in</tspan></text><use xlink:href="#b" x="4450" transform="matrix(.01904 0 0 -.01904 59.41 14.23)"/><use xlink:href="#c" x="5201" transform="matrix(.01904 0 0 -.01904 59.41 14.23)"/><text x="20.283" y="45.798" style="font-size:20px;stroke-width:1.02471"><tspan style="font-style:normal;font-variant:normal;font-weight:400;font-stretch:normal;font-size:20px;font-family:Baskerville;-inkscape-font-specification:Baskerville">between</tspan></text><g transform="matrix(.01904 0 0 -.01904 94.861 45.798)"><use xlink:href="#d"/><use xlink:href="#e" x="511" y="-213" transform="scale(.707)"/></g><text style="font-size:19.5176px" transform="matrix(1.02471 0 0 1.02471 118.082 45.798)"><tspan style="font-style:normal;font-variant:normal;font-weight:400;font-stretch:normal;font-size:19.5176px;font-family:Baskerville;-inkscape-font-specification:Baskerville">and</tspan></text><g transform="translate(9.67 29.918)"><g transform="matrix(.01904 0 0 -.01904 148.891 15.88)"><use xlink:href="#d"/><use xlink:href="#e" x="511" y="-213" transform="scale(.707)"/></g><use xlink:href="#f" x="7875" transform="matrix(.01904 0 0 -.01904 18.715 15.88)"/><use xlink:href="#g" x="8876" transform="matrix(.01904 0 0 -.01904 18.715 15.88)"/><use xlink:href="#d" x="9709" transform="matrix(.01904 0 0 -.01904 18.715 15.88)"/></g><use xlink:href="#h" x="11103" transform="matrix(.01904 0 0 -.01904 9.284 29.918)"/></g><rect width="47.6" height="31.891" x="-2911.497" y="46.12" rx="0" ry="0" style="fill:#f0f;stroke-width:.55"/><rect width="47.6" height="31.891" x="-2911.497" y="-17.661" rx="0" ry="0" style="fill:#fca;stroke-width:.55"/><rect width="47.6" height="31.891" x="-2863.898" y="46.12" rx="0" ry="0" style="fill:#0ff;stroke-width:.55"/><rect width="47.6" height="31.891" x="-2855.325" y="-49.552" rx="0" ry="0" style="fill:#f55;stroke-width:.55"/><rect width="59.089" height="7.673" x="-2869.642" y="129.444" rx="0" ry="0" style="opacity:.5;fill:#782121;stroke-width:.55"/><path d="M401.435 211.058c1.95 11.537-5.54 22.973-15.97 28.63-13.845 7.508-30.535 8.625-45.989 6.569-16.169-2.152-32.212-7.322-44.746-17.471-5.275-4.272-10.343-10.737-10.292-17.67.006-.906.423-1.791 1.103-2.44l.894-.11c.088 4.898-4.79 8.542-8.882 10.714-10.372 5.507-23.105 5.213-34.026 1.883-13.825-4.215-26.768-13.854-33.69-26.328-7.052-12.708-5.306-29.413 4.802-40.084 3.124-3.297 11.49-10.706 11.79-7.526.343 1.14-4.995 1.483-9.457 1.152-11.884-.884-21.716-9.015-28.01-18.256-7.04-10.34-8.306-23.53-4.793-35.317 3.392-11.384 11.382-21.188 21.84-27.431 9.614-5.74 20.886-10.599 32.431-9.232 1.364.162 3.274.544 3.96 1.933-3.543 1.954-8.245-.757-11.343-2.846-6.406-4.32-10.66-11.444-10.812-18.98-.17-8.51 4.216-16.674 10.01-22.944 8.261-8.941 19.333-14.186 31.221-16.746 11.19-2.41 24.656-1.724 35.457 2.481 1.175.458 2.16 1.276 3.012 2.168l-.842.211c-.771.57-3.074-3.572-3.184-5.387-.403-6.604 3.936-12.544 9.257-16.484 10.385-7.69 24.093-9.723 36.57-10.254 12.302-.524 25.815.906 36.91 6.063 5.25 2.44 10.618 6.19 12.23 11.68.667 2.27 1.626 8.22-1.92 11.3-1.828 1.587-3.65.233-1.256-.758 6.866-2.84 17.004-4.513 24.778-4.628 14.126-.208 25.865 1.824 37.623 9.007 15.105 9.228 21.508 23.128 21.333 35.713-.104 7.48-4.639 15.368-10.383 19.073-1.635 1.055-5.1 2.891-5.63 1.82 3.98-2.014 10.635-.749 15.206 1.35 10.198 4.682 18.437 13.253 22.883 22.067 4.56 9.04 14.49 43.875-22.423 52.12-3.944.88-10.07 1.77-14.622-.3l-.368-1.267c8.26 2.64 13.69 10.021 15.788 17.834 2.806 10.447 1.334 21.73-3 31.575-4.869 11.064-14.351 20.034-25.908 24.91-10.1 4.261-21.964 5.663-32.54 2.698-6.387-1.79-13.12-4.722-16.626-10.49-.314-.517-.472-1.57.432-1.692 4.514 1.865 6.444 7.32 7.182 11.69z" style="fill:#fff9f3;stroke:#000;stroke-width:1.3;fill-opacity:1"/><g style="stroke-width:1.05263"><g style="stroke-width:1.05263"><path stroke-width=".02" d="M249.107 85.19v.12q0 .122-.114.364h-.305q-.342 0-.361-.04-.115-.121-.857-1.978-8.283-19.904-8.283-58.539 0-38.635 8.283-58.498.476-1.211.838-1.978.038-.04.361-.04h.324q.114.241.114.363 0 .161-.343 1.13-.342.969-.97 2.786-.629 1.816-1.333 4.32-.705 2.502-1.505 6.338-.8 3.835-1.466 8.235-2.19 15.1-2.19 37.344 0 19.903 1.771 34.316 1.771 14.412 5.77 24.99.266.767.266.888zM405.002 85.19v.12q0 .122.114.364h.305q.343 0 .362-.04.114-.121.856-1.978 8.283-19.904 8.283-58.539 0-38.635-8.283-58.498-.476-1.211-.837-1.978-.038-.04-.362-.04h-.324q-.114.241-.114.363 0 .161.343 1.13.342.969.97 2.786.63 1.816 1.334 4.32.704 2.502 1.504 6.338.8 3.835 1.466 8.235 2.19 15.1 2.19 37.344 0 19.903-1.771 34.316-1.771 14.412-5.77 24.99-.266.767-.266.888z" style="display:inline;fill:#000;stroke:#000" transform="matrix(.95 0 0 .95 34.806 72.676)"/><g style="display:inline;stroke-width:1.05263" transform="matrix(.95 0 0 .95 -2.275 72.676)"><text x="307.658" y="-17.784" style="font-size:20px;stroke-width:0;stroke-dasharray:none"><tspan style="font-style:normal;font-variant:normal;font-weight:400;font-stretch:normal;font-size:20px;font-family:Baskerville;-inkscape-font-specification:Baskerville;stroke-width:0;stroke-dasharray:none">change in</tspan></text><use xlink:href="#b" x="4450" style="stroke-width:1.05263" transform="matrix(.01904 0 0 -.01904 307.658 -17.784)"/><use xlink:href="#c" x="5201" style="stroke-width:1.05263" transform="matrix(.01904 0 0 -.01904 307.658 -17.784)"/></g><g style="display:inline;stroke-width:1.05263" transform="matrix(.95 0 0 .95 32.636 72.676)"><text xml:space="preserve" x="264.109" y="14.076" style="font-style:normal;font-variant:normal;font-weight:400;font-stretch:normal;font-size:20px;font-family:Baskerville;-inkscape-font-specification:Baskerville;text-align:center;text-anchor:middle;fill:#000;fill-opacity:1;stroke:#000;stroke-width:0;stroke-dasharray:none"><tspan x="264.109" y="14.076" style="stroke-width:0">as</tspan></text><g style="stroke-width:1.05263"><path d="M310.272 6.781q.83-.937 1.68-.937.468 0 .722.254.264.254.264.556 0 .645-.586.645-.322 0-.557-.4-.215-.372-.449-.372-.371 0-.82.508.508.801.508 1.7 0 1.171-.84 2.07-.84.908-2.832.976-2.07.069-2.07.84 0 .361.468.508.46.156 1.934.234 1.611.078 2.48.303.87.215 1.387.879t.517 1.582q0 1.29-1.054 2.08-1.055.791-3.037.791-1.817 0-2.91-.703-1.094-.703-1.094-1.777 0-.596.312-.977.313-.38.889-.38.156 0 .283.048-.605.664-.605 1.406 0 .86.8 1.416.811.567 2.413.567 1.425 0 2.216-.576.801-.567.801-1.456 0-.976-.713-1.376-.713-.391-2.539-.47-2.1-.087-2.724-.517-.625-.42-.625-1.084 0-1.28 1.787-1.611-.928-.547-1.397-1.25t-.469-1.572q0-1.221.957-2.07.967-.86 2.286-.86 1.63 0 2.617 1.025zm-4.395 2.13q0 1.259.518 1.845.517.586 1.318.586.742 0 1.27-.576.537-.586.537-2.022 0-1.445-.567-1.992-.566-.547-1.279-.547-.898 0-1.347.674-.45.674-.45 2.031zM313.534 10.063q0-1.836 1.23-3.067 1.23-1.24 3.027-1.24 1.807 0 3.037 1.24t1.23 3.067q0 2.021-1.25 3.183-1.25 1.152-3.017 1.152t-3.017-1.171q-1.24-1.182-1.24-3.164zm1.62.048q0 2.13.694 2.989.693.85 1.943.85 1.28 0 1.953-.85.684-.86.684-2.989 0-2.109-.674-3.007-.674-.899-1.963-.899-1.279 0-1.963.899-.673.888-.673 3.007zM330.78 8.783h-5.577q-.039.576-.039.86 0 2.109.655 3.173.664 1.055 1.972 1.055 1.778 0 2.52-1.592h.469q-.313.996-1.24 1.563-.928.556-2.022.556-1.016 0-1.924-.507-.898-.518-1.475-1.455-.576-.938-.576-2.276 0-1.894 1.114-3.144 1.113-1.26 2.783-1.26 1.572 0 2.431.957.86.957.909 2.07zm-1.71-.39q.03-.225.03-.4 0-.86-.508-1.329-.498-.478-1.23-.478-1.778 0-2.12 2.207zM332.352 14.33v-2.627h.38q.665 2.276 2.374 2.276.742 0 1.103-.45.371-.449.371-.986 0-.625-.39-1.025-.4-.4-1.553-.967-1.21-.596-1.738-1.172-.528-.566-.528-1.397 0-.79.567-1.503.566-.723 1.592-.723 1.045 0 1.728.85.147-.147.381-.713H337v2.47h-.361q-.195-.888-.762-1.523-.556-.645-1.318-.645-.586 0-.947.362-.362.361-.362.84 0 .527.4.908.391.39 1.495.888 1.66.752 2.031 1.465.371.723.371 1.387 0 1.045-.693 1.7-.684.653-1.729.653-1.103 0-1.963-.908-.263.293-.43.84z" style="font-size:20px;font-family:Baskerville;-inkscape-font-specification:Baskerville;text-align:center;text-anchor:middle;stroke:#000;stroke-width:.105263;stroke-dasharray:none" transform="translate(-3.721)"/></g><g style="stroke-width:1.05263"><path d="M348.075 6.078v.45h-1.67v4.804q0 1.28.029 1.611.039.332.283.508.244.176.87.176h.42v.45h-4.327v-.45q.674 0 .928-.137.263-.136.322-.41.068-.283.068-1.748V6.527h-1.494v-.449h1.494v-.722q0-1.211.098-1.875.098-.665.547-1.368.459-.713 1.143-1.093.693-.381 1.64-.381 1.153 0 1.846.478.693.479.693.977 0 .283-.195.469-.195.185-.459.185-.518 0-.947-.8-.479-.88-1.24-.88-.616 0-1.085.45-.459.44-.546 1.103-.088.664-.088 2.852v.605z" style="font-size:20px;font-family:Baskerville;-inkscape-font-specification:Baskerville;text-align:center;text-anchor:middle;stroke:#000;stroke-width:.105263;stroke-dasharray:none" transform="translate(-2.707)"/><path d="M351.961 7.797q.332-.87 1.074-1.455.752-.586 1.465-.586.645 0 1.016.4t.371.82q0 .284-.195.489-.186.205-.46.205-.488 0-.741-.723-.176-.488-.528-.488-.42 0-1.006.576-.586.567-.752 1.182-.166.615-.166 1.69v1.425q0 1.28.03 1.611.039.332.283.508.244.176.869.176h.273v.45h-4.248v-.45h.206q.585 0 .83-.156.253-.166.302-.46.05-.292.05-1.679V9.076q0-1.289-.04-1.611-.03-.332-.273-.508-.245-.185-.87-.185h-.205v-.44q.918-.107 2.403-.576.283.771.312 2.04zM356.287 10.063q0-1.836 1.23-3.067 1.231-1.24 3.028-1.24 1.807 0 3.037 1.24t1.23 3.067q0 2.021-1.25 3.183-1.25 1.152-3.017 1.152t-3.017-1.171q-1.24-1.182-1.24-3.164zm1.622.048q0 2.13.693 2.989.693.85 1.943.85 1.28 0 1.953-.85.684-.86.684-2.989 0-2.109-.674-3.007-.674-.899-1.963-.899-1.279 0-1.963.899-.673.888-.673 3.007zM368.348 5.756h.098q.283.654.283 1.68.654-.84 1.406-1.26.762-.42 1.631-.42.986 0 1.602.45.615.448.859 1.347.742-.899 1.523-1.348.782-.45 1.592-.45.928 0 1.572.43.645.43.782.977.136.547.136 1.768v2.402q0 1.397.05 1.7.058.302.312.449.263.146.966.146v.45h-3.994v-.45q.635 0 .889-.137.264-.146.322-.43.059-.292.059-1.728V8.666q0-.81-.098-1.22-.088-.41-.478-.704-.39-.293-1.016-.293-.635 0-1.28.43-.634.43-1.278 1.299v3.154q0 1.28.029 1.611.039.323.273.508.244.176.86.176v.45h-3.868v-.45q.655 0 .909-.137.263-.136.322-.42.068-.283.068-1.738V9.115q0-1.054-.088-1.523-.078-.479-.498-.81-.42-.343-1.045-.343-.605 0-1.24.391-.625.39-1.279 1.172v3.33q0 1.318.04 1.64.038.323.292.489.254.166.908.166v.45h-3.916v-.45q.645 0 .899-.137.263-.146.322-.43.059-.283.059-1.728V8.94q0-1.367-.05-1.67-.038-.312-.302-.468-.254-.156-.928-.156v-.45q1.387-.136 2.295-.44z" style="font-size:20px;font-family:Baskerville;-inkscape-font-specification:Baskerville;text-align:center;text-anchor:middle;stroke:#000;stroke-width:.105263;stroke-dasharray:none" transform="translate(-2.707)"/></g><g style="stroke-width:1.05263" transform="matrix(.01904 0 0 -.01904 386.023 14.027)"><use xlink:href="#d" style="stroke-width:1.05263"/><use xlink:href="#e" x="511" y="-213" style="stroke-width:1.05263" transform="scale(.707)"/></g><use xlink:href="#b" x="4450" style="stroke-width:1.05263" transform="matrix(.01904 0 0 -.01904 193.664 14.267)"/></g><g style="display:inline;stroke-width:1.05263" transform="matrix(.95 0 0 .95 32.74 72.676)"><path d="M260.175 38.249h-2.413v4.834q0 1.113.098 1.504.098.38.41.615.323.234.684.234.703 0 1.22-.8l.313.185q-.303.645-.898.977-.586.322-1.192.322-.703 0-1.24-.41-.527-.42-.664-.977-.127-.556-.127-1.953V38.25h-1.162v-.45q.8-.019 1.435-.673.635-.655.811-1.836h.313v2.51h2.412zM261.259 41.784q0-1.836 1.23-3.066 1.23-1.24 3.027-1.24 1.807 0 3.037 1.24 1.231 1.24 1.231 3.066 0 2.021-1.25 3.184-1.25 1.152-3.018 1.152-1.767 0-3.017-1.172-1.24-1.182-1.24-3.164zm1.62.049q0 2.129.694 2.988.693.85 1.943.85 1.28 0 1.954-.85.683-.86.683-2.988 0-2.11-.674-3.008-.674-.898-1.963-.898-1.279 0-1.963.898-.673.889-.673 3.008z" style="font-size:20px;font-family:Baskerville;-inkscape-font-specification:Baskerville;stroke:#000;stroke-width:.105263;stroke-dasharray:none"/><g style="stroke-width:1.05263" transform="translate(129.68 30.038)"><g style="stroke-width:1.05263" transform="matrix(.01904 0 0 -.01904 148.891 15.88)"><use xlink:href="#d" style="stroke-width:1.05263"/><use xlink:href="#e" x="511" y="-213" style="stroke-width:1.05263" transform="scale(.707)"/></g><use xlink:href="#f" x="7875" style="stroke-width:1.05263" transform="matrix(.01904 0 0 -.01904 18.715 15.88)"/><use xlink:href="#g" x="8876" style="stroke-width:1.05263" transform="matrix(.01904 0 0 -.01904 18.715 15.88)"/><use xlink:href="#d" x="9709" style="stroke-width:1.05263" transform="matrix(.01904 0 0 -.01904 18.715 15.88)"/></g><path d="M356.961 44.452h.362q-.088 1.67-1.64 1.67-.665 0-1.056-.351-.38-.352-.498-1.045-.976.693-1.787 1.045-.8.351-1.435.351-.81 0-1.397-.468-.586-.47-.586-1.24 0-1.007.977-1.758.986-.752 2.715-1.465l1.513-.616v-.39q0-.83-.107-1.201-.107-.371-.557-.664-.449-.293-1.181-.293-1.465 0-1.631.976-.156.996-.82.996-.596 0-.596-.566 0-.557.79-1.192.792-.644 2.462-.644 1.24 0 1.924.39.683.391.898.89.225.497.225 1.523v3.232q0 1.133.117 1.455.117.322.508.322.644 0 .8-.957zm-2.832-3.418-1.064.43q-2.52 1.026-2.52 2.578 0 .615.323.996.322.371.84.371.458 0 1.064-.302.605-.303 1.357-.908zM360.282 37.597h.263q.225.605.254 1.65.703-.83 1.475-1.24.771-.41 1.611-.41.957 0 1.563.4.615.4.79.987.177.576.177 1.69v2.5q0 1.386.048 1.689.05.302.303.459.264.146.957.146v.45h-4.092v-.45h.186q.703 0 .918-.205.215-.205.244-.479.03-.273.03-1.61v-2.579q0-.947-.098-1.348-.088-.41-.498-.722-.4-.313-1.026-.313-.713 0-1.367.43-.645.42-1.22 1.27v3.261q0 1.387.048 1.69.059.302.313.459.263.146.966.146v.45h-4.043v-.45q.674 0 .938-.137.264-.136.322-.41.069-.283.069-1.748V40.79q0-1.396-.06-1.69-.048-.302-.312-.448-.253-.157-.957-.157v-.449q1.075-.117 2.198-.45zM375.663 38.769v-3.125q0-1.28-.04-1.612-.029-.332-.273-.507-.244-.176-.87-.176h-.204v-.45q1.181-.029 2.588-.41h.205v10.752q0 1.397.049 1.7.048.302.302.449.264.146.967.146v.45q-1.416.029-2.52.254-.117-.46-.117-1.446-.722.723-1.494 1.084-.761.362-1.582.362-1.552 0-2.685-1.25-1.123-1.25-1.123-3.028 0-1.953 1.152-3.154 1.152-1.211 2.744-1.211.81 0 1.533.293.723.293 1.368.879zm0 .566q-.645-.556-1.3-.83-.644-.283-1.298-.283-1.104 0-1.846.85-.732.85-.732 2.773 0 1.953.752 2.88.761.929 1.875.929.742 0 1.377-.352.634-.352 1.172-1.055z" style="font-size:20px;font-family:Baskerville;-inkscape-font-specification:Baskerville;stroke:#000;stroke-width:.105263;stroke-dasharray:none"/><use xlink:href="#c" x="5201" style="stroke-width:1.05263" transform="matrix(.01904 0 0 -.01904 287.157 46.165)"/></g><g style="display:inline;stroke-width:1.05263"><g style="stroke-width:1.05263"><g style="font-size:20px;font-family:Baskerville;-inkscape-font-specification:Baskerville;text-align:center;text-anchor:middle;stroke:#000;stroke-width:.105263;stroke-dasharray:none"><path d="M304.37 78.016V75.39h.38q.664 2.276 2.373 2.276.743 0 1.104-.45.371-.449.371-.986 0-.625-.39-1.025-.401-.4-1.553-.967-1.211-.596-1.739-1.172-.527-.567-.527-1.397 0-.79.566-1.503.567-.723 1.592-.723 1.045 0 1.729.85.146-.147.38-.713h.362v2.47h-.361q-.196-.888-.762-1.523-.557-.645-1.319-.645-.585 0-.947.362-.361.361-.361.84 0 .527.4.908.39.39 1.494.888 1.66.752 2.032 1.465.37.723.37 1.387 0 1.045-.693 1.7-.683.653-1.728.653-1.104 0-1.963-.908-.264.293-.43.84z" style="color:#000;-inkscape-font-specification:Baskerville;fill:#000;stroke:#000;stroke-width:.105263;stroke-dasharray:none" transform="matrix(.95 0 0 .95 17.964 72.676)"/><path d="M304.37 78.016V75.39h.38c.443 1.517 1.234 2.276 2.373 2.276.495 0 .863-.15 1.104-.45.247-.3.371-.628.371-.986 0-.417-.13-.758-.39-1.025-.268-.267-.785-.59-1.553-.967-.808-.397-1.387-.788-1.739-1.172-.351-.378-.527-.843-.527-1.397 0-.527.189-1.028.566-1.503.378-.482.909-.723 1.592-.723.697 0 1.273.283 1.729.85.097-.098.224-.336.38-.713h.362v2.47h-.361a3.31 3.31 0 0 0-.762-1.523c-.371-.43-.81-.645-1.319-.645-.39 0-.706.12-.947.362-.24.24-.361.52-.361.84 0 .351.133.654.4.908.26.26.759.556 1.494.888 1.107.502 1.784.99 2.032 1.465.247.482.37.944.37 1.387 0 .697-.23 1.263-.693 1.7-.455.435-1.031.653-1.728.653-.736 0-1.39-.302-1.963-.908-.176.196-.319.475-.43.84z" style="color:#000;-inkscape-font-specification:Baskerville;fill:#000;stroke:#000;stroke-width:.105263;stroke-dasharray:none" transform="matrix(.95 0 0 .95 17.964 72.676)"/></g><g style="font-size:20px;font-family:Baskerville;-inkscape-font-specification:Baskerville;text-align:center;text-anchor:middle;stroke:#000;stroke-width:.105263;stroke-dasharray:none"><path d="M315.717 70.213h-2.412v4.834q0 1.114.098 1.504.097.381.41.615.322.235.683.235.704 0 1.221-.8l.313.185q-.303.644-.899.976-.586.322-1.191.322-.703 0-1.24-.41-.528-.42-.664-.976-.127-.557-.127-1.953v-4.532h-1.163v-.449q.801-.02 1.436-.674.635-.654.81-1.836h.313v2.51h2.412z" style="color:#000;-inkscape-font-specification:Baskerville;fill:#000;stroke:#000;stroke-width:.105263;stroke-dasharray:none" transform="matrix(.95 0 0 .95 17.964 72.676)"/><path d="M315.717 70.213h-2.412v4.834c0 .743.033 1.244.098 1.504.065.254.202.46.41.615.215.157.443.235.683.235.47 0 .876-.267 1.221-.8l.313.185c-.202.43-.502.755-.899.976-.39.215-.788.322-1.191.322-.469 0-.882-.136-1.24-.41-.352-.28-.573-.605-.664-.976-.085-.371-.127-1.022-.127-1.953v-4.532h-1.163v-.449c.534-.013 1.013-.238 1.436-.674.423-.436.693-1.048.81-1.836h.313v2.51h2.412z" style="color:#000;-inkscape-font-specification:Baskerville;fill:#000;stroke:#000;stroke-width:.105263;stroke-dasharray:none" transform="matrix(.95 0 0 .95 17.964 72.676)"/></g><g style="font-size:20px;font-family:Baskerville;-inkscape-font-specification:Baskerville;text-align:center;text-anchor:middle;stroke:#000;stroke-width:.105263;stroke-dasharray:none"><path d="M324.867 76.297h.362q-.088 1.67-1.64 1.67-.665 0-1.055-.351-.381-.352-.499-1.045-.976.693-1.787 1.045-.8.351-1.435.351-.81 0-1.397-.469-.586-.468-.586-1.24 0-1.006.977-1.758.986-.752 2.715-1.464l1.513-.616v-.39q0-.83-.107-1.201-.107-.372-.557-.664-.449-.293-1.181-.293-1.465 0-1.631.976-.156.996-.82.996-.596 0-.596-.566 0-.557.79-1.192.792-.644 2.462-.644 1.24 0 1.924.39.683.391.898.89.225.497.225 1.523v3.232q0 1.133.117 1.455.117.322.508.322.644 0 .8-.957zm-2.832-3.418-1.064.43q-2.52 1.025-2.52 2.578 0 .615.323.996.322.371.84.371.459 0 1.064-.302.606-.303 1.357-.909z" style="color:#000;-inkscape-font-specification:Baskerville;fill:#000;stroke:#000;stroke-width:.105263;stroke-dasharray:none" transform="matrix(.95 0 0 .95 17.964 72.676)"/><path d="M324.867 76.297h.362c-.059 1.114-.606 1.67-1.64 1.67-.444 0-.795-.117-1.055-.351-.254-.235-.42-.583-.499-1.045-.65.462-1.246.81-1.787 1.045-.533.234-1.012.351-1.435.351-.54 0-1.006-.156-1.397-.469-.39-.312-.586-.725-.586-1.24 0-.67.326-1.256.977-1.758.658-.5 1.562-.99 2.715-1.464l1.513-.616v-.39c0-.554-.035-.954-.107-1.201-.072-.248-.257-.47-.557-.664-.3-.196-.693-.293-1.181-.293-.977 0-1.52.325-1.631.976-.104.664-.378.996-.82.996-.398 0-.596-.189-.596-.566 0-.371.264-.768.79-1.192.528-.43 1.349-.644 2.462-.644.827 0 1.468.13 1.924.39.455.26.755.557.898.89.15.331.225.839.225 1.523v3.232c0 .755.039 1.24.117 1.455.078.215.247.322.508.322.43 0 .696-.319.8-.957zm-2.832-3.418-1.064.43c-1.68.684-2.52 1.543-2.52 2.578 0 .41.108.742.323.996.215.248.495.371.84.371.306 0 .66-.1 1.064-.302.404-.202.856-.505 1.357-.909z" style="color:#000;-inkscape-font-specification:Baskerville;fill:#000;stroke:#000;stroke-width:.105263;stroke-dasharray:none" transform="matrix(.95 0 0 .95 17.964 72.676)"/></g><g style="font-size:20px;font-family:Baskerville;-inkscape-font-specification:Baskerville;text-align:center;text-anchor:middle;stroke:#000;stroke-width:.105263;stroke-dasharray:none"><path d="m330.424 76.248 1.856-4.443q.4-.976.4-1.084 0-.488-1.084-.508v-.449h2.813v.45q-.655.029-.958.35-.302.313-.751 1.397l-3.565 8.604q-.508 1.23-.898 1.67-.391.449-.86.449-.635 0-.635-.576 0-.664 1.016-1.123.596-.264.791-.45.205-.185.4-.673l.762-1.905-3.008-6.445q-.4-.85-.664-1.074-.263-.225-.898-.225v-.449h3.672v.45q-.967.029-.967.4 0 .146.38.957z" style="color:#000;-inkscape-font-specification:Baskerville;fill:#000;stroke:#000;stroke-width:.105263;stroke-dasharray:none" transform="matrix(.95 0 0 .95 17.964 72.676)"/><path d="m330.424 76.248 1.856-4.443c.267-.65.4-1.012.4-1.084 0-.325-.361-.495-1.084-.508v-.449h2.813v.45c-.437.019-.756.136-.958.35-.201.21-.452.675-.751 1.397l-3.565 8.604c-.338.82-.638 1.377-.898 1.67-.26.3-.547.449-.86.449-.423 0-.635-.192-.635-.576 0-.443.339-.817 1.016-1.123.397-.176.66-.326.791-.45.137-.123.27-.348.4-.673l.762-1.905-3.008-6.445c-.266-.566-.488-.924-.664-1.074-.175-.15-.475-.225-.898-.225v-.449h3.672v.45c-.645.019-.967.152-.967.4 0 .097.127.416.38.957z" style="color:#000;-inkscape-font-specification:Baskerville;fill:#000;stroke:#000;stroke-width:.105263;stroke-dasharray:none" transform="matrix(.95 0 0 .95 17.964 72.676)"/></g><g style="font-size:20px;font-family:Baskerville;-inkscape-font-specification:Baskerville;text-align:center;text-anchor:middle;stroke:#000;stroke-width:.105263;stroke-dasharray:none"><path d="M335.22 78.016V75.39h.38q.664 2.276 2.373 2.276.742 0 1.103-.45.372-.449.372-.986 0-.625-.391-1.025-.4-.4-1.553-.967-1.21-.596-1.738-1.172-.527-.567-.527-1.397 0-.79.566-1.503.566-.723 1.592-.723 1.045 0 1.728.85.147-.147.381-.713h.361v2.47h-.36q-.196-.888-.763-1.523-.556-.645-1.318-.645-.586 0-.947.362-.362.361-.362.84 0 .527.4.908.392.39 1.495.888 1.66.752 2.031 1.465.371.723.371 1.387 0 1.045-.693 1.7-.684.653-1.729.653-1.103 0-1.962-.908-.264.293-.43.84z" style="color:#000;-inkscape-font-specification:Baskerville;fill:#000;stroke:#000;stroke-width:.105263;stroke-dasharray:none" transform="matrix(.95 0 0 .95 17.964 72.676)"/><path d="M335.22 78.016V75.39h.38c.443 1.517 1.234 2.276 2.373 2.276.495 0 .863-.15 1.103-.45.248-.3.372-.628.372-.986 0-.417-.13-.758-.391-1.025-.267-.267-.785-.59-1.553-.967-.807-.397-1.387-.788-1.738-1.172-.352-.378-.527-.843-.527-1.397 0-.527.188-1.028.566-1.503.378-.482.908-.723 1.592-.723.696 0 1.273.283 1.728.85.098-.098.225-.336.381-.713h.361v2.47h-.36a3.31 3.31 0 0 0-.763-1.523c-.37-.43-.81-.645-1.318-.645-.39 0-.706.12-.947.362-.241.24-.362.52-.362.84 0 .351.134.654.4.908.261.26.76.556 1.495.888 1.107.502 1.784.99 2.031 1.465.248.482.371.944.371 1.387 0 .697-.23 1.263-.693 1.7-.456.435-1.032.653-1.729.653-.735 0-1.39-.302-1.962-.908-.176.196-.32.475-.43.84z" style="color:#000;-inkscape-font-specification:Baskerville;fill:#000;stroke:#000;stroke-width:.105263;stroke-dasharray:none" transform="matrix(.95 0 0 .95 17.964 72.676)"/></g></g><g style="stroke-width:1.05263"><g style="font-size:20px;font-family:Baskerville;-inkscape-font-specification:Baskerville;text-align:center;text-anchor:middle;stroke:#000;stroke-width:.105263;stroke-dasharray:none"><path d="M386.557 76.297h.361q-.088 1.67-1.64 1.67-.664 0-1.055-.351-.38-.352-.498-1.045-.977.693-1.787 1.045-.801.351-1.436.351-.81 0-1.396-.469-.586-.468-.586-1.24 0-1.006.976-1.758.987-.752 2.715-1.464l1.514-.616v-.39q0-.83-.108-1.201-.107-.372-.556-.664-.45-.293-1.182-.293-1.465 0-1.63.976-.157.996-.821.996-.596 0-.596-.566 0-.557.791-1.192.791-.644 2.461-.644 1.24 0 1.924.39.684.391.899.89.224.497.224 1.523v3.232q0 1.133.117 1.455.118.322.508.322.645 0 .8-.957zm-2.832-3.418-1.065.43q-2.52 1.025-2.52 2.578 0 .615.323.996.322.371.84.371.459 0 1.064-.302.606-.303 1.358-.909z" style="color:#000;-inkscape-font-specification:Baskerville;fill:#000;stroke:#000;stroke-width:.105263;stroke-dasharray:none" transform="matrix(.95 0 0 .95 -11.604 72.676)"/><path d="M386.557 76.297h.361c-.058 1.114-.605 1.67-1.64 1.67-.443 0-.795-.117-1.055-.351-.254-.235-.42-.583-.498-1.045-.651.462-1.247.81-1.787 1.045-.534.234-1.013.351-1.436.351-.54 0-1.006-.156-1.396-.469-.39-.312-.586-.725-.586-1.24 0-.67.325-1.256.976-1.758.658-.5 1.563-.99 2.715-1.464l1.514-.616v-.39c0-.554-.036-.954-.108-1.201-.071-.248-.257-.47-.556-.664-.3-.196-.694-.293-1.182-.293-.976 0-1.52.325-1.63.976-.105.664-.378.996-.821.996-.397 0-.596-.189-.596-.566 0-.371.264-.768.791-1.192.528-.43 1.348-.644 2.461-.644.827 0 1.468.13 1.924.39.456.26.755.557.899.89.15.331.224.839.224 1.523v3.232c0 .755.04 1.24.117 1.455.078.215.248.322.508.322.43 0 .697-.319.8-.957zm-2.832-3.418-1.065.43c-1.68.684-2.52 1.543-2.52 2.578 0 .41.108.742.323.996.215.248.495.371.84.371.306 0 .66-.1 1.064-.302.404-.202.857-.505 1.358-.909z" style="color:#000;-inkscape-font-specification:Baskerville;fill:#000;stroke:#000;stroke-width:.105263;stroke-dasharray:none" transform="matrix(.95 0 0 .95 -11.604 72.676)"/></g><g style="font-size:20px;font-family:Baskerville;-inkscape-font-specification:Baskerville;text-align:center;text-anchor:middle;stroke:#000;stroke-width:.105263;stroke-dasharray:none"><path d="M392.416 70.213h-2.412v4.834q0 1.114.098 1.504.098.381.41.615.322.235.684.235.703 0 1.22-.8l.313.185q-.303.644-.899.976-.586.322-1.191.322-.703 0-1.24-.41-.528-.42-.664-.976-.127-.557-.127-1.953v-4.532h-1.162v-.449q.8-.02 1.435-.674t.81-1.836h.313v2.51h2.412z" style="color:#000;-inkscape-font-specification:Baskerville;fill:#000;stroke:#000;stroke-width:.105263;stroke-dasharray:none" transform="matrix(.95 0 0 .95 -11.604 72.676)"/><path d="M392.416 70.213h-2.412v4.834c0 .743.033 1.244.098 1.504.065.254.202.46.41.615.215.157.443.235.684.235.468 0 .875-.267 1.22-.8l.313.185c-.202.43-.501.755-.899.976-.39.215-.787.322-1.191.322-.469 0-.882-.136-1.24-.41-.352-.28-.573-.605-.664-.976-.085-.371-.127-1.022-.127-1.953v-4.532h-1.162v-.449c.534-.013 1.012-.238 1.435-.674.423-.436.694-1.048.81-1.836h.313v2.51h2.412z" style="color:#000;-inkscape-font-specification:Baskerville;fill:#000;stroke:#000;stroke-width:.105263;stroke-dasharray:none" transform="matrix(.95 0 0 .95 -11.604 72.676)"/></g></g><g style="stroke-width:1.05263"><path d="M369.412 139.562q-.127-.127-.127-.181 0-.072.055-.29.054-.217.09-.253.036-.09.163-.09t.922-.018h.96l.343-1.447q.054-.2.126-.525.073-.325.127-.47.054-.145.109-.362.054-.217.144-.307t.181-.217q.09-.127.253-.163.163-.036.326-.036.326.018.452.199.127.18.127.343 0 .127-.163.85-.163.724-.362 1.43l-.18.669q0 .036.904.036h.922q.127.126.127.199 0 .398-.235.633h-1.936l-.65 2.623q-.706 2.894-.706 3.11 0 .76.488.76.633 0 1.23-.615t.959-1.519q.036-.109.09-.127.054-.018.271-.036h.073q.271 0 .271.145 0 .054-.054.217-.09.29-.326.687-.235.398-.615.85-.38.453-.922.76-.543.308-1.104.308-.542 0-1.03-.272-.489-.271-.706-.94-.036-.145-.036-.489v-.325l.633-2.533q.633-2.55.651-2.568 0-.036-.922-.036zM376.704 141.768q.716-1.035 1.957-1.035.614 0 1.228.332.613.333.997 1.177.473 1.061.473 2.915 0 1.982-.55 3.031-.255.537-.703.857-.448.32-.78.396-.333.077-.652.09-.333 0-.665-.077-.333-.077-.78-.41-.448-.332-.704-.856-.55-1.049-.55-3.03 0-2.226.73-3.39zm2.878-.153q-.384-.41-.908-.41-.537 0-.921.41-.32.332-.422.92-.102.589-.102 2.456 0 2.02.102 2.66.102.64.46 1.01.358.384.883.384.511 0 .87-.384.37-.383.46-1.074.09-.69.102-2.596 0-1.854-.102-2.442-.103-.589-.422-.934z"/></g></g></g><g style="stroke-width:1.05263" transform="matrix(.01809 0 0 -.01809 175.733 189.697)"><use xlink:href="#g" x="8876" style="stroke-width:1.05263"/><use xlink:href="#d" x="9709" style="stroke-width:1.05263"/></g><path d="M235.002 20.978h183.961" style="opacity:1;fill:#eef4d7;fill-opacity:1;stroke:#000;stroke-width:1.1579;stroke-dasharray:none" transform="matrix(.95 0 0 .95 34.806 144.348)"/></g><circle cx="-139.303" cy="246.246" r=".014" style="fill:#e5f6ff;stroke:#000"/><circle cx="-98.634" cy="204.175" r=".014" style="fill:#e5f6ff;stroke:#000"/><path d="M133.76 83.712c5.971.445 12.393 1.677 16.765 6.133 5.993 6.11 8.326 14.987 8.25 23.347-.054 6.147-1.708 13.086-7.082 16.72-8.061 5.453-18.578 6.106-27.83 3.756-7.88-2.001-15.724-6.884-18.793-14.749-2.229-5.711-1.753-12.256 1.081-17.656 3.74-7.123 8.991-11.904 16.08-15.219 5.449-2.548 13.862-3.716 19.572-1.067 1.18.548 2.367 1.078 3.516 1.688M66.561 99.249c2.968-1.083 6.27-.787 9.171.385 4.798 1.937 8.747 6.597 8.69 11.917-.04 3.72-2.406 7.099-5.245 9.287-3.636 2.803-8.527 3.758-13.155 3.096-2.951-.422-5.664-1.865-7.77-3.92-2.71-2.641-3.84-6.692-3.001-10.39.923-4.07 3.663-7.501 6.916-9.992 3.253-2.49 7.459-4.219 11.603-3.318" style="fill:#fff9f3;stroke:#000;stroke-width:1.3;fill-opacity:1"/><path d="M789.232 3.418c-.736.57-2.932-3.572-3.038-5.387-.384-6.604 3.756-12.544 8.832-16.484 9.907-7.69 22.983-9.723 34.886-10.254 11.736-.524 24.627.906 35.212 6.063 5.008 2.44 10.129 6.19 11.667 11.68.636 2.27 1.542 8.21-1.833 11.3" style="fill:#e5f6ff;stroke:#000;stroke-width:1.3"/><path d="M735.27 60.073c-3.511 1.955-7.996-.756-10.952-2.845-6.111-4.32-10.17-11.444-10.314-18.98-.163-8.51 4.022-16.674 9.548-22.944 7.882-8.941 18.445-14.186 29.785-16.746 10.676-2.41 23.521-1.724 33.825 2.481 1.121.458 2.06 1.276 2.873 2.168" style="fill:#e5f6ff;stroke:#000;stroke-width:1.3"/><path d="M720.06 147.314c-2.314 1.936-6.22 1.288-9.179 1.063-11.338-.864-20.716-9.015-26.72-18.256-6.717-10.34-7.924-23.53-4.573-35.317 3.236-11.384 10.859-21.188 20.834-27.431 9.173-5.74 19.926-10.599 30.94-9.232 1.3.162 3.122.544 3.646 1.934" style="fill:#e5f6ff;stroke:#000;stroke-width:1.3"/><path d="M777.147 208.567c.084 4.897-4.57 8.54-8.473 10.713-9.895 5.507-22.041 5.213-32.46 1.883-13.188-4.215-25.536-13.854-32.14-26.328-6.726-12.708-5.061-29.413 4.582-40.084 2.98-3.297 7.167-9.862 11.248-7.526l.156.09" style="fill:#e5f6ff;stroke:#000;stroke-width:1.3"/><path d="M880.002 199.368c4.307 1.865 6.147 7.32 6.852 11.69 1.86 11.537-5.284 22.973-15.236 28.63-13.207 7.508-29.128 8.625-43.87 6.569-15.426-2.152-30.73-7.322-42.687-17.471-5.033-4.272-9.867-10.737-9.819-17.67.006-.906.404-1.791 1.052-2.44" style="fill:#e5f6ff;stroke:#000;stroke-width:1.3"/><path d="M939.01 134.533c7.878 2.64 13.058 10.021 15.06 17.834 2.677 10.447 1.273 21.73-2.861 31.575-4.645 11.064-13.69 20.034-24.716 24.91-9.635 4.261-20.953 5.663-31.041 2.698-6.094-1.79-12.517-4.722-15.862-10.49-.3-.517-.45-1.57.412-1.692M873.76-.422c7.372-3.599 16.222-5.009 23.638-5.124 13.476-.208 25.147 2.981 36.364 10.164 14.41 9.228 21.467 24.185 20.193 38.688-.526 5.997-3.321 14.707-10.22 16.925-1.775.57-3.756 1.286-5.382.28M629.266 83.712c5.972.445 12.393 1.677 16.765 6.133 5.993 6.11 8.327 14.987 8.251 23.347-.055 6.147-1.709 13.086-7.082 16.72-8.062 5.453-18.578 6.106-27.831 3.756-7.879-2.001-15.723-6.884-18.792-14.749-2.23-5.711-1.754-12.256 1.08-17.656 3.74-7.123 8.992-11.904 16.08-15.219 5.45-2.548 13.863-3.716 19.572-1.067 1.18.548 2.368 1.078 3.516 1.688M562.068 99.249c2.967-1.083 6.27-.787 9.17.385 4.798 1.937 8.747 6.597 8.69 11.917-.039 3.72-2.405 7.099-5.244 9.287-3.636 2.803-8.528 3.758-13.155 3.096-2.952-.422-5.665-1.865-7.77-3.92-2.71-2.641-3.84-6.692-3.002-10.39.924-4.07 3.664-7.501 6.916-9.992 3.254-2.49 7.46-4.219 11.603-3.318" style="fill:#e5f6ff;stroke:#000;stroke-width:1.3"/><path d="M938.376 60.615c3.785-2.066 10.134-.8 14.494 1.298 9.729 4.682 17.588 13.253 21.83 22.067 4.35 9.04 13.823 43.875-21.391 52.12-3.762.88-9.606 1.77-13.95-.3" style="fill:#e5f6ff;stroke:#000;stroke-width:1.29999"/><path d="M436.325-201.802c-3.179-1.11-6.31-1.008-9.713-.12-2.238.583-4.657 1.701-7.382 3.518-4.978 3.32-9.427 8.022-12.78 14.031-2.264 4.056-2.379 5.17-3.86 9.796-.343 1.775-.805 3.516-1.03 5.326-.564 4.544-.512 10.08.694 14.45 1.05 3.805 1.9 4.873 3.683 8.158.923 1.302 1.776 2.703 2.77 3.905 3.4 4.113 7.366 6.692 11.855 7.788 4.54 1.108 7.538 1.228 11.41.808 1.828-.198 3.259-.22 5.019-.84 5.91-2.085 11.747-6.515 15.666-13.027.808-1.342 1.385-3.103 1.96-4.615.521-1.371 1.386-4.744 1.663-6.213 1.165-6.164.71-13.087-.787-18.968-.414-1.63-1.808-5.178-2.571-6.648-2.734-5.269-4.186-7.583-7.99-11.433-2.1-2.125-3.43-2.788-4.663-3.74-1.491-1.15-7.467-3.245-10.568-2.095" style="display:inline;fill:#fff9f3;fill-opacity:1;stroke:#000;stroke-width:1.06667;stroke-linecap:square;stroke-linejoin:miter;stroke-miterlimit:100;stroke-dasharray:none;stroke-opacity:1"/><path stroke-width=".019" d="M249.107 85.19v.12q0 .122-.114.364h-.305q-.342 0-.361-.04-.115-.121-.857-1.978-8.283-19.904-8.283-58.539 0-38.635 8.283-58.498.476-1.211.838-1.978.038-.04.361-.04h.324q.114.241.114.363 0 .161-.343 1.13-.342.969-.97 2.786-.629 1.816-1.333 4.32-.705 2.502-1.505 6.338-.8 3.835-1.466 8.235-2.19 15.1-2.19 37.344 0 19.903 1.771 34.316 1.771 14.412 5.77 24.99.266.767.266.888zM405.002 85.19v.12q0 .122.114.364h.305q.343 0 .362-.04.114-.121.856-1.978 8.283-19.904 8.283-58.539 0-38.635-8.283-58.498-.476-1.211-.837-1.978-.038-.04-.362-.04h-.324q-.114.241-.114.363 0 .161.343 1.13.342.969.97 2.786.63 1.816 1.334 4.32.704 2.502 1.504 6.338.8 3.835 1.466 8.235 2.19 15.1 2.19 37.344 0 19.903-1.771 34.316-1.771 14.412-5.77 24.99-.266.767-.266.888z" style="display:inline;fill:#000;stroke:#000" transform="translate(-62.196 -265.356)"/><g style="display:inline" transform="translate(-101.228 -265.356)"><text x="307.658" y="-17.784" style="font-size:20px;stroke-width:0;stroke-dasharray:none"><tspan style="font-style:normal;font-variant:normal;font-weight:400;font-stretch:normal;font-size:20px;font-family:Baskerville;-inkscape-font-specification:Baskerville;stroke-width:0;stroke-dasharray:none">change in</tspan></text><use xlink:href="#b" x="4450" transform="matrix(.01904 0 0 -.01904 307.658 -17.784)"/><use xlink:href="#c" x="5201" transform="matrix(.01904 0 0 -.01904 307.658 -17.784)"/></g><g style="display:inline" transform="translate(-64.48 -265.356)"><text xml:space="preserve" x="264.109" y="14.076" style="font-style:normal;font-variant:normal;font-weight:400;font-stretch:normal;font-size:20px;font-family:Baskerville;-inkscape-font-specification:Baskerville;text-align:center;text-anchor:middle;fill:#000;fill-opacity:1;stroke:#000;stroke-width:0;stroke-dasharray:none"><tspan x="264.109" y="14.076">as</tspan></text><path d="M310.272 6.781q.83-.937 1.68-.937.468 0 .722.254.264.254.264.556 0 .645-.586.645-.322 0-.557-.4-.215-.372-.449-.372-.371 0-.82.508.508.801.508 1.7 0 1.171-.84 2.07-.84.908-2.832.976-2.07.069-2.07.84 0 .361.468.508.46.156 1.934.234 1.611.078 2.48.303.87.215 1.387.879t.517 1.582q0 1.29-1.054 2.08-1.055.791-3.037.791-1.817 0-2.91-.703-1.094-.703-1.094-1.777 0-.596.312-.977.313-.38.889-.38.156 0 .283.048-.605.664-.605 1.406 0 .86.8 1.416.811.567 2.413.567 1.425 0 2.216-.576.801-.567.801-1.456 0-.976-.713-1.376-.713-.391-2.539-.47-2.1-.087-2.724-.517-.625-.42-.625-1.084 0-1.28 1.787-1.611-.928-.547-1.397-1.25t-.469-1.572q0-1.221.957-2.07.967-.86 2.286-.86 1.63 0 2.617 1.025zm-4.395 2.13q0 1.259.518 1.845.517.586 1.318.586.742 0 1.27-.576.537-.586.537-2.022 0-1.445-.567-1.992-.566-.547-1.279-.547-.898 0-1.347.674-.45.674-.45 2.031zM313.534 10.063q0-1.836 1.23-3.067 1.23-1.24 3.027-1.24 1.807 0 3.037 1.24t1.23 3.067q0 2.021-1.25 3.183-1.25 1.152-3.017 1.152t-3.017-1.171q-1.24-1.182-1.24-3.164zm1.62.048q0 2.13.694 2.989.693.85 1.943.85 1.28 0 1.953-.85.684-.86.684-2.989 0-2.109-.674-3.007-.674-.899-1.963-.899-1.279 0-1.963.899-.673.888-.673 3.007zM330.78 8.783h-5.577q-.039.576-.039.86 0 2.109.655 3.173.664 1.055 1.972 1.055 1.778 0 2.52-1.592h.469q-.313.996-1.24 1.563-.928.556-2.022.556-1.016 0-1.924-.507-.898-.518-1.475-1.455-.576-.938-.576-2.276 0-1.894 1.114-3.144 1.113-1.26 2.783-1.26 1.572 0 2.431.957.86.957.909 2.07zm-1.71-.39q.03-.225.03-.4 0-.86-.508-1.329-.498-.478-1.23-.478-1.778 0-2.12 2.207zM332.352 14.33v-2.627h.38q.665 2.276 2.374 2.276.742 0 1.103-.45.371-.449.371-.986 0-.625-.39-1.025-.4-.4-1.553-.967-1.21-.596-1.738-1.172-.528-.566-.528-1.397 0-.79.567-1.503.566-.723 1.592-.723 1.045 0 1.728.85.147-.147.381-.713H337v2.47h-.361q-.195-.888-.762-1.523-.556-.645-1.318-.645-.586 0-.947.362-.362.361-.362.84 0 .527.4.908.391.39 1.495.888 1.66.752 2.031 1.465.371.723.371 1.387 0 1.045-.693 1.7-.684.653-1.729.653-1.103 0-1.963-.908-.263.293-.43.84z" style="font-size:20px;font-family:Baskerville;-inkscape-font-specification:Baskerville;text-align:center;text-anchor:middle;stroke:#000;stroke-width:.1;stroke-dasharray:none" transform="translate(-3.721)"/><path d="M348.075 6.078v.45h-1.67v4.804q0 1.28.029 1.611.039.332.283.508.244.176.87.176h.42v.45h-4.327v-.45q.674 0 .928-.137.263-.136.322-.41.068-.283.068-1.748V6.527h-1.494v-.449h1.494v-.722q0-1.211.098-1.875.098-.665.547-1.368.459-.713 1.143-1.093.693-.381 1.64-.381 1.153 0 1.846.478.693.479.693.977 0 .283-.195.469-.195.185-.459.185-.518 0-.947-.8-.479-.88-1.24-.88-.616 0-1.085.45-.459.44-.546 1.103-.088.664-.088 2.852v.605z" style="font-size:20px;font-family:Baskerville;-inkscape-font-specification:Baskerville;text-align:center;text-anchor:middle;stroke:#000;stroke-width:.1;stroke-dasharray:none" transform="translate(-2.707)"/><path d="M351.961 7.797q.332-.87 1.074-1.455.752-.586 1.465-.586.645 0 1.016.4t.371.82q0 .284-.195.489-.186.205-.46.205-.488 0-.741-.723-.176-.488-.528-.488-.42 0-1.006.576-.586.567-.752 1.182-.166.615-.166 1.69v1.425q0 1.28.03 1.611.039.332.283.508.244.176.869.176h.273v.45h-4.248v-.45h.206q.585 0 .83-.156.253-.166.302-.46.05-.292.05-1.679V9.076q0-1.289-.04-1.611-.03-.332-.273-.508-.245-.185-.87-.185h-.205v-.44q.918-.107 2.403-.576.283.771.312 2.04zM356.287 10.063q0-1.836 1.23-3.067 1.231-1.24 3.028-1.24 1.807 0 3.037 1.24t1.23 3.067q0 2.021-1.25 3.183-1.25 1.152-3.017 1.152t-3.017-1.171q-1.24-1.182-1.24-3.164zm1.622.048q0 2.13.693 2.989.693.85 1.943.85 1.28 0 1.953-.85.684-.86.684-2.989 0-2.109-.674-3.007-.674-.899-1.963-.899-1.279 0-1.963.899-.673.888-.673 3.007zM368.348 5.756h.098q.283.654.283 1.68.654-.84 1.406-1.26.762-.42 1.631-.42.986 0 1.602.45.615.448.859 1.347.742-.899 1.523-1.348.782-.45 1.592-.45.928 0 1.572.43.645.43.782.977.136.547.136 1.768v2.402q0 1.397.05 1.7.058.302.312.449.263.146.966.146v.45h-3.994v-.45q.635 0 .889-.137.264-.146.322-.43.059-.292.059-1.728V8.666q0-.81-.098-1.22-.088-.41-.478-.704-.39-.293-1.016-.293-.635 0-1.28.43-.634.43-1.278 1.299v3.154q0 1.28.029 1.611.039.323.273.508.244.176.86.176v.45h-3.868v-.45q.655 0 .909-.137.263-.136.322-.42.068-.283.068-1.738V9.115q0-1.054-.088-1.523-.078-.479-.498-.81-.42-.343-1.045-.343-.605 0-1.24.391-.625.39-1.279 1.172v3.33q0 1.318.04 1.64.038.323.292.489.254.166.908.166v.45h-3.916v-.45q.645 0 .899-.137.263-.146.322-.43.059-.283.059-1.728V8.94q0-1.367-.05-1.67-.038-.312-.302-.468-.254-.156-.928-.156v-.45q1.387-.136 2.295-.44z" style="font-size:20px;font-family:Baskerville;-inkscape-font-specification:Baskerville;text-align:center;text-anchor:middle;stroke:#000;stroke-width:.1;stroke-dasharray:none" transform="translate(-2.707)"/><g transform="matrix(.01904 0 0 -.01904 386.023 14.027)"><use xlink:href="#d"/><use xlink:href="#e" x="511" y="-213" transform="scale(.707)"/></g><use xlink:href="#b" x="4450" transform="matrix(.01904 0 0 -.01904 193.664 14.267)"/></g><g style="display:inline" transform="translate(-64.37 -265.356)"><path d="M260.175 38.249h-2.413v4.834q0 1.113.098 1.504.098.38.41.615.323.234.684.234.703 0 1.22-.8l.313.185q-.303.645-.898.977-.586.322-1.192.322-.703 0-1.24-.41-.527-.42-.664-.977-.127-.556-.127-1.953V38.25h-1.162v-.45q.8-.019 1.435-.673.635-.655.811-1.836h.313v2.51h2.412zM261.259 41.784q0-1.836 1.23-3.066 1.23-1.24 3.027-1.24 1.807 0 3.037 1.24 1.231 1.24 1.231 3.066 0 2.021-1.25 3.184-1.25 1.152-3.018 1.152-1.767 0-3.017-1.172-1.24-1.182-1.24-3.164zm1.62.049q0 2.129.694 2.988.693.85 1.943.85 1.28 0 1.954-.85.683-.86.683-2.988 0-2.11-.674-3.008-.674-.898-1.963-.898-1.279 0-1.963.898-.673.889-.673 3.008z" style="font-size:20px;font-family:Baskerville;-inkscape-font-specification:Baskerville;stroke:#000;stroke-width:.1;stroke-dasharray:none"/><g transform="translate(129.68 30.038)"><g transform="matrix(.01904 0 0 -.01904 148.891 15.88)"><use xlink:href="#d"/><use xlink:href="#e" x="511" y="-213" transform="scale(.707)"/></g><use xlink:href="#f" x="7875" transform="matrix(.01904 0 0 -.01904 18.715 15.88)"/><use xlink:href="#g" x="8876" transform="matrix(.01904 0 0 -.01904 18.715 15.88)"/><use xlink:href="#d" x="9709" transform="matrix(.01904 0 0 -.01904 18.715 15.88)"/></g><path d="M356.961 44.452h.362q-.088 1.67-1.64 1.67-.665 0-1.056-.351-.38-.352-.498-1.045-.976.693-1.787 1.045-.8.351-1.435.351-.81 0-1.397-.468-.586-.47-.586-1.24 0-1.007.977-1.758.986-.752 2.715-1.465l1.513-.616v-.39q0-.83-.107-1.201-.107-.371-.557-.664-.449-.293-1.181-.293-1.465 0-1.631.976-.156.996-.82.996-.596 0-.596-.566 0-.557.79-1.192.792-.644 2.462-.644 1.24 0 1.924.39.683.391.898.89.225.497.225 1.523v3.232q0 1.133.117 1.455.117.322.508.322.644 0 .8-.957zm-2.832-3.418-1.064.43q-2.52 1.026-2.52 2.578 0 .615.323.996.322.371.84.371.458 0 1.064-.302.605-.303 1.357-.908zM360.282 37.597h.263q.225.605.254 1.65.703-.83 1.475-1.24.771-.41 1.611-.41.957 0 1.563.4.615.4.79.987.177.576.177 1.69v2.5q0 1.386.048 1.689.05.302.303.459.264.146.957.146v.45h-4.092v-.45h.186q.703 0 .918-.205.215-.205.244-.479.03-.273.03-1.61v-2.579q0-.947-.098-1.348-.088-.41-.498-.722-.4-.313-1.026-.313-.713 0-1.367.43-.645.42-1.22 1.27v3.261q0 1.387.048 1.69.059.302.313.459.263.146.966.146v.45h-4.043v-.45q.674 0 .938-.137.264-.136.322-.41.069-.283.069-1.748V40.79q0-1.396-.06-1.69-.048-.302-.312-.448-.253-.157-.957-.157v-.449q1.075-.117 2.198-.45zM375.663 38.769v-3.125q0-1.28-.04-1.612-.029-.332-.273-.507-.244-.176-.87-.176h-.204v-.45q1.181-.029 2.588-.41h.205v10.752q0 1.397.049 1.7.048.302.302.449.264.146.967.146v.45q-1.416.029-2.52.254-.117-.46-.117-1.446-.722.723-1.494 1.084-.761.362-1.582.362-1.552 0-2.685-1.25-1.123-1.25-1.123-3.028 0-1.953 1.152-3.154 1.152-1.211 2.744-1.211.81 0 1.533.293.723.293 1.368.879zm0 .566q-.645-.556-1.3-.83-.644-.283-1.298-.283-1.104 0-1.846.85-.732.85-.732 2.773 0 1.953.752 2.88.761.929 1.875.929.742 0 1.377-.352.634-.352 1.172-1.055z" style="font-size:20px;font-family:Baskerville;-inkscape-font-specification:Baskerville;stroke:#000;stroke-width:.1;stroke-dasharray:none"/><use xlink:href="#c" x="5201" transform="matrix(.01904 0 0 -.01904 287.157 46.165)"/></g><g style="display:inline"><g style="font-size:20px;font-family:Baskerville;-inkscape-font-specification:Baskerville;text-align:center;text-anchor:middle;stroke:#000;stroke-width:.1;stroke-dasharray:none"><path d="M304.37 78.016V75.39h.38q.664 2.276 2.373 2.276.743 0 1.104-.45.371-.449.371-.986 0-.625-.39-1.025-.401-.4-1.553-.967-1.211-.596-1.739-1.172-.527-.567-.527-1.397 0-.79.566-1.503.567-.723 1.592-.723 1.045 0 1.729.85.146-.147.38-.713h.362v2.47h-.361q-.196-.888-.762-1.523-.557-.645-1.319-.645-.585 0-.947.362-.361.361-.361.84 0 .527.4.908.39.39 1.494.888 1.66.752 2.032 1.465.37.723.37 1.387 0 1.045-.693 1.7-.683.653-1.728.653-1.104 0-1.963-.908-.264.293-.43.84z" style="color:#000;-inkscape-font-specification:Baskerville;fill:#000;stroke:#000;stroke-width:.1;stroke-dasharray:none" transform="translate(-79.924 -265.356)"/><path d="M304.37 78.016V75.39h.38c.443 1.517 1.234 2.276 2.373 2.276.495 0 .863-.15 1.104-.45.247-.3.371-.628.371-.986 0-.417-.13-.758-.39-1.025-.268-.267-.785-.59-1.553-.967-.808-.397-1.387-.788-1.739-1.172-.351-.378-.527-.843-.527-1.397 0-.527.189-1.028.566-1.503.378-.482.909-.723 1.592-.723.697 0 1.273.283 1.729.85.097-.098.224-.336.38-.713h.362v2.47h-.361a3.31 3.31 0 0 0-.762-1.523c-.371-.43-.81-.645-1.319-.645-.39 0-.706.12-.947.362-.24.24-.361.52-.361.84 0 .351.133.654.4.908.26.26.759.556 1.494.888 1.107.502 1.784.99 2.032 1.465.247.482.37.944.37 1.387 0 .697-.23 1.263-.693 1.7-.455.435-1.031.653-1.728.653-.736 0-1.39-.302-1.963-.908-.176.196-.319.475-.43.84z" style="color:#000;-inkscape-font-specification:Baskerville;fill:#000;stroke:#000;stroke-width:.1;stroke-dasharray:none" transform="translate(-79.924 -265.356)"/></g><g style="font-size:20px;font-family:Baskerville;-inkscape-font-specification:Baskerville;text-align:center;text-anchor:middle;stroke:#000;stroke-width:.1;stroke-dasharray:none"><path d="M315.717 70.213h-2.412v4.834q0 1.114.098 1.504.097.381.41.615.322.235.683.235.704 0 1.221-.8l.313.185q-.303.644-.899.976-.586.322-1.191.322-.703 0-1.24-.41-.528-.42-.664-.976-.127-.557-.127-1.953v-4.532h-1.163v-.449q.801-.02 1.436-.674.635-.654.81-1.836h.313v2.51h2.412z" style="color:#000;-inkscape-font-specification:Baskerville;fill:#000;stroke:#000;stroke-width:.1;stroke-dasharray:none" transform="translate(-79.924 -265.356)"/><path d="M315.717 70.213h-2.412v4.834c0 .743.033 1.244.098 1.504.065.254.202.46.41.615.215.157.443.235.683.235.47 0 .876-.267 1.221-.8l.313.185c-.202.43-.502.755-.899.976-.39.215-.788.322-1.191.322-.469 0-.882-.136-1.24-.41-.352-.28-.573-.605-.664-.976-.085-.371-.127-1.022-.127-1.953v-4.532h-1.163v-.449c.534-.013 1.013-.238 1.436-.674.423-.436.693-1.048.81-1.836h.313v2.51h2.412z" style="color:#000;-inkscape-font-specification:Baskerville;fill:#000;stroke:#000;stroke-width:.1;stroke-dasharray:none" transform="translate(-79.924 -265.356)"/></g><g style="font-size:20px;font-family:Baskerville;-inkscape-font-specification:Baskerville;text-align:center;text-anchor:middle;stroke:#000;stroke-width:.1;stroke-dasharray:none"><path d="M324.867 76.297h.362q-.088 1.67-1.64 1.67-.665 0-1.055-.351-.381-.352-.499-1.045-.976.693-1.787 1.045-.8.351-1.435.351-.81 0-1.397-.469-.586-.468-.586-1.24 0-1.006.977-1.758.986-.752 2.715-1.464l1.513-.616v-.39q0-.83-.107-1.201-.107-.372-.557-.664-.449-.293-1.181-.293-1.465 0-1.631.976-.156.996-.82.996-.596 0-.596-.566 0-.557.79-1.192.792-.644 2.462-.644 1.24 0 1.924.39.683.391.898.89.225.497.225 1.523v3.232q0 1.133.117 1.455.117.322.508.322.644 0 .8-.957zm-2.832-3.418-1.064.43q-2.52 1.025-2.52 2.578 0 .615.323.996.322.371.84.371.459 0 1.064-.302.606-.303 1.357-.909z" style="color:#000;-inkscape-font-specification:Baskerville;fill:#000;stroke:#000;stroke-width:.1;stroke-dasharray:none" transform="translate(-79.924 -265.356)"/><path d="M324.867 76.297h.362c-.059 1.114-.606 1.67-1.64 1.67-.444 0-.795-.117-1.055-.351-.254-.235-.42-.583-.499-1.045-.65.462-1.246.81-1.787 1.045-.533.234-1.012.351-1.435.351-.54 0-1.006-.156-1.397-.469-.39-.312-.586-.725-.586-1.24 0-.67.326-1.256.977-1.758.658-.5 1.562-.99 2.715-1.464l1.513-.616v-.39c0-.554-.035-.954-.107-1.201-.072-.248-.257-.47-.557-.664-.3-.196-.693-.293-1.181-.293-.977 0-1.52.325-1.631.976-.104.664-.378.996-.82.996-.398 0-.596-.189-.596-.566 0-.371.264-.768.79-1.192.528-.43 1.349-.644 2.462-.644.827 0 1.468.13 1.924.39.455.26.755.557.898.89.15.331.225.839.225 1.523v3.232c0 .755.039 1.24.117 1.455.078.215.247.322.508.322.43 0 .696-.319.8-.957zm-2.832-3.418-1.064.43c-1.68.684-2.52 1.543-2.52 2.578 0 .41.108.742.323.996.215.248.495.371.84.371.306 0 .66-.1 1.064-.302.404-.202.856-.505 1.357-.909z" style="color:#000;-inkscape-font-specification:Baskerville;fill:#000;stroke:#000;stroke-width:.1;stroke-dasharray:none" transform="translate(-79.924 -265.356)"/></g><g style="font-size:20px;font-family:Baskerville;-inkscape-font-specification:Baskerville;text-align:center;text-anchor:middle;stroke:#000;stroke-width:.1;stroke-dasharray:none"><path d="m330.424 76.248 1.856-4.443q.4-.976.4-1.084 0-.488-1.084-.508v-.449h2.813v.45q-.655.029-.958.35-.302.313-.751 1.397l-3.565 8.604q-.508 1.23-.898 1.67-.391.449-.86.449-.635 0-.635-.576 0-.664 1.016-1.123.596-.264.791-.45.205-.185.4-.673l.762-1.905-3.008-6.445q-.4-.85-.664-1.074-.263-.225-.898-.225v-.449h3.672v.45q-.967.029-.967.4 0 .146.38.957z" style="color:#000;-inkscape-font-specification:Baskerville;fill:#000;stroke:#000;stroke-width:.1;stroke-dasharray:none" transform="translate(-79.924 -265.356)"/><path d="m330.424 76.248 1.856-4.443c.267-.65.4-1.012.4-1.084 0-.325-.361-.495-1.084-.508v-.449h2.813v.45c-.437.019-.756.136-.958.35-.201.21-.452.675-.751 1.397l-3.565 8.604c-.338.82-.638 1.377-.898 1.67-.26.3-.547.449-.86.449-.423 0-.635-.192-.635-.576 0-.443.339-.817 1.016-1.123.397-.176.66-.326.791-.45.137-.123.27-.348.4-.673l.762-1.905-3.008-6.445c-.266-.566-.488-.924-.664-1.074-.175-.15-.475-.225-.898-.225v-.449h3.672v.45c-.645.019-.967.152-.967.4 0 .097.127.416.38.957z" style="color:#000;-inkscape-font-specification:Baskerville;fill:#000;stroke:#000;stroke-width:.1;stroke-dasharray:none" transform="translate(-79.924 -265.356)"/></g><g style="font-size:20px;font-family:Baskerville;-inkscape-font-specification:Baskerville;text-align:center;text-anchor:middle;stroke:#000;stroke-width:.1;stroke-dasharray:none"><path d="M335.22 78.016V75.39h.38q.664 2.276 2.373 2.276.742 0 1.103-.45.372-.449.372-.986 0-.625-.391-1.025-.4-.4-1.553-.967-1.21-.596-1.738-1.172-.527-.567-.527-1.397 0-.79.566-1.503.566-.723 1.592-.723 1.045 0 1.728.85.147-.147.381-.713h.361v2.47h-.36q-.196-.888-.763-1.523-.556-.645-1.318-.645-.586 0-.947.362-.362.361-.362.84 0 .527.4.908.392.39 1.495.888 1.66.752 2.031 1.465.371.723.371 1.387 0 1.045-.693 1.7-.684.653-1.729.653-1.103 0-1.962-.908-.264.293-.43.84z" style="color:#000;-inkscape-font-specification:Baskerville;fill:#000;stroke:#000;stroke-width:.1;stroke-dasharray:none" transform="translate(-79.924 -265.356)"/><path d="M335.22 78.016V75.39h.38c.443 1.517 1.234 2.276 2.373 2.276.495 0 .863-.15 1.103-.45.248-.3.372-.628.372-.986 0-.417-.13-.758-.391-1.025-.267-.267-.785-.59-1.553-.967-.807-.397-1.387-.788-1.738-1.172-.352-.378-.527-.843-.527-1.397 0-.527.188-1.028.566-1.503.378-.482.908-.723 1.592-.723.696 0 1.273.283 1.728.85.098-.098.225-.336.381-.713h.361v2.47h-.36a3.31 3.31 0 0 0-.763-1.523c-.37-.43-.81-.645-1.318-.645-.39 0-.706.12-.947.362-.241.24-.362.52-.362.84 0 .351.134.654.4.908.261.26.76.556 1.495.888 1.107.502 1.784.99 2.031 1.465.248.482.371.944.371 1.387 0 .697-.23 1.263-.693 1.7-.456.435-1.032.653-1.729.653-.735 0-1.39-.302-1.962-.908-.176.196-.32.475-.43.84z" style="color:#000;-inkscape-font-specification:Baskerville;fill:#000;stroke:#000;stroke-width:.1;stroke-dasharray:none" transform="translate(-79.924 -265.356)"/></g><g style="font-size:20px;font-family:Baskerville;-inkscape-font-specification:Baskerville;text-align:center;text-anchor:middle;stroke:#000;stroke-width:.1;stroke-dasharray:none"><path d="M386.557 76.297h.361q-.088 1.67-1.64 1.67-.664 0-1.055-.351-.38-.352-.498-1.045-.977.693-1.787 1.045-.801.351-1.436.351-.81 0-1.396-.469-.586-.468-.586-1.24 0-1.006.976-1.758.987-.752 2.715-1.464l1.514-.616v-.39q0-.83-.108-1.201-.107-.372-.556-.664-.45-.293-1.182-.293-1.465 0-1.63.976-.157.996-.821.996-.596 0-.596-.566 0-.557.791-1.192.791-.644 2.461-.644 1.24 0 1.924.39.684.391.899.89.224.497.224 1.523v3.232q0 1.133.117 1.455.118.322.508.322.645 0 .8-.957zm-2.832-3.418-1.065.43q-2.52 1.025-2.52 2.578 0 .615.323.996.322.371.84.371.459 0 1.064-.302.606-.303 1.358-.909z" style="color:#000;-inkscape-font-specification:Baskerville;fill:#000;stroke:#000;stroke-width:.1;stroke-dasharray:none" transform="translate(-111.048 -265.356)"/><path d="M386.557 76.297h.361c-.058 1.114-.605 1.67-1.64 1.67-.443 0-.795-.117-1.055-.351-.254-.235-.42-.583-.498-1.045-.651.462-1.247.81-1.787 1.045-.534.234-1.013.351-1.436.351-.54 0-1.006-.156-1.396-.469-.39-.312-.586-.725-.586-1.24 0-.67.325-1.256.976-1.758.658-.5 1.563-.99 2.715-1.464l1.514-.616v-.39c0-.554-.036-.954-.108-1.201-.071-.248-.257-.47-.556-.664-.3-.196-.694-.293-1.182-.293-.976 0-1.52.325-1.63.976-.105.664-.378.996-.821.996-.397 0-.596-.189-.596-.566 0-.371.264-.768.791-1.192.528-.43 1.348-.644 2.461-.644.827 0 1.468.13 1.924.39.456.26.755.557.899.89.15.331.224.839.224 1.523v3.232c0 .755.04 1.24.117 1.455.078.215.248.322.508.322.43 0 .697-.319.8-.957zm-2.832-3.418-1.065.43c-1.68.684-2.52 1.543-2.52 2.578 0 .41.108.742.323.996.215.248.495.371.84.371.306 0 .66-.1 1.064-.302.404-.202.857-.505 1.358-.909z" style="color:#000;-inkscape-font-specification:Baskerville;fill:#000;stroke:#000;stroke-width:.1;stroke-dasharray:none" transform="translate(-111.048 -265.356)"/></g><g style="font-size:20px;font-family:Baskerville;-inkscape-font-specification:Baskerville;text-align:center;text-anchor:middle;stroke:#000;stroke-width:.1;stroke-dasharray:none"><path d="M392.416 70.213h-2.412v4.834q0 1.114.098 1.504.098.381.41.615.322.235.684.235.703 0 1.22-.8l.313.185q-.303.644-.899.976-.586.322-1.191.322-.703 0-1.24-.41-.528-.42-.664-.976-.127-.557-.127-1.953v-4.532h-1.162v-.449q.8-.02 1.435-.674t.81-1.836h.313v2.51h2.412z" style="color:#000;-inkscape-font-specification:Baskerville;fill:#000;stroke:#000;stroke-width:.1;stroke-dasharray:none" transform="translate(-111.048 -265.356)"/><path d="M392.416 70.213h-2.412v4.834c0 .743.033 1.244.098 1.504.065.254.202.46.41.615.215.157.443.235.684.235.468 0 .875-.267 1.22-.8l.313.185c-.202.43-.501.755-.899.976-.39.215-.787.322-1.191.322-.469 0-.882-.136-1.24-.41-.352-.28-.573-.605-.664-.976-.085-.371-.127-1.022-.127-1.953v-4.532h-1.162v-.449c.534-.013 1.012-.238 1.435-.674.423-.436.694-1.048.81-1.836h.313v2.51h2.412z" style="color:#000;-inkscape-font-specification:Baskerville;fill:#000;stroke:#000;stroke-width:.1;stroke-dasharray:none" transform="translate(-111.048 -265.356)"/></g><path d="M290.021-194.95q-.133-.133-.133-.19 0-.076.057-.305.057-.228.095-.266.038-.095.172-.095.133 0 .97-.02h1.01l.362-1.523q.057-.21.133-.552.076-.343.133-.495.057-.152.114-.38.057-.23.153-.324.095-.096.19-.229t.267-.171q.171-.038.342-.038.343.019.476.21.134.19.134.36 0 .134-.172.896-.171.761-.38 1.504l-.19.704q0 .038.951.038h.971q.133.134.133.21 0 .419-.247.666h-2.037l-.686 2.761q-.742 3.047-.742 3.275 0 .8.514.8.666 0 1.294-.648.629-.647 1.01-1.599.038-.114.095-.133.057-.02.285-.038h.076q.286 0 .286.152 0 .057-.057.228-.095.305-.343.724-.247.419-.647.895-.4.476-.971.8-.571.323-1.162.323-.57 0-1.085-.285-.514-.286-.742-.99-.039-.153-.039-.515v-.342l.667-2.666q.666-2.685.685-2.704 0-.038-.97-.038zM297.697-192.627q.754-1.09 2.06-1.09.646 0 1.292.35t1.05 1.238q.498 1.117.498 3.07 0 2.086-.579 3.19-.269.565-.74.902-.471.336-.821.417-.35.08-.687.094-.35 0-.7-.08-.35-.081-.82-.431-.472-.35-.741-.902-.58-1.104-.58-3.19 0-2.343.768-3.568zm3.029-.161q-.404-.431-.956-.431-.565 0-.969.43-.337.35-.444.97-.108.619-.108 2.584 0 2.127.108 2.8.107.673.484 1.064.377.404.93.404.538 0 .915-.404.39-.404.484-1.131.094-.727.108-2.733 0-1.952-.108-2.57-.107-.62-.444-.983z"/></g><g transform="matrix(.01904 0 0 -.01904 86.148 -142.176)"><use xlink:href="#g" x="8876"/><use xlink:href="#d" x="9709"/></g><path d="M235.002 20.978h183.961" style="opacity:1;fill:#eef4d7;fill-opacity:1;stroke:#000;stroke-width:1.1;stroke-dasharray:none" transform="translate(-62.196 -189.912)"/><path d="M297.747 91.43c.898-.175 1.796-.348 2.703-.464 1.296-.215 2.604-.314 3.915-.364a21.964 21.964 0 0 1 4.145.162c1.1.165 2.182.39 3.295.429 1.36-.012 2.715-.17 4.064-.33 1.285-.138 2.577-.239 3.87-.209 1.107-.007 2.156.354 3.225.588 1.372.265 2.778.212 4.165.121 1.502-.117 3.007-.192 4.509-.316 1.416-.087 2.826-.237 4.242-.33 1.253-.104 2.503-.063 3.755.028 1.307.218 2.613.395 3.936.476 1.726.079 3.442-.073 5.156-.258 1.625-.193 3.26-.266 4.896-.304 1.192-.047 2.384.033 3.57.16 1.401.2 2.811.204 4.223.168a76.134 76.134 0 0 0 4.26-.453c1.12-.205 2.239-.225 3.37-.189 1.703.148 3.401.315 5.107.417 2.34.13 4.685.109 7.027.119 1.994.015 3.98.123 5.953.401 1.49.32 2.994.41 4.513.36 1.97-.107 3.931-.347 5.898-.513 1.962-.143 3.917-.277 5.844.112 1.626.488 3.283-.166 4.97-.012 1.538.065 3.079.02 4.617-.024.233.022.47-.059.694.021l-.973-.736s-.441.035-.664.035c-1.53.07-3.063.122-4.593.023-1.692-.174-3.35.45-4.988-.015-1.914-.344-3.852-.181-5.792-.036-1.97.159-3.935.388-5.909.499-1.519.047-3.019-.09-4.511-.382-1.954-.237-3.916-.298-5.883-.333-2.364-.014-4.729-.046-7.09-.172-1.711-.11-3.415-.292-5.124-.425-1.118-.03-2.218.029-3.319.247-1.413.192-2.83.37-4.256.442-1.403.04-2.804.03-4.197-.165-1.177-.122-2.36-.192-3.543-.123a75.874 75.874 0 0 0-4.874.328c-1.716.168-3.434.326-5.161.233-1.323-.106-2.631-.294-3.944-.48a25.613 25.613 0 0 0-3.703.025c-1.417.095-2.83.241-4.247.328-1.496.125-2.995.205-4.491.326-1.388.082-2.792.128-4.162-.15-1.068-.234-2.118-.585-3.225-.565a26.64 26.64 0 0 0-3.87.224c-1.346.16-2.696.322-4.053.32-1.097-.035-2.165-.259-3.25-.404a21.921 21.921 0 0 0-4.055-.08c-1.297.066-2.595.161-3.873.401a42.5 42.5 0 0 0-2.667.49zM276.52 122.084c.959.14 1.93.06 2.894.026 1.429-.053 2.858-.06 4.287-.075 1.604-.052 3.203.018 4.803.098 1.408.1 2.814.056 4.221-.026 1.058-.073 2.107-.257 3.166-.312.619-.031 1.025-.015 1.64-.005 1.44.012 2.806-.258 4.187.092 1.34.258 2.713.244 4.072.242 1.385-.02 2.765-.147 4.148-.215a96.577 96.577 0 0 1 3.892-.084c.949-.006 1.892.11 2.839.162 1.142.025 2.282.03 3.423.088 1.384.079 2.77.11 4.156.115 1.35-.01 2.695-.136 4.042-.21a74.668 74.668 0 0 1 3.278-.089c1.326-.013 2.65-.03 3.976-.046 1.659-.018 3.317-.04 4.976-.045 1.362-.007 2.724-.017 4.085-.027 1.382-.015 2.763-.026 4.144-.041 1.28-.012 2.558-.018 3.837-.03.908 0 1.815-.006 2.722-.004.216.006.431.003.646.005l-1.192-.848c-.205.006-.41.007-.615.017-.886.02-1.772.033-2.658.05-1.27.014-2.54.034-3.811.048-1.38.014-2.76.03-4.14.043-1.349.017-2.697.034-4.046.055-1.655.028-3.31.038-4.965.053-1.33.01-2.66.016-3.989.037-1.087.022-2.175.04-3.26.108-1.356.087-2.713.207-4.072.18-1.38-.01-2.76-.03-4.137-.109-1.149-.06-2.298-.069-3.448-.106-.93-.047-1.858-.16-2.79-.117-1.277.03-2.555.064-3.831.133-1.371.083-2.74.224-4.115.232-1.361.002-2.734.006-4.073-.278-1.364-.349-2.72-.032-4.142-.026-1.624.004-3.198.155-4.81.322-1.4.083-2.798.117-4.199.029a64.9 64.9 0 0 0-4.685-.007c-1.403.029-2.805.071-4.206.135-.942.044-1.888.133-2.827.006zM293.962 67.98c.48 1.725.602 3.523.689 5.304.05 2.985-.026 5.972-.029 8.958.004 2.701.017 5.403.052 8.104.018 1.11.017 2.219.081 3.327.029.49.093.977.096 1.468l.974.398c-.168-1.617-.38-3.224-.338-4.857-.035-2.71-.07-5.418-.109-8.127-.024-3 0-6.002-.067-9.002-.132-1.787-.296-3.578-.71-5.326z" style="fill:red;fill-opacity:.467925;stroke:red;stroke-width:1;stroke-opacity:.713208;stroke-dasharray:none"/><path d="M295.372 67.612c1.808-.196 3.617-.362 5.431-.476 2.568-.1 5.137-.182 7.705-.282 1.83-.071 3.665-.15 5.492.028.432.083.888.086 1.305.249.08.031.306.164.23.123-.633-.34-.714-.481-.453-.155.348.74.193 1.622.137 2.41-.246 2.812-.622 5.607-.982 8.403l-.188 1.696c-.097.89-.223 1.994-.284 2.895-.089 1.33-.084 2.662-.084 3.993.033 2.328-.036 4.657-.117 6.983-.022.496-.025.994-.065 1.49l.956.54c.151-.48-.008-1.02.066-1.513.028-2.338.092-4.676.064-7.015 0-2.876.106-5.747.502-8.598.346-2.8.739-5.596.98-8.41.054-.833.199-1.736-.176-2.51-.629-.843-1.57-.967-2.495-1.052-1.817-.147-3.638-.066-5.457.011-2.564.112-5.13.176-7.694.292-1.805.128-3.604.318-5.404.504zM295.75 97.025c2.045-.44 4.138-.556 6.222-.621 3.288-.09 6.572.12 9.86.138 1.222.053 2.432-.136 3.651-.175l.377-.011-.66-.483-.445-.036c-1.232-.05-2.447.191-3.681.155-3.247.025-6.493-.125-9.74-.048-2.053.09-4.124.193-6.124.705z" style="fill:red;fill-opacity:.467925;stroke:red;stroke-width:1;stroke-opacity:.713208;stroke-dasharray:none"/></svg>