<svg xmlns="http://www.w3.org/2000/svg" xmlns:xlink="http://www.w3.org/1999/xlink" width="500" height="300" aria-hidden="true" viewBox="0 -38.904 500 300"><defs><path id="b" stroke-width="1" d="M208 74q0-24 46-28 18 0 18-11 0-1-2-13-3-14-6-18t-13-4h-12q-10 0-34 1t-64 1Q70 2 50 0h-8q-7 7-7 11 2 27 13 35h14q70 3 102 50 6 6 181 305t178 303q7 12 24 12h25q6-9 6-10l28-323q28-323 30-326 5-11 65-11 25 0 25-10 0-2-3-14-3-15-5-18t-14-4h-14q-11 0-39 1t-73 1q-94 0-123-2h-12q-6 6-6 9t2 18q4 13 6 16l4 3h20q54 3 64 17l-12 150H283l-34-58q-41-69-41-81Zm308 186q0 11-12 156t-14 146l-27-43q-16-27-63-107l-90-152 103-1q103 0 103 1z"/><path id="c" stroke-width="1" d="M231 637q-27 0-32 1t-5 11q0 27 11 33 1 1 130 1 259 0 273-2 63-10 105-45t43-92q0-64-58-115t-133-69l-10-3q64-9 105-46t42-92q0-73-72-141T453 1q-7-1-211-1Q42 0 39 2q-4 3-4 8 0 7 2 14 5 19 10 21 4 1 15 1h6q27 0 60 3 14 3 19 12 3 4 72 278t69 289q0 7-57 9zm418-93q0 30-15 56t-49 34q-7 2-92 3h-42q-22 0-35-1h-13q-15-1-19-10-2-4-32-120 0-3-1-6l-31-126h81q81 0 93 2 60 10 107 58t48 110zm-54-315q0 44-23 73t-60 34q-6 1-83 1-118 0-119-1 0-2-17-73t-35-141l-18-70q0-4 12-4t81-2q89 0 96 1 62 7 114 58t52 124z"/><path id="d" stroke-width="1" d="M26 385q-7 7-7 10 0 4 3 16t5 14q2 5 9 5t51 1h53l19 80q3 11 7 29t7 26q3 8 6 20t8 17q5 5 10 12t14 9q9 2 18 2 18-1 25-11t7-19q0-7-9-47t-20-79l-10-37q0-2 50-2h51q7-7 7-11 0-22-13-35H210l-36-145Q135 80 135 68q0-42 27-42 35 0 68 34t53 84q2 6 5 7t15 2h4q15 0 15-8 0-3-3-12-5-16-18-38t-34-47q-21-25-51-42t-61-17q-30 0-57 15T59 56q-2 8-2 27v18l35 140q35 141 36 142 0 2-51 2z"/><path id="e" stroke-width="1" d="M96 585q56 81 153 81 48 0 96-26t78-92q37-83 37-228 0-155-43-237-20-42-55-67t-61-31q-26-6-51-7-26 0-52 6t-61 32q-35 26-55 67-43 82-43 237 0 174 57 265zm225 12q-30 32-71 32-42 0-72-32-25-26-33-72t-8-192q0-158 8-208t36-79q28-30 69-30 40 0 68 30 29 30 36 84t8 203q0 145-8 191t-33 73z"/><path id="f" stroke-width="1" d="M56 237v13q0 13 14 20h299v150l1 150q10 13 19 13 13 0 20-15V270h298q15-8 15-20t-15-20H409V-68q-8-14-18-14h-4q-12 0-18 14v298H70q-14 7-14 20z"/><path id="g" stroke-width="1" d="M51 0q-5 4-5 7 0 2 169 350t173 352q3 7 28 7 23 0 28-7 3-4 172-352T786 7q0-3-5-7Zm456 344L384 596 137 92l246-1h247q0 2-123 253z"/><path id="a" stroke-width="1" d="M758-1237v-3q0-3-6-9h-16q-18 0-19 1-6 3-45 49Q237-706 237 251t435 1449q25 30 44 49 2 1 19 1h17q6-6 6-9 0-4-18-28t-51-69q-33-45-70-107t-79-157q-42-95-77-204-115-374-115-925 0-493 93-850t303-619q14-19 14-22z"/><path id="h" stroke-width="1" d="M33 1741q0 9 18 9h14q8 0 16-7t38-43q435-493 435-1449 0-958-435-1450-43-51-53-51h-4q-3 0-6 1h-3q-2 0-4-1-16 0-16 11 0 3 17 25t48 64q31 42 65 98t75 142q41 86 73 183 132 392 132 978 0 151-7 281t-31 299q-24 169-66 311t-115 296q-73 154-174 278-17 21-17 25z"/></defs><g transform="translate(-3005.6)"><use xlink:href="#a" transform="matrix(.01904 0 0 -.01904 2.919 29.918)"/><text x="59.41" y="14.229" style="font-size:20px;stroke-width:1.02471"><tspan style="font-style:normal;font-variant:normal;font-weight:400;font-stretch:normal;font-size:20px;font-family:Baskerville;-inkscape-font-specification:Baskerville">change in</tspan></text><use xlink:href="#b" x="4450" transform="matrix(.01904 0 0 -.01904 59.41 14.23)"/><use xlink:href="#c" x="5201" transform="matrix(.01904 0 0 -.01904 59.41 14.23)"/><text x="20.283" y="45.798" style="font-size:20px;stroke-width:1.02471"><tspan style="font-style:normal;font-variant:normal;font-weight:400;font-stretch:normal;font-size:20px;font-family:Baskerville;-inkscape-font-specification:Baskerville">between</tspan></text><g transform="matrix(.01904 0 0 -.01904 94.861 45.798)"><use xlink:href="#d"/><use xlink:href="#e" x="511" y="-213" transform="scale(.707)"/></g><text style="font-size:19.5176px" transform="matrix(1.02471 0 0 1.02471 118.082 45.798)"><tspan style="font-style:normal;font-variant:normal;font-weight:400;font-stretch:normal;font-size:19.5176px;font-family:Baskerville;-inkscape-font-specification:Baskerville">and</tspan></text><g transform="translate(9.67 29.918)"><g transform="matrix(.01904 0 0 -.01904 148.891 15.88)"><use xlink:href="#d"/><use xlink:href="#e" x="511" y="-213" transform="scale(.707)"/></g><use xlink:href="#f" x="7875" transform="matrix(.01904 0 0 -.01904 18.715 15.88)"/><use xlink:href="#g" x="8876" transform="matrix(.01904 0 0 -.01904 18.715 15.88)"/><use xlink:href="#d" x="9709" transform="matrix(.01904 0 0 -.01904 18.715 15.88)"/></g><use xlink:href="#h" x="11103" transform="matrix(.01904 0 0 -.01904 9.284 29.918)"/></g><rect width="47.6" height="31.891" x="-2911.497" y="46.12" rx="0" ry="0" style="fill:#f0f;stroke-width:.55"/><rect width="47.6" height="31.891" x="-2911.497" y="-17.661" rx="0" ry="0" style="fill:#fca;stroke-width:.55"/><rect width="47.6" height="31.891" x="-2863.898" y="46.12" rx="0" ry="0" style="fill:#0ff;stroke-width:.55"/><rect width="47.6" height="31.891" x="-2855.325" y="-49.552" rx="0" ry="0" style="fill:#f55;stroke-width:.55"/><rect width="59.089" height="7.673" x="-2869.642" y="129.444" rx="0" ry="0" style="opacity:.5;fill:#782121;stroke-width:.55"/><g style="display:inline"><use xlink:href="#a" transform="matrix(.01904 0 0 -.01904 1653.75 29.918)"/><use xlink:href="#h" x="5631" transform="matrix(.01904 0 0 -.01904 1653.75 29.918)"/><g transform="matrix(.01904 0 0 -.01904 1966.4 14.027)"><use xlink:href="#d"/><use xlink:href="#e" x="511" y="-213" transform="scale(.707)"/></g><text x="1998.157" y="45.798" style="font-size:20px;stroke-width:1.02471"><tspan style="font-style:normal;font-variant:normal;font-weight:400;font-stretch:normal;font-size:20px;font-family:Baskerville;-inkscape-font-specification:Baskerville">and</tspan></text><use xlink:href="#c" x="5201" transform="matrix(.01904 0 0 -.01904 1935.843 46.165)"/><text xml:space="preserve" x="1876.441" y="77.762" style="font-style:normal;font-variant:normal;font-weight:400;font-stretch:normal;font-size:20px;font-family:Baskerville;-inkscape-font-specification:Baskerville;text-align:center;text-anchor:middle;fill:#000;fill-opacity:1;stroke:#000;stroke-width:0;stroke-dasharray:none"><tspan x="1876.441" y="77.762">stays put at</tspan></text><g transform="matrix(.01904 0 0 -.01904 1929.312 77.737)"><use xlink:href="#d"/><use xlink:href="#e" x="511" y="-213" transform="scale(.707)"/></g><text x="1840.063" y="-17.784" style="font-size:20px;stroke-width:0;stroke-dasharray:none"><tspan style="font-style:normal;font-variant:normal;font-weight:400;font-stretch:normal;font-size:20px;font-family:Baskerville;-inkscape-font-specification:Baskerville;stroke-width:0;stroke-dasharray:none">as</tspan></text><g transform="translate(1732.305 -1.913)"><g transform="matrix(.01904 0 0 -.01904 148.891 15.88)"><use xlink:href="#d"/><use xlink:href="#e" x="511" y="-213" transform="scale(.707)"/></g><use xlink:href="#f" x="7875" transform="matrix(.01904 0 0 -.01904 18.715 15.88)"/><use xlink:href="#g" x="8876" transform="matrix(.01904 0 0 -.01904 18.715 15.88)"/><use xlink:href="#d" x="9709" transform="matrix(.01904 0 0 -.01904 18.715 15.88)"/></g><text xml:space="preserve" x="1930.351" y="45.807" style="font-style:normal;font-variant:normal;font-weight:400;font-stretch:normal;font-size:20px;font-family:Baskerville;-inkscape-font-specification:Baskerville;text-align:center;text-anchor:middle;fill:#000;fill-opacity:1;stroke:#000;stroke-width:0;stroke-dasharray:none"><tspan x="1930.351" y="45.807">goes from</tspan></text><g transform="matrix(.01904 0 0 -.01904 1978.269 45.758)"><use xlink:href="#d"/><use xlink:href="#e" x="511" y="-213" transform="scale(.707)"/></g><path stroke-width=".019" d="M2066.626 85.19v.12q0 .122-.114.364h-.305q-.342 0-.361-.04-.115-.121-.857-1.978-8.283-19.904-8.283-58.539 0-38.635 8.283-58.498.476-1.211.838-1.978.037-.04.361-.04h.324q.114.241.114.363 0 .161-.343 1.13-.342.969-.97 2.786-.629 1.816-1.333 4.32-.705 2.502-1.505 6.338-.8 3.835-1.466 8.235-2.19 15.1-2.19 37.344 0 19.903 1.771 34.316 1.771 14.412 5.77 24.99.266.767.266.888z" style="fill:#000;stroke:#000"/><g transform="translate(1557.522)"><text x="522.944" y="-17.784" style="font-size:20px;stroke-width:0;stroke-dasharray:none"><tspan style="font-style:normal;font-variant:normal;font-weight:400;font-stretch:normal;font-size:20px;font-family:Baskerville;-inkscape-font-specification:Baskerville;stroke-width:0;stroke-dasharray:none">change in</tspan></text><use xlink:href="#b" x="4450" transform="matrix(.01904 0 0 -.01904 522.943 -17.784)"/><use xlink:href="#c" x="5201" transform="matrix(.01904 0 0 -.01904 522.943 -17.784)"/></g><text xml:space="preserve" x="2132.56" y="14.076" style="font-style:normal;font-variant:normal;font-weight:400;font-stretch:normal;font-size:20px;font-family:Baskerville;-inkscape-font-specification:Baskerville;text-align:center;text-anchor:middle;fill:#000;fill-opacity:1;stroke:#000;stroke-width:0;stroke-dasharray:none"><tspan x="2132.56" y="14.076">stays put at</tspan></text><use xlink:href="#b" x="4450" transform="matrix(.01904 0 0 -.01904 1982.028 14.267)"/><path stroke-width=".019" d="M2251.88 85.19v.12q0 .122.115.364h.304q.343 0 .362-.04.114-.121.857-1.978 8.282-19.904 8.282-58.539 0-38.635-8.282-58.498-.476-1.211-.838-1.978-.038-.04-.361-.04h-.324q-.114.241-.114.363 0 .161.342 1.13.343.969.971 2.786.629 1.816 1.333 4.32.705 2.502 1.504 6.338.8 3.835 1.466 8.235 2.19 15.1 2.19 37.344 0 19.903-1.77 34.316-1.771 14.412-5.77 24.99-.266.767-.266.888z" style="fill:#000;stroke:#000"/><text x="2111.112" y="77.734" style="font-size:20px;stroke-width:1.02471"><tspan style="font-style:normal;font-variant:normal;font-weight:400;font-stretch:normal;font-size:20px;font-family:Baskerville;-inkscape-font-specification:Baskerville">to</tspan></text><g transform="translate(1988.474 61.854)"><g transform="matrix(.01904 0 0 -.01904 148.891 15.88)"><use xlink:href="#d"/><use xlink:href="#e" x="511" y="-213" transform="scale(.707)"/></g><use xlink:href="#f" x="7875" transform="matrix(.01904 0 0 -.01904 18.715 15.88)"/><use xlink:href="#g" x="8876" transform="matrix(.01904 0 0 -.01904 18.715 15.88)"/><use xlink:href="#d" x="9709" transform="matrix(.01904 0 0 -.01904 18.715 15.88)"/></g><text x="2203.683" y="-17.784" style="font-size:20px;stroke-width:0;stroke-dasharray:none"><tspan style="font-style:normal;font-variant:normal;font-weight:400;font-stretch:normal;font-size:20px;font-family:Baskerville;-inkscape-font-specification:Baskerville;stroke-width:0;stroke-dasharray:none">as</tspan></text><g transform="translate(2038.376 -1.913)"><g transform="matrix(.01904 0 0 -.01904 148.891 15.88)"><use xlink:href="#d"/><use xlink:href="#e" x="511" y="-213" transform="scale(.707)"/></g><use xlink:href="#f" x="7875" transform="matrix(.01904 0 0 -.01904 18.715 15.88)"/><use xlink:href="#g" x="8876" transform="matrix(.01904 0 0 -.01904 18.715 15.88)"/><use xlink:href="#d" x="9709" transform="matrix(.01904 0 0 -.01904 18.715 15.88)"/></g><text x="2074.621" y="45.798" style="font-size:20px;stroke-width:1.02471"><tspan style="font-style:normal;font-variant:normal;font-weight:400;font-stretch:normal;font-size:20px;font-family:Baskerville;-inkscape-font-specification:Baskerville">and</tspan></text><use xlink:href="#c" x="5201" transform="matrix(.01904 0 0 -.01904 2013.998 46.165)"/><text xml:space="preserve" x="2177.012" y="45.807" style="font-style:normal;font-variant:normal;font-weight:400;font-stretch:normal;font-size:20px;font-family:Baskerville;-inkscape-font-specification:Baskerville;text-align:center;text-anchor:middle;fill:#000;fill-opacity:1;stroke:#000;stroke-width:0;stroke-dasharray:none"><tspan x="2177.012" y="45.807">goes from</tspan></text><g transform="matrix(.01904 0 0 -.01904 2224.93 45.758)"><use xlink:href="#d"/><use xlink:href="#e" x="511" y="-213" transform="scale(.707)"/></g></g><circle cx="-602.911" cy="-279.54" r=".04" style="fill:#e5f6ff;stroke:#000"/><circle cx="-144.117" cy="-90.469" r=".02" style="fill:#e5f6ff;stroke:#000"/><path d="M369.284 7.539c2.515-2.406 6.803-4.464 11.905-5.8 5.318-1.392 16.12-2.687 27.918-.214 9.256 1.94 20.541 6.535 27.903 12.855 4.963 4.26 11.296 10.331 13.903 19.443 2.417 8.446-1.648 18.905-10.805 21.395l-2.284-1.833c8.522-.938 21.187 4.472 29.364 11.493 6.292 5.403 13.011 13.196 16.683 21.97 4.584 10.956 5.929 27.616 2.01 37.698-4.328 11.132-11.357 19.556-24.247 24.62-6.674 2.623-15.704 3.318-21.98.504l.045-.8c9.708 3.38 18.278 13.274 19.791 26.13 1.215 10.321-2.544 20.421-11.743 27.56-10.224 7.934-21.68 10.618-34.736 10.574-11.24-.038-19.73-2.084-28.135-6.345-4.248-2.154-9.981-5.794-10.505-8.317l.839-.595c2.08 1.983 3.44 7.128 3.71 10.806.415 5.638-1.655 11.34-6.402 15.19-9.214 7.474-22.48 9.425-34.912 10.171-17.171 1.032-35.123-1.361-50.7-8.602-8.878-4.128-17.67-10.654-19.545-19.5-.344-1.624-.553-5.108 1.853-4.01 3.323 1.529-.592 6.668-4.994 9.32-12.382 7.46-28.042 9.379-42.208 4.768-8.935-2.907-17.19-8.744-23.363-16.37-5.498-6.793-8.354-15.897-6.994-24.529 1.381-8.767 6.798-16.152 13.464-20.942 1.015-.86 2.751-1.69 4.167-2.443 1.812-.964 5.02-2.488 5.449-1.365.99 1.646-1.419 2.297-3.348 2.486-18.133 1.773-37.634-8.068-46.534-23.475-2.47-4.277-3.714-8.999-4.248-13.742-1.2-10.667 2.876-23.552 9.777-31.46 5.291-6.063 12.506-10.864 18.754-14.184 7.294-3.876 17.737-7.32 25.058-7.635l-.243.861c-7.885.823-16.239-6.42-19.017-12.454-3.013-6.544-1.12-15.08 2.822-21.135 4.568-7.015 14.181-13.972 23.283-17.824 16.665-7.054 36.305-7.917 50.67-5.414 3.923.683 1.111 4.292-1.604 1.08-1.732-2.047-1.414-5.612-1.36-6.37.136-1.868 1.21-4.942 2.609-6.847 4.064-5.533 11.67-9.76 19.01-12.088 11.85-3.76 25.867-4.715 40.399-2.438 9.699 1.52 20 4.971 27.85 10.672 5.823 4.228 10.581 10.526 11.56 15.408.216 1.074.982 4.024-.96 3.982-1.325-.027-.98-1.25.07-2.255z" style="fill:#fff9f3;fill-opacity:1;stroke:#000;stroke-width:1.3;stroke-dasharray:none"/><path d="M134.44 89.764c-4.042-3.023-9.45-3.304-14.289-2.853-7.555.703-14.965 4.027-20.06 9.81-4.127 4.685-6.43 11.125-5.12 17.304 1.33 6.266 6.2 11.293 11.963 13.838 7.61 3.361 16.671 3.632 24.29.259 6.04-2.674 10.626-8.356 12.007-14.873 1.324-6.249-1.25-12.846-6.034-16.932-2.14-1.828-4.718-3.073-7.299-4.103-2.895-1.156-5.91-1.72-8.993-2.151M62.794 97.943c-3.695.406-7.45 2.389-9.66 6.045-2.079 3.438-1.79 8.48.7 11.566 2.482 3.078 5.936 4.931 9.473 5.323 3.204.355 6.601-.52 9.32-2.51 2.585-1.892 4.62-5.108 5.045-8.798.349-3.018-.748-6.076-2.69-7.993-1.642-1.62-3.68-2.581-5.707-3.286-2.255-.783-4.66-.876-6.985-.121l-.256.083" style="fill:#fff9f3;stroke:#000;stroke-width:1.3;stroke-dasharray:none;fill-opacity:1"/><path d="M947.683 153.701c1.996-3.173 8.02-6.777 13.68-8.219 10.407-2.651 25.72-2.66 36.944.622 9.737 2.848 20.459 8.092 28.04 14.937 5.113 4.615 11.566 11.383 14.673 17.945 3.988 8.425 3.238 18.959-9.235 23.57l-1.3-.98c8.541-1.699 21.516 3.727 29.481 10.317 6.128 5.07 12.146 12.409 15.525 20.603 3.977 9.642 4.366 22.998.99 32.546-4.177 11.81-13.141 20.305-26.501 25.024-6.917 2.443-15.98 3.389-22.442 1.672-1.152-.587-1.44-2.475.747-2.237 12.436 2.045 23.364 15.981 24.522 30.655.907 11.492-4.366 23.7-14.748 31.818-11.538 9.022-23.55 12.095-37.888 12.27-12.344.149-28.154-3.563-37.22-8.172-4.58-2.329-11.038-8.028-11.515-10.832l.138-.642c1.874 2.002 2.85 7.147 2.873 10.819.036 5.627-2.324 11.291-7.14 15.076-9.35 7.349-22.242 9.142-34.253 9.745-16.592.833-33.714-1.758-48.236-9.158-8.279-4.218-16.318-10.827-17.552-19.669-.227-1.624-.11-5.274 2.035-4.684 3.935.815-1.204 6.735-6.65 9.658-15.323 8.222-34.154 10.16-50.725 4.77-10.453-3.4-19.88-10.087-26.694-18.76-6.067-7.723-8.814-18.012-6.562-27.709 2.287-9.85 9.29-18.086 17.595-23.383 5.387-4.035 16.303-8.636 17.928-6.184 1.174 1.908-5.345 3.612-8.161 3.923-14.409 1.592-29.292-7.337-35.46-20.773-1.711-3.73-2.428-7.834-2.583-11.95-.347-9.257 3.6-20.388 9.5-27.18 4.524-5.207 10.505-9.468 15.63-12.288 8.458-4.654 21.735-6.908 25.694-4.695l-.217.436c-7.823-2.767-14.294-9.123-17.739-16.615-3.42-7.438-1.862-17.773 3.218-24.353 6.137-7.95 16.166-15.156 25.013-18.338 18.504-6.657 38.075-8.173 55.743-4.946 1.894.346 4.082.813 6.199 1.701 2.13.82-3.501 2.27-6.793.46-2.897-1.594-2.208-6.409-2.083-7.311.258-1.879 1.55-4.958 3.095-6.858 4.49-5.517 12.402-9.434 20.075-11.433 13.283-3.46 28.272-4.412 41.234-2.298 9.769 1.593 20.012 5.076 27.619 10.905 5.642 4.324 8.454 9.87 5.966 15.64-1.725 4-5.264 8.617-10.548 8.609-2.218-.004-3.718-1.183-1.912-4.054z" style="fill:#e5f6ff;stroke:#000;stroke-width:1.3"/><path d="M1022.495 498.353c8.225-1.527 21.017 3.727 29.059 10.317 6.187 5.07 12.382 12.409 16.066 20.603 4.335 9.642 5.385 22.998 2.597 32.546-3.449 11.81-11.698 20.305-24.393 25.024-6.573 2.443-15.299 3.389-21.64 1.672-1.145-.587-1.52-2.475.61-2.237 12.142 2.045 23.422 15.981 25.282 30.655 1.456 11.492-3.033 23.7-12.674 31.818-10.715 9.022-22.188 12.095-36.06 12.27-11.94.149-27.432-3.563-36.44-8.172-4.552-2.328-11.09-8.028-11.692-10.832l.1-.642c1.916 2.002 3.12 7.148 3.327 10.82.318 5.627-1.682 11.29-6.153 15.076-8.68 7.348-21.07 9.142-32.667 9.744-16.02.833-32.724-1.758-47.155-9.158-8.226-4.218-16.342-10.826-17.982-19.669-.3-1.624-.37-5.273 1.734-4.684 3.85.815-.825 6.735-5.951 9.658-14.418 8.222-32.549 10.16-48.862 4.77-10.29-3.4-19.753-10.087-26.785-18.76-6.263-7.723-9.44-18.012-7.748-27.709 1.718-9.85 8.082-18.086 15.855-23.383 1.185-.954 3.204-1.864 4.851-2.692 2.108-1.059 5.838-2.73 6.751-1.59 1.07 1.333-.782 1.875-2.261 2.021-13.902 1.372-28.725-7.337-35.372-20.773-1.845-3.73-2.746-7.834-3.103-11.95-.802-9.257 2.458-20.388 7.827-27.18 4.117-5.207 9.693-9.468 14.513-12.288 7.953-4.654 20.692-6.908 24.635-4.695l-.188.436c-7.712-2.767-14.296-9.123-18.008-16.615-3.686-7.438-2.698-17.772 1.888-24.353 5.54-7.95 14.886-15.156 23.29-18.338 17.577-6.657 36.446-8.173 53.711-4.946 1.851.346 3.993.813 6.087 1.701 2.103.82-3.275 2.27-6.552.46-2.885-1.594-2.46-6.409-2.386-7.311.156-1.878 1.25-4.958 2.652-6.858 4.069-5.517 11.53-9.434 18.856-11.433 12.685-3.46 27.147-4.411 39.8-2.298 9.537 1.593 19.629 5.076 27.285 10.905 5.68 4.324 10.287 10.718 11.19 15.64.519 2.822-2.05 8.025-7.568 8.36-2.42.148-3.815-.934-2.336-3.805 1.636-3.173 6.872-6.777 11.89-8.219 9.227-2.65 22.999-2.66 33.258.622 8.9 2.848 18.808 8.093 25.972 14.937 4.83 4.615 10.975 11.383 14.1 17.945 4.01 8.426 3.745 18.704-7.119 23.57-2.981 1.335-5.406-.365-2.09-.98z" style="fill:#e5f6ff;stroke:#000;stroke-width:1;stroke-dasharray:none"/><path d="M348.35 579.748c2.103.82-3.275 2.269-6.553.46-2.885-1.594-2.46-6.41-2.385-7.312.156-1.878 1.25-4.958 2.652-6.858 4.068-5.516 11.53-9.433 18.856-11.432 12.685-3.461 27.147-4.412 39.8-2.298 9.537 1.593 19.628 5.075 27.285 10.905 5.68 4.324 10.286 10.717 11.19 15.64.519 2.822-2.051 8.024-7.568 8.36-2.42.148-3.815-.934-2.336-3.805 1.635-3.174 6.872-6.777 11.89-8.22 9.227-2.65 22.998-2.66 33.258.623 8.9 2.847 18.808 8.092 25.972 14.937 4.83 4.614 10.975 11.382 14.099 17.944 4.011 8.426 3.746 18.705-7.118 23.57-2.982 1.335-5.406-.365-2.091-.98 8.225-1.527 21.016 3.727 29.058 10.317 6.188 5.071 12.383 12.41 16.067 20.604 4.335 9.642 5.384 22.997 2.596 32.545-3.448 11.81-11.698 20.306-24.393 25.024-6.572 2.443-15.298 3.39-21.64 1.673-1.144-.588-1.519-2.475.611-2.238 12.142 2.045 23.422 15.982 25.281 30.655 1.457 11.492-3.032 23.7-12.674 31.819-10.714 9.022-22.188 12.095-36.059 12.269-11.941.15-27.432-3.563-36.44-8.171-4.552-2.33-11.09-8.028-11.693-10.833l.101-.641c1.915 2.001 3.12 7.147 3.327 10.818.317 5.628-1.682 11.291-6.153 15.077-8.68 7.348-21.07 9.142-32.668 9.745-16.019.833-32.723-1.759-47.154-9.158-8.227-4.218-16.342-10.827-17.982-19.67-.301-1.624-.371-5.273 1.734-4.684 3.85.816-.826 6.735-5.951 9.658-14.418 8.222-32.55 10.16-48.863 4.77-10.29-3.4-19.752-10.086-26.784-18.759-6.263-7.724-9.44-18.012-7.748-27.71 1.718-9.85 8.082-18.086 15.855-23.383 1.185-.954 3.204-1.864 4.85-2.691 2.109-1.06 5.839-2.73 6.752-1.591 1.069 1.333-.782 1.876-2.262 2.022-13.902 1.371-28.725-7.337-35.371-20.774-1.845-3.73-2.746-7.834-3.103-11.95-.803-9.257 2.458-20.388 7.827-27.18 4.117-5.207 9.693-9.468 14.513-12.288 7.952-4.654 20.691-6.908 24.635-4.694l-.188.352c-7.712-2.495-14.296-8.514-18.008-15.715-3.686-7.149-2.815-17.59 1.77-24.117 5.541-7.887 13.952-13.978 23.407-18.113 17.314-7.571 36.447-8.903 53.712-6.207 1.851.29 3.993.688 6.086 1.5M727.356 767.495c2.103.82-3.275 2.27-6.552.46-2.885-1.594-2.46-6.409-2.386-7.311.156-1.879 1.25-4.958 2.652-6.858 4.069-5.517 11.53-9.434 18.856-11.433 12.685-3.46 27.147-4.412 39.8-2.298 9.537 1.593 19.629 5.076 27.285 10.905 5.68 4.324 10.287 10.718 11.19 15.64.2 1.084.916 4.06-.994 3.995-1.304-.045-.95-1.347.099-2.41 2.507-2.542 6.755-4.69 11.795-6.057 5.253-1.424 15.903-2.678 27.484.108 9.086 2.186 19.965 7.762 27.129 14.606 4.83 4.615 11.14 11.713 13.438 20.424 2.38 9.023-1.708 20.192-10.754 22.743-3.144.887-5.406-.364-2.09-.98 8.224-1.527 21.016 3.728 29.058 10.318 6.187 5.07 12.382 12.409 16.066 20.603 4.335 9.642 5.385 22.998 2.597 32.546-3.449 11.81-11.698 20.305-24.393 25.024-6.573 2.443-15.299 3.389-21.64 1.672-1.145-.587-1.52-2.475.61-2.237 12.142 2.045 23.422 15.981 25.282 30.655 1.456 11.492-3.033 23.7-12.674 31.818-10.715 9.022-22.188 12.095-36.06 12.27-11.94.149-27.432-3.563-36.44-8.172-4.552-2.329-11.09-8.028-11.693-10.832l.102-.642c1.915 2.001 3.119 7.147 3.326 10.819.318 5.627-1.682 11.291-6.153 15.076-8.68 7.349-21.07 9.142-32.667 9.745-16.02.833-32.724-1.758-47.155-9.158-8.226-4.218-16.342-10.827-17.982-19.669-.3-1.624-.37-5.274 1.734-4.684 3.85.815-.825 6.735-5.951 9.658-14.418 8.222-32.549 10.16-48.862 4.77-10.29-3.4-19.753-10.087-26.785-18.76-6.263-7.723-9.44-18.012-7.748-27.709 1.718-9.85 8.082-18.086 15.855-23.383 1.185-.954 3.204-1.864 4.85-2.692 2.11-1.059 5.84-2.73 6.752-1.59 1.07 1.333-.782 1.875-2.261 2.021-13.902 1.372-28.725-7.337-35.372-20.773-1.845-3.73-2.746-7.834-3.103-11.95-.802-9.257 2.458-20.388 7.827-27.18 4.117-5.207 9.693-9.468 14.513-12.288 7.953-4.654 20.692-6.908 24.635-4.695l-.188.353c-7.712-2.495-14.296-8.515-18.008-15.715-3.686-7.15-2.815-17.59 1.771-24.118 5.54-7.886 13.95-13.977 23.407-18.112 17.313-7.572 36.446-8.903 53.711-6.207 1.851.289 3.993.688 6.087 1.5M452.15 274.513c11.563 2.44 19.87 15.532 21.101 29.805.964 11.178-3.8 22.824-13.349 30.315-10.612 8.326-23.215 10.864-36.52 10.505-11.455-.309-24.515-4.16-32.978-8.962-4.276-2.427-10-7.696-10.472-10.433M-2.179 702.22c-2.904-1.558-2.538-6.378-2.474-7.282.133-1.88 1.19-4.973 2.567-6.89 4.001-5.565 11.414-9.573 18.715-11.662 12.642-3.616 27.091-4.744 39.77-2.785 9.555 1.476 19.688 4.835 27.416 10.57 5.732 4.255 10.416 10.591 11.38 15.503.213 1.08.966 4.047-.945 4.005-1.304-.028-.966-1.335.07-2.41 2.475-2.572 6.697-4.773 11.719-6.2 5.235-1.49 15.87-2.874 27.484-.23 9.112 2.075 20.058 7.517 27.305 14.274 4.886 4.555 11.283 11.575 13.687 20.257 2.491 8.994-1.46 20.212-10.474 22.873-3.133.926-5.452-.567-2.103-.95 8.379-.989 20.903 4.085 29.027 10.755 6.25 5.132 12.948 12.558 16.655 20.96 4.629 10.49 5.79 25.706 2.039 35.442-4.142 10.75-10.647 18.441-23.282 23.443-6.541 2.59-15.254 3.668-21.617 1.982l.885-.462c11.495 3.82 19.47 14.828 20.87 28.734 1.125 11.163-2.825 22.276-12.282 29.884-10.51 8.455-23.2 10.915-36.51 10.719-11.457-.17-24.548-2.691-33.07-7.39-4.305-2.375-10.087-7.106-10.593-9.837l.45-.375c1.939 1.978 3.205 7.109 3.458 10.777.386 5.623-1.543 11.311-5.968 15.151-8.59 7.454-20.957 9.4-32.546 10.144-16.008 1.029-32.743-1.358-47.263-8.58-8.278-4.117-16.473-10.626-18.221-19.447-.321-1.621-.436-5.27 1.676-4.706 3.86.768-.743 6.745-5.832 9.73-14.316 8.398-32.422 10.558-48.8 5.368-10.33-3.273-19.875-9.844-27.013-18.43-6.357-7.646-9.659-17.895-8.087-27.612 1.598-9.87 7.86-18.185 15.568-23.576 1.174-.969 3.18-1.903 4.818-2.75 2.095-1.086 5.804-2.802 6.635-1.738 1.024 1.333-.879 1.93-2.403 2.103-14.323 1.625-29.727-7.393-36.758-21.513-1.952-3.92-2.934-8.246-3.355-12.594-.948-9.775 2.271-21.583 7.722-28.83 4.18-5.557 9.88-9.957 14.814-12.999 8.144-5.02 21.255-7.738 25.351-5.448l-.183.969c-7.74-2.256-14.393-7.846-18.188-14.584-3.768-6.689-2.144-16.284 1.989-22.747 4.788-7.488 14.762-14.837 24.169-18.848 17.225-7.344 37.014-7.849 52.167-4.999 1.838.346 4 .6 6.105 1.515 2.116.97-3.244 2.485-6.544.716zM-204.227 665.619c3.234 1.368-.62 6.494-4.954 9.14-12.19 7.44-27.606 9.353-41.55 4.755-8.796-2.9-16.923-8.722-23-16.328-5.413-6.774-8.224-15.855-6.885-24.463 1.36-8.745 6.692-16.11 13.255-20.887.999-.859 2.708-1.686 4.101-2.437 1.784-.961 4.943-2.482 5.366-1.383.96 1.646-1.37 2.306-3.237 2.497-17.545 1.797-36.413-8.172-45.024-23.778-2.391-4.333-3.594-9.115-4.11-13.92-1.161-10.805 2.782-23.856 9.459-31.866 5.12-6.142 12.1-11.005 18.145-14.368 7.058-3.926 17.162-6.578 24.246-6.897" style="fill:#e5f6ff;stroke:#000;stroke-width:1.3;stroke-dasharray:none"/><path d="M-99.92 661.418c2.049 1.978 3.387 7.11 3.653 10.778.408 5.623-1.63 11.31-6.302 15.15-9.07 7.454-22.13 9.4-34.368 10.145-16.904 1.028-34.577-1.358-49.91-8.58-8.741-4.118-17.396-10.627-19.242-19.448-.339-1.621-.545-5.095 1.788-4.155" style="fill:#e5f6ff;stroke:#000;stroke-width:1.3;stroke-dasharray:none"/><path d="M-36.434 612.54c9.557 3.37 17.993 13.24 19.483 26.062 1.195 10.293-2.504 20.367-11.56 27.487-10.065 7.913-21.343 10.59-34.195 10.546-11.065-.038-19.424-2.079-27.698-6.329-4.181-2.147-9.826-5.778-10.341-8.294" style="fill:#e5f6ff;stroke:#000;stroke-width:1.3;stroke-dasharray:none"/><path d="M-38.28 517.307c8.39-.936 20.857 4.46 28.907 11.463 6.194 5.388 12.809 13.16 16.423 21.911 4.512 10.928 5.837 27.544 1.978 37.6-4.26 11.102-11.18 19.504-23.87 24.555-6.569 2.615-15.458 3.31-21.637.502" style="fill:#e5f6ff;stroke:#000;stroke-width:1.3;stroke-dasharray:none"/><path d="M-261.95 527.435c-7.74-2.045-14.393-7.11-18.188-13.217-3.768-6.062-2.143-14.757 1.99-20.615 4.787-6.787 14.761-13.446 24.168-17.082 17.226-6.656 37.43-7.231 52.167-4.53 3.867.709 1.142 4.173-1.575 1.166-1.66-1.837-1.391-5.053-1.338-5.743.133-1.704 1.19-4.507 2.568-6.244 4-5.045 11.413-8.677 18.715-10.57 12.641-3.277 27.09-4.3 39.769-2.524 9.556 1.338 19.689 4.382 27.416 9.58 5.733 3.855 10.417 9.598 11.381 14.049.212.98.966 3.668-.946 3.63-1.304-.026-.965-1.21.07-2.184 2.476-2.331 6.697-4.326 11.72-5.62 5.235-1.349 15.869-2.604 27.483-.207 9.112 1.88 20.059 6.812 27.306 12.935 4.886 4.129 11.283 10.491 13.687 18.36 2.49 8.15-1.46 18.317-10.475 20.729" style="fill:#e5f6ff;stroke:#000;stroke-width:1.3;stroke-dasharray:none"/><path d="M134.647-173.563c-3.179-1.11-6.309-1.009-9.713-.121-2.238.583-4.657 1.701-7.382 3.518-4.978 3.32-9.427 8.022-12.78 14.032-2.263 4.056-2.379 5.169-3.86 9.795-.343 1.775-.805 3.516-1.03 5.326-.563 4.544-.512 10.08.694 14.45 1.05 3.805 1.9 4.873 3.683 8.158.923 1.302 1.776 2.703 2.77 3.906 3.4 4.112 7.367 6.691 11.855 7.787 4.541 1.108 7.538 1.229 11.41.809 1.828-.199 3.259-.22 5.019-.841 5.91-2.085 11.747-6.514 15.667-13.027.807-1.342 1.384-3.102 1.96-4.615.52-1.37 1.385-4.744 1.663-6.212 1.165-6.164.709-13.088-.787-18.968-.415-1.631-1.81-5.179-2.572-6.649-2.734-5.268-4.186-7.582-7.99-11.433-2.1-2.125-3.43-2.788-4.663-3.74-1.491-1.15-7.467-3.244-10.568-2.095" style="display:inline;fill:#fff9f3;fill-opacity:1;stroke:#000;stroke-width:1.06667;stroke-linecap:square;stroke-linejoin:miter;stroke-miterlimit:100;stroke-dasharray:none;stroke-opacity:1"/><path d="M-408.277 501.21c8.522-.937 21.187 4.472 29.364 11.494 6.292 5.403 13.012 13.196 16.683 21.97 4.584 10.956 5.93 27.616 2.01 37.698-4.328 11.132-11.357 19.556-24.247 24.62-6.674 2.622-15.704 3.318-21.98.504l.045-.8c9.708 3.38 18.278 13.274 19.791 26.13 1.215 10.32-2.543 20.42-11.743 27.56-10.223 7.934-21.68 10.618-34.736 10.573-11.239-.037-19.73-2.084-28.135-6.345-4.247-2.153-9.981-5.793-10.505-8.316l.84-.595c2.08 1.983 3.438 7.127 3.71 10.806.414 5.638-1.656 11.34-6.403 15.19-9.214 7.474-22.48 9.424-34.911 10.171-17.172 1.032-35.124-1.361-50.7-8.603-8.88-4.128-17.67-10.654-19.546-19.498-.344-1.626-.553-5.109 1.854-4.01 3.322 1.527-.593 6.667-4.995 9.319-12.382 7.46-28.042 9.378-42.208 4.768-8.935-2.908-17.19-8.745-23.363-16.371-5.498-6.792-8.354-15.896-6.994-24.528 1.381-8.768 6.798-16.153 13.465-20.942 1.015-.86 2.75-1.69 4.166-2.443 1.812-.964 5.02-2.488 5.451-1.386.975 1.65-1.393 2.312-3.289 2.503-17.822 1.801-36.988-8.193-45.736-23.841-2.428-4.344-3.65-9.139-4.175-13.957-1.18-10.833 2.826-23.918 9.609-31.95 5.2-6.158 12.292-11.034 18.432-14.405 7.17-3.936 17.434-6.596 24.63-6.916l-.257.945c-7.554-1.942-14.09-6.923-17.86-12.984-3.744-6.018-2.277-14.744 1.665-20.663 4.568-6.859 14.181-13.66 23.283-17.426 16.665-6.896 36.306-7.745 50.67-5.278 3.924.695 1.156 4.27-1.604 1.167-1.687-1.896-1.414-5.215-1.359-5.928.135-1.758 1.209-4.651 2.608-6.444 4.064-5.206 11.594-8.955 19.011-10.909 12.841-3.382 27.52-4.437 40.398-2.605 9.707 1.381 20 4.523 27.85 9.887 5.823 3.98 10.581 9.907 11.561 14.5.216 1.011.98 3.787-.96 3.747-1.326-.027-.982-1.248.07-2.254 2.515-2.406 6.803-4.465 11.905-5.8 5.318-1.392 16.12-2.688 27.918-.214 9.256 1.94 20.376 7.03 27.738 13.35 4.963 4.261 11.461 10.828 13.903 18.948 2.53 8.412-1.483 18.905-10.64 21.395zM-997.08 597.768c-18.133 1.774-37.633-8.067-46.533-23.475-2.471-4.277-3.715-8.998-4.248-13.742-1.2-10.667 2.875-23.551 9.776-31.46 5.291-6.063 12.506-10.864 18.754-14.183 7.295-3.876 17.737-7.321 25.058-7.636l-.243.862c-7.885.823-16.239-6.42-19.017-12.455-3.013-6.543-1.12-15.08 2.822-21.135 4.568-7.015 14.181-13.972 23.283-17.824 16.665-7.053 36.305-7.917 50.67-5.414 3.923.684 1.156 4.254-1.604 1.151-1.687-1.896-1.414-5.215-1.359-5.928.135-1.758 1.209-4.651 2.608-6.444 4.064-5.206 11.594-8.955 19.011-10.909 12.841-3.382 27.52-4.437 40.398-2.605 9.707 1.381 20 4.523 27.85 9.887 5.823 3.98 10.581 9.906 11.561 14.5.216 1.01.98 3.786-.96 3.747-1.326-.027-.982-1.249.07-2.254 2.515-2.407 6.803-4.465 11.905-5.8 5.318-1.393 16.12-2.688 27.918-.214 9.256 1.94 20.542 6.535 27.903 12.854 4.963 4.261 11.296 10.332 13.904 19.444 2.417 8.445-1.649 18.905-10.806 21.395l-2.284-1.833c8.522-.938 21.187 4.471 29.364 11.493 6.292 5.403 13.012 13.195 16.683 21.97 4.584 10.956 5.93 27.616 2.01 37.698-4.328 11.132-11.357 19.556-24.247 24.62-6.674 2.622-15.704 3.318-21.98.503l.045-.8c9.708 3.38 18.278 13.274 19.791 26.131 1.215 10.32-2.543 20.42-11.743 27.56-10.223 7.933-21.68 10.617-34.736 10.573-11.239-.038-19.73-2.084-28.135-6.345-4.247-2.153-9.981-5.794-10.505-8.316l.84-.595c2.08 1.983 3.438 7.127 3.71 10.805.414 5.638-1.656 11.341-6.403 15.191-9.214 7.474-22.48 9.424-34.911 10.17-17.172 1.032-35.124-1.36-50.7-8.602-8.88-4.128-17.67-10.654-19.546-19.499-.344-1.625-.553-5.108 1.854-4.01 3.322 1.528-.593 6.668-4.995 9.32-12.382 7.46-28.042 9.378-42.208 4.768-8.935-2.908-17.19-8.745-23.363-16.371-5.498-6.793-8.354-15.897-6.994-24.528 1.381-8.768 6.798-16.153 13.465-20.942 1.015-.86 2.75-1.69 4.166-2.444 1.812-.963 5.02-2.488 5.45-1.365.99 1.646-1.42 2.297-3.35 2.486z" style="fill:#fff9f3;fill-opacity:1;stroke:#000;stroke-width:1.3;stroke-dasharray:none"/><g transform="translate(-106.442 -374.867)"><path stroke-width=".019" d="M470.609 85.19v.12q0 .122-.114.364h-.305q-.343 0-.362-.04-.114-.121-.857-1.978-8.282-19.904-8.282-58.539 0-38.635 8.282-58.498.476-1.211.838-1.978.038-.04.362-.04h.324q.114.241.114.363 0 .161-.343 1.13-.343.969-.971 2.786-.628 1.816-1.333 4.32-.704 2.502-1.504 6.338-.8 3.835-1.466 8.235-2.19 15.1-2.19 37.344 0 19.903 1.771 34.316 1.77 14.412 5.77 24.99.266.767.266.888zM641.988 85.19v.12q0 .122.114.364h.305q.343 0 .362-.04.114-.121.857-1.978 8.282-19.904 8.282-58.539 0-38.635-8.282-58.498-.476-1.211-.838-1.978-.038-.04-.362-.04h-.324q-.114.241-.114.363 0 .161.343 1.13.343.969.971 2.786.628 1.816 1.333 4.32.704 2.502 1.504 6.338.8 3.835 1.466 8.235 2.19 15.1 2.19 37.344 0 19.903-1.771 34.316-1.77 14.412-5.77 24.99-.266.767-.266.888z" style="display:inline;fill:#000;stroke:#000"/><g style="display:inline"><path d="M509.492-19.737h.43q-.664 2.275-3.32 2.275-1.71 0-2.881-1.162-1.162-1.162-1.162-3.076 0-1.963 1.26-3.183 1.26-1.221 2.978-1.221 1.035 0 1.904.459.87.449.87 1.103 0 .244-.166.46-.157.214-.46.214-.644 0-.79-.752-.118-.566-.362-.79-.254-.225-.986-.225-1.309 0-1.973.908-.654.908-.654 2.734 0 1.885.703 2.95.713 1.064 2.149 1.064 1.933 0 2.46-1.758zM513.428-24.464q.586-.82 1.309-1.23.732-.41 1.601-.41.987 0 1.631.41.654.41.85 1.016.195.595.195 1.943v2.207q0 1.406.049 1.709.058.303.322.45.264.136.977.136v.45h-4.131v-.45h.185q.713 0 .918-.205.215-.205.244-.479.04-.283.04-1.611v-2.402q0-.996-.118-1.475-.117-.478-.556-.791-.43-.312-1.084-.312-.762 0-1.367.449-.606.44-1.065 1.328v3.203q0 1.348.04 1.66.048.313.302.479.254.156.928.156v.45h-4.063v-.45h.205q.703 0 .908-.195.215-.205.245-.479.039-.283.039-1.621v-7.969q0-1.21-.235-1.533-.224-.322-1.093-.322v-.45q1.513 0 2.519-.41h.205zM529.6-19.249h.361q-.088 1.67-1.64 1.67-.664 0-1.055-.351-.38-.352-.498-1.045-.977.693-1.787 1.045-.801.351-1.436.351-.81 0-1.396-.469-.586-.468-.586-1.24 0-1.006.976-1.758.987-.752 2.715-1.464l1.514-.616v-.39q0-.83-.108-1.201-.107-.372-.556-.665-.45-.293-1.182-.293-1.465 0-1.63.977-.157.996-.821.996-.596 0-.596-.566 0-.557.791-1.192.791-.644 2.461-.644 1.24 0 1.924.39.684.391.899.89.224.497.224 1.523v3.232q0 1.133.117 1.455.118.322.508.322.645 0 .8-.957zm-2.832-3.418-1.065.43q-2.52 1.025-2.52 2.578 0 .615.323.996.322.371.84.371.459 0 1.064-.302.606-.303 1.358-.909zM532.92-26.104h.264q.225.605.254 1.65.703-.83 1.474-1.24.772-.41 1.612-.41.957 0 1.562.4.615.4.791.987.176.576.176 1.689v2.5q0 1.387.049 1.69.049.302.303.458.263.147.957.147v.45h-4.092v-.45h.185q.703 0 .918-.205.215-.205.244-.479.03-.273.03-1.611v-2.578q0-.947-.098-1.348-.088-.41-.498-.722-.4-.313-1.025-.313-.713 0-1.368.43-.644.42-1.22 1.27v3.261q0 1.387.049 1.69.058.302.312.458.264.147.967.147v.45h-4.043v-.45q.674 0 .937-.137.264-.137.323-.41.068-.283.068-1.748v-2.383q0-1.396-.059-1.69-.048-.302-.312-.449-.254-.156-.957-.156v-.449q1.074-.117 2.197-.45zM547.647-25.079q.83-.937 1.68-.937.468 0 .722.254.264.254.264.556 0 .645-.586.645-.322 0-.557-.4-.215-.372-.449-.372-.371 0-.82.508.508.8.508 1.7 0 1.171-.84 2.07-.84.908-2.832.976-2.07.069-2.07.84 0 .361.468.508.46.156 1.934.234 1.611.078 2.48.303.87.215 1.387.879t.517 1.582q0 1.289-1.054 2.08-1.055.791-3.037.791-1.817 0-2.91-.703-1.094-.703-1.094-1.777 0-.596.312-.977.313-.38.889-.38.156 0 .283.048-.605.664-.605 1.406 0 .86.8 1.416.811.567 2.413.567 1.425 0 2.216-.577.801-.566.801-1.455 0-.976-.713-1.377-.713-.39-2.539-.468-2.1-.088-2.724-.518-.625-.42-.625-1.084 0-1.28 1.787-1.611-.928-.547-1.397-1.25t-.469-1.573q0-1.22.957-2.07.967-.86 2.286-.86 1.63 0 2.617 1.026zm-4.395 2.13q0 1.259.518 1.845.517.586 1.318.586.742 0 1.27-.576.537-.586.537-2.022 0-1.445-.567-1.992-.566-.547-1.279-.547-.898 0-1.348.674-.449.674-.449 2.031zM558.155-23.077h-5.577q-.039.576-.039.86 0 2.109.655 3.173.664 1.055 1.972 1.055 1.778 0 2.52-1.592h.469q-.313.996-1.24 1.563-.928.556-2.022.556-1.016 0-1.924-.507-.898-.518-1.475-1.456-.576-.937-.576-2.275 0-1.894 1.114-3.144 1.113-1.26 2.783-1.26 1.572 0 2.431.957.86.957.909 2.07zm-1.71-.39q.03-.225.03-.4 0-.86-.508-1.329-.498-.479-1.23-.479-1.778 0-2.12 2.208z" style="font-size:20px;font-family:Baskerville;-inkscape-font-specification:Baskerville;stroke:#000;stroke-width:.1;stroke-dasharray:none" transform="translate(-3.404)"/></g><g style="display:inline"><path d="M565.62-30.186q0-.42.294-.723.302-.303.722-.303t.713.303q.293.303.293.723 0 .43-.293.732-.293.303-.713.303t-.722-.303q-.293-.303-.293-.732zm1.885 4.082v5.576q0 1.28.04 1.611.039.332.283.508.244.176.869.176h.205v.45h-4.307v-.45h.332q.694 0 .899-.195.215-.205.244-.479.04-.283.04-1.621v-2.422q0-1.406-.138-1.719-.127-.312-.351-.39-.215-.078-.762-.078h-.264v-.45q1.739-.175 2.696-.517zM572.037-26.104h.263q.225.605.254 1.65.703-.83 1.475-1.24.771-.41 1.611-.41.957 0 1.563.4.615.4.79.987.177.576.177 1.689v2.5q0 1.387.048 1.69.05.302.303.458.264.147.957.147v.45h-4.092v-.45h.186q.703 0 .918-.205.215-.205.244-.479.03-.273.03-1.611v-2.578q0-.947-.098-1.348-.088-.41-.498-.722-.4-.313-1.026-.313-.713 0-1.367.43-.645.42-1.22 1.27v3.261q0 1.387.048 1.69.059.302.313.458.263.147.966.147v.45h-4.043v-.45q.674 0 .938-.137.264-.137.322-.41.069-.283.069-1.748v-2.383q0-1.396-.059-1.69-.049-.302-.313-.449-.253-.156-.957-.156v-.449q1.075-.117 2.198-.45z" style="font-size:20px;font-family:Baskerville;-inkscape-font-specification:Baskerville;stroke:#000;stroke-width:.1;stroke-dasharray:none" transform="translate(-3.045)"/></g><path d="M587.026-19.193q0 .457.876.533.343 0 .343.21 0 .019-.039.247-.057.267-.114.343-.057.076-.247.076h-.229q-.19 0-.647-.019t-1.219-.019q-1.352 0-1.732.038h-.153q-.133-.133-.133-.21.038-.513.248-.666h.266q1.333-.057 1.942-.952.114-.114 3.446-5.807 3.332-5.693 3.39-5.769.133-.229.457-.229h.476q.114.172.114.19l.533 6.15q.533 6.15.571 6.208.095.21 1.238.21.476 0 .476.19 0 .038-.057.266-.057.286-.096.343-.038.057-.266.076h-.267q-.21 0-.742-.019-.533-.019-1.39-.019-1.79 0-2.342.038h-.229q-.114-.114-.114-.171 0-.057.038-.343.076-.247.115-.305l.076-.057h.38q1.029-.057 1.22-.323l-.23-2.856h-4.53l-.648 1.104q-.78 1.314-.78 1.542zm5.864-3.541q0-.21-.228-2.97-.229-2.761-.267-2.78l-.514.818q-.304.514-1.2 2.038l-1.713 2.894 1.961.019q1.961 0 1.961-.02zM601.763-29.912q-.514 0-.61-.02-.094-.018-.094-.209 0-.514.209-.628.019-.02 2.475-.02 4.932 0 5.198.039 1.2.19 2 .857.799.666.818 1.751 0 1.219-1.104 2.19-1.105.971-2.533 1.314l-.19.057q1.219.171 2 .876.78.704.799 1.751 0 1.39-1.371 2.685-1.37 1.295-3.37 1.466-.133.02-4.018.02-3.808 0-3.865-.039-.076-.057-.076-.152 0-.134.038-.267.095-.362.19-.4.077-.019.286-.019h.114q.515 0 1.143-.057.266-.057.362-.228.057-.076 1.37-5.293 1.314-5.217 1.314-5.503 0-.133-1.085-.171zm7.959 1.77q0-.57-.286-1.066-.285-.495-.933-.647-.133-.038-1.752-.057h-.8q-.418 0-.666.019h-.247q-.286.019-.362.19-.038.076-.61 2.285 0 .057-.018.114l-.59 2.4H605q1.542 0 1.77-.039 1.143-.19 2.038-1.104.895-.914.914-2.095zm-1.028 5.998q0-.838-.438-1.39-.438-.552-1.143-.647-.114-.02-1.58-.02-2.247 0-2.266.02 0 .038-.324 1.39-.323 1.351-.666 2.684l-.343 1.333q0 .076.229.076.228 0 1.542.038 1.695 0 1.828-.019 1.18-.133 2.17-1.104.99-.971.99-2.361z" style="display:inline"/><g style="display:inline"><path d="M517.96 12.611h.36q-.087 1.67-1.64 1.67-.664 0-1.055-.351-.38-.352-.498-1.045-.976.693-1.787 1.045-.8.351-1.435.351-.81 0-1.397-.468-.586-.47-.586-1.24 0-1.007.977-1.759.986-.751 2.715-1.464l1.513-.616v-.39q0-.83-.107-1.201-.108-.371-.557-.664-.449-.293-1.181-.293-1.465 0-1.631.976-.157.996-.82.996-.596 0-.596-.566 0-.557.79-1.192.792-.644 2.462-.644 1.24 0 1.923.39.684.391.899.89.225.497.225 1.523v3.232q0 1.133.117 1.455.117.322.508.322.644 0 .8-.957zm-2.833-3.418-1.064.43q-2.52 1.025-2.52 2.578 0 .615.323.996.322.371.84.371.458 0 1.064-.302.605-.303 1.357-.909zM519.336 14.33v-2.627h.381q.664 2.276 2.373 2.276.742 0 1.104-.45.37-.449.37-.986 0-.625-.39-1.025-.4-.4-1.553-.967-1.21-.596-1.738-1.172-.527-.566-.527-1.397 0-.79.566-1.503.567-.723 1.592-.723 1.045 0 1.728.85.147-.147.381-.713h.362v2.47h-.362q-.195-.888-.761-1.523-.557-.645-1.319-.645-.586 0-.947.362-.361.361-.361.84 0 .527.4.908.39.39 1.494.888 1.66.752 2.031 1.465.372.723.372 1.387 0 1.045-.694 1.7-.683.653-1.728.653-1.104 0-1.963-.908-.264.293-.43.84z" style="font-size:20px;font-family:Baskerville;-inkscape-font-specification:Baskerville;text-align:center;text-anchor:middle;fill:#000;stroke:#000;stroke-width:.1;stroke-dasharray:none" transform="translate(-3.404)"/></g><g style="display:inline;stroke:#000;stroke-width:.1;stroke-dasharray:none"><path d="M552.272 14.33v-2.627h.38q.665 2.276 2.374 2.276.742 0 1.103-.45.371-.449.371-.986 0-.625-.39-1.025-.4-.4-1.553-.967-1.21-.596-1.738-1.172-.528-.566-.528-1.397 0-.79.567-1.503.566-.723 1.592-.723 1.045 0 1.728.85.147-.147.381-.713h.361v2.47h-.361q-.195-.888-.762-1.523-.556-.645-1.318-.645-.586 0-.947.362-.362.361-.362.84 0 .527.4.908.391.39 1.495.888 1.66.752 2.031 1.465.371.723.371 1.387 0 1.045-.693 1.7-.684.653-1.729.653-1.103 0-1.963-.908-.263.293-.43.84zM563.62 6.527h-2.413v4.834q0 1.114.098 1.504.098.381.41.616.323.234.684.234.703 0 1.22-.8l.313.185q-.303.644-.898.976-.586.322-1.192.322-.703 0-1.24-.41-.527-.42-.664-.976-.127-.557-.127-1.953V6.527h-1.162v-.449q.8-.02 1.435-.674t.81-1.836h.313v2.51h2.413zM572.77 12.611h.361q-.088 1.67-1.64 1.67-.664 0-1.055-.351-.381-.352-.498-1.045-.977.693-1.787 1.045-.801.351-1.436.351-.81 0-1.396-.468-.586-.47-.586-1.24 0-1.007.976-1.759.987-.751 2.715-1.464l1.514-.616v-.39q0-.83-.108-1.201-.107-.371-.556-.664-.45-.293-1.182-.293-1.465 0-1.63.976-.157.996-.821.996-.596 0-.596-.566 0-.557.791-1.192.791-.644 2.461-.644 1.24 0 1.924.39.684.391.899.89.224.497.224 1.523v3.232q0 1.133.117 1.455.117.322.508.322.645 0 .8-.957zm-2.832-3.418-1.065.43q-2.52 1.025-2.52 2.578 0 .615.323.996.322.371.84.371.459 0 1.064-.302.606-.303 1.358-.909zM578.327 12.563l1.855-4.444q.4-.976.4-1.084 0-.488-1.084-.508v-.449h2.813v.45q-.654.029-.957.351-.303.312-.752 1.396l-3.565 8.604q-.507 1.23-.898 1.67-.39.45-.86.45-.634 0-.634-.577 0-.664 1.016-1.123.595-.264.79-.45.206-.185.4-.673l.763-1.904-3.008-6.446q-.4-.85-.664-1.074-.264-.225-.899-.225v-.449h3.672v.45q-.967.029-.967.4 0 .146.381.957zM583.121 14.33v-2.627h.381q.664 2.276 2.373 2.276.743 0 1.104-.45.371-.449.371-.986 0-.625-.39-1.025-.401-.4-1.553-.967-1.211-.596-1.739-1.172-.527-.566-.527-1.397 0-.79.566-1.503.567-.723 1.592-.723 1.045 0 1.729.85.146-.147.38-.713h.362v2.47h-.361q-.196-.888-.762-1.523-.557-.645-1.319-.645-.585 0-.947.362-.361.361-.361.84 0 .527.4.908.39.39 1.494.888 1.66.752 2.032 1.465.37.723.37 1.387 0 1.045-.693 1.7-.683.653-1.728.653-1.104 0-1.963-.908-.264.293-.43.84z" style="font-size:20px;font-family:Baskerville;-inkscape-font-specification:Baskerville;text-align:center;text-anchor:middle;stroke:#000;stroke-width:.1;stroke-dasharray:none" transform="translate(-2.686)"/></g><g style="display:inline"><path d="M602.79 12.611h.36q-.087 1.67-1.64 1.67-.664 0-1.055-.351-.38-.352-.498-1.045-.976.693-1.787 1.045-.8.351-1.435.351-.81 0-1.397-.468-.586-.47-.586-1.24 0-1.007.977-1.759.986-.751 2.715-1.464l1.513-.616v-.39q0-.83-.107-1.201-.107-.371-.557-.664-.449-.293-1.181-.293-1.465 0-1.631.976-.156.996-.82.996-.596 0-.596-.566 0-.557.79-1.192.792-.644 2.462-.644 1.24 0 1.924.39.683.391.898.89.225.497.225 1.523v3.232q0 1.133.117 1.455.117.322.508.322.644 0 .8-.957zm-2.833-3.418-1.064.43q-2.52 1.025-2.52 2.578 0 .615.323.996.322.371.84.371.459 0 1.064-.302.605-.303 1.357-.909zM608.649 6.527h-2.412v4.834q0 1.114.097 1.504.098.381.41.616.323.234.684.234.703 0 1.22-.8l.313.185q-.302.644-.898.976-.586.322-1.191.322-.704 0-1.24-.41-.528-.42-.665-.976-.127-.557-.127-1.953V6.527h-1.162v-.449q.8-.02 1.436-.674.634-.654.81-1.836h.313v2.51h2.412z" style="font-size:20px;font-family:Baskerville;-inkscape-font-specification:Baskerville;text-align:center;text-anchor:middle;stroke:#000;stroke-width:.1;stroke-dasharray:none" transform="translate(-2.327)"/></g><use xlink:href="#b" x="4450" style="display:inline" transform="matrix(.01904 0 0 -.01904 443.41 14.267)"/><g style="display:inline"><path d="M555.207 44.333h.361q-.088 1.67-1.64 1.67-.664 0-1.055-.352-.38-.351-.498-1.045-.977.694-1.787 1.045-.801.352-1.436.352-.81 0-1.396-.469-.586-.469-.586-1.24 0-1.006.976-1.758.987-.752 2.715-1.465l1.514-.615v-.39q0-.83-.107-1.202-.108-.371-.557-.664-.45-.293-1.182-.293-1.465 0-1.63.977-.157.996-.82.996-.597 0-.597-.567 0-.556.791-1.191.791-.645 2.461-.645 1.24 0 1.924.391.684.39.899.889.224.498.224 1.523v3.232q0 1.133.117 1.456.118.322.508.322.645 0 .801-.957zm-2.832-3.418-1.065.43q-2.519 1.025-2.519 2.578 0 .615.322.996.322.37.84.37.459 0 1.065-.302.605-.303 1.357-.908zM558.527 37.477h.264q.225.606.254 1.65.703-.83 1.474-1.24.772-.41 1.612-.41.957 0 1.562.4.616.401.791.987.176.576.176 1.69v2.5q0 1.386.049 1.689.049.303.303.459.263.146.957.146v.45h-4.092v-.45h.185q.704 0 .918-.205.215-.205.245-.478.029-.274.029-1.611v-2.579q0-.947-.098-1.347-.088-.41-.498-.723-.4-.312-1.025-.312-.713 0-1.368.43-.644.42-1.22 1.269v3.262q0 1.386.049 1.689.058.303.312.459.264.146.967.146v.45h-4.043v-.45q.674 0 .937-.136.264-.137.323-.41.068-.284.068-1.748V40.67q0-1.397-.059-1.69-.048-.302-.312-.449-.254-.156-.957-.156v-.45q1.074-.117 2.197-.449zM573.908 38.65v-3.126q0-1.28-.039-1.611-.03-.332-.273-.508-.245-.176-.87-.176h-.205v-.449q1.182-.03 2.588-.41h.205v10.752q0 1.396.05 1.7.048.302.302.448.264.147.967.147v.449q-1.416.03-2.52.254-.117-.46-.117-1.445-.723.722-1.494 1.084-.762.36-1.582.36-1.553 0-2.686-1.25-1.123-1.25-1.123-3.026 0-1.954 1.153-3.155 1.152-1.21 2.744-1.21.81 0 1.533.292.723.293 1.367.88zm0 .566q-.644-.557-1.299-.83-.644-.284-1.299-.284-1.103 0-1.845.85-.733.85-.733 2.773 0 1.954.752 2.881.762.928 1.875.928.742 0 1.377-.352.635-.351 1.172-1.054z" style="font-size:20px;font-family:Baskerville;-inkscape-font-specification:Baskerville;stroke:#000;stroke-width:.1;stroke-dasharray:none" transform="translate(-2.566)"/></g><use xlink:href="#c" x="5201" style="display:inline" transform="matrix(.01904 0 0 -.01904 482.73 46.165)"/><g style="display:inline" transform="translate(326.253 29.957)"><g transform="matrix(.01904 0 0 -.01904 148.891 15.88)"><use xlink:href="#d"/><use xlink:href="#e" x="511" y="-213" transform="scale(.707)"/></g><use xlink:href="#f" x="7875" transform="matrix(.01904 0 0 -.01904 18.715 15.88)"/><use xlink:href="#g" x="8876" transform="matrix(.01904 0 0 -.01904 18.715 15.88)"/><use xlink:href="#d" x="9709" transform="matrix(.01904 0 0 -.01904 18.715 15.88)"/></g><g style="display:inline"><path d="M614.631 38.512q.83-.937 1.68-.937.469 0 .723.254.263.254.263.557 0 .644-.586.644-.322 0-.556-.4-.215-.371-.45-.371-.37 0-.82.507.508.801.508 1.7 0 1.171-.84 2.07-.84.908-2.832.976-2.07.069-2.07.84 0 .362.469.508.459.156 1.933.235 1.611.078 2.48.302.87.215 1.387.88.518.663.518 1.581 0 1.29-1.055 2.08-1.054.791-3.037.791-1.816 0-2.91-.703t-1.094-1.777q0-.596.313-.977.312-.38.888-.38.157 0 .284.048-.606.664-.606 1.406 0 .86.8 1.416.811.567 2.413.567 1.426 0 2.217-.576.8-.567.8-1.455 0-.977-.712-1.377-.713-.39-2.54-.47-2.099-.087-2.724-.517-.625-.42-.625-1.084 0-1.279 1.787-1.61-.928-.548-1.396-1.25-.47-.704-.47-1.573 0-1.22.958-2.07.967-.86 2.285-.86 1.631 0 2.617 1.025zm-4.394 2.13q0 1.26.517 1.845.518.586 1.319.586.742 0 1.27-.576.536-.586.536-2.022 0-1.445-.566-1.992-.566-.547-1.28-.547-.898 0-1.347.674-.45.674-.45 2.031zM617.893 41.794q0-1.836 1.23-3.067 1.23-1.24 3.028-1.24 1.806 0 3.037 1.24 1.23 1.24 1.23 3.067 0 2.021-1.25 3.183-1.25 1.153-3.017 1.153-1.768 0-3.018-1.172-1.24-1.182-1.24-3.164zm1.621.049q0 2.128.693 2.988.694.85 1.944.85 1.28 0 1.953-.85.684-.86.684-2.988 0-2.11-.674-3.008-.674-.899-1.963-.899-1.28 0-1.963.899-.674.888-.674 3.008zM635.14 40.514h-5.577q-.04.577-.04.86 0 2.11.655 3.174.664 1.054 1.973 1.054 1.777 0 2.52-1.591h.468q-.312.996-1.24 1.562-.928.557-2.022.557-1.015 0-1.923-.508-.899-.518-1.475-1.455-.576-.938-.576-2.276 0-1.894 1.113-3.144 1.113-1.26 2.783-1.26 1.572 0 2.432.957.86.957.908 2.07zm-1.71-.39q.03-.225.03-.4 0-.86-.508-1.329-.498-.478-1.23-.478-1.778 0-2.12 2.207zM636.711 46.061v-2.627h.381q.664 2.276 2.373 2.276.742 0 1.104-.45.37-.449.37-.986 0-.625-.39-1.025-.4-.4-1.552-.967-1.211-.596-1.739-1.172-.527-.566-.527-1.396 0-.791.566-1.504.567-.723 1.592-.723 1.045 0 1.729.85.146-.147.38-.713h.362v2.47h-.362q-.195-.888-.761-1.523-.557-.644-1.319-.644-.586 0-.947.36-.361.362-.361.84 0 .528.4.909.39.39 1.494.889 1.66.752 2.032 1.464.37.723.37 1.387 0 1.045-.693 1.7-.683.654-1.728.654-1.104 0-1.963-.909-.264.293-.43.84z" style="font-size:20px;font-family:Baskerville;-inkscape-font-specification:Baskerville;text-align:center;text-anchor:middle;stroke:#000;stroke-width:.1;stroke-dasharray:none" transform="translate(-4.72)"/></g><g style="display:inline"><path d="M556.672 70.185h-2.412v4.834q0 1.113.097 1.504.098.38.41.615.323.234.684.234.703 0 1.221-.8l.312.185q-.302.645-.898.977-.586.322-1.191.322-.704 0-1.24-.41-.528-.42-.665-.977-.127-.556-.127-1.953v-4.531h-1.162v-.45q.801-.019 1.436-.673.635-.654.81-1.836h.313v2.51h2.412zM557.756 73.72q0-1.836 1.23-3.066 1.23-1.24 3.028-1.24 1.806 0 3.037 1.24 1.23 1.24 1.23 3.066 0 2.022-1.25 3.184-1.25 1.152-3.017 1.152-1.768 0-3.018-1.172-1.24-1.181-1.24-3.164zm1.621.049q0 2.129.693 2.988.694.85 1.944.85 1.28 0 1.953-.85.684-.86.684-2.988 0-2.11-.674-3.008-.674-.898-1.963-.898-1.28 0-1.963.898-.674.889-.674 3.008z" style="font-size:20px;font-family:Baskerville;-inkscape-font-specification:Baskerville;stroke-width:.1;stroke-dasharray:none" transform="translate(-3.045)"/></g><g style="display:inline" transform="translate(423.109 61.854)"><g transform="matrix(.01904 0 0 -.01904 148.891 15.88)"><use xlink:href="#d"/><use xlink:href="#e" x="511" y="-213" transform="scale(.707)"/></g><use xlink:href="#f" x="7875" transform="matrix(.01904 0 0 -.01904 18.715 15.88)"/><use xlink:href="#g" x="8876" transform="matrix(.01904 0 0 -.01904 18.715 15.88)"/><use xlink:href="#d" x="9709" transform="matrix(.01904 0 0 -.01904 18.715 15.88)"/></g><g style="display:inline"><path d="M483.993 69.764v.45h-1.67v4.804q0 1.28.03 1.611.039.332.283.508.244.176.869.176h.42v.45h-4.326v-.45q.674 0 .927-.137.264-.136.323-.41.068-.283.068-1.748v-4.805h-1.494v-.449h1.494v-.723q0-1.21.098-1.875.097-.664.547-1.367.459-.713 1.142-1.093.694-.381 1.64-.381 1.153 0 1.847.478.693.479.693.977 0 .283-.195.468-.196.186-.46.186-.517 0-.947-.8-.478-.88-1.24-.88-.615 0-1.084.45-.459.439-.547 1.103-.088.664-.088 2.852v.605z" style="font-size:20px;font-family:Baskerville;-inkscape-font-specification:Baskerville;text-align:center;text-anchor:middle;stroke:#000;stroke-width:.1;stroke-dasharray:none" transform="translate(1.5)"/><path d="M487.88 71.483q.332-.87 1.074-1.455.752-.586 1.465-.586.645 0 1.016.4.37.4.37.82 0 .284-.195.489-.185.205-.459.205-.488 0-.742-.723-.176-.488-.527-.488-.42 0-1.006.576-.586.567-.752 1.182-.166.615-.166 1.69v1.425q0 1.28.03 1.611.038.332.283.508.244.176.869.176h.273v.45h-4.248v-.45h.205q.586 0 .83-.156.254-.166.303-.46.049-.292.049-1.679v-2.256q0-1.289-.04-1.611-.029-.332-.273-.508-.244-.186-.869-.186h-.205v-.439q.918-.107 2.402-.576.284.771.313 2.04zM492.206 73.748q0-1.835 1.23-3.066 1.231-1.24 3.028-1.24 1.807 0 3.037 1.24t1.23 3.066q0 2.022-1.25 3.184-1.25 1.152-3.017 1.152-1.768 0-3.018-1.171-1.24-1.182-1.24-3.165zm1.621.05q0 2.128.694 2.988.693.85 1.943.85 1.28 0 1.953-.85.684-.86.684-2.989 0-2.109-.674-3.007-.674-.899-1.963-.899-1.28 0-1.963.899-.674.888-.674 3.007zM504.267 69.442h.097q.284.654.284 1.68.654-.84 1.406-1.26.762-.42 1.63-.42.987 0 1.602.45.615.448.86 1.347.742-.899 1.523-1.348.781-.45 1.592-.45.928 0 1.572.43.645.43.781.977.137.547.137 1.768v2.402q0 1.397.049 1.7.058.302.312.448.264.147.967.147v.45h-3.994v-.45q.635 0 .889-.137.263-.146.322-.43.059-.292.059-1.728v-2.666q0-.81-.098-1.22-.088-.41-.479-.704-.39-.293-1.015-.293-.635 0-1.28.43-.634.43-1.279 1.299v3.154q0 1.28.03 1.611.039.323.273.508.244.176.86.176v.45h-3.868v-.45q.654 0 .908-.137.264-.136.323-.42.068-.283.068-1.738v-2.217q0-1.054-.088-1.523-.078-.479-.498-.81-.42-.343-1.045-.343-.605 0-1.24.391-.625.39-1.28 1.172v3.33q0 1.318.04 1.64.039.323.293.489.253.166.908.166v.45h-3.916v-.45q.644 0 .898-.137.264-.146.322-.43.06-.283.06-1.728v-2.393q0-1.367-.05-1.67-.039-.312-.302-.468-.254-.156-.928-.156v-.45q1.387-.136 2.295-.44z" style="font-size:20px;font-family:Baskerville;-inkscape-font-specification:Baskerville;text-align:center;text-anchor:middle;stroke:#000;stroke-width:.1;stroke-dasharray:none" transform="translate(1.5)"/></g><g style="display:inline" transform="matrix(.01904 0 0 -.01904 526.874 77.737)"><use xlink:href="#d"/><use xlink:href="#e" x="511" y="-213" transform="scale(.707)"/></g></g><g transform="matrix(.01904 0 0 -.01904 270.604 -251.686)"><use xlink:href="#g" x="8876"/><use xlink:href="#d" x="9709"/></g><path d="M463.703 20.978h183.962" style="opacity:1;fill:#eef4d7;fill-opacity:1;stroke:#000;stroke-width:1.1;stroke-dasharray:none" transform="translate(-106.442 -299.422)"/><circle cx="379.81" cy="148.08" r=".02" style="fill:#fff9f3;stroke:#000"/><path d="M353.596 125.762c1.567-.452 3.186-.724 4.802-.932 1.18-.227 2.308-.045 3.422.342.946.485 1.985.63 3.035.651 1.388.035 2.725-.352 4.054-.699 1.255-.322 2.52-.573 3.809-.7 1.433-.027 2.863.093 4.283.27 1.193.183 2.354.495 3.5.863 1.033.375 2.108.373 3.188.315a38.168 38.168 0 0 0 4.01-.66 30.747 30.747 0 0 1 4.165-.754c1.098-.109 2.202-.123 3.305-.126.953-.02 1.894.153 2.82.358.942.15 1.87.373 2.813.509.895.161 1.79.027 2.684-.062.472-.053.947-.073 1.42-.103.022 0 .042-.002.063-.003l-.876-.627-.06.005c-.456.041-.91.106-1.366.146-.894.103-1.79.204-2.683.03-.937-.142-1.862-.353-2.797-.505-.92-.193-1.856-.351-2.8-.315-1.095.015-2.19.05-3.278.157-1.413.157-2.801.43-4.185.752a34.175 34.175 0 0 1-4.014.637c-1.08.04-2.153.02-3.184-.354-1.139-.36-2.296-.653-3.48-.825-1.408-.157-2.824-.259-4.242-.215-1.28.15-2.535.417-3.784.733-1.323.348-2.656.729-4.04.68-1.047-.038-2.07-.206-3.02-.672-1.097-.346-2.194-.46-3.336-.233-1.598.243-3.193.539-4.747.989zM258.743 155.323c2.598-.252 5.202-.41 7.81-.52 3.277-.047 6.557-.026 9.8.474.451.08.903.156 1.353.241.804.152 1.807-.283 2.617-.164 1.406.205 2.81.253 4.227.27 3.017-.005 6.018-.358 9.02-.608 2.52-.276 5.042-.189 7.56.016 2.627.356 5.262.505 7.91.502 2.605-.031 5.21-.096 7.817-.111 2.25.14 4.491.186 6.742.063 2.547-.18 5.096-.29 7.644-.456 2.045-.128 4.084.694 6.123.834 2.392.184 4.789-.041 7.175-.199a59.612 59.612 0 0 1 6.866-.14c2.182.232 4.36.394 6.555.372 2.485-.107 4.96-.35 7.436-.563 2.208-.176 4.423-.222 6.637-.244 2.394-.004 4.786.676 7.17.476 2.11-.187 4.211-.422 6.326-.54 1.698-.135 3.394-.037 5.09.07 1.783.21 3.571.348 5.365.422 1.654.1 3.304.062 4.955-.06.538-.14 1.174.033 1.704-.147l-.976-.678s-1.068.166-1.608.197c-1.63.16-3.26.18-4.896.087a83.526 83.526 0 0 1-5.414-.461c-1.672-.1-3.34-.156-5.012.002-2.112.137-4.215.359-6.324.544-2.385.196-4.777-.49-7.171-.485-2.207.028-4.415.067-6.614.269-2.486.209-4.971.45-7.466.532-2.193.006-4.37-.162-6.55-.375-2.289-.08-4.573.01-6.857.16-2.398.147-4.805.365-7.207.16-2.028-.15-4.057-.943-6.092-.794-2.544.192-5.092.287-7.638.457-2.24.104-4.473.055-6.712-.046-2.597.048-5.194.094-7.79.13a61.77 61.77 0 0 1-7.903-.506c-2.49-.173-4.983-.22-7.47.066-2.999.27-6 .6-9.015.602-1.419-.021-2.82-.077-4.226-.285-.818-.12-1.79.324-2.602.176-.445-.08-.891-.151-1.336-.227-3.225-.465-6.482-.452-9.735-.409a164.63 164.63 0 0 0-7.833.5z" style="fill:red;fill-opacity:.467925;stroke:red;stroke-width:1;stroke-dasharray:none;stroke-opacity:.713208"/><path d="M348.165 101.178c.162 3.54.278 7.08.526 10.617.344 3.92.444 7.854.635 11.782.129 2.292.18 4.587.412 6.872.054.24.013.532.132.759l.892.377c-.249-.097.102-.643-.17-.714-.32-2.298-.39-4.617-.544-6.93-.247-3.958-.43-7.919-.8-11.868-.263-3.54-.398-7.083-.549-10.629z" style="fill:red;fill-opacity:.46792454;stroke:red;stroke-width:1;stroke-dasharray:none;stroke-opacity:.71320754"/><path d="M347.255 102.366c2.495-.293 5.004-.436 7.511-.585 4.286-.274 8.58-.065 12.866.113 1.14.053 2.281.104 3.42.172.316.019.703-.008.998.13-.225-.11-.433-.262-.673-.334-.042-.013.003.088 0 .132-.009.092-.025.182-.035.274-.076.729-.158 1.455-.247 2.183-.486 3.326-.67 6.683-.977 10.028-.18 2.408-.512 4.803-.66 7.214-.067 1.093-.075 2.169-.095 3.263.001 2.202 0 4.404-.006 6.606-.024.32.008.19-.062.4l.876.515c.2-.2.124-.07.172-.416a120.525 120.525 0 0 1-.138-6.675c.057-3.507.398-6.99.73-10.481.3-3.349.445-6.714.943-10.042.096-.73.186-1.454.244-2.188.006-.072.044-.45.032-.46-.229-.213-.513-.358-.77-.537-.298-.067-.632-.044-.934-.053-1.111-.034-2.223-.07-3.335-.11-4.272-.16-8.552-.369-12.824-.074-2.507.15-5.018.287-7.512.59z" style="fill:red;fill-opacity:.46792454;stroke:red;stroke-width:1;stroke-dasharray:none;stroke-opacity:.71320754"/><path d="M350.67 130.084c3.011-.523 6.069-.594 9.117-.63 3.427.057 6.854.164 10.275.37l.558.04-.668-.49-.535-.023c-3.377-.104-6.754-.236-10.132-.261-3.036.054-6.074.155-9.073.675z" style="fill:red;fill-opacity:.46792454;stroke:red;stroke-width:1;stroke-dasharray:none;stroke-opacity:.71320754"/><g style="stroke-width:1.05264"><g style="stroke-width:1.05264" transform="matrix(.95 0 0 .95 -200.264 76.211)"><path stroke-width=".02" d="M470.609 85.19v.12q0 .122-.114.364h-.305q-.343 0-.362-.04-.114-.121-.857-1.978-8.282-19.904-8.282-58.539 0-38.635 8.282-58.498.476-1.211.838-1.978.038-.04.362-.04h.324q.114.241.114.363 0 .161-.343 1.13-.343.969-.971 2.786-.628 1.816-1.333 4.32-.704 2.502-1.504 6.338-.8 3.835-1.466 8.235-2.19 15.1-2.19 37.344 0 19.903 1.771 34.316 1.77 14.412 5.77 24.99.266.767.266.888zM641.988 85.19v.12q0 .122.114.364h.305q.343 0 .362-.04.114-.121.857-1.978 8.282-19.904 8.282-58.539 0-38.635-8.282-58.498-.476-1.211-.838-1.978-.038-.04-.362-.04h-.324q-.114.241-.114.363 0 .161.343 1.13.343.969.971 2.786.628 1.816 1.333 4.32.704 2.502 1.504 6.338.8 3.835 1.466 8.235 2.19 15.1 2.19 37.344 0 19.903-1.771 34.316-1.77 14.412-5.77 24.99-.266.767-.266.888z" style="display:inline;fill:#000;stroke:#000"/><g style="display:inline;stroke-width:1.05264"><path d="M509.492-19.737h.43q-.664 2.275-3.32 2.275-1.71 0-2.881-1.162-1.162-1.162-1.162-3.076 0-1.963 1.26-3.183 1.26-1.221 2.978-1.221 1.035 0 1.904.459.87.449.87 1.103 0 .244-.166.46-.157.214-.46.214-.644 0-.79-.752-.118-.566-.362-.79-.254-.225-.986-.225-1.309 0-1.973.908-.654.908-.654 2.734 0 1.885.703 2.95.713 1.064 2.149 1.064 1.933 0 2.46-1.758zM513.428-24.464q.586-.82 1.309-1.23.732-.41 1.601-.41.987 0 1.631.41.654.41.85 1.016.195.595.195 1.943v2.207q0 1.406.049 1.709.058.303.322.45.264.136.977.136v.45h-4.131v-.45h.185q.713 0 .918-.205.215-.205.244-.479.04-.283.04-1.611v-2.402q0-.996-.118-1.475-.117-.478-.556-.791-.43-.312-1.084-.312-.762 0-1.367.449-.606.44-1.065 1.328v3.203q0 1.348.04 1.66.048.313.302.479.254.156.928.156v.45h-4.063v-.45h.205q.703 0 .908-.195.215-.205.245-.479.039-.283.039-1.621v-7.969q0-1.21-.235-1.533-.224-.322-1.093-.322v-.45q1.513 0 2.519-.41h.205zM529.6-19.249h.361q-.088 1.67-1.64 1.67-.664 0-1.055-.351-.38-.352-.498-1.045-.977.693-1.787 1.045-.801.351-1.436.351-.81 0-1.396-.469-.586-.468-.586-1.24 0-1.006.976-1.758.987-.752 2.715-1.464l1.514-.616v-.39q0-.83-.108-1.201-.107-.372-.556-.665-.45-.293-1.182-.293-1.465 0-1.63.977-.157.996-.821.996-.596 0-.596-.566 0-.557.791-1.192.791-.644 2.461-.644 1.24 0 1.924.39.684.391.899.89.224.497.224 1.523v3.232q0 1.133.117 1.455.118.322.508.322.645 0 .8-.957zm-2.832-3.418-1.065.43q-2.52 1.025-2.52 2.578 0 .615.323.996.322.371.84.371.459 0 1.064-.302.606-.303 1.358-.909zM532.92-26.104h.264q.225.605.254 1.65.703-.83 1.474-1.24.772-.41 1.612-.41.957 0 1.562.4.615.4.791.987.176.576.176 1.689v2.5q0 1.387.049 1.69.049.302.303.458.263.147.957.147v.45h-4.092v-.45h.185q.703 0 .918-.205.215-.205.244-.479.03-.273.03-1.611v-2.578q0-.947-.098-1.348-.088-.41-.498-.722-.4-.313-1.025-.313-.713 0-1.368.43-.644.42-1.22 1.27v3.261q0 1.387.049 1.69.058.302.312.458.264.147.967.147v.45h-4.043v-.45q.674 0 .937-.137.264-.137.323-.41.068-.283.068-1.748v-2.383q0-1.396-.059-1.69-.048-.302-.312-.449-.254-.156-.957-.156v-.449q1.074-.117 2.197-.45zM547.647-25.079q.83-.937 1.68-.937.468 0 .722.254.264.254.264.556 0 .645-.586.645-.322 0-.557-.4-.215-.372-.449-.372-.371 0-.82.508.508.8.508 1.7 0 1.171-.84 2.07-.84.908-2.832.976-2.07.069-2.07.84 0 .361.468.508.46.156 1.934.234 1.611.078 2.48.303.87.215 1.387.879t.517 1.582q0 1.289-1.054 2.08-1.055.791-3.037.791-1.817 0-2.91-.703-1.094-.703-1.094-1.777 0-.596.312-.977.313-.38.889-.38.156 0 .283.048-.605.664-.605 1.406 0 .86.8 1.416.811.567 2.413.567 1.425 0 2.216-.577.801-.566.801-1.455 0-.976-.713-1.377-.713-.39-2.539-.468-2.1-.088-2.724-.518-.625-.42-.625-1.084 0-1.28 1.787-1.611-.928-.547-1.397-1.25t-.469-1.573q0-1.22.957-2.07.967-.86 2.286-.86 1.63 0 2.617 1.026zm-4.395 2.13q0 1.259.518 1.845.517.586 1.318.586.742 0 1.27-.576.537-.586.537-2.022 0-1.445-.567-1.992-.566-.547-1.279-.547-.898 0-1.348.674-.449.674-.449 2.031zM558.155-23.077h-5.577q-.039.576-.039.86 0 2.109.655 3.173.664 1.055 1.972 1.055 1.778 0 2.52-1.592h.469q-.313.996-1.24 1.563-.928.556-2.022.556-1.016 0-1.924-.507-.898-.518-1.475-1.456-.576-.937-.576-2.275 0-1.894 1.114-3.144 1.113-1.26 2.783-1.26 1.572 0 2.431.957.86.957.909 2.07zm-1.71-.39q.03-.225.03-.4 0-.86-.508-1.329-.498-.479-1.23-.479-1.778 0-2.12 2.208z" style="font-size:20px;font-family:Baskerville;-inkscape-font-specification:Baskerville;stroke:#000;stroke-width:.105264;stroke-dasharray:none" transform="translate(-3.404)"/></g><g style="display:inline;stroke-width:1.05264"><path d="M565.62-30.186q0-.42.294-.723.302-.303.722-.303t.713.303q.293.303.293.723 0 .43-.293.732-.293.303-.713.303t-.722-.303q-.293-.303-.293-.732zm1.885 4.082v5.576q0 1.28.04 1.611.039.332.283.508.244.176.869.176h.205v.45h-4.307v-.45h.332q.694 0 .899-.195.215-.205.244-.479.04-.283.04-1.621v-2.422q0-1.406-.138-1.719-.127-.312-.351-.39-.215-.078-.762-.078h-.264v-.45q1.739-.175 2.696-.517zM572.037-26.104h.263q.225.605.254 1.65.703-.83 1.475-1.24.771-.41 1.611-.41.957 0 1.563.4.615.4.79.987.177.576.177 1.689v2.5q0 1.387.048 1.69.05.302.303.458.264.147.957.147v.45h-4.092v-.45h.186q.703 0 .918-.205.215-.205.244-.479.03-.273.03-1.611v-2.578q0-.947-.098-1.348-.088-.41-.498-.722-.4-.313-1.026-.313-.713 0-1.367.43-.645.42-1.22 1.27v3.261q0 1.387.048 1.69.059.302.313.458.263.147.966.147v.45h-4.043v-.45q.674 0 .938-.137.264-.137.322-.41.069-.283.069-1.748v-2.383q0-1.396-.059-1.69-.049-.302-.313-.449-.253-.156-.957-.156v-.449q1.075-.117 2.198-.45z" style="font-size:20px;font-family:Baskerville;-inkscape-font-specification:Baskerville;stroke:#000;stroke-width:.105264;stroke-dasharray:none" transform="translate(-3.045)"/></g><path d="M587.026-19.193q0 .457.876.533.343 0 .343.21 0 .019-.039.247-.057.267-.114.343-.057.076-.247.076h-.229q-.19 0-.647-.019t-1.219-.019q-1.352 0-1.732.038h-.153q-.133-.133-.133-.21.038-.513.248-.666h.266q1.333-.057 1.942-.952.114-.114 3.446-5.807 3.332-5.693 3.39-5.769.133-.229.457-.229h.476q.114.172.114.19l.533 6.15q.533 6.15.571 6.208.095.21 1.238.21.476 0 .476.19 0 .038-.057.266-.057.286-.096.343-.038.057-.266.076h-.267q-.21 0-.742-.019-.533-.019-1.39-.019-1.79 0-2.342.038h-.229q-.114-.114-.114-.171 0-.057.038-.343.076-.247.115-.305l.076-.057h.38q1.029-.057 1.22-.323l-.23-2.856h-4.53l-.648 1.104q-.78 1.314-.78 1.542zm5.864-3.541q0-.21-.228-2.97-.229-2.761-.267-2.78l-.514.818q-.304.514-1.2 2.038l-1.713 2.894 1.961.019q1.961 0 1.961-.02zM601.763-29.912q-.514 0-.61-.02-.094-.018-.094-.209 0-.514.209-.628.019-.02 2.475-.02 4.932 0 5.198.039 1.2.19 2 .857.799.666.818 1.751 0 1.219-1.104 2.19-1.105.971-2.533 1.314l-.19.057q1.219.171 2 .876.78.704.799 1.751 0 1.39-1.371 2.685-1.37 1.295-3.37 1.466-.133.02-4.018.02-3.808 0-3.865-.039-.076-.057-.076-.152 0-.134.038-.267.095-.362.19-.4.077-.019.286-.019h.114q.515 0 1.143-.057.266-.057.362-.228.057-.076 1.37-5.293 1.314-5.217 1.314-5.503 0-.133-1.085-.171zm7.959 1.77q0-.57-.286-1.066-.285-.495-.933-.647-.133-.038-1.752-.057h-.8q-.418 0-.666.019h-.247q-.286.019-.362.19-.038.076-.61 2.285 0 .057-.018.114l-.59 2.4H605q1.542 0 1.77-.039 1.143-.19 2.038-1.104.895-.914.914-2.095zm-1.028 5.998q0-.838-.438-1.39-.438-.552-1.143-.647-.114-.02-1.58-.02-2.247 0-2.266.02 0 .038-.324 1.39-.323 1.351-.666 2.684l-.343 1.333q0 .076.229.076.228 0 1.542.038 1.695 0 1.828-.019 1.18-.133 2.17-1.104.99-.971.99-2.361z" style="display:inline"/><g style="display:inline;stroke-width:1.05264"><path d="M517.96 12.611h.36q-.087 1.67-1.64 1.67-.664 0-1.055-.351-.38-.352-.498-1.045-.976.693-1.787 1.045-.8.351-1.435.351-.81 0-1.397-.468-.586-.47-.586-1.24 0-1.007.977-1.759.986-.751 2.715-1.464l1.513-.616v-.39q0-.83-.107-1.201-.108-.371-.557-.664-.449-.293-1.181-.293-1.465 0-1.631.976-.157.996-.82.996-.596 0-.596-.566 0-.557.79-1.192.792-.644 2.462-.644 1.24 0 1.923.39.684.391.899.89.225.497.225 1.523v3.232q0 1.133.117 1.455.117.322.508.322.644 0 .8-.957zm-2.833-3.418-1.064.43q-2.52 1.025-2.52 2.578 0 .615.323.996.322.371.84.371.458 0 1.064-.302.605-.303 1.357-.909zM519.336 14.33v-2.627h.381q.664 2.276 2.373 2.276.742 0 1.104-.45.37-.449.37-.986 0-.625-.39-1.025-.4-.4-1.553-.967-1.21-.596-1.738-1.172-.527-.566-.527-1.397 0-.79.566-1.503.567-.723 1.592-.723 1.045 0 1.728.85.147-.147.381-.713h.362v2.47h-.362q-.195-.888-.761-1.523-.557-.645-1.319-.645-.586 0-.947.362-.361.361-.361.84 0 .527.4.908.39.39 1.494.888 1.66.752 2.031 1.465.372.723.372 1.387 0 1.045-.694 1.7-.683.653-1.728.653-1.104 0-1.963-.908-.264.293-.43.84z" style="font-size:20px;font-family:Baskerville;-inkscape-font-specification:Baskerville;text-align:center;text-anchor:middle;fill:#000;stroke:#000;stroke-width:.105264;stroke-dasharray:none" transform="translate(-3.404)"/></g><g style="display:inline;stroke:#000;stroke-width:.105264;stroke-dasharray:none"><path d="M552.272 14.33v-2.627h.38q.665 2.276 2.374 2.276.742 0 1.103-.45.371-.449.371-.986 0-.625-.39-1.025-.4-.4-1.553-.967-1.21-.596-1.738-1.172-.528-.566-.528-1.397 0-.79.567-1.503.566-.723 1.592-.723 1.045 0 1.728.85.147-.147.381-.713h.361v2.47h-.361q-.195-.888-.762-1.523-.556-.645-1.318-.645-.586 0-.947.362-.362.361-.362.84 0 .527.4.908.391.39 1.495.888 1.66.752 2.031 1.465.371.723.371 1.387 0 1.045-.693 1.7-.684.653-1.729.653-1.103 0-1.963-.908-.263.293-.43.84zM563.62 6.527h-2.413v4.834q0 1.114.098 1.504.098.381.41.616.323.234.684.234.703 0 1.22-.8l.313.185q-.303.644-.898.976-.586.322-1.192.322-.703 0-1.24-.41-.527-.42-.664-.976-.127-.557-.127-1.953V6.527h-1.162v-.449q.8-.02 1.435-.674t.81-1.836h.313v2.51h2.413zM572.77 12.611h.361q-.088 1.67-1.64 1.67-.664 0-1.055-.351-.381-.352-.498-1.045-.977.693-1.787 1.045-.801.351-1.436.351-.81 0-1.396-.468-.586-.47-.586-1.24 0-1.007.976-1.759.987-.751 2.715-1.464l1.514-.616v-.39q0-.83-.108-1.201-.107-.371-.556-.664-.45-.293-1.182-.293-1.465 0-1.63.976-.157.996-.821.996-.596 0-.596-.566 0-.557.791-1.192.791-.644 2.461-.644 1.24 0 1.924.39.684.391.899.89.224.497.224 1.523v3.232q0 1.133.117 1.455.117.322.508.322.645 0 .8-.957zm-2.832-3.418-1.065.43q-2.52 1.025-2.52 2.578 0 .615.323.996.322.371.84.371.459 0 1.064-.302.606-.303 1.358-.909zM578.327 12.563l1.855-4.444q.4-.976.4-1.084 0-.488-1.084-.508v-.449h2.813v.45q-.654.029-.957.351-.303.312-.752 1.396l-3.565 8.604q-.507 1.23-.898 1.67-.39.45-.86.45-.634 0-.634-.577 0-.664 1.016-1.123.595-.264.79-.45.206-.185.4-.673l.763-1.904-3.008-6.446q-.4-.85-.664-1.074-.264-.225-.899-.225v-.449h3.672v.45q-.967.029-.967.4 0 .146.381.957zM583.121 14.33v-2.627h.381q.664 2.276 2.373 2.276.743 0 1.104-.45.371-.449.371-.986 0-.625-.39-1.025-.401-.4-1.553-.967-1.211-.596-1.739-1.172-.527-.566-.527-1.397 0-.79.566-1.503.567-.723 1.592-.723 1.045 0 1.729.85.146-.147.38-.713h.362v2.47h-.361q-.196-.888-.762-1.523-.557-.645-1.319-.645-.585 0-.947.362-.361.361-.361.84 0 .527.4.908.39.39 1.494.888 1.66.752 2.032 1.465.37.723.37 1.387 0 1.045-.693 1.7-.683.653-1.728.653-1.104 0-1.963-.908-.264.293-.43.84z" style="font-size:20px;font-family:Baskerville;-inkscape-font-specification:Baskerville;text-align:center;text-anchor:middle;stroke:#000;stroke-width:.105264;stroke-dasharray:none" transform="translate(-2.686)"/></g><g style="display:inline;stroke-width:1.05264"><path d="M602.79 12.611h.36q-.087 1.67-1.64 1.67-.664 0-1.055-.351-.38-.352-.498-1.045-.976.693-1.787 1.045-.8.351-1.435.351-.81 0-1.397-.468-.586-.47-.586-1.24 0-1.007.977-1.759.986-.751 2.715-1.464l1.513-.616v-.39q0-.83-.107-1.201-.107-.371-.557-.664-.449-.293-1.181-.293-1.465 0-1.631.976-.156.996-.82.996-.596 0-.596-.566 0-.557.79-1.192.792-.644 2.462-.644 1.24 0 1.924.39.683.391.898.89.225.497.225 1.523v3.232q0 1.133.117 1.455.117.322.508.322.644 0 .8-.957zm-2.833-3.418-1.064.43q-2.52 1.025-2.52 2.578 0 .615.323.996.322.371.84.371.459 0 1.064-.302.605-.303 1.357-.909zM608.649 6.527h-2.412v4.834q0 1.114.097 1.504.098.381.41.616.323.234.684.234.703 0 1.22-.8l.313.185q-.302.644-.898.976-.586.322-1.191.322-.704 0-1.24-.41-.528-.42-.665-.976-.127-.557-.127-1.953V6.527h-1.162v-.449q.8-.02 1.436-.674.634-.654.81-1.836h.313v2.51h2.412z" style="font-size:20px;font-family:Baskerville;-inkscape-font-specification:Baskerville;text-align:center;text-anchor:middle;stroke:#000;stroke-width:.105264;stroke-dasharray:none" transform="translate(-2.327)"/></g><use xlink:href="#b" x="4450" style="display:inline;stroke-width:1.05264" transform="matrix(.01904 0 0 -.01904 443.41 14.267)"/><g style="display:inline;stroke-width:1.05264"><path d="M555.207 44.333h.361q-.088 1.67-1.64 1.67-.664 0-1.055-.352-.38-.351-.498-1.045-.977.694-1.787 1.045-.801.352-1.436.352-.81 0-1.396-.469-.586-.469-.586-1.24 0-1.006.976-1.758.987-.752 2.715-1.465l1.514-.615v-.39q0-.83-.107-1.202-.108-.371-.557-.664-.45-.293-1.182-.293-1.465 0-1.63.977-.157.996-.82.996-.597 0-.597-.567 0-.556.791-1.191.791-.645 2.461-.645 1.24 0 1.924.391.684.39.899.889.224.498.224 1.523v3.232q0 1.133.117 1.456.118.322.508.322.645 0 .801-.957zm-2.832-3.418-1.065.43q-2.519 1.025-2.519 2.578 0 .615.322.996.322.37.84.37.459 0 1.065-.302.605-.303 1.357-.908zM558.527 37.477h.264q.225.606.254 1.65.703-.83 1.474-1.24.772-.41 1.612-.41.957 0 1.562.4.616.401.791.987.176.576.176 1.69v2.5q0 1.386.049 1.689.049.303.303.459.263.146.957.146v.45h-4.092v-.45h.185q.704 0 .918-.205.215-.205.245-.478.029-.274.029-1.611v-2.579q0-.947-.098-1.347-.088-.41-.498-.723-.4-.312-1.025-.312-.713 0-1.368.43-.644.42-1.22 1.269v3.262q0 1.386.049 1.689.058.303.312.459.264.146.967.146v.45h-4.043v-.45q.674 0 .937-.136.264-.137.323-.41.068-.284.068-1.748V40.67q0-1.397-.059-1.69-.048-.302-.312-.449-.254-.156-.957-.156v-.45q1.074-.117 2.197-.449zM573.908 38.65v-3.126q0-1.28-.039-1.611-.03-.332-.273-.508-.245-.176-.87-.176h-.205v-.449q1.182-.03 2.588-.41h.205v10.752q0 1.396.05 1.7.048.302.302.448.264.147.967.147v.449q-1.416.03-2.52.254-.117-.46-.117-1.445-.723.722-1.494 1.084-.762.36-1.582.36-1.553 0-2.686-1.25-1.123-1.25-1.123-3.026 0-1.954 1.153-3.155 1.152-1.21 2.744-1.21.81 0 1.533.292.723.293 1.367.88zm0 .566q-.644-.557-1.299-.83-.644-.284-1.299-.284-1.103 0-1.845.85-.733.85-.733 2.773 0 1.954.752 2.881.762.928 1.875.928.742 0 1.377-.352.635-.351 1.172-1.054z" style="font-size:20px;font-family:Baskerville;-inkscape-font-specification:Baskerville;stroke:#000;stroke-width:.105264;stroke-dasharray:none" transform="translate(-2.566)"/></g><use xlink:href="#c" x="5201" style="display:inline;stroke-width:1.05264" transform="matrix(.01904 0 0 -.01904 482.73 46.165)"/><g style="display:inline;stroke-width:1.05264" transform="translate(326.253 29.957)"><g style="stroke-width:1.05264" transform="matrix(.01904 0 0 -.01904 148.891 15.88)"><use xlink:href="#d" style="stroke-width:1.05264"/><use xlink:href="#e" x="511" y="-213" style="stroke-width:1.05264" transform="scale(.707)"/></g><use xlink:href="#f" x="7875" style="stroke-width:1.05264" transform="matrix(.01904 0 0 -.01904 18.715 15.88)"/><use xlink:href="#g" x="8876" style="stroke-width:1.05264" transform="matrix(.01904 0 0 -.01904 18.715 15.88)"/><use xlink:href="#d" x="9709" style="stroke-width:1.05264" transform="matrix(.01904 0 0 -.01904 18.715 15.88)"/></g><g style="display:inline;stroke-width:1.05264"><path d="M614.631 38.512q.83-.937 1.68-.937.469 0 .723.254.263.254.263.557 0 .644-.586.644-.322 0-.556-.4-.215-.371-.45-.371-.37 0-.82.507.508.801.508 1.7 0 1.171-.84 2.07-.84.908-2.832.976-2.07.069-2.07.84 0 .362.469.508.459.156 1.933.235 1.611.078 2.48.302.87.215 1.387.88.518.663.518 1.581 0 1.29-1.055 2.08-1.054.791-3.037.791-1.816 0-2.91-.703t-1.094-1.777q0-.596.313-.977.312-.38.888-.38.157 0 .284.048-.606.664-.606 1.406 0 .86.8 1.416.811.567 2.413.567 1.426 0 2.217-.576.8-.567.8-1.455 0-.977-.712-1.377-.713-.39-2.54-.47-2.099-.087-2.724-.517-.625-.42-.625-1.084 0-1.279 1.787-1.61-.928-.548-1.396-1.25-.47-.704-.47-1.573 0-1.22.958-2.07.967-.86 2.285-.86 1.631 0 2.617 1.025zm-4.394 2.13q0 1.26.517 1.845.518.586 1.319.586.742 0 1.27-.576.536-.586.536-2.022 0-1.445-.566-1.992-.566-.547-1.28-.547-.898 0-1.347.674-.45.674-.45 2.031zM617.893 41.794q0-1.836 1.23-3.067 1.23-1.24 3.028-1.24 1.806 0 3.037 1.24 1.23 1.24 1.23 3.067 0 2.021-1.25 3.183-1.25 1.153-3.017 1.153-1.768 0-3.018-1.172-1.24-1.182-1.24-3.164zm1.621.049q0 2.128.693 2.988.694.85 1.944.85 1.28 0 1.953-.85.684-.86.684-2.988 0-2.11-.674-3.008-.674-.899-1.963-.899-1.28 0-1.963.899-.674.888-.674 3.008zM635.14 40.514h-5.577q-.04.577-.04.86 0 2.11.655 3.174.664 1.054 1.973 1.054 1.777 0 2.52-1.591h.468q-.312.996-1.24 1.562-.928.557-2.022.557-1.015 0-1.923-.508-.899-.518-1.475-1.455-.576-.938-.576-2.276 0-1.894 1.113-3.144 1.113-1.26 2.783-1.26 1.572 0 2.432.957.86.957.908 2.07zm-1.71-.39q.03-.225.03-.4 0-.86-.508-1.329-.498-.478-1.23-.478-1.778 0-2.12 2.207zM636.711 46.061v-2.627h.381q.664 2.276 2.373 2.276.742 0 1.104-.45.37-.449.37-.986 0-.625-.39-1.025-.4-.4-1.552-.967-1.211-.596-1.739-1.172-.527-.566-.527-1.396 0-.791.566-1.504.567-.723 1.592-.723 1.045 0 1.729.85.146-.147.38-.713h.362v2.47h-.362q-.195-.888-.761-1.523-.557-.644-1.319-.644-.586 0-.947.36-.361.362-.361.84 0 .528.4.909.39.39 1.494.889 1.66.752 2.032 1.464.37.723.37 1.387 0 1.045-.693 1.7-.683.654-1.728.654-1.104 0-1.963-.909-.264.293-.43.84z" style="font-size:20px;font-family:Baskerville;-inkscape-font-specification:Baskerville;text-align:center;text-anchor:middle;stroke:#000;stroke-width:.105264;stroke-dasharray:none" transform="translate(-4.72)"/></g><g style="display:inline;stroke-width:1.05264"><path d="M556.672 70.185h-2.412v4.834q0 1.113.097 1.504.098.38.41.615.323.234.684.234.703 0 1.221-.8l.312.185q-.302.645-.898.977-.586.322-1.191.322-.704 0-1.24-.41-.528-.42-.665-.977-.127-.556-.127-1.953v-4.531h-1.162v-.45q.801-.019 1.436-.673.635-.654.81-1.836h.313v2.51h2.412zM557.756 73.72q0-1.836 1.23-3.066 1.23-1.24 3.028-1.24 1.806 0 3.037 1.24 1.23 1.24 1.23 3.066 0 2.022-1.25 3.184-1.25 1.152-3.017 1.152-1.768 0-3.018-1.172-1.24-1.181-1.24-3.164zm1.621.049q0 2.129.693 2.988.694.85 1.944.85 1.28 0 1.953-.85.684-.86.684-2.988 0-2.11-.674-3.008-.674-.898-1.963-.898-1.28 0-1.963.898-.674.889-.674 3.008z" style="font-size:20px;font-family:Baskerville;-inkscape-font-specification:Baskerville;stroke-width:.105264;stroke-dasharray:none" transform="translate(-3.045)"/></g><g style="display:inline;stroke-width:1.05264" transform="translate(423.109 61.854)"><g style="stroke-width:1.05264" transform="matrix(.01904 0 0 -.01904 148.891 15.88)"><use xlink:href="#d" style="stroke-width:1.05264"/><use xlink:href="#e" x="511" y="-213" style="stroke-width:1.05264" transform="scale(.707)"/></g><use xlink:href="#f" x="7875" style="stroke-width:1.05264" transform="matrix(.01904 0 0 -.01904 18.715 15.88)"/><use xlink:href="#g" x="8876" style="stroke-width:1.05264" transform="matrix(.01904 0 0 -.01904 18.715 15.88)"/><use xlink:href="#d" x="9709" style="stroke-width:1.05264" transform="matrix(.01904 0 0 -.01904 18.715 15.88)"/></g><g style="display:inline;stroke-width:1.05264"><path d="M483.993 69.764v.45h-1.67v4.804q0 1.28.03 1.611.039.332.283.508.244.176.869.176h.42v.45h-4.326v-.45q.674 0 .927-.137.264-.136.323-.41.068-.283.068-1.748v-4.805h-1.494v-.449h1.494v-.723q0-1.21.098-1.875.097-.664.547-1.367.459-.713 1.142-1.093.694-.381 1.64-.381 1.153 0 1.847.478.693.479.693.977 0 .283-.195.468-.196.186-.46.186-.517 0-.947-.8-.478-.88-1.24-.88-.615 0-1.084.45-.459.439-.547 1.103-.088.664-.088 2.852v.605z" style="font-size:20px;font-family:Baskerville;-inkscape-font-specification:Baskerville;text-align:center;text-anchor:middle;stroke:#000;stroke-width:.105264;stroke-dasharray:none" transform="translate(1.5)"/><path d="M487.88 71.483q.332-.87 1.074-1.455.752-.586 1.465-.586.645 0 1.016.4.37.4.37.82 0 .284-.195.489-.185.205-.459.205-.488 0-.742-.723-.176-.488-.527-.488-.42 0-1.006.576-.586.567-.752 1.182-.166.615-.166 1.69v1.425q0 1.28.03 1.611.038.332.283.508.244.176.869.176h.273v.45h-4.248v-.45h.205q.586 0 .83-.156.254-.166.303-.46.049-.292.049-1.679v-2.256q0-1.289-.04-1.611-.029-.332-.273-.508-.244-.186-.869-.186h-.205v-.439q.918-.107 2.402-.576.284.771.313 2.04zM492.206 73.748q0-1.835 1.23-3.066 1.231-1.24 3.028-1.24 1.807 0 3.037 1.24t1.23 3.066q0 2.022-1.25 3.184-1.25 1.152-3.017 1.152-1.768 0-3.018-1.171-1.24-1.182-1.24-3.165zm1.621.05q0 2.128.694 2.988.693.85 1.943.85 1.28 0 1.953-.85.684-.86.684-2.989 0-2.109-.674-3.007-.674-.899-1.963-.899-1.28 0-1.963.899-.674.888-.674 3.007zM504.267 69.442h.097q.284.654.284 1.68.654-.84 1.406-1.26.762-.42 1.63-.42.987 0 1.602.45.615.448.86 1.347.742-.899 1.523-1.348.781-.45 1.592-.45.928 0 1.572.43.645.43.781.977.137.547.137 1.768v2.402q0 1.397.049 1.7.058.302.312.448.264.147.967.147v.45h-3.994v-.45q.635 0 .889-.137.263-.146.322-.43.059-.292.059-1.728v-2.666q0-.81-.098-1.22-.088-.41-.479-.704-.39-.293-1.015-.293-.635 0-1.28.43-.634.43-1.279 1.299v3.154q0 1.28.03 1.611.039.323.273.508.244.176.86.176v.45h-3.868v-.45q.654 0 .908-.137.264-.136.323-.42.068-.283.068-1.738v-2.217q0-1.054-.088-1.523-.078-.479-.498-.81-.42-.343-1.045-.343-.605 0-1.24.391-.625.39-1.28 1.172v3.33q0 1.318.04 1.64.039.323.293.489.253.166.908.166v.45h-3.916v-.45q.644 0 .898-.137.264-.146.322-.43.06-.283.06-1.728v-2.393q0-1.367-.05-1.67-.039-.312-.302-.468-.254-.156-.928-.156v-.45q1.387-.136 2.295-.44z" style="font-size:20px;font-family:Baskerville;-inkscape-font-specification:Baskerville;text-align:center;text-anchor:middle;stroke:#000;stroke-width:.105264;stroke-dasharray:none" transform="translate(1.5)"/></g><g style="display:inline;stroke-width:1.05264" transform="matrix(.01904 0 0 -.01904 526.874 77.737)"><use xlink:href="#d" style="stroke-width:1.05264"/><use xlink:href="#e" x="511" y="-213" style="stroke-width:1.05264" transform="scale(.707)"/></g></g><g style="stroke-width:1.05264" transform="matrix(.01809 0 0 -.01809 157.927 193.232)"><use xlink:href="#g" x="8876" style="stroke-width:1.05264"/><use xlink:href="#d" x="9709" style="stroke-width:1.05264"/></g><path d="M463.703 20.978h183.962" style="opacity:1;fill:#eef4d7;fill-opacity:1;stroke:#000;stroke-width:1.1579;stroke-dasharray:none" transform="matrix(.95 0 0 .95 -200.264 147.883)"/></g></svg>