<svg xmlns="http://www.w3.org/2000/svg" width="800" height="300" viewBox="0 0 211.667 79.375"><path d="M198.746 53.023a1.921 1.921 0 0 0-1.01.104 3.51 3.51 0 0 0-1.612 1.257c-.284.402-.5.896-.422 1.408.123.802.726 1.448 1.412 1.82.386.21.818.35 1.254.399.608.067 1.272-.132 1.664-.625.274-.346.446-.774.509-1.206.064-.447-.122-.885-.283-1.294-.163-.298-.635-.943-.917-1.11M81.904 26.085c-.207.513.079 1.081.384 1.49.552.735 1.292 1.348 2.168 1.68.717.271 1.457.497 2.216.591 1.831.227 3.777.215 5.497-.533.438-.19.841-.467 1.204-.772.345-.289.616-.633.818-1.039l-.27.064c-.634.626.14 1.818.915 2.245 1.529.842 4.015 1.254 6.084 1.229 1.942-.024 3.986-.283 5.66-1.442.314-.217.505-.524.61-.81.155-.296-.472-.646-.42-.14.052.294.243.64.571.873.912.65 2.314 1.127 3.41 1.364 2.066.448 4.759.677 7.137.1 1.388-.337 2.748-1.017 3.79-2.029.348-.34.531-.704.552-1.096-.033-.253-.71.047-.299.226.654.287 1.344.487 2.06.466 1.107-.032 2.134-.664 2.816-1.51.84-1.043 1.13-2.43 1.029-3.755-.129-1.689-.58-3.38-1.472-4.821a7.41 7.41 0 0 0-1.63-1.86c-.68-.548-1.504-1.03-2.413-.964-.167.012-.331.05-.497.073-.369.05.095.639.27.292.394-.782.393-1.726.078-2.522-.435-1.097-1.234-2.001-2.14-2.637-1.404-.984-3.075-1.423-4.719-1.544-1.74-.127-3.64-.056-5.107 1.133-.55.447-.95 1.06-1.181 1.786-.09.28-.108.567-.094.846.034.627.588.51.478.077a2.473 2.473 0 0 0-.499-.941c-.303-.365-.636-.687-1.045-.933-1.692-1.02-2.804-1.26-4.605-1.424a12.958 12.958 0 0 0-5.04.554c-.94.298-1.86.748-2.54 1.491a1.845 1.845 0 0 0-.374 1.82c.151.447.376-.04.194-.361a3.62 3.62 0 0 0-.64-.807c-.816-.758-1.896-1.285-3.259-1.523-1.152-.2-2.33-.202-3.5-.138-1.963.107-3.979.515-5.673 1.562-.522.324-1.035.675-1.463 1.13-.535.571-.847 1.444-.563 2.18.04.101.201.573.661.96.247.222.68-.034-.025-.342-.412-.196-.904-.236-1.347-.24-1-.008-2.02.206-2.872.77-1.265.838-2.28 2.2-2.464 3.745-.135 1.13.028 2.411.573 3.424.53.985 1.195 1.843 2.133 2.46 1.386.914 3.124 1.414 4.755 1.05.46-.103.877-.29 1.227-.621" style="fill:#ffd5d5;stroke:#000;stroke-width:.35;stroke-miterlimit:4;stroke-dasharray:none;fill-opacity:1"/><path d="M136.262 18.21c-1.588-.643-3.203.452-3.958 1.85-.66 1.225-.603 2.737.322 3.826 1.849 2.176 5.557 2.11 7.248-.22.914-1.259.577-3.017-.586-3.947-.56-.448-1.265-.84-1.897-.99M149.393 19.567c-1.362-.047-2.888.636-3.513 1.87-.689 1.36.238 3.112 1.73 3.455 1.71.392 3.87.148 4.847-1.517.551-.94.416-2.15-.583-2.814-.4-.266-1.006-.532-1.586-.688M162.382 20.775c-1.613-.362-3.828-.368-4.699 1.224-.643 1.177.794 2.384 1.945 2.64 1.294.29 2.857-.222 3.245-1.602.126-.446.035-.982-.193-1.255M161.167 27.787c-1.202-.106-2.897.829-2.506 2.229.37 1.326 2.293 2.37 3.35 1.17.808-.92-.123-1.948-.89-2.478M161.024 34.808c-1.297-.5-2.191.942-.773 1.668 1.22.625 2.608-.425 1.242-1.341M189.735 52.49c-.91-.553-2.127-.35-2.683-.093-1.049.485-1.658 1.623-1.761 2.744-.087.95.073 1.98.718 2.726.45.522 1.04.915 1.712 1.081.663.164 1.357.296 2.035.117 1.196-.316 2.163-1.322 2.41-2.535.162-.794.091-1.678-.412-2.343-.218-.288-.467-.548-.707-.815" style="fill:#ffd5d5;fill-opacity:1;stroke:#000;stroke-width:.35;stroke-miterlimit:4;stroke-dasharray:none"/><path d="M206.024 54.333c-.548-.038-1.12.039-1.608.3-.384.204-.7.571-.787 1.003-.063.313.164.741.394.954.382.353.77.501 1.31.533.513.03 1.096-.108 1.372-.567.199-.33.091-.741-.098-1.049-.044-.072-.092-.142-.134-.215" style="fill:#ffd5d5;stroke:#000;stroke-width:.35;stroke-miterlimit:4;stroke-dasharray:none;fill-opacity:1"/><circle cx="176.393" cy="53.265" r=".002" style="fill:#000;stroke:#000;stroke-width:.35;stroke-miterlimit:4;stroke-dasharray:none"/><path d="M154.861 66.097c.2.741.725 1.37 1.532 1.955 1.09.79 2.595 1.317 4.404 1.417 1.407.077 2.887.038 4.264-.74.811-.457 1.19-.998 1.217-1.809.015-.454-.636-.132-.444.125.314.421.756.688 1.238.897 1.45.536 3.064.445 4.554.107 1.887-.436 3.262-1.057 4.77-2.278.777-.67 1.524-1.542 1.58-2.589-.045-.623-.43-1.248-1.078-1.427-.075-.02-.063.142.015.194.45.296 1.482.4 2.352-.314 1.437-1.177 1.83-3.296 1.79-5.06-.054-2.427-.556-3.922-1.267-4.912-.51-.71-1.192-1.273-2.045-1.335a2.216 2.216 0 0 0-.778.066c-.372.108-.267.37.138.132.27-.158.455-.296.567-.516.54-1.056-.559-3.074-1.358-4.048-1.392-1.695-2.805-2.536-4.775-3.062-.952-.253-2.288-.24-3.158.274-.42.248-.758.67-.902 1.155-.084.315.038.62-.066-.046-.076-.461-.36-.977-.775-1.327-.992-.84-2.052-1.14-3.3-1.438-2.006-.478-5.084-.5-7.231.238-1.095.377-2.45 1.276-2.584 2.461-.088.774.162 1.24.757 1.766.137.144.318-.075.157-.171-1.287-.658-2.6-.624-3.78-.498a10.531 10.531 0 0 0-3.932 1.273c-1.025.58-1.924 1.351-2.519 2.257-.23.35-.299.77-.32 1.16-.031.537.106 1.143.482 1.591.286.342.839.634 1.309.558.26-.042.154-.207-.14-.145-.499.104-.977.32-1.415.684-.73.607-1.207 1.332-1.604 2.241-.378.97-.471 2.116-.303 3.101.29 1.653.95 3.161 2.62 3.983.41.201 1.162.317 1.729.04.248-.112.046-.091-.081.019-.63.489-.443 1.396-.17 1.965.56 1.178 1.465 1.802 2.678 2.43 1.488.772 2.933 1.03 4.517.995.95-.022 2.007-.214 2.426-.959" style="fill:#ffd5d5;fill-opacity:1;stroke:#000;stroke-width:.35;stroke-miterlimit:4;stroke-dasharray:none"/><g transform="translate(117.493 -80.007)"><path d="M198.651 53.134a1.921 1.921 0 0 0-1.011.104 3.51 3.51 0 0 0-1.61 1.257c-.285.402-.502.896-.423 1.408.123.802.726 1.448 1.412 1.82.386.21.818.35 1.254.398.608.068 1.272-.132 1.663-.624.275-.346.447-.774.51-1.207.064-.446-.122-.884-.283-1.293-.096-.246-.36-.376-.516-.585-.026-.034-.056-.065-.084-.098" style="fill:none;stroke:#000;stroke-width:.34306"/><path d="M80.49 15.8c-.074-.068-.134-.155-.22-.205-.668-.385-1.493-.4-2.235-.328-.343.034-.69.07-1.019.17-.373.114-.716.31-1.074.466-.343.261-.722.482-1.03.783a5.602 5.602 0 0 0-.85 1.052c-.568.916-.796 1.681-.752 2.772.057 1.395.39 1.761.979 2.992.309.414.563.876.927 1.243 1.216 1.222 3.218 1.928 4.933 1.804.291-.02.574-.108.862-.162.764-.318.431-.125 1.017-.545" style="fill:none;stroke:#000;stroke-width:.396875"/><path d="M92.18 13.409c.074-.127.171-.243.222-.381.188-.51.095-.606.008-1.153-.327-.643-.396-.933-1.01-1.414-1.588-1.246-3.716-1.141-5.61-1.05-.557.095-1.122.151-1.671.286-1.333.328-2.626.916-3.618 1.887-.59.577-.69.883-1.066 1.586-.052.254-.14.503-.154.762-.028.49.082.765.302 1.178.19.354.435.659.737.921" style="fill:none;stroke:#000;stroke-width:.396875"/><path d="m105.561 12.861.168-.43c.04-.477.121-.688-.129-1.152-.304-.563-.793-.902-1.346-1.198-1.053-.563-1.41-.566-2.599-.858-.524-.054-1.046-.147-1.572-.163-.98-.03-2.14.113-3.1.3-1.003.197-1.89.43-2.817.863-.357.167-.684.393-1.026.59-.616.587-1.376 1.216-1.353 2.159.004.155.08.315.137.457" style="fill:none;stroke:#000;stroke-width:.396875"/><path d="M120.586 15.74c.078-.155.192-.297.234-.465.122-.488.038-1-.228-1.431-.194-.313-.485-.555-.727-.832-1.175-.747-1.482-1.027-2.87-1.518-1.272-.449-2.725-.734-4.066-.834-1.57-.118-2.347.018-3.883.162-.517.107-1.04.185-1.55.321-.955.254-1.71.586-2.437 1.247a3.17 3.17 0 0 0-.349.366c-.058.073-.091.162-.137.244" style="fill:none;stroke:#000;stroke-width:.396875"/><path d="M120.914 26.113c.202.1.409.196.584.275.744.287.811.247 1.623.364.302-.032.611-.023.905-.097.621-.157 1.325-.528 1.772-.99a3.843 3.843 0 0 0 1.019-2.128c.066-.453.004-.917.007-1.375-.093-.49-.148-.987-.278-1.467-.247-.905-.682-1.927-1.192-2.719-.219-.34-.487-.646-.756-.948-.756-.848-.804-.816-1.678-1.45-.266-.122-.522-.272-.8-.366a3.069 3.069 0 0 0-2.164.085c-.065.028-.12.075-.181.112" style="fill:none;stroke:#000;stroke-width:.396875"/><path d="M121.595 25.336c.016.044.045.085.048.132a2.24 2.24 0 0 1-.121.715c-.189.437-.53.862-.874 1.179-.254.234-.545.425-.817.638-.774.469-1.214.802-2.108 1.056-.994.283-2.069.355-3.096.304-1.336-.067-1.893-.252-3.172-.547-.976-.413-1.41-.502-2.204-1.164-.212-.178-.37-.412-.556-.617M81.607 24.678c-.05.09-.121.17-.15.268-.217.718 0 1.426.37 2.053.164.277.336.559.572.776.293.27.662.44.993.661.435.155.856.354 1.305.466.487.12.99.183 1.49.23 1 .091 1.896.074 2.879-.148 1.076-.242 1.273-.43 2.19-.936.88-.725.505-.349 1.155-1.101M93.3 25.276c-.142-.011-.384-.051-.516.033-.285.182-.39.472-.325.809.11.562.475.92.808 1.357.302.23.572.51.905.692.465.255.969.438 1.471.608 1.9.643 3.845.867 5.844.694.631-.055 1.25-.209 1.875-.313 1.25-.382 2.53-.667 3.138-1.974.337-.727.206-1.577.109-2.334M135.248 17.449c-1.589-.643-3.203.452-3.958 1.851-.661 1.224-.604 2.736.321 3.825 1.85 2.176 5.558 2.111 7.249-.219.914-1.26.576-3.018-.587-3.948-.243-.195-.503-.364-.755-.547M148.379 18.806c-1.362-.047-2.889.636-3.514 1.87-.688 1.36.239 3.112 1.73 3.455 1.71.392 3.87.149 4.847-1.517.552-.94.442-2.19-.582-2.813l-.175-.107-.175-.107M161.645 19.772c-1.82-.408-4.321-.414-5.304 1.383-.726 1.329.896 2.69 2.195 2.98 1.46.327 3.225-.251 3.664-1.81.074-.263-.008-.505-.013-.758M160.182 27.199c-1.252-.11-3.017.863-2.61 2.32.386 1.381 2.388 2.47 3.488 1.218.841-.956-.128-2.027-.926-2.579M160.01 34.3c-1.298-.5-2.192.942-.773 1.669 1.219.625 2.607-.425 1.242-1.342" style="fill:none;stroke:#000;stroke-width:.396875"/><circle cx="176.52" cy="53.012" r=".002" style="fill:#000;stroke:#000;stroke-width:.264583"/><circle cx="145.468" cy="51.403" r=".002" style="fill:#000;stroke:#000;stroke-width:.264583"/><path d="M188.88 52.133c-.45-.25-1.008-.156-1.479-.009-.857.268-1.52.973-1.848 1.801-.338.854-.367 1.817-.141 2.695.178.693.668 1.283 1.229 1.708.509.385 1.163.517 1.779.644 1.293.266 2.687-.412 3.352-1.557a3.55 3.55 0 0 0 .419-2.409c-.104-.553-.464-1.036-.844-1.445-.1-.108-.204-.212-.3-.323" style="fill:none;stroke:#000;stroke-width:.396875"/><path d="M206.024 54.333a3.222 3.222 0 0 0-1.395.2 1.66 1.66 0 0 0-.954.934.88.88 0 0 0 .138.87c.33.403.83.625 1.327.75.34.085.702.066 1.026-.074.317-.136.603-.407.641-.766.034-.314-.107-.608-.277-.862-.02-.03-.038-.062-.057-.093" style="fill:none;stroke:#000;stroke-width:.304024"/><circle cx="154.28" cy="44.829" r=".002" style="fill:#000;stroke:#000;stroke-width:.264583"/><path d="M166.294 45.376c-.005-.64-.116-1.117-.344-1.504-.687-1.135-1.986-1.582-3.161-1.999-.565-.135-1.122-.303-1.694-.404-1.216-.214-2.388-.293-3.62-.189-1.01.085-2.046.288-2.952.769-.336.178-.608.456-.913.684-.178.266-.406.506-.533.8-.455 1.046.055 2.163.722 2.972" style="fill:none;stroke:#000;stroke-width:.264583;stroke-miterlimit:4;stroke-dasharray:none"/><path d="M177.655 50.265c.122-.51.075-1.162-.048-1.602-.356-1.273-1.233-2.277-2.132-3.202-.397-.337-.773-.702-1.192-1.01-1.534-1.13-3.53-2.036-5.45-2.162-.382-.025-.765.027-1.147.04-.32.085-.653.13-.962.252-.648.255-1.228.717-1.443 1.399-.085.268-.052.442-.032.702" style="fill:none;stroke:#000;stroke-width:.264583;stroke-miterlimit:4;stroke-dasharray:none"/><path d="M176.839 62.28c.483.296.798.137 1.088-.083.6-.463.96-1.166 1.321-1.81.14-.326.298-.644.417-.979.553-1.566.768-3.256.572-4.907-.045-.383-.138-.758-.208-1.137-.107-.336-.193-.68-.322-1.008-.32-.814-.904-1.89-1.805-2.18-.13-.043-.27-.03-.404-.046-.12.041-.247.067-.36.123-.488.241-.743.74-.628 1.27" style="fill:none;stroke:#000;stroke-width:.264583;stroke-miterlimit:4;stroke-dasharray:none"/><path d="M165.312 67c.554.607.247.32.728.681.652.314.765.414 1.51.571 1.477.312 2.97.034 4.413-.313.449-.137.904-.252 1.346-.41 1.54-.548 3.092-1.344 4.049-2.723.163-.236.272-.504.407-.756.052-.22.14-.435.155-.66a1.517 1.517 0 0 0-.074-.495c-.135-.502-.465-.883-.957-1.052" style="fill:none;stroke:#000;stroke-width:.264583;stroke-miterlimit:4;stroke-dasharray:none"/><path d="M153.926 65.386c.133.165.274.326.394.459.556.519.916.676 1.592 1.078.98.473 1.343.683 2.394 1.036 1.274.427 2.62.698 3.967.702.38 0 .76-.052 1.139-.078.32-.08.65-.127.96-.24.895-.323 1.656-1 1.876-1.944M154.38 46.453c-.797-.638-1.888-.912-2.892-.96-.4-.02-.802.019-1.202.028-.438.088-.885.135-1.312.263a7.085 7.085 0 0 0-3.393 2.173c-.257.295-.516.6-.688.952-.151.31-.177.665-.265.998.02.299-.007.604.058.896.112.492.41.938.737 1.309.133.151.294.276.44.415" style="fill:none;stroke:#000;stroke-width:.264583;stroke-miterlimit:4;stroke-dasharray:none"/><path d="M146.347 52.074c-.082-.033-.16-.08-.246-.099-.832-.182-1.741.243-2.386.733a4.004 4.004 0 0 0-.697.65c-.407.501-.872 1.144-1.05 1.786-.31 1.113-.135 2.722.254 3.793.148.405.38.775.569 1.163.244.325.463.67.732.975.578.653 1.313 1.23 2.161 1.478.15.044.309.048.463.072M146.657 61.573c-.064.06-.14.109-.192.18-.49.668-.138 1.585.298 2.178.218.296.498.541.747.812.359.27.7.566 1.075.811 1.59 1.04 3.55 1.82 5.472 1.86.35.007.7-.061 1.049-.092.627-.245.817-.22 1.242-.73.229-.273.262-.503.352-.823" style="fill:none;stroke:#000;stroke-width:.264583;stroke-miterlimit:4;stroke-dasharray:none"/></g><path d="M218.29 72.944c.405.311 1.338.444 2.143-.267 1.329-1.173 1.73-3.335 1.73-5.144 0-2.486-.337-4.03-.963-5.06-.449-.739-1.02-1.227-1.92-1.415a1.339 1.339 0 0 0-.708.05" style="fill:none;stroke:#000;stroke-width:.264075;stroke-miterlimit:4;stroke-dasharray:none"/><path d="M145.668 83.75c-.53.413-.475 1.23-.214 1.795.534 1.166 1.6 1.922 2.624 2.567 1.597.962 3.44 1.62 5.299 1.458.532-.103 1.116-.254 1.447-.749.219-.237.297-.56.37-.871" style="fill:none;stroke:#000;stroke-width:.257849;stroke-miterlimit:4;stroke-dasharray:none"/><path d="M80.49 15.8c-.074-.068-.134-.155-.22-.205-.668-.385-1.493-.4-2.235-.328-.343.034-.69.07-1.019.17-.373.114-.716.31-1.074.466-.343.261-.722.482-1.03.783a5.602 5.602 0 0 0-.85 1.052c-.568.916-.796 1.681-.752 2.772.057 1.395.39 1.761.979 2.992.309.414.563.876.927 1.243 1.216 1.222 3.218 1.928 4.933 1.804.291-.02.574-.108.862-.162.764-.318.431-.125 1.017-.545" style="fill:none;stroke:#000;stroke-width:.264583;stroke-miterlimit:4;stroke-dasharray:none" transform="translate(-36.225 -41.604)"/><path d="M92.18 13.409c.074-.127.171-.243.222-.381.188-.51.095-.606.008-1.153-.327-.643-.396-.933-1.01-1.414-1.588-1.246-3.716-1.141-5.61-1.05-.557.095-1.122.151-1.671.286-1.333.328-2.626.916-3.618 1.887-.59.577-.69.883-1.066 1.586-.052.254-.14.503-.154.762-.028.49.082.765.302 1.178.19.354.435.659.737.921" style="fill:none;stroke:#000;stroke-width:.264583;stroke-miterlimit:4;stroke-dasharray:none" transform="translate(-36.225 -41.604)"/><path d="M105.823 12.861a1.826 1.826 0 0 0-.365-1.783c-.661-.729-1.557-1.17-2.472-1.462a12.533 12.533 0 0 0-4.907-.543c-1.753.161-2.836.396-4.484 1.396-.398.241-.722.556-1.018.915-.463.561-.77 1.397-.302 2.045" style="fill:none;stroke:#000;stroke-width:.264583;stroke-miterlimit:4;stroke-dasharray:none" transform="translate(-36.225 -41.604)"/><path d="M121.125 15.151c.076-.155.186-.298.227-.467.117-.488.034-1-.224-1.43-.187-.312-.47-.552-.704-.828-1.138-.74-1.435-1.019-2.78-1.501a15.18 15.18 0 0 0-3.935-.81c-1.52-.108-2.271.032-3.757.186-.5.11-1.007.192-1.5.33-.923.26-1.654.598-2.356 1.263-.12.114-.235.236-.337.37-.056.072-.088.162-.132.243" style="fill:none;stroke:#000;stroke-width:.260344;stroke-miterlimit:4;stroke-dasharray:none" transform="translate(-36.225 -41.604)"/><path d="M120.918 26.98c.202.112.408.219.583.307.743.32.81.277 1.62.408.302-.037.61-.027.904-.11.62-.175 1.322-.589 1.768-1.107.56-.65.902-1.487 1.018-2.378.066-.507.004-1.026.007-1.538-.093-.547-.148-1.104-.278-1.64-.246-1.013-.68-2.155-1.19-3.04-.218-.38-.486-.723-.754-1.06-.755-.949-.803-.913-1.675-1.622-.266-.137-.521-.305-.799-.41a2.759 2.759 0 0 0-2.16.096c-.065.03-.12.083-.18.125" style="fill:none;stroke:#000;stroke-width:.279519;stroke-miterlimit:4;stroke-dasharray:none" transform="translate(-36.225 -41.604)"/><path d="M121.208 26.546c.018.044.05.086.052.133.01.182-.075.568-.147.71-.22.433-.61.85-1 1.16-.29.229-.62.415-.929.622-.877.453-1.376.777-2.384 1.014-1.122.264-2.33.316-3.483.247-1.5-.091-2.148-.186-3.554-.602-1.124-.333-1.842-.71-2.457-1.202-.306-.244-.898-.76-.967-1.079" style="fill:none;stroke:#000;stroke-width:.280026;stroke-miterlimit:4;stroke-dasharray:none" transform="translate(-36.225 -41.604)"/><path d="M81.031 24.683c-.031.09-.088.17-.095.268-.047.716.38 1.423.957 2.048.254.276.519.558.838.774.395.269.848.44 1.272.66.521.154 1.04.353 1.565.464.57.12 1.141.183 1.706.23 1.13.09 2.114.073 3.141-.147 1.124-.242 1.292-.43 2.17-.935.78-.722.465-.347.982-1.098" style="fill:none;stroke:#000;stroke-width:.277727;stroke-miterlimit:4;stroke-dasharray:none" transform="translate(-36.225 -41.604)"/><path d="M93.401 26.717c-.141-.01-.382-.047-.512.029a.64.64 0 0 0-.324.733c.109.509.431.871.804 1.228.264.253.568.462.9.627.462.23.963.396 1.463.55a15.41 15.41 0 0 0 5.81.628 12.33 12.33 0 0 0 1.865-.283c1.256-.297 2.337-.783 3.12-1.787.455-.582.407-.419.603-1.104" style="fill:none;stroke:#000;stroke-width:.251046;stroke-miterlimit:4;stroke-dasharray:none" transform="translate(-36.225 -41.604)"/><path d="M80.49 15.8c-.074-.068-.134-.155-.22-.205-.668-.385-1.493-.4-2.235-.328-.343.034-.69.07-1.019.17-.373.114-.716.31-1.074.466-.343.261-.722.482-1.03.783a5.602 5.602 0 0 0-.85 1.052c-.568.916-.796 1.681-.752 2.772.057 1.395.39 1.761.979 2.992.309.414.563.876.927 1.243 1.216 1.222 3.218 1.928 4.933 1.804.291-.02.574-.108.862-.162.764-.318.431-.125 1.017-.545" style="fill:none;stroke:#000;stroke-width:.264583;stroke-miterlimit:4;stroke-dasharray:none" transform="translate(27.975 -41.425)"/><path d="M107.454 13.408c-.08-.127-.184-.243-.24-.38-.203-.51-.203-.634-.008-1.152.258-.686.428-.932 1.09-1.412 1.717-1.244 4.02-1.192 6.062-1.049.608.043 1.213.152 1.806.287 1.44.327 2.837.914 3.91 1.883.637.577.797.854 1.151 1.585.113.233.15.502.166.76.03.49-.088.764-.326 1.177-.204.353-.47.657-.797.92" style="fill:none;stroke:#000;stroke-width:.274825;stroke-miterlimit:4;stroke-dasharray:none" transform="translate(27.975 -41.425)"/><path d="M93.78 12.861a1.826 1.826 0 0 1 .364-1.783c.662-.729 1.557-1.17 2.473-1.462a12.533 12.533 0 0 1 4.907-.543c1.753.161 2.836.396 4.483 1.396.398.241.722.556 1.018.915.464.561.771 1.397.303 2.045" style="fill:none;stroke:#000;stroke-width:.264583;stroke-miterlimit:4;stroke-dasharray:none" transform="translate(27.975 -41.425)"/><path d="M79.53 15.155c-.071-.156-.174-.299-.212-.468a2.034 2.034 0 0 1 .208-1.432c.175-.313.438-.553.657-.829 1.061-.742 1.339-1.02 2.592-1.503a13.31 13.31 0 0 1 3.67-.812c1.416-.108 2.117.033 3.502.187.467.11.939.192 1.399.331.86.26 1.542.598 2.196 1.264.113.114.22.237.314.37.053.073.083.163.124.244" style="fill:none;stroke:#000;stroke-width:.251568;stroke-miterlimit:4;stroke-dasharray:none" transform="translate(27.975 -41.425)"/><path d="M120.918 26.98c.202.112.408.219.583.307.743.32.81.277 1.62.408.302-.037.61-.027.904-.11.62-.175 1.322-.589 1.768-1.107.56-.65.902-1.487 1.018-2.378.066-.507.004-1.026.007-1.538-.093-.547-.148-1.104-.278-1.64-.246-1.013-.68-2.155-1.19-3.04-.218-.38-.486-.723-.754-1.06-.755-.949-.803-.913-1.675-1.622-.266-.137-.521-.305-.799-.41a2.759 2.759 0 0 0-2.16.096c-.065.03-.12.083-.18.125" style="fill:none;stroke:#000;stroke-width:.279519;stroke-miterlimit:4;stroke-dasharray:none" transform="translate(27.975 -41.425)"/><path d="M121.208 26.546c.018.044.05.086.052.133.01.182-.075.568-.147.71-.22.433-.61.85-1 1.16-.29.229-.62.415-.929.622-.877.453-1.376.777-2.384 1.014-1.122.264-2.33.316-3.483.247-1.5-.091-2.148-.186-3.554-.602-1.124-.333-1.842-.71-2.457-1.202-.306-.244-.898-.76-.967-1.079" style="fill:none;stroke:#000;stroke-width:.280026;stroke-miterlimit:4;stroke-dasharray:none" transform="translate(27.975 -41.425)"/><path d="M81.031 24.683c-.031.09-.088.17-.095.268-.047.716.38 1.423.957 2.048.254.276.519.558.838.774.395.269.848.44 1.272.66.521.154 1.04.353 1.565.464.57.12 1.141.183 1.706.23 1.13.09 2.114.073 3.141-.147 1.124-.242 1.292-.43 2.17-.935.78-.722.465-.347.982-1.098" style="fill:none;stroke:#000;stroke-width:.277727;stroke-miterlimit:4;stroke-dasharray:none" transform="translate(27.975 -41.425)"/><path d="M93.401 26.717c-.141-.01-.382-.047-.512.029a.64.64 0 0 0-.324.733c.109.509.431.871.804 1.228.264.253.568.462.9.627.462.23.963.396 1.463.55a15.41 15.41 0 0 0 5.81.628 12.33 12.33 0 0 0 1.865-.283c1.256-.297 2.337-.783 3.12-1.787.455-.582.407-.419.603-1.104" style="fill:none;stroke:#000;stroke-width:.251046;stroke-miterlimit:4;stroke-dasharray:none" transform="translate(27.975 -41.425)"/><path d="M167.32 44.93c.446-.654.402-1.22-.222-1.766-.966-.88-2.5-1.34-3.75-1.668-2.213-.489-5.053-.48-7.236.21-1.111.357-2.499 1.065-2.66 2.247-.105.772.074 1.212.663 1.75" style="fill:none;stroke:#000;stroke-width:.267253;stroke-miterlimit:4;stroke-dasharray:none" transform="translate(21.303 44.509)"/><path d="M177.287 50.34c1.67-.648.27-3.293-.715-4.49-1.42-1.724-2.881-2.596-4.934-3.165-.992-.275-2.393-.291-3.318.203-.683.365-1.179 1.145-1.037 1.946" style="fill:none;stroke:#000;stroke-width:.239321;stroke-miterlimit:4;stroke-dasharray:none" transform="translate(21.303 44.509)"/><path d="M176.89 62.029c.445.31 1.47.443 2.356-.268 1.462-1.172 1.902-3.331 1.902-5.138 0-2.485-.468-4.026-1.157-5.056-.494-.738-1.163-1.33-2.013-1.413-.274-.027-.54-.025-.779.05" style="fill:none;stroke:#000;stroke-width:.276818;stroke-miterlimit:4;stroke-dasharray:none" transform="translate(21.303 44.509)"/><path d="M166.077 66.885c.287.434.718.706 1.18.925 1.394.569 2.959.513 4.41.209 1.838-.394 3.183-.984 4.672-2.173.766-.652 1.51-1.508 1.586-2.554-.03-.624-.39-1.258-1.013-1.451" style="fill:none;stroke:#000;stroke-width:.259144;stroke-miterlimit:4;stroke-dasharray:none" transform="translate(21.303 44.509)"/><path d="M154.751 65.693c.189.745.717 1.384 1.538 1.986 1.108.814 2.65 1.374 4.516 1.514 1.452.109 2.982.102 4.422-.643.849-.44 1.225-1.096 1.184-1.764" style="fill:none;stroke:#000;stroke-width:.281428;stroke-miterlimit:4;stroke-dasharray:none" transform="translate(21.303 44.509)"/><path d="M154.304 45.623c-1.126-.663-2.288-.657-3.337-.562-1.195.11-2.466.535-3.504 1.143-.92.538-1.73 1.262-2.274 2.122-.21.333-.28.736-.308 1.112-.037.517.086 1.04.41 1.48.246.335.54.634.88.892" style="fill:none;stroke:#000;stroke-width:.263508;stroke-miterlimit:4;stroke-dasharray:none" transform="translate(21.303 44.509)"/><path d="M146.349 51.623c-.712-.32-1.534-.038-2.176.319-.896.492-1.558 1.312-2.025 2.2-.447.95-.533 2.195-.37 3.205.285 1.695 1.46 3.342 2.833 4.057.453.236 1.292.503 1.933.358" style="fill:none;stroke:#000;stroke-width:.261024;stroke-miterlimit:4;stroke-dasharray:none" transform="translate(21.303 44.509)"/><path d="M146.459 61.594c-.53.414-.474 1.232-.214 1.796.535 1.167 1.425 1.924 2.624 2.567 1.471.79 2.91 1.074 4.495 1.074.95 0 2.011-.165 2.447-.887" style="fill:none;stroke:#000;stroke-width:.257849;stroke-miterlimit:4;stroke-dasharray:none" transform="translate(21.303 44.509)"/><g transform="translate(-41.604 45.908)"><circle cx="176.393" cy="53.265" r=".002" style="fill:#000;stroke:#000;stroke-width:.264583;stroke-miterlimit:4;stroke-dasharray:none"/><circle cx="145.341" cy="51.657" r=".002" style="fill:#000;stroke:#000;stroke-width:.264583;stroke-miterlimit:4;stroke-dasharray:none"/><circle cx="154.153" cy="45.083" r=".002" style="fill:#000;stroke:#000;stroke-width:.264583;stroke-miterlimit:4;stroke-dasharray:none"/><path d="M167.578 45.064c.263-.52-.049-1.444-.667-1.991-.956-.881-2.028-1.119-3.268-1.449-2.192-.49-5.007-.484-7.17.204-1.103.355-2.479 1.062-2.64 2.244-.104.772.072 1.213.655 1.75" style="fill:none;stroke:#000;stroke-width:.2661;stroke-miterlimit:4;stroke-dasharray:none"/><path d="M177.199 50.787c1.592-.649.257-3.296-.681-4.493-1.354-1.726-2.748-2.598-4.706-3.168-.946-.275-2.282-.291-3.164.204-.65.365-1.124 1.145-.989 1.946" style="fill:none;stroke:#000;stroke-width:.233781;stroke-miterlimit:4;stroke-dasharray:none"/><path d="M176.761 62.29c.446.303 1.473.433 2.359-.261 1.462-1.145 1.903-3.254 1.903-5.02 0-2.426-.47-3.932-1.158-4.938-.494-.72-1.164-1.3-2.015-1.38-.273-.026-.54-.025-.779.048" style="fill:none;stroke:#000;stroke-width:.273678;stroke-miterlimit:4;stroke-dasharray:none"/><path d="M165.57 67.138c.298.434.742.705 1.219.924 1.438.569 3.053.513 4.55.209 1.896-.394 3.285-.984 4.82-2.172.791-.651 1.558-1.507 1.637-2.552-.03-.624-.402-1.258-1.045-1.45" style="fill:none;stroke:#000;stroke-width:.263155;stroke-miterlimit:4;stroke-dasharray:none"/><path d="M154.622 65.944c.183.746.694 1.386 1.488 1.99 1.072.814 2.565 1.374 4.371 1.514 1.405.11 2.886.103 4.28-.644.821-.44 1.186-1.097 1.146-1.765" style="fill:none;stroke:#000;stroke-width:.277002;stroke-miterlimit:4;stroke-dasharray:none"/><path d="M154.652 45.614c-1.23-.65-2.502-.644-3.648-.55a10.374 10.374 0 0 0-3.832 1.12c-1.006.528-1.892 1.238-2.487 2.081-.23.326-.306.722-.336 1.09-.041.507.094 1.02.448 1.452.27.328.491.653.963.618" style="fill:none;stroke:#000;stroke-width:.272858;stroke-miterlimit:4;stroke-dasharray:none"/><path d="M145.703 51.306c-.778.231-.974.41-1.52.849-.743.598-1.235 1.26-1.652 2.172-.4.974-.519 2.134-.373 3.137.254 1.683.88 3.227 2.53 4.097.405.214 1.155.348 1.727.081" style="fill:none;stroke:#000;stroke-width:.246842;stroke-miterlimit:4;stroke-dasharray:none"/><path d="M146.334 61.658c-.641.482-.474 1.406-.214 1.989.534 1.207 1.425 1.86 2.623 2.525 1.47.816 2.909 1.11 4.493 1.11.95 0 2.01-.171 2.446-.917" style="fill:none;stroke:#000;stroke-width:.262197;stroke-miterlimit:4;stroke-dasharray:none"/></g></svg>