<svg xmlns="http://www.w3.org/2000/svg" width="400" height="200" viewBox="0 0 105.833 52.917"><path d="M26.106 31.94c.527.677 1.426 1.26 2.177 1.631 1.862.92 4.305 1.028 6.48.711a5.567 5.567 0 0 0 3.233-1.627c.32-.319.72-.715.653-1.204-.03-.213-.249-.427-.462-.356-.655.22-.195 1.053.156 1.394 1.064 1.034 2.218 1.635 3.623 2.026 2.273.633 5.059.462 7.16-.578.807-.4 1.425-.989 1.686-1.598.201-.47-.112-.896-.404-.873-.362.027-.496.438-.356.802.268.695.762 1.128 1.406 1.433 1.197.567 2.54.885 3.867.8 1.237-.078 2.51-.479 3.427-1.35.378-.359.68-.873.557-1.414-.1-.439-.42-.894-.882-.97-.07-.01-.167-.02-.258.061-.283.256.441.994.882 1.181 1.387.59 3.097.695 4.38-.215 1.129-.8 1.501-2.115 1.654-3.223.226-1.643-.416-3.283-1.291-4.594-.772-1.157-1.831-2.096-3.078-2.592-.871-.347-1.858-.52-2.735-.11-.415.193-.888.646-.906 1.167-.006.547.526.583.385.028-.178-.631-.807-1.148-1.33-1.485-1.608-1.035-3.505-1.43-5.519-1.534-1.817-.094-3.81.182-5.41.847-.8.332-1.701.881-1.907 1.793-.1.442.217 1.086.728 1.022l.209-.11c.285-.638-.337-1.32-.75-1.719-1.563-1.506-3.403-2.323-5.61-2.652-1.75-.26-3.894-.283-5.502.471-1.338.628-2.315 2.064-2.044 3.519.03.16.09.353.2.492.513.651 1.027-.042.472-.506-.24-.201-.63-.328-.866-.424-1.883-.62-4.028-.803-5.882.013-2.262 1.005-3.69 3.506-3.552 5.958.094 1.56.878 3.103 2.151 4.027.92.699 2.2.85 3.3.625.257-.052.768-.215.768-.215M73.704 26.311c-.27-.586-.884-.903-1.453-1.135-.645-.264-1.355-.446-2.056-.299a2.407 2.407 0 0 0-1.578 1.118 2.647 2.647 0 0 0-.323 1.886c.12.553.402 1.059.823 1.444a3.248 3.248 0 0 0 2.096.844 3.978 3.978 0 0 0 1.61-.319c.657-.27 1.182-.683 1.44-1.376.157-.417.128-1.018.039-1.32a1.314 1.314 0 0 0-.22-.434" style="fill:#ffd5d5;stroke:#000;stroke-width:.35;stroke-miterlimit:4;stroke-dasharray:none"/><path d="m79.192 27.628.11-.006M79.33 27.789l-.108.022" style="fill:#ffd5d5;stroke:none;stroke-width:.396875"/><path d="M80.769 59.032a.43.43 0 0 0-.045-.141c-.218-.426-.736-.678-1.21-.828-.15-.047-.305-.076-.457-.114-.167.014-.338.003-.5.04-.682.16-1.292.743-1.37 1.37-.02.16.023.322.035.483.076.152.127.315.227.455.42.59 1.24.937 2.021.819.166-.025.318-.098.476-.148.133-.1.28-.188.398-.302.308-.298.527-.71.52-1.12-.002-.12-.044-.237-.066-.356" style="fill:#ffd5d5;stroke:#000;stroke-width:.396875"/><path d="m84.414 28.03.11-.006M84.268 27.902l-.11.01" style="fill:#ffd5d5;stroke:none;stroke-width:.396875"/><path d="M91.048 60.083c-.058-.424-.483-.652-.851-.771-.112-.036-.229-.055-.343-.082-.125.006-.252.001-.376.02-.3.042-.664.168-.856.42-.16.21-.12.32-.124.569.027.101.038.208.08.304.19.432.638.762 1.107.813.112.012.225-.01.337-.016.336-.098.553-.21.69-.555.101-.26.089-.552.08-.824M21.139-17.262c.018.05.031.104.055.152.252.5.772.838 1.26 1.076.227.111.466.196.7.293.286.091.57.193.861.272a15.41 15.41 0 0 0 4.433.538c.376-.012.75-.059 1.124-.088 1.19-.169 2.384-.47 3.398-1.144.43-.286.488-.385.82-.74.195-.276.496-.71.223-1.044a.405.405 0 0 0-.153-.117c-.064-.027-.136-.022-.203-.033-.07.016-.143.02-.207.05-.225.107-.323.327-.281.57.045.26.152.356.303.574.108.107.209.222.324.32.72.613 1.649 1.015 2.538 1.308.287.095.58.168.87.252 1.213.3 2.466.355 3.7.161.789-.123 1.053-.228 1.815-.453.279-.11.563-.208.837-.33.864-.385 1.728-.9 2.364-1.614.11-.124.2-.264.3-.396.057-.121.131-.236.172-.364.096-.302.04-.612-.2-.827-.167-.15-.29-.162-.494-.221-.086.002-.174-.007-.258.008-.232.042-.46.19-.53.425-.062.209-.005.29.054.492.055.091.102.188.166.274.364.497.914.834 1.464 1.09.18.084.365.153.547.23.84.288 1.72.496 2.612.527.61.021.739-.02 1.344-.095.824-.158 1.634-.44 2.317-.943.333-.245.426-.378.69-.675.063-.12.14-.232.187-.36a1.294 1.294 0 0 0-.052-1.005c-.101-.22-.169-.267-.327-.437-.15-.12-.322-.246-.528-.222a.272.272 0 0 0-.133.046.278.278 0 0 0-.098.13c-.017.053 0 .112 0 .169.025.063.043.13.075.189.195.352.56.598.924.745.126.051.259.085.388.128.8.213 1.65.314 2.473.178.193-.032.383-.087.574-.13.187-.075.381-.135.561-.225a3.506 3.506 0 0 0 1.414-1.264c.295-.468.353-.725.534-1.241.023-.27.073-.539.068-.809-.025-1.288-.563-2.533-1.302-3.569-.189-.264-.41-.505-.615-.758-.23-.217-.446-.452-.693-.652a6.373 6.373 0 0 0-2.362-1.2 4.469 4.469 0 0 0-.734-.147c-.226-.021-.454.008-.68.011-.193.046-.39.072-.577.137-.5.172-1.025.546-1.106 1.106-.011.076.006.154.009.231.023.052.032.113.07.155.152.16.343-.012.318-.218-.026-.227-.181-.379-.309-.553-.116-.109-.223-.226-.347-.326-.748-.599-1.698-.991-2.609-1.258-.299-.088-.605-.152-.907-.228-1.765-.37-3.58-.512-5.377-.335-.36.035-.716.097-1.074.146-.323.073-.65.13-.97.22-.86.245-1.883.67-2.383 1.465-.08.126-.12.273-.18.41-.01.126-.041.254-.029.381.033.337.352.814.747.736.077-.016.14-.073.21-.11.028-.075.08-.144.086-.224.018-.222-.109-.473-.224-.645-.333-.498-.821-.84-1.293-1.192-1.082-.695-2.292-1.162-3.531-1.49-.902-.24-1.412-.313-2.325-.477-.36-.048-.717-.108-1.077-.145-1.169-.119-2.498-.154-3.603.315-.218.093-.414.23-.621.345-.168.148-.352.28-.504.443-.51.55-.82 1.319-.865 2.064-.009.145.01.29.015.435.072.31.149.787.524.884.057.014.12.015.178.001.058-.014.107-.056.16-.084.026-.046.066-.086.08-.138.114-.46-.75-.766-1.036-.887-.175-.057-.347-.12-.524-.17-.942-.266-1.955-.413-2.934-.38-.279.008-.557.045-.835.068-.275.057-.554.095-.824.17a5.746 5.746 0 0 0-2.239 1.207c-.59.514-.687.718-1.15 1.344-.145.264-.308.519-.432.793a6.244 6.244 0 0 0-.567 2.646c.01.785.1.956.292 1.705.11.259.203.527.333.777.363.702.88 1.358 1.533 1.814.551.385.712.384 1.342.582.706.128 1.41.067 2.11-.068.192-.037.38-.09.571-.134" style="fill:#ffd5d5;stroke:#000;stroke-width:.35;stroke-miterlimit:4;stroke-dasharray:none"/></svg>