<svg xmlns="http://www.w3.org/2000/svg" xmlns:xlink="http://www.w3.org/1999/xlink" width="203.431" height="166.778" viewBox="0 0 152.573 125.083"><defs><symbol id="a" overflow="visible" style="overflow:visible"><path d="M1.781-1.14C1.391-.485 1-.345.563-.314c-.125.016-.22.016-.22.204 0 .062.063.109.141.109.266 0 .579-.031.844-.031.344 0 .688.031 1 .031.063 0 .188 0 .188-.188 0-.109-.079-.124-.157-.124-.218-.016-.468-.094-.468-.344 0-.125.062-.235.14-.375l.766-1.266h2.5c.016.203.156 1.563.156 1.656 0 .297-.516.329-.719.329-.14 0-.234 0-.234.203C4.5 0 4.61 0 4.64 0c.407 0 .829-.031 1.235-.031.25 0 .89.031 1.14.031.048 0 .173 0 .173-.203 0-.11-.094-.11-.235-.11-.61 0-.61-.062-.64-.359l-.61-6.219c-.016-.203-.016-.25-.187-.25-.157 0-.204.079-.266.172zm1.203-1.47 1.954-3.296.328 3.297Zm0 0" style="stroke:none"/></symbol><symbol id="b" overflow="visible" style="overflow:visible"><path d="M1.594-.781c-.094.39-.125.469-.907.469-.171 0-.265 0-.265.203C.422 0 .516 0 .688 0H4.25C5.828 0 7-1.172 7-2.156c0-.719-.578-1.297-1.547-1.406 1.031-.188 2.078-.922 2.078-1.876 0-.734-.656-1.375-1.843-1.375h-3.36c-.187 0-.281 0-.281.204 0 .109.094.109.281.109.016 0 .203 0 .375.016.172.03.266.03.266.171 0 .032-.016.063-.031.188zm1.5-2.875.625-2.469c.094-.344.11-.375.531-.375h1.297c.875 0 1.078.594 1.078 1.031 0 .875-.86 1.813-2.063 1.813zM2.656-.312h-.219c-.109-.016-.14-.032-.14-.11 0-.031 0-.047.062-.219l.688-2.78h1.875c.953 0 1.156.733 1.156 1.155 0 .985-.89 1.954-2.078 1.954Zm0 0" style="stroke:none"/></symbol></defs><path d="m-12.048-9.037 120.477 90.36" style="fill:none;stroke:#000;stroke-width:.79701;stroke-linecap:butt;stroke-linejoin:miter;stroke-miterlimit:10;stroke-opacity:1" transform="matrix(1 0 0 -1 12.308 82.617)"/><path d="M0 .002v-36.145M96.378.002v-36.145M96.378.002h36.145M96.378 72.283h36.145" style="fill:none;stroke:#7f7f7f;stroke-width:.19925;stroke-linecap:butt;stroke-linejoin:miter;stroke-miterlimit:10;stroke-opacity:1" transform="matrix(1 0 0 -1 12.308 82.617)"/><path d="M2.41.002a2.41 2.41 0 0 1-4.82 0 2.409 2.409 0 1 1 4.82 0zm0 0" style="fill:#000;fill-opacity:1;fill-rule:nonzero;stroke:#000;stroke-width:.3985;stroke-linecap:butt;stroke-linejoin:miter;stroke-miterlimit:10;stroke-opacity:1" transform="matrix(1 0 0 -1 12.308 82.617)"/><use xlink:href="#a" width="100%" height="100%" x="6.443" y="86.747" style="fill:#000;fill-opacity:1" transform="translate(-6.786 -7.651)"/><path d="M98.788 72.283a2.409 2.409 0 1 1-4.818.003 2.409 2.409 0 0 1 4.818-.003zm0 0" style="fill:#000;fill-opacity:1;fill-rule:nonzero;stroke:#000;stroke-width:.3985;stroke-linecap:butt;stroke-linejoin:miter;stroke-miterlimit:10;stroke-opacity:1" transform="matrix(1 0 0 -1 12.308 82.617)"/><use xlink:href="#b" width="100%" height="100%" x="103.897" y="14.463" style="fill:#000;fill-opacity:1" transform="translate(-6.786 -7.651)"/><path d="M0 .002H96.08" style="fill:none;stroke:#000;stroke-width:.3985;stroke-linecap:butt;stroke-linejoin:miter;stroke-miterlimit:10;stroke-dasharray:2.98883,1.99255;stroke-opacity:1" transform="matrix(1 0 0 -1 12.308 82.617)"/><path d="M.098-2.592v5.184" style="fill:none;stroke:#000;stroke-width:.3985;stroke-linecap:square;stroke-linejoin:miter;stroke-miterlimit:10;stroke-opacity:1" transform="matrix(1 0 0 -1 108.39 82.617)"/><path d="M96.378.299v69.578" style="fill:none;stroke:#000;stroke-width:.3985;stroke-linecap:butt;stroke-linejoin:miter;stroke-miterlimit:10;stroke-dasharray:2.98883,1.99255;stroke-opacity:1" transform="matrix(1 0 0 -1 12.308 82.617)"/><path d="M.098-2.592v5.184" style="fill:none;stroke:#000;stroke-width:.3985;stroke-linecap:square;stroke-linejoin:miter;stroke-miterlimit:10;stroke-opacity:1" transform="matrix(0 1 1 0 108.688 82.318)"/><path d="M0-24.096h96.378" style="fill:none;stroke:#000;stroke-width:.79701;stroke-linecap:butt;stroke-linejoin:miter;stroke-miterlimit:10;stroke-opacity:1" transform="matrix(1 0 0 -1 12.308 82.617)"/><path d="M93.972-24.096h.953" style="fill:none;stroke:#000;stroke-width:1.99255002;stroke-linecap:butt;stroke-linejoin:miter;stroke-miterlimit:10;stroke-opacity:1" transform="matrix(1 0 0 -1 12.308 82.617)"/><path d="M-2.63 3.507C-2.41 2.19 0 .217.657-.001 0-.22-2.411-2.192-2.63-3.509" style="fill:none;stroke:#000;stroke-width:1.59404004;stroke-linecap:round;stroke-linejoin:round;stroke-miterlimit:10;stroke-opacity:1" transform="matrix(1 0 0 -1 107.234 106.711)"/><path d="M1.046-24.096H.241" style="fill:none;stroke:#000;stroke-width:1.39478004;stroke-linecap:butt;stroke-linejoin:miter;stroke-miterlimit:10;stroke-opacity:1" transform="matrix(1 0 0 -1 12.308 82.617)"/><path d="M.348-4.085v8.168" style="fill:none;stroke:#000;stroke-width:1.39478004;stroke-linecap:square;stroke-linejoin:miter;stroke-miterlimit:10;stroke-opacity:1" transform="matrix(-1 0 0 1 13.354 106.711)"/><path d="M120.476.002v72.281" style="fill:none;stroke:#000;stroke-width:.79701;stroke-linecap:butt;stroke-linejoin:miter;stroke-miterlimit:10;stroke-opacity:1" transform="matrix(1 0 0 -1 12.308 82.617)"/><path d="M120.476 69.877v.953" style="fill:none;stroke:#000;stroke-width:1.99255002;stroke-linecap:butt;stroke-linejoin:miter;stroke-miterlimit:10;stroke-opacity:1" transform="matrix(1 0 0 -1 12.308 82.617)"/><path d="M-2.63 3.507C-2.41 2.19 0 .217.657-.001 0-.22-2.41-2.192-2.63-3.509" style="fill:none;stroke:#000;stroke-width:1.59404004;stroke-linecap:round;stroke-linejoin:round;stroke-miterlimit:10;stroke-opacity:1" transform="matrix(0 -1 -1 0 132.783 11.786)"/><path d="M120.476 1.045V.24" style="fill:none;stroke:#000;stroke-width:1.39478004;stroke-linecap:butt;stroke-linejoin:miter;stroke-miterlimit:10;stroke-opacity:1" transform="matrix(1 0 0 -1 12.308 82.617)"/><path d="M.349-4.085v8.168" style="fill:none;stroke:#000;stroke-width:1.39478004;stroke-linecap:square;stroke-linejoin:miter;stroke-miterlimit:10;stroke-opacity:1" transform="matrix(0 1 1 0 132.783 81.57)"/><text xml:space="preserve" x="189.283" y="147.169" style="font-style:normal;font-weight:400;line-height:0%;font-family:sans-serif;letter-spacing:0;word-spacing:0;fill:#000;fill-opacity:1;stroke:none;stroke-width:1px;stroke-linecap:butt;stroke-linejoin:miter;stroke-opacity:1"><tspan x="189.283" y="147.169" style="font-size:31.99999809px;line-height:1.25"> </tspan></text><g aria-label="run" style="font-style:normal;font-weight:400;line-height:0%;font-family:sans-serif;letter-spacing:0;word-spacing:0;display:inline;fill:#000;fill-opacity:1;stroke:none;stroke-width:1px;stroke-linecap:butt;stroke-linejoin:miter;stroke-opacity:1"><path d="M53.048 118.53q.332-.868 1.074-1.454.752-.586 1.465-.586.644 0 1.015.4.372.4.372.82 0 .284-.196.489-.185.205-.459.205-.488 0-.742-.723-.176-.488-.527-.488-.42 0-1.006.576-.586.566-.752 1.182-.166.615-.166 1.69v1.425q0 1.28.03 1.611.038.332.282.508.245.176.87.176h.273v.449h-4.248v-.45h.205q.586 0 .83-.155.254-.166.303-.46.049-.292.049-1.68v-2.255q0-1.289-.04-1.611-.029-.332-.273-.508-.244-.186-.869-.186h-.205v-.44q.918-.107 2.402-.575.283.771.313 2.04zM65.714 116.812v5.244q0 1.309.039 1.64.039.333.283.499.254.166.898.166v.449q-1.484.02-2.168.313h-.117q-.312-.538-.332-1.856-.595.928-1.367 1.397-.762.468-1.69.468-.8 0-1.415-.361-.616-.371-.85-.898-.225-.528-.225-1.592v-2.725q0-1.387-.048-1.69-.05-.312-.313-.458-.254-.147-.947-.147v-.449h2.715v5.547q0 .82.097 1.191.098.371.498.655.4.273.928.273.752 0 1.436-.488.683-.498.927-1.045.254-.557.254-1.582v-1.807q0-1.308-.029-1.592-.03-.283-.254-.488-.215-.215-.908-.215h-.205v-.449zM70.206 116.49h.264q.224.605.254 1.65.703-.83 1.474-1.24.772-.41 1.611-.41.957 0 1.563.4.615.4.791.986.176.577.176 1.69v2.5q0 1.387.049 1.69.048.302.302.458.264.147.957.147v.449h-4.091v-.45h.185q.703 0 .918-.204.215-.205.244-.479.03-.273.03-1.611v-2.578q0-.948-.098-1.348-.088-.41-.498-.723-.4-.312-1.026-.312-.712 0-1.367.43-.644.42-1.22 1.27v3.26q0 1.388.048 1.69.059.303.313.46.264.146.967.146v.449h-4.043v-.45q.674 0 .937-.136.264-.137.322-.41.069-.283.069-1.748v-2.383q0-1.396-.059-1.69-.049-.302-.312-.449-.254-.156-.957-.156v-.45q1.074-.116 2.197-.448z" style="font-style:normal;font-variant:normal;font-weight:400;font-stretch:normal;font-size:20px;line-height:1.25;font-family:Baskerville;-inkscape-font-specification:Baskerville" transform="translate(-2.28)"/></g><g aria-label="rise" style="font-style:normal;font-weight:400;line-height:0%;font-family:sans-serif;letter-spacing:0;word-spacing:0;display:inline;fill:#000;fill-opacity:1;stroke:none;stroke-width:1px;stroke-linecap:butt;stroke-linejoin:miter;stroke-opacity:1"><path d="M-57.058 146.02q.332-.869 1.074-1.455.752-.586 1.465-.586.644 0 1.015.4.371.4.371.82 0 .284-.195.49-.185.204-.459.204-.488 0-.742-.722-.176-.489-.527-.489-.42 0-1.006.576-.586.567-.752 1.182-.166.615-.166 1.69v1.425q0 1.28.03 1.612.038.332.282.507.244.176.87.176h.273v.45h-4.248v-.45h.205q.586 0 .83-.156.254-.166.303-.459.049-.293.049-1.68V147.3q0-1.289-.04-1.61-.029-.333-.273-.509-.244-.185-.87-.185h-.204v-.44q.918-.107 2.402-.576.283.772.313 2.041zM-51.746 139.897q0-.42.293-.723.303-.302.723-.302t.713.302q.293.303.293.723 0 .43-.293.733-.293.302-.713.302t-.723-.302q-.293-.303-.293-.733zm1.885 4.082v5.576q0 1.28.039 1.612.039.332.283.507.244.176.87.176h.204v.45h-4.306v-.45h.332q.693 0 .898-.195.215-.205.244-.479.04-.283.04-1.62v-2.423q0-1.406-.137-1.718-.127-.313-.352-.39-.215-.079-.762-.079h-.263v-.45q1.738-.175 2.695-.517zM-47.273 152.553v-2.627h.38q.665 2.276 2.374 2.276.742 0 1.103-.45.371-.449.371-.986 0-.625-.39-1.025-.4-.4-1.553-.967-1.211-.596-1.738-1.172-.528-.566-.528-1.396 0-.791.567-1.504.566-.723 1.592-.723 1.044 0 1.728.85.147-.147.38-.713h.362v2.47h-.361q-.195-.888-.762-1.523-.556-.644-1.318-.644-.586 0-.947.36-.362.362-.362.84 0 .528.4.909.391.39 1.495.889 1.66.752 2.031 1.464.371.723.371 1.387 0 1.045-.693 1.7-.684.654-1.729.654-1.103 0-1.963-.908-.263.292-.43.84zM-33.416 147.006h-5.576q-.039.577-.039.86 0 2.11.654 3.174.664 1.054 1.973 1.054 1.777 0 2.52-1.591h.468q-.312.996-1.24 1.562-.928.557-2.022.557-1.015 0-1.923-.508-.899-.518-1.475-1.455-.576-.938-.576-2.276 0-1.894 1.113-3.144 1.113-1.26 2.783-1.26 1.573 0 2.432.957.86.957.908 2.07zm-1.709-.39q.03-.225.03-.4 0-.86-.508-1.329-.498-.478-1.23-.478-1.778 0-2.12 2.207z" style="font-style:normal;font-variant:normal;font-weight:400;font-stretch:normal;font-size:20px;line-height:1.25;font-family:Baskerville;-inkscape-font-specification:Baskerville" transform="rotate(-90 .76 .76)"/></g></svg>