<svg xmlns="http://www.w3.org/2000/svg" width="367" height="85" preserveAspectRatio="none"><path d="M70 0h2v2h-2Zm48 0h2v6h-4v2h-2V6h2V4h2Zm16 0h2v6h-2v2h-2V6h2Zm-32 4h2v2h4v2h-4V6h-2Zm48 0h2v2h-2ZM64 6h2v2h-2Zm10 0h4v2h-4Zm6 0h6v2h-6Zm10 0h2v2h-2Zm8 0h2v2h-2Zm12 0h2v2h-2Zm16 0h4v2h-2v2h-2Zm18 0h4v2h-4Zm36 0h2v2h-2Zm-6 2h2v2h-2Zm-96 2h2v2h-2Zm16 0h2v2h-2Zm32 2h2v2h-2Zm16 0h2v4h-2Zm16 0h2v4h-4v-2h2ZM42 14h2v2h-2Zm22 0h4v2h-4Zm6 0h2v2h-2Zm8 0h2v2h-2Zm6 0h6v2h-6Zm10 0h2v2h-2Zm28 0h2v2h-2Zm8 0h2v2h-2Zm18 0h2v2h2v4h-2v-4h-2Zm16 0h4v2h-4Zm12 0h2v2h-2Zm12 0h4v2h-4Zm14 0h2v2h-2Zm-68 2h2v4h-2Zm48 0h2v2h-2Zm16 0h2v2h-2Zm-32 2h2v2h-2Zm48 0h2v2h-2Zm-16 2h2v2h-2ZM76 22h2v2h-2Zm8 0h2v2h-2Zm6 0h2v2h-2Zm40 0h2v2h-2Zm10 0h4v4h-2v-2h-2Zm8 0h2v2h-2Zm4 0h8v2h-8Zm10 0h4v2h-4Zm10 0h2v2h2v2h-2v-2h-2Zm8 0h4v2h-4Zm10 0h4v2h-4Zm14 0h2v2h2v-2h4v2h-4v2h-2v-2h-2Zm78 0h2v2h-2Zm10 0h2v2h-2Zm6 0h2v2h-2ZM78 26h2v2h-2Zm16 0h2v2h-2Zm64 0h2v4h4v2h-4v-2h-2v2h-6v2h-2v-2h-8v-4h2v2h14Zm96 0h2v2h-2Zm16 0h2v2h-2Zm-96 2h2v2h2v2h-6v-2h2Zm16 0h2v4h-8v8h-2v-8h-2v-2h2v2h2v-2h6Zm16 0h2v2h2v2h-4Zm16 0h2v2h-2ZM72 30h2v2h-2Zm8 0h2v2h-2Zm6 0h2v2h-2Zm44 0h4v2h2v-2h4v2h-4v4h-2v-4h-4Zm36 0h4v2h-2v2h-2Zm30 0h8v2h-4v8h-10v-2h8v-6h-2Zm18 0h4v2h-4Zm14 0h2v2h-2Zm12 0h2v2h-2Zm4 0h2v2h-2Zm12 0h4v2h-4Zm12 0h2v2h-2Zm6 0h2v2h-2Zm4 0h2v4h-2Zm8 0h4v2h-4Zm10 0h4v2h-4Zm8 0h4v2h-4Zm8 0h2v2h-2ZM70 34h2v4h-2Zm144 0h2v2h-2Zm16 0h2v6h-4v-2h2Zm32 0h2v2h-2Zm-112 2h2v4h-8v4h-2v-6h8Zm16 0h2v4h-6v-2h4Zm128 0h2v2h4v2h-6Zm16 0h2v2h2v2h-4ZM44 38h2v2h-2Zm32 0h4v6h-2v-4h-2Zm10 0h2v2h-2Zm8 0h2v6h-2Zm10 0h2v2h-2Zm6 0h2v2h-2Zm12 0h2v2h-2Zm4 0h2v2h-2Zm4 0h2v2h-2Zm6 0h4v2h-4Zm18 0h6v2h-6Zm18 0h8v2h-4v2h-2v-2h-2Zm14 0h2v2h-2Zm16 0h12v2h-12Zm16 0h6v2h-6Zm18 0h2v2h-2Zm8 0h4v2h-4Zm8 0h2v2h2v4h-2v-4h-2Zm6 0h8v2h-8Zm14 0h2v2h-2v2h-2v-2h2Zm6 0h2v2h-2Zm4 0h2v2h-2Zm4 0h6v2h-4v6h14v2h-6v6h4v2h-4v-2h-2v2h-4v-2h4v-6h-14v6h2v2h-4v-8h-2v-2h2v2h2v-2h6Zm16 0h2v6h-2Zm4 0h2v2h-2Zm18 0h2v2h-2Zm-6 2h2v2h-2Zm-128 2h2v4h2v2h-2v-2h-2Zm16 0h2v2h-2Zm16 0h2v2h-2Zm-64 2h2v4h-4v-2h2Zm16 0h2v2h2v2h-2v-2h-2v2h-4v-2h4Zm96 0h2v4h-6v-2h4Zm48 0h2v4h-8v6h10v2h-2v6h14v-6h-10v-2h2v-4h2v4h14v-6h-2v-2h4v8h8v8h6v2h-30v6h4v2h-6v-8h-14v8h-2v-8h-14v2h-2v-2h-6v-2h-2v2h-2v-2h2v-2h2v2h6v2h2v-2h6v-8h8v-6h2v-2h6Zm16 0h2v2h2v2h-8v-2h4Zm-226 2h4v2h-4Zm8 0h2v2h-2Zm8 0h4v2h-4Zm8 0h4v2h-4Zm8 0h2v2h-2Zm4 0h10v2h-10Zm20 0h2v2h2v6h-2v-6h-2Zm16 0h2v2h2v-2h2v2h-2v4h-2v-4h-2Zm16 0h6v2h-6Zm8 0h6v2h-6Zm8 0h4v2h-4Zm12 0h2v2h-2Zm8 0h2v2h-2Zm6 0h4v2h-4Zm14 0h2v2h-2Zm4 0h6v2h2v2h-2v-2h-6Zm48 0h4v2h-4Zm18 0h2v2h-2Zm4 0h2v2h-2Zm21 0h5v2h-5Zm-229 4h2v2h-2Zm16 0h2v2h-2Zm16 0h2v2h-2Zm48 0h2v4h-2Zm16 0h2v6h-2Zm144 0h2v4h3v2h-9v-2h4Zm-256 4h2v2h-2Zm16 0h2v2h-2Zm6 0h2v2h-2Zm6 0h4v2h-4Zm6 0h2v2h-2Zm4 0h6v2h-2v4h-2v-4h-2Zm10 0h4v2h-4Zm8 0h4v2h-4Zm14 0h2v2h-2Zm6 0h4v2h-4Zm10 0h2v2h-2Zm4 0h4v2h-4Zm16 0h2v2h-2Zm12 0h4v2h-4Zm26 0h4v2h-4Zm18 0h2v2h-2Zm4 0h2v2h-2Zm6 0h2v2h-2Zm10 0h4v4h-2v-2h-2Zm34 2h-14v6h14Zm32 0h-14v6h14Zm-224 2h2v2h-2Zm48 0h2v2h4v2h2v2h4v2h2v-2h2v-2h6v2h2v8h2v2h4v6h-10v-2h-2v2h-8v-2h-2v2h-14v-2h-2v2h-8v-2h-2v2h-10v-6h4v-2h2v-8h2v-2h6v2h2v2h2v-2h2v-2h4v-2h4Zm2 2h-2v2h-4v2h8v-2h-2Zm92 2h2v2h-2Zm6 0h2v2h-2Zm6 0h2v2h-2v2h-2v-2h2Zm81 0h2v2h-2Zm-255 2h2v2h-2Zm50 0h-2v2h2Zm36 0h-2v2h2Zm-22 2h-4v2h-2v2h2v2h2v4h4v-2h2v-4h-2v-2h-2Zm8 0h-6v2h2v2h2v-2h2Zm8 2h-8v2h-2v4h2v2h4v-4h2v-2h2Zm62 0h2v2h2v-2h4v4h2v2h2v2h-4v2h-2v2h-4v-4h-4v2h2v2h-2v-2h-4v2h-2v-2h2v-2h-2v-2h-4v2h-2v2h-2v2h-2v-2h2v-2h2v-2h2v-2h6v-2h6Zm36 0h4v2h2v-2h2v2h6v2h6v2h2v2h4v2h-4v-2h-2v-2h-4v4h-2v2h-4v-2h-2v2h-2v-2h-2v-2h-2v2h-2v2h-2v-2h2v-2h-2v-2h-2v-2h4Zm22 2h2v2h-2Zm10 0h4v6h-2v-4h-2Zm6 0h2v2h-2Zm-168 2h-2v2h-2v2h-2v2h8v-4h-2Zm44 0h-2v2h-2v4h8v-2h-2v-2h-2Zm56 0h-2v2h2Zm34 0h-2v2h2Zm54 3h2v1h-2v2h2v2h-2v-2h-2v-2h2Zm-88 1h-2v2h2Zm38 0h-2v2h2Zm6 0h-4v2h4Zm16 2h2v2h-2Zm10 0h2v2h-2Zm6 0h2v2h-2Zm6 0h2v2h-2Zm12 0h2v2h-2Zm6 0h4v2h-4Zm6 0h2v2h-2Z"/></svg>