<svg xmlns="http://www.w3.org/2000/svg" xmlns:xlink="http://www.w3.org/1999/xlink" width="203.614" height="166.46" viewBox="0 0 152.71 124.845"><defs><symbol id="a" overflow="visible" style="overflow:visible"><path d="M1.781-1.14C1.391-.485 1-.345.563-.314c-.125.016-.22.016-.22.204 0 .062.063.109.141.109.266 0 .579-.031.844-.031.344 0 .688.031 1 .031.063 0 .188 0 .188-.188 0-.109-.079-.124-.157-.124-.218-.016-.468-.094-.468-.344 0-.125.062-.235.14-.375l.766-1.266h2.5c.016.203.156 1.563.156 1.656 0 .297-.516.329-.719.329-.14 0-.234 0-.234.203C4.5 0 4.61 0 4.64 0c.407 0 .829-.031 1.235-.031.25 0 .89.031 1.14.031.048 0 .173 0 .173-.203 0-.11-.094-.11-.235-.11-.61 0-.61-.062-.64-.359l-.61-6.219c-.016-.203-.016-.25-.187-.25-.157 0-.204.079-.266.172zm1.203-1.47 1.954-3.296.328 3.297Zm0 0" style="stroke:none"/></symbol><symbol id="b" overflow="visible" style="overflow:visible"><path d="M1.594-.781c-.094.39-.125.469-.907.469-.171 0-.265 0-.265.203C.422 0 .516 0 .688 0H4.25C5.828 0 7-1.172 7-2.156c0-.719-.578-1.297-1.547-1.406 1.031-.188 2.078-.922 2.078-1.876 0-.734-.656-1.375-1.843-1.375h-3.36c-.187 0-.281 0-.281.204 0 .109.094.109.281.109.016 0 .203 0 .375.016.172.03.266.03.266.171 0 .032-.016.063-.031.188zm1.5-2.875.625-2.469c.094-.344.11-.375.531-.375h1.297c.875 0 1.078.594 1.078 1.031 0 .875-.86 1.813-2.063 1.813zM2.656-.312h-.219c-.109-.016-.14-.032-.14-.11 0-.031 0-.047.062-.219l.688-2.78h1.875c.953 0 1.156.733 1.156 1.155 0 .985-.89 1.954-2.078 1.954Zm0 0" style="stroke:none"/></symbol></defs><path d="M-12.047-9.036 108.425 81.32" style="fill:none;stroke:#000;stroke-width:.79701;stroke-linecap:butt;stroke-linejoin:miter;stroke-miterlimit:10;stroke-opacity:1" transform="matrix(1 0 0 -1 12.308 82.616)"/><path d="M0 0v-36.141M96.379 0v-36.141M96.379 0h36.144M96.379 72.285h36.144" style="fill:none;stroke:#7f7f7f;stroke-width:.19925;stroke-linecap:butt;stroke-linejoin:miter;stroke-miterlimit:10;stroke-opacity:1" transform="matrix(1 0 0 -1 12.308 82.616)"/><path d="M2.41 0A2.409 2.409 0 0 1 0 2.41 2.409 2.409 0 0 1-2.41 0 2.409 2.409 0 0 1 0-2.41 2.409 2.409 0 0 1 2.41 0Zm0 0" style="fill:#000;fill-opacity:1;fill-rule:nonzero;stroke:#000;stroke-width:.3985;stroke-linecap:butt;stroke-linejoin:miter;stroke-miterlimit:10;stroke-opacity:1" transform="matrix(1 0 0 -1 12.308 82.616)"/><use xlink:href="#a" width="100%" height="100%" x="7.938" y="91.917" style="fill:#000;fill-opacity:1" transform="translate(-8.282 -12.82)"/><path d="M98.789 72.285a2.409 2.409 0 1 1-4.82 0 2.409 2.409 0 1 1 4.82 0zm0 0" style="fill:#000;fill-opacity:1;fill-rule:nonzero;stroke:#000;stroke-width:.3985;stroke-linecap:butt;stroke-linejoin:miter;stroke-miterlimit:10;stroke-opacity:1" transform="matrix(1 0 0 -1 12.308 82.616)"/><use xlink:href="#b" width="100%" height="100%" x="105.392" y="19.633" style="fill:#000;fill-opacity:1" transform="translate(-8.282 -12.82)"/><path d="M0 0h96.082" style="fill:none;stroke:#000;stroke-width:.3985;stroke-linecap:butt;stroke-linejoin:miter;stroke-miterlimit:10;stroke-dasharray:2.98883,1.99255;stroke-opacity:1" transform="matrix(1 0 0 -1 12.308 82.616)"/><path d="M.098-2.59v5.18" style="fill:none;stroke:#000;stroke-width:.3985;stroke-linecap:square;stroke-linejoin:miter;stroke-miterlimit:10;stroke-opacity:1" transform="matrix(1 0 0 -1 108.39 82.616)"/><path d="M96.379.3v69.575" style="fill:none;stroke:#000;stroke-width:.3985;stroke-linecap:butt;stroke-linejoin:miter;stroke-miterlimit:10;stroke-dasharray:2.98883,1.99255;stroke-opacity:1" transform="matrix(1 0 0 -1 12.308 82.616)"/><path d="M.1-2.591v5.18" style="fill:none;stroke:#000;stroke-width:.3985;stroke-linecap:square;stroke-linejoin:miter;stroke-miterlimit:10;stroke-opacity:1" transform="matrix(0 1 1 0 108.688 82.318)"/><path d="M0-24.094h96.379" style="fill:none;stroke:#000;stroke-width:.79701;stroke-linecap:butt;stroke-linejoin:miter;stroke-miterlimit:10;stroke-opacity:1" transform="matrix(1 0 0 -1 12.308 82.616)"/><path d="M95.336-24.094h.804" style="fill:none;stroke:#000;stroke-width:1.39478004;stroke-linecap:butt;stroke-linejoin:miter;stroke-miterlimit:10;stroke-opacity:1" transform="matrix(1 0 0 -1 12.308 82.616)"/><path d="M.35-4.085v8.168" style="fill:none;stroke:#000;stroke-width:1.39478004;stroke-linecap:square;stroke-linejoin:miter;stroke-miterlimit:10;stroke-opacity:1" transform="matrix(1 0 0 -1 107.642 106.711)"/><path d="M2.41-24.094h-.957" style="fill:none;stroke:#000;stroke-width:1.99255002;stroke-linecap:butt;stroke-linejoin:miter;stroke-miterlimit:10;stroke-opacity:1" transform="matrix(1 0 0 -1 12.308 82.616)"/><path d="M-2.631 3.507C-2.412 2.191.002.218.659 0c-.657-.218-3.071-2.191-3.29-3.508" style="fill:none;stroke:#000;stroke-width:1.59404004;stroke-linecap:round;stroke-linejoin:round;stroke-miterlimit:10;stroke-opacity:1" transform="matrix(-1 0 0 1 13.763 106.711)"/><path d="M120.476 0v72.285" style="fill:none;stroke:#000;stroke-width:.79701;stroke-linecap:butt;stroke-linejoin:miter;stroke-miterlimit:10;stroke-opacity:1" transform="matrix(1 0 0 -1 12.308 82.616)"/><path d="M120.476 71.238v.805" style="fill:none;stroke:#000;stroke-width:1.39478004;stroke-linecap:butt;stroke-linejoin:miter;stroke-miterlimit:10;stroke-opacity:1" transform="matrix(1 0 0 -1 12.308 82.616)"/><path d="M.347-4.083v8.168" style="fill:none;stroke:#000;stroke-width:1.39478004;stroke-linecap:square;stroke-linejoin:miter;stroke-miterlimit:10;stroke-opacity:1" transform="matrix(0 -1 -1 0 132.783 11.378)"/><path d="M120.476 2.41v-.957" style="fill:none;stroke:#000;stroke-width:1.99255002;stroke-linecap:butt;stroke-linejoin:miter;stroke-miterlimit:10;stroke-opacity:1" transform="matrix(1 0 0 -1 12.308 82.616)"/><path d="M-2.63 3.505C-2.413 2.193.001.22.657.001.002-.217-2.412-2.19-2.63-3.506" style="fill:none;stroke:#000;stroke-width:1.59404004;stroke-linecap:round;stroke-linejoin:round;stroke-miterlimit:10;stroke-opacity:1" transform="matrix(0 1 1 0 132.783 81.162)"/><text xml:space="preserve" x="156.221" y="234.93" style="font-style:normal;font-weight:400;line-height:0%;font-family:sans-serif;letter-spacing:0;word-spacing:0;fill:#000;fill-opacity:1;stroke:none;stroke-width:1px;stroke-linecap:butt;stroke-linejoin:miter;stroke-opacity:1"><tspan x="156.221" y="234.93" style="font-size:31.99999809px;line-height:1.25"> </tspan></text><g aria-label="run" style="font-style:normal;font-weight:400;line-height:0%;font-family:sans-serif;letter-spacing:0;word-spacing:0;fill:#000;fill-opacity:1;stroke:none;stroke-width:1px;stroke-linecap:butt;stroke-linejoin:miter;stroke-opacity:1"><path d="M53.185 118.292q.332-.87 1.075-1.455.752-.586 1.464-.586.645 0 1.016.4t.371.82q0 .284-.195.489-.186.205-.46.205-.487 0-.741-.723-.176-.488-.528-.488-.42 0-1.006.576-.585.567-.752 1.182-.166.615-.166 1.69v1.425q0 1.28.03 1.612.039.332.283.507.244.176.87.176h.273v.45H50.47v-.45h.205q.586 0 .83-.156.254-.166.302-.46.05-.292.05-1.679v-2.256q0-1.289-.04-1.611-.03-.332-.273-.508-.244-.185-.87-.185h-.204v-.44q.917-.107 2.402-.576.283.772.312 2.041zM65.851 116.573v5.244q0 1.31.04 1.641.038.332.283.498.254.166.898.166v.45q-1.484.019-2.168.312h-.117q-.313-.537-.332-1.856-.596.928-1.367 1.397-.762.469-1.69.469-.8 0-1.416-.362-.615-.37-.85-.898-.224-.527-.224-1.592v-2.725q0-1.386-.049-1.689-.049-.312-.312-.459-.254-.146-.948-.146v-.45h2.715v5.547q0 .82.098 1.192.098.37.498.654.4.273.928.273.752 0 1.435-.488.684-.498.928-1.045.254-.556.254-1.582v-1.807q0-1.308-.03-1.591-.029-.284-.253-.489-.215-.214-.909-.214h-.205v-.45zM70.344 116.251h.263q.225.606.254 1.65.703-.83 1.475-1.24.771-.41 1.611-.41.957 0 1.563.4.615.4.79.987.176.576.176 1.69v2.5q0 1.386.05 1.689.048.302.302.459.264.146.957.146v.45h-4.092v-.45h.186q.703 0 .918-.205.215-.205.244-.478.03-.274.03-1.612v-2.578q0-.947-.099-1.348-.087-.41-.498-.722-.4-.313-1.025-.313-.713 0-1.367.43-.645.42-1.22 1.27v3.261q0 1.387.048 1.69.059.302.312.459.264.146.967.146v.45h-4.043v-.45q.674 0 .938-.137.263-.136.322-.41.068-.283.068-1.748v-2.383q0-1.396-.058-1.689-.049-.303-.313-.45-.254-.156-.957-.156v-.449q1.075-.117 2.198-.449z" style="font-style:normal;font-variant:normal;font-weight:400;font-stretch:normal;font-size:20px;line-height:1.25;font-family:Baskerville;-inkscape-font-specification:Baskerville" transform="translate(-1.684)"/></g><g aria-label="rise" style="font-style:normal;font-weight:400;line-height:0%;font-family:sans-serif;letter-spacing:0;word-spacing:0;fill:#000;fill-opacity:1;stroke:none;stroke-width:1px;stroke-linecap:butt;stroke-linejoin:miter;stroke-opacity:1"><path d="M-56.82 146.158q.332-.87 1.075-1.455.751-.586 1.464-.586.645 0 1.016.4t.371.82q0 .284-.195.489-.186.205-.46.205-.488 0-.741-.723-.176-.488-.528-.488-.42 0-1.006.576-.586.566-.752 1.182-.166.615-.166 1.69v1.425q0 1.28.03 1.611.039.332.283.508.244.176.87.176h.272v.449h-4.248v-.45h.206q.585 0 .83-.155.254-.166.302-.46.05-.292.05-1.68v-2.255q0-1.289-.04-1.611-.03-.332-.273-.508-.244-.186-.87-.186h-.205v-.44q.918-.107 2.403-.575.283.771.312 2.04zM-51.507 140.035q0-.42.293-.723.302-.303.722-.303t.713.303q.293.303.293.723 0 .43-.293.732-.293.303-.713.303t-.722-.303q-.293-.303-.293-.732zm1.885 4.082v5.576q0 1.28.039 1.611.039.332.283.508.244.176.869.176h.205v.449h-4.307v-.45h.332q.694 0 .899-.194.215-.206.244-.479.04-.283.04-1.621v-2.422q0-1.406-.138-1.719-.127-.312-.351-.39-.215-.078-.762-.078h-.264v-.45q1.739-.175 2.696-.517zM-47.035 152.69v-2.626h.381q.664 2.275 2.373 2.275.743 0 1.104-.449.371-.45.371-.986 0-.625-.39-1.026-.401-.4-1.553-.966-1.211-.596-1.739-1.172-.527-.567-.527-1.397 0-.79.566-1.504.567-.722 1.592-.722 1.045 0 1.729.85.146-.147.38-.714h.362v2.471h-.361q-.196-.889-.762-1.523-.557-.645-1.319-.645-.585 0-.947.362-.361.36-.361.84 0 .527.4.908.39.39 1.494.888 1.66.752 2.032 1.465.37.723.37 1.387 0 1.045-.693 1.699-.683.654-1.728.654-1.104 0-1.963-.908-.264.293-.43.84zM-33.177 147.144h-5.576q-.04.576-.04.86 0 2.109.655 3.173.664 1.055 1.973 1.055 1.777 0 2.52-1.592h.468q-.313.996-1.24 1.563-.928.556-2.022.556-1.015 0-1.924-.508-.898-.517-1.474-1.455-.576-.937-.576-2.275 0-1.895 1.113-3.145 1.113-1.26 2.783-1.26 1.572 0 2.432.958.859.957.908 2.07zm-1.71-.39q.03-.225.03-.401 0-.86-.508-1.328-.498-.479-1.23-.479-1.777 0-2.12 2.207z" style="font-style:normal;font-variant:normal;font-weight:400;font-stretch:normal;font-size:20px;line-height:1.25;font-family:Baskerville;-inkscape-font-specification:Baskerville" transform="rotate(-90 -.28 -.28)"/></g></svg>