<svg xmlns="http://www.w3.org/2000/svg" width="400" height="200" viewBox="0 0 105.833 52.917"><path d="M46.433 32.004c.104.537.578.884.993 1.172 1.348.934 2.804 1.362 4.618 1.393 1.081.02 2.234-.087 3.186-.68.471-.294.882-.831.897-1.397.02-.74-.8-.748-.798 0 .002.393.34.773.605 1.026 1.089 1.039 2.533 1.266 3.967 1.37 2.029.147 3.787-.06 5.332-.783 1.13-.53 2.25-1.115 3.001-2.163.094-.13.185-.318.233-.5.213-.812-.866-.737-1.086.083-.058.217-.009.46.07.663.291.74.886 1.086 1.54 1.381a9.727 9.727 0 0 0 4.372.84c1.14-.04 2.42-.174 3.434-.733.764-.42 1.449-1.152 1.546-2.064.046-.438-.19-.958-.665-1.008l-.222.026c-.66.293-.074 1.035.378 1.237 1.4.625 2.998.43 4.381-.084 1.156-.43 2.24-1.183 2.862-2.293.86-1.477.817-3.45.23-5.01-.487-1.293-1.552-2.768-3.022-3.322-.6-.227-1.305-.317-1.901-.04-.436.2-.691.801-.448 1.247.122.236.133.096.112-.156-.093-.49-.557-.744-.912-.941-1.554-.864-3.307-1.058-5.004-1.198-1.925-.16-3.9.017-5.733.75-.751.3-1.625.84-1.8 1.838-.043.24-.007.5.12.703.221.326.385.134.55-.046.263-.643-.17-1.32-.492-1.856-1-1.574-2.798-2.34-4.501-2.826-2.139-.542-4.403-.712-6.575-.272-1.41.304-2.88.936-3.694 2.21-.372.636-.56 1.51-.137 2.169.118.163.341.104.399-.09.198-.744-.513-1.33-1.141-1.516-1.584-.466-3.296-.342-4.874.09-2.191.62-4.307 1.822-5.695 3.7-.87 1.298-1.18 3.064-.484 4.516.623 1.3 1.798 2.224 3.06 2.823.806.424 2.05.63 3.106.612a9.553 9.553 0 0 0 2.156-.266" style="fill:#ffd5d5;stroke:#000;stroke-width:.35;stroke-miterlimit:4;stroke-dasharray:none"/><path d="M46.792 32.708" style="fill:none;stroke:#000;stroke-width:.396875"/><path d="m34.77 25.662.049-.056M34.797 25.533l-.027.07" style="fill:#f4d7d7;fill-opacity:1;stroke:#000;stroke-width:.35;stroke-miterlimit:4;stroke-dasharray:none"/><path d="M34.622 25.583c-.329-.24-.732-.333-1.124-.391-.16-.024-.32-.048-.483-.051-.188-.004-.377.02-.565.03-.197.042-.398.066-.59.124-.549.164-1.093.464-1.434.96-.283.411-.258.564-.345 1.049.016.195.01.393.05.584.169.825.72 1.532 1.39 1.976.171.112.36.193.54.289.191.06.378.138.574.179.581.12 1.18.056 1.736-.15.488-.18.593-.288 1.025-.579.137-.128.285-.243.41-.383.332-.368.585-.834.624-1.348.031-.396-.044-.52-.154-.89-.072-.13-.132-.267-.215-.39a2.88 2.88 0 0 0-1.181-.992c-.09-.038-.185-.06-.278-.09M26.423 26.932c.529.149.773.716.743 1.166-.048.69-.563 1.317-1.238 1.47-.674.154-1.437-.005-1.93-.508a1.613 1.613 0 0 1-.426-1.398c.125-.677.57-1.137 1.14-1.291.709-.192 1.375.004 1.897.462M22.28 58.79c.072.018.15.023.207.054.142.076.207.11.282.26a.53.53 0 0 1-.067.564.609.609 0 0 1-.17.164c-.224.129-.3.173-.572.182a1.388 1.388 0 0 1-1.084-.501 1.074 1.074 0 0 1-.14-.217c-.1-.21-.131-.54.073-.703a.52.52 0 0 1 .166-.094.876.876 0 0 1 .234-.031c.3-.01.692.06.94.24.028.02.049.048.073.072M-8.734 34.434a.984.984 0 0 1 .436.349c.232.352.238.817.098 1.204-.103.281-.294.524-.502.734a1.592 1.592 0 0 1-1.77.314c-.69-.327-1.103-.664-1.443-1.365a1.18 1.18 0 0 1-.01-.985c.152-.302.372-.563.674-.677.543-.205 1.142-.097 1.69.031.336.079.729.155.935.44a.772.772 0 0 0 .044.067" style="fill:#ffd5d5;fill-opacity:1;stroke:#000;stroke-width:.35;stroke-miterlimit:4;stroke-dasharray:none"/><path d="M48.862-8.325c.004.03.005.06.014.09.143.458.6.784.962 1.057.808.547 1.745.867 2.694 1.067.255.054.513.091.77.137.275.03.55.068.825.09.98.081 2.05.102 2.996-.208.191-.062.37-.158.553-.238.15-.101.31-.188.447-.304.314-.266.56-.635.624-1.046.042-.27.003-.34-.055-.588-.037-.06-.061-.13-.111-.18-.161-.161-.387-.09-.517.068-.125.152-.11.263-.132.45.026.102.04.208.076.306.21.558.678.976 1.174 1.28.164.101.34.183.51.274.217.079.43.17.653.236 1.212.353 2.507.387 3.756.28.399-.035.795-.098 1.192-.146 1.139-.196 2.287-.432 3.358-.882a8.14 8.14 0 0 0 .882-.442c.653-.373.718-.472 1.249-.935.115-.142.245-.274.347-.427.188-.285.391-.81.038-1.069-.05-.036-.115-.046-.172-.07-.062.005-.127 0-.187.016-.288.078-.486.366-.552.643-.018.08-.019.163-.029.244.024.383.173.735.44 1.013.187.195.282.237.511.383.947.467 1.987.694 3.013.91 1 .173 2.014.348 3.033.317.67-.02.818-.075 1.464-.198.213-.066.43-.119.639-.2a3.962 3.962 0 0 0 1.46-.959c.306-.326.323-.418.525-.8.04-.136.098-.267.122-.407.072-.402-.032-.893-.427-1.094-.072-.037-.155-.045-.233-.068-.076.01-.155.002-.227.027a.446.446 0 0 0-.296.56c.074.258.208.33.4.508.126.073.247.157.38.218.757.344 1.662.414 2.479.323.266-.03.528-.088.792-.132.27-.073.544-.13.81-.22.793-.264 1.574-.657 2.214-1.201.568-.483.622-.645 1.044-1.252.114-.257.255-.504.344-.77.3-.891.314-1.847.148-2.765-.159-.875-.308-1.13-.634-1.952-.166-.293-.311-.598-.497-.878-.514-.777-1.177-1.442-2.039-1.823-.617-.273-.82-.243-1.46-.303-.443.093-.648.064-.979.39-.225.222-.315.597-.24.9.01.048.044.087.067.131.038-.004.106.025.114-.012.035-.162-.233-.378-.305-.434-.538-.42-1.126-.593-1.76-.814-.34-.08-.675-.173-1.016-.24-.802-.159-1.75-.281-2.559-.343-1.108-.084-1.896-.1-3.01-.01-.491.04-.979.121-1.469.182-1.05.223-2.169.43-3.026 1.132-.297.243-.512.54-.591.917-.025.117.002.239.003.358.04.084.06.18.12.252.157.19.43.16.563-.038.113-.168.08-.34.08-.529-.026-.113-.042-.229-.078-.34-.192-.58-.625-1.215-1.034-1.66-.141-.154-.298-.294-.448-.44-.211-.153-.413-.318-.634-.456-1.21-.759-2.64-1.23-4.036-1.494-.433-.082-.871-.126-1.306-.189-.456-.03-.91-.082-1.367-.092-1.645-.035-3.438.162-4.933.895-.298.146-.568.344-.852.516-.21.191-.442.363-.632.575-.42.467-.7 1.054-.733 1.685-.018.343.033.435.122.74.041.072.069.152.122.214.147.171.326.094.408-.09.064-.144.033-.277.02-.427-.027-.081-.045-.167-.083-.244-.213-.438-.658-.693-1.103-.844-.165-.057-.337-.092-.506-.138a9.425 9.425 0 0 0-2.954-.074c-.337.043-.673.091-1.004.166-.394.09-.78.218-1.169.328-.41.16-.828.295-1.228.478-.826.379-1.627.853-2.343 1.414-.604.475-1.296 1.143-1.715 1.8-.207.324-.336.693-.504 1.04-.08.356-.203.706-.239 1.07-.068.687.035 1.457.314 2.092.153.347.36.671.59.972.615.801.973.976 1.777 1.566.872.434 1.21.675 2.176.87.911.183 1.454.118 2.369.093" style="fill:#ffd5d5;stroke:#000;stroke-width:.35;stroke-miterlimit:4;stroke-dasharray:none"/></svg>