<svg xmlns="http://www.w3.org/2000/svg" xmlns:xlink="http://www.w3.org/1999/xlink" width="521.585" height="281.156" viewBox="0 0 391.189 210.867"><defs><symbol id="b" overflow="visible" style="overflow:visible"><path d="M.156-3.984c.125-.032.188-.047.297-.047.578 0 .719.25 1.188 1.968.156.641.406 1.813.406 1.985 0 .156-.063.312-.219.5-.297.406-.5.672-.61.781C1 1.422.892 1.5.75 1.5c-.047 0-.125-.031-.234-.11-.141-.109-.25-.171-.36-.171a.387.387 0 0 0-.39.39c0 .25.218.438.5.438.64 0 1.953-1.485 3.03-3.469.673-1.219.954-1.937.954-2.422a.554.554 0 0 0-.547-.547c-.234 0-.39.141-.39.36 0 .156.078.265.28.39.188.11.25.204.25.344 0 .39-.359 1.172-1.218 2.578l-.188-1.156c-.156-.875-.718-2.516-.859-2.516h-.125l-.984.172a1.759 1.759 0 0 1-.313.063zm0 0"/></symbol><symbol id="c" overflow="visible" style="overflow:visible"><path d="M4-1.11c-.078.094-.125.157-.219.266-.219.313-.344.406-.453.406-.14 0-.234-.124-.312-.406-.016-.078-.032-.14-.032-.172-.25-1.015-.359-1.468-.359-1.609.438-.781.797-1.219.969-1.219.062 0 .14.031.25.078.11.079.187.094.265.094.204 0 .344-.14.344-.36 0-.202-.172-.359-.406-.359-.438 0-.813.36-1.5 1.422l-.11-.547c-.14-.687-.25-.875-.53-.875-.22 0-.548.079-1.157.282l-.11.046.032.141c.39-.078.469-.11.562-.11.25 0 .313.095.454.688l.28 1.235-.812 1.156C.953-.641.75-.47.641-.47a.554.554 0 0 1-.25-.094.755.755 0 0 0-.329-.093c-.187 0-.328.14-.328.344 0 .265.204.421.5.421.297 0 .422-.093.922-.703.266-.312.485-.578.89-1.156L2.36-.562c.125.515.25.671.579.671.374 0 .624-.234 1.203-1.14zm0 0"/></symbol><symbol id="d" overflow="visible" style="overflow:visible"><path d="M4-1.11c-.078.094-.125.157-.219.266-.219.313-.344.406-.453.406-.14 0-.234-.124-.312-.406-.016-.078-.032-.14-.032-.172-.25-1.015-.359-1.468-.359-1.609.438-.781.797-1.219.969-1.219.062 0 .14.031.25.078.11.079.187.094.265.094.204 0 .344-.14.344-.36 0-.202-.172-.359-.406-.359-.438 0-.813.36-1.5 1.422l-.11-.547c-.14-.687-.25-.875-.53-.875-.22 0-.548.079-1.157.282l-.11.046.032.141c.39-.078.469-.11.562-.11.25 0 .313.095.454.688l.28 1.235-.812 1.156C.953-.641.75-.47.641-.47a.554.554 0 0 1-.25-.094.755.755 0 0 0-.329-.093c-.187 0-.328.14-.328.344 0 .265.204.421.5.421.297 0 .422-.093.922-.703.266-.312.485-.578.89-1.156L2.36-.562c.125.515.25.671.579.671.374 0 .624-.234 1.203-1.14zm0 0"/></symbol><symbol id="e" overflow="visible" style="overflow:visible"><path d="M1.875-4.984c-.406 0-.719.125-.984.375-.438.421-.72 1.265-.72 2.125 0 .812.25 1.671.595 2.093.28.313.656.5 1.078.5.375 0 .687-.125.953-.39.437-.406.719-1.266.719-2.156 0-1.516-.672-2.547-1.641-2.547zm-.031.187c.625 0 .953.844.953 2.375 0 1.547-.313 2.328-.953 2.328-.64 0-.953-.781-.953-2.312 0-1.563.328-2.39.953-2.39zm0 0"/></symbol><symbol id="f" overflow="visible" style="overflow:visible"><path d="M.156-3.984c.125-.032.188-.047.297-.047.578 0 .719.25 1.188 1.968.156.641.406 1.813.406 1.985 0 .156-.063.312-.219.5-.297.406-.5.672-.61.781C1 1.422.892 1.5.75 1.5c-.047 0-.125-.031-.234-.11-.141-.109-.25-.171-.36-.171a.387.387 0 0 0-.39.39c0 .25.218.438.5.438.64 0 1.953-1.485 3.03-3.469.673-1.219.954-1.937.954-2.422a.554.554 0 0 0-.547-.547c-.234 0-.39.141-.39.36 0 .156.078.265.28.39.188.11.25.204.25.344 0 .39-.359 1.172-1.218 2.578l-.188-1.156c-.156-.875-.718-2.516-.859-2.516h-.125l-.984.172a1.759 1.759 0 0 1-.313.063zm0 0"/></symbol><symbol id="g" overflow="visible" style="overflow:visible"><path d="M1.875-4.984c-.406 0-.719.125-.984.375-.438.421-.72 1.265-.72 2.125 0 .812.25 1.671.595 2.093.28.313.656.5 1.078.5.375 0 .687-.125.953-.39.437-.406.719-1.266.719-2.156 0-1.516-.672-2.547-1.641-2.547zm-.031.187c.625 0 .953.844.953 2.375 0 1.547-.313 2.328-.953 2.328-.64 0-.953-.781-.953-2.312 0-1.563.328-2.39.953-2.39zm0 0"/></symbol><symbol id="z" overflow="visible" style="overflow:visible"><path d="M4-1.11c-.078.094-.125.157-.219.266-.219.313-.344.406-.453.406-.14 0-.234-.124-.312-.406-.016-.078-.032-.14-.032-.172-.25-1.015-.359-1.468-.359-1.609.438-.781.797-1.219.969-1.219.062 0 .14.031.25.078.11.079.187.094.265.094.204 0 .344-.14.344-.36 0-.202-.172-.359-.406-.359-.438 0-.813.36-1.5 1.422l-.11-.547c-.14-.687-.25-.875-.53-.875-.22 0-.548.079-1.157.282l-.11.046.032.141c.39-.078.469-.11.562-.11.25 0 .313.095.454.688l.28 1.235-.812 1.156C.953-.641.75-.47.641-.47a.554.554 0 0 1-.25-.094.755.755 0 0 0-.329-.093c-.187 0-.328.14-.328.344 0 .265.204.421.5.421.297 0 .422-.093.922-.703.266-.312.485-.578.89-1.156L2.36-.562c.125.515.25.671.579.671.374 0 .624-.234 1.203-1.14zm0 0"/></symbol><symbol id="C" overflow="visible" style="overflow:visible"><path d="M.156-3.984c.125-.032.188-.047.297-.047.578 0 .719.25 1.188 1.968.156.641.406 1.813.406 1.985 0 .156-.063.312-.219.5-.297.406-.5.672-.61.781C1 1.422.892 1.5.75 1.5c-.047 0-.125-.031-.234-.11-.141-.109-.25-.171-.36-.171a.387.387 0 0 0-.39.39c0 .25.218.438.5.438.64 0 1.953-1.485 3.03-3.469.673-1.219.954-1.937.954-2.422a.554.554 0 0 0-.547-.547c-.234 0-.39.141-.39.36 0 .156.078.265.28.39.188.11.25.204.25.344 0 .39-.359 1.172-1.218 2.578l-.188-1.156c-.156-.875-.718-2.516-.859-2.516h-.125l-.984.172a1.759 1.759 0 0 1-.313.063zm0 0"/></symbol><symbol id="A" overflow="visible" style="overflow:visible"><path d="M6.563-2.297c.171 0 .359 0 .359-.203 0-.188-.188-.188-.36-.188h-5.39c-.172 0-.344 0-.344.188 0 .203.172.203.344.203zm0 0"/></symbol><symbol id="B" overflow="visible" style="overflow:visible"><path d="M1.875-4.984c-.406 0-.719.125-.984.375-.438.421-.72 1.265-.72 2.125 0 .812.25 1.671.595 2.093.28.313.656.5 1.078.5.375 0 .687-.125.953-.39.437-.406.719-1.266.719-2.156 0-1.516-.672-2.547-1.641-2.547zm-.031.187c.625 0 .953.844.953 2.375 0 1.547-.313 2.328-.953 2.328-.64 0-.953-.781-.953-2.312 0-1.563.328-2.39.953-2.39zm0 0"/></symbol><symbol id="V" overflow="visible" style="overflow:visible"><path d="M.563-4.031h.249c.141-.063.391.125.391.265 0 .094-.36 1.516-.703 2.829C.234.063-.016 1-.078 1.296c-.11.453-.234.578-.672.594v.156h2.047V1.89c-.469 0-.64-.094-.64-.297 0-.14.171-.922.374-1.657.25.126.422.172.657.172 1.453 0 2.984-1.671 2.984-3.265 0-.766-.438-1.235-1.14-1.235-.657 0-1.126.313-1.704 1.125l.281-1 .032-.093-.016-.032h-.016c0-.015-.015-.015-.015-.015l-.016.015-1.547.22zm2.593.062c.438.016.625.281.625.86 0 .656-.297 1.515-.719 2.125-.421.593-.906.906-1.421.906-.282 0-.47-.156-.47-.375 0-.328.36-1.64.641-2.375.266-.688.844-1.172 1.344-1.14Zm0 0"/></symbol><symbol id="X" overflow="visible" style="overflow:visible"><path d="M4-1.11c-.078.094-.125.157-.219.266-.219.313-.344.406-.453.406-.14 0-.234-.124-.312-.406-.016-.078-.032-.14-.032-.172-.25-1.015-.359-1.468-.359-1.609.438-.781.797-1.219.969-1.219.062 0 .14.031.25.078.11.079.187.094.265.094.204 0 .344-.14.344-.36 0-.202-.172-.359-.406-.359-.438 0-.813.36-1.5 1.422l-.11-.547c-.14-.687-.25-.875-.53-.875-.22 0-.548.079-1.157.282l-.11.046.032.141c.39-.078.469-.11.562-.11.25 0 .313.095.454.688l.28 1.235-.812 1.156C.953-.641.75-.47.641-.47a.554.554 0 0 1-.25-.094.755.755 0 0 0-.329-.093c-.187 0-.328.14-.328.344 0 .265.204.421.5.421.297 0 .422-.093.922-.703.266-.312.485-.578.89-1.156L2.36-.562c.125.515.25.671.579.671.374 0 .624-.234 1.203-1.14zm0 0"/></symbol><symbol id="ac" overflow="visible" style="overflow:visible"><path d="M.156-3.984c.125-.032.188-.047.297-.047.578 0 .719.25 1.188 1.968.156.641.406 1.813.406 1.985 0 .156-.063.312-.219.5-.297.406-.5.672-.61.781C1 1.422.892 1.5.75 1.5c-.047 0-.125-.031-.234-.11-.141-.109-.25-.171-.36-.171a.387.387 0 0 0-.39.39c0 .25.218.438.5.438.64 0 1.953-1.485 3.03-3.469.673-1.219.954-1.937.954-2.422a.554.554 0 0 0-.547-.547c-.234 0-.39.141-.39.36 0 .156.078.265.28.39.188.11.25.204.25.344 0 .39-.359 1.172-1.218 2.578l-.188-1.156c-.156-.875-.718-2.516-.859-2.516h-.125l-.984.172a1.759 1.759 0 0 1-.313.063zm0 0"/></symbol><symbol id="W" overflow="visible" style="overflow:visible"><path d="M3.297 2.39c0-.03 0-.046-.172-.218C1.891.922 1.562-.968 1.562-2.5c0-1.734.375-3.469 1.61-4.703.125-.125.125-.14.125-.172 0-.078-.031-.11-.094-.11-.11 0-1 .688-1.594 1.954C1.11-4.438.984-3.328.984-2.5c0 .781.11 1.984.657 3.125C2.25 1.844 3.094 2.5 3.203 2.5c.063 0 .094-.031.094-.11zm0 0"/></symbol><symbol id="aa" overflow="visible" style="overflow:visible"><path d="M2.875-2.5c0-.766-.11-1.969-.656-3.11C1.625-6.827.766-7.483.672-7.483a.107.107 0 0 0-.11.109c0 .031 0 .047.188.234.984.985 1.547 2.563 1.547 4.641 0 1.719-.36 3.469-1.594 4.719-.14.125-.14.14-.14.172 0 .062.046.109.109.109.094 0 1-.688 1.578-1.953.516-1.094.625-2.203.625-3.047Zm0 0"/></symbol><symbol id="ab" overflow="visible" style="overflow:visible"><path d="M6.844-3.266c.156 0 .343 0 .343-.187 0-.203-.187-.203-.328-.203H.891c-.141 0-.329 0-.329.203 0 .187.188.187.329.187zm.015 1.938c.141 0 .329 0 .329-.203 0-.188-.188-.188-.344-.188H.89c-.141 0-.329 0-.329.188 0 .203.188.203.329.203zm0 0"/></symbol><symbol id="Y" overflow="visible" style="overflow:visible"><path d="M6.563-2.297c.171 0 .359 0 .359-.203 0-.188-.188-.188-.36-.188h-5.39c-.172 0-.344 0-.344.188 0 .203.172.203.344.203zm0 0"/></symbol><symbol id="Z" overflow="visible" style="overflow:visible"><path d="M1.875-4.984c-.406 0-.719.125-.984.375-.438.421-.72 1.265-.72 2.125 0 .812.25 1.671.595 2.093.28.313.656.5 1.078.5.375 0 .687-.125.953-.39.437-.406.719-1.266.719-2.156 0-1.516-.672-2.547-1.641-2.547zm-.031.187c.625 0 .953.844.953 2.375 0 1.547-.313 2.328-.953 2.328-.64 0-.953-.781-.953-2.312 0-1.563.328-2.39.953-2.39zm0 0"/></symbol></defs><g style="display:inline"><path d="M73.55 150.88c-.546.03-2.963.216-3.48.242-3.408.171-6.29.227-9.922.025-2.2-.123-4.394-.394-6.59-.591-2.305-.403-4.625-.689-6.912-1.208-9.28-2.105-18.74-5.888-26.37-12.766-1.793-1.617-3.34-3.592-5.011-5.388-1.284-2.098-2.78-4.031-3.852-6.294-3.272-6.899-4.165-14.777-2.946-22.532 1.085-6.896 1.959-8.504 4.855-14.463 1.012-2.083 2.423-4.005 3.759-5.873 3.775-5.281 8.687-9.909 14.177-11.96a7.816 7.816 0 0 1 1.985-.478c.331-.031.778-.121.973.119.8.978-.572 1.099-1.21 1.27-1.352.194-3.004-.085-4.296-.617-.949-.39-1.895-.874-2.748-1.512-.987-.739-1.927-1.572-2.724-2.582-4.592-5.826-5.194-14.249-3.534-21.349.603-2.582 1.623-4.97 2.435-7.456 1.278-2.419 2.396-4.976 3.833-7.255 4.766-7.56 11.637-13.65 18.08-17.584 4.752-2.902 9.678-4.872 14.995-6.244 2.434-.629 4.958-.872 7.468-1.052 7.186-.516 15.879.026 22.247 4.97 1.746 1.355 2.18 2.762 1.224 3.578-.6.513-1.21.372-1.51-.73-.535-2.834-.024-4.405.82-6.86.348-1.012 1.705-3.609 2.292-4.504 4.062-6.2 11.793-12.109 19.108-15.422a57.262 57.262 0 0 1 5.546-2.204c7.616-2.567 14.91-3.71 23.752-3.343 5.946.246 11.558 1.585 14.935 2.846 6.574 2.454 12.351 6.401 16.944 12.076 1.644 2.031 2.265 3.218 2.603 3.917 3.16 6.541-2.938 3.795-2.055.009.81-3.766 5.034-7.244 8.82-9.275 6.403-3.436 16.938-3.172 23.958-1.732 1.66.355 3.276.907 4.914 1.36 6.971 2.523 13.546 6.429 17.938 12.642.632.894 1.118 1.886 1.678 2.83.322.878.728 1.73.965 2.636.575 2.199.571 5.32-1.056 7.101a1.73 1.73 0 0 1-.667.469c-.147.053-.375.07-.496-.12-.452-.708.55-1.47.798-1.63 1.511-.98 4.206-.93 5.794-.824 4.467.298 8.717 2.19 12.667 4.697 1.128.716 2.248 1.46 3.292 2.307 1.135.92 1.668 1.23 2.743 2.224 4.603 5.147 6.505 7.431 9.661 14.028 2.22 4.639 3.48 9.242 3.958 13.107.257 2.082.818 8.728.23 13.184-.995 7.518-4.817 15.597-6.947 18.208-1.016 1.246-2.753 3.574-3.82 4.487-2.208 1.891-6.138 4.148-7.283 3.487-1.456-.84.547-2.535 2.073-2.535 1.246 0 2.608.208 4.756 1.072 1.08.434 2.948 1.549 3.771 2.285 1.636 1.462 3.67 3.856 4.787 6.039 1.082 2.113 2.382 5.804 2.61 10.229.151 2.958-.203 8.42-1.556 12.522-1.421 4.31-2.32 7.137-5.092 11.101-2.746 3.926-7.474 9.124-10.686 11.406-3.426 2.435-5.731 3.86-10.284 5.812-4.282 1.836-9.707 2.71-14.347 2.835l-1.38-.04c-4.568.106-8.996-.883-12.84-2.963-.562-.398-.744-.344-1.112-.891-.15-.223-.17-.566-.08-.754.25-.523.664-.108.895.407.616 1.376.338 2.277.058 3.317a8.834 8.834 0 0 1-.933 2.2c-3.075 5.199-9.172 8.672-15.015 10.651a45.45 45.45 0 0 1-6.242 1.621c-2.164.404-4.362.642-6.563.766-9.903.559-19.775-1.49-28.656-5.453-3.35-1.493-6.446-3.207-9.017-5.767-.608-.605-1.783-1.979-2.032-2.918-.106-.397-.128-.835-.004-1.225.05-.158.297-.251.497-.186.426.14.194 1.192.029 1.698-.828 2.53-2.927 4.335-4.93 6.001-1.335.866-2.604 1.838-4.008 2.597-8.08 4.371-17.476 6.241-26.631 6.774-2.527.146-5.063.073-7.595.11-2.41-.182-4.831-.252-7.23-.545-7.068-.861-14.987-2.91-21.094-6.609-1.035-.627-1.954-1.42-2.931-2.13-.66-.742-1.408-1.416-1.98-2.223-1.13-1.597-1.635-3.42-1.687-5.279M324.06 17.56c.928.798 1.82 1.604 2.384 2.9.094.45.273.869.282 1.347.047 2.286-1.925 4.02-3.38 4.77-.464.238-.949.358-1.423.538-.498.05-1 .17-1.493.154a5.738 5.738 0 0 1-4.897-3.153c-.22-.436-.325-.967-.488-1.45-.061-1.175-.226-1.784.221-2.965.598-1.577 1.754-2.652 2.99-3.131.444-.172.9-.21 1.349-.316.457.006.921-.034 1.373.018a7.211 7.211 0 0 1 4.556 2.365m-35.379-.634c.418-.067.832-.158 1.252-.202 1.599-.167 3.182-.073 4.716.433 1.258.52 1.77.648 2.887 1.437 1.318.93 2.36 2.172 2.864 3.708.18.549.234 1.13.352 1.696-.03 1.793.083 2.251-.428 3.993-.63 2.149-1.838 4.178-3.353 5.836-.543.595-1.176 1.104-1.764 1.656-.673.444-1.31.947-2.02 1.333-2.702 1.473-6.032 2.178-9.055 1.298-.708-.206-1.354-.581-2.03-.872-1.498-1.18-2.067-1.395-3.029-3.091-1.203-2.122-1.4-4.546-.854-6.888.188-.807.55-1.564.825-2.347.44-.755.82-1.547 1.32-2.266 1.656-2.386 4.544-5.072 7.167-6.423.226-.116.487-.146.73-.22" style="opacity:1;fill:#f4f4f4;fill-opacity:1;stroke:none;stroke-linecap:butt;stroke-linejoin:miter;stroke-miterlimit:10;stroke-dasharray:none;stroke-dashoffset:0;stroke-opacity:1" transform="translate(28.02 33.616)"/><path d="M73.494 151.117c-.534.03-2.948.216-3.48.243-3.411.171-6.302.228-9.94.025-2.209-.123-4.404-.395-6.597-.592h-.007l-.006-.001c-2.299-.402-4.622-.688-6.919-1.21-9.295-2.108-18.778-5.899-26.43-12.797-1.806-1.627-3.356-3.606-5.02-5.396l-.01-.01-.008-.013c-1.278-2.089-2.778-4.026-3.86-6.308-3.287-6.932-4.187-14.853-2.96-22.657 1.088-6.913 1.989-8.597 4.884-14.553 1.031-2.122 2.456-4.06 3.79-5.925 3.803-5.321 8.763-9.999 14.32-12.075a8.032 8.032 0 0 1 2.04-.49c.314-.03.829-.167 1.102.167.879 1.076-1.377 1.687-1.427 1.694-1.4.201-3.065-.085-4.379-.625-.956-.394-1.913-.882-2.777-1.53-.993-.742-1.943-1.583-2.75-2.606-4.63-5.874-5.237-14.356-3.562-21.523.611-2.616 1.637-5.015 2.443-7.483l.009-.027.014-.026c1.269-2.403 2.39-4.968 3.846-7.279C30.613 22.5 37.52 16.382 44 12.426c4.779-2.918 9.73-4.897 15.064-6.274 2.456-.634 4.99-.877 7.503-1.057 7.206-.518 15.939.021 22.35 4.998 1.772 1.376 2.298 2.989 1.161 3.96-.708.605-1.492.385-1.808-.775l-.002-.007-.002-.008c-.541-2.87-.011-4.535.833-6.991.377-1.098 1.708-3.633 2.33-4.583 4.12-6.288 11.887-12.21 19.245-15.543a57.54 57.54 0 0 1 5.569-2.213c7.639-2.575 14.963-3.72 23.823-3.354 5.967.247 11.588 1.588 14.982 2.855 6.595 2.462 12.393 6.423 17.002 12.118 1.65 2.039 2.28 3.242 2.62 3.946 3.187 6.597-3.412 4.296-2.455.181.847-3.935 5.162-7.446 8.988-9.499 6.52-3.498 17.048-3.201 24.093-1.757 1.674.358 3.291.911 4.924 1.363l.005.002.005.002c6.989 2.528 13.588 6.445 18.003 12.69.64.907 1.129 1.903 1.684 2.84l.007.012.005.014c.318.87.727 1.724.97 2.653.587 2.242.628 5.438-1.14 7.371a2.04 2.04 0 0 1-.785.551c-.207.075-.518.094-.686-.17-.531-.833.623-1.808.925-2.003 1.652-1.07 4.333-.97 5.93-.863 4.505.3 8.773 2.205 12.734 4.718 1.13.717 2.254 1.463 3.305 2.316 1.13.917 1.668 1.23 2.75 2.23l.005.004.004.005c4.603 5.147 6.522 7.456 9.683 14.063 2.227 4.654 3.494 9.274 3.974 13.164.259 2.099.826 8.731.229 13.245-1.003 7.583-4.794 15.646-7.02 18.375-1.005 1.231-2.721 3.553-3.864 4.531-2.258 1.934-6.142 4.328-7.515 3.535-1.57-.907.624-2.992 2.278-2.992 1.265 0 2.652.213 4.812 1.082 1.105.444 2.962 1.55 3.81 2.309 1.65 1.474 3.688 3.87 4.82 6.08 1.091 2.134 2.399 5.843 2.628 10.306.154 2.99-.195 8.455-1.57 12.623-1.42 4.309-2.34 7.191-5.138 11.192-2.772 3.963-7.492 9.161-10.768 11.49-3.434 2.44-5.771 3.883-10.337 5.841-4.327 1.855-9.766 2.727-14.425 2.854h-.01l-1.375-.041c-4.594.106-9.045-.889-12.91-2.98l-.007-.004-.006-.005c-.546-.386-.764-.357-1.147-.927a.97.97 0 0 1-.078-.985c.346-.725 1.027-.244 1.274.308.634 1.417.342 2.436.065 3.469a9.178 9.178 0 0 1-.97 2.285c-3.145 5.318-9.307 8.804-15.183 10.795a45.666 45.666 0 0 1-6.272 1.629c-2.174.405-4.38.644-6.587.768-9.935.56-19.828-1.495-28.728-5.464-3.356-1.497-6.468-3.218-9.057-5.795-.618-.615-1.796-1.953-2.071-2.989-.113-.423-.145-.898.003-1.364.13-.415.54-.494.81-.405.64.21.292 1.396.113 1.944-.864 2.64-3.033 4.493-5.038 6.161l-.015.012-.015.01c-1.323.857-2.6 1.836-4.028 2.609-8.131 4.398-17.553 6.268-26.726 6.802-2.538.148-5.076.073-7.602.11h-.015c-2.405-.181-4.83-.252-7.238-.545-7.084-.864-15.018-2.914-21.15-6.628-1.049-.635-1.97-1.432-2.94-2.138l-.013-.008-.01-.01c-.652-.734-1.404-1.41-1.988-2.235-1.15-1.623-1.666-3.482-1.718-5.379l.425-.16c.05 1.821.544 3.608 1.657 5.18.556.785 1.296 1.454 1.96 2.198.979.713 1.891 1.5 2.91 2.117 6.082 3.684 13.985 5.73 21.037 6.59 2.387.29 4.803.36 7.216.542 2.534-.036 5.065.037 7.58-.11 9.137-.53 18.506-2.4 26.537-6.745 1.372-.742 2.63-1.703 3.973-2.574 1.994-1.66 4.015-3.415 4.805-5.828.152-.465.268-1.383.055-1.453-.128-.042-.215.067-.184-.033-.099.313-.087.716.011 1.086.224.842 1.396 2.253 1.993 2.847 2.554 2.542 5.634 4.249 8.977 5.74 8.863 3.953 18.713 5.997 28.585 5.44 2.194-.124 4.384-.36 6.538-.762a45.236 45.236 0 0 0 6.212-1.614c5.811-1.968 11.843-5.427 14.847-10.507a8.49 8.49 0 0 0 .897-2.116c.281-1.046.546-1.829-.052-3.164-.214-.479-.362-.828-.516-.505-.01.019-.032.35.083.52.351.523.498.448 1.07.851 3.82 2.066 8.222 3.048 12.758 2.942h.01l1.375.041c4.621-.126 10.03-1.001 14.264-2.817 4.541-1.947 6.813-3.352 10.233-5.782 3.147-2.237 7.882-7.433 10.602-11.322 2.748-3.928 3.625-6.698 5.047-11.01 1.331-4.037 1.69-9.497 1.54-12.422-.225-4.387-1.518-8.06-2.59-10.153-1.102-2.155-3.132-4.546-4.754-5.997-.799-.714-2.677-1.836-3.732-2.26-2.137-.86-3.472-1.061-4.699-1.061-1.398 0-3.112 1.36-1.868 2.077.917.53 4.891-1.591 7.051-3.44.99-.848 2.748-3.182 3.776-4.443 2.033-2.492 5.886-10.588 6.871-18.041.582-4.398.025-11.057-.23-13.122-.474-3.84-1.73-8.428-3.941-13.05-3.15-6.585-5.035-8.847-9.633-13.989-1.066-.985-1.595-1.29-2.732-2.214-1.038-.841-2.153-1.583-3.28-2.298-3.94-2.5-8.172-4.38-12.6-4.675-1.579-.105-4.288-.104-5.658.783-.194.126-1.043.675-.671 1.26.073.114.219.1.306.067a1.42 1.42 0 0 0 .548-.386c1.488-1.628 1.537-4.674.973-6.831-.23-.879-.63-1.722-.955-2.606-.56-.946-1.044-1.93-1.664-2.807C223.5-3.34 216.953-7.234 210-9.75c-1.641-.455-3.252-1.005-4.9-1.357-6.993-1.434-17.535-1.666-23.82 1.707-3.746 2.01-7.88 5.454-8.652 9.048v.003l-.001.002c-.806 3.455 4.449 5.948 1.654.162-.336-.695-.946-1.865-2.585-3.889-4.576-5.655-10.332-9.588-16.886-12.034-3.36-1.255-8.963-2.592-14.889-2.837-8.824-.365-16.088.772-23.68 3.332a56.984 56.984 0 0 0-5.523 2.195c-7.272 3.293-14.967 9.19-18.972 15.302-.55.84-1.935 3.498-2.254 4.426-.841 2.45-1.334 3.925-.808 6.718.284 1.038.718 1.1 1.21.68.773-.661.433-1.863-1.287-3.197C82.282 5.6 73.628 5.055 66.462 5.57c-2.507.18-5.02.423-7.432 1.045-5.3 1.368-10.2 3.329-14.926 6.215-6.408 3.912-13.241 9.972-17.97 17.474-1.412 2.24-2.525 4.778-3.805 7.205-.816 2.493-1.826 4.863-2.42 7.403-1.643 7.033-1.048 15.395 3.507 21.174.786.998 1.718 1.823 2.699 2.557.84.63 1.777 1.109 2.719 1.496 1.269.523 2.908.795 4.21.608.023-.003 1.476-.26.996-.847-.119-.145-.496-.102-.846-.068a7.6 7.6 0 0 0-1.93.465C25.842 72.322 20.977 76.9 17.231 82.14c-1.337 1.871-2.735 3.778-3.728 5.821-2.898 5.962-3.744 7.494-4.826 14.374-1.212 7.705-.325 15.54 2.931 22.407 1.061 2.238 2.549 4.165 3.837 6.267 1.672 1.799 3.215 3.766 4.993 5.37 7.608 6.856 17.045 10.633 26.308 12.734 2.276.517 4.591.802 6.898 1.205 2.198.197 4.388.468 6.579.59 3.625.202 6.499.146 9.904-.025.502-.025 2.922-.211 3.478-.242zM324.218 17.354c.93.8 1.843 1.621 2.423 2.953l.007.016.004.019c.089.424.275.852.286 1.386.05 2.424-2.04 4.277-3.559 5.06-.5.257-.993.377-1.45.55l-.027.01-.027.003c-.48.05-.994.173-1.517.155a5.862 5.862 0 0 1-5.02-3.23c-.234-.464-.339-1.004-.496-1.472l-.008-.025-.001-.029c-.061-1.157-.23-1.837.24-3.079.63-1.663 1.87-2.82 3.174-3.326.485-.188.95-.224 1.38-.325l.023-.006h.022c.446.007.917-.034 1.39.02a7.342 7.342 0 0 1 4.644 2.41l-.344.385a7.08 7.08 0 0 0-4.469-2.32c-.423-.05-.872-.013-1.334-.018-.46.106-.898.148-1.294.301-1.169.453-2.24 1.447-2.805 2.937-.421 1.111-.267 1.65-.203 2.822.162.491.267 1.002.47 1.403a5.615 5.615 0 0 0 4.774 3.075c.454.016.937-.096 1.442-.15.483-.18.949-.3 1.369-.516 1.391-.716 3.245-2.332 3.201-4.479-.008-.417-.174-.822-.274-1.288-.549-1.252-1.416-2.038-2.34-2.832zm-34.028.413c.41-.067.828-.159 1.263-.204 1.618-.169 3.226-.074 4.782.44h.005l.005.003c1.254.517 1.786.655 2.914 1.451 1.336.943 2.4 2.205 2.917 3.784.189.574.244 1.165.358 1.715l.005.023v.026c-.03 1.782.078 2.3-.44 4.067-.646 2.202-1.882 4.279-3.431 5.974-.568.621-1.208 1.135-1.783 1.675l-.021.02-.023.014c-.658.435-1.303.945-2.04 1.346-2.755 1.502-6.135 2.215-9.204 1.322-.73-.213-1.38-.593-2.047-.879l-.017-.007-.013-.01c-1.49-1.175-2.091-1.419-3.063-3.133-1.224-2.158-1.43-4.641-.87-7.043.198-.85.567-1.62.834-2.38l.01-.03.018-.03c.43-.739.814-1.54 1.335-2.29 1.697-2.444 4.605-5.149 7.286-6.53.285-.146.556-.172.773-.237l-.016.459c-.27.081-.522.117-.689.203-2.564 1.32-5.431 3.987-7.048 6.315-.47.68-.845 1.45-1.288 2.213-.28.793-.628 1.529-.804 2.284-.532 2.28-.343 4.647.839 6.731.95 1.674 1.486 1.865 2.98 3.04.68.293 1.317.661 1.998.86 2.975.866 6.256.169 8.906-1.276.674-.367 1.297-.856 1.976-1.306.595-.556 1.212-1.056 1.725-1.617 1.48-1.62 2.66-3.603 3.274-5.699.5-1.707.387-2.11.416-3.893-.117-.572-.172-1.136-.342-1.652-.49-1.495-1.51-2.717-2.81-3.634-1.106-.78-1.597-.9-2.857-1.42-1.51-.497-3.066-.59-4.643-.425-.406.043-.816.132-1.24.201z" style="fill:#000;stroke:none;stroke-width:0" transform="translate(28.02 33.616)"/></g><g style="display:inline"><path d="M340.76 115.646V17.323" style="clip-rule:nonzero;fill:#717171;fill-opacity:1;stroke:#000;stroke-width:.40000001;stroke-linecap:butt;stroke-linejoin:miter;stroke-miterlimit:10;stroke-dasharray:none;stroke-opacity:1" transform="translate(-254.668 56.767)"/><path d="M338.79 18.746c.738-.128 1.85-1.507 1.97-1.886.126.379 1.232 1.758 1.972 1.886" style="fill:none;fill-opacity:1;stroke:#000;stroke-width:.56;stroke-linecap:round;stroke-linejoin:round;stroke-miterlimit:10;stroke-dasharray:none;stroke-opacity:1" transform="translate(-254.668 56.767)"/><g clip-path="url(#a)" style="clip-rule:nonzero;stroke:red;stroke-width:.99538773" transform="matrix(1.02674 .04397 -.05851 1.00095 66.6 63.74)"><path d="m-27.214 6.802 185.957 72.57" style="fill:none;stroke:red;stroke-width:.79333401;stroke-linecap:butt;stroke-linejoin:miter;stroke-miterlimit:10;stroke-opacity:1" transform="matrix(1 0 0 -1 30.117 89.24)"/></g><path d="M467.34 69.627V40.902" style="fill:none;stroke:#000;stroke-width:.40000001;stroke-linecap:butt;stroke-linejoin:miter;stroke-miterlimit:10;stroke-dasharray:none;stroke-dashoffset:0;stroke-opacity:1" transform="translate(-254.668 56.767)"/><path d="M467.34 74.867v-4.393" style="fill:none;stroke:#000;stroke-width:.40000001;stroke-linecap:square;stroke-linejoin:miter;stroke-miterlimit:10;stroke-dasharray:none;stroke-opacity:1" transform="translate(-254.668 56.767)"/><path d="M464.8 70.256c.145.867 1.735 2.168 2.168 2.312-.433.145-2.023 1.446-2.168 2.313M465.054 43.419c.867-.145 2.168-1.734 2.313-2.168.144.434 1.445 2.023 2.312 2.168" style="fill:none;stroke:#000;stroke-width:.63999999;stroke-linecap:round;stroke-linejoin:round;stroke-miterlimit:10;stroke-dasharray:none;stroke-opacity:1" transform="translate(-254.668 56.767)"/><path d="M318.86 101.868h204.582" style="fill:#717171;fill-opacity:1;stroke:#000;stroke-width:.40000001;stroke-linecap:butt;stroke-linejoin:miter;stroke-miterlimit:10;stroke-dasharray:none;stroke-opacity:1" transform="translate(-254.668 56.767)"/><path d="M521.454 99.898c.126.739 1.548 1.85 1.933 1.97-.385.125-1.807 1.231-1.933 1.97" style="fill:none;fill-opacity:1;stroke:#000;stroke-width:.56;stroke-linecap:round;stroke-linejoin:round;stroke-miterlimit:10;stroke-dasharray:none;stroke-opacity:1" transform="translate(-254.668 56.767)"/><path d="M464.826 40.874h5.13M371.446 74.825v-4.46" style="fill:none;stroke:#000;stroke-width:.3985;stroke-linecap:square;stroke-linejoin:miter;stroke-miterlimit:10;stroke-opacity:1" transform="translate(-254.668 56.767)"/><path d="M465.055 72.66h4.563" style="fill:none;stroke:#000;stroke-width:.40000001;stroke-linecap:square;stroke-linejoin:miter;stroke-miterlimit:10;stroke-dasharray:none;stroke-opacity:1" transform="translate(-254.668 56.767)"/><path d="M371.474 72.66H465.2" style="fill:none;stroke:#000;stroke-width:.40000001;stroke-linecap:butt;stroke-linejoin:miter;stroke-miterlimit:10;stroke-dasharray:none;stroke-dashoffset:0;stroke-opacity:1" transform="translate(-254.668 56.767)"/><g style="fill:#000;fill-opacity:1;stroke:#000;stroke-width:.0520999;stroke-miterlimit:4;stroke-dasharray:none"><use xlink:href="#b" width="100%" height="100%" x="287.16" y="156.72" style="stroke:#000;stroke-width:.0520999;stroke-miterlimit:4;stroke-dasharray:none" transform="matrix(.76744 0 0 .76807 -143.293 -21.038)"/></g><g style="fill:#000;fill-opacity:1;stroke:#000;stroke-width:.05211735;stroke-miterlimit:4;stroke-dasharray:none"><use xlink:href="#c" width="100%" height="100%" x="315.84" y="156.72" style="stroke:#000;stroke-width:.05211735;stroke-miterlimit:4;stroke-dasharray:none" transform="matrix(.76755 0 0 .76745 -31.819 47.988)"/></g><g style="fill:#000;fill-opacity:1;stroke:#000;stroke-width:.05207122;stroke-miterlimit:4;stroke-dasharray:none" transform="matrix(.76838 0 0 .76798 -105.527 48.041)"><use xlink:href="#d" width="100%" height="100%" x="285.12" y="156.72" style="stroke:#000;stroke-width:.05207122;stroke-miterlimit:4;stroke-dasharray:none"/></g><g style="fill:#000;fill-opacity:1;stroke:#000;stroke-width:.05207122;stroke-miterlimit:4;stroke-dasharray:none" transform="matrix(.76838 0 0 .76798 -105.527 48.041)"><use xlink:href="#e" width="100%" height="100%" x="289.56" y="158.28" style="stroke:#000;stroke-width:.05207122;stroke-miterlimit:4;stroke-dasharray:none"/></g><path d="M343.716 72.66h26.753" style="fill:none;stroke:#000;stroke-width:.3985;stroke-linecap:butt;stroke-linejoin:miter;stroke-miterlimit:10;stroke-dasharray:.39849999,.79699998;stroke-dashoffset:0;stroke-opacity:1" transform="translate(-254.668 56.767)"/><path d="M371.446 104.204v-4.46" style="fill:none;stroke:#000;stroke-width:.3985;stroke-linecap:square;stroke-linejoin:miter;stroke-miterlimit:10;stroke-opacity:1" transform="translate(-254.668 56.767)"/><path d="M371.446 101.424v-26.16" style="fill:none;stroke:#000;stroke-width:.39840001;stroke-linecap:butt;stroke-linejoin:miter;stroke-miterlimit:10;stroke-dasharray:.39840002,.79680004;stroke-dashoffset:0;stroke-opacity:1" transform="translate(-254.668 56.767)"/><path d="M467.328 104.204v-4.46" style="fill:none;stroke:#000;stroke-width:.3985;stroke-linecap:square;stroke-linejoin:miter;stroke-miterlimit:10;stroke-opacity:1" transform="translate(-254.668 56.767)"/><path d="M467.328 101.325v-25.86" style="fill:none;stroke:#000;stroke-width:.39840001;stroke-linecap:butt;stroke-linejoin:miter;stroke-miterlimit:10;stroke-dasharray:.39840002,.79680004;stroke-dashoffset:0;stroke-opacity:1" transform="translate(-254.668 56.767)"/><path d="M338.116 72.66h4.853" style="fill:none;stroke:#000;stroke-width:.3985;stroke-linecap:square;stroke-linejoin:miter;stroke-miterlimit:10;stroke-opacity:1" transform="translate(-254.668 56.767)"/><path d="M343.876 40.844h120.053" style="fill:none;stroke:#000;stroke-width:.3985;stroke-linecap:butt;stroke-linejoin:miter;stroke-miterlimit:10;stroke-dasharray:.39849999,.79699998;stroke-dashoffset:0;stroke-opacity:1" transform="translate(-254.668 56.767)"/><path d="M338.116 40.844h4.853" style="fill:none;stroke:#000;stroke-width:.3985;stroke-linecap:square;stroke-linejoin:miter;stroke-miterlimit:10;stroke-opacity:1" transform="translate(-254.668 56.767)"/><g style="font-style:normal;font-weight:400;font-size:32px;line-height:125%;font-family:sans-serif;letter-spacing:0;word-spacing:0;fill:#000;fill-opacity:1;stroke:none;stroke-width:1px;stroke-linecap:butt;stroke-linejoin:miter;stroke-opacity:1"><path d="M527.869 8.147V6.965h.171q.299 1.024 1.068 1.024.334 0 .496-.202.167-.203.167-.444 0-.282-.175-.462-.18-.18-.7-.435-.544-.268-.781-.527-.238-.255-.238-.629 0-.356.255-.676.255-.326.717-.326.47 0 .777.383.066-.066.172-.321h.162v1.112h-.162q-.088-.4-.343-.686-.25-.29-.593-.29-.264 0-.427.163-.162.162-.162.378 0 .237.18.408.176.176.672.4.747.339.914.66.167.325.167.624 0 .47-.312.764-.307.295-.777.295-.497 0-.884-.409-.118.132-.193.378zM531.89 1.99v4.808q0 .575.013.725.017.15.127.228.11.08.391.08h.106v.202h-1.925V7.83h.123q.264 0 .374-.07.114-.075.136-.206.022-.132.022-.756v-3.56q0-.567-.101-.712-.101-.15-.492-.15v-.201q.268 0 .628-.062.365-.061.501-.123h.097zM533.006 6.226q0-.826.554-1.38.553-.558 1.362-.558.813 0 1.367.559.553.558.553 1.38 0 .91-.562 1.432-.563.519-1.358.519-.796 0-1.358-.528-.558-.531-.558-1.424zm.73.022q0 .958.311 1.345.312.382.875.382.576 0 .879-.382.307-.387.307-1.345 0-.949-.303-1.353t-.883-.404q-.576 0-.883.404-.304.4-.304 1.353zM538.284 4.288h.118q.075.247.075.594.281-.3.602-.444.325-.15.686-.15.747 0 1.243.528.497.523.497 1.384 0 .844-.501 1.41-.497.568-1.31.568-.334 0-.641-.137-.304-.131-.576-.395v1.367q0 .624.022.76.026.136.14.202.115.07.427.07v.202h-1.881v-.202h.132q.312 0 .404-.092.097-.088.11-.215.018-.123.018-.725v-3.27q0-.576-.018-.725-.013-.15-.123-.229-.11-.079-.391-.079h-.132v-.202q.435-.044 1.099-.22zm.193 3.068q.237.29.501.44.268.144.562.144.497 0 .866-.426.37-.426.37-1.358 0-.808-.357-1.208-.356-.4-.848-.4-.303 0-.575.154-.273.153-.519.465zM545.46 5.65h-2.51q-.017.26-.017.388 0 .949.294 1.428.3.474.888.474.8 0 1.134-.716h.21q-.14.448-.557.703-.418.25-.91.25-.457 0-.866-.228-.404-.233-.663-.655-.26-.422-.26-1.024 0-.852.502-1.415.5-.567 1.252-.567.707 0 1.094.431.387.43.409.932zm-.77-.175q.014-.101.014-.18 0-.387-.228-.598-.225-.215-.554-.215-.8 0-.954.993h1.723z" style="font-style:normal;font-variant:normal;font-weight:400;font-stretch:normal;font-size:9px;font-family:Baskerville;-inkscape-font-specification:Baskerville" transform="translate(-269.892 66.43) scale(.9604)"/></g><g style="font-style:normal;font-weight:400;font-size:32px;line-height:125%;font-family:sans-serif;letter-spacing:0;word-spacing:0;fill:#000;fill-opacity:1;stroke:none;stroke-width:1px;stroke-linecap:butt;stroke-linejoin:miter;stroke-opacity:1"><path d="M571.039 1.38c.009-.035.018-.08.018-.08 0-.018-.018-.036-.045-.036l-1.404.198.018.135h.198c.144 0 .396.027.396.243 0 .045-.045.279-.144.639l-1.035 3.888c-.108.423-.225.558-.612.567v.144h1.827v-.144c-.423 0-.558-.063-.558-.261 0-.126.207-.864.36-1.494.225.117.414.153.62.153 1.315 0 2.674-1.458 2.674-2.943 0-.702-.37-1.125-1.035-1.125-.54 0-1.053.288-1.54 1.017zm1.503 1.036c0 .63-.19 1.287-.621 1.89-.396.558-.828.855-1.305.855-.252 0-.432-.144-.432-.342 0-.306.324-1.467.585-2.142.207-.54.738-1.026 1.215-1.026.405 0 .558.252.558.765z" style="font-style:italic;font-variant:normal;font-weight:400;font-stretch:normal;font-size:9px;font-family:STIXGeneral;-inkscape-font-specification:&quot;STIXGeneral Italic&quot;" transform="matrix(.94129 0 0 .94129 -277.901 69.317)"/></g><path d="M-16.187-481.8a12.549 12.549 0 0 1-10.889 1.567 12.549 12.549 0 0 1-7.94-7.614" style="opacity:1;fill:none;fill-opacity:1;stroke:#000;stroke-width:.63999999;stroke-linecap:butt;stroke-linejoin:miter;stroke-miterlimit:10;stroke-dasharray:none;stroke-dashoffset:0;stroke-opacity:1" transform="rotate(95.957 -152.91 -86.356)"/><path d="M482.59 31.7c-.779.409-1.517 2.326-1.518 2.783-.273-.367-2.006-1.47-2.875-1.336" style="fill:none;stroke:#000;stroke-width:.63999999;stroke-linecap:round;stroke-linejoin:round;stroke-miterlimit:10;stroke-dasharray:none;stroke-opacity:1" transform="translate(-254.668 56.767)"/><g style="stroke:#000;stroke-width:.04944707;stroke-miterlimit:4;stroke-dasharray:none;stroke-opacity:1"><g style="fill:#000;fill-opacity:1;stroke:#000;stroke-width:.04944707;stroke-miterlimit:4;stroke-dasharray:none;stroke-opacity:1" transform="matrix(.80907 0 0 .80882 -170.448 3.67)"><use xlink:href="#f" width="100%" height="100%" x="301.32" y="156.72" style="stroke:#000;stroke-width:.04944707;stroke-miterlimit:4;stroke-dasharray:none;stroke-opacity:1"/></g><g style="fill:#000;fill-opacity:1;stroke:#000;stroke-width:.04944707;stroke-miterlimit:4;stroke-dasharray:none;stroke-opacity:1" transform="matrix(.80907 0 0 .80882 -170.448 3.67)"><use xlink:href="#g" width="100%" height="100%" x="305.76" y="158.28" style="stroke:#000;stroke-width:.04944707;stroke-miterlimit:4;stroke-dasharray:none;stroke-opacity:1"/></g></g><g clip-path="url(#h)" style="clip-rule:nonzero" transform="translate(-2914.594 3713.22)"><path d="M-88.897 68.034c0 1-.813 1.813-1.813 1.813a1.811 1.811 0 0 1-1.812-1.813 1.812 1.812 0 1 1 3.625 0zm0 0" style="fill:none;stroke:red;stroke-width:.79701;stroke-linecap:butt;stroke-linejoin:miter;stroke-miterlimit:10;stroke-opacity:1" transform="matrix(1 0 0 -1 305.624 333.831)"/></g><g clip-path="url(#i)" style="clip-rule:nonzero" transform="translate(-2914.594 3713.22)"><path d="M92.524-68.032a1.814 1.814 0 1 1-3.627-.003 1.814 1.814 0 0 1 3.627.003zm0 0" style="fill:none;stroke:red;stroke-width:.79701;stroke-linecap:butt;stroke-linejoin:miter;stroke-miterlimit:10;stroke-opacity:1" transform="matrix(1 0 0 -1 305.624 333.831)"/></g><g clip-path="url(#j)" style="clip-rule:nonzero" transform="translate(-2914.594 3713.22)"><path d="M92.524 68.034a1.814 1.814 0 1 1-3.627-.002 1.814 1.814 0 0 1 3.627.002zm0 0" style="fill:none;stroke:red;stroke-width:.79701;stroke-linecap:butt;stroke-linejoin:miter;stroke-miterlimit:10;stroke-opacity:1" transform="matrix(1 0 0 -1 305.624 333.831)"/></g><g clip-path="url(#h)" style="clip-rule:nonzero" transform="translate(-2703.397 3713.22)"><path d="M-88.897 68.034c0 1-.813 1.813-1.813 1.813a1.811 1.811 0 0 1-1.812-1.813 1.812 1.812 0 1 1 3.625 0zm0 0" style="fill:none;stroke:red;stroke-width:.79701;stroke-linecap:butt;stroke-linejoin:miter;stroke-miterlimit:10;stroke-opacity:1" transform="matrix(1 0 0 -1 305.624 333.831)"/></g><g clip-path="url(#i)" style="clip-rule:nonzero" transform="translate(-2703.397 3713.22)"><path d="M92.524-68.032a1.814 1.814 0 1 1-3.627-.003 1.814 1.814 0 0 1 3.627.003zm0 0" style="fill:none;stroke:red;stroke-width:.79701;stroke-linecap:butt;stroke-linejoin:miter;stroke-miterlimit:10;stroke-opacity:1" transform="matrix(1 0 0 -1 305.624 333.831)"/></g><g clip-path="url(#j)" style="clip-rule:nonzero" transform="translate(-2703.397 3713.22)"><path d="M92.524 68.034a1.814 1.814 0 1 1-3.627-.002 1.814 1.814 0 0 1 3.627.002zm0 0" style="fill:none;stroke:red;stroke-width:.79701;stroke-linecap:butt;stroke-linejoin:miter;stroke-miterlimit:10;stroke-opacity:1" transform="matrix(1 0 0 -1 305.624 333.831)"/></g><g clip-path="url(#k)" style="clip-rule:nonzero" transform="translate(-5302.387 3058.6)"><path d="M-88.897 68.034c0 1-.813 1.813-1.813 1.813a1.811 1.811 0 0 1-1.812-1.813 1.812 1.812 0 1 1 3.625 0zm0 0" style="fill:none;stroke:red;stroke-width:.79701;stroke-linecap:butt;stroke-linejoin:miter;stroke-miterlimit:10;stroke-opacity:1" transform="matrix(1 0 0 -1 305.624 333.831)"/></g><g clip-path="url(#l)" style="clip-rule:nonzero" transform="translate(-5302.387 3058.6)"><path d="M92.524-68.032a1.814 1.814 0 1 1-3.627-.003 1.814 1.814 0 0 1 3.627.003zm0 0" style="fill:none;stroke:red;stroke-width:.79701;stroke-linecap:butt;stroke-linejoin:miter;stroke-miterlimit:10;stroke-opacity:1" transform="matrix(1 0 0 -1 305.624 333.831)"/></g><g clip-path="url(#m)" style="clip-rule:nonzero" transform="translate(-5302.387 3058.6)"><path d="M92.524 68.034a1.814 1.814 0 1 1-3.627-.002 1.814 1.814 0 0 1 3.627.002zm0 0" style="fill:none;stroke:red;stroke-width:.79701;stroke-linecap:butt;stroke-linejoin:miter;stroke-miterlimit:10;stroke-opacity:1" transform="matrix(1 0 0 -1 305.624 333.831)"/></g><g clip-path="url(#k)" style="clip-rule:nonzero" transform="translate(-5091.19 3058.6)"><path d="M-88.897 68.034c0 1-.813 1.813-1.813 1.813a1.811 1.811 0 0 1-1.812-1.813 1.812 1.812 0 1 1 3.625 0zm0 0" style="fill:none;stroke:red;stroke-width:.79701;stroke-linecap:butt;stroke-linejoin:miter;stroke-miterlimit:10;stroke-opacity:1" transform="matrix(1 0 0 -1 305.624 333.831)"/></g><g clip-path="url(#l)" style="clip-rule:nonzero" transform="translate(-5091.19 3058.6)"><path d="M92.524-68.032a1.814 1.814 0 1 1-3.627-.003 1.814 1.814 0 0 1 3.627.003zm0 0" style="fill:none;stroke:red;stroke-width:.79701;stroke-linecap:butt;stroke-linejoin:miter;stroke-miterlimit:10;stroke-opacity:1" transform="matrix(1 0 0 -1 305.624 333.831)"/></g><g clip-path="url(#m)" style="clip-rule:nonzero" transform="translate(-5091.19 3058.6)"><path d="M92.524 68.034a1.814 1.814 0 1 1-3.627-.002 1.814 1.814 0 0 1 3.627.002zm0 0" style="fill:none;stroke:red;stroke-width:.79701;stroke-linecap:butt;stroke-linejoin:miter;stroke-miterlimit:10;stroke-opacity:1" transform="matrix(1 0 0 -1 305.624 333.831)"/></g><g clip-path="url(#n)" style="clip-rule:nonzero" transform="translate(-4657.042 4673.505)"><path d="M-88.897 68.034c0 1-.813 1.813-1.813 1.813a1.811 1.811 0 0 1-1.812-1.813 1.812 1.812 0 1 1 3.625 0zm0 0" style="fill:none;stroke:red;stroke-width:.79701;stroke-linecap:butt;stroke-linejoin:miter;stroke-miterlimit:10;stroke-opacity:1" transform="matrix(1 0 0 -1 305.624 333.831)"/></g><g clip-path="url(#o)" style="clip-rule:nonzero" transform="translate(-4657.042 4673.505)"><path d="M92.524-68.032a1.814 1.814 0 1 1-3.627-.003 1.814 1.814 0 0 1 3.627.003zm0 0" style="fill:none;stroke:red;stroke-width:.79701;stroke-linecap:butt;stroke-linejoin:miter;stroke-miterlimit:10;stroke-opacity:1" transform="matrix(1 0 0 -1 305.624 333.831)"/></g><g clip-path="url(#p)" style="clip-rule:nonzero" transform="translate(-4657.042 4673.505)"><path d="M92.524 68.034a1.814 1.814 0 1 1-3.627-.002 1.814 1.814 0 0 1 3.627.002zm0 0" style="fill:none;stroke:red;stroke-width:.79701;stroke-linecap:butt;stroke-linejoin:miter;stroke-miterlimit:10;stroke-opacity:1" transform="matrix(1 0 0 -1 305.624 333.831)"/></g><g clip-path="url(#n)" style="clip-rule:nonzero" transform="translate(-4445.844 4673.505)"><path d="M-88.897 68.034c0 1-.813 1.813-1.813 1.813a1.811 1.811 0 0 1-1.812-1.813 1.812 1.812 0 1 1 3.625 0zm0 0" style="fill:none;stroke:red;stroke-width:.79701;stroke-linecap:butt;stroke-linejoin:miter;stroke-miterlimit:10;stroke-opacity:1" transform="matrix(1 0 0 -1 305.624 333.831)"/></g><g clip-path="url(#o)" style="clip-rule:nonzero" transform="translate(-4445.844 4673.505)"><path d="M92.524-68.032a1.814 1.814 0 1 1-3.627-.003 1.814 1.814 0 0 1 3.627.003zm0 0" style="fill:none;stroke:red;stroke-width:.79701;stroke-linecap:butt;stroke-linejoin:miter;stroke-miterlimit:10;stroke-opacity:1" transform="matrix(1 0 0 -1 305.624 333.831)"/></g><g clip-path="url(#p)" style="clip-rule:nonzero" transform="translate(-4445.844 4673.505)"><path d="M92.524 68.034a1.814 1.814 0 1 1-3.627-.002 1.814 1.814 0 0 1 3.627.002zm0 0" style="fill:none;stroke:red;stroke-width:.79701;stroke-linecap:butt;stroke-linejoin:miter;stroke-miterlimit:10;stroke-opacity:1" transform="matrix(1 0 0 -1 305.624 333.831)"/></g><g clip-path="url(#q)" style="clip-rule:nonzero" transform="translate(-2915.26 3712.873)"><path d="M-88.897 68.034c0 1-.813 1.813-1.813 1.813a1.811 1.811 0 0 1-1.812-1.813 1.812 1.812 0 1 1 3.625 0zm0 0" style="fill:none;stroke:red;stroke-width:.79701;stroke-linecap:butt;stroke-linejoin:miter;stroke-miterlimit:10;stroke-opacity:1" transform="matrix(1 0 0 -1 305.624 333.831)"/></g><g clip-path="url(#r)" style="clip-rule:nonzero" transform="translate(-2915.26 3712.873)"><path d="M92.524-68.032a1.814 1.814 0 1 1-3.627-.003 1.814 1.814 0 0 1 3.627.003zm0 0" style="fill:none;stroke:red;stroke-width:.79701;stroke-linecap:butt;stroke-linejoin:miter;stroke-miterlimit:10;stroke-opacity:1" transform="matrix(1 0 0 -1 305.624 333.831)"/></g><g clip-path="url(#s)" style="clip-rule:nonzero" transform="translate(-2915.26 3712.873)"><path d="M92.524 68.034a1.814 1.814 0 1 1-3.627-.002 1.814 1.814 0 0 1 3.627.002zm0 0" style="fill:none;stroke:red;stroke-width:.79701;stroke-linecap:butt;stroke-linejoin:miter;stroke-miterlimit:10;stroke-opacity:1" transform="matrix(1 0 0 -1 305.624 333.831)"/></g><g clip-path="url(#q)" style="clip-rule:nonzero" transform="translate(-2704.063 3712.873)"><path d="M-88.897 68.034c0 1-.813 1.813-1.813 1.813a1.811 1.811 0 0 1-1.812-1.813 1.812 1.812 0 1 1 3.625 0zm0 0" style="fill:none;stroke:red;stroke-width:.79701;stroke-linecap:butt;stroke-linejoin:miter;stroke-miterlimit:10;stroke-opacity:1" transform="matrix(1 0 0 -1 305.624 333.831)"/></g><g clip-path="url(#r)" style="clip-rule:nonzero" transform="translate(-2704.063 3712.873)"><path d="M92.524-68.032a1.814 1.814 0 1 1-3.627-.003 1.814 1.814 0 0 1 3.627.003zm0 0" style="fill:none;stroke:red;stroke-width:.79701;stroke-linecap:butt;stroke-linejoin:miter;stroke-miterlimit:10;stroke-opacity:1" transform="matrix(1 0 0 -1 305.624 333.831)"/></g><g clip-path="url(#s)" style="clip-rule:nonzero" transform="translate(-2704.063 3712.873)"><path d="M92.524 68.034a1.814 1.814 0 1 1-3.627-.002 1.814 1.814 0 0 1 3.627.002zm0 0" style="fill:none;stroke:red;stroke-width:.79701;stroke-linecap:butt;stroke-linejoin:miter;stroke-miterlimit:10;stroke-opacity:1" transform="matrix(1 0 0 -1 305.624 333.831)"/></g><g clip-path="url(#t)" style="clip-rule:nonzero" transform="translate(-5303.054 3058.253)"><path d="M-88.897 68.034c0 1-.813 1.813-1.813 1.813a1.811 1.811 0 0 1-1.812-1.813 1.812 1.812 0 1 1 3.625 0zm0 0" style="fill:none;stroke:red;stroke-width:.79701;stroke-linecap:butt;stroke-linejoin:miter;stroke-miterlimit:10;stroke-opacity:1" transform="matrix(1 0 0 -1 305.624 333.831)"/></g><g clip-path="url(#u)" style="clip-rule:nonzero" transform="translate(-5303.054 3058.253)"><path d="M92.524-68.032a1.814 1.814 0 1 1-3.627-.003 1.814 1.814 0 0 1 3.627.003zm0 0" style="fill:none;stroke:red;stroke-width:.79701;stroke-linecap:butt;stroke-linejoin:miter;stroke-miterlimit:10;stroke-opacity:1" transform="matrix(1 0 0 -1 305.624 333.831)"/></g><g clip-path="url(#v)" style="clip-rule:nonzero" transform="translate(-5303.054 3058.253)"><path d="M92.524 68.034a1.814 1.814 0 1 1-3.627-.002 1.814 1.814 0 0 1 3.627.002zm0 0" style="fill:none;stroke:red;stroke-width:.79701;stroke-linecap:butt;stroke-linejoin:miter;stroke-miterlimit:10;stroke-opacity:1" transform="matrix(1 0 0 -1 305.624 333.831)"/></g><g clip-path="url(#t)" style="clip-rule:nonzero" transform="translate(-5091.857 3058.253)"><path d="M-88.897 68.034c0 1-.813 1.813-1.813 1.813a1.811 1.811 0 0 1-1.812-1.813 1.812 1.812 0 1 1 3.625 0zm0 0" style="fill:none;stroke:red;stroke-width:.79701;stroke-linecap:butt;stroke-linejoin:miter;stroke-miterlimit:10;stroke-opacity:1" transform="matrix(1 0 0 -1 305.624 333.831)"/></g><g clip-path="url(#u)" style="clip-rule:nonzero" transform="translate(-5091.857 3058.253)"><path d="M92.524-68.032a1.814 1.814 0 1 1-3.627-.003 1.814 1.814 0 0 1 3.627.003zm0 0" style="fill:none;stroke:red;stroke-width:.79701;stroke-linecap:butt;stroke-linejoin:miter;stroke-miterlimit:10;stroke-opacity:1" transform="matrix(1 0 0 -1 305.624 333.831)"/></g><g clip-path="url(#v)" style="clip-rule:nonzero" transform="translate(-5091.857 3058.253)"><path d="M92.524 68.034a1.814 1.814 0 1 1-3.627-.002 1.814 1.814 0 0 1 3.627.002zm0 0" style="fill:none;stroke:red;stroke-width:.79701;stroke-linecap:butt;stroke-linejoin:miter;stroke-miterlimit:10;stroke-opacity:1" transform="matrix(1 0 0 -1 305.624 333.831)"/></g><g clip-path="url(#w)" style="clip-rule:nonzero" transform="translate(-4657.708 4673.158)"><path d="M-88.897 68.034c0 1-.813 1.813-1.813 1.813a1.811 1.811 0 0 1-1.812-1.813 1.812 1.812 0 1 1 3.625 0zm0 0" style="fill:none;stroke:red;stroke-width:.79701;stroke-linecap:butt;stroke-linejoin:miter;stroke-miterlimit:10;stroke-opacity:1" transform="matrix(1 0 0 -1 305.624 333.831)"/></g><g clip-path="url(#x)" style="clip-rule:nonzero" transform="translate(-4657.708 4673.158)"><path d="M92.524-68.032a1.814 1.814 0 1 1-3.627-.003 1.814 1.814 0 0 1 3.627.003zm0 0" style="fill:none;stroke:red;stroke-width:.79701;stroke-linecap:butt;stroke-linejoin:miter;stroke-miterlimit:10;stroke-opacity:1" transform="matrix(1 0 0 -1 305.624 333.831)"/></g><g clip-path="url(#y)" style="clip-rule:nonzero" transform="translate(-4657.708 4673.158)"><path d="M92.524 68.034a1.814 1.814 0 1 1-3.627-.002 1.814 1.814 0 0 1 3.627.002zm0 0" style="fill:none;stroke:red;stroke-width:.79701;stroke-linecap:butt;stroke-linejoin:miter;stroke-miterlimit:10;stroke-opacity:1" transform="matrix(1 0 0 -1 305.624 333.831)"/></g><g clip-path="url(#w)" style="clip-rule:nonzero" transform="translate(-4446.51 4673.158)"><path d="M-88.897 68.034c0 1-.813 1.813-1.813 1.813a1.811 1.811 0 0 1-1.812-1.813 1.812 1.812 0 1 1 3.625 0zm0 0" style="fill:none;stroke:red;stroke-width:.79701;stroke-linecap:butt;stroke-linejoin:miter;stroke-miterlimit:10;stroke-opacity:1" transform="matrix(1 0 0 -1 305.624 333.831)"/></g><g clip-path="url(#x)" style="clip-rule:nonzero" transform="translate(-4446.51 4673.158)"><path d="M92.524-68.032a1.814 1.814 0 1 1-3.627-.003 1.814 1.814 0 0 1 3.627.003zm0 0" style="fill:none;stroke:red;stroke-width:.79701;stroke-linecap:butt;stroke-linejoin:miter;stroke-miterlimit:10;stroke-opacity:1" transform="matrix(1 0 0 -1 305.624 333.831)"/></g><g clip-path="url(#y)" style="clip-rule:nonzero" transform="translate(-4446.51 4673.158)"><path d="M92.524 68.034a1.814 1.814 0 1 1-3.627-.002 1.814 1.814 0 0 1 3.627.002zm0 0" style="fill:none;stroke:red;stroke-width:.79701;stroke-linecap:butt;stroke-linejoin:miter;stroke-miterlimit:10;stroke-opacity:1" transform="matrix(1 0 0 -1 305.624 333.831)"/></g><path d="M467 76.515c-.577 1.345-1.537 1.774-3.937 1.774H423.84c-2.656 0-3.808 1.33-4.416 2.792-.64-1.462-1.792-2.792-4.448-2.792H375.67c-2.4 0-3.36-.429-3.936-1.774l-.352-.48c.032 1.287.224 1.793.8 2.359.576.565 1.824.857 3.648.857h39.625c2.24 0 3.296 1.31 3.936 2.617.672-1.306 1.76-2.617 3.968-2.617h39.512c1.792 0 3.104-.312 3.68-.857.576-.546.768-1.053.8-2.359zM472.011 41.084c1.345.571 1.774 1.523 1.774 3.902v7.764c0 2.633.37 3.458 1.832 4.06-1.462.635-1.832 1.46-1.832 4.092v7.602c0 2.38-.429 3.331-1.774 3.902l-.48.349c1.287-.032 1.794-.222 2.359-.793.565-.571.857-1.808.857-3.616v-7.92c0-2.22.351-2.95 1.657-3.584-1.306-.666-1.657-1.427-1.657-3.616v-8.05c0-1.776-.311-3.077-.857-3.648-.546-.57-1.053-.761-2.359-.793z" style="font-style:normal;font-variant:normal;font-weight:400;font-stretch:normal;font-size:medium;line-height:125%;font-family:STIXGeneral;-inkscape-font-specification:STIXGeneral;letter-spacing:0;word-spacing:0;fill:#000;fill-opacity:1;stroke:none;stroke-width:1px;stroke-linecap:butt;stroke-linejoin:miter;stroke-opacity:1" transform="translate(-254.668 56.767)"/><g transform="matrix(.80967 0 0 .80875 -82.034 20.101)"><use xlink:href="#z" width="100%" height="100%" x="293.88" y="156.72" style="fill:#000;fill-opacity:1;stroke:#000;stroke-width:.04943091;stroke-miterlimit:4;stroke-dasharray:none"/><use xlink:href="#A" width="100%" height="100%" x="299.76" y="156.72" style="fill:#000;fill-opacity:1;stroke:#000;stroke-width:.04943091;stroke-miterlimit:4;stroke-dasharray:none"/><g style="fill:#000;fill-opacity:1;stroke:#000;stroke-width:.04943091;stroke-miterlimit:4;stroke-dasharray:none"><use xlink:href="#z" width="100%" height="100%" x="309" y="156.72" style="stroke:#000;stroke-width:.04943091;stroke-miterlimit:4;stroke-dasharray:none"/></g><g style="fill:#000;fill-opacity:1;stroke:#000;stroke-width:.04943091;stroke-miterlimit:4;stroke-dasharray:none"><use xlink:href="#B" width="100%" height="100%" x="313.44" y="158.28" style="stroke:#000;stroke-width:.04943091;stroke-miterlimit:4;stroke-dasharray:none"/></g></g><g transform="matrix(.80967 0 0 .80882 -11.794 -47.257)"><use xlink:href="#C" width="100%" height="100%" x="293.88" y="200.52" style="fill:#000;fill-opacity:1;stroke:#000;stroke-width:.04942868;stroke-miterlimit:4;stroke-dasharray:none"/><use xlink:href="#A" width="100%" height="100%" x="299.76" y="200.52" style="fill:#000;fill-opacity:1;stroke:#000;stroke-width:.04942868;stroke-miterlimit:4;stroke-dasharray:none"/><g style="fill:#000;fill-opacity:1;stroke:#000;stroke-width:.04942868;stroke-miterlimit:4;stroke-dasharray:none"><use xlink:href="#C" width="100%" height="100%" x="309" y="200.52" style="stroke:#000;stroke-width:.04942868;stroke-miterlimit:4;stroke-dasharray:none"/></g><g style="fill:#000;fill-opacity:1;stroke:#000;stroke-width:.04942868;stroke-miterlimit:4;stroke-dasharray:none"><use xlink:href="#B" width="100%" height="100%" x="313.44" y="202.08" style="stroke:#000;stroke-width:.04942868;stroke-miterlimit:4;stroke-dasharray:none"/></g></g><g clip-path="url(#D)" style="clip-rule:nonzero" transform="translate(-2950.511 3698.863)"><path d="M-88.897 68.034c0 1-.813 1.813-1.813 1.813a1.811 1.811 0 0 1-1.812-1.813 1.812 1.812 0 1 1 3.625 0zm0 0" style="fill:none;stroke:red;stroke-width:.79701;stroke-linecap:butt;stroke-linejoin:miter;stroke-miterlimit:10;stroke-opacity:1" transform="matrix(1 0 0 -1 305.624 333.831)"/></g><g clip-path="url(#E)" style="clip-rule:nonzero" transform="translate(-2950.511 3698.863)"><path d="M92.524-68.032a1.814 1.814 0 1 1-3.627-.003 1.814 1.814 0 0 1 3.627.003zm0 0" style="fill:none;stroke:red;stroke-width:.79701;stroke-linecap:butt;stroke-linejoin:miter;stroke-miterlimit:10;stroke-opacity:1" transform="matrix(1 0 0 -1 305.624 333.831)"/></g><g clip-path="url(#F)" style="clip-rule:nonzero" transform="translate(-2950.511 3698.863)"><path d="M92.524 68.034a1.814 1.814 0 1 1-3.627-.002 1.814 1.814 0 0 1 3.627.002zm0 0" style="fill:none;stroke:red;stroke-width:.79701;stroke-linecap:butt;stroke-linejoin:miter;stroke-miterlimit:10;stroke-opacity:1" transform="matrix(1 0 0 -1 305.624 333.831)"/></g><g clip-path="url(#D)" style="clip-rule:nonzero" transform="translate(-2739.314 3698.863)"><path d="M-88.897 68.034c0 1-.813 1.813-1.813 1.813a1.811 1.811 0 0 1-1.812-1.813 1.812 1.812 0 1 1 3.625 0zm0 0" style="fill:none;stroke:red;stroke-width:.79701;stroke-linecap:butt;stroke-linejoin:miter;stroke-miterlimit:10;stroke-opacity:1" transform="matrix(1 0 0 -1 305.624 333.831)"/></g><g clip-path="url(#E)" style="clip-rule:nonzero" transform="translate(-2739.314 3698.863)"><path d="M92.524-68.032a1.814 1.814 0 1 1-3.627-.003 1.814 1.814 0 0 1 3.627.003zm0 0" style="fill:none;stroke:red;stroke-width:.79701;stroke-linecap:butt;stroke-linejoin:miter;stroke-miterlimit:10;stroke-opacity:1" transform="matrix(1 0 0 -1 305.624 333.831)"/></g><g clip-path="url(#F)" style="clip-rule:nonzero" transform="translate(-2739.314 3698.863)"><path d="M92.524 68.034a1.814 1.814 0 1 1-3.627-.002 1.814 1.814 0 0 1 3.627.002zm0 0" style="fill:none;stroke:red;stroke-width:.79701;stroke-linecap:butt;stroke-linejoin:miter;stroke-miterlimit:10;stroke-opacity:1" transform="matrix(1 0 0 -1 305.624 333.831)"/></g><g clip-path="url(#G)" style="clip-rule:nonzero" transform="translate(-5338.305 3044.244)"><path d="M-88.897 68.034c0 1-.813 1.813-1.813 1.813a1.811 1.811 0 0 1-1.812-1.813 1.812 1.812 0 1 1 3.625 0zm0 0" style="fill:none;stroke:red;stroke-width:.79701;stroke-linecap:butt;stroke-linejoin:miter;stroke-miterlimit:10;stroke-opacity:1" transform="matrix(1 0 0 -1 305.624 333.831)"/></g><g clip-path="url(#H)" style="clip-rule:nonzero" transform="translate(-5338.305 3044.244)"><path d="M92.524-68.032a1.814 1.814 0 1 1-3.627-.003 1.814 1.814 0 0 1 3.627.003zm0 0" style="fill:none;stroke:red;stroke-width:.79701;stroke-linecap:butt;stroke-linejoin:miter;stroke-miterlimit:10;stroke-opacity:1" transform="matrix(1 0 0 -1 305.624 333.831)"/></g><g clip-path="url(#I)" style="clip-rule:nonzero" transform="translate(-5338.305 3044.244)"><path d="M92.524 68.034a1.814 1.814 0 1 1-3.627-.002 1.814 1.814 0 0 1 3.627.002zm0 0" style="fill:none;stroke:red;stroke-width:.79701;stroke-linecap:butt;stroke-linejoin:miter;stroke-miterlimit:10;stroke-opacity:1" transform="matrix(1 0 0 -1 305.624 333.831)"/></g><g clip-path="url(#G)" style="clip-rule:nonzero" transform="translate(-5127.108 3044.244)"><path d="M-88.897 68.034c0 1-.813 1.813-1.813 1.813a1.811 1.811 0 0 1-1.812-1.813 1.812 1.812 0 1 1 3.625 0zm0 0" style="fill:none;stroke:red;stroke-width:.79701;stroke-linecap:butt;stroke-linejoin:miter;stroke-miterlimit:10;stroke-opacity:1" transform="matrix(1 0 0 -1 305.624 333.831)"/></g><g clip-path="url(#H)" style="clip-rule:nonzero" transform="translate(-5127.108 3044.244)"><path d="M92.524-68.032a1.814 1.814 0 1 1-3.627-.003 1.814 1.814 0 0 1 3.627.003zm0 0" style="fill:none;stroke:red;stroke-width:.79701;stroke-linecap:butt;stroke-linejoin:miter;stroke-miterlimit:10;stroke-opacity:1" transform="matrix(1 0 0 -1 305.624 333.831)"/></g><g clip-path="url(#I)" style="clip-rule:nonzero" transform="translate(-5127.108 3044.244)"><path d="M92.524 68.034a1.814 1.814 0 1 1-3.627-.002 1.814 1.814 0 0 1 3.627.002zm0 0" style="fill:none;stroke:red;stroke-width:.79701;stroke-linecap:butt;stroke-linejoin:miter;stroke-miterlimit:10;stroke-opacity:1" transform="matrix(1 0 0 -1 305.624 333.831)"/></g><g clip-path="url(#J)" style="clip-rule:nonzero" transform="translate(-4692.959 4659.148)"><path d="M-88.897 68.034c0 1-.813 1.813-1.813 1.813a1.811 1.811 0 0 1-1.812-1.813 1.812 1.812 0 1 1 3.625 0zm0 0" style="fill:none;stroke:red;stroke-width:.79701;stroke-linecap:butt;stroke-linejoin:miter;stroke-miterlimit:10;stroke-opacity:1" transform="matrix(1 0 0 -1 305.624 333.831)"/></g><g clip-path="url(#K)" style="clip-rule:nonzero" transform="translate(-4692.959 4659.148)"><path d="M92.524-68.032a1.814 1.814 0 1 1-3.627-.003 1.814 1.814 0 0 1 3.627.003zm0 0" style="fill:none;stroke:red;stroke-width:.79701;stroke-linecap:butt;stroke-linejoin:miter;stroke-miterlimit:10;stroke-opacity:1" transform="matrix(1 0 0 -1 305.624 333.831)"/></g><g clip-path="url(#L)" style="clip-rule:nonzero" transform="translate(-4692.959 4659.148)"><path d="M92.524 68.034a1.814 1.814 0 1 1-3.627-.002 1.814 1.814 0 0 1 3.627.002zm0 0" style="fill:none;stroke:red;stroke-width:.79701;stroke-linecap:butt;stroke-linejoin:miter;stroke-miterlimit:10;stroke-opacity:1" transform="matrix(1 0 0 -1 305.624 333.831)"/></g><g clip-path="url(#J)" style="clip-rule:nonzero" transform="translate(-4481.762 4659.148)"><path d="M-88.897 68.034c0 1-.813 1.813-1.813 1.813a1.811 1.811 0 0 1-1.812-1.813 1.812 1.812 0 1 1 3.625 0zm0 0" style="fill:none;stroke:red;stroke-width:.79701;stroke-linecap:butt;stroke-linejoin:miter;stroke-miterlimit:10;stroke-opacity:1" transform="matrix(1 0 0 -1 305.624 333.831)"/></g><g clip-path="url(#K)" style="clip-rule:nonzero" transform="translate(-4481.762 4659.148)"><path d="M92.524-68.032a1.814 1.814 0 1 1-3.627-.003 1.814 1.814 0 0 1 3.627.003zm0 0" style="fill:none;stroke:red;stroke-width:.79701;stroke-linecap:butt;stroke-linejoin:miter;stroke-miterlimit:10;stroke-opacity:1" transform="matrix(1 0 0 -1 305.624 333.831)"/></g><g clip-path="url(#L)" style="clip-rule:nonzero" transform="translate(-4481.762 4659.148)"><path d="M92.524 68.034a1.814 1.814 0 1 1-3.627-.002 1.814 1.814 0 0 1 3.627.002zm0 0" style="fill:none;stroke:red;stroke-width:.79701;stroke-linecap:butt;stroke-linejoin:miter;stroke-miterlimit:10;stroke-opacity:1" transform="matrix(1 0 0 -1 305.624 333.831)"/></g><g clip-path="url(#M)" style="clip-rule:nonzero" transform="translate(-2951.178 3698.516)"><path d="M-88.897 68.034c0 1-.813 1.813-1.813 1.813a1.811 1.811 0 0 1-1.812-1.813 1.812 1.812 0 1 1 3.625 0zm0 0" style="fill:none;stroke:red;stroke-width:.79701;stroke-linecap:butt;stroke-linejoin:miter;stroke-miterlimit:10;stroke-opacity:1" transform="matrix(1 0 0 -1 305.624 333.831)"/></g><g clip-path="url(#N)" style="clip-rule:nonzero" transform="translate(-2951.178 3698.516)"><path d="M92.524-68.032a1.814 1.814 0 1 1-3.627-.003 1.814 1.814 0 0 1 3.627.003zm0 0" style="fill:none;stroke:red;stroke-width:.79701;stroke-linecap:butt;stroke-linejoin:miter;stroke-miterlimit:10;stroke-opacity:1" transform="matrix(1 0 0 -1 305.624 333.831)"/></g><g clip-path="url(#O)" style="clip-rule:nonzero" transform="translate(-2951.178 3698.516)"><path d="M92.524 68.034a1.814 1.814 0 1 1-3.627-.002 1.814 1.814 0 0 1 3.627.002zm0 0" style="fill:none;stroke:red;stroke-width:.79701;stroke-linecap:butt;stroke-linejoin:miter;stroke-miterlimit:10;stroke-opacity:1" transform="matrix(1 0 0 -1 305.624 333.831)"/></g><g clip-path="url(#M)" style="clip-rule:nonzero" transform="translate(-2739.98 3698.516)"><path d="M-88.897 68.034c0 1-.813 1.813-1.813 1.813a1.811 1.811 0 0 1-1.812-1.813 1.812 1.812 0 1 1 3.625 0zm0 0" style="fill:none;stroke:red;stroke-width:.79701;stroke-linecap:butt;stroke-linejoin:miter;stroke-miterlimit:10;stroke-opacity:1" transform="matrix(1 0 0 -1 305.624 333.831)"/></g><g clip-path="url(#N)" style="clip-rule:nonzero" transform="translate(-2739.98 3698.516)"><path d="M92.524-68.032a1.814 1.814 0 1 1-3.627-.003 1.814 1.814 0 0 1 3.627.003zm0 0" style="fill:none;stroke:red;stroke-width:.79701;stroke-linecap:butt;stroke-linejoin:miter;stroke-miterlimit:10;stroke-opacity:1" transform="matrix(1 0 0 -1 305.624 333.831)"/></g><g clip-path="url(#O)" style="clip-rule:nonzero" transform="translate(-2739.98 3698.516)"><path d="M92.524 68.034a1.814 1.814 0 1 1-3.627-.002 1.814 1.814 0 0 1 3.627.002zm0 0" style="fill:none;stroke:red;stroke-width:.79701;stroke-linecap:butt;stroke-linejoin:miter;stroke-miterlimit:10;stroke-opacity:1" transform="matrix(1 0 0 -1 305.624 333.831)"/></g><g clip-path="url(#P)" style="clip-rule:nonzero" transform="translate(-5338.971 3043.897)"><path d="M-88.897 68.034c0 1-.813 1.813-1.813 1.813a1.811 1.811 0 0 1-1.812-1.813 1.812 1.812 0 1 1 3.625 0zm0 0" style="fill:none;stroke:red;stroke-width:.79701;stroke-linecap:butt;stroke-linejoin:miter;stroke-miterlimit:10;stroke-opacity:1" transform="matrix(1 0 0 -1 305.624 333.831)"/></g><g clip-path="url(#Q)" style="clip-rule:nonzero" transform="translate(-5338.971 3043.897)"><path d="M92.524-68.032a1.814 1.814 0 1 1-3.627-.003 1.814 1.814 0 0 1 3.627.003zm0 0" style="fill:none;stroke:red;stroke-width:.79701;stroke-linecap:butt;stroke-linejoin:miter;stroke-miterlimit:10;stroke-opacity:1" transform="matrix(1 0 0 -1 305.624 333.831)"/></g><g clip-path="url(#R)" style="clip-rule:nonzero" transform="translate(-5338.971 3043.897)"><path d="M92.524 68.034a1.814 1.814 0 1 1-3.627-.002 1.814 1.814 0 0 1 3.627.002zm0 0" style="fill:none;stroke:red;stroke-width:.79701;stroke-linecap:butt;stroke-linejoin:miter;stroke-miterlimit:10;stroke-opacity:1" transform="matrix(1 0 0 -1 305.624 333.831)"/></g><g clip-path="url(#P)" style="clip-rule:nonzero" transform="translate(-5127.774 3043.897)"><path d="M-88.897 68.034c0 1-.813 1.813-1.813 1.813a1.811 1.811 0 0 1-1.812-1.813 1.812 1.812 0 1 1 3.625 0zm0 0" style="fill:none;stroke:red;stroke-width:.79701;stroke-linecap:butt;stroke-linejoin:miter;stroke-miterlimit:10;stroke-opacity:1" transform="matrix(1 0 0 -1 305.624 333.831)"/></g><g clip-path="url(#Q)" style="clip-rule:nonzero" transform="translate(-5127.774 3043.897)"><path d="M92.524-68.032a1.814 1.814 0 1 1-3.627-.003 1.814 1.814 0 0 1 3.627.003zm0 0" style="fill:none;stroke:red;stroke-width:.79701;stroke-linecap:butt;stroke-linejoin:miter;stroke-miterlimit:10;stroke-opacity:1" transform="matrix(1 0 0 -1 305.624 333.831)"/></g><g clip-path="url(#R)" style="clip-rule:nonzero" transform="translate(-5127.774 3043.897)"><path d="M92.524 68.034a1.814 1.814 0 1 1-3.627-.002 1.814 1.814 0 0 1 3.627.002zm0 0" style="fill:none;stroke:red;stroke-width:.79701;stroke-linecap:butt;stroke-linejoin:miter;stroke-miterlimit:10;stroke-opacity:1" transform="matrix(1 0 0 -1 305.624 333.831)"/></g><g clip-path="url(#S)" style="clip-rule:nonzero" transform="translate(-4693.625 4658.802)"><path d="M-88.897 68.034c0 1-.813 1.813-1.813 1.813a1.811 1.811 0 0 1-1.812-1.813 1.812 1.812 0 1 1 3.625 0zm0 0" style="fill:none;stroke:red;stroke-width:.79701;stroke-linecap:butt;stroke-linejoin:miter;stroke-miterlimit:10;stroke-opacity:1" transform="matrix(1 0 0 -1 305.624 333.831)"/></g><g clip-path="url(#T)" style="clip-rule:nonzero" transform="translate(-4693.625 4658.802)"><path d="M92.524-68.032a1.814 1.814 0 1 1-3.627-.003 1.814 1.814 0 0 1 3.627.003zm0 0" style="fill:none;stroke:red;stroke-width:.79701;stroke-linecap:butt;stroke-linejoin:miter;stroke-miterlimit:10;stroke-opacity:1" transform="matrix(1 0 0 -1 305.624 333.831)"/></g><g clip-path="url(#U)" style="clip-rule:nonzero" transform="translate(-4693.625 4658.802)"><path d="M92.524 68.034a1.814 1.814 0 1 1-3.627-.002 1.814 1.814 0 0 1 3.627.002zm0 0" style="fill:none;stroke:red;stroke-width:.79701;stroke-linecap:butt;stroke-linejoin:miter;stroke-miterlimit:10;stroke-opacity:1" transform="matrix(1 0 0 -1 305.624 333.831)"/></g><g clip-path="url(#S)" style="clip-rule:nonzero" transform="translate(-4482.428 4658.802)"><path d="M-88.897 68.034c0 1-.813 1.813-1.813 1.813a1.811 1.811 0 0 1-1.812-1.813 1.812 1.812 0 1 1 3.625 0zm0 0" style="fill:none;stroke:red;stroke-width:.79701;stroke-linecap:butt;stroke-linejoin:miter;stroke-miterlimit:10;stroke-opacity:1" transform="matrix(1 0 0 -1 305.624 333.831)"/></g><g clip-path="url(#T)" style="clip-rule:nonzero" transform="translate(-4482.428 4658.802)"><path d="M92.524-68.032a1.814 1.814 0 1 1-3.627-.003 1.814 1.814 0 0 1 3.627.003zm0 0" style="fill:none;stroke:red;stroke-width:.79701;stroke-linecap:butt;stroke-linejoin:miter;stroke-miterlimit:10;stroke-opacity:1" transform="matrix(1 0 0 -1 305.624 333.831)"/></g><g clip-path="url(#U)" style="clip-rule:nonzero" transform="translate(-4482.428 4658.802)"><path d="M92.524 68.034a1.814 1.814 0 1 1-3.627-.002 1.814 1.814 0 0 1 3.627.002zm0 0" style="fill:none;stroke:red;stroke-width:.79701;stroke-linecap:butt;stroke-linejoin:miter;stroke-miterlimit:10;stroke-opacity:1" transform="matrix(1 0 0 -1 305.624 333.831)"/></g><g transform="translate(-415.76 24.045)"><rect width="108.153" height="32.784" x="21.432" y="288.836" ry="16.392" style="opacity:1;fill:#f4f4f4;fill-opacity:1;stroke:#000;stroke-width:.40000001;stroke-linecap:butt;stroke-linejoin:miter;stroke-miterlimit:10;stroke-dasharray:none;stroke-dashoffset:0;stroke-opacity:1"/><g style="fill:#000;fill-opacity:1;stroke:#000;stroke-width:.04;stroke-miterlimit:4;stroke-dasharray:none" transform="translate(-230.272 107.1)"><use xlink:href="#V" width="100%" height="100%" x="270" y="200.52" style="stroke:#000;stroke-width:.04;stroke-miterlimit:4;stroke-dasharray:none"/></g><g style="fill:#000;fill-opacity:1;stroke:#000;stroke-width:.04;stroke-miterlimit:4;stroke-dasharray:none" transform="translate(-230.272 107.1)"><use xlink:href="#W" width="100%" height="100%" x="275.04" y="200.52" style="stroke:#000;stroke-width:.04;stroke-miterlimit:4;stroke-dasharray:none"/></g><g style="fill:#000;fill-opacity:1;stroke:#000;stroke-width:.04;stroke-miterlimit:4;stroke-dasharray:none" transform="translate(-230.272 107.1)"><use xlink:href="#X" width="100%" height="100%" x="278.88" y="200.52" style="stroke:#000;stroke-width:.04;stroke-miterlimit:4;stroke-dasharray:none"/></g><g style="fill:#000;fill-opacity:1;stroke:#000;stroke-width:.04;stroke-miterlimit:4;stroke-dasharray:none" transform="translate(-230.272 107.1)"><use xlink:href="#Y" width="100%" height="100%" x="284.76" y="200.52" style="stroke:#000;stroke-width:.04;stroke-miterlimit:4;stroke-dasharray:none"/></g><g style="fill:#000;fill-opacity:1;stroke:#000;stroke-width:.04;stroke-miterlimit:4;stroke-dasharray:none" transform="translate(-230.272 107.1)"><use xlink:href="#X" width="100%" height="100%" x="294" y="200.52" style="stroke:#000;stroke-width:.04;stroke-miterlimit:4;stroke-dasharray:none"/></g><g style="fill:#000;fill-opacity:1;stroke:#000;stroke-width:.04;stroke-miterlimit:4;stroke-dasharray:none" transform="translate(-230.272 107.1)"><use xlink:href="#Z" width="100%" height="100%" x="298.44" y="202.08" style="stroke:#000;stroke-width:.04;stroke-miterlimit:4;stroke-dasharray:none"/></g><g style="fill:#000;fill-opacity:1;stroke:#000;stroke-width:.04;stroke-miterlimit:4;stroke-dasharray:none" transform="translate(-230.272 107.1)"><use xlink:href="#aa" width="100%" height="100%" x="302.4" y="200.52" style="stroke:#000;stroke-width:.04;stroke-miterlimit:4;stroke-dasharray:none"/></g><g style="fill:#000;fill-opacity:1;stroke:#000;stroke-width:.04;stroke-miterlimit:4;stroke-dasharray:none" transform="translate(-230.272 107.1)"><use xlink:href="#ab" width="100%" height="100%" x="308.52" y="200.52" style="stroke:#000;stroke-width:.04;stroke-miterlimit:4;stroke-dasharray:none"/></g><g style="fill:#000;fill-opacity:1;stroke:#000;stroke-width:.04;stroke-miterlimit:4;stroke-dasharray:none" transform="translate(-230.272 107.1)"><use xlink:href="#ac" width="100%" height="100%" x="318.48" y="200.52" style="stroke:#000;stroke-width:.04;stroke-miterlimit:4;stroke-dasharray:none"/></g><g style="fill:#000;fill-opacity:1;stroke:#000;stroke-width:.04;stroke-miterlimit:4;stroke-dasharray:none" transform="translate(-230.272 107.1)"><use xlink:href="#Y" width="100%" height="100%" x="324.36" y="200.52" style="stroke:#000;stroke-width:.04;stroke-miterlimit:4;stroke-dasharray:none"/></g><g style="fill:#000;fill-opacity:1;stroke:#000;stroke-width:.04;stroke-miterlimit:4;stroke-dasharray:none" transform="translate(-230.272 107.1)"><use xlink:href="#ac" width="100%" height="100%" x="333.6" y="200.52" style="stroke:#000;stroke-width:.04;stroke-miterlimit:4;stroke-dasharray:none"/></g><g style="fill:#000;fill-opacity:1;stroke:#000;stroke-width:.04;stroke-miterlimit:4;stroke-dasharray:none" transform="translate(-230.272 107.1)"><use xlink:href="#Z" width="100%" height="100%" x="338.04" y="202.08" style="stroke:#000;stroke-width:.04;stroke-miterlimit:4;stroke-dasharray:none"/></g><circle cx="3.181" cy="305.397" r="8.449" style="opacity:1;fill:#f4f4f4;fill-opacity:1;stroke:#000;stroke-width:.40000004;stroke-linecap:butt;stroke-linejoin:miter;stroke-miterlimit:4;stroke-dasharray:none;stroke-dashoffset:0;stroke-opacity:1"/><circle cx="-18.449" cy="305.059" r="4.394" style="opacity:1;fill:#f4f4f4;fill-opacity:1;stroke:#000;stroke-width:.40000004;stroke-linecap:butt;stroke-linejoin:miter;stroke-miterlimit:4;stroke-dasharray:none;stroke-dashoffset:0;stroke-opacity:1"/></g></g></svg>