<svg xmlns="http://www.w3.org/2000/svg" xmlns:xlink="http://www.w3.org/1999/xlink" width="634.421" height="325.161" viewBox="0 0 475.816 243.871"><defs><symbol id="a" overflow="visible" style="overflow:visible"><path d="M.344-3.953h.906L.375.234C.156 1.313-.172 1.86-.594 1.86c-.125 0-.203-.078-.203-.171 0-.016.016-.047.047-.11a.264.264 0 0 0 .047-.156c0-.203-.188-.375-.39-.375-.22 0-.376.172-.376.406 0 .344.36.61.797.61.875 0 1.578-.985 1.985-2.813l.718-3.203h1.094l.063-.313H2.109c.282-1.562.657-2.28 1.204-2.28.14 0 .218.062.218.124 0 .031 0 .047-.031.11a.344.344 0 0 0-.063.203c0 .234.157.39.376.39.218 0 .421-.172.421-.39 0-.375-.375-.657-.859-.657-.5 0-.875.22-1.234.688-.313.39-.5.86-.813 1.812H.422zm0 0" style="stroke:none"/></symbol></defs><path d="M249.244 157.951v54.754l-26.912-.496c-.177.47-.085.224-.264.734-.511 1.5-.989 3.007-1.213 4.534-.102.87-.202 1.544-.226 2.425-.066 1.933.191 3.865.656 5.776.86 3.01 1.998 5.988 3.647 8.877 1.317 2.402 2.753 4.807 3.267 7.336.152 1.066.24 1.384.186 2.464-.106 2.027-.656 4.045-1.416 6.014-.236.526-.447 1.057-.705 1.578-1.164 2.353-2.809 4.613-4.909 6.71-1.302 1.194-7.1 5.434-8.819 6.424 12.218.99 22.802 1.424 36.41 1.876v51.807h145.661v-48.795l19.93-3.889.55-1.326 6.32.928c.176-.471.085-.226.263-.737.511-1.499.99-3.006 1.213-4.533.103-.87.204-1.544.228-2.426.066-1.932-.193-3.862-.658-5.773-.86-3.01-1.997-5.99-3.646-8.879-1.318-2.402-2.752-4.807-3.266-7.336-.151-1.066-.24-1.384-.186-2.465.106-2.026.656-4.044 1.416-6.013.236-.526.447-1.057.706-1.579 1.164-2.352 2.808-4.612 4.908-6.709 1.302-1.194 2.665-2.368 4.383-3.357l-6.23-4.795a82.45 82.45 0 0 0-3.354 2.205l.73-1.38h-23.307V157.95z" style="opacity:1;fill:#d5ffe6;fill-opacity:1;stroke:none;stroke-width:.133333;stroke-linecap:square;stroke-linejoin:miter;stroke-miterlimit:4;stroke-dasharray:none;stroke-opacity:1" transform="scale(.75)"/><path d="M155.006 199.899h31.186v38.966h110.199V199.9h30.934M155.006 158.526h31.186V118.12h110.199v40.406h30.934" style="fill:none;fill-rule:evenodd;stroke:#000;stroke-width:3.67328572px;stroke-linecap:butt;stroke-linejoin:miter;stroke-opacity:1"/><use xlink:href="#a" width="100%" height="100%" x="217.415" y="156.682" style="fill:#000;fill-opacity:1" transform="matrix(9.33565 0 0 9.33565 -1800.351 -1261.39)"/><path d="M336.284 128.704c-1.24 5.82-2.64 11.594-3.463 17.494.126.137-.441 2.727-.189 3.05.053.068.272-.117.2-.166-.557-.375-1.505-.304-1.797-.91-.182-.378.647-.537.97-.806 5.636-4.845 11.883-8.819 18.246-12.62 2.219-1.45 4.64-2.446 7.096-3.387l2.006 1.313c-2.516.847-5.09 2.073-7.063 3.28-6.293 3.85-12.575 7.7-18.175 12.536-1.48 1.283-.954 1.25-3.681.582-.311-.077.079-3.462.107-3.559.846-5.913 2.25-11.704 3.468-17.545zM390.718 64.466c-.11.516-.512 2.352-.561 2.757-.251 2.064-.233 4.236.529 6.202.26.671.669 1.274 1.003 1.912 1.134 1.168 1.537 1.905 3.19 2.352.14.038-.208-.378-.072-.43.625-.24 1.347-.105 1.987-.302 1.781-.55 2.113-1.116 3.482-2.333.428-.636.929-1.23 1.285-1.909.865-1.652 1.666-4.208.929-6.064-.56-1.407-1.316-1.561-2.537-2.278.011.081.116.238.035.243-.709.042-1.416-.146-2.125-.12-1.83.066-3.792.6-5.5 1.246-.358.136-.701.308-1.052.461l-.525.327-2.068-1.187.588-.41c.364-.168.72-.356 1.092-.505 1.722-.685 3.803-1.273 5.646-1.423.739-.06 1.499-.15 2.223.006 1.388.298 2.696.894 4.043 1.34 1.31.994 1.955 1.159 2.482 2.812.652 2.05-.14 4.678-1.082 6.495-.376.727-.9 1.367-1.35 2.05-1.458 1.364-1.766 1.932-3.663 2.633-2.425.896-3.456.423-6.172-.577-.65-.24-1.242-.642-1.767-1.094-.544-.469-.933-1.09-1.4-1.636-.327-.683-.729-1.335-.98-2.05-.731-2.07-.736-4.32-.476-6.474.05-.403.468-2.366.571-2.86l2.245.817zM399.898 56.895c1.166 2.48 2.609 4.871 4.804 6.582.5.39 1.065.688 1.598 1.032.543.213 1.049.588 1.63.641.231.021-.62-.38-.446-.532.388-.337 1.032-.152 1.494-.376 1.003-.488 1.81-1.442 2.301-2.416.277-.55.403-1.164.604-1.746.038-.628.171-1.258.115-1.884-.18-1.998-1.272-3.768-2.826-4.994-1.407-1.11-1.937-1.13-3.586-1.678.142.15.607.35.427.449-.357.195-.814-.04-1.22-.013-.263.018-.522.08-.778.145-.11.028-.2.136-.312.132-.057-.002.067-.092.1-.138l-2.29-.708c.047-.128.053-.281.141-.386.253-.3 1.01-.484 1.285-.524 1.949-.283 2.693.289 4.997.87 1.643.672 2.22.748 3.587 1.973 1.582 1.416 2.615 3.372 2.743 5.51.041.682-.11 1.362-.165 2.043-.222.635-.366 1.302-.665 1.904-.543 1.092-1.432 2.177-2.506 2.794-.505.29-1.066.607-1.647.576-2.44-.13-3.436-.733-5.34-1.623-.531-.379-1.095-.716-1.594-1.136-2.172-1.834-3.631-4.296-4.811-6.843l2.36.346zM395.526 30.814c3.035 2.097 5.435 4.946 7.884 7.67 3.083 3.418 6 6.98 9 10.47 1.011 1.176 2.567 2.94 3.617 4.135 1.787 1.783 3.344 3.764 4.92 5.729.797.795.467.389-1.493-.486l1.76 1.624c-2.478-1-1.783-.304-2.646-1.313-1.55-1.965-3.145-3.89-4.88-5.696-4.228-4.843-8.325-9.798-12.607-14.594-2.448-2.689-4.856-5.516-7.946-7.495l2.391-.044z" style="opacity:1;fill:#000;fill-opacity:1;stroke:none;stroke-width:.1;stroke-linecap:square;stroke-linejoin:miter;stroke-miterlimit:4;stroke-dasharray:none;stroke-opacity:1"/><path d="M394.578 43.392c1.958-3.735 4.744-6.952 7.4-10.197 1.686-2.005 3.288-4.08 5.012-6.054.455-.775.024-.111 2.085 1.134l-2.166-1.027c2.227 1.033 1.908 1.775 2.232.942-1.791 1.903-3.329 4.033-5.042 6.003-2.617 3.192-5.37 6.352-7.282 10.035l-2.239-.836zM414.52 43.698c3.185 1.593 5.33 4.152 7.636 6.79 4.106 5.118 7.803 10.544 11.813 15.736l1.686 2.07-2.371-.171c-.978-1.226-.425-.532-1.657-2.083-3.96-5.21-7.653-10.625-11.802-15.69-2.243-2.506-4.512-5.15-7.69-6.48l2.386-.172z" style="opacity:1;fill:#000;fill-opacity:1;stroke:none;stroke-width:.1;stroke-linecap:square;stroke-linejoin:miter;stroke-miterlimit:4;stroke-dasharray:none;stroke-opacity:1"/><path d="M412.256 47.092c-.564-1.9-.664-3.652-.095-5.583.376-1.275.934-2.292 1.513-3.473.349-.5.655-1.032 1.045-1.499 1.278-1.528 2.75-2.605 4.804-2.738 2.124-.138 3.799.844 5.785 1.567.496.406 1.059.741 1.488 1.217 1.026 1.14 1.326 2.087 1.553 3.588.095.622.138 1.259.088 1.886-.132 1.656-.622 2.678-1.18 4.233-.726 1.37-1.088 2.342-2.208 3.424-.354.343-.813.557-1.219.836l-2.048-1.192c.377-.215.807-.358 1.132-.647 1.072-.951 1.464-1.976 2.134-3.222.522-1.461.994-2.438 1.097-3.992a7.148 7.148 0 0 0-.113-1.754c-.248-1.35-.596-2.211-1.595-3.175-.435-.42-.988-.696-1.482-1.044.924-.024.403.01-1.529-.333-1.993-.052-3.297.858-4.552 2.31-.377.437-.671.938-1.007 1.407-.559 1.127-1.098 2.093-1.453 3.312-.517 1.781-.392 3.51.2 5.242l-2.357-.37zM426.468 28.975c1.551 2.717 3.617 5.858 6.494 7.306.626.315 1.323.462 1.985.693-.038-.147-.253-.378-.114-.443.534-.25 1.197-.09 1.74-.318 1.847-.775 2.678-2.835 2.669-4.719-.004-.8-.242-1.58-.362-2.37-.342-.785-.597-1.614-1.026-2.353-1.242-2.138-3.223-4.271-5.718-4.886-.17-.042.387.367.242.468-.325.227-.784.121-1.176.182l-1.926-1.383c2.376-.624 1.575-.64 5.206.622 2.498.868 4.47 3.073 5.687 5.342.427.795.667 1.676 1 2.514.106.854.334 1.7.318 2.56-.04 2.124-1.008 4.396-2.993 5.393-.578.29-1.234.537-1.879.489-1.37-.104-2.677-.623-4.015-.935-.663-.282-1.364-.489-1.989-.848-2.908-1.67-4.85-4.766-6.512-7.573l2.369.259zM424.31 5.424c5.006 3.144 8.994 7.585 12.982 11.883 2.48 2.74 4.864 5.567 7.277 8.367 1.04 1.206 2.043 2.383 3.224 3.448l-2.38-.084c-1.127-1.115-2.138-2.306-3.17-3.512-2.393-2.801-4.772-5.615-7.253-8.34-3.99-4.264-7.997-8.678-13.064-11.693l2.384-.07z" style="opacity:1;fill:#000;fill-opacity:1;stroke:none;stroke-width:.1;stroke-linecap:square;stroke-linejoin:miter;stroke-miterlimit:4;stroke-dasharray:none;stroke-opacity:1"/><path d="M421.932 16.126c3.382-5.594 7.166-10.93 11.125-16.126l2.133.982c-3.982 5.141-7.764 10.448-11.072 16.052l-2.186-.908zM410.787 79.588c.972.944 1.21 1.152 2.245 2.29 1.333 1.467 2.618 2.975 3.935 4.456 2.919 3.284 1.745 1.985 4.718 5.192 1.886 1.972 3.767 3.95 5.664 5.91 1.267 1.308.723.798 1.832 1.765l-2.377-.07c-2.721-2.567-5.19-5.454-7.438-7.729-3.077-3.336-1.688-1.802-4.723-5.204-.722-.81-1.441-1.62-2.164-2.429-1.145-1.279-1.975-2.254-3.193-3.405-.282-.267-.592-.5-.888-.751l2.39-.025z" style="opacity:1;fill:#000;fill-opacity:1;stroke:none;stroke-width:.1;stroke-linecap:square;stroke-linejoin:miter;stroke-miterlimit:4;stroke-dasharray:none;stroke-opacity:1"/><path d="M410.46 94.998c.134-.268.26-.54.4-.804.574-1.078 1.352-2.408 1.931-3.435 1.616-2.865 3.234-5.726 4.814-8.61l1.74-3.205 2.144.88-1.741 3.204c-1.573 2.891-3.187 5.757-4.788 8.631-.56 1.006-1.333 2.35-1.887 3.414-.135.258-.255.523-.382.785zM422.688 86.506c1.643 1.59 3.383 3.097 5.312 4.336.71.455 1.45.86 2.197 1.253.031.016.058-.05.093-.048.59.04 1.176.115 1.764.173.449-.248.996-.369 1.346-.743 1.512-1.615 1.1-4.268.273-6.063-.357-.777-.853-1.49-1.387-2.16-.496-.62-1.123-1.124-1.684-1.687.105-.511-5.23-2.668-1.724-1.207l-1.721-1.644c.958.346 1.935.644 2.875 1.037 1.18.492 1.878 1.146 2.913 1.929 1.405 1.534 2.21 2.154 3.033 4.159.875 2.132 1.082 4.951-.54 6.829-.413.479-1.048.708-1.572 1.061-.63-.016-1.28.111-1.888-.048-1.418-.372-2.787-.925-4.123-1.526-.779-.35-1.487-.843-2.197-1.317-1.931-1.288-3.68-2.827-5.347-4.436l2.378.102zM417.531 63.988c.235.005.474-.028.705.015.369.07.738.163 1.08.317 3.253 1.46 3.153 1.36 5.487 3.28 2.3 1.891 2.448 2.107 4.673 4.212.805.787 1.617 1.565 2.414 2.36.773.771 1.543 1.548 2.296 2.34 1.988 2.087 3.85 4.281 5.933 6.278.179.09.731.319.536.271-.756-.185-1.555-.304-2.234-.687-.235-.132-.22-.493-.312-.747-.306-.846-.703-2.133-.88-2.986-.12-.578-.177-1.168-.266-1.752.016-.607-.034-1.22.047-1.822.296-2.183 1.614-4.952 3.343-6.374.412-.34.901-.573 1.351-.859 1.384-.543 2.832-.963 4.337-.771 1.4.179 3.527 1.212 4.437 1.776.362.224.537.659.806.988.167.332.388.642.502.995.123.384.17.79.2 1.193.162 2.16-1.1 4-2.188 5.74-1.542 1.984-3.849 4.918-6.578 5.199-.264.027-.53-.04-.795-.058l-1.767-1.6c.216.083.416.23.646.25.773.073 1.567-.257 2.205-.639 1.683-1.005 2.953-2.548 4.125-4.081 1.138-1.81 2.701-4.032 1.792-6.286-.123-.306-.34-.565-.511-.848l-.807-.802c.317.041 1.15.374.952.123-.263-.334-.783-.34-1.197-.434-1.405-.318-2.784.039-4.121.458-.425.238-.886.421-1.274.715-1.66 1.255-2.924 3.898-3.177 5.922-.07.566-.013 1.142-.02 1.712.094.562.158 1.13.281 1.686.454 2.05.38 1.11.898 2.974.1.362.573.939.235 1.102-1.582.764-2.066.222-2.935-.452-2.033-2.032-3.901-4.214-5.888-6.29-.754-.786-1.522-1.559-2.295-2.326-.797-.79-1.61-1.565-2.416-2.347-2.085-1.938-2.517-2.417-4.693-4.15-.635-.505-1.408-.854-1.95-1.458-.117-.132.621-.01.51-.148-.253-.312-1.155-.46-1.576-.55l-1.91-1.439zM451.8 63.755c1.279-1.525 2.222-3.367 2.634-5.323.093-.445.114-.901.171-1.351-.106-.766-.065-1.416-.62-2.03-.205-.227-1.062-.591-.776-.485 2.309.852.872.469.197.786-.336.159-.59.453-.884.68-.26.38-.572.727-.777 1.139-.975 1.96-1.312 4.87-.174 6.838.315.545.816.958 1.224 1.438.588.343 1.133.776 1.765 1.028.094.038.022-.26.122-.278.786-.142 1.615.015 2.392-.175 1.91-.468 3.422-1.525 4.853-2.835.783-.717 1.437-1.564 2.156-2.346l1.826-2.61 2.126.946-1.86 2.686c-1.683 1.865-2.52 3.063-4.673 4.406-1.24.773-3.521 1.73-5.084 1.513-3.484-.483-3.706-.916-5.973-2.513-.4-.554-.894-1.05-1.198-1.662-1.093-2.196-.715-5.247.33-7.387.228-.468.569-.872.853-1.308.427-.38 1.377-1.442 2.14-1.332 1.229.178 3 .59 3.767 1.804.522.826.454 1.433.537 2.376-.067.48-.1.967-.203 1.44-.448 2.062-1.432 3.987-2.737 5.631l-2.134-1.076zM330.758 146.016c.201-.427.379-.867.604-1.282 2.588-4.781 6.242-9.089 9.612-13.323 5.559-6.762 11.187-13.469 16.99-20.023 3.366-3.801 6.776-7.526 10.192-11.281 5.125-5.559 10.22-11.147 15.423-16.633.457-.474.278-.29.535-.552l2.126 1.107c-.535.48-.007-.017-.53.504-5.267 5.43-10.353 11.035-15.501 16.577-3.743 4.103-6.485 7.079-10.19 11.267-5.79 6.547-11.398 13.254-16.933 20.019-3.356 4.23-6.925 8.434-9.51 13.205-.204.379-.365.78-.548 1.17zM40.434 39.052c-.81.312-1.063.267-1.565 1.082-.18.292-.648 1.136-.351.965.332-.19.102-1.034.485-1.042.383-.008.269.74.529 1.021.329.356.792.558 1.187.836.492.165.964.41 1.475.496 1.639.274 2.702-.21 3.12-1.864.069-.268-.163.878-.398.73-.352-.222-.231-.8-.347-1.2l-.559-.75.854-2.225.76.843c.188.44.556.844.562 1.323.015 1.398-.036 3.757-1.387 4.848-1.438 1.161-3.228.662-4.754.076-.596-.38-2.147-1.106-2.252-2.083-.212-1.96.034-4.105 1.875-5.108.314-.17.681-.216 1.021-.324l-.255 2.376zM36.753 47.473c-2.274 2.988-4.69 5.862-6.98 8.837-.83 1.075-1.678 2.144-2.627 3.118a4.601 4.601 0 0 1-.358.338c-.056.047-.195.041-.188.114.007.067.134.005.2.008l-.526-2.34c.321-.091.397-.227.647-.495.917-.982 1.758-2.03 2.575-3.094 2.3-2.966 4.724-5.834 6.948-8.857l.309 2.37zM54.243 64.44c-2.182 3.24-4.321 6.512-6.71 9.607-1.562 2.024-2.63 3.235-4.289 5.19-2.772 3.144-5.601 6.26-8.69 9.099l-.147-2.064c3.064-2.826 5.883-5.913 8.625-9.05 1.738-2.062 2.62-3.058 4.252-5.19 2.372-3.096 4.528-6.351 6.63-9.635l.33 2.043z" style="opacity:1;fill:#000;fill-opacity:1;stroke:none;stroke-width:.1;stroke-linecap:square;stroke-linejoin:miter;stroke-miterlimit:4;stroke-dasharray:none;stroke-opacity:1"/><path d="M51.202 60.611c4.03.592 8.474 1.91 11.012 5.364.485.659.772 1.442 1.157 2.164.166.746.42 1.478.497 2.239a7.447 7.447 0 0 1-.066 2.06c-.322 1.776-.47 4.041-2.193 5.144-1.344.861-2.536.718-4.046.8-3.016-.31-5.663-1.638-7.952-3.58-.35-.297-.662-.633-.992-.95l.79-2.243c.309.311.598.644.925.935 2.132 1.894 4.63 3.188 7.495 3.486 1.33-.091 2.399.051 3.53-.808.419-.319.526-.956.96-1.253.138-.094.158.621.202.46.447-1.659.13-2.473-.13-4.14-.327-.699-.552-1.456-.984-2.096-2.295-3.4-6.703-4.692-10.537-5.219l.332-2.363zM68.985 73.613c-1.5 1.204-2.94 2.6-3.822 4.342-.294.581-.435 1.228-.66 1.84-.059.159.111-.646.16-.483.148.485.102 1.008.152 1.513.669 1.283.784 1.904 2.122 2.72 1.78 1.086 4.363 1.365 6.364.885.64-.153 1.221-.484 1.832-.725.445-.402.962-.737 1.337-1.205.837-1.047.93-1.813 1.225-3.06.064-.266-.033 1.005-.212.796-.201-.235.037-.62.103-.924.19-.885.441-1.757.662-2.635l.417 2.355s.265 3.258-2.057 5.834c-.45.476-1.035.804-1.552 1.205-.666.237-1.306.564-1.997.712-2.192.468-4.922.138-6.88-.992-1.472-.85-1.688-1.546-2.529-2.896-.108-.541-.364-1.072-.324-1.622.343-4.692 2.022-7.204 5.557-10.04l.102 2.38zM96.303 64.985c-4.958 7.217-10.24 14.205-15.374 21.296-.638.897-2.644 3.701-3.361 4.753-.368.539-.762 1.064-1.076 1.636-.238.435-.382.915-.574 1.372l-.425-2.338c.223-.488.472-.972.676-1.38.332-.565.722-1.092 1.095-1.63.798-1.154 2.635-3.703 3.373-4.731 5.154-7.08 10.445-14.069 15.338-21.335l.328 2.357z" style="opacity:1;fill:#000;fill-opacity:1;stroke:none;stroke-width:.1;stroke-linecap:square;stroke-linejoin:miter;stroke-miterlimit:4;stroke-dasharray:none;stroke-opacity:1"/><path d="M82.037 65.564c2.32.935 4.674 1.797 6.982 2.761 2.243.937 3.44 1.538 5.639 2.582 2.143 1.068 4.241 2.22 6.322 3.403l-.63 2.285c-2.062-1.189-4.143-2.343-6.272-3.41-2.188-1.041-3.36-1.633-5.595-2.562-2.3-.955-4.649-1.8-6.961-2.728l.515-2.331zM53.974 84.398c-3.98 5.37-8.095 10.64-12.173 15.939-2.327 3.139-4.778 6.23-6.73 9.625l-.383-2.524c2.059-3.341 4.448-6.471 6.817-9.596 4.083-5.298 8.206-10.568 12.139-15.98l.33 2.536z" style="opacity:1;fill:#000;fill-opacity:1;stroke:none;stroke-width:.1;stroke-linecap:square;stroke-linejoin:miter;stroke-miterlimit:4;stroke-dasharray:none;stroke-opacity:1"/><path d="M38.754 87.099c4.751 2.293 9.679 4.19 14.5 6.325l-.564 2.288c-4.82-2.155-9.75-4.05-14.528-6.296l.592-2.317zM48.8 101.575c-.4.303-.813.587-1.198.908-1.618 1.347-3.4 3.048-4.402 4.923-.832 2.193-1.18 2.762-.67 1.883.291 1.246.234 2.075 1.383 2.893 1.627 1.158 3.995.769 5.634-.087.666-.347 1.224-.87 1.837-1.305 1.438-1.298 2.544-2.827 3.152-4.673.107-.325.285-1.338.218-1.003-.106.537-.225 1.071-.337 1.606l1.303-2.004c-.145.907-.253 1.821-.435 2.722-.296 1.466-1.206 2.971-2.161 4.083-.507.589-1.11 1.087-1.665 1.631-.672.436-1.29.965-2.015 1.306-1.924.908-4.494 1.165-6.37-.056-1.343-.875-1.386-1.757-1.875-3.153.252-1.351.39-2.728.755-4.054.905-3.286 4.15-6.05 6.788-8.007l.057 2.387zM73.815 126.998c2.364.58 4.957 1.285 7.4 1.37.778.028 2.392.03 3.033-.753.222-.272.138-.688.207-1.033-.237.324-.312 1.017-.711.973-.518-.058-.621-.858-1.041-1.167-.56-.41-1.2-.71-1.85-.956-1.419-.535-3.382-.895-4.896-.87-.779.013-1.544.207-2.315.31-1.62.83-1.937.636-2.694 2.347-.05.114.308-.207.361-.094.353.754.36 1.641.716 2.394 1.115 2.36 2.212 3.189 4.01 5.078l3.046 2.252-.69 2.235-3.151-2.28c-1.944-1.98-2.983-2.732-4.274-5.177-1.31-2.477-1.274-3.835-.3-6.762.204-.615.745-1.092 1.268-1.475.57-.418 1.288-.58 1.932-.87.818-.096 1.63-.283 2.453-.29 2.312-.019 5.246.607 7.19 1.926.505.344 1.144.692 1.315 1.279.326 1.116.05 2.325.076 3.487-.224.357-.345.806-.673 1.071-.89.72-2.365.75-3.392.706-2.523-.106-5.091-.81-7.538-1.378l.518-2.323zM40.065 49.768c-1.684 3.155-3.02 6.477-4.346 9.792l-.405 1.041c-.084.22-.166.439-.247.66-.042.112-.074.228-.12.339-.03.068-.041.228-.108.195-2.368-1.167-2.376-.59-1.81-1.893.164-.291.306-.596.492-.873.25-.373.512-.74.812-1.074 1.211-1.345 2.75-2.424 4.403-3.156.58-.257 1.196-.425 1.793-.638 1.604-.28 2.082-.476 3.696-.325 1.579.147 3.488.945 4.715 1.715.77.483.88 1.59 1.066 2.338-.036.493-.018.993-.108 1.479-.414 2.242-1.964 4.369-3.446 6.035-.384.431-.799.832-1.198 1.248a28.568 28.568 0 0 1-2.689 2.328c-.264.202-.537.386-.806.58l-2.02-1.286c.024 0 .051.01.074 0 .175-.075.592-.368.682-.432a24.3 24.3 0 0 0 2.68-2.227c.394-.401.804-.788 1.182-1.204.849-.935 1.505-1.754 2.15-2.84.54-.912.96-1.776 1.138-2.827.07-.418.035-.847.052-1.271-.118-.347-.166-.726-.353-1.041-.187-.316-.815-.452-.744-.812.057-.291 1.146.24.884.099-.446-.24-.963-.331-1.464-.41-1.521-.243-2.04-.058-3.567.144-.58.185-1.177.325-1.74.556-.563.231-1.106.515-1.63.826-1.353.803-2.505 1.787-3.384 3.097-.173.257-.302.541-.453.812-.079.192-.03.582-.236.574-.79-.032-1.504-.493-2.274-.674-.044-.01-.048.174-.027.134.057-.108.091-.228.137-.341l.266-.657.423-1.038c1.37-3.33 2.745-6.66 4.33-9.896l2.2.924zM68.923 92.38c.02.234.078.468.06.702-.03.374-.084.751-.2 1.108-1.108 3.389-1.02 3.28-2.682 5.803-1.637 2.487-1.836 2.657-3.694 5.092-.697.884-1.385 1.774-2.09 2.65-.686.851-1.377 1.698-2.084 2.531-1.866 2.198-3.851 4.282-5.616 6.564-.071.187-.24.76-.213.562.104-.772.138-1.579.447-2.295.106-.248.467-.27.71-.389.808-.394 2.046-.925 2.876-1.19.562-.18 1.142-.3 1.714-.45.605-.05 1.21-.164 1.817-.147 2.201.063 5.095 1.082 6.692 2.65.38.374.664.836.996 1.253.687 1.319 1.258 2.713 1.226 4.23-.03 1.412-.832 3.637-1.297 4.601-.184.383-.598.604-.897.906-.312.201-.596.454-.936.604-.369.163-.768.253-1.165.325-2.13.39-4.094-.671-5.94-1.568-2.135-1.323-5.297-3.307-5.865-5.991-.055-.26-.017-.531-.026-.797l1.404-1.926c-.06.223-.185.438-.182.67.01.775.423 1.53.87 2.124 1.178 1.567 2.846 2.666 4.495 3.67 1.92.94 4.295 2.26 6.44 1.117.291-.155.526-.4.789-.599l.712-.887c-.007.32-.25 1.183-.021.96.303-.297.255-.815.304-1.236.168-1.431-.333-2.764-.89-4.05-.283-.397-.514-.836-.847-1.19-1.424-1.519-4.185-2.495-6.224-2.533-.571-.01-1.137.107-1.706.161-.548.153-1.106.277-1.646.458-1.99.668-1.063.495-2.863 1.208-.349.138-.872.668-1.07.35-.927-1.493-.44-2.031.14-2.966 1.805-2.237 3.776-4.326 5.63-6.521a127.52 127.52 0 0 0 2.07-2.529c.702-.876 1.386-1.767 2.079-2.65 1.707-2.279 2.137-2.758 3.63-5.106.435-.685.7-1.49 1.244-2.092.118-.132.075.616.2.49.284-.284.336-1.197.38-1.625l1.23-2.052zM88.906 89.543c5.239 3.334 10.135 7.15 15.01 10.985 10.176 8.265 19.872 17.094 29.55 25.928 5.291 4.704 10.189 9.817 15.258 14.75.914.939 1.977 1.728 2.778 2.771l-2.14 1.075c-.82-.927-1.791-1.706-2.648-2.6-5.016-4.951-9.928-10.013-15.175-14.726-9.63-8.822-19.3-17.618-29.48-25.807-4.815-3.753-9.644-7.52-14.862-10.708l1.71-1.668z" style="opacity:1;fill:#000;fill-opacity:1;stroke:none;stroke-width:.1;stroke-linecap:square;stroke-linejoin:miter;stroke-miterlimit:4;stroke-dasharray:none;stroke-opacity:1"/><path d="M142.274 122.794c2.757 4.959 4.957 10.19 7.188 15.397 1.608 3.64 3.197 7.286 4.94 10.862.533.662-2.073.927-2.71.538-.173-.105-.332-.228-.498-.342-.25-.17-.494-.346-.747-.508-.456-.293-.921-.57-1.382-.856-.673-.428-1.349-.853-2.02-1.285a547.083 547.083 0 0 1-9.343-6.18l-5.563-3.75c-.886-.595-2.307-1.582-3.307-2.151-.27-.154-.561-.273-.842-.41l1.684-1.679c1.475.834 2.85 1.79 4.251 2.743 2.594 1.763 2.813 1.908 5.546 3.757 3.044 2.042 3.446 2.33 6.506 4.31 2.082 1.348 4.2 2.635 6.291 3.969.254.162.5.333.75.5.429.28.845.53 1.157.947.073.098.292.255.186.316-.686.39-1.463.59-2.213.836-.034.01-.03-.066-.044-.1-1.686-3.625-3.276-7.293-4.894-10.95-2.217-5.164-4.42-10.346-7.202-15.24l2.266-.724z" style="opacity:1;fill:#000;fill-opacity:1;stroke:none;stroke-width:.1;stroke-linecap:square;stroke-linejoin:miter;stroke-miterlimit:4;stroke-dasharray:none;stroke-opacity:1"/></svg>