<svg xmlns="http://www.w3.org/2000/svg" xmlns:xlink="http://www.w3.org/1999/xlink" width="520.764" height="355.632" viewBox="0 0 390.573 266.724"><defs><symbol id="a" overflow="visible" style="overflow:visible"><path d="M6.563-2.297c.171 0 .359 0 .359-.203 0-.188-.188-.188-.36-.188h-5.39c-.172 0-.344 0-.344.188 0 .203.172.203.344.203zm0 0" style="stroke:none"/></symbol><symbol id="b" overflow="visible" style="overflow:visible"><path d="M1.531-3.297c.578 0 .813.031 1.047.11.625.234 1.016.796 1.016 1.484 0 .828-.578 1.484-1.313 1.484-.265 0-.469-.078-.828-.312-.312-.172-.469-.25-.64-.25-.235 0-.391.14-.391.36 0 .343.437.562 1.14.562.766 0 1.547-.266 2.016-.672.469-.406.735-.985.735-1.656 0-.5-.172-.97-.454-1.282-.203-.219-.39-.344-.828-.531.688-.469.938-.828.938-1.375 0-.813-.64-1.36-1.563-1.36-.5 0-.937.173-1.297.485-.296.266-.437.531-.656 1.125l.14.047c.407-.734.86-1.063 1.485-1.063.656 0 1.11.438 1.11 1.063a1.4 1.4 0 0 1-.407.969c-.297.296-.578.453-1.25.687zm0 0" style="stroke:none"/></symbol><symbol id="c" overflow="visible" style="overflow:visible"><path d="M2.531-6.734c-.547 0-.969.171-1.328.515-.578.563-.969 1.703-.969 2.875 0 1.078.329 2.25.797 2.813A1.87 1.87 0 0 0 2.5.14c.5 0 .922-.172 1.281-.516.578-.547.969-1.703.969-2.922 0-2.031-.906-3.437-2.219-3.437zm-.031.25c.844 0 1.281 1.125 1.281 3.218 0 2.079-.437 3.141-1.281 3.141-.86 0-1.297-1.063-1.297-3.14 0-2.11.438-3.22 1.297-3.22zm0 0" style="stroke:none"/></symbol><symbol id="d" overflow="visible" style="overflow:visible"><path d="M4.453-6.813c-1.14.094-1.719.282-2.453.797C.922-5.25.344-4.109.344-2.78c0 .875.265 1.75.687 2.25.39.437.922.672 1.547.672 1.235 0 2.094-.954 2.094-2.329 0-1.265-.734-2.078-1.875-2.078-.438 0-.656.063-1.281.454.265-1.516 1.39-2.594 2.953-2.844Zm-2.047 3c.86 0 1.36.72 1.36 1.97 0 1.093-.391 1.702-1.079 1.702-.89 0-1.421-.937-1.421-2.484 0-.5.078-.781.28-.938.204-.156.516-.25.86-.25Zm0 0" style="stroke:none"/></symbol><symbol id="e" overflow="visible" style="overflow:visible"><path d="M.344-3.953h.906L.375.234C.156 1.313-.172 1.86-.594 1.86c-.125 0-.203-.078-.203-.171 0-.016.016-.047.047-.11a.264.264 0 0 0 .047-.156c0-.203-.188-.375-.39-.375-.22 0-.376.172-.376.406 0 .344.36.61.797.61.875 0 1.578-.985 1.985-2.813l.718-3.203h1.094l.063-.313H2.109c.282-1.562.657-2.28 1.204-2.28.14 0 .218.062.218.124 0 .031 0 .047-.031.11a.344.344 0 0 0-.063.203c0 .234.157.39.376.39.218 0 .421-.172.421-.39 0-.375-.375-.657-.859-.657-.5 0-.875.22-1.234.688-.313.39-.5.86-.813 1.812H.422zm0 0" style="stroke:none"/></symbol><symbol id="f" overflow="visible" style="overflow:visible"><path d="M4-1.11c-.078.094-.125.157-.219.266-.219.313-.344.406-.453.406-.14 0-.234-.124-.312-.406-.016-.078-.032-.14-.032-.172-.25-1.015-.359-1.468-.359-1.609.438-.781.797-1.219.969-1.219.062 0 .14.031.25.078.11.079.187.094.265.094.204 0 .344-.14.344-.36 0-.202-.172-.359-.406-.359-.438 0-.813.36-1.5 1.422l-.11-.547c-.14-.687-.25-.875-.53-.875-.22 0-.548.079-1.157.282l-.11.046.032.141c.39-.078.469-.11.562-.11.25 0 .313.095.454.688l.28 1.235-.812 1.156C.953-.641.75-.47.641-.47a.554.554 0 0 1-.25-.094.755.755 0 0 0-.329-.093c-.187 0-.328.14-.328.344 0 .265.204.421.5.421.297 0 .422-.093.922-.703.266-.312.485-.578.89-1.156L2.36-.562c.125.515.25.671.579.671.374 0 .624-.234 1.203-1.14zm0 0" style="stroke:none"/></symbol><symbol id="g" overflow="visible" style="overflow:visible"><path d="M.156-3.984c.125-.032.188-.047.297-.047.578 0 .719.25 1.188 1.968.156.641.406 1.813.406 1.985 0 .156-.063.312-.219.5-.297.406-.5.672-.61.781C1 1.422.892 1.5.75 1.5c-.047 0-.125-.031-.234-.11-.141-.109-.25-.171-.36-.171a.387.387 0 0 0-.39.39c0 .25.218.438.5.438.64 0 1.953-1.485 3.03-3.469.673-1.219.954-1.937.954-2.422a.554.554 0 0 0-.547-.547c-.234 0-.39.141-.39.36 0 .156.078.265.28.39.188.11.25.204.25.344 0 .39-.359 1.172-1.218 2.578l-.188-1.156c-.156-.875-.718-2.516-.859-2.516h-.125l-.984.172a1.759 1.759 0 0 1-.313.063zm0 0" style="stroke:none"/></symbol><symbol id="h" overflow="visible" style="overflow:visible"><path d="M2.953-4.266h-.797l.281-1.03v-.048c0-.062-.03-.093-.078-.093-.062 0-.093 0-.14.078-.39.515-1.016 1.015-1.328 1.109-.25.078-.329.14-.329.25 0 0 0 .016.016.047h.735l-.72 2.75c-.015.094-.03.11-.062.203-.078.297-.156.656-.156.734 0 .22.203.375.469.375.469 0 .797-.28 1.422-1.203l-.125-.078c-.5.64-.657.797-.813.797-.094 0-.156-.078-.156-.203 0-.016 0-.016.016-.047l.875-3.328h.843zm0 0" style="stroke:none"/></symbol><symbol id="i" overflow="visible" style="overflow:visible"><path d="M4.625-1.094c-.156.14-.203.203-.281.282-.297.296-.422.406-.516.406-.078 0-.14-.063-.14-.125 0-.203.421-1.906.89-3.625.031-.094.031-.125.063-.203l-.079-.032-.609.063-.031.031-.11.484c-.078-.374-.359-.578-.796-.578C1.703-4.39.172-2.578.172-1 .172-.297.547.11 1.188.11c.703 0 1.125-.329 2-1.563-.204.781-.235.906-.235 1.14 0 .297.125.407.406.407C3.766.094 4-.094 4.75-1ZM3.078-4.172c.344.016.563.25.563.61 0 .828-.5 2-1.188 2.75-.234.265-.578.437-.875.437-.344 0-.578-.297-.578-.75 0-.547.39-1.563.813-2.188.406-.578.875-.89 1.265-.859Zm0 0" style="stroke:none"/></symbol><symbol id="j" overflow="visible" style="overflow:visible"><path d="M1.094-6.406c.593.015.656.047.656.265 0 .094-.031.204-.094.422-.015.078-.047.14-.047.203l-.03.063-1.345 5v.031c0 .234.766.531 1.329.531 1.5 0 3.156-1.75 3.156-3.312 0-.688-.485-1.188-1.157-1.188-.703 0-1.218.407-1.921 1.5.515-1.89.578-2.156 1.03-3.875l-.046-.046c-.5.093-.86.156-1.531.234zm2.078 2.5c.422 0 .703.328.703.86 0 .655-.516 1.718-1.11 2.343-.359.375-.796.578-1.218.578-.313 0-.453-.11-.453-.328 0-.61.297-1.578.703-2.313.453-.765.89-1.14 1.375-1.14Zm0 0" style="stroke:none"/></symbol><symbol id="k" overflow="visible" style="overflow:visible"><path d="M5.625-.156c-.578-.047-.625-.14-.766-.86l-.937-5.64h-.25L.782-1.672C-.017-.344-.11-.234-.517-.156V0H1.36v-.156C.844-.203.766-.266.766-.516c0-.187.03-.265.203-.609L1.53-2.25h2.203l.188 1.297c.015.094.031.187.031.265 0 .375-.14.47-.781.532V0h2.453ZM1.75-2.61l1.484-2.594.438 2.594zm0 0" style="stroke:none"/></symbol><symbol id="l" overflow="visible" style="overflow:visible"><path d="M-.078 0h2.812c1.563 0 2.641-.813 2.641-2 0-.36-.125-.719-.344-.938-.203-.218-.39-.343-.922-.562.72-.172 1-.281 1.329-.563.28-.25.421-.578.421-.984 0-.937-.703-1.469-1.984-1.469H1.297v.172c.61.047.766.125.766.407 0 .14-.032.39-.11.64L.734-.89c-.187.579-.25.625-.812.735zm2.453-3.297c.64 0 1.063.031 1.266.11.406.171.656.609.656 1.156 0 1.078-.734 1.734-1.953 1.734-.422 0-.64-.156-.64-.422 0-.125.124-.594.343-1.39.14-.454.203-.688.328-1.188Zm.75-2.64c.063-.22.172-.266.563-.266.796 0 1.171.328 1.171 1.062 0 .579-.25 1.016-.671 1.25-.344.204-.813.266-1.72.266Zm0 0" style="stroke:none"/></symbol><symbol id="m" overflow="visible" style="overflow:visible"><path d="M3.297 2.39c0-.03 0-.046-.172-.218C1.891.922 1.562-.968 1.562-2.5c0-1.734.375-3.469 1.61-4.703.125-.125.125-.14.125-.172 0-.078-.031-.11-.094-.11-.11 0-1 .688-1.594 1.954C1.11-4.438.984-3.328.984-2.5c0 .781.11 1.984.657 3.125C2.25 1.844 3.094 2.5 3.203 2.5c.063 0 .094-.031.094-.11zm0 0" style="stroke:none"/></symbol><symbol id="n" overflow="visible" style="overflow:visible"><path d="M2.875-2.5c0-.766-.11-1.969-.656-3.11C1.625-6.827.766-7.483.672-7.483a.107.107 0 0 0-.11.109c0 .031 0 .047.188.234.984.985 1.547 2.563 1.547 4.641 0 1.719-.36 3.469-1.594 4.719-.14.125-.14.14-.14.172 0 .062.046.109.109.109.094 0 1-.688 1.578-1.953.516-1.094.625-2.203.625-3.047Zm0 0" style="stroke:none"/></symbol></defs><path d="M-72.425-132.436h227.621m-227.621 20.695h227.621M-72.425-91.05h227.621M-72.425-70.358h227.621M-72.425-49.663h227.621M-72.425-28.97h227.621M-72.425-8.276h227.621M-62.077-136.573V-2.069m20.691-134.504V-2.069m20.691-134.504V-2.069M.001-136.573V-2.069m20.691-134.504V-2.069m20.696-134.504V-2.069m20.69-134.504V-2.069M82.77-136.573V-2.069m20.696-134.504V-2.069m20.691-134.504V-2.069m20.695-134.504V-2.069" style="fill:none;stroke:#9e9ed1;stroke-width:.19925;stroke-linecap:butt;stroke-linejoin:miter;stroke-miterlimit:10;stroke-opacity:1" transform="matrix(1.41471 0 0 -1.41471 159.587 -254.001)"/><path d="M-72.425-132.436h231.762M0-136.573V5.173" style="fill:none;stroke:#000;stroke-width:.3985;stroke-linecap:butt;stroke-linejoin:miter;stroke-miterlimit:10;stroke-opacity:1" transform="matrix(1.41471 0 0 -1.41471 159.587 -254.001)"/><path d="M159.263-132.436h-.79" style="fill:none;stroke:#000;stroke-width:1.04607999;stroke-linecap:butt;stroke-linejoin:miter;stroke-miterlimit:10;stroke-opacity:1" transform="matrix(1.41471 0 0 -1.41471 159.587 -254.001)"/><path d="M-1.777 2.37C-1.63 1.484 0 .148.445 0 0-.15-1.629-1.482-1.777-2.373" style="fill:none;stroke:#000;stroke-width:.83687001;stroke-linecap:round;stroke-linejoin:round;stroke-miterlimit:10;stroke-opacity:1" transform="matrix(1.41471 0 0 -1.41471 383.781 -66.643)"/><path d="M0 5.099v-.79" style="fill:none;stroke:#000;stroke-width:1.04607999;stroke-linecap:butt;stroke-linejoin:miter;stroke-miterlimit:10;stroke-opacity:1" transform="matrix(1.41471 0 0 -1.41471 159.587 -254.001)"/><path d="M-1.778 2.37C-1.63 1.484-.001.148.445 0-.001-.15-1.63-1.482-1.778-2.373" style="fill:none;stroke:#000;stroke-width:.83687001;stroke-linecap:round;stroke-linejoin:round;stroke-miterlimit:10;stroke-opacity:1" transform="matrix(0 -1.41471 -1.41471 0 159.587 -260.1)"/><use xlink:href="#a" width="100%" height="100%" x="193.568" y="426.044" style="fill:#b0b0d9;fill-opacity:1" transform="matrix(1.41471 0 0 1.41471 -211.078 -650.61)"/><use xlink:href="#b" width="100%" height="100%" x="201.309" y="426.044" style="fill:#b0b0d9;fill-opacity:1" transform="matrix(1.41471 0 0 1.41471 -211.078 -650.61)"/><use xlink:href="#c" width="100%" height="100%" x="259.517" y="426.38" style="fill:#b0b0d9;fill-opacity:1" transform="matrix(1.41471 0 0 1.41471 -211.078 -650.61)"/><use xlink:href="#b" width="100%" height="100%" x="321.595" y="426.38" style="fill:#b0b0d9;fill-opacity:1" transform="matrix(1.41471 0 0 1.41471 -211.078 -650.61)"/><use xlink:href="#d" width="100%" height="100%" x="383.673" y="426.45" style="fill:#b0b0d9;fill-opacity:1" transform="matrix(1.41471 0 0 1.41471 -211.078 -650.61)"/><path d="M-9.726-74.495v8.278h7.242v-8.278zm0 0" style="fill:#fdfdfd;fill-opacity:1;fill-rule:nonzero;stroke:#fdfdfd;stroke-width:.3985;stroke-linecap:butt;stroke-linejoin:miter;stroke-miterlimit:10;stroke-opacity:1" transform="matrix(1.41471 0 0 -1.41471 159.587 -254.001)"/><use xlink:href="#b" width="100%" height="100%" x="253.929" y="353.956" style="fill:#b0b0d9;fill-opacity:1" transform="matrix(1.41471 0 0 1.41471 -211.078 -650.61)"/><path d="M-9.726-12.417v8.278h7.242v-8.278zm0 0" style="fill:#fdfdfd;fill-opacity:1;fill-rule:nonzero;stroke:#fdfdfd;stroke-width:.3985;stroke-linecap:butt;stroke-linejoin:miter;stroke-miterlimit:10;stroke-opacity:1" transform="matrix(1.41471 0 0 -1.41471 159.587 -254.001)"/><use xlink:href="#d" width="100%" height="100%" x="253.929" y="291.947" style="fill:#b0b0d9;fill-opacity:1" transform="matrix(1.41471 0 0 1.41471 -211.078 -650.61)"/><path d="M107.985 298.145c-2.973 5.616-39.537 11.355-44.425 6.94-4.888-4.415-7.645-36.997-3.809-41.9 3.836-4.903 33.643-9.624 38.58-5.73 4.936 3.895 12.628 35.074 9.654 40.69z" style="opacity:1;fill:red;fill-opacity:1;stroke:none;stroke-width:.1;stroke-linecap:square;stroke-linejoin:miter;stroke-miterlimit:4;stroke-dasharray:none;stroke-opacity:1" transform="matrix(.88003 0 0 .52778 8.994 -822.422)"/><path d="M162.598-556.123c.288.196.56.416.863.587 1.693.95 3.813 1.92 5.567 2.647 2.793 1.155 5.093 2.02 8.077 2.665 1.495.323 3.023.472 4.535.708 4.103.075 5.308.323 9.377-.52 5.005-1.037 9.77-3.219 14.216-5.639 1.572-.855 3.088-1.806 4.632-2.71 4.533-2.788 8.874-5.865 13.472-8.554 2.692-1.575 5.845-3.314 8.787-4.428 1.435-.543 2.937-.895 4.406-1.343 4.153-.987 8.271-1.201 12.514-.833 3.848.333 7.66 1.134 11.46 1.791 4.395.7 8.94.963 13.154-.733 2.629-1.058 3.436-1.865 5.73-3.525.918-.84 1.881-1.635 2.754-2.52 1.883-1.911 3.881-4.412 5.51-6.514 2.767-3.57 5.375-7.263 8.055-10.895 2.28-3.032 4.579-6.062 7.138-8.875 1.213-1.333 2.567-2.791 4.115-3.781.626-.4 1.342-.645 2.013-.967.693-.062 1.389-.276 2.078-.184 1.657.222 2.856 1.177 4 2.287 2.114 2.052 3.626 4.66 5.172 7.121 2.676 4.527 5.153 9.164 7.64 13.792l1.936 3.613-1.433.739c-.642-1.205-1.283-2.41-1.927-3.615-2.463-4.6-4.919-9.209-7.577-13.705-1.466-2.336-2.897-4.747-4.85-6.74-.72-.736-1.765-1.683-2.863-1.912-.484-.1-.99.02-1.485.03-.566.257-1.173.44-1.698.769-1.479.926-2.755 2.308-3.906 3.569-2.537 2.779-4.812 5.775-7.07 8.773-2.693 3.648-5.312 7.357-8.092 10.943-1.684 2.174-3.725 4.727-5.673 6.696-.917.928-1.93 1.76-2.895 2.639-2.502 1.792-3.338 2.632-6.212 3.764-4.457 1.755-9.249 1.516-13.89.772-4.996-.866-10.057-2.003-15.158-1.97-3.546.022-4.557.35-8.073.96-1.404.422-2.84.75-4.211 1.267-2.887 1.086-5.973 2.787-8.612 4.328-4.61 2.694-8.957 5.782-13.503 8.572-1.573.92-3.117 1.888-4.719 2.758-4.61 2.504-9.543 4.743-14.733 5.8-4.265.87-5.534.607-9.83.516-1.572-.249-3.163-.409-4.72-.747-3.06-.665-5.433-1.555-8.299-2.737-1.855-.765-4.048-1.765-5.828-2.764-.342-.192-.649-.44-.973-.659l1.03-1.236zM331.035-657.48c1.118.002 2.237.002 3.355.003a15.71 15.71 0 0 1 4.126.48c.989.256 1.385.424 2.351.771 1.635.636 3.245 1.345 4.777 2.2 1.05.587 1.298.773 2.309 1.431 1.912 1.243 3.665 2.72 5.616 3.905.342.207.695.392 1.043.589.8.336 1.708.904 2.63.712.222-.047.423-.171.616-.29.738-.455.79-.64 1.383-1.335.257-.41.535-.808.773-1.23.595-1.055 1.254-2.5 1.75-3.581 1.07-2.333 2.107-4.68 3.189-7.007 1.094-2.252 2.183-4.52 3.53-6.637.64-1.007 1.409-2.123 2.313-2.93.353-.315.777-.54 1.166-.81.477-.036.972-.24 1.432-.108 1.38.393 1.907 1.644 2.39 2.84.344.854.578 1.75.82 2.638.57 2.085 1.146 4.917 1.594 6.998 1.12 5.15 2.225 10.316 3.9 15.32.342 1.02.69 2.04 1.106 3.033.334.795.76 1.547 1.141 2.32.34.425 1.062 1.878 2.028 1.666.288-.063.454-.38.645-.606.403-.475.794-.965 1.132-1.49 1.202-1.86 2.053-3.702 3.052-5.687 2.27-4.64 4.327-9.381 6.66-13.99 1.487-2.935 1.676-3.198 3.252-5.99 1.304-2.163 2.626-4.365 4.364-6.218.673-.718 1.588-1.544 2.532-1.926.415-.167.873-.193 1.31-.29.466.098.956.116 1.397.295.95.385 1.803 1.198 2.454 1.953 1.32 1.532 2.205 3.356 3.128 5.135 1.364 2.841 2.602 5.749 3.594 8.742.695 2.1.87 2.856 1.453 4.997 1.357 5.207 2.125 10.538 2.89 15.856.72 5.242 1.403 10.488 2.194 15.72.672 4.48 1.456 8.94 2.53 13.342.58 2.245 1.345 4.45 2.364 6.536.53 1.086.71 1.334 1.318 2.344.889 1.31 1.903 2.613 3.273 3.454.193.118.401.208.602.312 1.31.526 2.144.315 3.37-.285 2.193-1.392 3.64-3.61 5.032-5.742 1.686-2.753 2.888-5.763 4.145-8.724.678-1.598 1.35-3.199 2.024-4.798l1.41.592c-.672 1.604-1.34 3.209-2.015 4.81-1.284 3.05-2.512 6.149-4.247 8.98-1.55 2.378-3.178 4.826-5.666 6.317-.276.128-.542.276-.826.383a5.095 5.095 0 0 1-3.974-.13c-.26-.14-.528-.265-.777-.422-1.545-.973-2.706-2.436-3.707-3.933-.648-1.083-.835-1.344-1.4-2.507-1.056-2.177-1.85-4.475-2.454-6.816-1.08-4.447-1.873-8.954-2.549-13.48-.79-5.235-1.473-10.485-2.195-15.73-.755-5.255-1.512-10.523-2.852-15.668-.569-2.092-.74-2.836-1.42-4.885-.969-2.925-2.18-5.766-3.513-8.542-1.07-2.067-2.465-5.088-4.598-6.28-.217-.121-.464-.178-.696-.268-.27.035-.553.011-.809.103-.798.287-1.559.976-2.116 1.563-1.685 1.774-2.957 3.897-4.216 5.975-1.558 2.751-1.746 3.012-3.215 5.908-2.34 4.611-4.4 9.356-6.665 14.003-.811 1.616-2.146 4.446-3.223 5.986-.864 1.236-1.859 2.618-3.601 2.56-1.392-.046-2.156-1.565-2.824-2.44-.4-.824-.846-1.628-1.198-2.474-.423-1.017-.776-2.062-1.124-3.107-1.681-5.05-2.797-10.259-3.933-15.45-.474-2.184-.984-4.689-1.574-6.862-.22-.81-.46-1.617-.742-2.409-.084-.236-.58-1.606-1.02-1.946-.14-.109-.337-.109-.505-.163-.297.19-.625.338-.891.569-.838.725-1.533 1.735-2.12 2.651-1.323 2.071-2.39 4.295-3.462 6.501-1.082 2.328-2.116 4.676-3.184 7.011-.503 1.101-1.23 2.696-1.841 3.765-.282.492-.613.955-.92 1.432-.741.814-1.025 1.298-2.021 1.775-1.694.81-3.016.213-4.574-.534-.374-.213-.754-.415-1.122-.639-1.95-1.188-3.71-2.659-5.62-3.907-2.146-1.4-4.345-2.584-6.759-3.466-1.99-.72-3.797-1.228-5.94-1.151-1.118 0-2.237 0-3.355.004v-1.598zM174.927-372.163c2.679 2.095 5.453 4.262 8.815 5.123.814.208 1.659.272 2.488.408 2.351-.028 2.99.128 5.305-.587 2.053-.634 4.088-1.76 5.92-2.841 1.742-1.03 4.745-3.039 6.419-4.141 3.23-2.086 6.56-4.032 9.999-5.753 1.882-.942 4.084-1.97 6.116-2.567 1.019-.3 2.073-.457 3.11-.685 1.096-.028 2.194-.156 3.288-.084 3.633.238 7.122 1.55 10.537 2.691 6.7 2.238.683.267 7.326 2.427 4.755 1.436 9.707 2.53 14.71 2.194 2.905-.195 4.893-.736 7.722-1.353 1.269-.446 2.569-.813 3.807-1.339 8.13-3.45 14.97-9.842 21.446-15.672 6.401-5.96 12.583-12.165 19.283-17.799 4.245-3.57 4.65-3.752 9.01-6.927 1.387-.855 2.729-1.785 4.159-2.563 3.316-1.806 7.138-3.4 11.004-3.21 3.006.147 3.777.826 6.464 2.072 1.003.66 2.036 1.276 3.01 1.98 1.844 1.332 4.306 3.45 6.018 4.93 2.833 2.445 5.626 4.938 8.428 7.418a987.018 987.018 0 0 0 6.376 5.634l-1.041 1.183c-2.13-1.876-4.259-3.752-6.373-5.645-2.793-2.475-5.577-4.962-8.402-7.4-1.683-1.454-4.057-3.496-5.87-4.814-.91-.662-1.877-1.245-2.815-1.868-2.32-1.116-3.073-1.764-5.681-1.926-3.61-.225-7.209 1.293-10.305 2.969-1.396.756-2.707 1.66-4.061 2.491-4.308 3.13-4.71 3.31-8.91 6.836-6.698 5.624-12.871 11.825-19.264 17.784-6.655 5.995-13.59 12.471-21.96 16-1.299.547-2.661.928-3.992 1.392-2.994.648-4.977 1.191-8.057 1.39-5.166.333-10.28-.784-15.19-2.27-6.668-2.17-.635-.194-7.332-2.43-3.243-1.082-6.569-2.35-10.014-2.606-.993-.074-1.991.033-2.987.049-.967.208-1.952.347-2.902.623-1.97.574-4.104 1.569-5.926 2.478-3.397 1.695-6.685 3.614-9.872 5.674-1.688 1.113-4.775 3.178-6.527 4.21-2.004 1.18-4.117 2.337-6.362 3.01-2.564.767-3.28.589-5.876.597-.92-.16-1.855-.24-2.757-.477-3.479-.916-6.384-3.106-9.169-5.28l.885-1.327zM487.982-482.235l-1.64 4.223a1146.591 1146.591 0 0 0-10.728 29.637c-.873 2.303-1.558 4.233-2.795 6.35-.108.184-.264.343-.339.543-.035.094.12.283.022.3-.155.028-.274-.154-.41-.23-.196-.318-.414-.623-.587-.954-.439-.838-1.097-2.466-1.43-3.285-.99-2.443-1.936-4.905-2.91-7.355-2.514-6.313-5.078-12.61-7.903-18.79-1.372-2.663-3.74-8.29-7.586-7.955-.508.044-.971.31-1.457.464-.44.368-.926.685-1.318 1.104-.998 1.068-2.048 2.825-2.737 4.047-1.979 3.506-3.573 7.211-5.145 10.912-.691 1.7-1.398 3.394-2.073 5.1-4.216 10.662-7.937 21.51-11.713 32.331-2.298 6.63-4.526 13.285-6.86 19.901-1.124 3.185-2.494 7.064-3.845 10.205-.51 1.185-1.107 2.332-1.66 3.498-.459.7-2.016 3.789-3.504 3.448-2.214-.508-3.281-4.25-4.121-5.825-.496-1.348-1.027-2.684-1.49-4.044-3.225-9.478-5.297-19.303-7.682-29.01-3.973-17.251.948 4.163-2.81-12.333-1.05-4.612-2.063-9.52-3.609-14-.354-1.023-.812-2.008-1.218-3.012-.888-1.39-1.336-2.575-2.882-3.336-2.92-1.437-5.296 1.464-6.947 3.398-.584.818-1.199 1.616-1.752 2.455-3.128 4.747-5.434 9.975-7.739 15.15-1.312 3.077-2.531 6.191-3.847 9.266l1.393.78c1.346-3.124 2.572-6.298 3.901-9.43 2.271-5.106 4.537-10.27 7.63-14.948.534-.807 1.128-1.571 1.692-2.358 1.034-1.095 2.498-3.264 4.31-3.18 1.35.061 2.38 2.166 2.9 3.035.367.922.78 1.827 1.1 2.766 1.532 4.477 2.508 9.16 3.561 13.763 4.341 18.967-1.78-7.585 2.819 12.33 2.396 9.747 4.478 19.61 7.702 29.132.468 1.383 1.003 2.742 1.505 4.113 1.002 2.22 3.095 7.888 6.692 6.64 1.876-.65 2.679-2.438 3.7-3.923.59-1.235 1.224-2.448 1.765-3.705 1.34-3.108 2.783-7.212 3.888-10.354 2.329-6.624 4.556-13.286 6.853-19.921 3.771-10.805 7.486-21.637 11.706-32.277.673-1.697 1.38-3.38 2.069-5.071 1.557-3.65 3.134-7.304 5.096-10.76.655-1.152 1.643-2.809 2.6-3.815.314-.33.715-.561 1.071-.842.29-.053.574-.173.868-.16 1.265.053 2.344 1.347 3.001 2.246 1.242 1.698 1.797 2.987 2.778 4.894 2.805 6.134 5.347 12.384 7.84 18.65.972 2.451 1.916 4.915 2.903 7.36.34.84 1.013 2.508 1.456 3.363.2.385.445.745.668 1.117.272.227.476.579.815.682 1.771.537 2.735-1.361 3.37-2.61.893-1.755 1.463-3.453 2.162-5.305a1091.732 1091.732 0 0 1 10.702-29.65l.317-.817-.118-3.948z" style="opacity:1;fill:red;fill-opacity:1;stroke:none;stroke-width:.1;stroke-linecap:square;stroke-linejoin:miter;stroke-miterlimit:4;stroke-dasharray:none;stroke-opacity:1"/><circle cx="366.79" cy="-427.343" r="3.356" style="opacity:1;fill:red;fill-opacity:1;stroke:none;stroke-width:.1;stroke-linecap:square;stroke-linejoin:miter;stroke-miterlimit:4;stroke-dasharray:none;stroke-opacity:1"/><circle cx="366.95" cy="-400.44" r="2.746" style="opacity:1;fill:none;fill-opacity:1;stroke:#ff000c;stroke-width:.95207393;stroke-linecap:square;stroke-linejoin:miter;stroke-miterlimit:4;stroke-dasharray:none;stroke-opacity:1"/><path d="M577.958-397.262c1.631 2.032 3.013 4.25 4.447 6.42 2.56 3.855 5.207 7.722 8.56 10.943.638.612 1.33 1.165 1.995 1.748 2.224 1.602 4.782 3.322 7.686 2.848 1.634-.267 2.17-.823 3.56-1.708.624-.573 1.283-1.109 1.872-1.717 1.444-1.492 2.81-3.278 3.986-4.974 2.204-3.176 4.105-6.54 6.006-9.9 2.889-5.35 5.369-10.904 8.106-16.33 2.143-4.25 2.2-4.269 4.477-8.414 3.688-6.311 7.454-12.725 12.598-17.99.895-.915 1.876-1.742 2.813-2.614.954-.701 1.86-1.473 2.862-2.104 2.865-1.803 5.656-2.782 9.076-2.525 2.47.186 3.899.838 6.227 1.626 3.204 1.243 6.362 2.856 9.906 2.738 2.66-.088 4.934-.988 7.436-1.766l.453 1.466c-2.84.872-5.037 1.762-8.058 1.832-3.658.084-6.929-1.501-10.236-2.805-2.112-.724-3.462-1.337-5.692-1.54-3.115-.283-5.579.587-8.2 2.22-.955.594-1.819 1.324-2.728 1.987-.905.836-1.852 1.629-2.715 2.508-5.075 5.171-8.772 11.494-12.407 17.7-2.254 4.1-2.326 4.147-4.448 8.353-2.75 5.453-5.234 11.038-8.133 16.415-1.933 3.414-3.866 6.834-6.103 10.062-1.211 1.748-2.681 3.676-4.179 5.206-.658.673-1.397 1.262-2.096 1.893-1.766 1.072-2.32 1.67-4.389 1.948-3.296.441-6.187-1.39-8.707-3.247-.697-.614-1.422-1.199-2.09-1.844-3.414-3.291-6.122-7.224-8.742-11.15-1.383-2.078-2.719-4.197-4.273-6.155l1.13-1.13z" style="opacity:1;fill:red;fill-opacity:1;stroke:none;stroke-width:1.20000005;stroke-linecap:square;stroke-linejoin:miter;stroke-miterlimit:4;stroke-dasharray:none;stroke-opacity:1"/><path d="m394.051-294-1.151 1.108c1.755 1.76 3.564 3.465 5.359 5.184 6.177 5.918 12.33 11.86 18.477 17.81 1.378 1.33 2.75 2.666 4.123 4a1.29 1.29 0 0 1 .155-.308c.168-.224.468-.344.593-.594.077-.153-.036-.35-.014-.516-1.263-1.228-2.522-2.46-3.789-3.686a6880.148 6880.148 0 0 0-18.456-17.84c-1.775-1.709-3.565-3.405-5.297-5.158z" style="opacity:1;fill:red;fill-opacity:1;stroke:none;stroke-width:1.5;stroke-linecap:square;stroke-linejoin:miter;stroke-miterlimit:4;stroke-dasharray:none;stroke-opacity:1"/><circle cx="247.274" cy="-183.813" r="3.356" style="opacity:1;fill:red;fill-opacity:1;stroke:none;stroke-width:.1;stroke-linecap:square;stroke-linejoin:miter;stroke-miterlimit:4;stroke-dasharray:none;stroke-opacity:1"/><path d="M612.62-322.427c-2.678-2.096-5.452-4.263-8.814-5.123-.815-.209-1.659-.272-2.488-.408-2.351.027-2.99-.129-5.306.586-2.052.635-4.088 1.76-5.919 2.842-1.743 1.03-4.746 3.038-6.42 4.14-3.23 2.086-6.558 4.033-9.998 5.753-1.883.942-4.084 1.97-6.117 2.568-1.018.299-2.073.456-3.11.685-1.095.028-2.193.156-3.287.084-3.633-.239-7.122-1.551-10.538-2.692-6.699-2.237-.683-.266-7.325-2.427-4.755-1.436-9.708-2.53-14.71-2.194-2.905.195-4.893.737-7.722 1.353-1.27.446-2.57.814-3.808 1.34-8.13 3.449-14.97 9.842-21.445 15.671-6.402 5.961-12.583 12.166-19.283 17.8-4.246 3.569-4.65 3.752-9.011 6.927-1.386.854-2.728 1.784-4.158 2.563-3.316 1.805-7.139 3.399-11.004 3.21-3.006-.148-3.777-.827-6.464-2.073-1.004-.66-2.037-1.276-3.01-1.979-1.844-1.333-4.306-3.451-6.019-4.93-2.832-2.446-5.625-4.939-8.427-7.419a987.018 987.018 0 0 0-6.376-5.634l1.041-1.183c2.13 1.876 4.258 3.752 6.373 5.645 2.793 2.475 5.577 4.962 8.402 7.401 1.682 1.453 4.057 3.496 5.87 4.813.91.663 1.876 1.246 2.815 1.868 2.32 1.117 3.072 1.764 5.681 1.927 3.61.224 7.208-1.294 10.304-2.97 1.397-.755 2.708-1.66 4.062-2.49 4.308-3.13 4.71-3.31 8.91-6.836 6.697-5.624 12.87-11.826 19.264-17.784 6.655-5.995 13.59-12.472 21.96-16 1.298-.548 2.661-.929 3.992-1.393 2.994-.647 4.976-1.19 8.057-1.39 5.166-.332 10.28.784 15.19 2.271 6.667 2.17.635.193 7.332 2.429 3.243 1.082 6.569 2.35 10.014 2.607.993.073 1.991-.033 2.987-.05.967-.207 1.952-.347 2.901-.623 1.971-.573 4.104-1.568 5.927-2.478 3.397-1.695 6.684-3.614 9.871-5.674 1.688-1.112 4.775-3.178 6.527-4.21 2.004-1.18 4.118-2.337 6.363-3.009 2.564-.767 3.28-.59 5.876-.598.919.16 1.855.24 2.757.478 3.479.915 6.384 3.106 9.169 5.279l-.885 1.327z" style="opacity:1;fill:red;fill-opacity:1;stroke:none;stroke-width:.1;stroke-linecap:square;stroke-linejoin:miter;stroke-miterlimit:4;stroke-dasharray:none;stroke-opacity:1"/><circle cx="247.357" cy="-125.198" r="2.746" style="opacity:1;fill:none;fill-opacity:1;stroke:#ff000c;stroke-width:.95207393;stroke-linecap:square;stroke-linejoin:miter;stroke-miterlimit:4;stroke-dasharray:none;stroke-opacity:1"/><path d="M381.382-517.926c.695-2.359 1.413-4.71 2.155-7.055 1.789-5.542 3.832-10.997 5.973-16.411 2.075-5.076 4.255-10.136 6.998-14.894.449-.779.934-1.537 1.4-2.305 1.063-1.526 1.46-2.232 2.714-3.549.406-.427.826-.849 1.301-1.197.819-.6 1.735-1.028 2.782-.94.5.04.96.291 1.44.437.43.329.903.608 1.29.986.88.859 1.66 2.112 2.244 3.168 1.261 2.283 2.203 4.726 3.17 7.14 2.289 6.091 4.421 12.238 6.821 18.286 1.326 3.212 2.796 6.372 4.712 9.279.366.554.73 1.11 1.142 1.63.347.439.753.827 1.13 1.24.373.28.716.608 1.12.841 1.065.612 2.267.664 3.404.228 1.16-.444 1.77-1.004 2.782-1.74.527-.496 1.083-.962 1.581-1.486 1.281-1.348 2.492-2.94 3.556-4.452 2.208-3.136 4.125-6.455 6.06-9.763 3.91-6.815 7.59-13.76 11.552-20.547.818-1.401 1.658-2.79 2.488-4.185 3.105-5.117 6.358-10.15 9.914-14.967 1.946-2.635 2.584-3.369 4.607-5.868 2.512-2.961 5.17-5.86 8.361-8.11 1.754-1.236 2.049-1.286 3.93-2.194.65-.204 1.286-.46 1.95-.611a11.826 11.826 0 0 1 5.747.118c1.744.476 2.179.833 3.787 1.697 4.556 2.964 7.856 7.34 11.016 11.673l1.705 2.454-1.275.885-1.683-2.425c-3.025-4.144-6.172-8.345-10.51-11.21-1.426-.78-1.8-1.093-3.342-1.533-2.249-.642-4.542-.44-6.718.365-1.746.828-2.018.871-3.653 2.015-3.1 2.17-5.677 4.982-8.117 7.847-2 2.462-2.637 3.193-4.56 5.79-3.536 4.777-6.769 9.772-9.852 14.85-.826 1.389-1.662 2.77-2.476 4.166-3.964 6.79-7.644 13.74-11.55 20.562-1.959 3.36-3.9 6.73-6.139 9.917-1.113 1.584-2.385 3.258-3.73 4.666-.545.572-1.155 1.078-1.732 1.617-1.226.876-1.938 1.532-3.378 2.013a5.502 5.502 0 0 1-4.683-.522c-.481-.291-.886-.693-1.329-1.039-.416-.465-.862-.904-1.248-1.395-.427-.543-.805-1.124-1.184-1.702-1.958-2.99-3.467-6.234-4.824-9.533-2.395-6.048-4.528-12.192-6.824-18.278-.812-2.021-1.16-2.976-2.068-4.907-.781-1.662-1.627-3.392-2.894-4.752-.251-.27-.557-.484-.835-.726-.252-.117-.483-.295-.755-.352-.702-.145-1.307.126-1.873.53-1.526 1.087-2.698 2.889-3.744 4.393-.457.747-.931 1.484-1.37 2.243-2.719 4.696-4.873 9.697-6.921 14.713-2.125 5.381-4.15 10.804-5.915 16.315-.73 2.329-1.44 4.665-2.111 7.011l-1.539-.427z" style="opacity:1;fill:red;fill-opacity:1;stroke:none;stroke-width:1.5;stroke-linecap:square;stroke-linejoin:miter;stroke-miterlimit:4;stroke-dasharray:none;stroke-opacity:1"/><path d="M182.776-390.637c.14.56.162 1.162.42 1.678.062.125.32-.099.419 0 .221.221.246.579.42.839.11.164.31.255.419.42.173.26.246.578.42.838.64.96.332-.262.838 1.259.045.132-.044.287 0 .42.1.296.247.578.42.838.11.165.357.232.42.42.088.265 0 .56 0 .839v.42c0 .14-.063.294 0 .419.088.177.28.28.419.42 0 .279-.088.573 0 .838.063.188.31.255.42.42.173.26.32.542.419.839.21.629-.42.42 0 1.258.063.125.32-.099.42 0 .098.1 0 .28 0 .42v.839c0 .14-.063.294 0 .42.448.896.39-.059.838.838.063.125-.062.295 0 .42.089.176.331.242.42.42.125.25-.125.588 0 .838.224.449.615.39.839.84.062.124-.063.293 0 .419.088.176.33.242.42.419.062.125 0 .28 0 .42V-356.24c0 .28.088.574 0 .84-.063.187-.31.254-.42.419-.174.26-.199.618-.42.839-.22.22-.588.232-.839.42-.316.236-.485.661-.839.838-.25.125-.579-.104-.839 0-.468.187-.79.652-1.258.84-2.559 1.023 1.446-1.707-2.098.419-.339.203-.471.692-.838.839-.39.155-.848-.083-1.259 0-.307.06-.542.32-.839.42-.547.181-1.143.204-1.678.419-.184.073-.225.38-.42.42-.548.109-1.118 0-1.677 0h-7.132c-.915 0-1.688.132-2.517-.42-1.378-.92-1.13-1.357-2.097-2.517-.76-.912-1.757-1.606-2.517-2.517-.323-.388-.546-.849-.84-1.259-.405-.569-.87-1.096-1.258-1.678-.524-.787-1.14-2.925-1.258-3.356-.188-.688-.232-1.41-.42-2.097-.232-.853-.693-1.645-.838-2.517-.138-.828 0-1.678 0-2.517v-10.487c0-.42-.102-.852 0-1.259.182-.73.632-1.373.838-2.097.077-.27-.155-.607 0-.84.174-.26.666-.159.84-.419.155-.232-.156-.606 0-.839.173-.26.559-.28.838-.42.28-.139.618-.198.84-.419.356-.356.482-.902.838-1.258.329-.328 1.546-1.038 2.098-1.259.41-.164.848-.255 1.258-.42.29-.115.533-.357.84-.419.41-.082.85.102 1.258 0 .192-.048.232-.357.42-.42.265-.088.559 0 .838 0h.84c.14 0 .286.045.419 0l.839-.419c.14 0 .287.045.42 0 .296-.099.542-.32.838-.42.63-.209.42.42 1.259 0 .125-.062 0-.279 0-.419.14-.14.232-.357.42-.42.265-.087.559 0 .838 0h7.551z" style="fill:none;fill-rule:evenodd;stroke:#000;stroke-width:.80000001px;stroke-linecap:butt;stroke-linejoin:miter;stroke-opacity:1"/><path d="M224.131-142.161c-2.82-.068-5.6.545-8.29 1.503-1.368.608-2.77 1.145-4.105 1.824-8.65 4.402-16.03 10.892-23.548 16.918-5.037 4.226-10.033 8.518-15.217 12.563-3.108 2.425-6.495 4.966-9.86 7.042-1.54.951-3.16 1.769-4.74 2.653-4.164 1.773-4.763 2.268-9.12 3.216-5.908 1.286-11.967.895-17.923.2-2.889-.323-6.314-.749-9.218-.897-6.532-.334-13.049.35-19.313 2.278-4.868 1.645-5.336 1.7-10.117 3.74-6.743 2.876-13.21 6.347-19.883 9.376-1.52.646-3.02 1.339-4.558 1.94-3.763 1.472-7.67 2.648-11.662 3.163v1.587c4.17-.518 8.251-1.74 12.183-3.276 1.568-.613 3.099-1.32 4.648-1.98 6.683-3.033 13.158-6.514 19.913-9.394 4.71-2.008 5.183-2.066 9.975-3.681a53.891 53.891 0 0 1 14.2-2.29c4.575-.11 9.125.48 13.659.987 6.095.715 12.29 1.092 18.337-.21 4.518-.972 5.166-1.495 9.488-3.325 1.63-.91 3.3-1.75 4.89-2.73 3.427-2.11 6.87-4.694 10.033-7.163 5.206-4.062 10.221-8.372 15.279-12.614 7.432-5.953 14.77-12.413 23.326-16.749 1.289-.653 2.644-1.165 3.966-1.748 3.34-1.177 6.826-1.786 10.347-1.06 1.945.402 4.107 1.39 5.803 2.396.93.551 1.786 1.22 2.68 1.83 3.505 2.689 6.57 5.886 9.684 9.003l1.112-1.115c-3.185-3.184-6.32-6.45-9.912-9.187-.953-.645-1.864-1.355-2.856-1.936-1.904-1.115-4.19-2.13-6.368-2.558a16.717 16.717 0 0 0-2.832-.306zM289.885-227.083c-1.553-.048-2.448-.008-4.586.76-1.108.397-2.154.959-3.177 1.542-3.628 2.067-6.792 4.84-9.726 7.782-1.053 1.106-2.125 2.193-3.158 3.316-4.837 5.257-9.218 10.92-13.34 16.749-2.631 3.794-5.234 7.608-7.879 11.393l1.305.92c2.63-3.8 5.236-7.618 7.867-11.418 4.08-5.781 8.419-11.397 13.214-16.606 1.021-1.11 2.081-2.184 3.122-3.275 2.85-2.856 5.922-5.549 9.451-7.546.967-.547 1.957-1.073 3.005-1.442 2.503-.882 3.15-.628 5.708-.545.94.298 1.926.476 2.819.894 2.193 1.026 4.416 2.872 6.153 4.48 3.816 3.535 7.106 7.627 10.467 11.579 4.95 5.85 9.864 11.75 15.181 17.275 3.388 3.52 4.151 4.134 7.685 7.406 3.404 2.976 6.962 5.816 10.96 7.964 1.108.595 2.23 1.179 3.415 1.599 2.976 1.055 3.606.81 6.664.826 1.075-.275 2.19-.429 3.226-.825 3.522-1.345 6.533-3.913 9.41-6.26 8.624-7.04-2.392 1.801 6.282-5.132 1.52-1.106 3.116-2.161 4.793-3.04v-1.735c-2.029.99-3.955 2.224-5.77 3.552-8.517 6.807 2.079-1.7-6.284 5.13-2.706 2.21-5.541 4.65-8.834 5.963-.907.362-1.883.516-2.825.774-2.704.022-3.349.253-6-.675-1.134-.397-2.208-.953-3.269-1.519-3.91-2.088-7.383-4.863-10.71-7.766-3.493-3.23-4.255-3.843-7.604-7.32-5.303-5.507-10.203-11.389-15.137-17.223-3.416-4.02-6.758-8.189-10.647-11.774-1.922-1.772-4.265-3.697-6.694-4.784-1.03-.461-2.163-.643-3.244-.964-.734-.012-1.326-.039-1.843-.055z" style="opacity:1;fill:red;fill-opacity:1;stroke:none;stroke-width:1.5;stroke-linecap:square;stroke-linejoin:miter;stroke-miterlimit:4;stroke-dasharray:none;stroke-opacity:1"/><path d="M-72.425-132.436h227.621m-227.621 20.695h227.621M-72.425-91.05h227.621M-72.425-70.358h227.621M-72.425-49.663h227.621M-72.425-28.97h227.621M-72.425-8.276h227.621M-62.077-136.573V-2.069m20.691-134.504V-2.069m20.691-134.504V-2.069M.001-136.573V-2.069m20.691-134.504V-2.069m20.696-134.504V-2.069m20.69-134.504V-2.069M82.77-136.573V-2.069m20.696-134.504V-2.069m20.691-134.504V-2.069m20.695-134.504V-2.069" style="fill:none;stroke:#9e9ed1;stroke-width:.19925;stroke-linecap:butt;stroke-linejoin:miter;stroke-miterlimit:10;stroke-opacity:1" transform="matrix(1.58622 0 0 -1.58622 115.056 35.067)"/><path d="M-72.425-132.436h231.762M0-136.573V5.173" style="fill:none;stroke:#000;stroke-width:.3985;stroke-linecap:butt;stroke-linejoin:miter;stroke-miterlimit:10;stroke-opacity:1" transform="matrix(1.58622 0 0 -1.58622 115.056 35.067)"/><path d="M159.263-132.436h-.79" style="fill:none;stroke:#000;stroke-width:1.04607999;stroke-linecap:butt;stroke-linejoin:miter;stroke-miterlimit:10;stroke-opacity:1" transform="matrix(1.58622 0 0 -1.58622 115.056 35.067)"/><path d="M-1.777 2.37C-1.63 1.484 0 .148.445 0 0-.15-1.629-1.482-1.777-2.373" style="fill:none;stroke:#000;stroke-width:.83687001;stroke-linecap:round;stroke-linejoin:round;stroke-miterlimit:10;stroke-opacity:1" transform="matrix(1.58622 0 0 -1.58622 366.429 245.138)"/><path d="M0 5.099v-.79" style="fill:none;stroke:#000;stroke-width:1.04607999;stroke-linecap:butt;stroke-linejoin:miter;stroke-miterlimit:10;stroke-opacity:1" transform="matrix(1.58622 0 0 -1.58622 115.056 35.067)"/><path d="M-1.778 2.37C-1.63 1.484-.001.148.445 0-.001-.15-1.63-1.482-1.778-2.373" style="fill:none;stroke:#000;stroke-width:.83687001;stroke-linecap:round;stroke-linejoin:round;stroke-miterlimit:10;stroke-opacity:1" transform="matrix(0 -1.58622 -1.58622 0 115.056 28.23)"/><use xlink:href="#a" width="100%" height="100%" x="193.568" y="426.044" style="fill:#b0b0d9;fill-opacity:1" transform="matrix(1.58622 0 0 1.58622 -300.544 -409.621)"/><use xlink:href="#b" width="100%" height="100%" x="201.309" y="426.044" style="fill:#b0b0d9;fill-opacity:1" transform="matrix(1.58622 0 0 1.58622 -300.544 -409.621)"/><use xlink:href="#c" width="100%" height="100%" x="259.517" y="426.38" style="fill:#b0b0d9;fill-opacity:1" transform="matrix(1.58622 0 0 1.58622 -300.544 -409.621)"/><use xlink:href="#b" width="100%" height="100%" x="321.595" y="426.38" style="fill:#b0b0d9;fill-opacity:1" transform="matrix(1.58622 0 0 1.58622 -300.544 -409.621)"/><use xlink:href="#d" width="100%" height="100%" x="383.673" y="426.45" style="fill:#b0b0d9;fill-opacity:1" transform="matrix(1.58622 0 0 1.58622 -300.544 -409.621)"/><path d="M-9.726-74.495v8.278h7.242v-8.278zm0 0" style="fill:#fdfdfd;fill-opacity:1;fill-rule:nonzero;stroke:#fdfdfd;stroke-width:.3985;stroke-linecap:butt;stroke-linejoin:miter;stroke-miterlimit:10;stroke-opacity:1" transform="matrix(1.58622 0 0 -1.58622 115.056 35.067)"/><use xlink:href="#b" width="100%" height="100%" x="253.929" y="353.956" style="fill:#b0b0d9;fill-opacity:1" transform="matrix(1.58622 0 0 1.58622 -300.544 -409.621)"/><path d="M-9.726-12.417v8.278h7.242v-8.278zm0 0" style="fill:#fdfdfd;fill-opacity:1;fill-rule:nonzero;stroke:#fdfdfd;stroke-width:.3985;stroke-linecap:butt;stroke-linejoin:miter;stroke-miterlimit:10;stroke-opacity:1" transform="matrix(1.58622 0 0 -1.58622 115.056 35.067)"/><use xlink:href="#d" width="100%" height="100%" x="253.929" y="291.947" style="fill:#b0b0d9;fill-opacity:1" transform="matrix(1.58622 0 0 1.58622 -300.544 -409.621)"/><path d="M179.67 153.587c-2.241.047-4.481.456-6.726 1.153-1.548.659-3.144 1.213-4.644 1.975-3.115 1.583-6.73 4.08-9.495 6.16-5.445 4.094-10.476 8.701-15.378 13.42-10.87 10.664-21.203 21.914-32.83 31.773-4.265 3.182-6.405 5.033-11.08 7.543-6.976 3.745-14.652 5.602-22.56 5.525-1.834-.097-3.671-.13-5.5-.29-8.234-.714-16.326-3.03-24.649-2.648-3.553.295-5.67.375-9.194 1.056-6.102 1.18-11.844 3.593-17.378 6.36-2.835 1.405-5.657 2.838-8.503 4.222-3.799 1.846-7.666 3.718-11.733 4.923V236.401c4.31-1.219 8.396-3.194 12.408-5.144 2.854-1.387 5.683-2.825 8.527-4.234 5.43-2.712 11.06-5.09 17.048-6.239 3.41-.654 5.513-.735 8.955-1.017 8.213-.342 16.2 1.932 24.328 2.637 1.865.162 3.74.198 5.61.297 8.16.085 16.086-1.816 23.291-5.669 4.813-2.572 6.98-4.448 11.361-7.714 11.688-9.896 22.066-21.202 32.988-31.912 4.865-4.68 9.858-9.252 15.262-13.31 2.712-2.035 6.26-4.482 9.318-6.03 1.44-.728 2.974-1.252 4.46-1.879 4.185-1.277 8.327-1.477 12.508-.042 4.476 1.536 8.007 4.53 11.594 7.48 4.801 4.375 9.055 9.295 13.39 14.12l1.17-1.052c-4.39-4.882-8.697-9.86-13.563-14.282-3.787-3.105-7.51-6.224-12.245-7.804a19.801 19.801 0 0 0-6.74-1.02zM361.36 40.723c-.49.822-.986 1.641-1.47 2.467-5.869 10.008-11.713 20.034-17.165 30.278-3.138 6.03-4.192 7.943-7.173 14.122-4.662 9.661-8.857 19.539-12.85 29.492-1.839 4.584-3.656 9.176-5.51 13.754-2.155 5.323-4.235 10.787-7.053 15.81-.613 1.093-1.347 2.114-2.02 3.17-.701.765-1.953 2.535-3.258 2.77-3.19.572-6.23-5.263-7.453-7.243-.707-1.35-1.446-2.683-2.122-4.048-4.04-8.167-7.149-16.755-10.676-25.145-1.928-4.65-3.753-9.405-6.12-13.857-.861-1.622-2.39-4.394-4.013-5.567-.678-.49-1.56-.6-2.34-.9-.701.207-1.466.263-2.102.622-1.69.954-2.859 2.767-3.838 4.338-2.385 3.826-4.131 8.013-5.886 12.15-4.222 10.531-8.01 21.23-12.35 31.714-1.172 2.514-2.013 4.592-3.517 6.89-.444.678-1.69 2.465-2.764 2.733-1.422.355-2.341-.745-3.358-1.46-.693-.743-1.418-1.458-2.08-2.229-4.594-5.352-8.035-11.59-11.375-17.763-2.933-5.649-5.787-11.342-8.939-16.875l-1.38.8c3.154 5.503 5.998 11.176 8.923 16.802 3.386 6.264 6.886 12.584 11.537 18.022.687.803 1.438 1.548 2.156 2.322 1.336.969 2.408 2.193 4.266 1.951 3.963-.514 6.563-7.534 7.96-10.528 4.346-10.512 8.139-21.24 12.376-31.797 1.731-4.071 3.45-8.196 5.806-11.959.883-1.41 1.92-3.072 3.478-3.892.447-.235.989-.201 1.483-.302.422.266.906.454 1.267.799 2.36 2.249 3.932 6.03 5.247 8.906 1.42 3.105 2.808 6.533 4.114 9.68 3.537 8.412 6.658 17.021 10.703 25.212.685 1.387 1.433 2.74 2.15 4.111 1.539 2.572 4.718 8.393 8.52 8.067 2.354-.202 3.197-1.686 4.727-3.23.735-1.137 1.537-2.234 2.205-3.412 2.883-5.09 4.985-10.663 7.172-16.07 1.852-4.583 3.67-9.18 5.51-13.767 3.98-9.927 8.16-19.776 12.81-29.41 2.97-6.155 4.019-8.059 7.147-14.065 5.443-10.219 11.28-20.218 17.144-30.199l.11-.186c.012-.385 0-.77 0-1.155v-1.923z" style="opacity:1;fill:red;fill-opacity:1;stroke:none;stroke-width:1.5;stroke-linecap:square;stroke-linejoin:miter;stroke-miterlimit:4;stroke-dasharray:none;stroke-opacity:1"/><circle cx="213.549" cy="179.419" r="3.053" style="opacity:1;fill:none;fill-opacity:1;stroke:#ff000c;stroke-width:1.05850935;stroke-linecap:square;stroke-linejoin:miter;stroke-miterlimit:4;stroke-dasharray:none;stroke-opacity:1"/><circle cx="213.51" cy="113.821" r="3.596" style="opacity:1;fill:red;fill-opacity:1;stroke:none;stroke-width:.1;stroke-linecap:square;stroke-linejoin:miter;stroke-miterlimit:4;stroke-dasharray:none;stroke-opacity:1"/><use xlink:href="#e" width="100%" height="100%" x="193.624" y="156.682" style="fill:#000;fill-opacity:1" transform="translate(-540.056 -53.585)"/><use xlink:href="#f" width="100%" height="100%" x="217.773" y="156.682" style="fill:#000;fill-opacity:1" transform="translate(-429.45 -358.51) scale(2.21953)"/><use xlink:href="#g" width="100%" height="100%" x="242.152" y="156.682" style="fill:#000;fill-opacity:1" transform="translate(-427.91 -336.056) scale(2.21953)"/><use xlink:href="#h" width="100%" height="100%" x="266.251" y="156.682" style="fill:#000;fill-opacity:1" transform="translate(-540.056 -53.585)"/><use xlink:href="#i" width="100%" height="100%" x="289.624" y="156.682" style="fill:#000;fill-opacity:1" transform="translate(-540.056 -53.585)"/><use xlink:href="#j" width="100%" height="100%" x="314.53" y="156.682" style="fill:#000;fill-opacity:1" transform="translate(-540.056 -53.585)"/><use xlink:href="#k" width="100%" height="100%" x="339.437" y="156.682" style="fill:#000;fill-opacity:1" transform="translate(-540.056 -53.585)"/><use xlink:href="#l" width="100%" height="100%" x="365.449" y="156.682" style="fill:#000;fill-opacity:1" transform="translate(-540.056 -53.585)"/><use xlink:href="#m" width="100%" height="100%" x="391.462" y="156.682" style="fill:#000;fill-opacity:1" transform="translate(-540.056 -53.585)"/><use xlink:href="#n" width="100%" height="100%" x="415.252" y="156.682" style="fill:#000;fill-opacity:1" transform="translate(-540.056 -53.585)"/><use xlink:href="#f" width="100%" height="100%" x="217.773" y="156.682" style="fill:#000;fill-opacity:1" transform="translate(-102.666 -98.264) scale(2.21953)"/></svg>