<svg xmlns="http://www.w3.org/2000/svg" xmlns:xlink="http://www.w3.org/1999/xlink" width="293.573" height="277.728" viewBox="0 0 220.18 208.296"><defs><symbol id="a" overflow="visible" style="overflow:visible"><path d="M6.563-2.297c.171 0 .359 0 .359-.203 0-.188-.188-.188-.36-.188h-5.39c-.172 0-.344 0-.344.188 0 .203.172.203.344.203zm0 0" style="stroke:none"/></symbol><symbol id="b" overflow="visible" style="overflow:visible"><path d="M1.531-3.297c.578 0 .813.031 1.047.11.625.234 1.016.796 1.016 1.484 0 .828-.578 1.484-1.313 1.484-.265 0-.469-.078-.828-.312-.312-.172-.469-.25-.64-.25-.235 0-.391.14-.391.36 0 .343.437.562 1.14.562.766 0 1.547-.266 2.016-.672.469-.406.735-.985.735-1.656 0-.5-.172-.97-.454-1.282-.203-.219-.39-.344-.828-.531.688-.469.938-.828.938-1.375 0-.813-.64-1.36-1.563-1.36-.5 0-.937.173-1.297.485-.296.266-.437.531-.656 1.125l.14.047c.407-.734.86-1.063 1.485-1.063.656 0 1.11.438 1.11 1.063a1.4 1.4 0 0 1-.407.969c-.297.296-.578.453-1.25.687zm0 0" style="stroke:none"/></symbol><symbol id="c" overflow="visible" style="overflow:visible"><path d="M.344-3.953h.906L.375.234C.156 1.313-.172 1.86-.594 1.86c-.125 0-.203-.078-.203-.171 0-.016.016-.047.047-.11a.264.264 0 0 0 .047-.156c0-.203-.188-.375-.39-.375-.22 0-.376.172-.376.406 0 .344.36.61.797.61.875 0 1.578-.985 1.985-2.813l.718-3.203h1.094l.063-.313H2.109c.282-1.562.657-2.28 1.204-2.28.14 0 .218.062.218.124 0 .031 0 .047-.031.11a.344.344 0 0 0-.063.203c0 .234.157.39.376.39.218 0 .421-.172.421-.39 0-.375-.375-.657-.859-.657-.5 0-.875.22-1.234.688-.313.39-.5.86-.813 1.812H.422zm0 0" style="stroke:none"/></symbol><symbol id="d" overflow="visible" style="overflow:visible"><path d="M4-1.11c-.078.094-.125.157-.219.266-.219.313-.344.406-.453.406-.14 0-.234-.124-.312-.406-.016-.078-.032-.14-.032-.172-.25-1.015-.359-1.468-.359-1.609.438-.781.797-1.219.969-1.219.062 0 .14.031.25.078.11.079.187.094.265.094.204 0 .344-.14.344-.36 0-.202-.172-.359-.406-.359-.438 0-.813.36-1.5 1.422l-.11-.547c-.14-.687-.25-.875-.53-.875-.22 0-.548.079-1.157.282l-.11.046.032.141c.39-.078.469-.11.562-.11.25 0 .313.095.454.688l.28 1.235-.812 1.156C.953-.641.75-.47.641-.47a.554.554 0 0 1-.25-.094.755.755 0 0 0-.329-.093c-.187 0-.328.14-.328.344 0 .265.204.421.5.421.297 0 .422-.093.922-.703.266-.312.485-.578.89-1.156L2.36-.562c.125.515.25.671.579.671.374 0 .624-.234 1.203-1.14zm0 0" style="stroke:none"/></symbol><symbol id="e" overflow="visible" style="overflow:visible"><path d="M.156-3.984c.125-.032.188-.047.297-.047.578 0 .719.25 1.188 1.968.156.641.406 1.813.406 1.985 0 .156-.063.312-.219.5-.297.406-.5.672-.61.781C1 1.422.892 1.5.75 1.5c-.047 0-.125-.031-.234-.11-.141-.109-.25-.171-.36-.171a.387.387 0 0 0-.39.39c0 .25.218.438.5.438.64 0 1.953-1.485 3.03-3.469.673-1.219.954-1.937.954-2.422a.554.554 0 0 0-.547-.547c-.234 0-.39.141-.39.36 0 .156.078.265.28.39.188.11.25.204.25.344 0 .39-.359 1.172-1.218 2.578l-.188-1.156c-.156-.875-.718-2.516-.859-2.516h-.125l-.984.172a1.759 1.759 0 0 1-.313.063zm0 0" style="stroke:none"/></symbol><symbol id="f" overflow="visible" style="overflow:visible"><path d="M2.953-4.266h-.797l.281-1.03v-.048c0-.062-.03-.093-.078-.093-.062 0-.093 0-.14.078-.39.515-1.016 1.015-1.328 1.109-.25.078-.329.14-.329.25 0 0 0 .016.016.047h.735l-.72 2.75c-.015.094-.03.11-.062.203-.078.297-.156.656-.156.734 0 .22.203.375.469.375.469 0 .797-.28 1.422-1.203l-.125-.078c-.5.64-.657.797-.813.797-.094 0-.156-.078-.156-.203 0-.016 0-.016.016-.047l.875-3.328h.843zm0 0" style="stroke:none"/></symbol><symbol id="g" overflow="visible" style="overflow:visible"><path d="M4.625-1.094c-.156.14-.203.203-.281.282-.297.296-.422.406-.516.406-.078 0-.14-.063-.14-.125 0-.203.421-1.906.89-3.625.031-.094.031-.125.063-.203l-.079-.032-.609.063-.031.031-.11.484c-.078-.374-.359-.578-.796-.578C1.703-4.39.172-2.578.172-1 .172-.297.547.11 1.188.11c.703 0 1.125-.329 2-1.563-.204.781-.235.906-.235 1.14 0 .297.125.407.406.407C3.766.094 4-.094 4.75-1ZM3.078-4.172c.344.016.563.25.563.61 0 .828-.5 2-1.188 2.75-.234.265-.578.437-.875.437-.344 0-.578-.297-.578-.75 0-.547.39-1.563.813-2.188.406-.578.875-.89 1.265-.859Zm0 0" style="stroke:none"/></symbol><symbol id="h" overflow="visible" style="overflow:visible"><path d="M1.094-6.406c.593.015.656.047.656.265 0 .094-.031.204-.094.422-.015.078-.047.14-.047.203l-.03.063-1.345 5v.031c0 .234.766.531 1.329.531 1.5 0 3.156-1.75 3.156-3.312 0-.688-.485-1.188-1.157-1.188-.703 0-1.218.407-1.921 1.5.515-1.89.578-2.156 1.03-3.875l-.046-.046c-.5.093-.86.156-1.531.234zm2.078 2.5c.422 0 .703.328.703.86 0 .655-.516 1.718-1.11 2.343-.359.375-.796.578-1.218.578-.313 0-.453-.11-.453-.328 0-.61.297-1.578.703-2.313.453-.765.89-1.14 1.375-1.14Zm0 0" style="stroke:none"/></symbol><symbol id="i" overflow="visible" style="overflow:visible"><path d="M5.625-.156c-.578-.047-.625-.14-.766-.86l-.937-5.64h-.25L.782-1.672C-.017-.344-.11-.234-.517-.156V0H1.36v-.156C.844-.203.766-.266.766-.516c0-.187.03-.265.203-.609L1.53-2.25h2.203l.188 1.297c.015.094.031.187.031.265 0 .375-.14.47-.781.532V0h2.453ZM1.75-2.61l1.484-2.594.438 2.594zm0 0" style="stroke:none"/></symbol><symbol id="j" overflow="visible" style="overflow:visible"><path d="M-.078 0h2.812c1.563 0 2.641-.813 2.641-2 0-.36-.125-.719-.344-.938-.203-.218-.39-.343-.922-.562.72-.172 1-.281 1.329-.563.28-.25.421-.578.421-.984 0-.937-.703-1.469-1.984-1.469H1.297v.172c.61.047.766.125.766.407 0 .14-.032.39-.11.64L.734-.89c-.187.579-.25.625-.812.735zm2.453-3.297c.64 0 1.063.031 1.266.11.406.171.656.609.656 1.156 0 1.078-.734 1.734-1.953 1.734-.422 0-.64-.156-.64-.422 0-.125.124-.594.343-1.39.14-.454.203-.688.328-1.188Zm.75-2.64c.063-.22.172-.266.563-.266.796 0 1.171.328 1.171 1.062 0 .579-.25 1.016-.671 1.25-.344.204-.813.266-1.72.266Zm0 0" style="stroke:none"/></symbol><symbol id="k" overflow="visible" style="overflow:visible"><path d="M3.297 2.39c0-.03 0-.046-.172-.218C1.891.922 1.562-.968 1.562-2.5c0-1.734.375-3.469 1.61-4.703.125-.125.125-.14.125-.172 0-.078-.031-.11-.094-.11-.11 0-1 .688-1.594 1.954C1.11-4.438.984-3.328.984-2.5c0 .781.11 1.984.657 3.125C2.25 1.844 3.094 2.5 3.203 2.5c.063 0 .094-.031.094-.11zm0 0" style="stroke:none"/></symbol><symbol id="l" overflow="visible" style="overflow:visible"><path d="M2.875-2.5c0-.766-.11-1.969-.656-3.11C1.625-6.827.766-7.483.672-7.483a.107.107 0 0 0-.11.109c0 .031 0 .047.188.234.984.985 1.547 2.563 1.547 4.641 0 1.719-.36 3.469-1.594 4.719-.14.125-.14.14-.14.172 0 .062.046.109.109.109.094 0 1-.688 1.578-1.953.516-1.094.625-2.203.625-3.047Zm0 0" style="stroke:none"/></symbol></defs><path d="M-93.12-82.771H93.12M-93.12-62.08H93.12M-93.12-41.385H93.12M-93.12-20.693H93.12M-93.12-.002H93.12M-93.12 20.694H93.12M-93.12 41.385H93.12M-93.12 62.08H93.12M-93.12 82.772H93.12m-175.89-175.89V93.118m20.69-186.238V93.12m20.696-186.238V93.12m20.691-186.238V93.12M.002-93.119V93.12m20.69-186.238V93.12M41.385-93.119V93.12M62.08-93.119V93.12M82.77-93.119V93.12" style="fill:none;stroke:#9e9ed1;stroke-width:.19925;stroke-linecap:butt;stroke-linejoin:miter;stroke-miterlimit:10;stroke-opacity:1" transform="matrix(1 0 0 -1 110.12 115.177)"/><path d="M-93.12-.002H97.255M.002-93.119V99.326" style="fill:none;stroke:#000;stroke-width:.3985;stroke-linecap:butt;stroke-linejoin:miter;stroke-miterlimit:10;stroke-opacity:1" transform="matrix(1 0 0 -1 110.12 115.177)"/><path d="M97.185-.002h-.789" style="fill:none;stroke:#000;stroke-width:1.04607999;stroke-linecap:butt;stroke-linejoin:miter;stroke-miterlimit:10;stroke-opacity:1" transform="matrix(1 0 0 -1 110.12 115.177)"/><path d="M-1.78 2.37C-1.63 1.482.003.146.444-.003c-.441-.144-2.074-1.48-2.222-2.37" style="fill:none;stroke:#000;stroke-width:.83687001;stroke-linecap:round;stroke-linejoin:round;stroke-miterlimit:10;stroke-opacity:1" transform="matrix(1 0 0 -1 206.514 115.177)"/><path d="M.002 99.252v-.789" style="fill:none;stroke:#000;stroke-width:1.04607999;stroke-linecap:butt;stroke-linejoin:miter;stroke-miterlimit:10;stroke-opacity:1" transform="matrix(1 0 0 -1 110.12 115.177)"/><path d="M-1.778 2.37C-1.63 1.483-.001.147.445-.002c-.446-.148-2.075-1.48-2.223-2.37" style="fill:none;stroke:#000;stroke-width:.83687001;stroke-linecap:round;stroke-linejoin:round;stroke-miterlimit:10;stroke-opacity:1" transform="matrix(0 -1 -1 0 110.12 16.714)"/><path d="M82.978-.002c0 45.832-37.148 82.98-82.976 82.98-45.833 0-82.98-37.148-82.98-82.98 0-45.828 37.147-82.976 82.98-82.976 45.828 0 82.976 37.148 82.976 82.976zm0 0" style="fill:none;stroke:red;stroke-width:.79701;stroke-linecap:butt;stroke-linejoin:miter;stroke-miterlimit:10;stroke-opacity:1" transform="matrix(1 0 0 -1 110.12 115.177)"/><path d="M-68.288-13.451v10.348h12.418v-10.348zm0 0" style="fill:#fdfdfd;fill-opacity:1;fill-rule:nonzero;stroke:#fdfdfd;stroke-width:.3985;stroke-linecap:butt;stroke-linejoin:miter;stroke-miterlimit:10;stroke-opacity:1" transform="matrix(1 0 0 -1 110.12 115.177)"/><use xlink:href="#a" width="100%" height="100%" x="234.953" y="329.163" style="fill:#b0b0d9;fill-opacity:1" transform="translate(-193.273 -202.79)"/><use xlink:href="#b" width="100%" height="100%" x="242.694" y="329.163" style="fill:#b0b0d9;fill-opacity:1" transform="translate(-193.273 -202.79)"/><path d="M55.873-13.451v10.348h12.414v-10.348zm0 0" style="fill:#fdfdfd;fill-opacity:1;fill-rule:nonzero;stroke:#fdfdfd;stroke-width:.3985;stroke-linecap:butt;stroke-linejoin:miter;stroke-miterlimit:10;stroke-opacity:1" transform="matrix(1 0 0 -1 110.12 115.177)"/><use xlink:href="#b" width="100%" height="100%" x="362.98" y="329.5" style="fill:#b0b0d9;fill-opacity:1" transform="translate(-193.273 -202.79)"/><path d="M-9.725 57.94v8.277h7.242V57.94zm0 0" style="fill:#fdfdfd;fill-opacity:1;fill-rule:nonzero;stroke:#fdfdfd;stroke-width:.3985;stroke-linecap:butt;stroke-linejoin:miter;stroke-miterlimit:10;stroke-opacity:1" transform="matrix(1 0 0 -1 110.12 115.177)"/><use xlink:href="#b" width="100%" height="100%" x="295.315" y="259.144" style="fill:#b0b0d9;fill-opacity:1" transform="translate(-193.273 -202.79)"/><path d="M-16.553-67.252v8.278H-2.07v-8.278zm0 0" style="fill:#fdfdfd;fill-opacity:1;fill-rule:nonzero;stroke:#fdfdfd;stroke-width:.3985;stroke-linecap:butt;stroke-linejoin:miter;stroke-miterlimit:10;stroke-opacity:1" transform="matrix(1 0 0 -1 110.12 115.177)"/><use xlink:href="#a" width="100%" height="100%" x="287.72" y="383.999" style="fill:#b0b0d9;fill-opacity:1" transform="translate(-193.273 -202.79)"/><use xlink:href="#b" width="100%" height="100%" x="295.461" y="383.999" style="fill:#b0b0d9;fill-opacity:1" transform="translate(-193.273 -202.79)"/><use xlink:href="#c" width="100%" height="100%" x="193.624" y="156.682" style="fill:#000;fill-opacity:1" transform="translate(-170.05 -167.129)"/><use xlink:href="#d" width="100%" height="100%" x="217.773" y="156.682" style="fill:#000;fill-opacity:1" transform="translate(-217.477 -213.005) scale(1.32851)"/><use xlink:href="#e" width="100%" height="100%" x="242.152" y="156.682" style="fill:#000;fill-opacity:1" transform="translate(-214.214 -200.32) scale(1.32851)"/><use xlink:href="#f" width="100%" height="100%" x="266.251" y="156.682" style="fill:#000;fill-opacity:1" transform="translate(-170.05 -167.129)"/><use xlink:href="#g" width="100%" height="100%" x="289.624" y="156.682" style="fill:#000;fill-opacity:1" transform="translate(-170.05 -167.129)"/><use xlink:href="#h" width="100%" height="100%" x="314.53" y="156.682" style="fill:#000;fill-opacity:1" transform="translate(-170.05 -167.129)"/><use xlink:href="#i" width="100%" height="100%" x="339.437" y="156.682" style="fill:#000;fill-opacity:1" transform="translate(-170.05 -167.129)"/><use xlink:href="#j" width="100%" height="100%" x="365.449" y="156.682" style="fill:#000;fill-opacity:1" transform="translate(-170.05 -167.129)"/><use xlink:href="#k" width="100%" height="100%" x="391.462" y="156.682" style="fill:#000;fill-opacity:1" transform="translate(-170.05 -167.129)"/><use xlink:href="#l" width="100%" height="100%" x="415.252" y="156.682" style="fill:#000;fill-opacity:1" transform="translate(-170.05 -167.129)"/><use xlink:href="#d" width="100%" height="100%" x="217.773" y="156.682" style="fill:#000;fill-opacity:1" transform="translate(-75.05 -90.363) scale(1.32851)"/><path d="M40.35 166.077c-.016.12-.036.239-.048.359-.033.313-.083 1.047-.103 1.323-.061.876-.12 1.752-.182 2.629-.048.69-.096 1.379-.148 2.068l-.553-.18c.06-.688.107-1.376.158-2.064.062-.876.12-1.753.18-2.63.022-.314.066-.992.1-1.335.013-.122.032-.243.048-.365l.548.195z" style="opacity:1;fill:#000;fill-opacity:1;stroke:none;stroke-width:1.5;stroke-linecap:square;stroke-linejoin:miter;stroke-miterlimit:4;stroke-dasharray:none;stroke-opacity:1"/><path d="M42.131 169.816a52.774 52.774 0 0 0-4.196-.893c-.305-.047-.606-.107-.914-.103l-.419-.404c.065-.009.129-.027.194-.026.119.002.696.092.759.101a79.19 79.19 0 0 1 4.216.87l.36.456zM42.983 169.14c.413.137 1.096.29 1.264.723.022.057.023.12.034.18-.02.066-.028.137-.059.199-.186.374-.68.45-1.045.524.008.01-.383.051-.363.094.008.017.04-.014.058-.005.042.022.071.062.106.094l.165.15c.227.198.458.393.692.582.182.147.326.262.473.444l.06.123-.578-.07-.063-.088c-.358-.37-.801-.648-1.165-1.013-.078-.085-.231-.221-.26-.35-.061-.283.243-.331.443-.349.26-.048.787-.103.937-.354.018-.03.02-.067.03-.101-.047-.12-.036-.13-.143-.223-.044-.038-.199-.106-.142-.098.106.015.2.077.297.12.117.053-.458-.18-.36-.143l-.381-.44zM42.862 173.106c.643.438 1.206.978 1.744 1.535l.191.208-.58-.03-.19-.204c-.536-.545-1.096-1.077-1.747-1.487l.582-.022z" style="opacity:1;fill:#000;fill-opacity:1;stroke:none;stroke-width:1.5;stroke-linecap:square;stroke-linejoin:miter;stroke-miterlimit:4;stroke-dasharray:none;stroke-opacity:1"/><path d="M44.942 173.49a8.955 8.955 0 0 0-1.51 1.372c-.165.223-.097.116-.21.315l-.522-.255c.126-.223.051-.106.23-.348a9.335 9.335 0 0 1 1.528-1.407l.484.323zM47 175.12c-.749.238-1.661.617-2.076 1.33-.077.132-.107.286-.16.43.006.145-.023.296.02.434.144.468.714.834 1.168.926.048.009.07-.078.119-.086.183-.028.37-.013.557-.019.355-.08.746-.18.99-.476.023-.028.063-.076.037-.1-.025-.023-.108.03-.085.054.107.11.255.168.383.251-.063.058-.134.108-.189.174-.388.468-.658 1.048-.934 1.582-.776 1.5.002.034-.808 1.55-.327.57-.663 1.176-1.17 1.613-.148.128-.409.297-.63.226-.315-.102-.596-.288-.894-.431a12.365 12.365 0 0 1-1.562-1.62c-.146-.183-.575-.765-.695-1.016-.05-.105-.065-.224-.098-.336l.569.11c.034.097.054.2.102.29.14.267.524.78.693.987.467.57.983 1.109 1.568 1.56-.028.013-.515.222.18.085a.658.658 0 0 0 .272-.15c.124-.1.232-.218.335-.339.42-.493.47-.641.815-1.226.752-1.408.085-.146.806-1.549.285-.554.564-1.145.955-1.636.066-.083.148-.15.222-.226.22.039.455.033.663.117.118.047-.02.308-.04.333-.258.338-.683.47-1.074.575-.196.016-.394.079-.59.05-.366-.057-.721-.18-1.07-.304-.52-.185-1.024-.56-1.15-1.13-.035-.163.003-.334.005-.5.062-.161.1-.334.186-.483.431-.744 1.35-1.166 2.134-1.421l.445.372zM49.28 176.62c.439.095.826.29 1.207.534.118.077.259.274.287.415.016.084-.007.17-.01.255-.05.083-.084.177-.15.248-.34.368-.933.413-1.389.54-.039.019-.082.029-.117.055-.034.025.084.02.123.039.062.03.112.083.17.121.147.099.261.162.416.252.256.153.494.332.735.506.12.088.254.163.361.267a45.94 45.94 0 0 0-.02.124l-.552-.191-.011.061c-.362-.252-.713-.52-1.093-.745-.198-.123-.866-.462-.597-.78.035-.041.093-.054.14-.081.07-.023.137-.05.208-.068.366-.09.807-.108 1.11-.365.047-.04.073-.1.109-.15-.01-.178.017-.18-.118-.33-.053-.06-.226-.09-.182-.158.044-.07.26.152.237.073-.013-.047-.435-.173-.478-.187l-.386-.435zM51.406 180.387c.675.394 1.274.892 1.868 1.395l.113.122-.581-.023-.113-.106c-.59-.497-1.191-.983-1.868-1.358l.58-.03zM50.588 181.207c.64.423 1.284.85 1.85 1.37.104.113.073.052.11.174l-.579-.082c-.058-.05-.02-.016-.112-.105-.575-.503-1.214-.925-1.85-1.347l.581-.01zM55.64 181.737c-.535.853-1.055 1.714-1.57 2.579-.314.512-.638 1.019-.961 1.526-.139.216-.27.438-.426.642-.2.202-.07.086-.485-.295l.438.385c-.749-.513-.668-.244-.462-.37.159-.194.286-.414.421-.624.325-.504.649-1.009.961-1.52a149.24 149.24 0 0 1 1.564-2.583l.52.26zM59.087 184.288c-.096-.008-.192-.022-.289-.023a7.193 7.193 0 0 0-2.241.34c-.22.073-.431.174-.647.26-.196.122-.405.225-.588.366-.475.366-.856.87-.803 1.503.04.478.237.687.48 1.081.395.393.464.513.94.794.148.087.302.172.468.221.036.01-.094-.087-.058-.098.383.023.212.053.518-.057.048-.057.107-.107.142-.173a.946.946 0 0 0-.071-.974c-.25-.349-.689-.636-1.017-.886-.202-.127-.4-.263-.607-.383-.17-.099-.35-.183-.526-.273l.077.043-.347-.462c.686.314 1.372.614 1.975 1.076.392.318.75.546 1.014.987a1.2 1.2 0 0 1 .01 1.153c-.05.091-.127.165-.191.248-.088.044-.168.11-.264.133-.407.096-.917-.169-1.23-.298-.567-.234-1.02-.653-1.403-1.12-.25-.457-.433-.66-.454-1.199-.027-.685.363-1.237.878-1.645.188-.15.404-.26.607-.391.22-.093.435-.2.661-.28.823-.287 1.714-.387 2.581-.38l.385.436z" style="opacity:1;fill:#000;fill-opacity:1;stroke:none;stroke-width:1.5;stroke-linecap:square;stroke-linejoin:miter;stroke-miterlimit:4;stroke-dasharray:none;stroke-opacity:1"/></svg>