<svg xmlns="http://www.w3.org/2000/svg" xmlns:xlink="http://www.w3.org/1999/xlink" width="315.348" height="194.257" viewBox="0 0 236.511 145.692"><defs><symbol id="a" overflow="visible" style="overflow:visible"><path d="M6.563-2.297c.171 0 .359 0 .359-.203 0-.188-.188-.188-.36-.188h-5.39c-.172 0-.344 0-.344.188 0 .203.172.203.344.203zm0 0" style="stroke:none"/></symbol><symbol id="b" overflow="visible" style="overflow:visible"><path d="m2.906-6.734-1.797.906v.14c.11-.046.22-.093.266-.109a1.24 1.24 0 0 1 .453-.11c.203 0 .297.141.297.47v4.515c0 .328-.078.547-.234.64-.157.094-.297.126-.72.126V0h2.75v-.156c-.78 0-.937-.11-.937-.578V-6.72zm0 0" style="stroke:none"/></symbol><symbol id="c" overflow="visible" style="overflow:visible"><path d="M2.531-6.734c-.547 0-.969.171-1.328.515-.578.563-.969 1.703-.969 2.875 0 1.078.329 2.25.797 2.813A1.87 1.87 0 0 0 2.5.14c.5 0 .922-.172 1.281-.516.578-.547.969-1.703.969-2.922 0-2.031-.906-3.437-2.219-3.437zm-.031.25c.844 0 1.281 1.125 1.281 3.218 0 2.079-.437 3.141-1.281 3.141-.86 0-1.297-1.063-1.297-3.14 0-2.11.438-3.22 1.297-3.22zm0 0" style="stroke:none"/></symbol><symbol id="d" overflow="visible" style="overflow:visible"><path d="M.344-3.953h.906L.375.234C.156 1.313-.172 1.86-.594 1.86c-.125 0-.203-.078-.203-.171 0-.016.016-.047.047-.11a.264.264 0 0 0 .047-.156c0-.203-.188-.375-.39-.375-.22 0-.376.172-.376.406 0 .344.36.61.797.61.875 0 1.578-.985 1.985-2.813l.718-3.203h1.094l.063-.313H2.109c.282-1.562.657-2.28 1.204-2.28.14 0 .218.062.218.124 0 .031 0 .047-.031.11a.344.344 0 0 0-.063.203c0 .234.157.39.376.39.218 0 .421-.172.421-.39 0-.375-.375-.657-.859-.657-.5 0-.875.22-1.234.688-.313.39-.5.86-.813 1.812H.422zm0 0" style="stroke:none"/></symbol><symbol id="e" overflow="visible" style="overflow:visible"><path d="M4-1.11c-.078.094-.125.157-.219.266-.219.313-.344.406-.453.406-.14 0-.234-.124-.312-.406-.016-.078-.032-.14-.032-.172-.25-1.015-.359-1.468-.359-1.609.438-.781.797-1.219.969-1.219.062 0 .14.031.25.078.11.079.187.094.265.094.204 0 .344-.14.344-.36 0-.202-.172-.359-.406-.359-.438 0-.813.36-1.5 1.422l-.11-.547c-.14-.687-.25-.875-.53-.875-.22 0-.548.079-1.157.282l-.11.046.032.141c.39-.078.469-.11.562-.11.25 0 .313.095.454.688l.28 1.235-.812 1.156C.953-.641.75-.47.641-.47a.554.554 0 0 1-.25-.094.755.755 0 0 0-.329-.093c-.187 0-.328.14-.328.344 0 .265.204.421.5.421.297 0 .422-.093.922-.703.266-.312.485-.578.89-1.156L2.36-.562c.125.515.25.671.579.671.374 0 .624-.234 1.203-1.14zm0 0" style="stroke:none"/></symbol><symbol id="f" overflow="visible" style="overflow:visible"><path d="M.156-3.984c.125-.032.188-.047.297-.047.578 0 .719.25 1.188 1.968.156.641.406 1.813.406 1.985 0 .156-.063.312-.219.5-.297.406-.5.672-.61.781C1 1.422.892 1.5.75 1.5c-.047 0-.125-.031-.234-.11-.141-.109-.25-.171-.36-.171a.387.387 0 0 0-.39.39c0 .25.218.438.5.438.64 0 1.953-1.485 3.03-3.469.673-1.219.954-1.937.954-2.422a.554.554 0 0 0-.547-.547c-.234 0-.39.141-.39.36 0 .156.078.265.28.39.188.11.25.204.25.344 0 .39-.359 1.172-1.218 2.578l-.188-1.156c-.156-.875-.718-2.516-.859-2.516h-.125l-.984.172a1.759 1.759 0 0 1-.313.063zm0 0" style="stroke:none"/></symbol><symbol id="g" overflow="visible" style="overflow:visible"><path d="M2.953-4.266h-.797l.281-1.03v-.048c0-.062-.03-.093-.078-.093-.062 0-.093 0-.14.078-.39.515-1.016 1.015-1.328 1.109-.25.078-.329.14-.329.25 0 0 0 .016.016.047h.735l-.72 2.75c-.015.094-.03.11-.062.203-.078.297-.156.656-.156.734 0 .22.203.375.469.375.469 0 .797-.28 1.422-1.203l-.125-.078c-.5.64-.657.797-.813.797-.094 0-.156-.078-.156-.203 0-.016 0-.016.016-.047l.875-3.328h.843zm0 0" style="stroke:none"/></symbol><symbol id="h" overflow="visible" style="overflow:visible"><path d="M4.625-1.094c-.156.14-.203.203-.281.282-.297.296-.422.406-.516.406-.078 0-.14-.063-.14-.125 0-.203.421-1.906.89-3.625.031-.094.031-.125.063-.203l-.079-.032-.609.063-.031.031-.11.484c-.078-.374-.359-.578-.796-.578C1.703-4.39.172-2.578.172-1 .172-.297.547.11 1.188.11c.703 0 1.125-.329 2-1.563-.204.781-.235.906-.235 1.14 0 .297.125.407.406.407C3.766.094 4-.094 4.75-1ZM3.078-4.172c.344.016.563.25.563.61 0 .828-.5 2-1.188 2.75-.234.265-.578.437-.875.437-.344 0-.578-.297-.578-.75 0-.547.39-1.563.813-2.188.406-.578.875-.89 1.265-.859Zm0 0" style="stroke:none"/></symbol><symbol id="i" overflow="visible" style="overflow:visible"><path d="M1.094-6.406c.593.015.656.047.656.265 0 .094-.031.204-.094.422-.015.078-.047.14-.047.203l-.03.063-1.345 5v.031c0 .234.766.531 1.329.531 1.5 0 3.156-1.75 3.156-3.312 0-.688-.485-1.188-1.157-1.188-.703 0-1.218.407-1.921 1.5.515-1.89.578-2.156 1.03-3.875l-.046-.046c-.5.093-.86.156-1.531.234zm2.078 2.5c.422 0 .703.328.703.86 0 .655-.516 1.718-1.11 2.343-.359.375-.796.578-1.218.578-.313 0-.453-.11-.453-.328 0-.61.297-1.578.703-2.313.453-.765.89-1.14 1.375-1.14Zm0 0" style="stroke:none"/></symbol><symbol id="j" overflow="visible" style="overflow:visible"><path d="M5.625-.156c-.578-.047-.625-.14-.766-.86l-.937-5.64h-.25L.782-1.672C-.017-.344-.11-.234-.517-.156V0H1.36v-.156C.844-.203.766-.266.766-.516c0-.187.03-.265.203-.609L1.53-2.25h2.203l.188 1.297c.015.094.031.187.031.265 0 .375-.14.47-.781.532V0h2.453ZM1.75-2.61l1.484-2.594.438 2.594zm0 0" style="stroke:none"/></symbol><symbol id="k" overflow="visible" style="overflow:visible"><path d="M-.078 0h2.812c1.563 0 2.641-.813 2.641-2 0-.36-.125-.719-.344-.938-.203-.218-.39-.343-.922-.562.72-.172 1-.281 1.329-.563.28-.25.421-.578.421-.984 0-.937-.703-1.469-1.984-1.469H1.297v.172c.61.047.766.125.766.407 0 .14-.032.39-.11.64L.734-.89c-.187.579-.25.625-.812.735zm2.453-3.297c.64 0 1.063.031 1.266.11.406.171.656.609.656 1.156 0 1.078-.734 1.734-1.953 1.734-.422 0-.64-.156-.64-.422 0-.125.124-.594.343-1.39.14-.454.203-.688.328-1.188Zm.75-2.64c.063-.22.172-.266.563-.266.796 0 1.171.328 1.171 1.062 0 .579-.25 1.016-.671 1.25-.344.204-.813.266-1.72.266Zm0 0" style="stroke:none"/></symbol><symbol id="l" overflow="visible" style="overflow:visible"><path d="M3.297 2.39c0-.03 0-.046-.172-.218C1.891.922 1.562-.968 1.562-2.5c0-1.734.375-3.469 1.61-4.703.125-.125.125-.14.125-.172 0-.078-.031-.11-.094-.11-.11 0-1 .688-1.594 1.954C1.11-4.438.984-3.328.984-2.5c0 .781.11 1.984.657 3.125C2.25 1.844 3.094 2.5 3.203 2.5c.063 0 .094-.031.094-.11zm0 0" style="stroke:none"/></symbol><symbol id="m" overflow="visible" style="overflow:visible"><path d="M2.875-2.5c0-.766-.11-1.969-.656-3.11C1.625-6.827.766-7.483.672-7.483a.107.107 0 0 0-.11.109c0 .031 0 .047.188.234.984.985 1.547 2.563 1.547 4.641 0 1.719-.36 3.469-1.594 4.719-.14.125-.14.14-.14.172 0 .062.046.109.109.109.094 0 1-.688 1.578-1.953.516-1.094.625-2.203.625-3.047Zm0 0" style="stroke:none"/></symbol></defs><path d="M-99.498 0H99.498M-99.498 38.27H99.498M-99.498 76.536H99.498M-76.537-22.961V99.496m38.27-122.457V99.496M.001-22.96V99.496M38.267-22.96V99.496M76.537-22.96V99.496" style="fill:none;stroke:#9e9ed1;stroke-width:.19925;stroke-linecap:butt;stroke-linejoin:miter;stroke-miterlimit:10;stroke-opacity:1" transform="matrix(1 0 0 -1 114.498 122.732)"/><path d="M-99.498 0h202.824M.002-22.96v126.285" style="fill:none;stroke:#000;stroke-width:.3985;stroke-linecap:butt;stroke-linejoin:miter;stroke-miterlimit:10;stroke-opacity:1" transform="matrix(1 0 0 -1 114.498 122.732)"/><path d="M103.19 0h-.727" style="fill:none;stroke:#000;stroke-width:1.04607999;stroke-linecap:butt;stroke-linejoin:miter;stroke-miterlimit:10;stroke-opacity:1" transform="matrix(1 0 0 -1 114.498 122.732)"/><path d="M-1.777 2.372C-1.628 1.48.001.149.446 0 .001-.148-1.628-1.48-1.777-2.37" style="fill:none;stroke:#000;stroke-width:.83687001;stroke-linecap:round;stroke-linejoin:round;stroke-miterlimit:10;stroke-opacity:1" transform="matrix(1 0 0 -1 216.96 122.732)"/><path d="M.002 103.192v-.73" style="fill:none;stroke:#000;stroke-width:1.04607999;stroke-linecap:butt;stroke-linejoin:miter;stroke-miterlimit:10;stroke-opacity:1" transform="matrix(1 0 0 -1 114.498 122.732)"/><path d="M-1.778 2.37C-1.63 1.482-.001.146.445-.003c-.446-.144-2.075-1.48-2.223-2.37" style="fill:none;stroke:#000;stroke-width:.83687001;stroke-linecap:round;stroke-linejoin:round;stroke-miterlimit:10;stroke-opacity:1" transform="matrix(0 -1 -1 0 114.498 20.27)"/><path d="M76.537 0c0 42.27-34.266 76.536-76.535 76.536-42.274 0-76.54-34.266-76.54-76.536" style="fill:none;stroke:red;stroke-width:.79701;stroke-linecap:butt;stroke-linejoin:miter;stroke-miterlimit:10;stroke-opacity:1" transform="matrix(1 0 0 -1 114.498 122.732)"/><path d="M79.217 0a2.679 2.679 0 1 1-5.358.002A2.679 2.679 0 0 1 79.217 0zM-73.858 0a2.679 2.679 0 1 1-5.358.002A2.679 2.679 0 0 1-73.858 0zm0 0" style="fill:red;fill-opacity:1;fill-rule:nonzero;stroke:red;stroke-width:.3985;stroke-linecap:butt;stroke-linejoin:miter;stroke-miterlimit:10;stroke-opacity:1" transform="matrix(1 0 0 -1 114.498 122.732)"/><path d="M-88.018-17.605V-5.36h22.961v-12.246zm0 0" style="fill:#fdfdfd;fill-opacity:1;fill-rule:nonzero;stroke:#fdfdfd;stroke-width:.3985;stroke-linecap:butt;stroke-linejoin:miter;stroke-miterlimit:10;stroke-opacity:1" transform="matrix(1 0 0 -1 114.498 122.732)"/><use xlink:href="#a" width="100%" height="100%" x="220.652" y="266.208" style="fill:#b0b0d9;fill-opacity:1" transform="translate(-189.05 -129.077)"/><use xlink:href="#b" width="100%" height="100%" x="228.393" y="266.208" style="fill:#b0b0d9;fill-opacity:1" transform="translate(-189.05 -129.077)"/><path d="M-11.479-17.605V-5.36h22.961v-12.246zm0 0" style="fill:#fdfdfd;fill-opacity:1;fill-rule:nonzero;stroke:#fdfdfd;stroke-width:.3985;stroke-linecap:butt;stroke-linejoin:miter;stroke-miterlimit:10;stroke-opacity:1" transform="matrix(1 0 0 -1 114.498 122.732)"/><use xlink:href="#c" width="100%" height="100%" x="301.058" y="266.545" style="fill:#b0b0d9;fill-opacity:1" transform="translate(-189.05 -129.077)"/><path d="M65.056-17.605V-5.36h22.961v-12.246zm0 0" style="fill:#fdfdfd;fill-opacity:1;fill-rule:nonzero;stroke:#fdfdfd;stroke-width:.3985;stroke-linecap:butt;stroke-linejoin:miter;stroke-miterlimit:10;stroke-opacity:1" transform="matrix(1 0 0 -1 114.498 122.732)"/><use xlink:href="#b" width="100%" height="100%" x="377.594" y="266.622" style="fill:#b0b0d9;fill-opacity:1" transform="translate(-189.05 -129.077)"/><path d="M-11.479 68.883v15.309h7.653V68.883zm0 0" style="fill:#fdfdfd;fill-opacity:1;fill-rule:nonzero;stroke:#fdfdfd;stroke-width:.3985;stroke-linecap:butt;stroke-linejoin:miter;stroke-miterlimit:10;stroke-opacity:1" transform="matrix(1 0 0 -1 114.498 122.732)"/><use xlink:href="#b" width="100%" height="100%" x="293.404" y="178.606" style="fill:#b0b0d9;fill-opacity:1" transform="translate(-189.05 -129.077)"/><use xlink:href="#d" width="100%" height="100%" x="193.624" y="156.682" style="fill:#000;fill-opacity:1" transform="translate(-195.787 -177.065)"/><use xlink:href="#e" width="100%" height="100%" x="217.773" y="156.682" style="fill:#000;fill-opacity:1" transform="translate(-45.44 -71.802) scale(1.25931)"/><use xlink:href="#f" width="100%" height="100%" x="242.152" y="156.682" style="fill:#000;fill-opacity:1" transform="translate(-192.644 -189.782) scale(1.25931)"/><use xlink:href="#g" width="100%" height="100%" x="266.251" y="156.682" style="fill:#000;fill-opacity:1" transform="translate(-195.787 -177.065)"/><use xlink:href="#h" width="100%" height="100%" x="289.624" y="156.682" style="fill:#000;fill-opacity:1" transform="translate(-195.787 -177.065)"/><use xlink:href="#i" width="100%" height="100%" x="314.53" y="156.682" style="fill:#000;fill-opacity:1" transform="translate(-195.787 -177.065)"/><use xlink:href="#j" width="100%" height="100%" x="339.437" y="156.682" style="fill:#000;fill-opacity:1" transform="translate(-195.787 -177.065)"/><use xlink:href="#k" width="100%" height="100%" x="365.449" y="156.682" style="fill:#000;fill-opacity:1" transform="translate(-195.787 -177.065)"/><use xlink:href="#l" width="100%" height="100%" x="391.462" y="156.682" style="fill:#000;fill-opacity:1" transform="translate(-195.787 -177.065)"/><use xlink:href="#m" width="100%" height="100%" x="415.252" y="156.682" style="fill:#000;fill-opacity:1" transform="translate(-195.787 -177.065)"/></svg>