<svg xmlns="http://www.w3.org/2000/svg" width="879.665" height="140mm" viewBox="0 0 232.745 140"><path fill="#d37c91" d="M-116.487 103.606c-14.192-3.205-31.069-1.526-38.304.454-46.195 12.638-86.013 51.728-74.897 105.049 25.403 73.273 121.005 74.989 167.093 23.636 9.637-12.544 18.126-28.911 17.181-54.748-.812-22.22-16.514-47.344-43.096-61.054" style="clip-rule:evenodd;display:inline;fill:#e5f6ff;fill-opacity:1;fill-rule:nonzero;stroke:none;stroke-width:.29;stroke-linecap:round;stroke-linejoin:round;stroke-miterlimit:4;stroke-dasharray:none;stroke-opacity:1" transform="translate(38.443 46.267)"/><path d="M86.617-39.858c-.414-1.217-1.568-2.164-2.743-2.91-2.216-1.409-5.1-1.977-7.853-1.908-3.24.081-6.57 1.08-8.315 3.774-.754 1.163-1.087 2.374-.678 3.646.493 1.532 1.365 2.894 2.698 3.964 1.135.912 2.462 1.763 3.944 2.21 2.687.811 5.469.946 7.966.255 2.033-.563 3.807-1.59 4.674-3.296.682-1.342.854-2.882.33-4.248a2.682 2.682 0 0 0-.323-.58M80.895-57.928c-.286-.503-1.174-1.16-1.585-1.397-.6-.348-1.295-.45-1.954-.488a5.447 5.447 0 0 0-2.534.506c-.46.223-.915.552-1.33.924a4.217 4.217 0 0 0-.5.525 3.286 3.286 0 0 0-.784 1.81 3.04 3.04 0 0 0 .13 1.296c.098.281.19.433.335.674a3.93 3.93 0 0 0 1.625 1.514c.154.078.31.142.468.207.84.343 1.72.483 2.592.48.172 0 .344-.015.516-.022a5.13 5.13 0 0 0 1.864-.522c.342-.174.414-.242.734-.47.47-.37.905-.855 1.167-1.546.04-.11.071-.226.107-.34.157-.642.125-1.2-.014-1.836-.11-.442-.456-1.17-.479-1.211a2.002 2.002 0 0 0-.284-.388M8.053 52.477c.653.399.602 1.007-.16 1.176-.622.138-1.245-.024-1.81-.215C3.81 52.668 2 51.02.507 49.133c-.983-1.242-1.967-2.924-2.535-4.369-1.357-3.445-1.889-6.533-1.373-11.27.35-3.215 1.967-6.554 3.9-8.638 1.162-1.251 2.595-2.503 3.935-3.173 1.017-.51 2.068-.797 3.172-.758.763.027.685.3.234.32-.301.015-.6-.01-.901.006-2.853-.14-5.076-1.874-6.699-3.701-.426-.48-.775-1.002-1.163-1.503-1.246-2.016-1.754-4.144-1.7-6.41.02-.863.03-1.74.272-2.582.75-2.602 1.518-4.512 3.406-6.703.888-1.03 2.25-2.336 3.35-3.217 5.002-4.007 10.449-6.246 16.629-7.219 1.454-.277 3.311-.345 4.843-.418 3.75-.178 8.279.482 11.75 1.899.808.33 1.484.743 2.123 1.132.24.144 1.051.77 1.52 1.236.079.078 1.3 1.416 1.255 1.67-.168.976-1.101-.72-1.286-1.312-.78-2.506-.415-3.844.658-6.138.407-.871 1.093-1.62 1.797-2.31 4.34-4.243 11.702-6.527 17.67-7.648a68.65 68.65 0 0 1 6.38-.894c8.287-.763 16.776-.138 24.781 2.165 3.56 1.024 5.686 1.905 8.784 3.72 3.45 2.02 6.635 5.026 7.33 8.976.237 1.345.057 2.912-.103 3.472-.444 1.557-1.36 1.703-.928.521.276-.753.579-1.133 1.251-1.938.344-.412.722-.78 1.12-1.103 2.545-2.07 5.9-3.038 8.632-3.516a28.734 28.734 0 0 1 3.187-.402c4.013-.247 9.896.235 14.706 2.297 2.563 1.099 4.717 2.302 7.352 4.316.826.632 2.109 1.8 3.13 2.921 3.208 3.526 5.522 7.652 6.17 13.479.1.897.021 2.458-.048 3.361-.058.748-.457 2.144-.781 2.727-.744 1.334-1.52 2.245-2.466 3.036-.61.509-1.476.991-1.826 1.145-.705.309-1.63.607-2.32.412-.535-.152-.84-.63-.426-1.025.595-.565 1.623-.53 2.544-.225.813.268 1.444.833 2.043 1.544 2.004 2.377 3.983 5.69 5.217 10.034.556 1.958.967 3.935 1.042 5.826.2 5.02-.552 9.116-2.436 13.23-.724 1.582-2.719 3.81-4.103 3.06-.143-.077-.725-.546-.329-.505 1.219.128 2.624 1.337 3.422 2.111 2.244 2.18 4.361 5.51 4.763 8.992.096.827.144 1.664.094 2.494-.222 3.63-1.711 8.041-5.508 11.701-7.066 6.81-16.026 9.517-24.497 10.957-1.109.189-2.923.327-4.042.37-5.057.197-12.157-.009-16.801-1.664-.875-.312-2.897-1.305-3.858-2.112-.673-.565-1.643-1.759-1.539-2.753.017-.163.045-.331.093-.506.126-.486.24-.949.563-1.579.404-.785 1.268-.931 1.006.067a2.93 2.93 0 0 1-.192.529c-.646 1.3-1.552 2.006-2.724 2.897-.8.607-1.84 1.222-2.364 1.527-3.835 2.237-8.552 3.293-12.863 3.512-1.17.06-2.769.097-3.94.06-6.177-.193-11.532-1.344-17.002-3.686-.848-.363-1.78-.881-2.578-1.36-2.012-1.208-5.07-3.098-5.244-5.947l.171-.28c.948-.318 1.219 1.763 1.26 2.194.034.368.038.985.016 1.388-.138 2.587-1.182 4.244-3.177 5.72-.46.341-.98.598-1.471.897-3.44 1.617-7.318 2.058-11.118 1.885-.904-.04-1.803-.157-2.705-.235-3.161-.505-6.465-.983-9.273-2.529-.937-.516-1.684-.954-2.279-1.446-.647-.535-.938-1.037-1.116-1.708-.745-2.809 3.748-2.393 2.029.296-.494.771-1.337 1.418-2.015 1.788-2.74 1.493-5.98 1.79-8.97 1.456-1.895-.24-3.8-.633-5.511-1.186-5.019-1.623-9.104-4.276-12.607-7.98-2.64-2.792-4.975-6.08-5.776-10.751-.581-3.39-.467-6.254.887-9.197 1.226-2.664 3.578-5.156 6.102-6.705 1.462-.897 2.703-1.478 4.147-1.79 1.083-.233 2.478-.177 3.404.389Z" style="display:inline;fill:#e5f6ff;fill-opacity:1;stroke:#000;stroke-width:.310444;stroke-linecap:butt;stroke-linejoin:miter;stroke-miterlimit:6;stroke-dasharray:none;stroke-dashoffset:0;stroke-opacity:1" transform="translate(38.443 46.267)"/><g style="stroke-width:.94359"><path d="m97.957 109.637-.088-73.601 62.4-.075.089 73.601zm0 0" style="fill:#fff;fill-opacity:1;fill-rule:nonzero;stroke:#fff;stroke-width:.0471795;stroke-linecap:butt;stroke-linejoin:miter;stroke-miterlimit:10;stroke-opacity:1" transform="matrix(1.04933 -.14824 .14823 1.0494 3.642 27.892)"/><path d="m101.14 95.233-.067-56.001 56-.067.068 56zm0 0" style="fill:#fafafa;fill-opacity:1;fill-rule:nonzero;stroke:#fafafa;stroke-width:.0399453;stroke-linecap:butt;stroke-linejoin:miter;stroke-miterlimit:10;stroke-opacity:1" transform="matrix(1.04933 -.14824 .14823 1.0494 3.642 27.892)"/><path d="m101.14 95.233-.067-56.001 56-.067.068 56zm0 0" style="fill:none;stroke:#000;stroke-width:.0165773;stroke-linecap:butt;stroke-linejoin:miter;stroke-miterlimit:10;stroke-opacity:1" transform="matrix(1.04933 -.14824 .14823 1.0494 3.642 27.892)"/><path d="m97.957 109.637-.088-73.601 62.4-.075.089 73.601zm0 0" style="fill:none;stroke:#000;stroke-width:.188718;stroke-linecap:butt;stroke-linejoin:miter;stroke-miterlimit:10;stroke-opacity:1" transform="matrix(1.04933 -.14824 .14823 1.0494 3.642 27.892)"/></g><g style="stroke-width:.554252;stroke-miterlimit:4;stroke-dasharray:none"><path d="M-33.862 76.605c3.645.023 7.289-.023 10.934.003 7.7.055 15.394-.016 23.092-.05 7.674-.035 16.34-.024 24.509.001 8.382.026 16.72.046 25.136.015 8.955-.032 17.909.018 26.863-.139 7.421-.085 15.504.129 22.365-.015 2.793-.058 5.58-.009 8.373-.05l-.001.262c-2.79.039-5.575-.014-8.365.046-6.606.14-14.948-.073-22.372.011-8.953.156-17.907.105-26.862.138-8.455.03-16.759.014-25.143-.013-8.167-.026-16.727-.046-24.501-.003-7.702.043-15.4.108-23.103.057-3.637-.024-7.273.022-10.91.003l-.015-.266z" style="fill:#000;fill-opacity:1;stroke:#000;stroke-width:.554252;stroke-linecap:butt;stroke-linejoin:round;stroke-miterlimit:4;stroke-dasharray:none;stroke-dashoffset:0;stroke-opacity:1" transform="matrix(.36664 -.0518 .04918 .3482 131.356 55.178)"/><path d="M102.493 73.947c1.502.326 2.972.778 4.452 1.192 1.284.4 2.614.645 3.889 1.073.194.083.507.18.246.47-.064.072-.175.078-.265.111-.23.085-.699.226-.905.29-1.784.516-3.612.86-5.435 1.211-.562.103-1.124.208-1.678.35l-.051-.257c.559-.14 1.125-.246 1.692-.348 1.814-.349 3.634-.69 5.409-1.209.459-.143.481-.146.887-.287.06-.02.117-.08.18-.065.045.01.049.08.067.124.035.083-.37-.648-.23-.14-1.269-.432-2.596-.674-3.875-1.075-1.477-.413-2.945-.864-4.445-1.184l.062-.256z" style="fill:#000;fill-opacity:1;stroke:#000;stroke-width:.554252;stroke-linecap:butt;stroke-linejoin:round;stroke-miterlimit:4;stroke-dasharray:none;stroke-dashoffset:0;stroke-opacity:1" transform="matrix(.36664 -.0518 .04918 .3482 131.356 55.178)"/></g><path d="M109.86 65.084a54.773 54.773 0 0 1-.29-1.975c-.13-1.055-.302-2.103-.458-3.153-.027-.169-.181-1.38-.441-3.203-.319-2.229-.732-5.38-1.204-8.662-.98-6.822-2.082-14.226-2.205-15.214-.166-1.322-.477-3.391-.662-4.71-.29-2.06-.479-3.415-.509-3.635-.157-1.156-.331-2.31-.507-3.464a137.885 137.885 0 0 1-.489-3.298c-.141-1.103-.299-2.204-.462-3.304-.122-.685-.18-1.38-.29-2.066l-.027-.153.073-.02.027.153c.11.687.167 1.382.29 2.067.162 1.1.32 2.201.462 3.304.145 1.102.316 2.2.488 3.298.176 1.154.35 2.308.508 3.465.098.724 1.979 13.728 3.403 23.78.282 1.992.509 3.874.741 5.515.486 3.427.828 5.83.876 6.128.156 1.05.33 2.1.46 3.153.083.66.182 1.318.291 1.974l-.074.02z" style="fill:#000;fill-opacity:1;stroke:#000;stroke-width:.2;stroke-linecap:butt;stroke-linejoin:round;stroke-miterlimit:4;stroke-dasharray:none;stroke-dashoffset:0;stroke-opacity:1" transform="translate(43.112 41.287)"/><path d="M101.852 14.878c.086-.463.155-.93.22-1.397.062-.406.09-.818.16-1.223.01-.08.055-.194.154-.132.045.029.088.105.114.145.219.39.375.812.54 1.228.162.422.32.846.53 1.245.062.109.031.06.09.146l-.07.063c-.064-.092-.032-.041-.095-.154-.212-.403-.372-.83-.535-1.254-.163-.41-.317-.828-.531-1.213-.025-.039-.052-.076-.076-.115-.004-.007.003-.032-.002-.026-.02.026-.024.072-.03.098-.07.404-.099.815-.162 1.22a32.33 32.33 0 0 1-.219 1.403l-.087-.034z" style="fill:#000;fill-opacity:1;stroke:#000;stroke-width:.2;stroke-linecap:butt;stroke-linejoin:round;stroke-miterlimit:4;stroke-dasharray:none;stroke-dashoffset:0;stroke-opacity:1" transform="translate(43.112 41.287)"/><path d="M103.737 40.066a1.84 1.84 0 0 0-.782.676c-.164.24-.208.744.054 1.01a.7.7 0 0 0 .374.205c.511.092 1.088-.074 1.479-.38.077-.061.154-.123.22-.196a.928.928 0 0 0 .15-.218c.15-.316-.001-.658-.241-.878a1.083 1.083 0 0 0-.202-.147 1.134 1.134 0 0 0-.907-.083l-.021-.082c.333-.098.669-.08.974.093.078.044.15.098.215.158.274.253.423.638.247.994-.042.084-.1.16-.164.23a1.73 1.73 0 0 1-.233.204c-.338.257-.767.445-1.255.414-.096-.006-.195-.003-.289-.028a.895.895 0 0 1-.42-.244c-.277-.272-.227-.855-.042-1.124.222-.323.48-.526.854-.695z" style="fill:#000;fill-opacity:1;stroke:#000;stroke-width:.200001;stroke-linecap:butt;stroke-linejoin:round;stroke-miterlimit:4;stroke-dasharray:none;stroke-dashoffset:0;stroke-opacity:1" transform="translate(43.112 41.287)"/><g style="stroke-width:.9619"><g style="display:inline;stroke-width:4.64012"><path d="M-323.62-1187.44c.73 8.028.606 16.104.757 24.155.094 4.965.373 14.34.515 19.302.3 11.124.047 16.682.133 27.81.062 2.753.19 1.486-6.615 2.746.592-7.767.704-10.824.073-28.392-.028-.777-.535-18.559-.552-19.333-.175-7.92-.095-15.864-.804-23.763z" style="fill:#000;fill-opacity:1;stroke:none;stroke-width:.464012;stroke-miterlimit:4;stroke-dasharray:none;stroke-opacity:1" transform="matrix(.06027 -.0084 .0084 .0602 171.835 183.916)"/><path d="M1084.867 194.701c-14.834.277-29.666.673-44.47 1.697l-3.807 5.829c14.732-1.37 29.529-1.737 44.314-1.989a227.22 227.22 0 0 0 8.813-.29l4.256-5.544c-3.218.278-6.44.27-9.106.297z" style="fill:#000;fill-opacity:1;stroke:none;stroke-width:.464012;stroke-miterlimit:4;stroke-dasharray:none;stroke-opacity:1" transform="matrix(.06027 -.0084 .0084 .0602 78.515 116.154)"/></g><g style="display:inline;stroke-width:4.64012"><path d="M848.102 133.527c-4.793.026-9.585.061-14.377.098-15.18.125-30.362.655-45.54.428l-4.2 5.556c8.862.503 17.752-.015 26.617-.195 6.935-.14 12.397-.158 19.283-.205 4.755-.026 9.509-.023 14.263.018l3.954-5.7z" style="fill:#000;fill-opacity:1;stroke:none;stroke-width:.464012;stroke-miterlimit:4;stroke-dasharray:none;stroke-opacity:1" transform="matrix(.06027 -.0084 .0084 .0602 97.712 113.402)"/><path d="m818.717 134.57-6.635 2.157c-.77 16.007-.269 32.043-.08 48.06.027 6.69.19 13.383.111 20.074l6.633-2.162c-.112-6.679-.22-13.357-.309-20.037.044-16.773-.535-33.778.28-48.092z" style="fill:#000;fill-opacity:1;stroke:none;stroke-width:.464012;stroke-miterlimit:4;stroke-dasharray:none;stroke-opacity:1" transform="matrix(.06027 -.0084 .0084 .0602 97.712 113.402)"/><path d="M848.05 193.611c-20.966.396-41.96.905-62.855 2.787l-3.806 5.829c20.813-2.315 41.789-2.79 62.713-3.102 3.212.007 6.428-.077 9.64.023l4.229-5.556c-3.012.03-7.057-.024-9.92.02z" style="fill:#000;fill-opacity:1;stroke:none;stroke-width:.464012;stroke-miterlimit:4;stroke-dasharray:none;stroke-opacity:1" transform="matrix(.06027 -.0084 .0084 .0602 97.712 113.402)"/></g><g style="display:inline;stroke-width:4.64012"><path d="m1214.164 131.135-6.445 2.672c-.01 3.135.022 4.327-.211 7.982-.41 6.432-1.03 12.848-1.444 19.28-.832 12.915-.642 10.204-.998 22.923-.106 11.132-.108 6.008-.039 15.375l6.502-2.144c-.136-9.276-.105-4.197-.04-15.237.359-12.276.183-10.332 1.038-22.81.57-8.312 1.67-16.659 1.76-24.998.01-1.062-.085-2.136-.123-3.043z" style="fill:#000;fill-opacity:1;stroke:none;stroke-width:.464012;stroke-miterlimit:4;stroke-dasharray:none;stroke-opacity:1" transform="matrix(.06027 -.0084 .0084 .0602 77.244 116.552)"/><path d="m1212.342 130.229-5.643 4.1c.519.568 1.073 1.106 1.555 1.706 1.302 1.62 4.435 6.122 5.346 7.453 4.667 6.824 9.105 13.803 13.6 20.74 6.85 10.795 14.567 21 21.624 31.653 3.094 4.629 4.195 7.626 10.494 1.996-.871-2.01-3.056-4.002-4.607-5.6-7.106-10.608-14.862-20.768-21.717-31.548-4.49-6.976-8.927-13.993-13.566-20.872-.899-1.332-4.208-6.157-5.465-7.773-.504-.648-1.08-1.237-1.621-1.855z" style="fill:#000;fill-opacity:1;stroke:none;stroke-width:.464012;stroke-miterlimit:4;stroke-dasharray:none;stroke-opacity:1" transform="matrix(.06027 -.0084 .0084 .0602 77.244 116.552)"/><path d="m1259.334 135.809-6.758 1.71c-.87 12.436-.691 24.93-.719 37.39.156 7.205.251 14.41.9 21.593.211 2.328.36 4.904 1.136 7.148l6.296-3.015c-.648-1.905-.8-4.561-.976-6.45-.663-7.104-.759-14.237-.898-21.367.04-12.33-.185-24.728 1.019-37.01z" style="fill:#000;fill-opacity:1;stroke:none;stroke-width:.464012;stroke-miterlimit:4;stroke-dasharray:none;stroke-opacity:1" transform="matrix(.06027 -.0084 .0084 .0602 77.244 116.552)"/></g><g style="display:inline;stroke-width:4.64012"><path d="M4235.299 339.107c-.163 13.958-.081 27.907.368 41.857.25 6.723.458 13.447.656 20.171l-6.57 2.2c-.101-6.73-.295-13.458-.53-20.185-.447-13.965-.553-27.927-.522-41.899l6.598-2.144z" style="opacity:1;fill:#000;fill-opacity:1;stroke:#000;stroke-width:1.07809;stroke-linecap:butt;stroke-linejoin:miter;stroke-miterlimit:4;stroke-dasharray:none;stroke-dashoffset:0;stroke-opacity:1" transform="matrix(.06027 -.0084 .00823 .059 -102.119 129.417)"/><path d="M4227.97 335.143c17.345-.435 31.27-1.03 48.617-1.294 3.763-.052 2.217-.033 4.637-.06l-4.095 5.637c-2.36-.026-.844-.014-4.549-.01-17.374.123-31.323.762-48.687 1.34zM4230.78 365.377c11.459-1.438 22.991-3.273 34.574-3.215 1.423.007 2.84.176 4.26.263l1.975.522-4.566 5.245-1.579-.273c-12.881-.54-25.707 1.526-38.433 3.27l3.77-5.812zM4228.654 396.491c.769.061 1.536.165 2.307.184 6.446.16 12.912-.447 19.334-.867 9.568-.625 5.15-.83 14.488-1.376 5.244.368 10.861-1.604 16.03-.11l-4.558 5.277c-5.098-.518-10.234.442-15.331.413-11.775.686-2.276.59-14.473 1.393-6.562.432-13.211 1.102-19.798.71-.85-.051-1.688-.214-2.532-.321z" style="opacity:1;fill:#000;fill-opacity:1;stroke:#000;stroke-width:1.07809;stroke-linecap:butt;stroke-linejoin:miter;stroke-miterlimit:4;stroke-dasharray:none;stroke-dashoffset:0;stroke-opacity:1" transform="matrix(.06027 -.0084 .00823 .059 -102.119 129.417)"/></g><g style="stroke-width:4.64012"><path d="m-1150.728-3344.783-6.89.892c-9.238 19.857-17.391 40.187-26.047 60.295-1.434 3.378-2.848 6.762-5.15 9.639l6.937-.506c1.943-3.24 3.533-6.66 4.933-10.172 8.471-20.163 16.626-40.478 26.217-60.148z" style="fill:#000;fill-opacity:1;stroke:none;stroke-width:.464012;stroke-miterlimit:4;stroke-dasharray:none;stroke-opacity:1" transform="matrix(.06027 -.0084 .0084 .0602 258.804 304.11)"/><path d="m-1148.706-3347.871-6.23 3.137c5.058 13.81 8.467 28.166 12.161 42.384 2.786 11.723 5.173 23.579 9.647 34.803l6.172-3.12c-4.553-11.058-6.838-22.825-9.647-34.407-3.709-14.347-7.163-28.812-12.103-42.797z" style="fill:#000;fill-opacity:1;stroke:none;stroke-width:.464012;stroke-miterlimit:4;stroke-dasharray:none;stroke-opacity:1" transform="matrix(.06027 -.0084 .0084 .0602 258.804 304.11)"/><path d="M-1164.642-3309.588c-1.677-.01-3.352 0-5.025.041-7.499.168-1.547.209-7.5.467-.675.03-1.35-.01-2.026-.01l-4.101 5.644c.68 0 1.363.01 2.043-.012 8.89-.28-3.644-.016 7.66-.423 6.659-.24 13.339-.03 19.998.06 7.242.2 14.491.09 21.732.289 2.39.065 5.254.057 7.643.632 1.283-2.028 2.445-3.288 3.57-5.617-1.171-.281-6.752-.528-7.164-.539-7.243-.199-14.499 0-21.742-.252-5.02-.084-10.058-.261-15.088-.28z" style="fill:#000;fill-opacity:1;stroke:none;stroke-width:.464012;stroke-miterlimit:4;stroke-dasharray:none;stroke-opacity:1" transform="matrix(.06027 -.0084 .0084 .0602 258.804 304.11)"/></g><g style="display:inline;stroke-width:4.64012"><path d="M171.657-1067.442c-.085 12.226-.145 22.65.087 34.876.226 8.686-.015 12.66.456 21.338.235 4.341.518 8.552 1.309 12.82l.26.658-6.245 3.11-.441-1.15c-.803-4.404-1.089-8.732-1.32-13.21-.448-8.706-.21-12.707-.441-21.42-.271-12.222-.236-22.643-.3-34.866l6.636-2.156z" style="fill:#000;fill-opacity:1;stroke:none;stroke-width:.464012;stroke-miterlimit:4;stroke-dasharray:none;stroke-opacity:1" transform="matrix(.06027 -.0084 .0084 .0602 162.979 177.967)"/><path d="M156.626-1071.688c12.906-2.103 26.282-2.14 38.97 1.337 2.615.717 5.216 1.548 7.68 2.68 1.99.913 3.942 2.002 5.609 3.423 4.674 3.986 5.084 9.04 1.236 13.838-3.877 4.835-11.75 8.538-16.553 10.939-6.528 3.263-13.654 5.022-20.646 7.03-2.962.85-7.919 2.676-8.803 2.295-.785-.338-1.12-3.87-.605-4.748.958-1.639 6.863-3.497 7.637-3.443 4.315 2.352 9.48 5.04 13.594 7.653 7.473 4.75 6.793 4.426 14.584 9.467 7.043 4.557 14.055 9.164 20.896 14.02 2.081 1.476 4.68 3.03 6.28 5.126l-6.101 3.973c-1.704-1.883-2.777-2.62-5.417-4.711-6.784-4.877-13.766-9.469-20.793-13.988-6.76-4.349-7.903-5.141-14.421-9.365-5.04-3.265-6.236-3.859-9.36-5.77-.905-1.5-1.234-3.251-.721-4.695 9.283-2.772 18.71-5.341 27.793-9.918 5.073-2.556 10.094-5.954 8.852-9.835-1.089-3.402-4.961-5.063-7.749-6.357-2.358-1.096-4.883-1.817-7.401-2.465-12.445-3.204-25.57-2.977-38.114-.527z" style="fill:#000;fill-opacity:1;stroke:none;stroke-width:.464012;stroke-miterlimit:4;stroke-dasharray:none;stroke-opacity:1" transform="matrix(.06027 -.0084 .0084 .0602 162.979 177.967)"/></g></g><path d="M81.858 55.696c.193-.146.383-.295.58-.437a163.11 163.11 0 0 1 4.067-2.845c2.766-1.865 1.372-1.001 4.274-3.01 5.127-3.551 9.739-6.876 14.896-10.384 5.615-3.82 11.188-7.7 16.686-11.687 2.957-2.144 5.27-3.694 8.177-5.906l-.028-.183c-3.046 2.301-5.583 4.041-8.227 5.96-5.496 3.987-11.07 7.866-16.684 11.685-5.158 3.509-9.769 6.833-14.897 10.384-2.884 1.997-1.522 1.155-4.273 3.009a168.479 168.479 0 0 0-4.072 2.845c-.199.142-.333.246-.528.393z" style="fill:red;stroke:red;stroke-width:.3;stroke-linecap:square;stroke-miterlimit:4;stroke-dasharray:none" transform="translate(43.112 41.287)"/><g style="stroke-width:.869192"><g style="stroke-width:.861259"><path d="M79.237 64.72c.063.227.212.46.434.562a.51.51 0 0 0 .3.037.696.696 0 0 0 .485-.457c.06-.195.023-.376-.056-.558a.5.5 0 0 0-.08-.13c-.019-.016-.02-.042-.016.014.221.145.437.303.62.495a2.814 2.814 0 0 1 .344.436c.199.316.346.7.291 1.08a.88.88 0 0 1-.065.235c-.09.198-.195.335-.409.41a.563.563 0 0 1-.345-.001l-.006.023c.028.009.065.017.093.02a.56.56 0 0 0 .267-.02.646.646 0 0 0 .307-.227.897.897 0 0 0 .116-.202c.032-.077.054-.158.066-.24.054-.386-.095-.772-.297-1.093a2.723 2.723 0 0 0-.346-.438 3.503 3.503 0 0 0-.62-.496c-.054-.002-.034-.001-.016.021a.48.48 0 0 1 .075.124c.077.177.112.352.054.541a.563.563 0 0 1-.044.105c-.082.151-.245.298-.418.335a.484.484 0 0 1-.288-.034c-.216-.099-.362-.326-.423-.548z" style="fill:#000;stroke:#000;stroke-width:.172252;stroke-linecap:square;stroke-miterlimit:4;stroke-dasharray:none;stroke-opacity:1" transform="matrix(1.16124 0 0 1.16094 31.918 19.46)"/></g><path d="M82.571 57.22c.215-.158.43-.315.643-.476.11-.083.219-.17.327-.258l-.013-.02c-.113.09-.227.183-.326.258-.213.161-.428.318-.644.476zM82.76 57.512c.193-.142.388-.28.585-.415l.392-.27.02-.013-.01-.021-.022.014a33.01 33.01 0 0 0-.975.684zM85.369 55.178a1.044 1.044 0 0 0-.607.092.638.638 0 0 0-.245.206.593.593 0 0 0-.092.458.548.548 0 0 0 .12.261.442.442 0 0 0 .429.178.378.378 0 0 0 .203-.11.43.43 0 0 0 .104-.208c.044-.154.033-.318.005-.478-.01-.05-.02-.1-.021-.15l.002-.01c-.01.021-.005.015.015.032.126.105.267.193.423.247.135.047.258.04.383.013.013-.003.032-.007.047-.013l-.006-.023a.67.67 0 0 1-.415 0 1.326 1.326 0 0 1-.418-.243c-.008-.007-.015-.018-.026-.02-.01-.003-.02.001-.027.006-.011.009.018.155.02.165.022.149.037.317-.005.469a.404.404 0 0 1-.094.193.337.337 0 0 1-.19.107.418.418 0 0 1-.41-.168.541.541 0 0 1-.116-.252.568.568 0 0 1 .321-.637 1.02 1.02 0 0 1 .593-.093zM85.821 54.593c.29.027.574.106.858.17.179.04.358.078.536.12l.006-.022c-.186-.045-.376-.085-.536-.121-.286-.064-.57-.144-.863-.171z" style="fill:#000;stroke:#000;stroke-width:.173839;stroke-linecap:square;stroke-miterlimit:4;stroke-dasharray:none;stroke-opacity:1" transform="matrix(1.15065 0 0 1.15034 31.214 27.613)"/><path d="M86.383 55.508c.083-.265.188-.686.253-.956.028-.124.06-.248.09-.372l-.024-.003c-.03.13-.064.262-.09.373-.064.27-.17.69-.252.954z" style="fill:#000;stroke:#000;stroke-width:.173839;stroke-linecap:square;stroke-miterlimit:4;stroke-dasharray:none;stroke-opacity:1" transform="matrix(1.15065 0 0 1.15034 31.214 27.613)"/></g><g style="stroke-width:.94359"><path d="M104.48 89.704c-.013-.007-.025-.016-.04-.02a.474.474 0 0 0-.285-.01.783.783 0 0 0-.28.163c-.103.101-.137.129-.186.255a.566.566 0 0 0-.027.3c.01.048.026.096.052.14a.65.65 0 0 0 .11.131c.156.15.407.228.667.215a.735.735 0 0 0 .18-.033.752.752 0 0 0 .158-.075c.063-.037.071-.053.097-.08l.17-.01c-.13.12-.318.236-.508.286a.83.83 0 0 1-.196.025c-.277.002-.538-.082-.706-.245a.745.745 0 0 1-.12-.143.508.508 0 0 1-.059-.15.655.655 0 0 1 .017-.325.974.974 0 0 1 .418-.463.933.933 0 0 1 .3-.111.577.577 0 0 1 .366.05z" style="display:inline;fill:#000;fill-opacity:1;stroke:#000;stroke-width:.0647303;stroke-miterlimit:4;stroke-dasharray:none;stroke-opacity:1" transform="matrix(1.05975 0 0 1.05981 40.567 25.502)"/><path d="M91.284 91.8c.011-.089-.04-.167-.146-.194-.027-.007-.055-.008-.082-.011a.73.73 0 0 0-.352.07c.002-.053-.106.03-.015.016-.014.016-.031.03-.043.048-.062.096.008.185.097.244.036.024.078.043.117.065.264.13.552.165.778.298.04.023.077.044.106.076.044.05.074.088.068.163-.004.06-.048.121-.107.16-.206.132-.2.118-.405.172a1.684 1.684 0 0 1-.585.012c-.082-.013-.195-.038-.246-.099a.147.147 0 0 1-.03-.086c-.002-.028.012-.056.018-.083l.164-.045a.198.198 0 0 0-.03.06c-.004.02-.007.042.005.058.04.052.156.073.218.082a1.563 1.563 0 0 0 .685-.06c.008 0 .002.029.01.026a.479.479 0 0 0 .11-.059c.1-.092.043-.156-.007-.21-.027-.03-.062-.049-.098-.07-.209-.124-.519-.166-.778-.297-.042-.024-.087-.045-.127-.073-.107-.074-.187-.184-.131-.304a.202.202 0 0 1 .04-.062.873.873 0 0 1 .54-.219c.035 0 .07.003.104.005.032.007.065.01.095.02.123.04.195.135.188.242z" style="fill:#000;fill-opacity:1;stroke:#000;stroke-width:.0647303;stroke-miterlimit:4;stroke-dasharray:none;stroke-opacity:1" transform="matrix(1.05975 0 0 1.05981 40.567 25.502)"/><g style="stroke:#000;stroke-width:2.93995;stroke-miterlimit:4;stroke-dasharray:none;stroke-opacity:1"><path d="M12.915-3340.53c-.039 16.703.36 33.402.63 50.102.085 5.742.161 11.485.239 17.227l-6.562 1.976c-.004-6.009-.022-12.108-.09-17.25-.23-16.637-.691-33.272-.748-49.91l6.531-2.145z" style="fill:#000;fill-opacity:1;stroke:#000;stroke-width:2.93995;stroke-miterlimit:4;stroke-dasharray:none;stroke-opacity:1" transform="matrix(.02596 -.00365 .0029 .02057 147.582 191.14)"/><path d="M-.715-3343.513c9.919-2.411 20.526-1.955 30.392.581 3.14.807 6.152 2.045 9.229 3.067 2.782 1.463 5.711 2.674 8.346 4.388 6.112 3.978 11.976 9.941 13.928 17.227 1.088 4.058.276 8.108-.988 11.39-.749 1.942-2.189 3.6-3.706 5.025-1.79 1.68-4.095 3.3-6.26 4.46-3.372 1.808-7.425 3.75-12.782 5.186-4.138 1.109-10.132 2.11-16.571 2.364a28.243 28.243 0 0 1-5.818-.4c-1.766-.301-3.93-1.065-5.421-1.99l5.152-4.615c2.85.85 1.187.756 4.338 1.14 5.137.591 9.048.092 13.15-.341 2.85-.301 5.75-.852 8.383-1.485.958-.23 3.667-1.233 4.578-1.61 4.97-2.053 5.912-2.98 8.213-6.42 1.896-2.833 2.466-5.845 1.636-9.575-1.498-6.739-7.211-12.202-12.783-15.73-2.535-1.605-5.35-2.718-8.024-4.077-2.982-.934-5.905-2.08-8.945-2.8-9.58-2.271-19.922-2.542-29.387.333z" style="fill:#000;fill-opacity:1;stroke:#000;stroke-width:2.93995;stroke-miterlimit:4;stroke-dasharray:none;stroke-opacity:1" transform="matrix(.02596 -.00365 .0029 .02057 147.582 191.14)"/></g><g style="display:inline;stroke:#000;stroke-width:2.9699;stroke-miterlimit:4;stroke-dasharray:none;stroke-opacity:1"><path d="M4235.299 339.107c-.163 13.958-.081 27.907.368 41.857.25 6.723.458 13.447.656 20.171l-6.57 2.2c-.101-6.73-.295-13.458-.53-20.185-.447-13.965-.553-27.927-.522-41.899l6.598-2.144z" style="opacity:1;fill:#000;fill-opacity:1;stroke:#000;stroke-width:2.9699;stroke-linecap:butt;stroke-linejoin:miter;stroke-miterlimit:4;stroke-dasharray:none;stroke-dashoffset:0;stroke-opacity:1" transform="matrix(.02596 -.00365 .00285 .02015 28.966 130.894)"/><path d="M4224.548 334.863c17.345-.435 34.691-.75 52.039-1.014 3.763-.052 2.217-.033 4.637-.06l-4.095 5.637c-2.36-.026-.844-.014-4.549-.01-17.374.123-34.745.482-52.11 1.06l4.078-5.613zM4230.78 365.377c11.459-1.438 22.991-3.273 34.574-3.215 1.423.007 2.84.176 4.26.263l1.975.522-4.566 5.245-1.579-.273c-12.881-.54-25.707 1.526-38.433 3.27l3.77-5.812zM4225.231 396.212c.77.06 1.537.164 2.308.183 6.446.16 12.912-.447 19.333-.866 9.569-.626 8.573-.552 17.91-1.097 5.245.368 10.862-1.604 16.032-.11l-4.559 5.277c-5.098-.518-10.234.442-15.331.413-11.775.686-5.698.31-17.895 1.113-6.563.432-13.212 1.102-19.798.71-.85-.05-1.688-.214-2.532-.321l4.532-5.302z" style="opacity:1;fill:#000;fill-opacity:1;stroke:#000;stroke-width:2.9699;stroke-linecap:butt;stroke-linejoin:miter;stroke-miterlimit:4;stroke-dasharray:none;stroke-dashoffset:0;stroke-opacity:1" transform="matrix(.02596 -.00365 .00285 .02015 28.966 130.894)"/></g><path d="M96.051 90.935c-.013-.007-.026-.016-.04-.02a.474.474 0 0 0-.286-.01.782.782 0 0 0-.279.163c-.104.102-.137.129-.187.255a.565.565 0 0 0-.027.3c.01.049.026.097.052.14a.65.65 0 0 0 .11.131c.157.151.408.228.667.215a.736.736 0 0 0 .18-.033.753.753 0 0 0 .158-.075c.063-.037.071-.053.097-.08l.17-.01c-.13.12-.318.236-.507.286a.83.83 0 0 1-.197.025c-.277.002-.538-.081-.705-.244a.748.748 0 0 1-.12-.143.508.508 0 0 1-.06-.152.657.657 0 0 1 .018-.323.974.974 0 0 1 .418-.463.932.932 0 0 1 .3-.112.577.577 0 0 1 .365.051z" style="display:inline;fill:#000;fill-opacity:1;stroke:#000;stroke-width:.0647303;stroke-miterlimit:4;stroke-dasharray:none;stroke-opacity:1" transform="matrix(1.05975 0 0 1.05981 40.567 25.502)"/><g style="display:inline;stroke:#000;stroke-width:2.93995;stroke-miterlimit:4;stroke-dasharray:none;stroke-opacity:1"><path d="M-583.614-3479.832c13.714-2.376 27.658-3.669 41.575-3.96 3.474-.073 6.95.015 10.424.023 10.458.583 5.67.185 14.376 1.076l-4.251 5.381c-12.63-1.095-5.055-.542-14.091-.998-3.437.01-6.875-.065-10.31.026-13.911.37-27.799 1.846-41.492 4.311l3.769-5.859z" style="fill:#000;fill-opacity:1;stroke:#000;stroke-width:2.93995;stroke-miterlimit:4;stroke-dasharray:none;stroke-opacity:1" transform="matrix(.02596 -.00365 .0029 .02057 168.292 191.14)"/><path d="M-549.128-3478.462c.211 1.281.519 2.55.635 3.844 1.19 13.244-.481 26.564-1.72 39.732-.182 2.089-.971 10.879-1.123 13.547a58.59 58.59 0 0 0-.082 3.57c.002.5.003.82.103 1.498-2.343 1.164-4.242 2.343-5.679 3.626-.36-.42-.63-.912-.872-1.276-.293-.878-.058-5.465-.055-5.51.106-1.753 1.098-12.706 1.178-13.602 1.34-14.066 3.26-28.351 1.33-42.448z" style="fill:#000;fill-opacity:1;stroke:#000;stroke-width:2.93995;stroke-miterlimit:4;stroke-dasharray:none;stroke-opacity:1" transform="matrix(.02596 -.00365 .0029 .02057 168.292 191.14)"/><path d="M-581.286-3421.947c11.158-.668 22.335-.966 33.509-1.198 10.288-.213 15.215-.4 25.286.048 3.068.137 6.127.442 9.19.663 3.012.453 6.938.832 9.973 1.874.572.196 1.059.585 1.588.877l-5.068 4.776c-3.532-1.415-7.418-1.665-10.631-2.159-3.015-.212-6.026-.507-9.045-.635-9.662-.408-15.317-.233-25.158 0-11.175.262-22.356.612-33.505 1.46 1.345-1.988 2.711-4.004 3.86-5.706z" style="fill:#000;fill-opacity:1;stroke:#000;stroke-width:2.93995;stroke-miterlimit:4;stroke-dasharray:none;stroke-opacity:1" transform="matrix(.02596 -.00365 .0029 .02057 168.292 191.14)"/></g><g style="stroke:#000;stroke-width:2.93995;stroke-miterlimit:4;stroke-dasharray:none;stroke-opacity:1"><path d="m-1150.728-3344.783-6.89.892c-9.238 19.857-17.391 40.187-26.047 60.295-1.434 3.378-2.848 6.762-5.15 9.639l6.937-.506c1.943-3.24 3.533-6.66 4.933-10.172 8.471-20.163 16.626-40.478 26.217-60.148z" style="fill:#000;fill-opacity:1;stroke:#000;stroke-width:2.93995;stroke-miterlimit:4;stroke-dasharray:none;stroke-opacity:1" transform="matrix(.02596 -.00365 .0029 .02057 185.879 185.695)"/><path d="m-1148.706-3347.871-6.23 3.137c5.058 13.81 8.467 28.166 12.161 42.384 2.786 11.723 5.173 23.579 9.647 34.803l6.172-3.12c-4.553-11.058-6.838-22.825-9.647-34.407-3.709-14.347-7.163-28.812-12.103-42.797z" style="fill:#000;fill-opacity:1;stroke:#000;stroke-width:2.93995;stroke-miterlimit:4;stroke-dasharray:none;stroke-opacity:1" transform="matrix(.02596 -.00365 .0029 .02057 185.879 185.695)"/><path d="M-1164.642-3309.588c-1.677-.01-3.352 0-5.025.041-7.499.168-1.547.209-7.5.467-.675.03-1.35-.01-2.026-.01l-4.101 5.644c.68 0 1.363.01 2.043-.012 8.89-.28-3.644-.016 7.66-.423 6.659-.24 13.339-.03 19.998.06 7.242.2 14.491.09 21.732.289 2.39.065 5.254.057 7.643.632 1.283-2.028 2.445-3.288 3.57-5.617-1.171-.281-6.752-.528-7.164-.539-7.243-.199-14.499 0-21.742-.252-5.02-.084-10.058-.261-15.088-.28z" style="fill:#000;fill-opacity:1;stroke:#000;stroke-width:2.93995;stroke-miterlimit:4;stroke-dasharray:none;stroke-opacity:1" transform="matrix(.02596 -.00365 .0029 .02057 185.879 185.695)"/></g><g style="display:inline;stroke:#000;stroke-width:2.93995;stroke-miterlimit:4;stroke-dasharray:none;stroke-opacity:1"><path d="M-323.62-1187.44c.73 8.028.606 16.104.757 24.155.094 4.965.373 14.34.515 19.302.3 11.124.047 16.682.133 27.81.062 2.753.19 1.486-6.615 2.746.592-7.767.704-10.824.073-28.392-.028-.777-.535-18.559-.552-19.333-.175-7.92-.095-15.864-.804-23.763z" style="fill:#000;fill-opacity:1;stroke:#000;stroke-width:2.93995;stroke-miterlimit:4;stroke-dasharray:none;stroke-opacity:1" transform="matrix(.02596 -.00365 .0029 .02057 159.204 144.15)"/><path d="M1084.867 194.701c-14.834.277-29.666.673-44.47 1.697l-3.807 5.829c14.732-1.37 29.529-1.737 44.314-1.989a227.22 227.22 0 0 0 8.813-.29l4.256-5.544c-3.218.278-6.44.27-9.106.297z" style="fill:#000;fill-opacity:1;stroke:#000;stroke-width:2.93995;stroke-miterlimit:4;stroke-dasharray:none;stroke-opacity:1" transform="matrix(.02596 -.00365 .0029 .02057 119.945 122.07)"/></g><g style="display:inline;stroke:#000;stroke-width:3.06336;stroke-miterlimit:4;stroke-dasharray:none;stroke-opacity:1"><path d="M4523.862 338.493c-.448.934-.86 1.887-1.345 2.803-2.9 5.475-6.36 10.685-9.721 15.878-14.808 22.87 5.14-8.169-10.626 16.407-6.08 9.93-11.95 19.996-17.318 30.33l-6.875.838c5.481-10.385 11.406-20.531 17.472-30.584 12.25-19.235-1.003 1.504 10.568-16.402 3.297-5.104 6.693-10.23 9.636-15.554.479-.867.884-1.773 1.326-2.66l6.883-1.056z" style="opacity:1;fill:#000;fill-opacity:1;stroke:#000;stroke-width:3.06336;stroke-linecap:butt;stroke-linejoin:miter;stroke-miterlimit:4;stroke-dasharray:none;stroke-dashoffset:0;stroke-opacity:1" transform="matrix(.0244 -.00343 .00285 .02015 41.488 128.999)"/><path d="M4520.973 332.783c.777.924 1.613 1.801 2.33 2.773 4.581 6.224 8.26 13.122 12.004 19.856 5.36 9.643 5.544 10.049 10.84 19.831 3.928 7.952 8.383 15.635 12.369 23.554l-6.098 3.298c-3.77-7.983-8.245-15.626-12.123-23.557-5.28-9.74-5.477-10.187-10.855-19.77-3.68-6.555-7.298-13.31-11.854-19.324-.686-.907-1.495-1.714-2.243-2.57l5.63-4.091z" style="opacity:1;fill:#000;fill-opacity:1;stroke:#000;stroke-width:3.06336;stroke-linecap:butt;stroke-linejoin:miter;stroke-miterlimit:4;stroke-dasharray:none;stroke-dashoffset:0;stroke-opacity:1" transform="matrix(.0244 -.00343 .00285 .02015 41.488 128.999)"/><path d="M4498.655 373.575c13.382-.838 26.793-.67 40.185-.254 4.087.285 8.215.155 12.29.627l-4.325 5.478c-4.006-.333-8.025-.469-12.039-.64-13.31-.407-26.666-.562-39.947.592l3.836-5.803z" style="opacity:1;fill:#000;fill-opacity:1;stroke:#000;stroke-width:3.06336;stroke-linecap:butt;stroke-linejoin:miter;stroke-miterlimit:4;stroke-dasharray:none;stroke-dashoffset:0;stroke-opacity:1" transform="matrix(.0244 -.00343 .00285 .02015 41.488 128.999)"/></g><path d="M107.831 89.35c-.028-.064-.09-.11-.188-.107a.536.536 0 0 0-.201.051.543.543 0 0 0-.106.058c-.027.019-.051.047-.064.061-.031.034-.056.076-.037.115a.094.094 0 0 0 .044.043c.251.123.57.175.814.306.055.03.103.057.146.097.088.08.166.19.11.312-.045.1-.199.179-.321.213a2.735 2.735 0 0 1-.3.049 1.492 1.492 0 0 1-.481-.025.915.915 0 0 1-.254-.087.117.117 0 0 1-.046-.05c-.005-.015-.01-.039.001-.054l.146-.047a.04.04 0 0 0-.008.022c.002.013.015.025.028.034a.874.874 0 0 0 .24.079c.186.04.35.023.458.014.066-.005.195-.028.238-.042.063-.02.113-.037.136-.067.078-.098-.009-.202-.077-.265a.669.669 0 0 0-.14-.091c-.17-.094-.38-.136-.565-.204-.05-.018-.102-.035-.15-.056-.04-.017-.08-.033-.114-.056a.188.188 0 0 1-.062-.065c-.091-.176.266-.348.436-.41a.477.477 0 0 1 .236-.04.266.266 0 0 1 .233.143z" style="display:inline;fill:#000;fill-opacity:1;stroke:#000;stroke-width:.0647303;stroke-miterlimit:4;stroke-dasharray:none;stroke-opacity:1" transform="matrix(1.05975 0 0 1.05981 40.567 25.502)"/><g style="stroke:#000;stroke-width:2.93995;stroke-miterlimit:4;stroke-dasharray:none;stroke-opacity:1"><path d="M-874.779-3340.203c1.887 12.563 2.329 25.297 2.746 37.978.193 7.707.296 15.417.223 23.126l-6.638 2.091c.237-8.02.088-16.167-.022-23.034-.389-12.547-.81-25.159-2.782-37.574l6.474-2.587z" style="fill:#000;fill-opacity:1;stroke:#000;stroke-width:2.93995;stroke-miterlimit:4;stroke-dasharray:none;stroke-opacity:1" transform="matrix(.02596 -.00365 .00114 .02082 182.23 186.257)"/><path d="M-882.76-3341.975c16.285-1.59 32.603-2.763 48.942-3.621l5.05-.222-3.951 5.629-4.992.188c-16.32.809-32.622 1.983-48.856 3.855zM-869.946-3312.536a728.189 728.189 0 0 1 30.799-1.79l-3.899 5.55c-10.736.554-21.633 1.139-30.792 1.99zM-878.468-3280.873c16.792 1.16 33.616.223 50.405-.469 4.745-.247 9.498-.362 14.24-.676l-3.996 5.721c-4.93.131-9.928.367-14.145.507-16.853.64-33.719 1.418-50.58.527z" style="fill:#000;fill-opacity:1;stroke:#000;stroke-width:2.93995;stroke-miterlimit:4;stroke-dasharray:none;stroke-opacity:1" transform="matrix(.02596 -.00365 .00114 .02082 182.23 186.257)"/></g><path d="M112.618 88.457c-.094.035-.31.18-.359.228-.07.07-.138.16-.183.241a.863.863 0 0 0-.063.14.643.643 0 0 0-.032.145c-.012.133.025.268.153.355.11.075.248.1.346.12.07.012.144.018.218.018.219 0 .45-.065.612-.194a.37.37 0 0 0 .134-.19.553.553 0 0 0-.211-.602 1.062 1.062 0 0 0-.368-.194 1.005 1.005 0 0 0-.505-.032c-.02.004-.033.01-.049.017.022-.042.046-.082.066-.124a.577.577 0 0 1 .071-.013 1.225 1.225 0 0 1 .918.26c.16.125.257.297.26.483a.497.497 0 0 1-.128.34c-.193.201-.399.304-.665.347a1.323 1.323 0 0 1-.462-.006.945.945 0 0 1-.372-.143.428.428 0 0 1-.178-.393.683.683 0 0 1 .03-.152 1.117 1.117 0 0 1 .337-.496 2.26 2.26 0 0 1 .351-.223z" style="fill:#000;fill-opacity:1;stroke:#000;stroke-width:.0647303;stroke-miterlimit:4;stroke-dasharray:none;stroke-opacity:1" transform="matrix(1.05975 0 0 1.05981 40.567 25.502)"/><g style="display:inline;stroke:#000;stroke-width:2.93995;stroke-miterlimit:4;stroke-dasharray:none;stroke-opacity:1"><path d="M-803.218-3485.62c1.283 14.362-.31 28.833-1.139 43.184-.26 11.467-.917 23.107.61 34.525l-6.49 2.481c-1.289-12.161-.787-24.6-.56-35.073.782-14.156 2.309-28.426 1.086-42.592z" style="fill:#000;fill-opacity:1;stroke:#000;stroke-width:2.93995;stroke-miterlimit:4;stroke-dasharray:none;stroke-opacity:1" transform="matrix(.02596 -.00365 .0029 .02057 192.277 187.812)"/><path d="M-813.491-3485.367c19.398-2.56 38.837-4.674 58.379-5.698l-3.888 5.584c-20.204 1.027-40.694 3.183-57.735 6.272zM-809.797-3452.794c12.667-2.134 25.543-2.352 38.356-2.142l3.326.13-4.155 5.535-3.249-.128c-12.758-.202-25.53.25-38.138 2.388z" style="fill:#000;fill-opacity:1;stroke:#000;stroke-width:2.93995;stroke-miterlimit:4;stroke-dasharray:none;stroke-opacity:1" transform="matrix(.02596 -.00365 .0029 .02057 192.277 187.812)"/></g><g style="display:inline;stroke:#000;stroke-width:2.93995;stroke-miterlimit:4;stroke-dasharray:none;stroke-opacity:1"><path d="M-1138.412-1186.01c-.67 1.71-1.309 3.431-2.008 5.128-2.538 6.155-7.863 18.509-10.293 24.182-4.456 10.402-8.856 20.82-13.531 31.126l-3.145 7.036c-3.671.01-4.778.887-7.957 1.342 11.73-22.258 22.005-47.573 30.094-67.606z" style="fill:#000;fill-opacity:1;stroke:#000;stroke-width:2.93995;stroke-miterlimit:4;stroke-dasharray:none;stroke-opacity:1" transform="matrix(.02596 -.00365 .0029 .02057 198.523 138.664)"/><path d="M-1138.64-1185.5c3.462 10.994 6.664 22.077 10.832 32.837 1.275 3.291 2.692 6.526 4.038 9.79 3.425 7.847 6.892 15.696 11.425 22.978l-5.825 3.766c-4.453-7.933-8.404-16.287-11.471-23.433-1.368-3.296-2.803-6.564-4.102-9.887-4.16-10.643-7.48-21.584-10.889-32.482z" style="fill:#000;fill-opacity:1;stroke:#000;stroke-width:2.93995;stroke-miterlimit:4;stroke-dasharray:none;stroke-opacity:1" transform="matrix(.02596 -.00365 .0029 .02057 198.523 138.664)"/><path d="M-1165.294-1143.88c14.148-1.302 28.378-1.298 42.565-2.032 4.66-.31 2.653-.144 6.023-.452l-4.143 5.753c-5.297.299-1.7.105-6.034.326-14.09.624-28.268.535-42.262 2.334z" style="fill:#000;fill-opacity:1;stroke:#000;stroke-width:2.93995;stroke-miterlimit:4;stroke-dasharray:none;stroke-opacity:1" transform="matrix(.02596 -.00365 .0029 .02057 198.523 138.664)"/></g><g style="display:inline;stroke:#000;stroke-width:2.93995;stroke-miterlimit:4;stroke-dasharray:none;stroke-opacity:1"><path d="M-786.539-1184.282c.92 3.715 1.574 6.036 2.122 10.054 1.803 13.206 2.248 24.98 2.811 38.278.321 7.594.613 15.396.36 24.436-2.377 1.028-4.891 1.752-7.21 2.911.202-9.542.481-15.837.188-23.564-.5-13.153-.668-26.405-2.487-39.463-.538-3.861-1.176-6.112-2.068-9.671z" style="fill:#000;fill-opacity:1;stroke:#000;stroke-width:2.93995;stroke-miterlimit:4;stroke-dasharray:none;stroke-opacity:1" transform="matrix(.02596 -.00365 .0029 .02057 190.619 139.724)"/><path d="M600.273 132.594c-13.043.073-26.087.65-39.078 1.804l-3.181 6.204c17.216-1.897 33.952-2.78 51.261-2.446l5.293.29 4.157-5.471c-1.804-.097-3.607-.192-5.41-.29a517.426 517.426 0 0 0-13.042-.091zM614.727 166.443c-14.41-.053-28.873.164-43.192 1.895l-3.642 5.95c14.121-2.234 28.499-2.402 42.77-2.28z" style="fill:#000;fill-opacity:1;stroke:#000;stroke-width:2.93995;stroke-miterlimit:4;stroke-dasharray:none;stroke-opacity:1" transform="matrix(.02596 -.00365 .0029 .02057 151.36 117.644)"/></g><g style="stroke:#000;stroke-width:2.93995;stroke-miterlimit:4;stroke-dasharray:none;stroke-opacity:1"><path d="M-800.93-3339.499c2.495 19.316 4.294 38.711 6.355 58.076l.321 2.767-6.497 2.415-.263-2.802c-1.806-19.297-3.621-38.605-6.315-57.802z" style="fill:#000;fill-opacity:1;stroke:#000;stroke-width:2.93995;stroke-miterlimit:4;stroke-dasharray:none;stroke-opacity:1" transform="matrix(.02596 -.00365 .0029 .02057 198.621 183.998)"/><path d="M-805.18-3340.436c1.399-.285 2.786-.637 4.197-.857 13.736-2.146 27.762-2.417 41.633-2.752l5.234.164-4.103 5.516-5.087-.124c-15.192.357-30.567.709-45.456 4.017zM-798.848-3311.152c12.598-1.955 25.384-2.45 38.112-2.86 1.021-.02 2.043-.038 3.064-.057l-4.034 5.63-3.006.042c-12.703.373-25.428 1.035-37.995 3.028l3.859-5.783z" style="fill:#000;fill-opacity:1;stroke:#000;stroke-width:2.93995;stroke-miterlimit:4;stroke-dasharray:none;stroke-opacity:1" transform="matrix(.02596 -.00365 .0029 .02057 198.621 183.998)"/></g><path d="M121.753 87.28c.322-.07.647-.127.972-.182l.625-.11c.033-.006.134-.026.18-.026.008 0 .015.004.023.006l-.098.11c-.025.01.008-.001-.067.01l-.113.019-.624.108c-.323.056-.648.112-.967.19l.07-.125z" style="fill:#000;fill-opacity:1;stroke:#000;stroke-width:.0647303;stroke-linecap:butt;stroke-linejoin:miter;stroke-miterlimit:4;stroke-dasharray:none;stroke-dashoffset:0;stroke-opacity:1" transform="matrix(1.05975 0 0 1.05981 40.567 25.502)"/><path d="M122.611 87.183c.023.187.075.369.114.553.054.228.09.458.155.684l-.153.068c-.061-.227-.1-.459-.153-.687-.04-.185-.093-.367-.12-.554l.157-.064z" style="fill:#000;fill-opacity:1;stroke:#000;stroke-width:.0647303;stroke-linecap:butt;stroke-linejoin:miter;stroke-miterlimit:4;stroke-dasharray:none;stroke-dashoffset:0;stroke-opacity:1" transform="matrix(1.05975 0 0 1.05981 40.567 25.502)"/><path d="M121.712 88.436c.26-.035.52-.072.779-.108.39-.06.783-.104 1.176-.15.027.013.083-.02.115-.006.014.006.02.018.03.028l-.152.07c.009.006.028.009.027.018-.004.028-.152-.064-.107.01a28.44 28.44 0 0 0-1.172.148l-.782.111.086-.121z" style="fill:#000;fill-opacity:1;stroke:#000;stroke-width:.0647303;stroke-linecap:butt;stroke-linejoin:miter;stroke-miterlimit:4;stroke-dasharray:none;stroke-dashoffset:0;stroke-opacity:1" transform="matrix(1.05975 0 0 1.05981 40.567 25.502)"/><g style="display:inline;stroke:#000;stroke-width:2.93995;stroke-miterlimit:4;stroke-dasharray:none;stroke-opacity:1"><path d="m-160.435-3483.844-6.472 2.586c1.601 13.42 2.3 26.896 2.736 40.397.21 10.115.24 20.247 1.076 30.334l6.47-2.348c-.868-10.027-.944-20.1-1.146-30.158-.442-13.634-1.123-27.25-2.664-40.81z" style="fill:#000;fill-opacity:1;stroke:#000;stroke-width:2.93995;stroke-miterlimit:4;stroke-dasharray:none;stroke-opacity:1" transform="matrix(.02596 -.00365 .0029 .02057 186.274 188.59)"/><path d="M-163.45-3485.08c.566.767 1.07 1.584 1.697 2.303 4.585 5.262 9.423 10.061 14.382 14.988 8.92 8.861 18.098 17.455 27.16 26.17 6.16 5.927 11.798 12.345 17.364 18.82 1.024 1.337 2.639 3.021 3.257 3.486-1.69 1.12-5.174 4.13-6.149 3.64-3.613-3.07-4.67-8.208-5.298-11.73-.26-2.519-.636-5.028-.78-7.556-.42-7.39-.235-14.394.007-21.795.25-7.648.63-15.28 1.425-22.89 1.114-3.908.868-5.288 6.644-7.033.865-.261 1.347 1.205 2.02 1.808-1.164 1.036-1.78 2.087-2.033 3.404-.96 7.536-1.364 15.1-1.638 22.693-.262 7.228-.452 14.216-.034 21.438.142 2.461.52 4.904.78 7.356.45 2.696.56 5.745 2.349 7.988.728.913 2.32 2.082 2.223 2.246-1.18 1.994-3.386 3.164-4.977 4.848-1.106-1.425-2.339-2.718-3.464-4.057-5.432-6.467-11.018-12.805-17.093-18.683-9.062-8.742-18.238-17.363-27.195-26.214-3.515-3.474-11.275-11.114-14.807-15.248-.87-1.02-1.522-2.207-2.283-3.31l6.444-2.672z" style="fill:#000;fill-opacity:1;stroke:#000;stroke-width:2.93995;stroke-miterlimit:4;stroke-dasharray:none;stroke-opacity:1" transform="matrix(.02596 -.00365 .0029 .02057 186.274 188.59)"/></g><g style="display:inline;stroke:#000;stroke-width:2.93995;stroke-miterlimit:4;stroke-dasharray:none;stroke-opacity:1"><path d="M-882.894-3483.851c14.934-1.802 34.826-2.26 49.848-2.716 5.095.138 2.957-.097 6.44.422l-4.364 5.413c-5.41-.377-1.238-.17-6.024-.267-14.952.404-34.799.868-49.616 3.046z" style="fill:#000;fill-opacity:1;stroke:#000;stroke-width:2.93995;stroke-miterlimit:4;stroke-dasharray:none;stroke-opacity:1" transform="matrix(.02596 -.00365 .00407 .0204 210.978 185.165)"/><path d="M-876.475-3480.11c.053 2.146.195 4.293.157 6.44-.071 4.052-.823 15.253-1.05 19.014-.546 9.03-1.03 18.024-1.166 27.068.105 4.246.068 8.515.357 12.755l-6.55.47c-.147-.863-.145-2.935-.228-5.098l-.067-6.062c.14-9.09.64-18.128 1.18-27.203.226-3.798.93-14.665 1.026-18.778.046-1.98-.054-3.962-.08-5.943l6.421-2.663z" style="fill:#000;fill-opacity:1;stroke:#000;stroke-width:2.93995;stroke-miterlimit:4;stroke-dasharray:none;stroke-opacity:1" transform="matrix(.02596 -.00365 .00407 .0204 210.978 185.165)"/><path d="M-879.583-3451.197c13.18-1.463 26.4-2.559 39.631-3.433l-3.903 5.668c-13.767 1.01-27.738 2.055-39.447 3.583zM-880.878-3419.968c17.085-1.412 35.549-2.005 52.69-1.95-2.602 4.342-1.204 4.076 1.69.028.517-.022 1.36-.435 1.114.058-2.846 5.723-3.72 5.347-8.196 5.415a499.386 499.386 0 0 0-51.22 2.161z" style="fill:#000;fill-opacity:1;stroke:#000;stroke-width:2.93995;stroke-miterlimit:4;stroke-dasharray:none;stroke-opacity:1" transform="matrix(.02596 -.00365 .00407 .0204 210.978 185.165)"/></g><path d="M89.221 91.536c-.166.144-.218.181-.315.374a.957.957 0 0 0-.11.448.77.77 0 0 0 .162.456c.139.202.363.344.621.41v.164c-.327-.064-.611-.23-.783-.48a1.139 1.139 0 0 1-.133-.247.877.877 0 0 1-.048-.25 1.21 1.21 0 0 1 .096-.51c.034-.077.084-.148.136-.216.095-.121.233-.234.324-.306z" style="display:inline;fill:#000;fill-opacity:1;stroke:#000;stroke-width:.056271;stroke-miterlimit:4;stroke-dasharray:none;stroke-opacity:1" transform="matrix(1.05975 0 0 1.05981 40.567 25.502)"/><path d="M128.496 87.716c.16-.076.268-.227.335-.361.04-.08.046-.16.054-.249.026-.284-.073-.52-.259-.736a1.497 1.497 0 0 0-.47-.388l.166-.149c.232.132.357.254.494.417.2.235.31.539.293.847a.97.97 0 0 1-.057.285.795.795 0 0 1-.154.259c-.104.111-.209.2-.318.268z" style="display:inline;fill:#000;fill-opacity:1;stroke:#000;stroke-width:.0651078;stroke-miterlimit:4;stroke-dasharray:none;stroke-opacity:1" transform="matrix(1.05975 0 0 1.05981 40.567 25.502)"/></g><g style="stroke-width:.94359"><path d="m18.766 111.456.044-73.6 62.4.036-.043 73.601zm0 0" style="fill:#fff;fill-opacity:1;fill-rule:nonzero;stroke:#fff;stroke-width:.0399453;stroke-linecap:butt;stroke-linejoin:miter;stroke-miterlimit:10;stroke-opacity:1" transform="matrix(1.05902 .03917 -.03917 1.0591 32.196 2.772)"/><path d="m21.975 97.058.033-56.001 56 .033-.033 56.001zm0 0" style="fill:#fafafa;fill-opacity:1;fill-rule:nonzero;stroke:#fafafa;stroke-width:.0399453;stroke-linecap:butt;stroke-linejoin:miter;stroke-miterlimit:10;stroke-opacity:1" transform="matrix(1.05902 .03917 -.03917 1.0591 32.196 2.772)"/><path d="m21.975 97.058.033-56.001 56 .033-.033 56.001zm0 0" style="fill:none;stroke:#000;stroke-width:.0165773;stroke-linecap:butt;stroke-linejoin:miter;stroke-miterlimit:10;stroke-opacity:1" transform="matrix(1.05902 .03917 -.03917 1.0591 32.196 2.772)"/><path d="m18.766 111.456.044-73.6 62.4.036-.043 73.601zm0 0" style="fill:none;stroke:#000;stroke-width:.188718;stroke-linecap:butt;stroke-linejoin:miter;stroke-miterlimit:10;stroke-opacity:1" transform="matrix(1.05902 .03917 -.03917 1.0591 32.196 2.772)"/></g><g style="stroke-width:.554252;stroke-miterlimit:4;stroke-dasharray:none"><path d="M-33.862 76.605c3.645.023 7.289-.023 10.934.003 7.7.055 15.394-.016 23.092-.05 7.674-.035 16.34-.024 24.509.001 8.382.026 16.72.046 25.136.015 8.955-.032 17.909.018 26.863-.139 7.421-.085 15.504.129 22.365-.015 2.793-.058 5.58-.009 8.373-.05l-.001.262c-2.79.039-5.575-.014-8.365.046-6.606.14-14.948-.073-22.372.011-8.953.156-17.907.105-26.862.138-8.455.03-16.759.014-25.143-.013-8.167-.026-16.727-.046-24.501-.003-7.702.043-15.4.108-23.103.057-3.637-.024-7.273.022-10.91.003l-.015-.266z" style="fill:#000;fill-opacity:1;stroke:#000;stroke-width:.554252;stroke-linecap:butt;stroke-linejoin:round;stroke-miterlimit:4;stroke-dasharray:none;stroke-dashoffset:0;stroke-opacity:1" transform="matrix(.37003 .01369 -.013 .35141 69.169 51.4)"/><path d="M102.493 73.947c1.502.326 2.972.778 4.452 1.192 1.284.4 2.614.645 3.889 1.073.194.083.507.18.246.47-.064.072-.175.078-.265.111-.23.085-.699.226-.905.29-1.784.516-3.612.86-5.435 1.211-.562.103-1.124.208-1.678.35l-.051-.257c.559-.14 1.125-.246 1.692-.348 1.814-.349 3.634-.69 5.409-1.209.459-.143.481-.146.887-.287.06-.02.117-.08.18-.065.045.01.049.08.067.124.035.083-.37-.648-.23-.14-1.269-.432-2.596-.674-3.875-1.075-1.477-.413-2.945-.864-4.445-1.184l.062-.256z" style="fill:#000;fill-opacity:1;stroke:#000;stroke-width:.554252;stroke-linecap:butt;stroke-linejoin:round;stroke-miterlimit:4;stroke-dasharray:none;stroke-dashoffset:0;stroke-opacity:1" transform="matrix(.37003 .01369 -.013 .35141 69.169 51.4)"/></g><path d="M38.306 64.315c.01-.666.028-1.33.063-1.995.058-1.06.072-2.123.104-3.185.004-.17.066-1.39.13-3.23.08-2.25.23-5.425.344-8.739.239-6.887.46-14.37.512-15.364.07-1.33.129-3.422.18-4.752.078-2.08.13-3.447.14-3.669.049-1.166.08-2.332.111-3.499.025-1.111.05-2.222.101-3.332.055-1.111.094-2.223.128-3.334 0-.696.066-1.39.078-2.085v-.155l.076-.007v.155c-.012.696-.08 1.39-.08 2.086a177.906 177.906 0 0 1-.127 3.334c-.051 1.11-.077 2.221-.102 3.332-.03 1.167-.062 2.334-.11 3.5-.032.73-.473 13.862-.845 24.008-.073 2.01-.182 3.903-.243 5.56-.126 3.458-.213 5.883-.218 6.186-.032 1.061-.047 2.124-.104 3.185a51.45 51.45 0 0 0-.061 1.994l-.077.006z" style="fill:#000;fill-opacity:1;stroke:#000;stroke-width:.2;stroke-linecap:butt;stroke-linejoin:round;stroke-miterlimit:4;stroke-dasharray:none;stroke-dashoffset:0;stroke-opacity:1" transform="translate(43.112 41.287)"/><path d="M39.278 13.484c.166-.44.316-.888.462-1.336.133-.39.233-.79.374-1.176.024-.076.088-.182.174-.103.04.036.068.119.087.163.147.422.225.866.314 1.304.086.444.168.89.304 1.32.04.117.019.064.062.158l-.08.05c-.047-.102-.024-.046-.067-.168-.137-.434-.22-.882-.305-1.33-.088-.432-.166-.87-.309-1.287-.017-.042-.037-.083-.054-.126-.003-.008.008-.031.002-.026-.024.022-.037.066-.047.091-.14.386-.24.785-.374 1.173a32.2 32.2 0 0 1-.463 1.342l-.08-.05z" style="fill:#000;fill-opacity:1;stroke:#000;stroke-width:.2;stroke-linecap:butt;stroke-linejoin:round;stroke-miterlimit:4;stroke-dasharray:none;stroke-dashoffset:0;stroke-opacity:1" transform="translate(43.112 41.287)"/><g style="stroke-width:.9619"><g style="display:inline;stroke-width:4.64012"><path d="M-1185.94-3414.064c3.96-10.215 7.115-16.332 11.766-26.248 6.15-13.033 13.16-25.715 17.962-39.335.806-2.783.648-2.006 1.1-4.158.054-.258-.1-.697.153-.776 7.952-2.49 5.837-3.327 7.103-.527 1.919 3.037 2.396 7.38 3.247 10.775.575 2.295 1.181 4.582 1.772 6.873 4.436 16.285 9.057 29.753 14.656 45.663.936 3.082 2.166 6.363 2.516 8.956-1.829 1.423-3.91 2.489-5.865 3.733l-.889-3.119c-.572-2.527-1.104-3.964-1.937-6.602-5.506-16.02-10.175-29.541-14.723-45.867-.613-2.297-1.238-4.59-1.837-6.891-.42-1.614-.823-3.232-1.22-4.85-.71-5.171 2.181-6.013 2.704-4.448-4.69 13.77-11.816 26.517-18.021 39.633-3.185 6.803-4.65 9.856-7.715 16.712-.862 1.93-2.407 5.136-3.216 7.252-.262.686-.448 1.4-.672 2.1z" style="fill:#000;fill-opacity:1;stroke:none;stroke-width:.464012;stroke-miterlimit:4;stroke-dasharray:none;stroke-opacity:1" transform="matrix(.06081 .00225 -.00225 .06075 133.109 327.297)"/><path d="M-1179.978-3434.788c-1.476-.66-2.99-2.354-4.747-2.145 1.99-2.65.04-1.552 5.294-5.365.609-.442 1.504.026 2.256.036 1.26.018 2.52.033 3.779.044 4.48.036 7.584.04 12.18.055 6.86.01 13.72.01 20.58-.013 2.952-.01 5.782-.203 8.643.568l.859 1.047-5.969 3.645.552.583c-2.695-.375-5.392-.296-8.11-.3-6.859-.012-13.717 0-20.575 0-5.358 0-10.72.052-16.077-.05-.787-.014-2.454.702-2.359-.078.818-6.705 1.218-6.393 3.46-5.508 2.033.717 3.857 1.869 5.637 3.07-1.8 1.47-3.602 2.944-5.403 4.413z" style="fill:#000;fill-opacity:1;stroke:none;stroke-width:.464012;stroke-miterlimit:4;stroke-dasharray:none;stroke-opacity:1" transform="matrix(.06081 .00225 -.00225 .06075 133.109 327.297)"/></g><g style="display:inline;stroke-width:4.64012"><path d="M-786.539-1184.282c.92 3.715 1.574 6.036 2.122 10.054 1.803 13.206 2.248 24.98 2.811 38.278.321 7.594.613 15.396.36 24.436-2.377 1.028-4.891 1.752-7.21 2.911.202-9.542.481-15.837.188-23.564-.5-13.153-.668-26.405-2.487-39.463-.538-3.861-1.176-6.112-2.068-9.671z" style="fill:#000;fill-opacity:1;stroke:none;stroke-width:.464012;stroke-miterlimit:4;stroke-dasharray:none;stroke-opacity:1" transform="matrix(.06081 .00225 -.00225 .06075 119.035 186.785)"/><path d="M600.273 132.594c-13.043.073-26.087.65-39.078 1.804l-3.181 6.204c17.216-1.897 33.952-2.78 51.261-2.446l5.293.29 4.157-5.471c-1.804-.097-3.607-.192-5.41-.29a517.426 517.426 0 0 0-13.042-.091zM614.727 166.443c-14.41-.053-28.873.164-43.192 1.895l-3.642 5.95c14.121-2.234 28.499-2.402 42.77-2.28z" style="fill:#000;fill-opacity:1;stroke:none;stroke-width:.464012;stroke-miterlimit:4;stroke-dasharray:none;stroke-opacity:1" transform="matrix(.06081 .00225 -.00225 .06075 38.985 103.764)"/></g><g style="display:inline;stroke-width:4.09234"><path d="M-802.142 437.93c1.043 0 .219 2.462.258 3.697.123 3.916.006 10.89-.037 14.468-.123 10.319-.254 20.622-.16 30.941.477 11.088.182 5.882.835 15.62l-5.385 2.454c-.633-9.866-.343-4.59-.828-15.827-.108-10.336.012-20.657.103-30.993.017-2.007.111-11.373.03-14.174-.035-1.185-.165-2.365-.247-3.547l5.43-2.64z" style="fill:#000;fill-opacity:1;stroke:none;stroke-width:.409235;stroke-miterlimit:4;stroke-dasharray:none;stroke-opacity:1" transform="matrix(.07508 .00278 -.00234 .06326 138.951 87.837)"/><path d="M-810.341 437.704c15.264-1.74 30.635-1.83 45.976-1.847l-4.26 5.47s-30.55.214-45.715 2.122zM-800.568 471.652c11.018-1.18 22.068-1.905 33.135-2.418l-4.146 5.043s-21.95 1.24-32.85 2.675z" style="fill:#000;fill-opacity:1;stroke:none;stroke-width:.409235;stroke-miterlimit:4;stroke-dasharray:none;stroke-opacity:1" transform="matrix(.07508 .00278 -.00234 .06326 138.951 87.837)"/></g><g style="stroke-width:4.64012"><path d="M-582.844-3340.874c18.77-.46 37.538-.84 56.309-.306l2.546.152-4.216 5.511-2.44-.157c-18.76-.67-37.522-.201-56.277.413z" style="fill:#000;fill-opacity:1;stroke:none;stroke-width:.464012;stroke-miterlimit:4;stroke-dasharray:none;stroke-opacity:1" transform="matrix(.06081 .00225 -.00225 .06075 109.033 317.641)"/><path d="M-551.937-3337.137c1.167 16.64 2.38 33.284 3.384 49.936.3 5.785.558 11.573.652 17.365l-6.625 2.142c.106-6.014-.241-12.114-.435-17.258-.94-16.612-2.133-33.22-3.502-49.8z" style="fill:#000;fill-opacity:1;stroke:none;stroke-width:.464012;stroke-miterlimit:4;stroke-dasharray:none;stroke-opacity:1" transform="matrix(.06081 .00225 -.00225 .06075 109.033 317.641)"/><path d="M-581.46-3278.87c11.006.278 22.005-.24 33.007-.394 6.413-.089 11.989-.01 18.367.044 5.819.162 11.666.224 17.459-.433l-3.889 5.764c-6.12.29-12.341.31-17.58.15-17.153-.15-34.286.47-51.438.474z" style="fill:#000;fill-opacity:1;stroke:none;stroke-width:.464012;stroke-miterlimit:4;stroke-dasharray:none;stroke-opacity:1" transform="matrix(.06081 .00225 -.00225 .06075 109.033 317.641)"/></g><g style="stroke-width:4.64012"><path d="M-151.569-3340.979c1.165 15.385.48 30.844.166 46.25-.147 6.794-.249 13.589-.328 20.383l-6.56 2.084c.152-7.117.31-14.341.444-20.432.33-15.244.971-30.538-.215-45.76z" style="fill:#000;fill-opacity:1;stroke:none;stroke-width:.464012;stroke-miterlimit:4;stroke-dasharray:none;stroke-opacity:1" transform="matrix(.06081 .00225 -.00225 .06075 88.03 316.755)"/><path d="M-148.907-3340.04c6.664 6.403 12.15 13.892 17.92 21.075 2.195 2.73 4.403 5.45 6.605 8.174l6.818 8.507c5.4 6.968 10.87 13.896 16.553 20.638 1.988 6.954-2.354 7.641-1.704-.127.024-1.973.072-3.947.071-5.921 0-10.237-.212-7.489-.028-18.481.15-8.976.582-17.95.96-26.918.076-1.749.15-3.497.227-5.245.072-1.654.137-3.126.202-4.646.01-.136-.12-.366.01-.408 6.873-2.251 6.64-3.909 6.59-1.078-1.515.482-4.576 1.468-6.59 1.916.157-2.813-.106-.775 6.717-2.775-.132 1.66-.27 3.505-.353 4.994-.098 1.75-.186 3.501-.28 5.252-.433 8.937-.904 17.882-1.053 26.83-.15 8.992.012 9.882.12 18.449.025 2.028.024 4.056.036 6.085-.059 1.005-.007 3.528.122 4.53.214 1.657.532 2.762 1.277 4.038-4.534 5.544-3.627 5.923-5.968 3.986-3.857-3.71-7.116-8.034-10.468-12.184-1.899-2.35-3.82-4.683-5.696-7.051-2.143-2.705-4.24-5.445-6.36-8.167-14.206-17.69.484.572-13.45-16.664-5.687-7.035-11.109-14.388-17.777-20.548l5.499-4.26z" style="fill:#000;fill-opacity:1;stroke:none;stroke-width:.464012;stroke-miterlimit:4;stroke-dasharray:none;stroke-opacity:1" transform="matrix(.06081 .00225 -.00225 .06075 88.03 316.755)"/></g><g style="display:inline;stroke-width:4.64012"><path d="M-865.085-1184.38c.236 1.282.557 2.551.706 3.846.884 7.697.93 13.537 1.085 21.557.241 12.458.19 24.92.15 37.38-.03 4.379-.052 8.758-.13 13.136l-6.656 2.04c.288-4.56.272-9.2.363-13.107.118-12.435.214-24.871-.06-37.305-.166-7.592-.274-13.737-1.147-21.09-.146-1.236-.46-2.445-.69-3.668l6.38-2.788z" style="fill:#000;fill-opacity:1;stroke:none;stroke-width:.464012;stroke-miterlimit:4;stroke-dasharray:none;stroke-opacity:1" transform="matrix(.06081 .00225 -.00225 .06075 141.417 187.347)"/><path d="M-880.628-1182.139c17.14-3.885 34.857-4.953 52.391-5.198l5.46.37-4.174 5.456-5.251-.296c-17.363.296-34.97 1.328-51.83 5.729zM-873.024-1148.652c1.035-.142 2.064-.34 3.105-.427 9.492-.795 19.062-.956 28.579-1.259l-3.962 5.594c-11 .572-22.17.673-31.491 1.951zM-873.871-1119.215c14.721 1.027 29.499.943 44.23.345 9.768-.397 4.56-.19 12.33-.966.69-.07 2.43-.792 2.073-.197-1.369 2.277-2.321 3.751-4.138 5.69-2.051.41-10.237.882-14.191.988-14.908.398-29.89.742-44.765-.503z" style="fill:#000;fill-opacity:1;stroke:none;stroke-width:.464012;stroke-miterlimit:4;stroke-dasharray:none;stroke-opacity:1" transform="matrix(.06081 .00225 -.00225 .06075 141.417 187.347)"/></g></g><path d="M12.45 40.523c2.99-1.197 6.269-2.731 9.209-4.044 6.312-2.82 12.871-5.654 19.28-8.566 5.118-2.363 10.243-4.844 15.456-6.988a266.256 266.256 0 0 0 11.36-5.005l-.014-.186c-3.795 1.652-7.575 3.47-11.396 5.047-5.21 2.151-10.338 4.626-15.456 6.99-6.41 2.913-12.95 5.746-19.282 8.565-2.939 1.31-6.17 2.822-9.158 4.017z" style="fill:red;stroke:red;stroke-width:.3;stroke-linecap:square;stroke-miterlimit:4;stroke-dasharray:none" transform="translate(43.112 41.287)"/><g style="stroke-width:.869975"><g style="stroke-width:.862035"><path d="M57.285 31.408c.269-.123.543-.234.816-.346l.236-.096-.007-.022-.235.096c-.274.112-.549.223-.818.346zM57.427 31.732c.26-.085.513-.184.767-.283l.25-.098-.007-.022-.249.098c-.254.098-.507.198-.766.282z" style="fill:#000;stroke:#000;stroke-width:.172407;stroke-linecap:square;stroke-miterlimit:4;stroke-dasharray:none;stroke-opacity:1" transform="matrix(1.15904 -.03417 .03414 1.16004 33.268 24.895)"/></g><path d="M61.422 23.287a.119.119 0 0 0-.039-.033c-.129-.07-.325-.026-.452.027-.05.02-.095.05-.143.076-.045.036-.094.068-.135.109-.16.158-.262.393-.203.618.012.047.04.088.06.132.032.032.059.072.097.097.118.08.268.071.388.003.118-.067.136-.117.213-.225.073-.145.096-.3.097-.46 0-.083-.012-.163-.013-.246 0 .008-.003.017 0 .024.01.018.025.033.038.05l.058.074a.932.932 0 0 0 .248.237c.08.053.165.084.262.106l.008-.023a.606.606 0 0 1-.256-.102.897.897 0 0 1-.243-.233l-.06-.075c-.013-.018-.023-.04-.041-.054-.01-.007-.025 0-.038-.001.002.082.014.162.014.244a.99.99 0 0 1-.095.449c-.072.102-.087.147-.198.212a.346.346 0 0 1-.366.004c-.036-.024-.061-.061-.092-.092-.02-.041-.046-.08-.058-.125-.057-.216.04-.441.192-.594.04-.04.088-.071.132-.107.046-.025.09-.054.14-.075.118-.05.307-.094.43-.032a.094.094 0 0 1 .035.029z" style="fill:#000;stroke:#000;stroke-width:.173995;stroke-linecap:square;stroke-miterlimit:4;stroke-dasharray:none;stroke-opacity:1" transform="matrix(1.14897 0 0 1.14995 33.581 30.972)"/><g style="stroke:#000;stroke-width:.380151;stroke-miterlimit:4;stroke-dasharray:none;stroke-opacity:1"><path d="M19.604 114.646c.536.356 1.052.742 1.566 1.127.366.279.746.538 1.121.804l.032-.042c-.39-.28-.793-.554-1.12-.802a34.442 34.442 0 0 0-1.57-1.13z" style="fill:#000;stroke:#000;stroke-width:.380151;stroke-linecap:square;stroke-miterlimit:4;stroke-dasharray:none;stroke-opacity:1" transform="matrix(.4814 -.213 .21244 .48098 70.88 6.473)"/><path d="M21.906 114.607c-.54.452-1.236.956-1.793 1.386-.114.088-.304.242-.472.376l.037.035c.173-.137.358-.288.472-.375.559-.427 1.253-.934 1.793-1.385z" style="fill:#000;stroke:#000;stroke-width:.380151;stroke-linecap:square;stroke-miterlimit:4;stroke-dasharray:none;stroke-opacity:1" transform="matrix(.4814 -.213 .21244 .48098 70.88 6.473)"/></g><g style="stroke:#000;stroke-width:.380151;stroke-miterlimit:4;stroke-dasharray:none;stroke-opacity:1"><path d="M23.707 115.703c.565-.008 1.129-.052 1.693-.085.462-.025.241-.01.66-.042l.003-.052v0c-.419.032-.199.017-.66.043-.563.033-1.127.076-1.69.084z" style="fill:#000;stroke:#000;stroke-width:.380151;stroke-linecap:square;stroke-miterlimit:4;stroke-dasharray:none;stroke-opacity:1" transform="matrix(.4814 -.213 .21244 .48098 70.977 6.373)"/><path d="M24.748 114.69c.104.502.162 1.013.221 1.522.01.079.018.158.026.237l.052-.008-.027-.238c-.059-.51-.117-1.023-.222-1.527z" style="fill:#000;stroke:#000;stroke-width:.380151;stroke-linecap:square;stroke-miterlimit:4;stroke-dasharray:none;stroke-opacity:1" transform="matrix(.4814 -.213 .21244 .48098 70.977 6.373)"/></g><path d="M64.903 19.837c.165.36.338.74.498 1.1.149.336.29.674.446 1.006.026.057.055.114.09.167.01.016.018.024.02.021.007-.007.01-.018.014-.026-.038-.102-.084-.2-.124-.3a.635.635 0 0 1 .003-.46.633.633 0 0 1 .045-.097.397.397 0 0 1 .292-.212.414.414 0 0 1 .206.023c.036.01.07.028.103.047.124.07.225.186.258.326a.402.402 0 0 1 .001.178c-.039.148-.179.233-.305.3a.882.882 0 0 1-.321.09v.024a.963.963 0 0 0 .33-.093c.136-.07.28-.161.32-.321a.3.3 0 0 0 .01-.091.389.389 0 0 0-.049-.194.573.573 0 0 0-.34-.289.405.405 0 0 0-.217-.024.423.423 0 0 0-.31.23.657.657 0 0 0-.046.1.659.659 0 0 0-.002.473c.04.1.085.196.123.296.006 0 .023.005.019 0-.044-.052-.07-.118-.1-.179-.158-.33-.296-.67-.445-1.005-.16-.361-.333-.741-.497-1.1z" style="fill:#000;stroke:#000;stroke-width:.173995;stroke-linecap:square;stroke-miterlimit:4;stroke-dasharray:none;stroke-opacity:1" transform="matrix(1.14897 0 0 1.14995 33.581 30.972)"/><g style="stroke-width:.862035"><path d="M79.237 64.72c.063.227.212.46.434.562a.51.51 0 0 0 .3.037.696.696 0 0 0 .485-.457c.06-.195.023-.376-.056-.558a.5.5 0 0 0-.08-.13c-.019-.016-.02-.042-.016.014.221.145.437.303.62.495a2.814 2.814 0 0 1 .344.436c.199.316.346.7.291 1.08a.88.88 0 0 1-.065.235c-.09.198-.195.335-.409.41a.563.563 0 0 1-.345-.001l-.006.023c.028.009.065.017.093.02a.56.56 0 0 0 .267-.02.646.646 0 0 0 .307-.227.897.897 0 0 0 .116-.202c.032-.077.054-.158.066-.24.054-.386-.095-.772-.297-1.093a2.723 2.723 0 0 0-.346-.438 3.503 3.503 0 0 0-.62-.496c-.054-.002-.034-.001-.016.021a.48.48 0 0 1 .075.124c.077.177.112.352.054.541a.563.563 0 0 1-.044.105c-.082.151-.245.298-.418.335a.484.484 0 0 1-.288-.034c-.216-.099-.362-.326-.423-.548z" style="fill:#000;stroke:#000;stroke-width:.172407;stroke-linecap:square;stroke-miterlimit:4;stroke-dasharray:none;stroke-opacity:1" transform="matrix(1.14331 .19353 -.19336 1.1443 19.819 -29.141)"/></g></g><path d="M36.449 38.757a1.84 1.84 0 0 0-.782.676c-.164.24-.209.744.053 1.01a.7.7 0 0 0 .374.205c.511.093 1.089-.073 1.479-.38.077-.06.154-.123.22-.196a.926.926 0 0 0 .15-.218c.15-.316-.001-.658-.24-.877a1.086 1.086 0 0 0-.203-.148 1.134 1.134 0 0 0-.907-.082l-.021-.083c.334-.097.67-.079.974.094.078.043.15.098.215.158.275.253.423.638.247.994-.041.084-.1.16-.164.23a1.73 1.73 0 0 1-.233.203c-.338.258-.767.446-1.254.414-.097-.006-.196-.002-.29-.028a.895.895 0 0 1-.42-.243c-.276-.273-.227-.856-.042-1.125.222-.322.48-.525.854-.694z" style="fill:#000;fill-opacity:1;stroke:#000;stroke-width:.200001;stroke-linecap:butt;stroke-linejoin:round;stroke-miterlimit:4;stroke-dasharray:none;stroke-dashoffset:0;stroke-opacity:1" transform="translate(43.112 41.287)"/></svg>