<svg xmlns="http://www.w3.org/2000/svg" xmlns:xlink="http://www.w3.org/1999/xlink" width="634.421" height="325.161" viewBox="0 0 475.816 243.871"><defs><symbol id="a" overflow="visible" style="overflow:visible"><path d="M.344-3.953h.906L.375.234C.156 1.313-.172 1.86-.594 1.86c-.125 0-.203-.078-.203-.171 0-.016.016-.047.047-.11a.264.264 0 0 0 .047-.156c0-.203-.188-.375-.39-.375-.22 0-.376.172-.376.406 0 .344.36.61.797.61.875 0 1.578-.985 1.985-2.813l.718-3.203h1.094l.063-.313H2.109c.282-1.562.657-2.28 1.204-2.28.14 0 .218.062.218.124 0 .031 0 .047-.031.11a.344.344 0 0 0-.063.203c0 .234.157.39.376.39.218 0 .421-.172.421-.39 0-.375-.375-.657-.859-.657-.5 0-.875.22-1.234.688-.313.39-.5.86-.813 1.812H.422zm0 0" style="stroke:none"/></symbol></defs><path d="M320.076 161.906c-1.289.742-2.31 1.623-3.288 2.518-1.574 1.573-2.807 3.268-3.68 5.032-.194.392-.353.79-.53 1.184-.57 1.477-.982 2.99-1.061 4.51-.041.81.025 1.05.139 1.85.385 1.896 1.46 3.7 2.45 5.5 1.236 2.167 2.09 4.402 2.735 6.66.348 1.432.541 2.88.492 4.33-.018.661-.093 1.167-.17 1.82-.168 1.145-.526 2.275-.91 3.399-.134.383-.066.199-.198.552l-6.345-.931c.118-.3.057-.139.184-.485.343-.956.67-1.917.825-2.892.073-.557.135-.983.158-1.544.049-1.236-.116-2.471-.413-3.693-.595-2.076-1.402-4.125-2.55-6.115-1.148-2.093-2.338-4.198-2.697-6.41-.05-.394-.11-.788-.13-1.184-.102-2.165.507-4.328 1.31-6.428.208-.457.396-.917.623-1.37 1.038-2.072 2.491-4.063 4.33-5.915 1.193-1.11 2.452-2.19 3.983-3.138l4.743 2.75zM162.517 196.51c1.288-.742 2.31-1.622 3.287-2.518 1.575-1.572 2.808-3.267 3.68-5.032.195-.39.353-.789.53-1.183.57-1.477.982-2.991 1.062-4.51.04-.811-.026-1.05-.14-1.85-.385-1.896-1.46-3.7-2.449-5.501-1.237-2.167-2.09-4.4-2.735-6.658-.349-1.434-.542-2.882-.493-4.332.018-.66.093-1.166.17-1.819.168-1.145.527-2.275.91-3.4.134-.382.066-.198.198-.55l6.345.93c-.118.3-.057.138-.184.485-.343.956-.67 1.917-.824 2.892-.074.557-.136.982-.158 1.544-.05 1.236.116 2.471.412 3.693.595 2.075 1.402 4.125 2.55 6.114 1.148 2.094 2.338 4.199 2.697 6.41.05.395.11.789.13 1.184.102 2.166-.506 4.33-1.31 6.429-.208.457-.396.916-.623 1.37-1.038 2.071-2.491 4.062-4.33 5.915-1.192 1.11-2.451 2.19-3.983 3.138l-4.743-2.75z" style="opacity:1;fill:#d5ffe6;fill-opacity:1;stroke:none;stroke-width:.1;stroke-linecap:square;stroke-linejoin:miter;stroke-miterlimit:4;stroke-dasharray:none;stroke-opacity:1"/><use xlink:href="#a" width="100%" height="100%" x="217.415" y="156.682" style="fill:#000;fill-opacity:1" transform="matrix(9.33565 0 0 9.33565 -1800.351 -1261.39)"/><path d="M155.006 199.899h31.186v38.966h110.199V199.9h30.934M155.006 158.526h31.186V118.12h110.199v40.406h30.934" style="fill:none;fill-rule:evenodd;stroke:#000;stroke-width:3.67328572px;stroke-linecap:butt;stroke-linejoin:miter;stroke-opacity:1"/><path d="M336.284 128.704c-1.24 5.82-2.64 11.594-3.463 17.494.126.137-.441 2.727-.189 3.05.053.068.272-.117.2-.166-.557-.375-1.505-.304-1.797-.91-.182-.378.647-.537.97-.806 5.636-4.845 11.883-8.819 18.246-12.62 2.219-1.45 4.64-2.446 7.096-3.387l2.006 1.313c-2.427.944-4.882 1.79-7.063 3.28-6.342 3.77-12.575 7.7-18.175 12.536-1.48 1.283-.954 1.25-3.681.582-.311-.077.079-3.462.107-3.559.846-5.913 2.25-11.704 3.468-17.545l2.275.738zM474.437 650.714c-3.343 4.833-6.582 9.736-9.98 14.532a111.876 111.876 0 0 0-3.467 5.022c-.26.396-.632.872-.775 1.347.74-1.094-2.769-.426-1.855-1.184.398-.555 1.307-.749 1.892-.999 1.038-.443 2.376-1.05 3.371-1.496 3.294-1.568 6.669-2.953 10.159-4.017.683-.217 1.39-.319 2.092-.444l1.842 1.534c-.544-.224-1.44.228-1.97.256-3.485 1.015-6.852 2.366-10.124 3.938-.214.097-2.906 1.32-3.366 1.522-.463.202-.914.44-1.4.579-.076.022-.158.006-.238.01l-.023-.012c-.482 1.108-3.029.75-2.638-.49.197-.554.532-1.011.857-1.5 1.132-1.699 2.277-3.39 3.495-5.029 3.412-4.807 6.693-9.703 9.971-14.6l2.157 1.031z" style="opacity:1;fill:#000;fill-opacity:1;stroke:none;stroke-width:.1;stroke-linecap:square;stroke-linejoin:miter;stroke-miterlimit:4;stroke-dasharray:none;stroke-opacity:1"/><path d="M459.402 668.959c4.815-4.544 10.39-8.16 15.924-11.749 6.542-3.905 13.1-7.964 20.242-10.709 1.076-.413 2.182-.739 3.273-1.109 3.377-.956 6.9-1.62 10.418-1.145.696.094 1.394.215 2.06.438 1.331.445 2.608 1.04 3.913 1.559.492.338 1.01.642 1.477 1.014 3.291 2.617 5.503 6.891 7.507 10.481 1.788 3.273 3.28 6.7 5.034 9.99.508.952 1.01 1.911 1.6 2.815 1.804 2.76 2.363 3.124 4.65 5.528 1.077.826 2.094 1.74 3.234 2.478 2.288 1.483 5.374 2.956 8.03 3.6.834.201 1.714.108 2.573.125 5.736.116 3.709.18 9.395-.735 3.872-.935 7.575-2.414 11.116-4.22.712-.364 1.396-.78 2.094-1.17l2.024 1.217c-.709.399-1.404.824-2.127 1.196-3.581 1.842-7.326 3.357-11.234 4.354-3.334.586-6.1 1.334-9.529.903-5.044-.634-10.431-2.427-14.678-5.293-1.143-.771-2.158-1.717-3.237-2.576-2.313-2.506-2.817-2.826-4.643-5.68-.586-.915-1.086-1.885-1.594-2.846-1.738-3.288-3.231-6.703-5.035-9.958-2.003-3.522-4.184-7.73-7.552-10.178-.466-.339-.98-.608-1.47-.912.79-.377.543-.207-1.801-.606-2.428-.413-4.94-.233-7.344.232-.987.19-1.956.466-2.934.699-1.084.354-2.184.663-3.252 1.064-7.127 2.671-13.683 6.737-20.197 10.606-5.484 3.556-10.997 7.14-15.784 11.624l-2.153-1.037zM330.758 146.016c.201-.427.379-.867.604-1.282 2.588-4.781 6.242-9.089 9.612-13.323 5.559-6.762 11.187-13.469 16.99-20.023 3.366-3.801 6.776-7.526 10.192-11.281 5.125-5.559 10.22-11.147 15.423-16.633.457-.474.278-.29.535-.552l2.126 1.107c-.262.205-.074.05-.53.504-5.267 5.43-10.353 11.035-15.501 16.577-3.743 4.103-6.485 7.079-10.19 11.267-5.79 6.547-11.398 13.254-16.933 20.019-3.356 4.23-6.925 8.434-9.51 13.205-.204.379-.365.78-.548 1.17l-2.27-.755zM88.906 89.543c5.239 3.334 10.135 7.15 15.01 10.985 10.176 8.265 19.872 17.094 29.55 25.928 5.291 4.704 10.189 9.817 15.258 14.75.914.939 1.977 1.728 2.778 2.771l-2.14 1.075c-.82-.927-1.791-1.706-2.648-2.6-5.016-4.951-9.928-10.013-15.175-14.726-9.63-8.822-19.3-17.618-29.48-25.807-4.815-3.753-9.644-7.52-14.862-10.708l1.71-1.668z" style="opacity:1;fill:#000;fill-opacity:1;stroke:none;stroke-width:.1;stroke-linecap:square;stroke-linejoin:miter;stroke-miterlimit:4;stroke-dasharray:none;stroke-opacity:1"/><path d="M142.274 122.794c2.757 4.959 4.957 10.19 7.188 15.397 1.608 3.64 3.197 7.286 4.94 10.862.533.662-2.073.927-2.71.538-.173-.105-.332-.228-.498-.342-.25-.17-.494-.346-.747-.508-.456-.293-.921-.57-1.382-.856-.673-.428-1.349-.853-2.02-1.285a547.083 547.083 0 0 1-9.343-6.18l-5.563-3.75c-.886-.595-2.307-1.582-3.307-2.151-.27-.154-.561-.273-.842-.41l1.684-1.679c1.475.834 2.85 1.79 4.251 2.743 2.594 1.763 2.813 1.908 5.546 3.757 3.044 2.042 3.446 2.33 6.506 4.31 2.082 1.348 4.2 2.635 6.291 3.969.254.162.5.333.75.5.429.28.845.53 1.157.947.073.098.292.255.186.316-.686.39-1.463.59-2.213.836-.034.01-.03-.066-.044-.1-1.686-3.625-3.276-7.293-4.894-10.95-2.217-5.164-4.42-10.346-7.202-15.24l2.266-.724zM488.557 515.43c.003.467.027.935.01 1.402-.178 5.203-.956 10.382-1.529 15.55-.176 2.302-.636 4.596-.713 6.908-.014.397.034.794.051 1.191l-2.376-.12c-.007-.47-.044-.94-.023-1.408.102-2.326.553-4.631.743-6.949.573-5.087 1.345-10.194 1.473-15.32.01-.414-.017-.828-.026-1.242l2.39-.013z" style="opacity:1;fill:#000;fill-opacity:1;stroke:none;stroke-width:.1;stroke-linecap:square;stroke-linejoin:miter;stroke-miterlimit:4;stroke-dasharray:none;stroke-opacity:1"/><path d="M488.36 517.655c.21.268.393.559.627.806 1.718 1.812 3.833 3.304 5.863 4.73 1.751 1.229 5.018 3.384 6.74 4.529l7.25 4.853-1.783 1.506c-4.734-3.177-2.319-1.56-7.245-4.85-1.901-1.264-4.905-3.238-6.806-4.585-2.177-1.545-4.418-3.161-6.184-5.19-.271-.31-.48-.672-.72-1.009l2.259-.79z" style="opacity:1;fill:#000;fill-opacity:1;stroke:none;stroke-width:.1;stroke-linecap:square;stroke-linejoin:miter;stroke-miterlimit:4;stroke-dasharray:none;stroke-opacity:1"/><path d="M488.03 519.413c.815 2.316 1.458 4.71 2.49 6.944.352.763.754 1.501 1.132 2.251 1.925 3.36 4.232 6.474 6.577 9.547 1.662 2.176 3.655 4.728 5.48 6.778.97 1.092 2.003 2.126 3.005 3.19 4.068 4.036 8.526 7.652 13.377 10.703.696.424 2.327 1.161 1.881 2.308-.122.313-.422.521-.633.782l-.454.131-.433-2.36c-.101.05-.203.098-.304.146-.17.246-.415.454-.508.738-.066.2.03.422.059.632.005.036.078.104.04.103-.165-.007-1.295-.927-1.442-.92-4.908-3.222-9.473-6.922-13.604-11.103-1.019-1.093-2.068-2.159-3.057-3.28-1.83-2.076-3.847-4.673-5.518-6.871-2.405-3.165-4.784-6.366-6.726-9.845-.393-.796-.813-1.58-1.18-2.389-1.024-2.257-1.67-4.664-2.52-6.987l2.339-.498zM548.307 563.995c-.36-.142-.691-.438-1.076-.425-.2.006.589.377.4.446-.717.263-1.536.066-2.28.243-1.81.43-3.424 1.2-4.842 2.418-.652.56-1.143 1.285-1.715 1.928-.302.697-.747 1.349-.905 2.092-.136.64-.145 1.336.042 1.964.336 1.122 1.525 2.122 2.651 2.346.18.036.065-.434.237-.496.787-.285 1.642-.32 2.463-.48 2.998-1.138 5.51-3.098 7.38-5.695.296-.41.525-.862.797-1.288.751.356 1.662.483 2.253 1.067.26.256-.055.728-.064 1.093-.032 1.201 0 3.54-.005 4.605-.023 3.824-.032 3.101-.225 7.097-.327 3.668-.669 7.423-2.168 10.841-.416.95-.885 1.896-1.534 2.705-1.785 2.225-2.883 2.36-5.425 3.538-1.208.218-2.398.591-3.623.655-2.697.142-5.012-.34-7.458-1.462-2.993-1.373-5.15-2.337-6.987-4.932-.486-.686-.73-1.514-1.095-2.27l-.257-1.924 2.322.483.282 1.704c1.721 3.231.347 1.137 3.185 4.147.33.35.503.876.924 1.109 2.195 1.212 4.734 1.76 7.227 1.716 1.186-.02 2.346-.345 3.52-.518 2.372-1 3.537-1.136 5.218-3.16.634-.763 1.089-1.668 1.49-2.576 1.488-3.355 1.798-7.058 2.117-10.661.056-1.243.134-2.484.17-3.728.064-2.302.017-3.795.012-6.043a96.973 96.973 0 0 1 .008-1.945c.006-.355-.3-.98.045-1.065.747-.185 1.503.332 2.255.498-.722 1.034-1.054 1.744-1.96 2.748-1.83 2.03-3.958 3.645-6.511 4.67-.867.217-1.707.695-2.6.653-2.587-.12-6.28-.955-6.938-4.013-.42-1.95.29-2.79 1.04-4.514.6-.694 1.117-1.47 1.8-2.081 1.488-1.329 3.107-2.14 5.013-2.682.78-.222 1.593-.474 2.401-.4 2.31.209 3.12.676 4.801 1.47l-2.385.122zM560.616 565.65c.073 4.592.366 9.195.196 13.787-.073.241.032.7-.22.725-.898.089-1.887.007-2.672-.439-.384-.218-.29-.84-.349-1.278-.185-1.373-.102-3.027.195-4.364.187-.841.527-1.64.79-2.46.44-.722.788-1.509 1.32-2.167 1.662-2.057 4.06-3.362 6.635-3.849 1.908-.36 2.463-.161 4.28.064l1.738 1.612c-1.755-.332-2.226-.557-4.106-.292-2.445.344-4.774 1.492-6.38 3.403-.51.605-.84 1.34-1.26 2.011-.678 2.118-.937 2.397-.996 4.601-.016.598.02 1.204.142 1.79.054.264.628.623.375.715-2.501.913-2.07.183-1.791-.681.18-4.567-.086-9.148-.224-13.712l2.327.534zM578.798 569.993c-2.686.726-5.2 2.197-6.778 4.556-.406.605-.776 1.256-.975 1.957-.18.636-.092 1.318-.139 1.977.26.584.375 1.256.78 1.751.925 1.131 2.885 2.084 4.286 2.245.291.034.456-.397.738-.476 5.257-1.475.242.648 4.725-1.443.438-.448 1.001-.801 1.314-1.344.268-.465.37-1.033.365-1.57-.027-2.734-2.594-4.906-4.44-6.556l-1.196-.891 2.376-.04 1.188.951c2.01 1.913 4.463 4.22 4.324 7.28-.03.653-.182 1.326-.503 1.895-.347.615-.961 1.036-1.441 1.553-1.58.803-3.055 1.781-4.945 1.723-2.812-.086-7.37-.973-9.136-3.656-.4-.607-.476-1.373-.714-2.06.075-.74.015-1.505.224-2.219.22-.752.613-1.453 1.043-2.108 1.72-2.62 4.311-4.003 7.131-5.13l1.773 1.605zM593.398 573.144c-.334.412-.702.799-1.004 1.235-1.602 2.326-2.618 5.343-2.121 8.19.117.668.42 1.29.63 1.936 1.116 1.281 1.366 1.925 3.075 2.463.131.041-.17-.36-.042-.41.616-.245 1.341-.105 1.957-.35 1.712-.678 2.108-1.535 3.239-2.91 1.359-2.58 2.09-5.201 1.231-8.073-.12-.406-.483-1.087-.701-1.514l-.083-.233 2.374.332.082.184c.24.538.519 1.121.658 1.687.518 2.098.37 4.204-.344 6.245-.288.825-.723 1.592-1.085 2.387-1.223 1.542-1.64 2.45-3.473 3.31-2.276 1.069-3.72.427-6.178-.54-.658-.258-1.25-.698-1.757-1.192-.523-.509-.86-1.18-1.289-1.77-.197-.704-.487-1.389-.591-2.113-.434-3.01.6-6.176 2.275-8.651.296-.438.664-.823.996-1.235l2.151 1.022zM607.792 577.042c-.457 4.184-1.067 8.349-1.706 12.508-.04.242.102.82-.123.724-.8-.341-1.603-.884-2.03-1.642-.218-.389.242-.86.384-1.282.463-1.377.87-2.443 1.608-3.73.404-.704.894-1.357 1.34-2.036.563-.596 1.07-1.25 1.689-1.789 1.822-1.585 5.092-3.357 7.573-2.22 1.169.536 2.208 1.319 3.311 1.978.281.567.625 1.106.843 1.7 1.117 3.055.04 6.009-1.117 8.842-.357 1.03-.964 1.93-1.474 2.88l-2.214-.913c.502-.927 1.125-1.792 1.467-2.804 1.066-2.59 2.162-5.485.979-8.254-.222-.518-.571-.973-.857-1.46.252-.102.944-.111.754-.305-.383-.393-1.016-.459-1.56-.521-2.02-.233-4.11.906-5.598 2.146-.6.5-1.09 1.119-1.636 1.678-.434.652-.912 1.277-1.303 1.955-.72 1.247-1.111 2.287-1.556 3.627-.138.418.022 1.069-.371 1.266-2.993 1.5-2.599.637-2.386-.526.664-4.135 1.269-8.28 1.682-12.449l2.3.627zM635.472 584.54c-2.837-.535-5.713.174-8.205 1.58-.563.317-1.074.72-1.61 1.08-.422.357-.898.66-1.264 1.074-.984 1.11-1.588 2.892-.987 4.34.67 1.617 1.624 1.855 3.059 2.75.267.057.534.12.803.17 1.035.195 2.061.443 3.107.568 2.16.258 3.465.157 5.58.103l1.814 1.51c-2.775.106-6.178.27-8.862-.492-1.643-.466-3.202-1.189-4.803-1.783-.665-.507-1.433-.901-1.994-1.521-1.764-1.952-1.424-4.874.197-6.777.374-.44.87-.76 1.305-1.139.555-.387 1.082-.817 1.665-1.162 2.17-1.288 4.74-2.142 7.286-2.081.393.009.78.095 1.17.142l1.739 1.639z" style="opacity:1;fill:#000;fill-opacity:1;stroke:none;stroke-width:.1;stroke-linecap:square;stroke-linejoin:miter;stroke-miterlimit:4;stroke-dasharray:none;stroke-opacity:1"/><path d="M643.667 560.154c-3.01 9.317-5.653 18.787-7.492 28.411-.321 1.68-.565 3.374-.848 5.061-.248 2.051-.572 4.173-.622 6.253-.011.474.05.947.074 1.42l-2.31-.557c-.014-.496-.059-.993-.04-1.49.085-2.138.408-4.174.68-6.303.292-1.694.546-3.395.874-5.082 1.871-9.624 4.52-19.09 7.413-28.45l2.271.737zM543.685 544.281c-.685.57-1.392 1.114-2.053 1.711-4.637 4.19-8.912 9.18-11.92 14.68-.742 1.358-1.3 2.81-1.95 4.214-.378 1.257-.879 2.483-1.133 3.77-.491 2.481-.43 5.391.712 7.706.682 1.384 1.278 1.837 2.322 2.916 2.39 1.98.175.168 2.324 1.87.648.514 1.377.979 1.521 1.84l-.065.329-2.293-.7-.006-.019c-.213-.314-.48-.553-.772-.8-1.025-.867-2.13-1.638-3.078-2.597-1.069-1.223-1.619-1.67-2.291-3.202-1.088-2.477-1.117-5.502-.583-8.107.27-1.316.785-2.57 1.177-3.855.663-1.43 1.234-2.907 1.99-4.29 3.469-6.355 8.535-11.994 14.034-16.657l2.064 1.191zM649.536 563.88c1.58 4.72 3.295 9.432 4.243 14.333.288 1.486.458 2.992.687 4.487.057 1.558.224 3.116.17 4.675-.15 4.374-1.21 8.378-3.846 11.936-1.928 2.603-3.037 3.12-5.592 4.982a33.998 33.998 0 0 1-7.226 3.278c-.3.096-1.59.38-2 .553l-1.847-1.53c.22.169.068.074.68-.067.411-.094.821-.195 1.226-.314a32.538 32.538 0 0 0 7.137-3.09c2.485-1.75 3.594-2.247 5.472-4.73 2.593-3.429 3.604-7.32 3.734-11.564.047-1.533-.126-3.065-.189-4.598-.234-1.478-.41-2.966-.703-4.434-.966-4.852-2.647-9.546-4.322-14.188l2.376.27z" style="opacity:1;fill:#000;fill-opacity:1;stroke:none;stroke-width:.1;stroke-linecap:square;stroke-linejoin:miter;stroke-miterlimit:4;stroke-dasharray:none;stroke-opacity:1"/><path d="M235.262 271.741v-24.283h-23.637l2.298-2.264c5.956-5.868 8.937-13.644 7.565-19.735-.181-.804-1.359-3.475-2.617-5.936-1.258-2.46-2.68-5.61-3.158-6.997-.768-2.225-.872-2.879-.88-5.54-.008-2.185.132-3.493.505-4.734l.515-1.715h19.409V150.05h132.805v50.488h23.727l-1.9 1.715c-5.686 5.131-9.294 13.29-8.388 18.964.373 2.33.867 3.566 3.253 8.132 1.065 2.037 2.335 4.877 2.822 6.311.781 2.3.884 2.946.874 5.488-.008 2.064-.16 3.348-.538 4.527l-.528 1.647-9.66.072-9.662.072v48.56H235.262V271.74zm47.881 3.379c7.425-2.424 13.815-12.267 17.808-27.428.53-2.015 2.83-11.999 5.109-22.185 2.279-10.187 4.212-18.8 4.294-19.14l.15-.616h12.761l.313-1.555c.566-2.82 1.156-2.561-5.861-2.561-4.513 0-6.174-.086-6.174-.32 0-.762 2.053-9.417 2.917-12.3 1.781-5.936 4.72-10.985 7.336-12.602 1.415-.874 3.422-1.21 4.711-.788 1.335.438 1.456.935.67 2.76-1.443 3.355.516 6.59 3.99 6.59 4.233 0 6.374-4.24 4.043-8.01-3.553-5.747-13.793-5.803-20.084-.112-4.836 4.375-7.778 9.583-11.42 20.219l-1.562 4.563H291.579l-.445 1.771c-.245.974-.445 1.9-.445 2.058 0 .19 1.774.287 5.219.287h5.218l-.145.617c-.08.34-2.371 11.298-5.09 24.352-6.538 31.373-6.604 31.641-9.103 36.613-2.347 4.668-6.586 7.254-8.596 5.244-.82-.82-.826-.97-.095-2.404 2.109-4.133-3.27-8.335-6.956-5.435-1.509 1.186-2.049 4.114-1.154 6.258 1.665 3.992 7.733 5.894 13.156 4.124z" style="opacity:1;fill:#d5ffe6;fill-opacity:1;stroke:none;stroke-width:.1;stroke-linecap:square;stroke-linejoin:miter;stroke-miterlimit:4;stroke-dasharray:none;stroke-opacity:1" transform="matrix(.8 0 0 .8 0 0)"/><g style="display:inline"><path d="M390.718 64.466c-.11.516-.512 2.352-.561 2.757-.251 2.064-.233 4.236.529 6.202.26.671.669 1.274 1.003 1.912 1.134 1.168 1.537 1.905 3.19 2.352.14.038-.208-.378-.072-.43.625-.24 1.347-.105 1.987-.302 1.781-.55 2.113-1.116 3.482-2.333.428-.636.929-1.23 1.285-1.909.865-1.652 1.666-4.208.929-6.064-.56-1.407-1.316-1.561-2.537-2.278.011.081.116.238.035.243-.709.042-1.416-.146-2.125-.12-1.83.066-3.792.6-5.5 1.246-.358.136-.701.308-1.052.461l-.525.327-2.068-1.187.588-.41c.364-.168.72-.356 1.092-.505 1.722-.685 3.803-1.273 5.646-1.423.739-.06 1.499-.15 2.223.006 1.388.298 2.696.894 4.043 1.34 1.31.994 1.955 1.159 2.482 2.812.652 2.05-.14 4.678-1.082 6.495-.376.727-.9 1.367-1.35 2.05-1.458 1.364-1.766 1.932-3.663 2.633-2.425.896-3.456.423-6.172-.577-.65-.24-1.242-.642-1.767-1.094-.544-.469-.933-1.09-1.4-1.636-.327-.683-.729-1.335-.98-2.05-.731-2.07-.736-4.32-.476-6.474.05-.403.468-2.366.571-2.86l2.245.817zM399.898 56.895c1.166 2.48 2.609 4.871 4.804 6.582.5.39 1.065.688 1.598 1.032.543.213 1.049.588 1.63.641.231.021-.62-.38-.446-.532.388-.337 1.032-.152 1.494-.376 1.003-.488 1.81-1.442 2.301-2.416.277-.55.403-1.164.604-1.746.038-.628.171-1.258.115-1.884-.18-1.998-1.272-3.768-2.826-4.994-1.407-1.11-1.937-1.13-3.586-1.678.142.15.607.35.427.449-.357.195-.814-.04-1.22-.013-.263.018-.522.08-.778.145-.11.028-.2.136-.312.132-.057-.002.067-.092.1-.138l-2.29-.708c.047-.128.053-.281.141-.386.253-.3 1.01-.484 1.285-.524 1.949-.283 2.693.289 4.997.87 1.643.672 2.22.748 3.587 1.973 1.582 1.416 2.615 3.372 2.743 5.51.041.682-.11 1.362-.165 2.043-.222.635-.366 1.302-.665 1.904-.543 1.092-1.432 2.177-2.506 2.794-.505.29-1.066.607-1.647.576-2.44-.13-3.436-.733-5.34-1.623-.531-.379-1.095-.716-1.594-1.136-2.172-1.834-3.631-4.296-4.811-6.843l2.36.346zM395.526 30.814c3.035 2.097 5.435 4.946 7.884 7.67 3.083 3.418 6 6.98 9 10.47 1.011 1.176 2.567 2.94 3.617 4.135 1.787 1.783 3.344 3.764 4.92 5.729.797.795.467.389-1.493-.486l1.76 1.624c-2.478-1-1.783-.304-2.646-1.313-1.55-1.965-3.145-3.89-4.88-5.696-4.228-4.843-8.325-9.798-12.607-14.594-2.448-2.689-4.856-5.516-7.946-7.495l2.391-.044z" style="fill:#000;fill-opacity:1;stroke:none;stroke-width:.1;stroke-linecap:square;stroke-linejoin:miter;stroke-miterlimit:4;stroke-dasharray:none;stroke-opacity:1"/><path d="M394.578 43.392c1.958-3.735 4.744-6.952 7.4-10.197 1.686-2.005 3.288-4.08 5.012-6.054.455-.775.024-.111 2.085 1.134l-2.166-1.027c2.227 1.033 1.908 1.775 2.232.942-1.791 1.903-3.329 4.033-5.042 6.003-2.617 3.192-5.37 6.352-7.282 10.035l-2.239-.836zM414.52 43.698c3.185 1.593 5.33 4.152 7.636 6.79 4.106 5.118 7.803 10.544 11.813 15.736l1.686 2.07-2.371-.171c-.978-1.226-.425-.532-1.657-2.083-3.96-5.21-7.653-10.625-11.802-15.69-2.243-2.506-4.512-5.15-7.69-6.48l2.386-.172z" style="fill:#000;fill-opacity:1;stroke:none;stroke-width:.1;stroke-linecap:square;stroke-linejoin:miter;stroke-miterlimit:4;stroke-dasharray:none;stroke-opacity:1"/><path d="M412.256 47.092c-.564-1.9-.664-3.652-.095-5.583.376-1.275.934-2.292 1.513-3.473.349-.5.655-1.032 1.045-1.499 1.278-1.528 2.75-2.605 4.804-2.738 2.124-.138 3.799.844 5.785 1.567.496.406 1.059.741 1.488 1.217 1.026 1.14 1.326 2.087 1.553 3.588.095.622.138 1.259.088 1.886-.132 1.656-.622 2.678-1.18 4.233-.726 1.37-1.088 2.342-2.208 3.424-.354.343-.813.557-1.219.836l-2.048-1.192c.377-.215.807-.358 1.132-.647 1.072-.951 1.464-1.976 2.134-3.222.522-1.461.994-2.438 1.097-3.992a7.148 7.148 0 0 0-.113-1.754c-.248-1.35-.596-2.211-1.595-3.175-.435-.42-.988-.696-1.482-1.044.924-.024.403.01-1.529-.333-1.993-.052-3.297.858-4.552 2.31-.377.437-.671.938-1.007 1.407-.559 1.127-1.098 2.093-1.453 3.312-.517 1.781-.392 3.51.2 5.242l-2.357-.37zM426.468 28.975c1.551 2.717 3.617 5.858 6.494 7.306.626.315 1.323.462 1.985.693-.038-.147-.253-.378-.114-.443.534-.25 1.197-.09 1.74-.318 1.847-.775 2.678-2.835 2.669-4.719-.004-.8-.242-1.58-.362-2.37-.342-.785-.597-1.614-1.026-2.353-1.242-2.138-3.223-4.271-5.718-4.886-.17-.042.387.367.242.468-.325.227-.784.121-1.176.182l-1.926-1.383c2.376-.624 1.575-.64 5.206.622 2.498.868 4.47 3.073 5.687 5.342.427.795.667 1.676 1 2.514.106.854.334 1.7.318 2.56-.04 2.124-1.008 4.396-2.993 5.393-.578.29-1.234.537-1.879.489-1.37-.104-2.677-.623-4.015-.935-.663-.282-1.364-.489-1.989-.848-2.908-1.67-4.85-4.766-6.512-7.573l2.369.259zM424.31 5.424c5.006 3.144 8.994 7.585 12.982 11.883 2.48 2.74 4.864 5.567 7.277 8.367 1.04 1.206 2.043 2.383 3.224 3.448l-2.38-.084c-1.127-1.115-2.138-2.306-3.17-3.512-2.393-2.801-4.772-5.615-7.253-8.34-3.99-4.264-7.997-8.678-13.064-11.693l2.384-.07z" style="fill:#000;fill-opacity:1;stroke:none;stroke-width:.1;stroke-linecap:square;stroke-linejoin:miter;stroke-miterlimit:4;stroke-dasharray:none;stroke-opacity:1"/><path d="M421.932 16.126c3.382-5.594 7.166-10.93 11.125-16.126l2.133.982c-3.982 5.141-7.764 10.448-11.072 16.052l-2.186-.908zM410.787 79.588c.972.944 1.21 1.152 2.245 2.29 1.333 1.467 2.618 2.975 3.935 4.456 2.919 3.284 1.745 1.985 4.718 5.192 1.886 1.972 3.767 3.95 5.664 5.91 1.267 1.308.723.798 1.832 1.765l-2.377-.07c-2.598-2.456-4.92-5.194-7.438-7.729-3.077-3.336-1.688-1.802-4.723-5.204-.722-.81-1.441-1.62-2.164-2.429-1.145-1.279-1.975-2.254-3.193-3.405-.282-.267-.592-.5-.888-.751l2.39-.025z" style="fill:#000;fill-opacity:1;stroke:none;stroke-width:.1;stroke-linecap:square;stroke-linejoin:miter;stroke-miterlimit:4;stroke-dasharray:none;stroke-opacity:1"/><path d="M410.46 94.998c.134-.268.26-.54.4-.804.574-1.078 1.352-2.408 1.931-3.435 1.616-2.865 3.234-5.726 4.814-8.61l1.74-3.205 2.144.88-1.741 3.204c-1.573 2.891-3.187 5.757-4.788 8.631-.56 1.006-1.333 2.35-1.887 3.414-.135.258-.255.523-.382.785l-2.23-.86zM422.688 86.506c1.643 1.59 3.383 3.097 5.312 4.336.71.455 1.45.86 2.197 1.253.031.016.058-.05.093-.048.59.04 1.176.115 1.764.173.449-.248.996-.369 1.346-.743 1.512-1.615 1.1-4.268.273-6.063-.357-.777-.853-1.49-1.387-2.16-.496-.62-1.123-1.124-1.684-1.687.105-.511-5.23-2.668-1.724-1.207l-1.721-1.644c.958.346 1.935.644 2.875 1.037 1.18.492 1.878 1.146 2.913 1.929 1.405 1.534 2.21 2.154 3.033 4.159.875 2.132 1.082 4.951-.54 6.829-.413.479-1.048.708-1.572 1.061-.63-.016-1.28.111-1.888-.048-1.418-.372-2.787-.925-4.123-1.526-.779-.35-1.487-.843-2.197-1.317-1.931-1.288-3.68-2.827-5.347-4.436l2.378.102zM417.531 63.988c.235.005.474-.028.705.015.369.07.738.163 1.08.317 3.253 1.46 3.153 1.36 5.487 3.28 2.3 1.891 2.448 2.107 4.673 4.212.805.787 1.617 1.565 2.414 2.36.773.771 1.543 1.548 2.296 2.34 1.988 2.087 3.85 4.281 5.933 6.278.179.09.731.319.536.271-.756-.185-1.555-.304-2.234-.687-.235-.132-.22-.493-.312-.747-.306-.846-.703-2.133-.88-2.986-.12-.578-.177-1.168-.266-1.752.016-.607-.034-1.22.047-1.822.296-2.183 1.614-4.952 3.343-6.374.412-.34.901-.573 1.351-.859 1.384-.543 2.832-.963 4.337-.771 1.4.179 3.527 1.212 4.437 1.776.362.224.537.659.806.988.167.332.388.642.502.995.123.384.17.79.2 1.193.162 2.16-1.1 4-2.188 5.74-1.542 1.984-3.849 4.918-6.578 5.199-.264.027-.53-.04-.795-.058l-1.767-1.6c.216.083.416.23.646.25.773.073 1.567-.257 2.205-.639 1.683-1.005 2.953-2.548 4.125-4.081 1.138-1.81 2.701-4.032 1.792-6.286-.123-.306-.34-.565-.511-.848l-.807-.802c.317.041 1.15.374.952.123-.263-.334-.783-.34-1.197-.434-1.405-.318-2.784.039-4.121.458-.425.238-.886.421-1.274.715-1.66 1.255-2.924 3.898-3.177 5.922-.07.566-.013 1.142-.02 1.712.094.562.158 1.13.281 1.686.454 2.05.38 1.11.898 2.974.1.362.573.939.235 1.102-1.582.764-2.066.222-2.935-.452-2.033-2.032-3.901-4.214-5.888-6.29-.754-.786-1.522-1.559-2.295-2.326-.797-.79-1.61-1.565-2.416-2.347-2.085-1.938-2.517-2.417-4.693-4.15-.635-.505-1.408-.854-1.95-1.458-.117-.132.621-.01.51-.148-.253-.312-1.155-.46-1.576-.55l-1.91-1.439zM451.8 63.755c1.279-1.525 2.222-3.367 2.634-5.323.093-.445.114-.901.171-1.351-.106-.766-.065-1.416-.62-2.03-.205-.227-1.062-.591-.776-.485 2.309.852.872.469.197.786-.336.159-.59.453-.884.68-.26.38-.572.727-.777 1.139-.975 1.96-1.312 4.87-.174 6.838.315.545.816.958 1.224 1.438.588.343 1.133.776 1.765 1.028.094.038.022-.26.122-.278.786-.142 1.615.015 2.392-.175 1.91-.468 3.422-1.525 4.853-2.835.783-.717 1.437-1.564 2.156-2.346l1.826-2.61 2.126.946-1.86 2.686c-1.683 1.865-2.52 3.063-4.673 4.406-1.24.773-3.521 1.73-5.084 1.513-3.484-.483-3.706-.916-5.973-2.513-.4-.554-.894-1.05-1.198-1.662-1.093-2.196-.715-5.247.33-7.387.228-.468.569-.872.853-1.308.427-.38 1.377-1.442 2.14-1.332 1.229.178 3 .59 3.767 1.804.522.826.454 1.433.537 2.376-.067.48-.1.967-.203 1.44-.448 2.062-1.432 3.987-2.737 5.631l-2.134-1.076zM40.434 39.052c-.81.312-1.063.267-1.565 1.082-.18.292-.648 1.136-.351.965.332-.19.102-1.034.485-1.042.383-.008.269.74.529 1.021.329.356.792.558 1.187.836.492.165.964.41 1.475.496 1.639.274 2.702-.21 3.12-1.864.069-.268-.163.878-.398.73-.352-.222-.231-.8-.347-1.2l-.559-.75.854-2.225.76.843c.188.44.556.844.562 1.323.015 1.398-.036 3.757-1.387 4.848-1.438 1.161-3.228.662-4.754.076-.596-.38-2.147-1.106-2.252-2.083-.212-1.96.034-4.105 1.875-5.108.314-.17.681-.216 1.021-.324l-.255 2.376zM36.753 47.473c-2.274 2.988-4.69 5.862-6.98 8.837-.83 1.075-1.678 2.144-2.627 3.118a4.601 4.601 0 0 1-.358.338c-.056.047-.195.041-.188.114.007.067.134.005.2.008l-.526-2.34c.321-.091.397-.227.647-.495.917-.982 1.758-2.03 2.575-3.094 2.3-2.966 4.724-5.834 6.948-8.857l.309 2.37zM54.243 64.44c-2.182 3.24-4.321 6.512-6.71 9.607-1.562 2.024-2.63 3.235-4.289 5.19-2.772 3.144-5.601 6.26-8.69 9.099l-.147-2.064c3.064-2.826 5.883-5.913 8.625-9.05 1.738-2.062 2.62-3.058 4.252-5.19 2.372-3.096 4.528-6.351 6.63-9.635l.33 2.043z" style="fill:#000;fill-opacity:1;stroke:none;stroke-width:.1;stroke-linecap:square;stroke-linejoin:miter;stroke-miterlimit:4;stroke-dasharray:none;stroke-opacity:1"/><path d="M51.202 60.611c4.03.592 8.474 1.91 11.012 5.364.485.659.772 1.442 1.157 2.164.166.746.42 1.478.497 2.239a7.447 7.447 0 0 1-.066 2.06c-.322 1.776-.47 4.041-2.193 5.144-1.344.861-2.536.718-4.046.8-3.016-.31-5.663-1.638-7.952-3.58-.35-.297-.662-.633-.992-.95l.79-2.243c.309.311.598.644.925.935 2.132 1.894 4.63 3.188 7.495 3.486 1.33-.091 2.399.051 3.53-.808.419-.319.526-.956.96-1.253.138-.094.158.621.202.46.447-1.659.13-2.473-.13-4.14-.327-.699-.552-1.456-.984-2.096-2.295-3.4-6.703-4.692-10.537-5.219l.332-2.363zM68.985 73.613c-1.5 1.204-2.94 2.6-3.822 4.342-.294.581-.435 1.228-.66 1.84-.059.159.111-.646.16-.483.148.485.102 1.008.152 1.513.669 1.283.784 1.904 2.122 2.72 1.78 1.086 4.363 1.365 6.364.885.64-.153 1.221-.484 1.832-.725.445-.402.962-.737 1.337-1.205.837-1.047.93-1.813 1.225-3.06.064-.266-.033 1.005-.212.796-.201-.235.037-.62.103-.924.19-.885.441-1.757.662-2.635l.417 2.355c.075-.572.119-1.149.226-1.715.06-.312-.032.633-.08.946-.35 2.256-.528 4.836-2.203 6.603-.45.476-1.035.804-1.552 1.205-.666.237-1.306.564-1.997.712-2.192.468-4.922.138-6.88-.992-1.472-.85-1.688-1.546-2.529-2.896-.108-.541-.364-1.072-.324-1.622.343-4.692 2.022-7.204 5.557-10.04l.102 2.38zM96.303 64.985c-4.958 7.217-10.24 14.205-15.374 21.296-.638.897-2.644 3.701-3.361 4.753-.368.539-.762 1.064-1.076 1.636-.238.435-.382.915-.574 1.372l-.425-2.338c.225-.46.416-.939.676-1.38.332-.565.722-1.092 1.095-1.63.798-1.154 2.635-3.703 3.373-4.731 5.154-7.08 10.445-14.069 15.338-21.335l.328 2.357z" style="fill:#000;fill-opacity:1;stroke:none;stroke-width:.1;stroke-linecap:square;stroke-linejoin:miter;stroke-miterlimit:4;stroke-dasharray:none;stroke-opacity:1"/><path d="M82.037 65.564c2.32.935 4.674 1.797 6.982 2.761 2.243.937 3.44 1.538 5.639 2.582 2.143 1.068 4.241 2.22 6.322 3.403l-.63 2.285c-2.062-1.189-4.143-2.343-6.272-3.41-2.188-1.041-3.36-1.633-5.595-2.562-2.3-.955-4.649-1.8-6.961-2.728l.515-2.331zM53.974 84.398c-3.98 5.37-8.095 10.64-12.173 15.939-2.327 3.139-4.778 6.23-6.73 9.625l-.383-2.524c2.059-3.341 4.448-6.471 6.817-9.596 4.083-5.298 8.206-10.568 12.139-15.98l.33 2.536z" style="fill:#000;fill-opacity:1;stroke:none;stroke-width:.1;stroke-linecap:square;stroke-linejoin:miter;stroke-miterlimit:4;stroke-dasharray:none;stroke-opacity:1"/><path d="M38.754 87.099c4.751 2.293 9.679 4.19 14.5 6.325l-.564 2.288c-4.82-2.155-9.75-4.05-14.528-6.296l.592-2.317zM48.8 101.575c-.4.303-.813.587-1.198.908-1.618 1.347-3.4 3.048-4.402 4.923-.832 2.193-1.18 2.762-.67 1.883.291 1.246.234 2.075 1.383 2.893 1.627 1.158 3.995.769 5.634-.087.666-.347 1.224-.87 1.837-1.305 1.438-1.298 2.544-2.827 3.152-4.673.107-.325.285-1.338.218-1.003-.106.537-.225 1.071-.337 1.606l1.303-2.004c-.145.907-.253 1.821-.435 2.722-.296 1.466-1.206 2.971-2.161 4.083-.507.589-1.11 1.087-1.665 1.631-.672.436-1.29.965-2.015 1.306-1.924.908-4.494 1.165-6.37-.056-1.343-.875-1.386-1.757-1.875-3.153.252-1.351.39-2.728.755-4.054.905-3.286 4.15-6.05 6.788-8.007l.057 2.387zM73.815 126.998c2.364.58 4.957 1.285 7.4 1.37.778.028 2.392.03 3.033-.753.222-.272.138-.688.207-1.033-.237.324-.312 1.017-.711.973-.518-.058-.621-.858-1.041-1.167-.56-.41-1.2-.71-1.85-.956-1.419-.535-3.382-.895-4.896-.87-.779.013-1.544.207-2.315.31-1.62.83-1.937.636-2.694 2.347-.05.114.308-.207.361-.094.353.754.36 1.641.716 2.394 1.115 2.36 2.212 3.189 4.01 5.078l3.046 2.252-.69 2.235-3.151-2.28c-1.944-1.98-2.983-2.732-4.274-5.177-1.31-2.477-1.274-3.835-.3-6.762.204-.615.745-1.092 1.268-1.475.57-.418 1.288-.58 1.932-.87.818-.096 1.63-.283 2.453-.29 2.312-.019 5.246.607 7.19 1.926.505.344 1.144.692 1.315 1.279.326 1.116.05 2.325.076 3.487-.224.357-.345.806-.673 1.071-.89.72-2.365.75-3.392.706-2.523-.106-5.091-.81-7.538-1.378l.518-2.323zM40.065 49.768c-1.684 3.155-3.02 6.477-4.346 9.792l-.405 1.041c-.084.22-.166.439-.247.66-.042.112-.074.228-.12.339-.03.068-.041.228-.108.195-2.368-1.167-2.376-.59-1.81-1.893.164-.291.306-.596.492-.873.25-.373.512-.74.812-1.074 1.211-1.345 2.75-2.424 4.403-3.156.58-.257 1.196-.425 1.793-.638 1.604-.28 2.082-.476 3.696-.325 1.579.147 3.488.945 4.715 1.715.77.483.88 1.59 1.066 2.338-.036.493-.018.993-.108 1.479-.414 2.242-1.964 4.369-3.446 6.035-.384.431-.799.832-1.198 1.248a28.568 28.568 0 0 1-2.689 2.328c-.264.202-.537.386-.806.58l-2.02-1.286c.024 0 .051.01.074 0 .175-.075.592-.368.682-.432a24.3 24.3 0 0 0 2.68-2.227c.394-.401.804-.788 1.182-1.204.849-.935 1.505-1.754 2.15-2.84.54-.912.96-1.776 1.138-2.827.07-.418.035-.847.052-1.271-.118-.347-.166-.726-.353-1.041-.187-.316-.815-.452-.744-.812.057-.291 1.146.24.884.099-.446-.24-.963-.331-1.464-.41-1.521-.243-2.04-.058-3.567.144-.58.185-1.177.325-1.74.556-.563.231-1.106.515-1.63.826-1.353.803-2.505 1.787-3.384 3.097-.173.257-.302.541-.453.812-.079.192-.03.582-.236.574-.79-.032-1.504-.493-2.274-.674-.044-.01-.048.174-.027.134.057-.108.091-.228.137-.341l.266-.657.423-1.038c1.37-3.33 2.745-6.66 4.33-9.896l2.2.924zM68.923 92.38c.02.234.078.468.06.702-.03.374-.084.751-.2 1.108-1.108 3.389-1.02 3.28-2.682 5.803-1.637 2.487-1.836 2.657-3.694 5.092-.697.884-1.385 1.774-2.09 2.65-.686.851-1.377 1.698-2.084 2.531-1.866 2.198-3.851 4.282-5.616 6.564-.071.187-.24.76-.213.562.104-.772.138-1.579.447-2.295.106-.248.467-.27.71-.389.808-.394 2.046-.925 2.876-1.19.562-.18 1.142-.3 1.714-.45.605-.05 1.21-.164 1.817-.147 2.201.063 5.095 1.082 6.692 2.65.38.374.664.836.996 1.253.687 1.319 1.258 2.713 1.226 4.23-.03 1.412-.832 3.637-1.297 4.601-.184.383-.598.604-.897.906-.312.201-.596.454-.936.604-.369.163-.768.253-1.165.325-2.13.39-4.094-.671-5.94-1.568-2.135-1.323-5.297-3.307-5.865-5.991-.055-.26-.017-.531-.026-.797l1.404-1.926c-.06.223-.185.438-.182.67.01.775.423 1.53.87 2.124 1.178 1.567 2.846 2.666 4.495 3.67 1.92.94 4.295 2.26 6.44 1.117.291-.155.526-.4.789-.599l.712-.887c-.007.32-.25 1.183-.021.96.303-.297.255-.815.304-1.236.168-1.431-.333-2.764-.89-4.05-.283-.397-.514-.836-.847-1.19-1.424-1.519-4.185-2.495-6.224-2.533-.571-.01-1.137.107-1.706.161-.548.153-1.106.277-1.646.458-1.99.668-1.063.495-2.863 1.208-.349.138-.872.668-1.07.35-.927-1.493-.44-2.031.14-2.966 1.805-2.237 3.776-4.326 5.63-6.521a127.52 127.52 0 0 0 2.07-2.529c.702-.876 1.386-1.767 2.079-2.65 1.707-2.279 2.137-2.758 3.63-5.106.435-.685.7-1.49 1.244-2.092.118-.132.075.616.2.49.284-.284.336-1.197.38-1.625l1.23-2.052z" style="fill:#000;fill-opacity:1;stroke:none;stroke-width:.1;stroke-linecap:square;stroke-linejoin:miter;stroke-miterlimit:4;stroke-dasharray:none;stroke-opacity:1"/></g><g style="display:inline"><path d="M382.02 76.126c6.93-7.215 13.793-14.478 20.75-21.679 6.763-6.998 10.563-10.797 17.433-17.738 6.792-6.8 13.646-13.526 20.521-20.223l2.989.3c-6.844 6.646-13.663 13.323-20.419 20.08-6.843 6.912-10.573 10.634-17.3 17.602-6.923 7.173-13.742 14.41-20.638 21.598l-3.335.06zM381.324 81.1c21.944-21.905 43.63-44.165 65.475-66.215l3.085.184c-21.877 22.056-43.57 44.327-65.504 66.298l-3.056-.267z" style="display:inline;fill:#000;fill-opacity:1;stroke:none;stroke-width:.1;stroke-linecap:square;stroke-linejoin:miter;stroke-miterlimit:4;stroke-dasharray:none;stroke-opacity:1"/><path d="M389.122 82.587c.82-.98 1.635-1.964 2.464-2.94 3.377-3.977 7.688-8.957 10.974-12.782 9.163-10.666 18.324-21.323 27.455-32.014l10.109-11.857 2.64.458-10.115 11.86c-9.127 10.703-18.289 21.369-27.443 32.051-3.202 3.736-7.534 8.759-10.84 12.668-.803.95-1.59 1.906-2.386 2.859l-2.858-.303z" style="display:inline;fill:#000;fill-opacity:1;stroke:none;stroke-width:.1;stroke-linecap:square;stroke-linejoin:miter;stroke-miterlimit:4;stroke-dasharray:none;stroke-opacity:1"/><path d="M31.741 45.407c7.18 4.7 14.4 9.33 21.566 14.058 6.964 4.595 10.75 7.205 17.666 11.907 6.777 4.661 13.486 9.393 20.17 14.15l-.152 2.72c-6.632-4.738-13.294-9.45-20.028-14.088-6.886-4.684-10.597-7.246-17.53-11.816-7.139-4.703-14.333-9.3-21.484-13.975l-.208-2.956z" style="display:inline;fill:#000;fill-opacity:1;stroke:none;stroke-width:.0999999;stroke-linecap:square;stroke-linejoin:miter;stroke-miterlimit:4;stroke-dasharray:none;stroke-opacity:1"/><path d="M26.606 44.214c7.944 6.079 15.93 12.087 23.86 18.194 7.71 5.936 11.905 9.284 19.565 15.33 7.51 5.984 14.95 12.035 22.362 18.11l-.038 2.943c-7.357-6.048-14.745-12.07-22.207-18.022-7.628-6.023-11.74-9.31-19.415-15.213-7.9-6.077-15.856-12.045-23.768-18.093l-.359-3.249z" style="display:inline;fill:#000;fill-opacity:1;stroke:none;stroke-width:.1;stroke-linecap:square;stroke-linejoin:miter;stroke-miterlimit:4;stroke-dasharray:none;stroke-opacity:1"/><path d="M23.526 49.543c22.766 15.699 45.323 31.881 67.7 48.232l.1 3.135C69.09 84.593 46.627 68.458 23.94 52.904l-.413-3.361z" style="display:inline;fill:#000;fill-opacity:1;stroke:none;stroke-width:.1;stroke-linecap:square;stroke-linejoin:miter;stroke-miterlimit:4;stroke-dasharray:none;stroke-opacity:1"/><g style="display:inline;fill:red;stroke-width:1.51515"><path d="M147.875-63.717c-.81.312-1.063.267-1.566 1.082-.18.292-.648 1.135-.35.965.332-.19.102-1.034.485-1.042.383-.008.268.74.529 1.021.328.356.791.557 1.187.836.492.165.963.41 1.475.496 1.639.274 2.702-.21 3.12-1.864.068-.269-.164.878-.398.73-.353-.222-.232-.8-.348-1.2l-.558-.75.854-2.225.76.843c.187.44.556.844.561 1.322.015 1.4-.035 3.757-1.386 4.849-1.438 1.161-3.229.662-4.755.076-.596-.38-2.146-1.107-2.252-2.083-.211-1.96.035-4.105 1.876-5.108.313-.171.68-.216 1.02-.324l-.254 2.376zM144.193-55.297c-2.274 2.988-4.689 5.862-6.98 8.838-.83 1.075-1.677 2.143-2.626 3.118a4.603 4.603 0 0 1-.358.338c-.057.047-.195.04-.188.114.006.066.133.005.2.008l-.526-2.341c.321-.09.396-.226.647-.495.916-.98 1.758-2.029 2.574-3.093 2.3-2.966 4.724-5.834 6.949-8.857l.308 2.37zM161.684-38.329c-2.183 3.24-4.322 6.512-6.71 9.607-1.562 2.024-2.63 3.235-4.29 5.19-2.771 3.144-5.6 6.26-8.689 9.098l-.148-2.064c3.065-2.825 5.884-5.912 8.625-9.05 1.738-2.061 2.62-3.058 4.253-5.19 2.372-3.096 4.528-6.35 6.63-9.635l.329 2.044z" style="fill:red;fill-opacity:1;stroke:none;stroke-width:.151515;stroke-linecap:square;stroke-linejoin:miter;stroke-miterlimit:4;stroke-dasharray:none;stroke-opacity:1" transform="rotate(-34.729 61.897 -21.727) scale(.66)"/><path d="M158.643-42.158c4.029.592 8.473 1.91 11.012 5.364.484.659.771 1.442 1.157 2.163.165.747.42 1.479.496 2.24a7.45 7.45 0 0 1-.066 2.059c-.322 1.777-.47 4.042-2.192 5.145-1.344.86-2.536.718-4.047.8-3.015-.31-5.662-1.638-7.951-3.58-.35-.297-.662-.634-.993-.95l.791-2.244c.308.312.597.644.925.936 2.131 1.894 4.63 3.188 7.494 3.486 1.33-.092 2.4.05 3.53-.809.42-.318.526-.956.96-1.252.139-.094.159.621.202.46.447-1.659.131-2.474-.129-4.14-.328-.7-.553-1.456-.984-2.096-2.296-3.4-6.703-4.692-10.537-5.219l.332-2.363zM176.426-29.156c-1.5 1.204-2.94 2.6-3.822 4.341-.295.582-.435 1.229-.66 1.84-.059.16.11-.645.16-.483.147.485.101 1.01.152 1.514.669 1.283.784 1.904 2.122 2.72 1.78 1.086 4.363 1.365 6.364.885.639-.153 1.221-.484 1.832-.726.445-.401.962-.736 1.336-1.204.837-1.047.93-1.814 1.226-3.06.063-.267-.034 1.005-.212.796-.202-.235.037-.621.102-.924.19-.886.442-1.757.663-2.635l.417 2.355c.075-.572.118-1.149.226-1.716.059-.31-.032.634-.08.947-.35 2.256-.528 4.835-2.204 6.603-.45.475-1.034.803-1.551 1.205-.666.237-1.307.564-1.998.711-2.191.469-4.921.139-6.879-.992-1.472-.85-1.688-1.545-2.53-2.896-.107-.54-.364-1.072-.324-1.622.344-4.691 2.022-7.203 5.558-10.04l.101 2.381zM203.743-37.784c-4.957 7.217-10.24 14.205-15.373 21.296-.639.897-2.644 3.701-3.361 4.752-.368.54-.762 1.065-1.076 1.637-.239.435-.383.915-.574 1.372l-.425-2.338c.225-.46.416-.939.676-1.38.332-.565.722-1.092 1.094-1.63.799-1.155 2.635-3.703 3.373-4.732 5.155-7.08 10.446-14.068 15.339-21.334l.327 2.357z" style="fill:red;fill-opacity:1;stroke:none;stroke-width:.151515;stroke-linecap:square;stroke-linejoin:miter;stroke-miterlimit:4;stroke-dasharray:none;stroke-opacity:1" transform="rotate(-34.729 61.897 -21.727) scale(.66)"/><path d="M189.478-37.206c2.32.936 4.673 1.798 6.982 2.762 2.243.937 3.44 1.538 5.638 2.582 2.144 1.068 4.242 2.22 6.323 3.403l-.631 2.285c-2.062-1.19-4.142-2.344-6.27-3.41-2.19-1.042-3.362-1.634-5.596-2.562-2.3-.955-4.65-1.8-6.961-2.728l.515-2.332zM147.506-53c-1.684 3.154-3.02 6.475-4.346 9.791-.135.347-.272.693-.405 1.04-.084.22-.167.44-.248.66-.041.113-.073.229-.12.34-.03.068-.04.228-.107.195-2.369-1.167-2.376-.59-1.81-1.894.164-.29.306-.595.492-.873.25-.372.512-.74.812-1.073 1.211-1.345 2.75-2.424 4.403-3.156.58-.257 1.195-.426 1.793-.638 1.603-.28 2.081-.476 3.696-.326 1.578.148 3.488.946 4.715 1.716.769.483.88 1.59 1.065 2.338-.035.493-.017.992-.107 1.478-.414 2.243-1.965 4.37-3.447 6.036-.383.43-.798.832-1.197 1.248a28.569 28.569 0 0 1-2.69 2.328c-.263.202-.536.386-.805.58l-2.02-1.286c.024 0 .05.01.074 0 .175-.075.591-.368.682-.433a24.3 24.3 0 0 0 2.68-2.226c.393-.402.804-.788 1.182-1.204.848-.935 1.505-1.755 2.15-2.84.54-.912.959-1.776 1.137-2.828.071-.418.035-.847.053-1.27-.118-.347-.167-.726-.353-1.042-.187-.315-.816-.451-.745-.811.058-.291 1.146.24.885.099-.447-.24-.964-.331-1.464-.41-1.522-.243-2.041-.058-3.567.144-.58.185-1.177.325-1.74.556-.564.231-1.106.515-1.63.826-1.353.803-2.505 1.787-3.385 3.096-.173.258-.302.542-.453.813-.078.191-.029.582-.236.574-.79-.032-1.504-.494-2.273-.674-.044-.01-.049.174-.027.133.057-.108.09-.227.137-.34l.266-.657.423-1.038c1.37-3.33 2.745-6.66 4.33-9.897l2.2.924z" style="fill:red;fill-opacity:1;stroke:none;stroke-width:.151515;stroke-linecap:square;stroke-linejoin:miter;stroke-miterlimit:4;stroke-dasharray:none;stroke-opacity:1" transform="rotate(-34.729 61.897 -21.727) scale(.66)"/></g><g style="stroke-width:.75;stroke-miterlimit:4;stroke-dasharray:none"><g style="stroke:red;stroke-width:.75;stroke-miterlimit:4;stroke-dasharray:none;stroke-opacity:1"><path d="M272.16 55.148c-.309.481-.461.556-.412 1.186.018.225.097.857.19.65.102-.23-.349-.59-.148-.743.201-.154.431.289.68.338.313.061.638-.012.958-.018.326-.103.673-.156.979-.31.98-.492 1.358-1.164.936-2.208-.068-.17.185.793.072.544-.113-.25-.435-.336-.652-.504l-.59-.182-.411-1.518c.341-.048.607.07.812.158.292.123.546.228.735.48.553.74 1.444 2.016 1.15 3.124-.314 1.18-1.462 1.61-2.504 1.893-.466.029-1.575.246-2.011-.233-.876-.962-1.58-2.2-.99-3.453.1-.213.278-.38.418-.57l.789 1.366zM273.48 61.068c-.049 2.478-.216 4.95-.278 7.427-.023.897-.06 1.796-.185 2.685a3.032 3.032 0 0 1-.06.32c-.011.046-.087.097-.055.133.03.034.073-.049.11-.073l-1.192-1.043c.148-.165.111-.377.152-.515.106-.88.146-1.766.167-2.651.07-2.476.245-4.948.252-7.426l1.088 1.143z" style="fill:red;fill-opacity:1;stroke:red;stroke-width:.75;stroke-linecap:square;stroke-linejoin:miter;stroke-miterlimit:4;stroke-dasharray:none;stroke-opacity:1" transform="rotate(-3.622 -3366.298 -336.637)"/></g><g style="stroke:red;stroke-width:.75;stroke-miterlimit:4;stroke-dasharray:none;stroke-opacity:1"><path d="M289.407 63.297c.099 2.576.234 5.153.166 7.732-.044 1.687-.14 2.748-.264 4.436-.252 2.755-.546 5.517-1.086 8.232l-.883-1.042c.511-2.83.874-5.728 1.071-8.181.142-1.774.205-2.65.245-4.422.058-2.573-.061-5.147-.22-7.716l.971.96z" style="fill:red;fill-opacity:1;stroke:red;stroke-width:.75;stroke-linecap:square;stroke-linejoin:miter;stroke-miterlimit:4;stroke-dasharray:none;stroke-opacity:1" transform="rotate(-2.933 -4188.994 -425.704)"/><path d="M286.295 62.44c2.378-1.253 5.26-2.281 7.957-1.43.515.162.973.468 1.46.702.378.334.799.624 1.136 1 .302.338.569.715.767 1.123.52 1.072 1.323 2.337.835 3.595-.38.983-1.071 1.37-1.844 2.003-1.728 1.01-3.655 1.333-5.632 1.189-.301-.022-.599-.08-.898-.12L289.623 69c.298.057.603.097.857.138 1.874.18 3.71-.104 5.351-1.061.674-.567 1.299-.907 1.567-1.806.099-.333-.093-.714.023-1.041.037-.104.327.27.287.166-.408-1.057-.894-1.369-1.681-2.156-.447-.244-.862-.56-1.341-.733-2.547-.917-5.4.111-7.647 1.323l-.744-1.388z" style="fill:red;fill-opacity:1;stroke:red;stroke-width:.75;stroke-linecap:square;stroke-linejoin:miter;stroke-miterlimit:4;stroke-dasharray:none;stroke-opacity:1" transform="rotate(-2.933 -4188.994 -425.704)"/></g><path d="M301.047 62.443c-.33 1.225-.554 2.53-.346 3.802.07.424.247.824.365 1.237.031.108-.192-.387-.102-.32.267.202.446.498.67.747.856.424 1.16.71 2.19.624 1.371-.115 2.856-.972 3.736-2.007.28-.33.527-.7.693-1.1.151-.366.226-.768.243-1.163.095-.793-.082-1.21-.341-1.6-.297-.447-.748-1.106-1.125-1.691l.738-.414s.23.35.325.536c.693 1.338 1.603 2.782 1.398 4.376a4.131 4.131 0 0 1-.357 1.246c-.2.422-.477.81-.787 1.158-.986 1.103-2.569 1.99-4.052 2.15-1.116.12-1.502-.166-2.476-.558-.268-.246-.612-.429-.804-.738-1.645-2.633-1.729-4.625-.95-7.514l.982 1.229z" style="fill:red;fill-opacity:1;stroke:red;stroke-width:.75;stroke-linecap:square;stroke-linejoin:miter;stroke-miterlimit:4;stroke-dasharray:none;stroke-opacity:1" transform="rotate(.021 619436.59 52742.57)"/><g style="stroke:red;stroke-width:.75;stroke-miterlimit:4;stroke-dasharray:none;stroke-opacity:1"><path d="M312.03 47.206c.17 5.776.076 11.557.103 17.335.009.726.032 3.002.06 3.841.014.43.009.864.064 1.291.042.325.152.637.229.955l-1.138-1.08c-.073-.347-.125-.703-.177-1-.043-.43-.04-.862-.052-1.294-.024-.926-.038-2.999-.045-3.835-.011-5.78.086-11.564-.137-17.341l1.093 1.128z" style="fill:red;fill-opacity:1;stroke:red;stroke-width:.75;stroke-linecap:square;stroke-linejoin:miter;stroke-miterlimit:4;stroke-dasharray:none;stroke-opacity:1" transform="rotate(.021 619436.537 53028.377)"/><path d="M304.625 52.412c1.632-.254 3.257-.56 4.891-.795 1.589-.227 2.47-.291 4.07-.443a86.307 86.307 0 0 1 4.734-.208l.415 1.508v0a79.76 79.76 0 0 0-4.707.188c-1.593.15-2.458.21-4.038.439-1.627.236-3.244.551-4.868.807l-.497-1.496z" style="fill:red;fill-opacity:1;stroke:red;stroke-width:.75;stroke-linecap:square;stroke-linejoin:miter;stroke-miterlimit:4;stroke-dasharray:none;stroke-opacity:1" transform="rotate(.021 619436.537 53028.377)"/></g><path d="M275.183 61.001c.331 2.337.913 4.627 1.498 6.91.063.238.125.475.19.713.04.15.082.298.124.447.022.076.05.15.068.228.011.048.067.137.02.146-1.717.3-1.496.611-1.703-.304-.026-.219-.068-.437-.077-.657a6.24 6.24 0 0 1 .014-.888 8.634 8.634 0 0 1 1.117-3.397c.209-.363.471-.692.707-1.038.745-.773.923-1.064 1.842-1.613.899-.536 2.227-.854 3.18-.922.599-.042 1.089.505 1.48.83.172.277.376.536.518.83.653 1.356.655 3.093.514 4.559-.036.378-.101.754-.152 1.131a18.857 18.857 0 0 1-.526 2.288c-.062.21-.136.415-.203.623l-1.578.101s.177-.365.235-.525c.26-.722.425-1.474.56-2.23.054-.367.122-.733.161-1.102.088-.828.119-1.52.04-2.35-.067-.697-.18-1.32-.495-1.95-.125-.25-.312-.465-.467-.698-.198-.139-.372-.321-.594-.417-.223-.095-.61.077-.713-.142-.083-.178.704-.32.51-.292-.331.046-.642.199-.94.351-.905.464-1.11.765-1.844 1.466-.237.325-.5.632-.71.975-.211.342-.39.705-.547 1.074-.409.955-.64 1.928-.598 2.969.008.204.05.406.075.61.033.132.211.32.098.397-.433.29-.993.323-1.474.526-.028.012.042.111.038.082-.012-.08-.04-.157-.06-.235l-.114-.454-.179-.717c-.567-2.309-1.131-4.619-1.548-6.96l1.533-.365z" style="fill:red;fill-opacity:1;stroke:red;stroke-width:.75;stroke-linecap:square;stroke-linejoin:miter;stroke-miterlimit:4;stroke-dasharray:none;stroke-opacity:1" transform="rotate(.021 619436.59 52742.57)"/></g><g style="display:inline;fill:red;stroke-width:1.51515"><g style="fill:red;stroke-width:1.51515"><path d="M268.84 27.096c-.112.515-.513 2.35-.563 2.756-.25 2.064-.232 4.236.53 6.203.26.67.55 1.353 1.003 1.911 1.027 1.263 1.536 1.905 3.19 2.352.14.038-.208-.378-.073-.43.626-.24 1.347-.104 1.988-.302 1.781-.55 2.113-1.116 3.481-2.332.429-.637.93-1.23 1.285-1.91.866-1.652 1.667-4.208.93-6.063-.56-1.408-1.316-1.562-2.538-2.278.012.08.117.238.035.242-.708.042-1.416-.146-2.124-.12-1.83.067-3.792.6-5.5 1.247-.358.135-.701.307-1.052.46l-.525.327-2.069-1.187c.177-.142.4-.309.588-.41.354-.19.72-.356 1.093-.504 1.722-.686 3.803-1.274 5.646-1.424.739-.06 1.499-.15 2.223.006 1.388.298 2.695.894 4.043 1.34 1.31.995 1.955 1.16 2.482 2.813.652 2.049-.14 4.678-1.082 6.495-.377.726-.9 1.366-1.35 2.05-1.458 1.363-1.766 1.932-3.663 2.633-2.425.896-3.457.423-6.172-.578-.65-.24-1.242-.642-1.767-1.094a7.595 7.595 0 0 1-1.4-1.636 9.741 9.741 0 0 1-.981-2.05c-.73-2.07-.736-4.32-.475-6.473.049-.404.468-2.366.571-2.86l2.245.816zM278.02 19.524c1.165 2.48 2.607 4.872 4.802 6.582.5.39 1.066.688 1.598 1.032.544.214 1.05.588 1.632.642.23.02-.622-.381-.447-.533.388-.337 1.032-.152 1.494-.376 1.003-.487 1.81-1.442 2.3-2.416.278-.55.404-1.164.605-1.746.038-.628.171-1.257.115-1.884-.18-1.997-1.247-3.801-2.826-4.993-1.142-.862-1.938-1.131-3.586-1.679.142.15.607.35.426.449-.356.196-.799-.065-1.204-.038-.264.018-.523.07-.78.135-.108.028-.218.106-.325.168-.637-.255-1.555-.64-2.282-.915.031-.116.152-.24.233-.318.27-.257 1.01-.484 1.285-.524 1.949-.283 3 .173 4.997.87 1.676.586 2.22.749 3.587 1.973 1.581 1.417 2.615 3.372 2.743 5.51.04.682-.11 1.362-.165 2.044-.222.634-.366 1.301-.665 1.903-.543 1.092-1.432 2.177-2.507 2.794-.504.29-1.066.607-1.646.576-2.44-.13-3.436-.733-5.34-1.623-.532-.378-1.095-.715-1.594-1.136-2.173-1.833-3.632-4.295-4.811-6.843l2.36.346zM273.647-6.557c3.035 2.097 5.435 4.946 7.883 7.67 3.084 3.419 6 6.981 9.001 10.47 1.011 1.176 2.732 3.092 3.636 4.115 1.672 1.892 3.325 3.784 4.9 5.749-1.155.342-1.29.277-1.99.303a203.366 203.366 0 0 0-5.269-6.173c-4.292-4.787-8.325-9.799-12.607-14.594-2.447-2.69-4.855-5.516-7.945-7.496l2.39-.044z" style="fill:red;fill-opacity:1;stroke:none;stroke-width:.151515;stroke-linecap:square;stroke-linejoin:miter;stroke-miterlimit:4;stroke-dasharray:none;stroke-opacity:1" transform="rotate(45.746 250.913 -41.103) scale(.66)"/><path d="M272.7 6.021c1.956-3.735 4.742-6.951 7.4-10.197 1.685-2.005 3.287-4.08 5.011-6.053.454-.775.024-.112 2.084 1.133l-2.165-1.027c2.227 1.033 1.908 1.775 2.232.943-1.792 1.902-3.33 4.032-5.043 6.003-2.616 3.191-5.37 6.351-7.281 10.035l-2.239-.837zM292.641 6.327c3.185 1.593 5.33 4.153 7.636 6.79 4.106 5.118 7.803 10.544 11.813 15.736l1.686 2.07-2.371-.17c-.978-1.227-.426-.533-1.657-2.084-3.96-5.21-7.653-10.625-11.803-15.69-2.242-2.506-4.512-5.15-7.69-6.479l2.386-.173z" style="fill:red;fill-opacity:1;stroke:none;stroke-width:.151515;stroke-linecap:square;stroke-linejoin:miter;stroke-miterlimit:4;stroke-dasharray:none;stroke-opacity:1" transform="rotate(45.746 250.913 -41.103) scale(.66)"/><path d="M290.377 9.721c-.564-1.9-.665-3.651-.095-5.582.376-1.276.877-2.322 1.513-3.474a9.563 9.563 0 0 1 1.045-1.498c1.278-1.529 2.75-2.605 4.804-2.739 2.124-.137 4.181.568 5.784 1.568.544.339 1.06.74 1.489 1.217 1.026 1.14 1.325 2.086 1.553 3.587.095.623.138 1.26.088 1.887-.132 1.656-.345 2.768-1.009 4.28-.623 1.42-1.26 2.295-2.38 3.377-.354.342-.812.557-1.218.835l-2.048-1.191c.419-.194.84-.41 1.131-.647 1.112-.906 1.748-1.77 2.318-3.064.625-1.42.811-2.596.914-4.15a7.148 7.148 0 0 0-.114-1.754c-.247-1.35-.595-2.212-1.594-3.175-.435-.42-.82-.77-1.482-1.044-.51-.212-.96-.3-1.529-.333-1.99-.119-3.298.858-4.552 2.31a8.618 8.618 0 0 0-1.007 1.407c-.615 1.096-1.099 2.092-1.453 3.312-.517 1.78-.392 3.508.2 5.241l-2.358-.37zM304.589-8.396c1.55 2.717 3.617 5.858 6.494 7.306.626.315 1.323.463 1.985.694-.038-.148-.253-.379-.115-.444.535-.25 1.197-.09 1.742-.318 1.846-.774 2.676-2.835 2.667-4.718A8.613 8.613 0 0 0 317-8.247a10.747 10.747 0 0 0-1.026-2.353c-1.24-2.138-3.222-4.271-5.717-4.886-.17-.042.386.368.242.468-.325.227-1.136.136-1.528.197l-1.509-1.75c2.097.153 2.592.086 5.14.974 2.498.87 4.47 3.074 5.688 5.343.426.794.773 1.64 1 2.513.216.833.334 1.701.317 2.561-.04 2.124-1.007 4.395-2.992 5.392-.579.29-1.232.494-1.88.489-1.439-.012-2.623-.232-3.891-.735-.61-.242-1.487-.689-2.112-1.047-2.909-1.67-4.85-4.767-6.513-7.574zM302.43-31.947c5.007 3.145 9.015 7.566 12.983 11.883 2.501 2.722 4.864 5.567 7.277 8.367 1.04 1.206 2.043 2.383 3.224 3.448l-2.38-.084c-1.16-1.174-2.255-2.442-3.17-3.512-2.393-2.8-4.75-5.636-7.253-8.34-3.968-4.285-7.997-8.678-13.064-11.692l2.383-.07z" style="fill:red;fill-opacity:1;stroke:none;stroke-width:.151515;stroke-linecap:square;stroke-linejoin:miter;stroke-miterlimit:4;stroke-dasharray:none;stroke-opacity:1" transform="rotate(45.746 250.913 -41.103) scale(.66)"/><path d="M300.053-21.245c3.382-5.593 7.166-10.93 11.125-16.126l2.133.983c-3.982 5.14-7.764 10.448-11.072 16.052z" style="fill:red;fill-opacity:1;stroke:none;stroke-width:.151515;stroke-linecap:square;stroke-linejoin:miter;stroke-miterlimit:4;stroke-dasharray:none;stroke-opacity:1" transform="rotate(45.746 250.913 -41.103) scale(.66)"/></g></g><path d="M110.836 42.845c-.325.201-1.488.916-1.724 1.094-1.206.91-2.332 2.013-2.977 3.402-.22.474-.43.97-.493 1.489-.143 1.174-.222 1.764.378 2.854.05.093.093-.3.188-.254.441.207.734.652 1.16.888 1.186.655 1.645.642 2.975.647.557.002 1.112-.134 1.646-.29 1.3-.379 3.041-1.248 3.64-2.568.453-1.002.153-1.476-.089-2.476-.036.047-.065.18-.109.14-.379-.35-.637-.814-1.008-1.172-.957-.924-2.226-1.682-3.425-2.25-.251-.12-.514-.213-.771-.32l-.436-.11-.422-1.68c.164.02.363.054.511.101.278.09.55.198.814.318 1.227.555 2.584 1.349 3.592 2.238.404.356.834.708 1.117 1.166.544.877.892 1.861 1.338 2.792.14 1.186.38 1.607-.22 2.715-.742 1.374-2.516 2.284-3.941 2.707-.57.169-1.158.317-1.752.326-1.45.023-1.901.049-3.224-.59-1.691-.818-1.964-1.597-2.81-3.522-.202-.46-.29-.974-.319-1.476-.029-.52.03-1.05.15-1.557.125-.536.33-1.054.577-1.546.715-1.426 1.888-2.562 3.145-3.51.236-.178 1.473-.948 1.784-1.143l.705 1.587zM120.783 43.841c-.71 1.86-1.232 3.82-1.02 5.83.048.459.177.905.266 1.357.162.392.222.846.487 1.177.105.132-.114-.517.054-.502.371.034.612.433.95.593.963.456 2.191.223 2.948-.01a4.978 4.978 0 0 0 1.218-.564 4.84 4.84 0 0 0 1.043-.889c.953-1.1 1.36-2.568 1.186-3.995-.125-1.032-.385-1.584-.93-2.723-.006.15.123.494-.02.45-.282-.088-.369-.451-.587-.65-.142-.129-.3-.238-.464-.34-.07-.042-.806-.415-.892-.44.067-.357.223-1.204.252-1.339.27.011.762.285.922.409 1.13.877 1.422 1.656 2.064 3.053.539 1.172.728 1.539.777 2.872.057 1.541-.437 3.075-1.498 4.211-.711.762-1.608 1.258-2.483 1.613-.82.333-2.124.434-3.25.035-.398-.141-.987-.499-1.276-.807-.93-.99-1.413-2.001-1.7-3.378a10.27 10.27 0 0 1-.208-1.406c-.137-2.061.414-4.065 1.152-5.966l1.01 1.41zM132.048 28.683c.227 2.107.388 4.987.462 7.492.098 3.149.036 6.298.054 9.447.006 1.061 0 2.85.018 3.784.035 1.727.118 3.419.065 5.141-.8-.334-1.05-.292-1.449-.59.031-1.658.037-3.839-.01-5.552-.124-4.398.003-8.798-.11-13.196-.09-2.486-.151-4.89-.578-7.428.447.346 1.102.557 1.548.902z" style="fill:red;fill-opacity:1;stroke:red;stroke-width:.524999;stroke-linecap:square;stroke-linejoin:miter;stroke-miterlimit:4;stroke-dasharray:none;stroke-opacity:1" transform="rotate(-.083 -148884.79 -25701.108)"/><path d="M124.106 35.785c3.13-.617 6.353-.53 9.532-.528 1.985.026 4.185-.01 6.17.052-.016.215.122.66.203 1.02-.25.034-.043.44 0 .655-1.975-.133-3.962-.018-5.94-.075-3.128-.004-6.303-.1-9.38.52zM136.48 44.772c.616 2.375.774 4.731.89 7.274.22 4.762-.1 9.53-.01 14.295.01.561.02 1.05.075 1.938l-1.353-1.208c.002-.824.002-1.292-.001-1.86-.027-4.755.265-9.515-.003-14.264-.138-2.44-.477-4.466-1.058-7.118z" style="fill:red;fill-opacity:1;stroke:red;stroke-width:.524999;stroke-linecap:square;stroke-linejoin:miter;stroke-miterlimit:4;stroke-dasharray:none;stroke-opacity:1" transform="rotate(-.083 -148884.79 -25701.108)"/><path d="M135.417 44.533c1.033-1.002 2.127-1.656 3.562-1.937.947-.187 1.789-.215 2.745-.193.442.01.884.075 1.316.17 1.414.31 2.602.896 3.379 2.174.803 1.322 1.041 2.884.937 4.253-.035.464-.12.931-.283 1.367-.388 1.044-.897 1.555-1.786 2.206a5.99 5.99 0 0 1-1.185.69c-1.11.472-1.898.709-3.095.79-1.124.075-1.901-.041-2.974-.399-.34-.113-.632-.336-.948-.505l.078-1.719c.265.205.546.403.797.512.957.411 1.727.53 2.752.463 1.124-.075 1.944-.35 2.98-.806.389-.171.755-.4 1.09-.662.786-.613 1.224-1.127 1.508-2.094.123-.42.22-.786.173-1.305a3.21 3.21 0 0 0-.3-1.097c-.594-1.322-1.662-1.836-3.019-2.156a6.26 6.26 0 0 0-1.244-.176c-.913-.028-1.717-.005-2.621.177-1.32.265-2.39.926-3.307 1.89l-.555-1.643zM151.72 43.227c-.64 2.18-1.307 4.807-.67 7.06.157.557.396 1.198.726 1.579.282.323.651.58 1.045.75 1.572.679 3.284.451 4.472-.729.412-.409.77-.88 1.057-1.384.308-.54.578-1.115.713-1.722.341-1.538.14-3.004-.126-4.015-.141-.539-.701-1.353-1.074-1.694l.83-.78c.69.823.993 1.544 1.302 2.351.687 1.795.587 3.578.054 5.524-.172.632-.468 1.231-.81 1.79a7.464 7.464 0 0 1-1.179 1.456c-1.234 1.194-3.28 1.437-4.988.899-.448-.141-.86-.415-1.202-.737-1.42-1.334-1.808-2.336-2.095-4.04-.373-2.213.047-4.94.676-7.225zM163.757 28.622c.513 4.334.539 9.017.593 13.557.033 2.862-.067 5.724-.12 8.586-.022 1.232-.049 2.43.073 3.654l-1.337-.78c-.059-1.277-.036-2.574-.012-3.663.063-2.853.163-5.705.119-8.558-.07-4.522.022-8.545-.73-13.49.462.415 1.02.338 1.414.694z" style="fill:red;fill-opacity:1;stroke:red;stroke-width:.524999;stroke-linecap:square;stroke-linejoin:miter;stroke-miterlimit:4;stroke-dasharray:none;stroke-opacity:1" transform="rotate(-.083 -148884.79 -25701.108)"/><path d="M156.108 35.66c4.725-.457 9.476-.567 14.22-.514l.354 1.669c-4.722-.09-9.455.008-14.154.513z" style="fill:red;fill-opacity:1;stroke:red;stroke-width:.524999;stroke-linecap:square;stroke-linejoin:miter;stroke-miterlimit:4;stroke-dasharray:none;stroke-opacity:1" transform="rotate(-.083 -148884.79 -25701.108)"/></g><path d="M293.859 248.237h59.757v36.034h-59.757z" style="fill:#fff6d5;fill-opacity:1;stroke:none;stroke-width:.99975;stroke-linecap:square;stroke-miterlimit:4;stroke-dasharray:none;stroke-opacity:1" transform="rotate(-33.135)"/><g style="fill:red;stroke:red;stroke-width:1.46498;stroke-miterlimit:4;stroke-dasharray:none;stroke-opacity:1"><path d="M272.351 54.07c-1.077.596-1.163 1.614-1.113 2.244.017.225.096.857.188.651.103-.23-.348-.59-.147-.744.201-.154.431.29.68.338.313.061.638-.012.958-.017.326-.104.673-.157.979-.31.98-.493 1.358-1.165.937-2.209-.069-.17.184.793.072.544-.114-.25-.436-.336-.653-.504-.197-.06-1.122-.338-1.768 0l-.51-1.287c.775-.566 1.884-.342 2.09-.255.29.123.504.265.734.481.724.68 1.444 2.016 1.15 3.123-.314 1.18-1.462 1.61-2.504 1.893-.466.03-1.575.246-2.011-.233-.876-.962-1.58-2.2-.99-3.452.1-.214.626-1.172 1.474-1.573.263.455.171.856.434 1.31zM273.645 61.106c-.048 2.477-.212 5.225-.274 7.703-.024.896-.128 2.049-.19 2.838-.013.153 0 .347 0 .503-.289-.104-1.118-.488-1.374-.57.037-.18.074-.41.095-.552.127-.877.152-1.92.172-2.805.071-2.476.27-5.117.278-7.594z" style="fill:red;fill-opacity:1;stroke:red;stroke-width:1.46498;stroke-linecap:square;stroke-linejoin:miter;stroke-miterlimit:4;stroke-dasharray:none;stroke-opacity:1" transform="matrix(.61524 -.45897 .46128 .6144 204.356 144.025)"/></g><g style="fill:red;stroke:red;stroke-width:1.46498;stroke-miterlimit:4;stroke-dasharray:none;stroke-opacity:1"><path d="M289.407 63.297c.099 2.576-.084 5.13-.151 7.709-.044 1.687-.106 3.062-.145 4.521-.035 1.282-.136 2.572-.19 4.635l-.882-1.042c.11-1.677.118-3.297.173-4.584.061-1.41.086-2.735.126-4.507.058-2.573.257-5.124.098-7.693l.971.96z" style="fill:red;fill-opacity:1;stroke:red;stroke-width:1.46498;stroke-linecap:square;stroke-linejoin:miter;stroke-miterlimit:4;stroke-dasharray:none;stroke-opacity:1" transform="matrix(.62395 -.44738 .44955 .6228 205.318 139.76)"/><path d="M286.295 62.44c2.378-1.253 5.26-2.281 7.957-1.43.515.162.973.468 1.46.702.378.334.799.624 1.136 1 .302.338.569.715.767 1.123.52 1.072 1.323 2.337.835 3.595-.38.983-1.071 1.37-1.844 2.003-1.728 1.01-3.655 1.333-5.632 1.189-.301-.022-.599-.08-.898-.12L289.623 69c.298.057.603.097.857.138 1.874.18 3.71-.104 5.351-1.061.674-.567 1.299-.907 1.567-1.806.099-.333-.093-.714.023-1.041.037-.104.327.27.287.166-.408-1.057-.894-1.369-1.681-2.156-.447-.244-.862-.56-1.341-.733-2.547-.917-5.4.111-7.647 1.323l-.744-1.388z" style="fill:red;fill-opacity:1;stroke:red;stroke-width:1.46498;stroke-linecap:square;stroke-linejoin:miter;stroke-miterlimit:4;stroke-dasharray:none;stroke-opacity:1" transform="matrix(.62395 -.44738 .44955 .6228 205.318 139.76)"/></g><path d="M422.144 43.586c.326.989.89 2.245 1.596 3.035.236.264.532.464.795.7.069.06-.3-.186-.21-.178.267.025.508.23.78.23.763.002 1.089-.007 1.738-.508.863-.667 1.47-1.896 1.595-2.989.04-.349.04-.71-.029-1.058-.062-.318-.205-.62-.356-.908a3.013 3.013 0 0 0-.962-1.112 8.006 8.006 0 0 0-1.233-.75l.332-.71s.31.143.456.23c1.059.629 2.034 1.56 2.609 2.75.154.32.267.666.318 1.015.054.378.043.764-.01 1.138-.164 1.185-.824 2.477-1.741 3.224-.69.561-1.076.529-1.9.675-.288-.055-.6-.035-.865-.166-2.272-1.116-3.216-2.458-3.986-4.79.322-.005.713.044 1.072.172z" style="fill:red;fill-opacity:1;stroke:red;stroke-width:1.125;stroke-linecap:square;stroke-linejoin:miter;stroke-miterlimit:4;stroke-dasharray:none;stroke-opacity:1"/><path d="M431.195 39.868c.324.489 1.334 2.023 1.72 2.58.197.287.383.583.606.85.169.203.217.332.406.516l-.907.435c-.2-.205-.389-.424-.552-.604-.216-.273-.404-.568-.6-.857-.42-.618-1.336-2.018-1.706-2.582-2.536-3.917-4.899-6.795-7.57-10.621.407-.062.675-.197 1.058-.348 2.698 3.932 5.56 7.608 7.545 10.63z" style="fill:red;fill-opacity:1;stroke:red;stroke-width:1.125;stroke-linecap:square;stroke-linejoin:miter;stroke-miterlimit:4;stroke-dasharray:none;stroke-opacity:1" transform="translate(.6 -.3)"/><path d="M421.9 36.658c.965-.82 1.905-1.674 2.88-2.483.949-.786 1.5-1.182 2.486-1.923a66.24 66.24 0 0 1 3.015-2.037l.88.82v0a61.225 61.225 0 0 0-3.006 2.012c-.982.737-1.524 1.123-2.466 1.908-.97.807-1.901 1.662-2.86 2.481l-.93-.778z" style="fill:red;fill-opacity:1;stroke:red;stroke-width:1.125;stroke-linecap:square;stroke-linejoin:miter;stroke-miterlimit:4;stroke-dasharray:none;stroke-opacity:1" transform="translate(.6 -.3)"/><path d="M403.799 54.325c1.438 1.64 3.313 4.036 4.939 5.487-.125.162-.626.77-.764 1.038-.243-.286-.494-.553-.676-.782-.92-1.158-1.457-3.644-1.335-5.101.104-.795.291-1.601.756-2.27.43-.613 1.34-1.43 1.974-1.834.522-.166 1.108-.042 1.587.197 1.093.557 2.088 1.64 2.686 2.68.658 1.144 1.046 2.017 1.364 3.022-.293.215-.724.516-1.017.731-.238-.983-.65-1.85-1.002-2.533-.316-.613-1.133-1.743-1.8-2.3-.52-.433-1.134-.874-1.837-.799-.136.083-.686.414-.48.016.123-.157.277-.33.031-.076-.466.57-1.257 1.539-1.384 2.258a5.111 5.111 0 0 0 .25 3.626c.467 1.038 1.077 1.705 1.517 1.982-.561 1.263-.856.856-1.67.038-1.154-1.236-2.791-3.234-3.978-4.509l.839-.87z" style="fill:red;fill-opacity:1;stroke:red;stroke-width:1.125;stroke-linecap:square;stroke-linejoin:miter;stroke-miterlimit:4;stroke-dasharray:none;stroke-opacity:1"/><path d="M400.866 77.26c.183-.948.52-1.66.956-2.252.626-.689 1.516-.977 2.317-1.4.967-.55 1.878-1.185 2.861-1.71.86-.38 1.753-.705 2.446-1.34.161-.147.304-.321.456-.482.544-.647.99-1.438 1.55-2.06.306-.338.425-.417.762-.7a7.975 7.975 0 0 1 2.265-1.242c.766-.207 1.419-.592 2.058-.998.63-.41 1.174-.955 1.764-1.427.56-.47 1.26-.725 1.911-1.053.767-.41 1.485-.896 2.206-1.376.715-.458 1.398-.967 2.147-1.374a20.557 20.557 0 0 0 2.335-1.298c.663-.434 1.322-.872 1.984-1.308.658-.43 1.315-.863 1.975-1.293.705-.412 1.486-.708 2.241-1.042.67-.31 1.275-.721 1.88-1.13.53-.328.958-.81 1.445-1.203.394-.297.809-.562 1.225-.826a6.82 6.82 0 0 0 1.177-.848c.467-.455.995-.819 1.53-1.172.568-.372 1.135-.746 1.76-1.033.545-.176 1.09-.35 1.58-.614.471-.241.86-.605 1.244-.978.421-.449.795-.966 1.237-1.384.43-.373.918-.656 1.396-.955.433-.328.957-.516 1.458-.737.35-.19.697-.386 1.088-.512.17-.01.264-.142.424-.167l1.903 2.511v0c-.108.144-.301.16-.452.237-.174.051-.364.078-.523.152-.199.092-.354.253-.564.326-.49.227-1.034.373-1.455.708-.472.292-.953.57-1.392.912-.456.395-.833.905-1.234 1.38-.397.376-.771.784-1.248 1.038-.479.29-1.024.476-1.594.623-.081.035-.542.233-.62.275-.394.215-.74.506-1.132.727-.53.343-1.06.689-1.522 1.134-.361.348-.742.665-1.176.902-.413.26-.834.506-1.228.794-.499.381-.93.865-1.452 1.212-.613.413-1.22.836-1.89 1.16-.745.339-1.524.621-2.235 1.01-.658.434-1.32.859-1.977 1.29-.663.436-1.32.88-1.984 1.313-.753.479-1.525.93-2.34 1.313-.759.382-1.43.899-2.144 1.35-.726.482-1.444.978-2.208 1.402-.635.338-1.332.579-1.898 1.023-.608.454-1.148 1.01-1.773 1.438-.642.422-1.288.841-2.068 1.049a7.63 7.63 0 0 0-2.257 1.16c-.328.255-.464.342-.761.65-.58.599-1.03 1.386-1.56 2.056-.153.174-.296.362-.458.522-.681.669-1.554 1.045-2.444 1.392-.237.122-.718.364-.94.497-.65.389-1.254.849-1.92 1.211-.416.233-.444.258-.86.46-.376.182-.783.319-1.119.565-.114.084-.213.193-.32.29-.088.107-.183.204-.265.32-.32.458-.523 1.085-.675 1.778l-1.893-2.267z" style="fill:#000;fill-opacity:1;stroke:#000;stroke-width:.99975;stroke-linecap:square;stroke-linejoin:miter;stroke-miterlimit:4;stroke-dasharray:none;stroke-opacity:1"/><path d="M431.296 14.117c.812-.024 1.389.106 1.842.33.508.348.614.96.855 1.482.327.625.739 1.194 1.04 1.835.193.573.332 1.18.78 1.588.104.095.235.171.353.257.484.294 1.112.491 1.571.803.25.169.3.244.494.447.362.412.6.905.725 1.47.055.533.287.953.54 1.358.26.399.653.71.973 1.068.324.336.433.812.615 1.24.236.5.548.95.853 1.405.287.453.625.873.86 1.36a8.31 8.31 0 0 0 .762 1.513c.274.419.554.834.83 1.251.272.416.546.83.817 1.247.249.454.38.983.55 1.487.164.445.427.824.688 1.205.204.337.56.573.828.868.198.242.364.505.528.77.148.267.322.518.556.73.327.27.562.6.786.936.235.36.472.717.622 1.132.065.374.129.75.28 1.069.136.308.394.536.66.757.33.237.727.427 1.024.684.26.256.43.57.615.875.219.266.298.623.41.958.11.227.226.451.272.72-.02.125.082.172.077.286l-2.556 1.835v0c-.11-.056-.091-.196-.134-.295-.016-.12-.008-.257-.047-.363-.048-.132-.165-.22-.195-.363-.12-.326-.157-.704-.385-.96-.18-.3-.346-.61-.577-.879-.275-.27-.665-.464-1.02-.683-.268-.23-.568-.439-.714-.75-.176-.306-.25-.68-.285-1.077-.018-.055-.116-.363-.14-.413-.126-.257-.325-.465-.457-.717-.215-.336-.434-.67-.752-.939-.249-.209-.466-.438-.604-.72-.162-.262-.31-.533-.5-.777-.256-.306-.613-.544-.834-.872-.264-.386-.538-.764-.714-1.207-.176-.495-.296-1.026-.523-1.487-.274-.415-.54-.834-.814-1.25-.276-.417-.56-.83-.833-1.25-.3-.478-.57-.974-.774-1.514-.213-.498-.56-.91-.84-1.363-.307-.457-.628-.905-.876-1.4-.194-.415-.29-.891-.59-1.236-.302-.374-.706-.681-.981-1.073-.268-.405-.532-.813-.585-1.357a3.148 3.148 0 0 0-.652-1.479c-.172-.2-.226-.286-.45-.455-.436-.328-1.06-.53-1.567-.81-.13-.084-.273-.158-.387-.252-.48-.392-.669-.976-.828-1.578-.068-.155-.202-.47-.283-.613-.236-.417-.544-.787-.754-1.22-.138-.27-.155-.286-.264-.56-.1-.249-.152-.528-.315-.735-.055-.071-.136-.126-.204-.188-.08-.048-.15-.102-.24-.143-.353-.161-.877-.206-1.468-.202l2.336-1.786z" style="fill:#000;fill-opacity:1;stroke:#000;stroke-width:.99975;stroke-linecap:square;stroke-linejoin:miter;stroke-miterlimit:4;stroke-dasharray:none;stroke-opacity:1"/><path d="M432.586 14.878c-.183.948-.52 1.66-.956 2.252-.626.689-1.517.977-2.317 1.4-.967.55-1.878 1.185-2.861 1.71-.86.38-1.753.705-2.446 1.34-.161.146-.304.321-.456.482-.544.647-.99 1.438-1.55 2.06-.306.338-.425.417-.762.699a7.975 7.975 0 0 1-2.265 1.243c-.766.207-1.42.592-2.058.998-.63.41-1.174.955-1.764 1.427-.56.47-1.26.724-1.911 1.053-.767.41-1.485.896-2.206 1.376-.715.458-1.398.967-2.147 1.374-.814.378-1.584.822-2.335 1.298-.663.433-1.322.872-1.984 1.308-.658.43-1.315.863-1.975 1.293-.705.412-1.486.708-2.241 1.042-.67.31-1.275.72-1.881 1.13-.53.328-.957.81-1.444 1.203a17.79 17.79 0 0 1-1.225.826 6.82 6.82 0 0 0-1.177.848c-.467.455-.995.819-1.53 1.172-.568.372-1.135.746-1.76 1.032-.545.177-1.09.352-1.58.614-.471.242-.86.606-1.244.979-.421.448-.795.966-1.237 1.383-.43.374-.918.657-1.396.956-.433.328-.957.516-1.459.737-.35.19-.696.386-1.087.512-.17.01-.264.142-.424.167l-1.903-2.512v0c.108-.143.3-.16.452-.236.173-.051.364-.078.523-.152.199-.092.354-.253.564-.326.49-.227 1.033-.373 1.455-.708.472-.292.953-.57 1.392-.912.456-.395.833-.906 1.234-1.38.396-.376.771-.784 1.248-1.038.479-.29 1.024-.476 1.594-.623.081-.036.542-.233.62-.275.394-.216.74-.506 1.131-.727.531-.343 1.06-.689 1.523-1.134.361-.348.742-.665 1.176-.902.413-.26.834-.506 1.228-.794.499-.382.93-.865 1.452-1.213.613-.412 1.22-.835 1.89-1.16.744-.338 1.524-.62 2.235-1.01.657-.433 1.32-.858 1.977-1.29.662-.436 1.32-.879 1.984-1.312.753-.479 1.525-.93 2.34-1.313.759-.382 1.43-.9 2.144-1.35.726-.482 1.444-.978 2.208-1.403.634-.337 1.332-.578 1.898-1.022.608-.455 1.148-1.01 1.773-1.438.642-.422 1.288-.842 2.068-1.05a7.63 7.63 0 0 0 2.257-1.16c.328-.254.464-.34.761-.649.58-.6 1.03-1.386 1.56-2.057.153-.173.296-.362.458-.52.681-.67 1.554-1.046 2.444-1.394.237-.12.717-.363.94-.496.65-.389 1.254-.849 1.92-1.211.416-.234.444-.258.86-.46.376-.182.783-.32 1.119-.565.114-.085.213-.194.32-.29.088-.107.183-.204.264-.32.322-.458.524-1.085.676-1.778l1.893 2.266z" style="fill:#000;fill-opacity:1;stroke:#000;stroke-width:.99975;stroke-linecap:square;stroke-linejoin:miter;stroke-miterlimit:4;stroke-dasharray:none;stroke-opacity:1"/><path d="M381.022 46.935c-.35.734-.462 1.314-.44 1.82.115.604.632.948 1.013 1.379.44.55.795 1.156 1.26 1.69.448.407.949.779 1.141 1.352.045.134.062.285.093.427.075.562.002 1.216.103 1.762.054.297.103.373.21.632.232.497.588.912 1.055 1.255.466.265.756.646 1.025 1.041.261.398.388.883.587 1.32.177.433.57.723.888 1.063.362.417.649.883.942 1.345.3.446.548.924.899 1.336.414.4.762.843 1.079 1.306.273.42.54.842.811 1.263.271.417.54.834.813 1.25.315.41.747.744 1.14 1.102.34.328.583.722.826 1.114.226.322.3.744.462 1.107.141.28.315.537.49.794.187.243.346.503.446.803.116.407.323.755.541 1.096.234.36.466.72.786 1.025.316.21.634.42.866.686.227.248.332.576.427.91.085.396.099.836.215 1.212.13.34.349.623.553.915.155.307.45.523.711.76.165.193.323.389.55.54.123.031.125.144.232.185l2.708-1.601v0c-.007-.123-.143-.163-.217-.242-.103-.063-.232-.11-.313-.189-.1-.097-.134-.24-.253-.325-.25-.24-.581-.427-.724-.738-.203-.286-.42-.563-.573-.882-.137-.36-.157-.796-.214-1.208-.103-.338-.174-.697-.4-.956-.21-.285-.52-.503-.871-.695-.043-.038-.286-.252-.322-.294-.185-.218-.295-.485-.473-.707-.22-.332-.439-.667-.556-1.066-.092-.312-.214-.603-.416-.843-.175-.253-.364-.498-.51-.77-.177-.357-.252-.78-.463-1.115-.247-.396-.483-.8-.818-1.139-.382-.36-.82-.683-1.151-1.077-.27-.418-.546-.83-.816-1.248-.271-.421-.535-.847-.81-1.266a8.508 8.508 0 0 0-1.074-1.318c-.37-.395-.607-.878-.91-1.318-.295-.464-.576-.938-.93-1.365-.3-.344-.698-.624-.893-1.038-.221-.427-.34-.92-.588-1.329-.263-.408-.53-.814-1.007-1.082a3.148 3.148 0 0 1-1.09-1.192c-.115-.237-.172-.322-.236-.594-.126-.532-.059-1.184-.111-1.761-.025-.152-.035-.313-.075-.456-.166-.598-.625-1.005-1.112-1.392-.114-.125-.35-.375-.447-.507-.287-.384-.502-.814-.814-1.181-.191-.234-.2-.256-.406-.467-.187-.19-.422-.352-.546-.584-.043-.08-.06-.175-.09-.262-.012-.093-.033-.18-.034-.278-.005-.388.164-.885.406-1.425l-2.575 1.42z" style="fill:#000;fill-opacity:1;stroke:#000;stroke-width:.99975;stroke-linecap:square;stroke-linejoin:miter;stroke-miterlimit:4;stroke-dasharray:none;stroke-opacity:1"/><path d="M47.16 19.117h66.718v36.035H47.16z" style="fill:#fff6d5;fill-opacity:1;stroke:none;stroke-width:.999751;stroke-linecap:square;stroke-miterlimit:4;stroke-dasharray:none;stroke-opacity:1" transform="rotate(23.342) skewX(.136)"/><g style="fill:red;stroke:red"><path d="M41.03 57.226c-.266.038-1.21.168-1.412.215-1.028.241-2.06.63-2.864 1.335-.275.24-.55.497-.736.81-.423.709-.64 1.063-.565 1.926.007.073.144-.165.193-.11.223.256.285.622.49.892.574.75.87.87 1.72 1.246.356.158.748.227 1.134.277.939.123 2.297.057 3.052-.617.574-.512.515-.898.643-1.604-.036.02-.093.097-.11.06-.143-.33-.176-.699-.313-1.03-.35-.858-.948-1.697-1.554-2.395-.127-.147-.268-.28-.403-.42l-.247-.192.205-1.19c.098.06.217.136.298.208.152.134.295.28.43.43.628.699 1.271 1.585 1.665 2.434.157.34.333.685.385 1.057.1.711.044 1.436.066 2.155-.245.795-.21 1.13-.907 1.67-.862.667-2.254.75-3.284.62-.412-.052-.83-.123-1.213-.283-.933-.392-1.23-.502-1.894-1.28-.85-.996-.805-1.568-.802-3.033 0-.35.09-.702.213-1.03.129-.34.316-.66.535-.951.232-.306.51-.58.806-.824.86-.709 1.931-1.104 3.003-1.356.2-.048 1.21-.191 1.463-.228l.002 1.208zM47.695 60.635c-1.132.984-2.092 2.273-2.524 3.615-.098.305-.142.626-.213.939-.007.296-.097.601-.021.887.03.113.073-.362.176-.305.228.125.27.448.44.644.488.56 1.338.757 1.888.82.31.036 1.16.03 1.469-.018.315-.05.629-.138.918-.274.92-.435 1.588-1.258 1.886-2.215.218-.698.192-1.289.13-1.866-.04-.38-.296-1.186-.5-1.698.226-.057.714-.15.964-.215.113.294.205.634.279.96.186.82.147 1.348.062 1.914-.098.654-.316 1.377-.582 2.043-.4.999-1.148 1.838-2.147 2.265-.67.287-1.914.352-2.574.333-.619-.018-1.48-.32-2.088-.89-.215-.201-.49-.594-.588-.871-.315-.892-.338-1.672-.132-2.63.07-.323.15-.645.263-.955.495-1.353 1.414-2.476 2.422-3.481.221.299.375.709.472.998z" style="fill:red;fill-opacity:1;stroke:red;stroke-width:1.125;stroke-linecap:square;stroke-linejoin:miter;stroke-miterlimit:4;stroke-dasharray:none;stroke-opacity:1"/><g style="fill:red;stroke:red"><path d="M58.53 55.118c-.45 1.407-1.161 3.288-1.822 4.906-.826 2.034-1.756 4.025-2.633 6.038-.296.678-.806 1.816-1.058 2.417-.465 1.111-.89 2.213-1.41 3.296-.417-.438-.589-.48-.76-.782a91.328 91.328 0 0 0 1.562-3.543c1.163-2.838 2.487-5.608 3.656-8.444.646-1.61 1.285-3.16 1.729-4.897.188.346.547.664.735 1.01z" style="fill:red;fill-opacity:1;stroke:red;stroke-width:1.125;stroke-linecap:square;stroke-linejoin:miter;stroke-miterlimit:4;stroke-dasharray:none;stroke-opacity:1" transform="translate(1.592 -.7)"/><path d="M51.445 57.42c2.175.483 4.212 1.443 6.244 2.335 1.261.572 2.679 1.167 3.93 1.763-.07.132-.108.455-.158.706-.17-.048-.152.268-.185.418-1.226-.638-2.528-1.122-3.777-1.713-1.999-.879-4.002-1.83-6.144-2.298z" style="fill:red;fill-opacity:1;stroke:red;stroke-width:1.125;stroke-linecap:square;stroke-linejoin:miter;stroke-miterlimit:4;stroke-dasharray:none;stroke-opacity:1" transform="translate(1.592 -.7)"/></g><g style="fill:red;stroke:red"><path d="M56.819 66.617c-.277 1.687-.778 3.26-1.485 4.887a316.012 316.012 0 0 1-3.408 7.624c-.165.356-.36.732-.537 1.144l-.524-1.074c.253-.45.491-.864.656-1.224 1.288-2.813 2.164-4.711 3.296-7.533.635-1.58.957-2.98 1.334-4.834z" style="fill:red;fill-opacity:1;stroke:red;stroke-width:1.125;stroke-linecap:square;stroke-linejoin:miter;stroke-miterlimit:4;stroke-dasharray:none;stroke-opacity:1" transform="translate(2.123 -.062)"/><path d="M56.206 66.167c.944-.35 1.828-.46 2.825-.237.658.147 1.205.365 1.81.647.28.13.543.296.793.477.816.594 1.41 1.301 1.546 2.334.14 1.067-.149 2.13-.602 2.974a3.51 3.51 0 0 1-.567.792c-.543.557-1.013.74-1.765.906a4.204 4.204 0 0 1-.953.108c-.843-.011-1.413-.081-2.201-.365-.74-.267-1.204-.559-1.79-1.088-.185-.167-.308-.391-.463-.587l.536-1.074c.111.205.235.41.365.549.495.53.954.823 1.628 1.067.74.268 1.342.322 2.133.321.297 0 .596-.043.884-.116.676-.17 1.1-.375 1.556-.912.198-.234.362-.44.48-.784.09-.265.119-.495.117-.783-.006-1.01-.544-1.637-1.32-2.221a4.368 4.368 0 0 0-.747-.461c-.576-.274-1.096-.484-1.726-.622-.919-.201-1.79-.08-2.648.278l.11-1.203z" style="fill:red;fill-opacity:1;stroke:red;stroke-width:1.125;stroke-linecap:square;stroke-linejoin:miter;stroke-miterlimit:4;stroke-dasharray:none;stroke-opacity:1" transform="translate(2.123 -.062)"/></g><path d="M69.44 69.948c-1.024 1.212-2.193 2.698-2.422 4.313-.057.4-.085.876.019 1.21.088.286.251.554.455.772.814.873 1.973 1.208 3.065.789.38-.146.741-.345 1.067-.586.35-.258.685-.55.943-.899.652-.884.937-1.875 1.053-2.595.062-.382-.066-1.059-.208-1.38l.751-.264c.21.717.2 1.262.169 1.863-.068 1.337-.636 2.445-1.526 3.537a4.902 4.902 0 0 1-1.024.914c-.359.248-.755.447-1.165.598-1.126.414-2.503-.004-3.443-.826a2.228 2.228 0 0 1-.56-.807c-.532-1.248-.496-1.995-.199-3.163.387-1.515 1.426-3.136 2.473-4.416z" style="fill:red;fill-opacity:1;stroke:red;stroke-width:1.125;stroke-linecap:square;stroke-linejoin:miter;stroke-miterlimit:4;stroke-dasharray:none;stroke-opacity:1"/><g style="fill:red;stroke:red"><path d="M78.82 63.967c-.896 2.907-2.203 5.9-3.45 8.81-.787 1.834-1.66 3.63-2.502 5.44-.362.78-.718 1.535-.985 2.35l-.635-.872c.323-.83.704-1.651 1.027-2.34.846-1.8 1.715-3.59 2.493-5.422 1.233-2.902 2.428-5.44 3.344-8.805.178.394.556.502.708.84z" style="fill:red;fill-opacity:1;stroke:red;stroke-width:1.125;stroke-linecap:square;stroke-linejoin:miter;stroke-miterlimit:4;stroke-dasharray:none;stroke-opacity:1" transform="translate(3.141 .575)"/><path d="M71.942 66.31c3.15 1.034 6.218 2.295 9.237 3.659l-.245 1.163c-2.994-1.381-6.048-2.645-9.195-3.64z" style="fill:red;fill-opacity:1;stroke:red;stroke-width:1.125;stroke-linecap:square;stroke-linejoin:miter;stroke-miterlimit:4;stroke-dasharray:none;stroke-opacity:1" transform="translate(3.141 .575)"/></g></g><path d="M97.22 66.249c-.607-.05-1.163-.22-1.697-.439-.816-.373-1.625-.76-2.439-1.137-1.108-.507-2.215-1.017-3.324-1.52-1.176-.45-1.415-.774-2.508-1.404-1.117-.616-2.285-1.123-3.447-1.64-1.037-.454-2.219-.587-3.249-1.054-.969-.358-1.825-.959-2.711-1.496-.823-.476-1.69-.853-2.557-1.234-.703-.368-1.414-.715-2.19-.918-.707-.115-1.446-.157-2.095-.405-.756-.332-1.55-.584-2.299-.933-.642-.297-1.346-.457-1.99-.748-.605-.274-2.031-.923-2.635-1.199-.688-.326-1.24-.95-1.987-1.147-.709-.169-1.082-1.076-1.736-1.366-.755-.21-1.508-.425-2.23-.71-.784-.328-1.55-.7-2.32-1.058-.766-.356-1.536-.7-2.305-1.05-.757-.343-1.513-.688-2.27-1.032-.681-.327-1.454-.45-2.177-.682-.568-.195-.719-.283-1.26-.537-.387-.238-.825-.356-1.29-.418-.532-.117-1.051-.265-1.589-.37-.591-.124-1.13-.368-1.664-.618a2.728 2.728 0 0 1-1.029-.747c-.272-.274-.634-.366-.967-.512-.514-.225-1.024-.457-1.535-.69-.428-.263-.804-.633-1.236-.89a8.542 8.542 0 0 0-.93-.42c-.31-.131-.613-.276-.918-.415l-.797-.36c-.156-.068-.696-.316-.853-.383-.135-.063-.27-.126-.405-.187-.206-.095-.411-.19-.619-.28-.057-.03-.12-.048-.177-.079a.927.927 0 0 0-.046-.02l1.447-3.942v0l.046.022c.06.025.115.06.176.082.205.096.412.189.618.282.136.061.272.12.407.182.153.075.31.144.464.216l1.182.54c.303.139.605.277.91.411.321.139.647.269.962.422.439.225.859.491 1.21.901.508.233 1.016.465 1.529.69.37.159.742.314 1.118.462.281.295.511.699.888.794.514.244 1.022.503 1.58.65.526.12 1.073.186 1.567.377.251.04.528.025.77.084.228.055.404.228.627.293.53.255 1.056.519 1.604.736.72.261 1.118.202 1.822.5l2.27 1.032c.77.348 1.538.7 2.307 1.052.767.355 1.531.718 2.304 1.062.718.3 1.453.565 2.248.692.634.296.972 1.243 1.668 1.401.101.025.742.176.834.208.47.164.756.733 1.22.911l2.634 1.196c.645.293 1.349.457 1.991.755.745.347 1.638.368 2.385.71.628.267 1.226.595 1.947.65.787.215 1.542.496 2.244.901.875.389 1.755.766 2.597 1.226.885.517 1.709 1.164 2.67 1.514 1.03.469 2.213.598 3.245 1.06 1.17.523 2.345 1.033 3.481 1.628 1.093.61 1.303.98 2.475 1.42 1.11.504 2.222 1.001 3.331 1.506.813.37 1.624.747 2.437 1.118.497.22 1.005.418 1.571.48l-1.303 3.87zM20.883 66.813c.605.05 1.162.216 1.698.43.82.365 1.633.743 2.45 1.112 1.113.497 2.225.995 3.34 1.488 1.178.44 1.423.757 2.523 1.373 1.124.603 2.297 1.098 3.464 1.604 1.04.445 2.22.576 3.255 1.033.97.35 1.835.938 2.728 1.463.828.466 1.7.835 2.57 1.207.707.36 1.42.7 2.198.9.706.112 1.441.154 2.093.396.76.325 1.554.572 2.306.913.645.291 1.35.448 1.997.732.607.269 2.039.903 2.645 1.173.692.32 1.255.93 2.002 1.123.708.165 1.097 1.052 1.754 1.336.756.205 1.51.415 2.234.695.787.32 1.556.684 2.33 1.035.77.348 1.543.686 2.315 1.028.76.335 1.52.672 2.28 1.01.685.32 1.456.439 2.18.667.57.19.722.277 1.266.526.39.232.828.348 1.291.408.533.116 1.052.26 1.59.364.59.12 1.131.36 1.668.604.389.15.734.4 1.04.73.276.268.638.36.972.502.516.22 1.029.447 1.542.674.431.258.813.62 1.248.87.3.162.617.287.934.412.31.129.615.27.922.406l.8.352c.157.067.7.31.857.376.135.06.27.122.407.182.206.093.413.186.62.275.058.03.122.046.179.077l.047.02-1.363 3.85v0a1.041 1.041 0 0 0-.046-.021c-.06-.025-.116-.06-.177-.081-.206-.094-.414-.185-.621-.276-.136-.06-.273-.118-.408-.178-.154-.073-.311-.14-.466-.211-.267-.12-.922-.41-1.188-.529-.303-.135-.608-.27-.913-.402-.323-.136-.65-.263-.966-.413-.442-.22-.865-.48-1.222-.881-.51-.227-1.021-.455-1.536-.674a39.448 39.448 0 0 0-1.122-.454c-.286-.288-.523-.682-.9-.776-.517-.239-1.028-.492-1.586-.636-.525-.117-1.072-.182-1.567-.37-.25-.039-.526-.024-.768-.081-.228-.055-.406-.223-.63-.288-.532-.249-1.061-.507-1.61-.72-.723-.255-1.118-.197-1.824-.49l-2.28-1.01a446 446 0 0 1-2.317-1.028c-.77-.348-1.539-.703-2.314-1.04-.722-.294-1.458-.553-2.252-.678-.637-.29-.993-1.215-1.688-1.37-.101-.024-.742-.172-.835-.203-.47-.16-.766-.717-1.231-.891l-2.646-1.17c-.648-.287-1.352-.447-1.997-.74-.748-.34-1.637-.36-2.388-.694-.63-.262-1.232-.582-1.95-.638-.789-.21-1.546-.484-2.253-.881-.878-.38-1.761-.75-2.609-1.2-.89-.505-1.724-1.138-2.688-1.48-1.034-.46-2.214-.586-3.25-1.039-1.175-.511-2.355-1.01-3.498-1.592-1.1-.597-1.316-.959-2.49-1.39-1.115-.492-2.233-.98-3.347-1.473-.817-.362-1.631-.731-2.448-1.094-.499-.215-1.008-.41-1.573-.47l1.22-3.78Z" style="fill:#000;fill-opacity:1;stroke:#000;stroke-width:.09975;stroke-linecap:square;stroke-linejoin:miter;stroke-miterlimit:4;stroke-dasharray:none;stroke-opacity:1"/><path d="M96.611 62.493c-.805.115-1.35.342-1.759.64-.44.43-.44 1.051-.589 1.607-.215.671-.523 1.303-.71 1.985-.092.598-.125 1.221-.496 1.699-.086.111-.203.209-.304.313-.426.373-1.012.675-1.41 1.06-.218.21-.254.292-.41.525a3.258 3.258 0 0 0-.463 1.573c.037.535-.12.988-.3 1.43-.187.438-.521.811-.776 1.22-.262.386-.287.874-.393 1.327-.147.532-.377 1.03-.6 1.53-.205.495-.466.967-.615 1.487a8.31 8.31 0 0 1-.491 1.621c-.2.46-.403.916-.604 1.375-.197.456-.396.911-.592 1.368-.167.49-.206 1.034-.287 1.56-.085.465-.279.884-.471 1.304-.143.367-.454.66-.667.997-.154.272-.272.56-.39.848-.099.29-.228.567-.422.815-.275.322-.45.687-.613 1.057-.17.395-.344.788-.42 1.222 0 .38.002.76-.093 1.101-.08.327-.296.595-.521.86-.283.289-.642.544-.89.849-.213.296-.327.635-.457.967-.17.3-.187.664-.24 1.013-.07.243-.145.484-.145.757.041.119-.052.183-.027.295l2.832 1.37v0c.099-.074.057-.209.082-.314-.004-.121-.036-.255-.016-.365.025-.138.126-.245.13-.391.062-.342.035-.72.215-1.012.126-.327.237-.661.419-.965.224-.314.576-.571.887-.847.225-.273.485-.53.575-.861.122-.333.131-.712.097-1.11.008-.057.052-.378.068-.431.079-.275.24-.514.327-.785.155-.368.312-.735.58-1.054.21-.248.385-.511.472-.813.114-.286.214-.578.36-.85.199-.345.51-.642.672-1.003.194-.425.4-.845.496-1.311.089-.518.116-1.061.26-1.555.2-.455.39-.914.59-1.37.2-.459.409-.914.606-1.375a8.508 8.508 0 0 0 .503-1.624c.124-.527.396-.991.595-1.486.224-.504.463-1 .623-1.53.12-.442.134-.928.37-1.32.233-.42.578-.791.782-1.224.195-.445.386-.892.344-1.437-.004-.58.132-1.1.39-1.569.134-.227.173-.32.365-.525.373-.398.954-.704 1.405-1.067.113-.104.242-.202.338-.314.407-.469.492-1.076.545-1.696.04-.165.12-.499.175-.653.161-.451.4-.869.534-1.332.09-.288.103-.307.164-.596.055-.262.06-.546.184-.778.043-.08.113-.147.17-.22.07-.061.13-.126.212-.182.32-.219.828-.353 1.41-.45l-2.606-1.36zM22.695 70.861c.298-.545.576-1.096.984-1.393.441-.43.44-1.052.59-1.608.214-.67.522-1.302.71-1.985.091-.597.124-1.22.496-1.698.086-.111.202-.209.304-.313.426-.373 1.012-.675 1.41-1.06.217-.21.254-.292.41-.526.286-.467.435-.994.463-1.572-.037-.535.12-.988.3-1.43.187-.438.52-.812.775-1.22.262-.386.287-.874.394-1.327.147-.532.376-1.03.6-1.53.205-.495.465-.967.615-1.487.103-.566.28-1.1.49-1.621.2-.46.403-.916.604-1.375.198-.456.396-.912.592-1.369.167-.489.206-1.033.288-1.559.084-.465.279-.884.471-1.304.143-.367.453-.66.666-.997.155-.272.273-.56.39-.848.1-.29.228-.567.423-.815.275-.322.45-.687.613-1.058.17-.394.343-.787.42-1.221 0-.38-.002-.76.092-1.101.08-.327.297-.595.522-.86.283-.29.642-.544.89-.849.212-.296.326-.635.456-.967.17-.3.187-.664.24-1.013.07-.244.146-.484.145-.757-.04-.119.052-.183.027-.295l-2.832-1.37v0c-.098.074-.056.209-.081.314.004.12.036.254.015.365-.025.138-.125.244-.13.391-.062.342-.035.72-.215 1.011-.126.328-.236.662-.418.965-.224.315-.576.572-.888.848-.225.273-.484.53-.575.861-.122.332-.13.712-.097 1.11-.008.057-.052.378-.067.431-.08.275-.24.514-.327.785-.155.368-.313.735-.58 1.053-.21.25-.385.512-.472.813-.115.286-.215.579-.36.851-.2.345-.51.642-.673 1.003-.193.425-.399.845-.496 1.311-.088.518-.116 1.061-.26 1.555-.2.455-.39.914-.589 1.37-.2.459-.41.914-.607 1.374a8.508 8.508 0 0 0-.503 1.625c-.124.527-.395.991-.594 1.486-.224.503-.463 1-.624 1.53-.12.442-.133.928-.37 1.32-.233.42-.578.79-.782 1.224-.194.445-.385.892-.344 1.437.004.58-.131 1.1-.39 1.569-.134.226-.172.32-.364.525-.373.398-.954.703-1.406 1.067-.113.104-.241.202-.338.314-.406.469-.491 1.076-.545 1.696-.04.164-.119.499-.174.653-.162.451-.401.868-.534 1.332-.09.288-.103.307-.164.596-.056.262-.06.546-.184.778-.043.08-.113.147-.17.22-.07.061-.13.126-.212.182-.32.219-.763.669-1.106 1.243.792.392 1.996 1.007 3.076 1.32z" style="fill:#000;fill-opacity:1;stroke:#000;stroke-width:.99975;stroke-linecap:square;stroke-linejoin:miter;stroke-miterlimit:4;stroke-dasharray:none;stroke-opacity:1"/></svg>