<svg xmlns="http://www.w3.org/2000/svg" width="400" height="300" viewBox="0 0 105.833 79.375"><defs><filter id="a" width="1.001" height="1.006" x="-.001" y="-.003" style="color-interpolation-filters:sRGB"><feGaussianBlur stdDeviation=".011"/></filter></defs><path d="M40.451 48.807c-.794.13-1.898-.052-2.63-.247-1.197-.317-2.266-.957-3.029-1.736-2.442-2.496-2.38-5.844-.88-8.057.832-1.226 2.341-2.256 3.7-2.127l-.055.136c-1.27-.972-1.565-2.714-.733-4.067 1.358-2.206 4.189-3.407 6.792-3.646 1.767-.162 4.139.161 4.603 1.236.265.548-.154.583-.293.033a2.298 2.298 0 0 1 .346-1.662c1.055-1.545 3.32-2.26 5.76-2.285 2.811-.03 5.894.766 6.84 2.838.121.264.124.404.12.675-.01.58-.8.288-.448-.111.243-.276.512-.473 1.076-.735 1.648-.764 4.846-.727 6.903.483 2.343 1.378 3.713 3.819 3.183 6.457-.191.95-.62 1.59-1.333 2.365l-.187-.128c.685-.289 1.571-.175 2.208.244.82.541 1.559 1.56 1.709 3.09.218 2.23-.567 4.916-2.583 6.726-.858.772-1.825 1.348-2.768 1.555-.812.177-1.673.09-2.234-.363l.074-.208c.5.605.415 1.55.002 2.257-.96 1.647-2.759 2.768-4.288 3.264-3.104 1.005-6.52.688-8.628-.91-.482-.483.477-.725.287-.019-.33 1.323-2.814 2.187-4.973 2.212-3.576.04-6.52-1.372-8.175-3.69-.752-1.053-1.112-2.425-.902-3.955" style="fill:#fffbd5;fill-opacity:1;stroke:#000;stroke-width:.4;stroke-miterlimit:4;stroke-dasharray:none"/><path d="M56.41 52.761 56.396 49l-1.224.004 2.694-2.712 2.752 2.694-1.08.003.013 3.763z" style="fill:#aae2ff;fill-opacity:1;stroke:#000;stroke-width:.22;stroke-linecap:butt;stroke-linejoin:miter;stroke-miterlimit:4;stroke-dasharray:none;stroke-opacity:1"/><text xml:space="preserve" x="-58.971" y="-49.056" style="font-style:normal;font-variant:normal;font-weight:400;font-stretch:normal;font-size:4.191px;line-height:1.25;font-family:Helvetica;-inkscape-font-specification:Helvetica;stroke-width:.264;stroke-miterlimit:4;stroke-dasharray:none" transform="rotate(179.814)"><tspan x="-58.971" y="-49.056" style="font-style:normal;font-variant:normal;font-weight:400;font-stretch:normal;font-size:4.191px;font-family:Helvetica;-inkscape-font-specification:Helvetica;stroke-width:.264;stroke-miterlimit:4;stroke-dasharray:none">4</tspan></text><path d="m43.626 32.358 1.285 3.536 1.15-.417-1.618 3.462-3.501-1.603 1.014-.369-1.284-3.537z" style="fill:#99c2ff;fill-opacity:1;stroke:#000;stroke-width:.3;stroke-linecap:butt;stroke-linejoin:miter;stroke-miterlimit:4;stroke-dasharray:none;stroke-opacity:1"/><text xml:space="preserve" x="27.229" y="49.194" style="font-style:normal;font-variant:normal;font-weight:400;font-stretch:normal;font-size:4.191px;line-height:1.25;font-family:Helvetica;-inkscape-font-specification:Helvetica;stroke-width:.300001;stroke-miterlimit:4;stroke-dasharray:none" transform="rotate(-19.957)"><tspan x="27.229" y="49.194" style="font-style:normal;font-variant:normal;font-weight:400;font-stretch:normal;font-size:4.191px;font-family:Helvetica;-inkscape-font-specification:Helvetica;stroke-width:.300001;stroke-miterlimit:4;stroke-dasharray:none">1</tspan></text><path d="m45.15 32.943-.668 3.703 1.205.217-3.14 2.18-2.22-3.147 1.062.191.668-3.702z" style="fill:#9cffc4;fill-opacity:1;stroke:#000;stroke-width:.3;stroke-linecap:butt;stroke-linejoin:miter;stroke-miterlimit:4;stroke-dasharray:none;stroke-opacity:1" transform="rotate(-17.497 46.399 13.848)"/><text xml:space="preserve" x="47.55" y="28.288" style="font-style:normal;font-variant:normal;font-weight:400;font-stretch:normal;font-size:4.191px;line-height:1.25;font-family:Helvetica;-inkscape-font-specification:Helvetica;stroke-width:.3;stroke-miterlimit:4;stroke-dasharray:none" transform="rotate(-7.265 113.899 23.178)"><tspan x="47.55" y="28.288" style="font-style:normal;font-variant:normal;font-weight:400;font-stretch:normal;font-size:4.191px;font-family:Helvetica;-inkscape-font-specification:Helvetica;stroke-width:.3;stroke-miterlimit:4;stroke-dasharray:none">2</tspan></text><path d="M65.874-46.019v17.104h5.563L59.153-16.631 46.68-28.915h4.907V-46.02z" style="fill:#80b3ff;stroke:#000;stroke-width:1.2;stroke-linecap:butt;stroke-linejoin:miter;stroke-miterlimit:4;stroke-dasharray:none;stroke-opacity:1" transform="translate(-30.791 9.815)"/><text xml:space="preserve" x="53.449" y="-28.344" style="font-style:normal;font-variant:normal;font-weight:400;font-stretch:normal;font-size:19.05px;line-height:1.25;font-family:Helvetica;-inkscape-font-specification:Helvetica;stroke-width:1.2;stroke-miterlimit:4;stroke-dasharray:none" transform="translate(-30.791 9.815)"><tspan x="53.449" y="-28.344" style="font-style:normal;font-variant:normal;font-weight:400;font-stretch:normal;font-size:19.05px;font-family:Helvetica;-inkscape-font-specification:Helvetica;stroke-width:1.2;stroke-miterlimit:4;stroke-dasharray:none">1</tspan></text><path d="M80.44-36.96v17.104h5.564L73.719-7.572 61.246-19.856h4.907v-17.103z" style="fill:#afc;stroke:#000;stroke-width:1.2;stroke-linecap:butt;stroke-linejoin:miter;stroke-miterlimit:4;stroke-dasharray:none;stroke-opacity:1"/><text xml:space="preserve" x="68.015" y="-19.285" style="font-style:normal;font-variant:normal;font-weight:400;font-stretch:normal;font-size:19.05px;line-height:1.25;font-family:Helvetica;-inkscape-font-specification:Helvetica;stroke-width:1.2;stroke-miterlimit:4;stroke-dasharray:none"><tspan x="68.015" y="-19.285" style="font-style:normal;font-variant:normal;font-weight:400;font-stretch:normal;font-size:19.05px;font-family:Helvetica;-inkscape-font-specification:Helvetica;stroke-width:1.2;stroke-miterlimit:4;stroke-dasharray:none">2</tspan></text><path d="M115.853-36.96v17.104h5.564L109.132-7.572 96.66-19.856h4.907v-17.103z" style="fill:#aaffef;fill-opacity:1;stroke:#000;stroke-width:1.2;stroke-linecap:butt;stroke-linejoin:miter;stroke-miterlimit:4;stroke-dasharray:none;stroke-opacity:1" transform="rotate(9.474 -206.466 199.971) scale(.22)"/><text xml:space="preserve" x="103.428" y="-19.285" style="font-style:normal;font-variant:normal;font-weight:400;font-stretch:normal;font-size:19.05px;line-height:1.25;font-family:Helvetica;-inkscape-font-specification:Helvetica;stroke-width:1.2;stroke-miterlimit:4;stroke-dasharray:none" transform="rotate(9.474 -206.466 199.971) scale(.22)"><tspan x="103.428" y="-19.285" style="font-style:normal;font-variant:normal;font-weight:400;font-stretch:normal;font-size:19.05px;font-family:Helvetica;-inkscape-font-specification:Helvetica;stroke-width:1.2;stroke-miterlimit:4;stroke-dasharray:none">3</tspan></text><circle cx="7.216" cy="71.361" r=".001" style="fill:#000;stroke:#000;stroke-width:.264583"/><circle cx="7.216" cy="71.361" r=".001" style="fill:#000;stroke:#000;stroke-width:.264583"/><path d="M30.842 53.886c.125.232.226.478.376.695 1.373 1.976 2.955 2.847 5.143 3.883 3.368 1.594 4.195 1.672 7.913 2.778 4.764.676 6.019 1.041 10.867.973 1.725-.024 3.458-.104 5.164-.36 2.568-.386 6.117-1.452 8.51-2.587 1.036-.491 1.97-1.172 2.954-1.758l-.081-.098c-.967.578-1.883 1.25-2.9 1.733-2.385 1.132-5.919 2.2-8.478 2.586-1.702.257-3.43.337-5.152.362-4.835.07-6.09-.295-10.84-.969-3.717-1.104-4.524-1.177-7.89-2.768-2.167-1.025-3.732-1.884-5.094-3.839-.146-.21-.245-.45-.367-.675l-.125.044z" style="fill:#000;fill-opacity:1;stroke:#000;stroke-width:.3;stroke-miterlimit:4;stroke-dasharray:none;filter:url(#a)" transform="matrix(.76128 -.11273 .1716 .98125 -97.766 3.741)"/><path d="M29.934 35.518c-.59.115-1.279.3-1.789.563-.396.204-.77.444-1.133.695-.407.281-.806.574-1.174.9-.391.348-.734.746-1.1 1.119-.31.397-.653.768-.931 1.192-.792 1.205-1.292 2.615-1.317 4.187-.008.49.021.99.118 1.49.097.499.306.99.46 1.485.245.462.45.944.737 1.386.995 1.527 2.705 2.964 4.28 3.793.34.178.694.308 1.041.462l.893.308.025-.095-.884-.304c-.343-.152-.694-.279-1.03-.455-1.556-.816-3.251-2.238-4.236-3.745-.285-.435-.487-.91-.73-1.366-.151-.488-.358-.971-.454-1.464-.404-2.07.178-4.083 1.187-5.617.277-.422.618-.79.927-1.186.364-.37.705-.766 1.094-1.11.367-.325.765-.615 1.168-.895a9.981 9.981 0 0 1 1.096-.677c.504-.26 1.188-.445 1.77-.56l-.018-.106z" style="fill:#000;fill-opacity:1;stroke:#000;stroke-width:.3;stroke-miterlimit:4;stroke-dasharray:none" transform="translate(-95.046)"/><path d="M28.828 36.412c-.137-.624-.244-1.277-.157-1.917.033-.245.1-.484.149-.726.42-1.4 1.097-2.71 2.068-3.81.84-.952 1.173-1.143 2.18-1.945.466-.287.915-.603 1.399-.86 2.275-1.212 4.854-1.83 7.409-2.057.7-.062 1.405-.065 2.108-.097 2.769.013 5.554.312 8.217 1.102 1.59.471 1.906.674 3.382 1.346 1.25.679 2.422 1.49 3.255 2.667.423.597.77 1.352.992 2.048.107.332.168.677.252 1.015.189 1.062.324 2.139.327 3.219-.013.082.009.178-.021.26l.102.02c.024-.093.018-.191.023-.286-.004-1.088-.14-2.171-.332-3.24-.085-.343-.147-.691-.255-1.027-.227-.707-.578-1.47-1.008-2.075-.843-1.186-2.024-2.006-3.286-2.692-1.483-.674-1.801-.878-3.398-1.352-2.672-.793-5.466-1.093-8.244-1.107-.705.032-1.412.036-2.116.097-2.58.228-5.177.855-7.474 2.08-.486.26-.937.58-1.406.869-1.014.809-1.35 1.002-2.195 1.962-.978 1.113-1.66 2.436-2.082 3.85-.05.247-.117.49-.15.74-.086.65.022 1.31.161 1.944l.1-.028z" style="fill:#000;fill-opacity:1;stroke:#000;stroke-width:.3;stroke-miterlimit:4;stroke-dasharray:none" transform="translate(-95.046)"/><path d="M59.79 52.5a16.547 16.547 0 0 0 3.492-1.49c.41-.235.802-.499 1.203-.748.397-.303.816-.58 1.191-.909 1.138-.996 2.082-2.2 2.57-3.647.434-1.288.324-1.548.319-2.88-.118-.46-.18-.938-.353-1.381-.544-1.406-1.624-2.553-2.857-3.386-1.099-.742-1.62-.866-2.838-1.338-1.707-.484-.884-.29-2.463-.6l-.026.1c1.568.305.75.114 2.447.594 1.208.466 1.725.589 2.814 1.323 1.217.82 2.286 1.95 2.825 3.336.17.436.232.907.348 1.36.006 1.313.115 1.57-.314 2.84-.479 1.42-1.406 2.611-2.52 3.59-.374.326-.79.602-1.184.904-.399.248-.789.511-1.196.746a16.443 16.443 0 0 1-3.473 1.482l.015.103z" style="fill:#000;fill-opacity:1;stroke:#000;stroke-width:.3;stroke-miterlimit:4;stroke-dasharray:none" transform="translate(-95.046)"/><path d="M169.094 33.298c-1.624.603-3.288 1.091-4.949 1.58-1.107.316-2.216.627-3.331.914-.04.018-.274.033-.263.132.006.055.142.201.153.215.536.684.92 1.472 1.293 2.253.515 1.08.575 1.258 1.065 2.407 1.007 2.528 1.859 5.115 2.717 7.696.212.599.4 1.208.639 1.797.015.025.022.05.064.042.021-.004.036-.025.055-.035.035-.017.072-.033.108-.047.302-.125.605-.245.908-.368 1.827-.744 3.646-1.509 5.47-2.26.474-.193.947-.39 1.422-.58.07-.006.019-.086-.04-.062-.407.97-.866 1.917-1.307 2.871a62.135 62.135 0 0 1-2.616 5.173c-.204.33-.374.685-.6 1.003-.027.031-.026.024.07.07.03.014.065.013.097.022.082.022.163.047.244.073l.474.152.753.235c2.857.88 5.689 1.84 8.501 2.851.948.343 1.895.687 2.84 1.035.347.127.69.266 1.045.369.085.01.155.04.229-.022.076-.064.134-.22.167-.3.15-.36.153-.4.295-.82.348-1.14.691-2.284.98-3.442.198-.794.257-1.1.423-1.881.174-.916.306-1.842.355-2.774.001-.08.007-.16.001-.239 0-.012.004-.042-.008-.037-.027.011-.05.031-.075.046a.49.49 0 0 0-.005.086c.336.718.651 1.448.961 2.178.553 1.316 1.078 2.644 1.633 3.959.068.074.196.562.285.627.073.053.132.003.206-.024 1.207-.61 2.45-1.15 3.714-1.631.56-.213 1.125-.408 1.687-.612 3.572-1.23 7.225-2.202 10.872-3.176.656-.174 1.313-.348 1.97-.516.174-.045.352-.082.522-.14.155-.07.03-.261-.012-.367l-.119-.3a130.55 130.55 0 0 0-2.017-5.043 82.855 82.855 0 0 0-1.784-3.886c-.096-.133-.128-.318-.234-.446-.09.102-.053.1.092.109.092.006.184.004.276.007 1.688.108 3.377.183 5.063.299 1.299.094 2.595.219 3.888.37.142.01.497.117.539-.117.008-.044.002-.088.003-.132-.232-1.35-.378-2.713-.527-4.073-.304-3.006-.645-6.007-.933-9.013a116.597 116.597 0 0 1-.325-4.456c-.016-.05.027-.415-.061-.43-.034-.005-.069.005-.103.007-1.332.206-2.66.434-3.99.653a261.52 261.52 0 0 1-6.314.96c-.353.042-.705.104-1.06.137-.1.012.054.09.05.064-.003-.027-.02-.053-.02-.08.001-.008.014-.006.021-.01.015-.034.028-.07.045-.104.096-.178.311-.518.4-.657.48-.75.994-1.47 1.515-2.192 1.223-1.606 2.484-3.183 3.687-4.804.196-.288.418-.56.591-.864.03-.052.11-.172.068-.248-.025-.048-.08-.073-.12-.11-.093-.03-.185-.067-.28-.092-.732-.196-1.486-.33-2.23-.467-.665-.122-2.322-.41-2.884-.51-3.844-.658-7.69-1.304-11.53-1.99a214.76 214.76 0 0 1-6.719-1.307 88.484 88.484 0 0 0-1.092-.227c-.11-.022-.212-.045-.324-.043-.02.022-.049.04-.057.067-.013.044.044.288.046.297l.067.365c.13.733.09.51.22 1.358.31 2.354.603 4.71.926 7.062.114.802.225 1.605.351 2.405l.01.064c.01.054.004.08.08-.007l-.001-.052c0-.032-.003-.039-.023-.066-.395-.373-.77-.771-1.15-1.16-1.012-1.076-2.095-2.081-3.148-3.116-.808-.793-1.08-1.077-1.865-1.879a93.417 93.417 0 0 1-3.015-3.262c-.06-.046-.258-.383-.369-.329-.03.015-.053.041-.079.062a458.34 458.34 0 0 1-3.393 2.705c-2.996 2.318-6.126 4.456-9.237 6.615-.211.146-1.297.897-1.587 1.112-.152.113-.306.225-.445.353-.099.09-.364.336-.306.533.036.122.15.206.224.308.137.107.269.22.411.319.474.33.976.62 1.46.936.447.291 1.672 1.108 2.098 1.408.378.266.749.544 1.123.816 1.558 1.155 3.064 2.378 4.561 3.61l.049-.056c-1.5-1.231-3.007-2.455-4.565-3.61-.375-.273-.746-.551-1.125-.818a116.799 116.799 0 0 0-2.1-1.41c-.482-.314-.98-.604-1.454-.932-.138-.096-.266-.205-.4-.307-.07-.084-.174-.15-.21-.253-.061-.18.207-.421.287-.494.139-.127.291-.238.442-.35.292-.217 1.373-.964 1.586-1.113 3.112-2.16 6.242-4.3 9.24-6.617 1.138-.895 2.267-1.8 3.396-2.706.013-.013.027-.024.038-.038.003-.004-.002-.015.003-.015.077-.003.237.304.297.318.98 1.112 1.987 2.2 3.018 3.264.785.802 1.058 1.087 1.865 1.88 1.053 1.035 2.136 2.04 3.147 3.115.38.39.756.789 1.151 1.163-.003-.03.002.019.001.021.006.13.12.113.058-.026-.127-.8-.238-1.602-.352-2.404-.323-2.352-.618-4.709-.926-7.063-.13-.849-.09-.626-.22-1.36-.233-1.308.038.213-.105-.555-.004-.022-.002-.046-.01-.067-.003-.008-.013-.012-.02-.018.108-.004.206.02.311.04.365.073.728.15 1.092.227 2.233.469 4.473.909 6.72 1.307 3.84.685 7.687 1.33 11.531 1.99.547.096 2.23.39 2.882.51.743.137 1.49.275 2.223.465.087.023.173.053.26.08.031.02.073.029.094.06.042.059-.045.183-.06.21-.173.302-.394.573-.59.86-1.202 1.622-2.463 3.198-3.686 4.804a47.823 47.823 0 0 0-1.518 2.197c-.06.093-.328.515-.404.668-.021.042-.032.09-.048.134.01.023.002.066.027.069.138.012.035-.092.015-.058-.049.082-.057.079-.02.079.355-.032.707-.097 1.062-.137 2.11-.293 4.214-.618 6.316-.962 1.329-.218 2.656-.445 3.987-.651.023-.005.046-.007.068-.015.004-.002-.001-.015.002-.013.032.027-.005.366.02.384.078 1.489.194 2.974.327 4.459.288 3.007.63 6.008.932 9.013.149 1.359.294 2.719.525 4.066 0 .036.004.072 0 .107-.02.186-.362.061-.452.067a90.372 90.372 0 0 0-3.892-.37c-1.687-.115-3.377-.19-5.065-.3-.373-.01-.172-.034-.353.015-.008.002-.001-.023-.009-.023-.024 0-.047.01-.07.016.079.12.148.297.223.428a81.94 81.94 0 0 1 1.783 3.882 129.126 129.126 0 0 1 2.016 5.042c.06.15.122.3.18.451l.02.063c.002.01 0 .02.005.028.002.004.016.002.013.006-.008.01-.022.013-.034.02-.167.058-.344.094-.516.138-.658.17-1.314.343-1.97.517-3.65.976-7.304 1.949-10.878 3.178-.563.204-1.13.4-1.69.612-1.264.48-2.508 1.02-3.715 1.63-.008.004-.114.062-.126.054-.03-.02-.086-.167-.087-.17l-.192-.445c-.555-1.316-1.081-2.643-1.633-3.96-.307-.722-.612-1.446-.955-2.153 0-.025.002-.05.005-.076-.09-.031-.063-.039-.062.033 0 .074-.001.112-.003.193a20.61 20.61 0 0 1-.354 2.763c-.166.781-.224 1.085-.422 1.878a68.595 68.595 0 0 1-.98 3.438c-.142.42-.144.455-.293.814-.018.043-.087.277-.18.289-.04.005-.08-.009-.121-.013-.354-.102-.695-.24-1.04-.367-.947-.347-1.894-.691-2.841-1.034a196.093 196.093 0 0 0-8.504-2.853l-.752-.235-.475-.153a8.173 8.173 0 0 0-.249-.075c-.035-.01-.07-.031-.106-.024-.014.003-.045.083-.017.038.223-.321.398-.675.602-1.008a62.65 62.65 0 0 0 2.617-5.178l.442-.958.365-.78c.088-.19.176-.381.262-.573.054-.119.106-.238.155-.359.023-.056.049-.111.062-.17.002-.011-.02.01-.029.016.053-.022.07-.129.004-.082-.475.192-.948.388-1.422.582-1.824.75-3.643 1.516-5.47 2.26-.304.122-.61.24-.911.367-.07.03-.195.071-.128.099.006.002-.007-.011-.01-.017-.24-.587-.427-1.195-.64-1.792-.858-2.583-1.71-5.171-2.718-7.701-.49-1.15-.552-1.33-1.067-2.41-.374-.786-.761-1.579-1.3-2.267l-.105-.127c-.01-.012-.018-.026-.032-.034-.006-.003-.024.012-.02.007a.336.336 0 0 1 .096-.044c.04-.011.082-.02.122-.03 1.116-.287 2.226-.6 3.334-.916 1.666-.49 3.334-.98 4.963-1.582l-.026-.07z" style="fill:#e6e6e6;fill-opacity:1;stroke:#e6e6e6;stroke-width:.3;stroke-miterlimit:4;stroke-dasharray:none"/><path d="M29.466 35.448c-1.109.998-1.926 2.395-2.377 3.763-.177.537-.27 1.096-.405 1.644-.066 1.442-.23 2.073.246 3.48.378 1.113.984 1.94 1.897 2.717.873.744 1.509.955 2.532 1.422.9.3 1.063.393 1.94.555.524.096 1.037.141 1.553.002l.108-.053-.026-.07-.094.05c-.495.14-1.014.093-1.517.002-.87-.16-1.034-.253-1.927-.55-1.014-.46-1.645-.67-2.511-1.404-.904-.767-1.506-1.585-1.88-2.686-.475-1.396-.311-2.023-.246-3.454.134-.545.227-1.1.403-1.634.45-1.36 1.262-2.747 2.366-3.739l-.062-.044z" style="fill:#000;fill-opacity:1;stroke:#000;stroke-width:.309058;stroke-miterlimit:4;stroke-dasharray:none" transform="translate(-10.036 60.658)"/><path d="M57.7 47.264c.323.006.65-.005.965-.084.103-.026.203-.062.305-.092a7.46 7.46 0 0 0 1.47-.885c.336-.257.694-.555.956-.89.15-.194.264-.412.396-.617.097-.283.227-.556.289-.847.317-1.487-.029-3.166-.726-4.495-.201-.384-.466-.733-.699-1.1-1.018-1.22-.493-.66-1.562-1.69l-.052.05c1.063 1.024.541.468 1.553 1.68.231.363.494.708.694 1.09.69 1.314 1.035 2.976.721 4.447-.06.287-.188.555-.283.832-.13.202-.242.417-.39.606-.26.332-.615.628-.948.881a7.488 7.488 0 0 1-1.43.865c-.1.03-.198.066-.298.092-.312.078-.635.09-.954.084l-.008.073zM28.562 36.104c.7-.918 1.558-1.723 2.457-2.445.376-.301.77-.58 1.155-.87.478-.297.944-.614 1.435-.892 1.555-.88 3.216-1.64 4.95-2.095 1.052-.277 1.499-.287 2.533-.393.655-.047 1.31-.02 1.964.02l.012-.072c-.658-.04-1.317-.067-1.975-.02-1.04.106-1.489.116-2.547.394-1.746.458-3.418 1.224-4.984 2.112-.492.278-.96.597-1.44.896-.385.29-.78.57-1.157.873-.904.725-1.767 1.535-2.47 2.46l.067.032z" style="fill:#000;fill-opacity:1;stroke:#000;stroke-width:.3;stroke-miterlimit:4;stroke-dasharray:none" transform="translate(-10.036 60.658)"/><path d="M42.642 30.303a4.882 4.882 0 0 1 1.713-2.518c.291-.223.619-.394.929-.59.384-.15.756-.34 1.154-.45 2.066-.572 4.272-.238 6.226.573.543.226 1.053.526 1.58.788.473.318.97.605 1.42.954 1.123.867 2.116 1.94 2.684 3.256.34.79.331 1.108.44 1.92.016.78.015 1.616-.322 2.34.01.03-.101.123-.083.105l.007.073c.074-.027.11-.085.145-.154.338-.738.345-1.582.324-2.377-.11-.822-.102-1.143-.448-1.942-.573-1.324-1.573-2.405-2.704-3.279-.453-.35-.952-.638-1.428-.958-.53-.264-1.042-.565-1.588-.792-1.964-.815-4.192-1.157-6.27-.577-.409.114-.79.31-1.185.465-.313.2-.644.373-.938.599a4.955 4.955 0 0 0-1.73 2.552l.074.012z" style="fill:#000;fill-opacity:1;stroke:#000;stroke-width:.3;stroke-miterlimit:4;stroke-dasharray:none" transform="translate(-10.036 60.658)"/><path d="M31.546 48.142c-.054.08-.129.153-.164.24-.392.982.274 2.193.913 2.996.332.417.738.792 1.107 1.188.544.413 1.043.87 1.631 1.24 3.508 2.216 8.001 3.25 12.376 3.505 1.33.077 2.667.011 4 .017 1.276-.14 2.568-.203 3.828-.42 3.121-.54 6.171-1.601 8.51-3.406 1.436-1.108 1.56-1.544 2.42-2.88.412-1.145.512-1.152.583-2.265.016-.255-.014-.51-.021-.766l-.12.007c.008.252.038.504.022.755-.07 1.097-.168 1.103-.575 2.232-.854 1.33-.966 1.746-2.393 2.85-2.313 1.792-5.338 2.841-8.428 3.378-1.255.218-2.542.28-3.814.42-1.328-.004-2.66.063-3.985-.014-4.354-.251-8.827-1.278-12.32-3.48-.583-.369-1.079-.82-1.619-1.23-.365-.392-.768-.764-1.097-1.176-.62-.779-1.277-1.957-.907-2.913.03-.077.096-.142.144-.213l-.09-.065z" style="fill:#000;fill-opacity:1;stroke:#000;stroke-width:.442372;stroke-miterlimit:4;stroke-dasharray:none" transform="translate(-82.861 45.083)"/><path d="M31.59 47.871c-.918.08-1.858-.054-2.713-.468-.317-.154-.612-.363-.918-.545-.306-.264-.638-.49-.917-.792-.602-.65-1.223-1.604-1.48-2.524-.315-1.134-.376-2.922-.25-4.076.088-.796.305-1.565.457-2.348.306-.822.553-1.678.918-2.466 1.586-3.423 4.26-6.46 7.282-8.104.67-.365 1.394-.575 2.09-.862 1.58-.246 1.925-.473 3.434-.106.965.235 1.885.824 2.62 1.584.137.142.256.31.384.464l.236.357.07-.062-.242-.365c-.13-.157-.251-.327-.392-.472-.746-.77-1.68-1.368-2.66-1.605-1.524-.37-1.872-.142-3.466.106-.702.29-1.43.5-2.104.867-3.053 1.664-5.733 4.706-7.333 8.166-.367.794-.615 1.655-.922 2.483-.152.789-.37 1.564-.457 2.366-.128 1.176-.064 2.969.26 4.121.26.933.89 1.897 1.5 2.555.283.305.619.534.928.802.31.183.609.395.93.55.865.42 1.816.557 2.744.478v-.104z" style="fill:#000;fill-opacity:1;stroke:#000;stroke-width:.274963;stroke-miterlimit:4;stroke-dasharray:none" transform="translate(-82.861 45.083)"/><path d="M42.554 28.262c.023-.151.032-.306.067-.455.227-.96.662-1.9 1.23-2.677.298-.408.603-.821.98-1.147.494-.426 1.072-.727 1.609-1.09.655-.308 1.285-.682 1.964-.922 1.493-.528 3.344-.848 4.92-.785.91.037 1.815.201 2.706.401.837.187 1.67.427 2.468.757.694.288 1.326.725 1.99 1.088 1.105 1.256 1.415 1.334 1.95 2.915.363 1.077.376 2.297.203 3.407-.035.224-.098.442-.147.664-.124.344-.274.95-.66 1.087-.027-.01-.036-.035-.045-.062l-.09.042c.032.074.074.12.155.122.444-.154.593-.77.736-1.173.05-.225.113-.447.148-.675.173-1.127.157-2.365-.215-3.458-.547-1.605-.863-1.684-1.989-2.957-.668-.365-1.306-.805-2.005-1.095a15.095 15.095 0 0 0-2.479-.76c-.898-.201-1.809-.366-2.723-.404-1.586-.064-3.448.258-4.95.788-.684.242-1.318.617-1.977.926-.55.375-1.142.687-1.648 1.125-.38.33-.687.748-.988 1.16a7.645 7.645 0 0 0-1.24 2.714c-.035.151-.045.308-.068.462l.098.002z" style="fill:#000;fill-opacity:1;stroke:#000;stroke-width:.29066;stroke-miterlimit:4;stroke-dasharray:none" transform="translate(-82.861 45.083)"/><path d="M59.89 32.691c.07-.067.13-.148.212-.202.331-.223.962-.513 1.306-.633.34-.118.682-.235 1.036-.296 1.12-.194 1.964-.134 3.104-.126.586.079 1.183.101 1.759.235 1.689.392 3.96 1.388 5.227 2.598 1.116 1.067 1.38 1.842 2.07 3.173.373 1.369.679 1.93.487 3.361-.144 1.071-.608 2.015-1.289 2.841-.785.955-1.203 1.088-2.22 1.687l.04.095c1.04-.619 1.476-.762 2.273-1.738.69-.844 1.155-1.803 1.298-2.893.19-1.45-.12-2.017-.5-3.401-.7-1.35-.964-2.124-2.097-3.206-1.278-1.219-3.565-2.221-5.268-2.617-.58-.135-1.18-.158-1.77-.237-1.152-.008-1.999-.07-3.13.126-.358.062-.705.18-1.048.299-.387.134-1.006.421-1.36.67-.089.06-.152.152-.228.228l.098.036z" style="fill:#000;fill-opacity:1;stroke:#000;stroke-width:.3;stroke-miterlimit:4;stroke-dasharray:none" transform="translate(-82.861 45.083)"/><path d="M-64.664 24.134c-.06.08-.143.153-.181.24-.435.982.304 2.193 1.012 2.994.368.418.818.792 1.227 1.188.603.414 1.157.869 1.81 1.24 3.89 2.215 8.872 3.249 13.725 3.503 1.474.077 2.957.011 4.435.016 1.415-.14 2.849-.202 4.245-.42 3.462-.54 6.844-1.6 9.439-3.403 1.592-1.107 1.73-1.544 2.682-2.88.458-1.144.568-1.15.648-2.262.018-.255-.016-.51-.024-.766l-.132.007c.008.251.041.503.024.754-.078 1.097-.187 1.103-.638 2.232-.947 1.329-1.072 1.744-2.654 2.849-2.565 1.79-5.92 2.838-9.347 3.375-1.391.218-2.82.28-4.229.42-1.473-.004-2.95.062-4.42-.014-4.829-.25-9.79-1.277-13.663-3.48-.647-.367-1.196-.818-1.795-1.228-.405-.392-.852-.763-1.217-1.176-.688-.778-1.416-1.955-1.006-2.91.033-.078.106-.143.16-.214l-.1-.065z" style="fill:#000;fill-opacity:1;stroke:#000;stroke-width:.465743;stroke-miterlimit:4;stroke-dasharray:none"/><path d="M-64.189 23.859c-1.083.08-2.193-.055-3.202-.473-.375-.155-.723-.366-1.084-.549-.361-.266-.754-.495-1.084-.799-.71-.655-1.444-1.616-1.746-2.544-.373-1.143-.444-2.945-.295-4.11.103-.802.36-1.577.539-2.366.361-.83.653-1.692 1.084-2.487 1.873-3.45 5.029-6.513 8.598-8.17.792-.367 1.646-.579 2.469-.868 1.865-.248 2.272-.477 4.054-.107 1.14.237 2.226.83 3.093 1.597.163.143.302.311.453.467l.28.36.083-.062-.286-.368c-.155-.159-.297-.33-.463-.476-.88-.777-1.983-1.378-3.14-1.618-1.8-.373-2.212-.142-4.094.107-.829.292-1.689.504-2.485.874-3.605 1.678-6.769 4.744-8.658 8.233-.433.8-.726 1.668-1.089 2.503-.18.795-.437 1.576-.54 2.385-.15 1.186-.075 2.993.307 4.155.308.94 1.051 1.911 1.772 2.575.334.308.73.539 1.096.808.366.185.719.399 1.097.556 1.022.423 2.145.56 3.24.48l.001-.103z" style="fill:#000;fill-opacity:1;stroke:#000;stroke-width:.3;stroke-miterlimit:4;stroke-dasharray:none"/><path d="M-51.974 3.188c.04-.149.066-.302.118-.446A7.454 7.454 0 0 1-50.274.197c.358-.376.724-.758 1.157-1.045.568-.377 1.213-.62 1.82-.93.726-.242 1.433-.553 2.18-.726 1.638-.381 3.635-.522 5.302-.306.96.124 1.904.375 2.83.66a16.63 16.63 0 0 1 2.54.99c.708.353 1.334.85 2 1.273 1.044 1.356 1.365 1.464 1.77 3.088.275 1.106.163 2.32-.135 3.407-.06.22-.15.43-.224.646-.167.33-.39.918-.812 1.018-.029-.012-.035-.038-.043-.066l-.098.033c.025.077.065.126.151.136.487-.11.709-.709.902-1.096.076-.219.166-.433.226-.656.3-1.104.41-2.338.128-3.46-.415-1.649-.742-1.757-1.806-3.133-.672-.427-1.303-.926-2.016-1.281a16.711 16.711 0 0 0-2.552-.996c-.932-.286-1.882-.538-2.849-.664-1.676-.217-3.685-.076-5.333.307-.751.174-1.463.486-2.194.73-.622.32-1.283.572-1.865.96-.437.29-.806.677-1.167 1.058a7.54 7.54 0 0 0-1.596 2.58c-.053.146-.08.3-.12.452l.104.012z" style="fill:#000;fill-opacity:1;stroke:#000;stroke-width:.3;stroke-miterlimit:4;stroke-dasharray:none"/><path d="M-33.066 8.38c.08-.055.154-.124.243-.164.364-.164 1.035-.343 1.395-.403.354-.06.712-.116 1.07-.117 1.137-.002 1.96.2 3.081.4.565.177 1.149.3 1.694.53 1.598.671 3.67 2.037 4.713 3.444.92 1.24 1.05 2.048 1.503 3.477.137 1.411.344 2.017-.087 3.395-.322 1.03-.94 1.883-1.75 2.582-.936.808-1.37.869-2.473 1.288l.023.1c1.128-.435 1.584-.502 2.534-1.33.822-.715 1.443-1.581 1.768-2.631.432-1.397.223-2.009.082-3.437-.462-1.45-.59-2.256-1.525-3.514-1.054-1.417-3.139-2.792-4.75-3.47-.55-.23-1.137-.355-1.705-.532-1.133-.203-1.958-.406-3.107-.405-.363 0-.724.058-1.082.117-.405.067-1.063.246-1.455.43-.097.046-.175.125-.262.187l.09.052z" style="fill:#000;fill-opacity:1;stroke:#000;stroke-width:.3;stroke-miterlimit:4;stroke-dasharray:none"/><path d="M136.03 49.421c-.13-.024-.258-.054-.39-.071a18.047 18.047 0 0 0-1.657-.132 34.35 34.35 0 0 0-2.363-.04c-.455.012-.908.046-1.362.069-2.276.183-4.534.612-6.698 1.35-1.634.557-2.027.795-3.597 1.532-.572.332-1.163.634-1.716.996-1.548 1.014-2.964 2.268-4.008 3.809-.852 1.258-.87 1.583-1.37 2.986-.084.522-.215 1.04-.253 1.567a9.682 9.682 0 0 0 .86 4.689c.609 1.33.988 1.681 1.882 2.838.43.428.835.884 1.292 1.283 2.056 1.8 4.569 3.04 7.14 3.917.702.24 1.421.427 2.132.64 3.69.93 7.526 1.32 11.32.93.742-.077 1.476-.216 2.213-.323 2.783-.541 5.51-1.443 7.936-2.934 1.485-.913 1.649-1.158 2.918-2.293.367-.432.766-.84 1.103-1.295a12.117 12.117 0 0 0 2.004-4.285c.327-1.345.256-1.63.278-3-.073-.491-.107-.99-.219-1.475-.345-1.509-1.062-2.89-2.004-4.108-.834-1.078-1.221-1.353-2.224-2.273-2.017-1.649-4.29-3.002-6.785-3.789-.473-.149-.96-.253-1.439-.38-1.37-.226-1.509-.29-2.892-.353-.451-.02-.904-.008-1.356-.013l-.01.09c.45.003.901-.009 1.351.011 1.376.062 1.514.126 2.878.35.477.125.96.229 1.431.377 2.485.782 4.75 2.13 6.76 3.771.997.914 1.382 1.188 2.211 2.259.936 1.209 1.648 2.578 1.992 4.074.11.48.144.976.216 1.463-.021 1.36.05 1.641-.275 2.976a12.03 12.03 0 0 1-1.992 4.256c-.335.453-.73.858-1.096 1.287-1.246 1.113-1.429 1.374-2.88 2.267-2.418 1.487-5.135 2.389-7.908 2.929-.736.107-1.468.245-2.207.322-3.785.392-7.612.002-11.292-.923-.71-.213-1.427-.399-2.128-.638-2.56-.873-5.063-2.107-7.112-3.898-.455-.397-.857-.85-1.286-1.276-.887-1.147-1.264-1.496-1.869-2.816a9.595 9.595 0 0 1-.855-4.649c.038-.523.168-1.035.252-1.553.496-1.392.513-1.713 1.359-2.962 1.032-1.522 2.433-2.77 3.964-3.772.551-.361 1.14-.663 1.71-.994 1.564-.735 1.957-.973 3.585-1.53 2.157-.736 4.41-1.164 6.679-1.348.452-.023.904-.057 1.357-.07.747-.02 1.61.007 2.36.041.573.027 1.084.054 1.647.13.129.017.256.047.384.07l.029-.086z" style="fill:#000;fill-opacity:1;stroke:#ccc;stroke-width:.261695;stroke-miterlimit:4;stroke-dasharray:none"/><circle cx="6.053" cy="47.379" r=".001" style="fill:#000;stroke:#ccc;stroke-width:.264583"/><path d="M89.66 86.832c-.13-.024-.259-.054-.39-.071a18.046 18.046 0 0 0-1.657-.131 34.35 34.35 0 0 0-2.363-.041c-.455.012-.908.046-1.362.069-2.276.183-4.534.613-6.698 1.35-1.634.557-2.027.795-3.598 1.532-.571.332-1.162.634-1.715.996-1.549 1.014-2.965 2.269-4.008 3.809-.852 1.258-.87 1.583-1.37 2.986-.084.522-.215 1.04-.253 1.567a9.682 9.682 0 0 0 .86 4.69c.609 1.33.988 1.68 1.881 2.837.431.428.836.884 1.293 1.283 2.056 1.8 4.569 3.04 7.14 3.918.702.24 1.421.426 2.132.64 3.69.928 7.525 1.32 11.32.928.742-.076 1.475-.215 2.213-.322 2.782-.541 5.51-1.443 7.936-2.934 1.485-.913 1.649-1.158 2.917-2.293.368-.431.767-.839 1.104-1.295a12.117 12.117 0 0 0 2.004-4.285c.327-1.345.256-1.63.278-3-.073-.491-.108-.99-.219-1.475-.345-1.509-1.062-2.89-2.005-4.108-.833-1.078-1.22-1.353-2.223-2.273-2.017-1.649-4.29-3.002-6.785-3.789-.473-.149-.96-.253-1.439-.38-1.37-.226-1.51-.29-2.892-.353-.451-.02-.904-.008-1.356-.013l-.01.09c.45.003.901-.009 1.351.011 1.376.062 1.514.126 2.878.35.477.125.96.229 1.431.377 2.485.782 4.75 2.13 6.76 3.771.997.914 1.382 1.188 2.211 2.259.937 1.209 1.648 2.578 1.992 4.074.11.48.144.976.216 1.463-.021 1.36.05 1.641-.275 2.976a12.03 12.03 0 0 1-1.992 4.256c-.335.453-.73.858-1.096 1.287-1.246 1.114-1.429 1.374-2.88 2.267-2.417 1.487-5.135 2.389-7.908 2.929-.736.107-1.468.245-2.207.322-3.785.392-7.612.003-11.292-.923-.71-.213-1.427-.399-2.128-.638-2.56-.873-5.063-2.107-7.112-3.898-.455-.397-.857-.85-1.286-1.276-.887-1.147-1.264-1.496-1.869-2.816a9.595 9.595 0 0 1-.855-4.649c.038-.523.168-1.035.252-1.553.496-1.392.513-1.713 1.359-2.961 1.032-1.523 2.433-2.77 3.964-3.773.551-.361 1.14-.663 1.71-.994 1.564-.735 1.957-.973 3.585-1.529 2.157-.737 4.41-1.165 6.679-1.349.452-.023.904-.057 1.357-.07.747-.019 1.61.007 2.36.041.573.027 1.084.054 1.647.13.129.017.256.047.384.07l.029-.086z" style="fill:#000;fill-opacity:1;stroke:#ccc;stroke-width:.261695;stroke-miterlimit:4;stroke-dasharray:none"/><path d="M148.681 114.46c-.515.78-1.444 1.119-2.317 1.32-.777.063-.998.125-1.798-.001-.75-.12-1.42-.354-2.114-.663-.39-.174-.778-.356-1.145-.576-.363-.218-.69-.489-1.036-.733-.31-.29-.648-.55-.928-.867a6.31 6.31 0 0 1-1.49-3.241 6.009 6.009 0 0 1-.074-1.224c.023-.394.143-.776.214-1.163.142-.352.256-.717.427-1.055.599-1.19 1.592-2.185 2.755-2.827.243-.135.508-.226.762-.339.229-.056.453-.135.687-.168.192-.028.388-.02.582-.013.46.016.966.084 1.35.357" style="fill:none;fill-opacity:1;stroke:#000;stroke-width:.3;stroke-miterlimit:4;stroke-dasharray:none"/><path d="M161.156 119.313c.246.055.31.527.32.713-.025.113-.03.233-.074.34-.133.323-.382.596-.643.818-.712.604-1.563.929-2.468 1.12-.377.036-.752.098-1.13.108-1.641.044-3.46-.396-4.985-.974-.437-.166-.859-.37-1.288-.555-.86-.522-1.268-.692-1.966-1.399a5.073 5.073 0 0 1-1.28-2.247c-.056-.22-.072-.448-.108-.672.01-.19.008-.382.03-.57.076-.64.304-1.262.823-1.667" style="fill:none;fill-opacity:1;stroke:#000;stroke-width:.3;stroke-miterlimit:4;stroke-dasharray:none"/><path d="M175.505 114.864c.14.016.377.12.486.18.407.225.729.536.968.936.178.498.28.618.223 1.179-.084.825-.589 1.699-1.115 2.314-.243.284-.534.524-.8.785-.326.231-.634.489-.977.693-.363.216-.748.394-1.134.565-1.496.662-3.095 1.079-4.736 1.093-.317-.014-.635-.017-.951-.044-1.533-.13-2.87-.497-4.203-1.274-.203-.13-.412-.25-.61-.389-.499-.348-1.058-.841-1.412-1.344-.038-.053-.062-.114-.093-.17" style="fill:none;fill-opacity:1;stroke:#000;stroke-width:.3;stroke-miterlimit:4;stroke-dasharray:none"/><path d="M179.446 102.824c-.045.027.133-.082.19-.106.217-.049.286-.033.53-.033.142.013.286.018.428.04.924.148 1.867.524 2.586 1.134.218.184.396.412.594.618.477.67.67.837.93 1.639.458 1.413.098 2.629-.448 3.948-.425.806-.62 1.243-1.156 1.99a9.827 9.827 0 0 1-1.465 1.626c-.504.44-1.006.74-1.564 1.103-.575.29-.917.496-1.529.678-.712.212-1.477.191-2.201.068-.315-.096-.915-.223-.952-.644M167.341 94.54c.423-.596 1.044-1.017 1.67-1.374.63-.283.956-.458 1.648-.632.733-.184 1.457-.272 2.214-.216.988.073 1.415.269 2.358.565 1.004.475 1.245.525 2.131 1.2 1.157.88 2.047 2.044 2.711 3.328.28.63.46.95.618 1.615.21.888.127 1.718-.263 2.54-.254.419-.243.44-.539.795a2.32 2.32 0 0 1-.352.351c-.028.022-.067.03-.089.057M155.438 94.624c.032-.749.27-1.462.626-2.119.368-.569.425-.725.931-1.21a5.237 5.237 0 0 1 2.463-1.343c.347-.081.705-.101 1.057-.152.385-.018.769-.06 1.154-.054 1.375.019 2.765.32 3.966 1.01.238.138.454.312.681.467.424.425.626.55.884 1.09.3.628.277 1.327.083 1.977-.024.085-.07.168-.071.257" style="fill:none;fill-opacity:1;stroke:#000;stroke-width:.3;stroke-miterlimit:4;stroke-dasharray:none"/><path d="M145.08 102.216c-.4-.18-.713-.513-1.016-.818-.276-.338-.44-.503-.639-.909-.444-.905-.418-1.816-.154-2.77.263-.646.346-.956.766-1.538.863-1.195 2.003-1.762 3.355-2.25.4-.123.794-.266 1.199-.369 1.71-.433 3.501-.533 5.23-.153.205.067.416.119.616.2.434.176.908.472 1.043.951.017.061.017.125.026.188" style="fill:none;fill-opacity:1;stroke:#000;stroke-width:.3;stroke-miterlimit:4;stroke-dasharray:none"/><path d="M118.473 27.636c.008.008.06-.014-.218.15-.828.487-1.918.546-2.818.424-1.705-.232-2.696-.746-3.679-1.624-3.127-2.795-3.196-7.354-1.585-10.03 1.01-1.679 2.913-2.992 5.088-2.436.11.028.206.1.307.19" style="fill:none;fill-opacity:1;stroke:#000;stroke-width:.307505;stroke-miterlimit:4;stroke-dasharray:none"/><path d="M131.574 32.045c1.06 2.03-2.193 3.21-3.78 3.233-3.084.047-6.392-.867-8.681-3.053-1.126-1.075-1.836-3.066-1.161-4.552.141-.312.119-.2.108-.193" style="fill:none;fill-opacity:1;stroke:#000;stroke-width:.310068;stroke-miterlimit:4;stroke-dasharray:none"/><path d="M146.861 28.7c.58.816.545 1.993.107 2.855-1.022 2.01-3.135 3.134-4.852 3.662-3.503 1.021-7.318.453-9.908-1.898-.28-.255-.462-.659-.633-1.006" style="fill:none;fill-opacity:1;stroke:#000;stroke-width:.2942;stroke-miterlimit:4;stroke-dasharray:none"/><path d="M149.873 15.712c.85-.212 1.652-.366 2.461-.046 1.204.477 2.311 1.717 2.703 3.065.71 2.45.067 6.35-2.622 8.925-.924.886-2.02 1.557-3.343 1.717-.927.112-1.495-.065-2.41-.447" style="fill:none;fill-opacity:1;stroke:#000;stroke-width:.3;stroke-miterlimit:4;stroke-dasharray:none"/><path d="M138.993 7.29c.041-.47.481-1.161 1.612-1.558 1.665-.583 4.231-.338 6.417 1.022 2.283 1.421 4.525 3.944 4.332 6.864-.07 1.051-.38 1.803-1.176 2.444" style="fill:none;fill-opacity:1;stroke:#000;stroke-width:.291696;stroke-miterlimit:4;stroke-dasharray:none"/><path d="M125.902 7.505c-.424-.887-.305-1.995.139-2.734 1.134-1.888 3.596-2.778 6.254-2.831 3.063-.06 6.113.852 7.166 3.365.303.723.208 1.551-.246 2.112" style="fill:none;fill-opacity:1;stroke:#000;stroke-width:.341389;stroke-miterlimit:4;stroke-dasharray:none"/><path d="M115.508 15.103c-1.894-.962-2.475-3.434-1.486-5.29 1.398-2.618 4.559-3.562 7.276-3.728 1.5-.092 4.055-.21 4.635 1.55" style="fill:none;fill-opacity:1;stroke:#000;stroke-width:.3;stroke-miterlimit:4;stroke-dasharray:none"/><path d="M111.113-18.797c.008.008.061-.014-.218.15-.828.487-1.918.546-2.818.424-1.705-.232-2.696-.746-3.678-1.624-3.128-2.795-3.197-7.354-1.586-10.03 1.01-1.679 2.914-2.992 5.088-2.436.11.028.207.1.307.19" style="fill:none;fill-opacity:1;stroke:#000;stroke-width:.307505;stroke-miterlimit:4;stroke-dasharray:none"/><path d="M124.215-14.388c1.059 2.03-2.194 3.209-3.781 3.233-3.084.047-6.392-.867-8.68-3.053-1.126-1.075-1.837-3.066-1.162-4.552.141-.312.12-.2.108-.193" style="fill:none;fill-opacity:1;stroke:#000;stroke-width:.310068;stroke-miterlimit:4;stroke-dasharray:none"/><path d="M139.502-17.733c.58.816.544 1.993.106 2.855-1.021 2.01-3.135 3.134-4.852 3.662-3.502 1.021-7.318.453-9.907-1.898-.281-.255-.463-.659-.633-1.006" style="fill:none;fill-opacity:1;stroke:#000;stroke-width:.2942;stroke-miterlimit:4;stroke-dasharray:none"/><path d="M141.814-31.325c.974-.306 1.895-.55 2.863-.318 1.438.343 2.826 1.462 3.388 2.768 1.022 2.376.578 6.352-2.35 9.23-1.006.988-2.228 1.782-3.758 2.09-1.07.214-2.217.163-2.872-.436" style="fill:none;fill-opacity:1;stroke:#000;stroke-width:.325181;stroke-miterlimit:4;stroke-dasharray:none"/><path d="M131.145-39.184c.033-.399.432-.964 1.472-1.233 1.533-.396 3.907-.026 5.942 1.272 2.126 1.358 4.226 3.654 4.081 6.14-.052.896-.331 1.52-1.06 2.019" style="fill:none;fill-opacity:1;stroke:#000;stroke-width:.259244;stroke-miterlimit:4;stroke-dasharray:none"/><path d="M118.546-38.923c-.407-1.14-.292-2.562.132-3.51 1.086-2.425 3.443-3.567 5.988-3.635 2.932-.079 5.853 1.094 6.86 4.32.29.928.2 1.992-.235 2.712" style="fill:none;fill-opacity:1;stroke:#000;stroke-width:.378498;stroke-miterlimit:4;stroke-dasharray:none"/><path d="M107.977-31.932c-2.048-1.297-2.788-4.132-1.84-6.095 1.34-2.77 4.367-4.028 7.209-4.034 2.241-.005 5.425.958 5.25 2.975" style="fill:none;fill-opacity:1;stroke:#000;stroke-width:.325279;stroke-miterlimit:4;stroke-dasharray:none"/><path d="M86.397-59.934c.008.009.061-.013-.218.15-.828.488-1.918.547-2.818.425-1.705-.232-2.696-.746-3.678-1.624-3.128-2.795-3.197-7.355-1.586-10.03 1.01-1.68 2.914-2.992 5.088-2.436.11.028.207.1.307.19" style="fill:none;fill-opacity:1;stroke:#000;stroke-width:.35;stroke-miterlimit:4;stroke-dasharray:none"/><path d="M99.499-55.524c1.059 2.03-2.194 3.209-3.781 3.233-3.084.047-6.392-.867-8.681-3.053-1.125-1.075-1.836-3.066-1.161-4.552.141-.312.12-.2.108-.193" style="fill:none;fill-opacity:1;stroke:#000;stroke-width:.35;stroke-miterlimit:4;stroke-dasharray:none"/><path d="M114.566-59.191c.463.686.286 1.712-.244 2.48-1.234 1.792-3.42 2.857-5.148 3.387-3.52 1.032-7.15.693-9.375-1.248-.241-.211-.368-.555-.491-.85" style="fill:none;fill-opacity:1;stroke:#000;stroke-width:.35;stroke-miterlimit:4;stroke-dasharray:none"/><path d="M117.099-72.784c.95-.574 2.035-.54 3.003-.302 1.439.351 2.684 1.472 3.245 2.809 1.022 2.43.579 6.498-2.348 9.442-1.006 1.012-2.228 1.824-3.757 2.138-1.07.22-2.217.168-2.871-.445" style="fill:none;fill-opacity:1;stroke:#000;stroke-width:.35;stroke-miterlimit:4;stroke-dasharray:none"/><path d="M106.44-80.13c.023-.424.417-1.063 1.479-1.46 1.563-.586 4.012-.457 6.137.688 2.221 1.197 4.442 3.386 4.36 6.021-.03.948-.298 1.636-1.033 2.242" style="fill:none;fill-opacity:1;stroke:#000;stroke-width:.35;stroke-miterlimit:4;stroke-dasharray:none"/><path d="M93.83-80.059c-.407-1.14-.293-2.562.132-3.51 1.086-2.425 3.443-3.568 5.988-3.635 2.932-.079 5.853 1.094 6.86 4.32.29.928.2 1.992-.235 2.712" style="fill:none;fill-opacity:1;stroke:#000;stroke-width:.35;stroke-miterlimit:4;stroke-dasharray:none"/><path d="M83.26-73.068c-2.047-1.297-2.788-4.133-1.838-6.095 1.34-2.77 4.366-4.028 7.208-4.034 2.241-.005 5.425.958 5.25 2.975" style="fill:none;fill-opacity:1;stroke:#000;stroke-width:.35;stroke-miterlimit:4;stroke-dasharray:none"/><path d="M116.601 40.448c.843-.489 1.762-.382 2.568-.09 1.196.436 2.18 1.6 2.569 2.925.707 2.411.066 6.301-2.61 8.941-.919.908-2.008 1.609-3.326 1.808-.922.14-1.891.013-2.406-.622" style="fill:none;fill-opacity:1;stroke:#000;stroke-width:.31728;stroke-miterlimit:4;stroke-dasharray:none"/><path d="M32.61-80.188c-.796.473-2.466.378-3.484.105-1.309-.35-2.381-1.062-3.249-1.91-2.762-2.704-2.732-7.008-1.225-9.498.944-1.563 2.686-2.761 4.634-2.19.099.029.185.099.274.186" style="fill:none;fill-opacity:1;stroke:#000;stroke-width:.322826;stroke-miterlimit:4;stroke-dasharray:none"/><path d="M45.462-75.725c.92 2.154-2.436 3.197-4.5 3.092-3.289-.168-6.192-1.133-8.409-3.474-1.09-1.152-1.742-2.89-1.205-4.64" style="fill:none;fill-opacity:1;stroke:#000;stroke-width:.370904;stroke-miterlimit:4;stroke-dasharray:none"/><path d="M59.751-79.575c.394.723.17 1.808-.369 2.622-1.255 1.899-3.359 3.034-5.004 3.602-3.348 1.107-6.721.765-8.69-1.275-.213-.221-.313-.584-.41-.896" style="fill:none;fill-opacity:1;stroke:#000;stroke-width:.347705;stroke-miterlimit:4;stroke-dasharray:none"/><path d="M62.746-92.22c.691-.406 1.664-.313 2.374.106.915.54 1.777 1.62 2.048 3.31.396 2.465-.246 5.51-2.265 7.674-.86.922-1.85 1.636-2.841 1.935-.854.258-1.826.28-2.41-.237" style="fill:none;fill-opacity:1;stroke:#000;stroke-width:.309599;stroke-miterlimit:4;stroke-dasharray:none"/><path d="M52.438-100.29c.05-.422.483-1.035 1.567-1.365 1.597-.487 4.033-.205 6.083 1.07 2.142 1.333 4.221 3.657 3.975 6.281-.088.945-.333 1.58-.97 2.307" style="fill:none;fill-opacity:1;stroke:#000;stroke-width:.35;stroke-miterlimit:4;stroke-dasharray:none"/><path d="M39.685-100.12c-.407-.814-.293-1.83.133-2.507 1.09-1.731 3.455-2.547 6.008-2.595 2.942-.056 5.872.781 6.883 3.084.291.663.2 1.422-.236 1.937" style="fill:none;fill-opacity:1;stroke:#000;stroke-width:.296223;stroke-miterlimit:4;stroke-dasharray:none"/><path d="M29.38-93.068c-1.908-.891-2.498-3.21-1.506-4.96 1.4-2.472 4.352-3.834 7.074-4.122 2.148-.227 5.158.27 4.904 1.99" style="fill:none;fill-opacity:1;stroke:#000;stroke-width:.313906;stroke-miterlimit:4;stroke-dasharray:none"/><path d="M24.847 39.816c.544-.3 1.181-.255 1.775-.256 1.682-.004 3.091.812 3.325 2.131.186 1.048.007 1.92-.566 2.494-.504.503-1.093.972-1.76 1.181-.767.241-1.681.302-2.436.015-1.293-.493-2.285-1.663-1.828-3.59.19-.798.883-1.322 1.515-1.725M17.135 41.046c.567-.283 1.47-.478 2.185-.202.649.251 1.136.882 1.18 1.583.06.923-.527 1.856-1.39 2.185-.617.235-1.43.04-1.91-.402-.484-.444-.772-1.073-.668-1.75.069-.454.248-.757.6-.862" style="fill:#fffbd5;fill-opacity:1;stroke:#000;stroke-width:.4;stroke-miterlimit:4;stroke-dasharray:none"/><path d="M-22.436-81.134c-.783.474-2.424.379-3.425.106-1.286-.35-2.34-1.062-3.192-1.911-2.715-2.704-2.685-7.008-1.205-9.499.929-1.562 2.64-2.76 4.555-2.19.097.03.181.1.268.187" style="fill:none;fill-opacity:1;stroke:#000;stroke-width:.320038;stroke-miterlimit:4;stroke-dasharray:none"/><path d="M-9.613-76.67c.917 2.153-2.057 3.225-4.482 3.225-3.477 0-6.502-1.2-8.51-3.608-1.014-1.215-1.603-2.889-1.067-4.638" style="fill:none;fill-opacity:1;stroke:#000;stroke-width:.370158;stroke-miterlimit:4;stroke-dasharray:none"/><path d="M4.367-80.761c.514.683.45 1.726.023 2.517-.994 1.844-2.973 2.977-4.571 3.556-3.258 1.133-6.763.881-9.09-1.027-.253-.207-.41-.552-.558-.848" style="fill:none;fill-opacity:1;stroke:#000;stroke-width:.344703;stroke-miterlimit:4;stroke-dasharray:none"/><path d="M7.178-93.167c.68-.406 1.636-.312 2.333.107.9.54 1.747 1.62 2.013 3.31.39 2.465-.242 5.51-2.226 7.675-.846.922-1.818 1.635-2.792 1.935-.839.258-1.795.28-2.369-.237" style="fill:none;fill-opacity:1;stroke:#000;stroke-width:.306926;stroke-miterlimit:4;stroke-dasharray:none"/><path d="M-2.95-101.238c.048-.422.474-1.035 1.539-1.365 1.57-.486 3.963-.205 5.977 1.071 2.106 1.333 4.149 3.657 3.907 6.282-.087.944-.327 1.58-.953 2.307" style="fill:none;fill-opacity:1;stroke:#000;stroke-width:.346978;stroke-miterlimit:4;stroke-dasharray:none"/><path d="M-15.484-101.068c-.4-.813-.288-1.83.131-2.506 1.071-1.732 3.395-2.547 5.904-2.596 2.891-.056 5.77.782 6.764 3.085.286.663.197 1.422-.232 1.937" style="fill:none;fill-opacity:1;stroke:#000;stroke-width:.293665;stroke-miterlimit:4;stroke-dasharray:none"/><path d="M-25.612-94.014c-1.874-.892-2.454-3.211-1.48-4.962 1.377-2.471 4.278-3.833 6.953-4.121 2.11-.227 5.068.27 4.82 1.99" style="fill:none;fill-opacity:1;stroke:#000;stroke-width:.311195;stroke-miterlimit:4;stroke-dasharray:none"/><path d="M-77.074-80.221c-.767.464-2.376.37-3.356.103-1.26-.344-2.294-1.04-3.13-1.873-2.66-2.65-2.63-6.868-1.18-9.31.91-1.53 2.588-2.706 4.464-2.146.132.048-.073.41-.229.29-1.598-.999-2.048-3.135-1.135-4.774 1.375-2.472 4.276-3.834 6.952-4.122 2.11-.226 5.068.27 4.82 1.99l-.165.04c-.4-.814-.288-1.83.131-2.506 1.07-1.732 3.394-2.547 5.904-2.596 2.891-.056 5.77.782 6.764 3.085.286.662.197 1.422-.232 1.936l.058-.241c.094-.474.61-1.19 1.779-1.642 1.722-.665 4.246-.538 6.266.727 2.112 1.322 4.057 3.754 3.537 6.7-.188 1.06-.522 1.777-1.248 2.647-.293.351-.58-.058-.297-.21.698-.372 1.635-.311 2.333.108.9.54 1.747 1.62 2.013 3.31.389 2.465-.242 5.51-2.226 7.675-.846.922-1.819 1.635-2.792 1.935-.839.258-1.749.224-2.369-.237-.43-.321-.119-.825.23-.384.53.67.45 1.725.023 2.517-.994 1.844-2.874 3.109-4.477 3.674-3.252 1.148-6.857.763-9.185-1.145-.252-.208-.408-.554-.557-.849-.053-.103.008-.283.075-.123.895 2.113-1.948 3.228-4.325 3.228-3.408 0-6.44-1.243-8.408-3.603-.993-1.19-1.57-2.832-1.046-4.546" style="fill:#ffd5d5;fill-opacity:1;stroke:#000;stroke-width:.35;stroke-miterlimit:4;stroke-dasharray:none"/><path d="M115.853-36.96v17.104h5.564L109.132-7.572 96.66-19.856h4.907v-17.103z" style="fill:#aaffb1;fill-opacity:1;stroke:#000;stroke-width:1.2;stroke-linecap:butt;stroke-linejoin:miter;stroke-miterlimit:4;stroke-dasharray:none;stroke-opacity:1" transform="rotate(12.435 -143.917 190.107) scale(.22)"/><text xml:space="preserve" x="103.428" y="-19.285" style="font-style:normal;font-variant:normal;font-weight:400;font-stretch:normal;font-size:19.05px;line-height:1.25;font-family:Helvetica;-inkscape-font-specification:Helvetica;stroke-width:1.2;stroke-miterlimit:4;stroke-dasharray:none" transform="rotate(12.435 -143.917 190.107) scale(.22)"><tspan x="103.428" y="-19.285" style="font-style:normal;font-variant:normal;font-weight:400;font-stretch:normal;font-size:19.05px;font-family:Helvetica;-inkscape-font-specification:Helvetica;stroke-width:1.2;stroke-miterlimit:4;stroke-dasharray:none">5</tspan></text><path d="M-128.66-64.848c-.734.41-2.263.316-3.194.069-1.196-.318-2.173-.95-2.961-1.703-2.51-2.396-2.448-6.179-1.048-8.358.8-1.246 2.207-2.222 3.8-1.993.4.04.324.425-.08.136-1.243-.972-1.532-2.715-.718-4.067 1.329-2.207 4.1-3.407 6.647-3.646 1.73-.162 4.05.16 4.505 1.236.26.548-.15.583-.287.033a2.338 2.338 0 0 1 .339-1.662c1.033-1.545 3.25-2.26 5.637-2.285 2.751-.03 5.768.765 6.695 2.838.118.264.12.404.116.674-.009.58-.782.288-.438-.11.238-.276.5-.474 1.053-.735 1.613-.764 4.743-.728 6.756.482 2.293 1.38 3.634 3.82 3.115 6.458-.187.95-.606 1.589-1.304 2.365-.282.312-.552-.057-.28-.19.666-.33 1.557-.269 2.218.112.851.492 1.648 1.466 1.888 2.983.35 2.214-.275 4.941-2.18 6.868-.812.82-1.743 1.453-2.671 1.715-.8.225-1.666.189-2.252-.23-.407-.29-.106-.74.221-.342.5.605.415 1.55.002 2.257-.96 1.647-2.759 2.768-4.288 3.263-3.103 1.006-6.52.689-8.628-.91-.62-.47.245-1.084.32-.422.13 1.549-2.634 2.722-5.006 2.75-3.575.04-6.52-1.372-8.175-3.69-.821-1.15-1.343-2.982-.83-4.516" style="fill:#ffd5d5;fill-opacity:1;stroke:#000;stroke-width:.383355;stroke-miterlimit:4;stroke-dasharray:none"/><path d="M-174.147-39.379c-.794.131-1.898-.052-2.63-.247-1.197-.317-2.267-.957-3.029-1.736-2.442-2.496-2.38-5.844-.88-8.056.832-1.227 2.34-2.257 3.699-2.128.4.041.325.426-.08.136-1.243-.972-1.532-2.714-.717-4.067 1.329-2.206 4.1-3.407 6.647-3.646 1.729-.162 4.05.161 4.505 1.236.26.548-.15.583-.287.033a2.338 2.338 0 0 1 .339-1.662c1.032-1.545 3.25-2.26 5.637-2.285 2.75-.029 5.768.766 6.694 2.839.118.263.121.403.117.674-.009.58-.782.288-.438-.11.238-.277.5-.474 1.052-.735 1.614-.765 4.744-.728 6.756.482 2.294 1.379 3.635 3.82 3.115 6.458-.186.95-.605 1.588-1.304 2.364-.281.312-.551-.056-.28-.19.667-.33 1.558-.268 2.218.113.852.491 1.649 1.465 1.889 2.983.35 2.214-.275 4.94-2.18 6.867-.812.82-1.743 1.454-2.672 1.715-.8.226-1.665.19-2.251-.23-.408-.29-.107-.74.221-.342.499.605.414 1.551.002 2.257-.96 1.647-2.76 2.768-4.289 3.264-3.103 1.005-6.52.688-8.627-.91-.483-.483.476-.725.287-.019-.33 1.324-2.814 2.188-4.973 2.212-3.576.04-6.52-1.372-8.175-3.689-.752-1.054-1.113-2.426-.902-3.956" style="fill:#fffbd5;fill-opacity:1;stroke:#000;stroke-width:.4;stroke-miterlimit:4;stroke-dasharray:none"/></svg>