<svg xmlns="http://www.w3.org/2000/svg" xmlns:xlink="http://www.w3.org/1999/xlink" width="1141.936" height="201.161" viewBox="0 10 856.452 150.871"><defs><symbol id="a" overflow="visible" style="overflow:visible"><path d="M.344-3.953h.906L.375.234C.156 1.313-.172 1.86-.594 1.86c-.125 0-.203-.078-.203-.171 0-.016.016-.047.047-.11a.264.264 0 0 0 .047-.156c0-.203-.188-.375-.39-.375-.22 0-.376.172-.376.406 0 .344.36.61.797.61.875 0 1.578-.985 1.985-2.813l.718-3.203h1.094l.063-.313H2.109c.282-1.562.657-2.28 1.204-2.28.14 0 .218.062.218.124 0 .031 0 .047-.031.11a.344.344 0 0 0-.063.203c0 .234.157.39.376.39.218 0 .421-.172.421-.39 0-.375-.375-.657-.859-.657-.5 0-.875.22-1.234.688-.313.39-.5.86-.813 1.812H.422zm0 0" style="stroke:none"/></symbol></defs><circle cx="677.789" cy="76.949" r=".003" style="display:inline;fill:#000;stroke:#000;stroke-width:.75"/><circle cx="691.747" cy="79.097" r=".003" style="display:inline;fill:#000;stroke:#000;stroke-width:.75"/><path d="M497.04 25.943v41.065l-20.185-.372c-.132.353-.064.168-.198.551-.383 1.124-.742 2.255-.91 3.4-.077.653-.151 1.158-.17 1.82-.048 1.449.144 2.898.493 4.33.644 2.258 1.498 4.492 2.735 6.659.988 1.801 2.065 3.605 2.45 5.501.114.8.18 1.039.14 1.85-.08 1.519-.492 3.033-1.062 4.51-.177.394-.335.792-.53 1.183-.872 1.764-2.106 3.46-3.68 5.032-.977.896-5.326 4.076-6.615 4.818 9.164.743 17.101 1.068 27.307 1.407V146.553h109.247v-38.515l19.534-.506c2.862-1.552 5.126-5.72 5.347-7.467.862-6.81-7.778-12.519-7.625-18.566.125-4.94 3.654-11.486 9.69-15.39 0 0-19.732.363-26.946.299V25.943Z" style="fill:#d5ffe6;fill-opacity:1;stroke:none;stroke-width:.0999997;stroke-linecap:square;stroke-linejoin:miter;stroke-miterlimit:4;stroke-dasharray:none;stroke-opacity:1"/><path d="M155.006 199.899h31.186v38.966h110.199V199.9h30.934M155.006 158.526h31.186V118.12h110.199v40.406h30.934" style="fill:none;fill-rule:evenodd;stroke:#000;stroke-width:3.67329px;stroke-linecap:butt;stroke-linejoin:miter;stroke-opacity:1" transform="translate(310.106 -92.52)"/><use xlink:href="#a" width="100%" height="100%" x="217.415" y="156.682" style="fill:#000;fill-opacity:1" transform="matrix(9.33565 0 0 9.33565 -1490.245 -1353.911)"/><path d="M671.772 25.943v41.065l-22.106-.372s-3.29 3.45-3.199 8.596c.158 8.863 8.969 11.256 7.965 17.923-1.029 6.828-4.293 11.284-8.157 14.152l24.756.071.516 39.174h109.247l.8-38.514s12.898-2.237 19.3-1.297c.132-.353.063-.17.197-.553.383-1.124.742-2.254.91-3.4.077-.652.153-1.158.17-1.819.05-1.45-.144-2.897-.493-4.33-.644-2.257-1.498-4.493-2.735-6.659-.988-1.802-2.063-3.606-2.449-5.502-.113-.8-.18-1.038-.139-1.849.08-1.52.492-3.033 1.062-4.51.177-.394.335-.792.529-1.183.873-1.765 2.106-3.46 3.681-5.032.977-.896 1.999-1.776 3.287-2.518l-4.673-3.596a61.847 61.847 0 0 0-2.515 1.653l.548-1.035h-17.48V25.943Z" style="fill:#e5d5ff;fill-opacity:1;stroke:none;stroke-width:.0999997;stroke-linecap:square;stroke-linejoin:miter;stroke-miterlimit:4;stroke-dasharray:none;stroke-opacity:1"/><g style="fill:#e3d7f4;fill-opacity:1"><path d="M155.006 199.899h31.186v38.966h110.199V199.9h30.934M155.006 158.526h31.186V118.12h110.199v40.406h30.934" style="fill:#e3d7f4;fill-opacity:1;fill-rule:evenodd;stroke:#000;stroke-width:3.67329px;stroke-linecap:butt;stroke-linejoin:miter;stroke-opacity:1" transform="translate(484.838 -92.52)"/></g><path d="M748.618 74.753v-3.636h-5.593c-.28 0-.746-.186-1.492-.745-2.517-1.771-5.593-2.61-9.135-2.61-9.416 0-18.738 6.432-18.738 15.94 0 4.847 2.145 8.203 7.365 10.068-5.034 2.33-7.178 5.127-7.178 7.83 0 1.212.839 2.61 2.517 3.636-9.136 5.5-10.907 8.017-10.907 12.77 0 6.713 6.06 10.068 15.568 10.068 12.398 0 19.576-5.966 19.576-14.076 0-5.593-4.288-9.694-13.237-11.839-4.102-1.025-6.619-2.237-6.619-3.915 0-1.957 1.771-3.822 3.356-3.822.186 0 .373 0 .653.093.839.187 1.864.28 2.89.28 8.669 0 17.245-7.457 17.245-15.288 0-1.585 0-3.076-.839-4.754zm-11.093 1.678c0 3.915-1.212 7.737-3.077 10.907-2.237 3.822-4.754 5.5-7.923 5.5-3.543 0-5.593-2.61-5.593-6.992 0-9.229 5.593-16.034 11.372-16.034 3.45 0 5.22 1.678 5.22 6.619zm-2.517 40.83c0 4.754-5.034 8.763-12.585 8.763-7.457 0-11.839-2.983-11.839-9.509 0-2.144.466-3.635 1.865-5.406 1.305-1.678 5.22-4.848 6.059-4.848 1.025.373 1.957.653 3.17 1.026 9.974 3.076 13.33 5.686 13.33 9.974z" style="font-style:italic;font-variant:normal;font-weight:400;font-stretch:normal;font-size:22.5px;line-height:1.25;font-family:STIXGeneral;-inkscape-font-specification:&quot;STIXGeneral Italic&quot;;fill:#000;stroke-width:.750001"/><path d="M208.134 25.943H76.394v41.065l-20.184-.372c-.133.353-.064.168-.198.551-.384 1.124-.742 2.255-.91 3.4-.077.653-.152 1.158-.17 1.82-.049 1.449.144 2.898.492 4.33.645 2.258 1.498 4.492 2.735 6.659.989 1.801 2.065 3.605 2.45 5.501.114.8.18 1.039.14 1.85-.08 1.519-.491 3.033-1.062 4.51-.177.394-.335.792-.529 1.183-.873 1.764-2.106 3.46-3.68 5.032-.978.896-5.327 4.076-6.615 4.818 9.163.743 17.1 1.068 27.306 1.407V146.553h83.608" style="fill:#d5ffe6;fill-opacity:1;stroke:none;stroke-width:.09975;stroke-linecap:square;stroke-linejoin:miter;stroke-miterlimit:4;stroke-dasharray:none;stroke-opacity:1"/><path d="M159.777 146.552h134.556v-38.514l19.534-.506c2.863-1.552 5.127-5.72 5.348-7.467.862-6.81-7.778-12.519-7.625-18.566.125-4.94 3.654-11.486 9.69-15.39 0 0-19.732.363-26.947.299V25.943h-86.199" style="fill:#e5d5ff;fill-opacity:1;stroke:none;stroke-width:.09975;stroke-linecap:square;stroke-linejoin:miter;stroke-miterlimit:4;stroke-dasharray:none;stroke-opacity:1"/><path d="M155.006 158.526h31.186V118.12H404.67v40.406h30.934M155.006 199.9h31.186v38.966H404.67V199.9h30.934" style="fill:none;fill-rule:evenodd;stroke:#000;stroke-width:3.67329px;stroke-linecap:butt;stroke-linejoin:miter;stroke-opacity:1" transform="translate(-110.54 -92.52)"/><use xlink:href="#a" width="100%" height="100%" x="217.415" y="156.682" style="fill:#000;fill-opacity:1" transform="matrix(9.33565 0 0 9.33565 -1910.89 -1353.911)"/><path d="M259.192 74.753v-3.636H253.6c-.28 0-.745-.186-1.491-.745-2.517-1.771-5.593-2.61-9.136-2.61-9.415 0-18.737 6.432-18.737 15.94 0 4.847 2.144 8.203 7.365 10.068-5.034 2.33-7.178 5.127-7.178 7.83 0 1.212.839 2.61 2.517 3.636-9.136 5.5-10.907 8.017-10.907 12.77 0 6.713 6.06 10.068 15.568 10.068 12.398 0 19.576-5.966 19.576-14.076 0-5.593-4.288-9.694-13.238-11.839-4.101-1.025-6.618-2.237-6.618-3.915 0-1.957 1.771-3.822 3.356-3.822.186 0 .373 0 .652.093.84.187 1.865.28 2.89.28 8.67 0 17.246-7.457 17.246-15.288 0-1.585 0-3.076-.84-4.754zM248.1 76.431c0 3.915-1.211 7.737-3.076 10.907-2.237 3.822-4.754 5.5-7.924 5.5-3.542 0-5.593-2.61-5.593-6.992 0-9.229 5.593-16.034 11.373-16.034 3.45 0 5.22 1.678 5.22 6.619zm-2.517 40.83c0 4.754-5.033 8.763-12.584 8.763-7.458 0-11.839-2.983-11.839-9.509 0-2.144.466-3.635 1.864-5.406 1.305-1.678 5.22-4.848 6.06-4.848 1.025.373 1.957.653 3.17 1.026 9.974 3.076 13.33 5.686 13.33 9.974z" style="font-style:italic;font-variant:normal;font-weight:400;font-stretch:normal;font-size:22.5px;line-height:1.25;font-family:STIXGeneral;-inkscape-font-specification:&quot;STIXGeneral Italic&quot;;fill:#000;stroke-width:.750001"/><circle cx="183.737" cy="86.855" r="7.985" style="fill:none;fill-opacity:.995968;stroke:#000;stroke-width:3.74999;stroke-linecap:square;stroke-miterlimit:4;stroke-dasharray:none;stroke-opacity:1"/><g style="font-style:normal;font-variant:normal;font-weight:400;font-stretch:normal;font-size:22.5px;line-height:1.25;font-family:STIXGeneral;-inkscape-font-specification:STIXGeneral;stroke-width:.22064"><path d="M357.181-83.138v-1.485H343.93v1.485zm0 4.5v-1.485H343.93v1.485z" aria-label="=" style="font-style:normal;font-variant:normal;font-weight:400;font-stretch:normal;font-family:STIXGeneral;-inkscape-font-specification:STIXGeneral;stroke-width:.22064" transform="matrix(3.3992 0 0 3.3992 -796.67 364.238)"/></g><path d="M791.162 53.428c-.012 1.816.06 3.63.116 5.445-.009.382.037.762.04 1.144 0 .07-.081.218-.011.212.943-.09.666-.114.68-.576 0-.161.03-.32.045-.48.3-1.5 1.102-2.847 2.211-3.891.203-.192.409-.384.643-.535.247-.16.513-.322.831-.249.511.117.813 1.402.89 1.8.257 1.35.265 2.884.007 4.087-.076.357-.233.935-.334 1.172l.72.38c.176-.444.296-1.083.38-1.539.233-1.276.262-2.89-.038-4.31-.15-.708-.389-1.573-.989-2.065-.712-.584-1.396-.217-2.028.221-.25.174-.473.384-.691.596-1.2 1.17-2.057 2.661-2.355 4.318-.047.685-.311 1.318.783 1.058.086-.02.008-.176.008-.264-.008-.38-.044-.76-.042-1.14-.058-1.808-.128-3.615-.111-5.424z" style="fill:#000;fill-opacity:1;stroke:#000;stroke-width:.525;stroke-linecap:square;stroke-miterlimit:4;stroke-dasharray:none;stroke-opacity:1"/><g style="stroke-width:.44223602;stroke-dasharray:none"><path d="M796.929 52.445c.156.04.209.198.27.255-.065.086-.167.25-.273.3-.263.128-.67.207-.954.09-.067-.028-.116-.088-.175-.133-.032-.037-.091-.063-.097-.112-.009-.071.03-.142.059-.208.14-.311.519-.404.826-.422l.067-.635c-.603.012-1.539.399-1.57 1.109-.009.17.056.397.119.494.084.13.181.26.31.348.585.402 1.462.247 1.984-.182a.85.85 0 0 0 .252-.323c.18-.441-.053-.886-.413-1.074zM797.047 59.589l-.07-1.281c-.079-1.272-.181-2.544-.226-3.818l-.637.033c.05 1.286.152 2.569.23 3.853.024.425.046.851.068 1.277z" style="fill:#000;fill-opacity:1;stroke:#000;stroke-width:.44223602;stroke-linecap:square;stroke-miterlimit:4;stroke-dasharray:none;stroke-opacity:1" transform="matrix(1.19128 0 0 1.18304 -160.801 -9.225)"/></g><path d="M473.103 52.443c-1.104.526-2.122 1.274-2.771 2.333-.15.243-.257.51-.385.765-.07.274-.172.543-.211.823-.156 1.11.268 2.26 1.037 3.064.19.198.421.352.632.529.21.129.405.286.63.387 1.019.458 2.132.319 3.125-.123.236-.105.455-.245.682-.367 1.035-.685 1.863-1.702 1.816-3.01-.008-.225-.069-.444-.104-.666-.3-.958-.843-1.85-1.65-2.465-.134-.102-.282-.184-.423-.276-.8-.415-1.596-.291-2.412-.016l.153.74v0c.605-.232 1.203-.386 1.823-.107a4.058 4.058 0 0 1 1.769 2.275c.03.167.081.33.09.5.049.983-.575 1.76-1.322 2.316-.962.555-2.002 1.043-3.124.573-.199-.083-.37-.22-.556-.329-.175-.139-.368-.259-.527-.417-.64-.638-1.017-1.575-.896-2.479.031-.231.114-.453.171-.68.112-.22.206-.452.336-.662.542-.874 1.38-1.493 2.275-1.967l-.157-.741zM477.98 53.392c.009 1.39.058 2.8.387 4.157.08.326.19.643.286.965.369.912.79 2.042 1.779 2.457.198.083.416.147.631.137.254-.013.49-.138.735-.207.25-.216.532-.399.749-.647.988-1.133 1.211-3.112 1.403-4.553.058-.585.066-.604.102-1.139.012-.188.02-.354.022-.54 0-.022.021-.067 0-.066-.255.013-.507.07-.76.104-.048 1.563.28 3.1.686 4.598.291.902.547 1.866 1.12 2.64.115.122.055.067.177.166l.457-.606v0c.016.03.014.02-.025-.013-.539-.686-.723-1.602-1.008-2.403-.387-1.43-.702-2.896-.65-4.386-.251-.016-.502-.045-.753-.049-.012 0 0 .025 0 .037 0 .064 0 .129-.007.194-.02.472-.061.943-.115 1.412-.156 1.167-.292 2.413-.823 3.482-.232.465-.427.662-.738 1.03-.128.07-.241.18-.383.212-.97.22-1.637-1.448-1.882-2.093-.09-.3-.195-.595-.269-.9-.32-1.315-.362-2.681-.365-4.029l-.755.04z" style="fill:#000;fill-opacity:1;stroke:#000;stroke-width:.525;stroke-linecap:square;stroke-miterlimit:4;stroke-dasharray:none;stroke-opacity:1"/><g style="stroke-width:.525;stroke-dasharray:none"><path d="M486.457 50.441c.052 2.372.205 4.742.297 7.113.046 1.286.086 2.573.108 3.86v.268l.808-.046v0-.273a209.891 209.891 0 0 0-.114-3.873c-.093-2.363-.246-4.725-.29-7.088l-.808.04z" style="fill:#000;fill-opacity:1;stroke:#000;stroke-width:.525;stroke-linecap:square;stroke-miterlimit:4;stroke-dasharray:none;stroke-opacity:1" transform="translate(.48)"/><path d="M483.797 54.067c1.952.088 3.907.037 5.86.012a393.84 393.84 0 0 0 1.718-.026l.067-.83v0c-.571.013-1.143.02-1.714.03-1.934.026-3.871.077-5.804-.007l-.128.821z" style="fill:#000;fill-opacity:1;stroke:#000;stroke-width:.525;stroke-linecap:square;stroke-miterlimit:4;stroke-dasharray:none;stroke-opacity:1" transform="translate(.48)"/></g><g style="stroke-width:.525;stroke-dasharray:none"><path d="M301.869 53.712c.076 0 .153.013.216.018.055.014.336.14.344.167.012.036-.008.075-.015.113-.107.339-.683.423-.98.4-.175-.013-.396-.092-.57-.148-.503-.1.197-.483.661-.553l-.004-.782c-.507.073-1.684.5-1.511 1.356a.9.9 0 0 0 .226.428c.122.13.287.215.448.29.603.278 1.424.234 1.97-.163.148-.107.29-.23.393-.381a.813.813 0 0 0 .137-.396c.03-.454-.295-.82-.682-.989a1.46 1.46 0 0 0-.416-.111zM302.261 61.464l-.024-.483c-.088-1.715-.172-3.431-.325-5.143l-.808.108c.157 1.7.235 3.404.323 5.107l.023.482z" style="fill:#000;fill-opacity:1;stroke:#000;stroke-width:.525;stroke-linecap:square;stroke-miterlimit:4;stroke-dasharray:none;stroke-opacity:1"/></g><path d="M311.293 61.587c.166-1.362.248-2.856.138-4.063-.062-.685-.154-1.304-.48-1.928-.376-.722-1.093-1.145-1.912-.966a2.81 2.81 0 0 0-.892.345c-.587.367-.978.734-1.425 1.368-.836 1.187-1.138 2.63-1.36 4.035-.03.245-.218.524-.09.736.125.205.713.49.677.252-.089-.58-.123-1.169-.2-1.751-.217-2.046-.428-4.093-.655-6.138l-.75.115c.234 2.043.444 4.088.66 6.133l.086.802c.035.322.05.646.112.964.009.057 0 .185.056.164.284-.116.595-.25.77-.502.141-.202.06-.488.089-.732.212-1.314.485-2.675 1.295-3.772.398-.54.722-.845 1.272-1.144.418-.227.984-.303 1.371.092.506.517.577 1.402.633 2.06.111 1.3.025 2.607-.152 3.903z" style="fill:#000;fill-opacity:1;stroke:#000;stroke-width:.525;stroke-linecap:square;stroke-miterlimit:4;stroke-dasharray:none;stroke-opacity:1"/><path d="M865.343 35.932c-.865.651-1.585 1.511-2.03 2.503-.116.258-.196.53-.294.795-.27.996-.406 2.048-.19 3.07.113.533.222.702.443 1.185.325.613.818 1.087 1.381 1.479l.384-.51c-.483-.326-.908-.723-1.19-1.242-.19-.408-.293-.57-.39-1.02-.2-.93-.071-1.888.175-2.794.09-.24.163-.487.27-.72.412-.912 1.083-1.696 1.884-2.286l-.443-.46zM878.132 32.716c-.765.021-1.488.331-2.067.832-.147.127-.267.283-.401.425-.665.851-.978 1.926-.811 3.004.03.2.1.393.15.59.091.175.161.365.275.527.51.723 1.398 1.1 2.252 1.205.233.03.47.02.705.029 1.093-.099 2.19-.474 2.972-1.278.127-.13.23-.283.345-.424.082-.156.182-.303.244-.468.243-.652.156-1.363-.144-1.98-.076-.156-.178-.3-.267-.45-.527-.692-1.253-1.32-2.107-1.57-.168-.05-.345-.066-.517-.099-.483-.058-.943.029-1.408.14l.077.633c.384-.107.766-.19 1.17-.156.136.02.275.024.408.058.725.187 1.38.747 1.83 1.322.479.78.66 1.389.177 2.228-.096.115-.181.24-.287.345-.644.648-1.516.968-2.41 1.068-.204-.003-.41.01-.613-.01-.678-.065-1.44-.332-1.867-.897-.092-.122-.149-.267-.223-.4-.043-.161-.103-.319-.13-.483a3.267 3.267 0 0 1 .693-2.557c.568-.59 1.037-.951 1.887-.998l.067-.636z" style="fill:#000;fill-opacity:1;stroke:none;stroke-width:.525;stroke-linecap:square;stroke-miterlimit:4;stroke-dasharray:none;stroke-opacity:1"/><path d="M881.46 51.639a10.349 10.349 0 0 0-2.092 2.609c-.561 1.006-.904 2.181-.657 3.341.045.21.114.416.192.616.421 1.067 1.378 1.646 2.38 2.095.083.038.17.067.254.1l.271-.577-.228-.088c-.665-.293-1.4-.65-1.826-1.265a2.576 2.576 0 0 1-.248-.471 3.025 3.025 0 0 1-.166-.514c-.23-1.03.104-2.08.605-2.969.472-.837 1.2-1.79 2.021-2.488zM888.369 55.618c.319.144.492.295.657.47.153.164.274.364.348.575.34.959-.35 1.669-1.198 1.956a3.042 3.042 0 0 1-.843.176c-.542.022-1.051.043-1.708-.245-.727-.319-1.19-.95-1.254-1.743-.02-.252.003-.508.06-.754.057-.246.158-.482.28-.703a2.695 2.695 0 0 1 2.227-1.399l.118-.627c-1.194.025-2.306.65-2.896 1.71a3.35 3.35 0 0 0-.338.837c-.072.299-.105.612-.087.92a2.67 2.67 0 0 0 1.506 2.265c.764.382 2.002.367 2.002.367.33-.003.658-.076.974-.17.866-.258 1.7-.845 1.845-1.804.096-.642-.045-1.14-.482-1.672a2.676 2.676 0 0 0-.806-.648zM897.783 59.57l-.134-.22c-.61-1.095-1.114-2.253-1.294-3.504-.055-.443-.112-.838-.14-1.28-.008-.11.085-.27-.008-.33-.174-.117-.412-.078-.621-.091-.017-.001.007.034.008.052 0 .088.007.176.007.265-.02 1.319-.142 2.66-.753 3.858-.091.179-.413.562-.6.649-.456.21-.956-.046-1.253-.4a2.564 2.564 0 0 1-.358-.588 4.225 4.225 0 0 1-.262-.77c-.305-1.272-.202-2.641.046-3.911l-.629-.107c-.256 1.345-.36 2.791-.04 4.138.07.295.164.587.287.864.11.247.241.489.41.7.41.51 1.186.954 1.851.711.574-.21.805-.45 1.088-.946.684-1.203.83-2.774.851-4.223-.264.217.113-.417-.021-.404-.223.021-.481.03-.648.18-.098.089 0 .265.008.397.03.448.094.895.15 1.34.191 1.324.721 2.55 1.364 3.71l.143.239zM898.882 48.881c.007 2.105.167 4.206.288 6.306.07 1.275.14 2.55.184 3.826.007.152.007.305.01.458l.638-.042v0c0-.157-.007-.313-.011-.47-.047-1.28-.119-2.56-.19-3.838-.121-2.09-.283-4.18-.281-6.273z" style="fill:#000;fill-opacity:1;stroke:#000;stroke-width:.525;stroke-linecap:square;stroke-miterlimit:4;stroke-dasharray:none;stroke-opacity:1" transform="translate(-492.537 -63.006)"/><path d="m902.293 51.74-1.199.002c-1.776 0-3.552 0-5.328-.002l-.067.635c1.776-.002 3.552-.002 5.328-.001h1.199zM902.997 60.793c.273-.11.131-.055.329-.14.796-.39 1.56-.869 2.064-1.617.099-.146.19-.298.265-.458.435-.934.328-1.965-.046-2.894a6.134 6.134 0 0 0-.305-.64c-.521-.958-1.264-1.785-2.205-2.344l-.338.543c.857.504 1.528 1.259 1.996 2.13.103.191.197.387.276.588.311.788.405 1.664.008 2.443a2.924 2.924 0 0 1-.23.364c-.42.59-1.045.957-1.68 1.278-.209.096-.112.054-.289.128z" style="fill:#000;fill-opacity:1;stroke:#000;stroke-width:.525;stroke-linecap:square;stroke-miterlimit:4;stroke-dasharray:none;stroke-opacity:1" transform="translate(-492.537 -63.006)"/><path d="M52.536 55.073c.243.045.489.096.688.16.786.25 1.365.749 1.762 1.464.253.457.442.843.415 1.387-.054 1.08-.915 1.86-1.79 2.199-.703.271-1.322.333-2.268.2-.968-.136-1.937-.698-2.249-1.69a2.147 2.147 0 0 1-.07-.913c.043-.33.167-.647.315-.943.556-1.108 1.707-2.092 2.934-2.325l.175-.736a1.75 1.75 0 0 0-.537.05c-1.36.348-2.606 1.407-3.234 2.66-.175.35-.325.725-.381 1.113-.056.387-.05.795.052 1.173.345 1.278 1.474 2.07 2.714 2.308.98.187 1.89.104 2.624-.15 1.197-.413 2.384-1.336 2.452-2.798.036-.783-.12-1.173-.465-1.838-.453-.873-1.16-1.465-2.085-1.82a4.25 4.25 0 0 0-.812-.215z" style="fill:#000;fill-opacity:1;stroke:#000;stroke-width:.525;stroke-linecap:square;stroke-miterlimit:4;stroke-dasharray:none;stroke-opacity:1"/><path d="M64.762 60.392a2.078 2.078 0 0 1-.528-.342c-.885-.79-1.463-1.819-1.962-2.89-.281-.604-.364-.773-.539-1.391-.044-.158-.068-.321-.104-.481-.015-.057.017-.167-.041-.172-.762-.069.15.457-.566-.046-.013-.131.023.133.027.251.003.422-.01.845-.064 1.263-.191 1.517-.415 2.835-1.7 3.79a1.704 1.704 0 0 1-1.217.329c-.197-.023-.38-.12-.554-.217-.62-.344-.846-.906-.942-1.578a6.313 6.313 0 0 1-.05-.825c-.009-1.362.264-2.715.64-4.016l-.732-.194c-.387 1.373-.673 2.796-.66 4.23.002.298.012.598.054.893.12.862.44 1.572 1.196 2.061.22.143.459.274.716.324.755.148 1.274.001 1.732-.276.29-.176.556-.424.799-.662 1.026-1.007 1.344-2.448 1.467-3.816.056-.625.225-1.362-.068-1.953-.128-.058-.246-.207-.382-.174-.176.04-.33.195-.406.36-.072.156-.017.346.003.518.088.738.403 1.435.71 2.098.535 1.16 1.179 2.249 2.118 3.117.227.209.51.407.803.514zM66.948 61.375c-.009-.104-.013-.209-.018-.313-.088-1.53-.174-3.06-.258-4.59-.135-2.474-.29-4.95-.309-7.428l-.777.04c.028 2.49.183 4.977.319 7.463l.251 4.591c.01.105.012.21.018.314z" style="fill:#000;fill-opacity:1;stroke:#000;stroke-width:.525;stroke-linecap:square;stroke-miterlimit:4;stroke-dasharray:none;stroke-opacity:1"/><path d="m69.643 52.612-.477.078c-1.81.298-3.617.619-5.427.914l.033.775c1.808-.303 3.613-.62 5.423-.917l.475-.076z" style="fill:#000;fill-opacity:1;stroke:#000;stroke-width:.525;stroke-linecap:square;stroke-miterlimit:4;stroke-dasharray:none;stroke-opacity:1"/><path d="M75.941-127.842v41.066l-20.184-.372c-.132.353-.064.168-.198.55-.383 1.125-.741 2.255-.91 3.4-.076.653-.15 1.159-.17 1.82-.048 1.45.144 2.898.493 4.331.644 2.258 1.498 4.492 2.735 6.658.988 1.802 2.065 3.606 2.45 5.502.114.8.18 1.038.14 1.849-.08 1.52-.492 3.033-1.062 4.51-.177.394-.335.792-.53 1.184-.872 1.764-2.106 3.46-3.68 5.031-.977.896-5.326 4.077-6.614 4.819 9.163.743 17.1 1.068 27.306 1.407V-7.232h218.164v-38.514l19.534-.507c2.862-1.551 5.127-5.72 5.348-7.466.862-6.81-7.779-12.52-7.626-18.566.125-4.94 3.655-11.487 9.69-15.391 0 0-19.732.363-26.946.3v-40.466z" style="fill:#f2f2f2;fill-opacity:1;stroke:none;stroke-width:.09975;stroke-linecap:square;stroke-linejoin:miter;stroke-miterlimit:4;stroke-dasharray:none;stroke-opacity:1"/><path d="M144.286 164.689 227.058 3.215" style="fill:#e5d5ff;fill-opacity:1;stroke-width:2.83465;stroke-linejoin:round;stroke-miterlimit:2"/><path d="M793.27 60.175c-1.098-.425-2.072-1.09-2.567-1.852-.253-.39-.334-.734-.36-1.198-.05-.965.302-1.875.75-2.7.123-.226.268-.44.421-.646.588-.794 1.355-1.431 2.128-2.036l-.444-.46c-.806.642-1.605 1.314-2.218 2.152a6.227 6.227 0 0 0-.455.704c-.499.92-.896 1.933-.817 3.004.044.595.136.995.41 1.43.739 1.17 1.75 1.786 2.9 2.188zM796.929 52.445c.156.04.209.198.27.255-.065.086-.167.25-.273.3-.263.128-.67.207-.954.09-.067-.028-.116-.088-.175-.133-.032-.037-.091-.063-.097-.112-.009-.071.03-.142.059-.208.14-.311.519-.404.826-.422l.067-.635c-.603.012-1.539.399-1.57 1.109-.009.17.056.397.119.494.084.13.181.26.31.348.585.402 1.462.247 1.984-.182a.85.85 0 0 0 .252-.323c.18-.441-.053-.886-.413-1.074zM799.472 53.046c-.01 1.532.05 3.064.098 4.595-.008.322.032.644.034.966 0 .06-.07.184-.01.178.798-.075.564-.096.575-.485 0-.136.025-.27.039-.406.253-1.266.931-2.402 1.869-3.284.171-.161.345-.324.543-.451.209-.134.434-.271.703-.21.432.099.687 1.183.752 1.52.217 1.138.225 2.433.007 3.449-.065.3-.198.788-.283.989l.61.32c.147-.374.25-.914.32-1.298.197-1.078.222-2.44-.032-3.637-.127-.599-.329-1.328-.836-1.744-.602-.493-1.18-.183-1.715.187a4.65 4.65 0 0 0-.584.503c-1.015.987-1.74 2.246-1.992 3.644-.039.578-.262 1.112.663.893.073-.017.007-.149.007-.223-.007-.321-.038-.641-.035-.963-.05-1.525-.11-3.05-.095-4.576zM805.939 51.7c1.301.973 2.232 2.222 2.74 3.5.526 1.322.407 2.199-.217 3.433-.25.497-.645.95-1.084 1.298l.474.43c.508-.454.886-1.018 1.17-1.511.704-1.227.658-2.885.224-3.939-.631-1.533-1.665-2.76-2.914-3.713zM797.047 59.589l-.07-1.281c-.079-1.272-.181-2.544-.226-3.818l-.637.033c.05 1.286.152 2.569.23 3.853.024.425.046.851.068 1.277z" style="fill:#000;fill-opacity:1;stroke:#000;stroke-width:.525;stroke-linecap:square;stroke-miterlimit:4;stroke-dasharray:none;stroke-opacity:1" transform="translate(0 -55.634)"/><g style="stroke-width:.525;stroke-miterlimit:4;stroke-dasharray:none"><path d="M896.075 51.196a5.704 5.704 0 0 0-2.03 2.034c-.135.228-.242.472-.363.708-.437 1.048-.8 2.191-.662 3.343.023.188.073.371.11.557.35 1.086.992 1.634 1.991 2.104.307.128.628.214.954.275l.163-.619v0a3.947 3.947 0 0 1-.814-.218c-.805-.364-1.392-.81-1.674-1.686-.032-.158-.076-.314-.096-.474-.129-1.05.222-2.095.62-3.049.11-.214.209-.436.332-.643a5.159 5.159 0 0 1 1.695-1.735l-.226-.597zM900.523 52.142c-.932.443-1.792 1.074-2.34 1.966-.125.206-.216.43-.324.645-.06.232-.145.458-.178.695-.131.935.227 1.905.875 2.582.16.168.356.298.533.446.178.11.343.242.533.327.86.386 1.798.268 2.636-.104.2-.088.384-.206.576-.31.873-.577 1.572-1.434 1.532-2.537-.008-.19-.058-.374-.088-.561-.253-.808-.711-1.56-1.393-2.079-.112-.086-.237-.155-.356-.233-.675-.349-1.347-.245-2.036-.013l.13.625v0c.51-.197 1.014-.326 1.538-.09a3.422 3.422 0 0 1 1.493 1.917c.025.14.068.279.075.421.042.829-.485 1.485-1.115 1.953-.812.468-1.69.879-2.636.483-.168-.07-.313-.185-.469-.277-.148-.117-.311-.218-.445-.352-.54-.538-.858-1.327-.756-2.09.027-.195.096-.382.145-.573.094-.186.173-.38.283-.558.457-.737 1.165-1.259 1.92-1.659l-.133-.624zM905.438 52.924c.008 1.17.048 2.357.326 3.5.067.274.161.54.242.811.31.768.666 1.72 1.5 2.068.168.07.351.125.533.116.214-.011.413-.116.62-.174.21-.182.448-.336.631-.545.834-.954 1.023-2.619 1.184-3.832.05-.493.056-.508.086-.959.01-.158.017-.298.02-.454 0-.019.017-.057 0-.056-.216.01-.429.059-.643.088-.04 1.315.237 2.609.58 3.87.245.76.461 1.57.945 2.221.096.104.046.058.149.14l.385-.51v0c.014.026.012.018-.02-.01-.455-.577-.61-1.348-.85-2.023-.327-1.203-.593-2.438-.55-3.692-.211-.014-.423-.037-.635-.04-.01 0 0 .02 0 .03 0 .054 0 .109-.006.163-.018.397-.052.794-.098 1.19-.131.981-.246 2.03-.694 2.93-.196.391-.36.557-.623.867-.108.06-.203.151-.323.178-.818.185-1.38-1.219-1.588-1.761-.076-.253-.164-.502-.226-.757-.27-1.108-.306-2.258-.309-3.392l-.637.033zM913.434 49.72c.041 2.006.162 4.012.234 6.018.037 1.089.069 2.178.085 3.267v.227l.638-.039v0-.23c-.02-1.094-.051-2.186-.09-3.279-.073-2-.193-3.998-.229-5.998l-.637.033z" style="fill:#000;fill-opacity:1;stroke:#000;stroke-width:.525;stroke-linecap:square;stroke-miterlimit:4;stroke-dasharray:none;stroke-opacity:1" transform="translate(-432.73 -55.634)"/><path d="M911.248 52.391c1.645.067 3.292.028 4.937.01l1.448-.02.056-.637v0c-.482.01-.963.016-1.444.023-1.63.02-3.261.06-4.89-.005l-.107.63zM918.677 51.476c.945.94 1.704 2.075 2.242 3.296.113.257.202.523.304.785.057.243.143.481.172.729.123 1.055-.422 1.89-1.062 2.66a4.894 4.894 0 0 1-.613.58l.476.427v0c.24-.208.472-.423.676-.668.763-.952 1.303-1.888 1.137-3.166-.036-.273-.132-.534-.198-.801-.108-.277-.204-.56-.324-.83a11.43 11.43 0 0 0-2.4-3.5l-.41.488z" style="fill:#000;fill-opacity:1;stroke:#000;stroke-width:.525;stroke-linecap:square;stroke-miterlimit:4;stroke-dasharray:none;stroke-opacity:1" transform="translate(-432.73 -55.634)"/></g><path d="M832.49 52.078c.064 0 .127.01.18.015.045.012.278.115.285.136.01.03-.008.062-.013.093-.089.276-.566.345-.812.327-.145-.011-.33-.076-.473-.121-.417-.082.163-.395.548-.452l-.004-.639c-.42.06-1.397.41-1.253 1.108a.73.73 0 0 0 .187.349c.101.106.238.176.372.236.5.228 1.18.192 1.634-.132.122-.088.24-.188.326-.312a.656.656 0 0 0 .113-.323c.025-.37-.245-.67-.565-.807a1.226 1.226 0 0 0-.345-.09zM832.805 59.32c-.008-.142-.013-.285-.019-.406-.07-1.438-.134-2.877-.255-4.312l-.632.09c.123 1.425.184 2.855.253 4.283.007.134.012.27.018.404zM841.27 59.501c.139-1.148.208-2.409.115-3.427-.052-.577-.13-1.1-.404-1.626-.317-.608-.92-.965-1.61-.815a2.364 2.364 0 0 0-.752.292c-.494.31-.823.619-1.2 1.153-.704 1.002-.958 2.219-1.145 3.404-.025.206-.184.442-.076.62.105.174.6.413.57.213-.074-.49-.103-.986-.167-1.477-.183-1.726-.361-3.452-.552-5.177l-.631.097c.196 1.723.373 3.448.555 5.173l.072.676c.03.271.043.545.094.813.01.048 0 .157.048.138.239-.098.501-.21.649-.423.118-.17.05-.412.074-.618.179-1.108.408-2.255 1.09-3.18.336-.455.609-.714 1.072-.965.352-.191.828-.256 1.155.078.426.435.485 1.181.533 1.737.094 1.096.02 2.199-.128 3.292zM826.987 59.753c-1.527-1.014-1.865-2.382-1.64-4.073.214-1.62 1.176-2.814 2.494-3.792l-.474-.429c-1.503 1.154-2.406 2.466-2.643 4.089-.28 1.912.205 3.645 1.896 4.728zM844.587 52.088c.744.817 1.421 1.863 1.771 2.9.243.72.37 1.405.328 2.175a3.523 3.523 0 0 1-.131.818c-.217.775-.953 1.51-1.387 1.761l.46.443c.798-.478 1.371-1.334 1.56-2.13.084-.351.1-.531.132-.958.06-.799-.103-1.57-.37-2.344-.388-1.125-1.111-2.257-1.93-3.136z" style="fill:#000;fill-opacity:1;stroke:#000;stroke-width:.525;stroke-linecap:square;stroke-miterlimit:4;stroke-dasharray:none;stroke-opacity:1" transform="translate(-522.415 -55.973)"/><path d="M914.405 51.776c-1.324 1.146-2.6 2.335-2.54 4.104.049 1.402.772 2.242 1.818 2.91.411.263.885.453 1.328.547l.22-.599a3.878 3.878 0 0 1-1.157-.45c-.866-.539-1.628-1.243-1.574-2.359.074-1.519 1.226-2.778 2.335-3.68zM920.644 53.379c.205.038.414.081.582.135.666.21 1.157.633 1.493 1.237.215.386.375.713.352 1.172-.046.913-.775 1.572-1.517 1.858-.595.23-1.12.281-1.921.17-.82-.116-1.641-.59-1.906-1.429a1.81 1.81 0 0 1-.06-.772 2.54 2.54 0 0 1 .268-.796c.471-.936 1.446-1.768 2.486-1.965l.148-.622a1.487 1.487 0 0 0-.455.042c-1.153.295-2.208 1.19-2.74 2.248-.149.296-.276.613-.323.94a2.48 2.48 0 0 0 .044.992c.292 1.08 1.25 1.75 2.3 1.95.83.158 1.6.088 2.223-.126 1.014-.349 2.02-1.13 2.077-2.365.031-.661-.101-.991-.393-1.553-.384-.737-.983-1.238-1.767-1.538a3.609 3.609 0 0 0-.688-.182zM932.27 58.667a1.76 1.76 0 0 1-.414-.333c-.675-.743-1.07-1.657-1.396-2.601-.183-.53-.237-.68-.33-1.215-.023-.136-.029-.275-.044-.413-.008-.05.029-.138-.02-.148-.636-.125.085.397-.472-.089 0-.11.007.114 0 .214a7.926 7.926 0 0 1-.166 1.054c-.296 1.255-.602 2.342-1.769 3.028-.308.182-.68.252-1.055.168-.164-.037-.31-.135-.448-.231-.492-.344-.632-.836-.652-1.408a5.322 5.322 0 0 1 .031-.697c.114-1.143.464-2.254.896-3.313l-.599-.228c-.448 1.117-.816 2.286-.933 3.49-.024.251-.042.504-.034.755.025.734.232 1.359.825 1.837.172.139.362.27.574.335.623.191 1.073.114 1.483-.077.26-.122.507-.307.732-.485.954-.754 1.35-1.935 1.576-3.072.102-.519.31-1.123.116-1.645-.102-.06-.189-.195-.306-.18a.548.548 0 0 0-.374.266c-.075.125-.045.29-.043.436.008.626.21 1.24.41 1.823.348 1.02.794 1.992 1.508 2.804.172.196.392.387.63.503zM934.702 59.26c-.007-.089-.01-.177-.015-.265-.072-1.296-.143-2.592-.212-3.887-.111-2.096-.238-4.193-.254-6.291l-.638.033c.023 2.109.15 4.215.262 6.321l.206 3.888c.008.089.01.178.015.266z" style="fill:#000;fill-opacity:1;stroke:#000;stroke-width:.525;stroke-linecap:square;stroke-miterlimit:4;stroke-dasharray:none;stroke-opacity:1" transform="translate(-873.294 -55.39)"/><path d="m937.03 52.482-.403.064c-1.53.245-3.058.51-4.588.753l.028.638c1.528-.249 3.054-.51 4.584-.755l.402-.062zM938.492 52.43c.765.417 1.535.93 2.013 1.68a2.7 2.7 0 0 1 .4 1.073c.117.788-.08 1.639-.406 2.354-.079.174-.18.337-.27.506-.308.584-1.446 1.585-1.544 1.66l.584.34c.614-.496 1.154-1.08 1.55-1.764.108-.185.207-.376.292-.572.36-.83.56-1.8.404-2.703-.04-.226-.1-.45-.184-.664a3.494 3.494 0 0 0-.323-.618c-.53-.816-1.36-1.386-2.2-1.846z" style="fill:#000;fill-opacity:1;stroke:#000;stroke-width:.525;stroke-linecap:square;stroke-miterlimit:4;stroke-dasharray:none;stroke-opacity:1" transform="translate(-873.294 -55.39)"/><path d="M616.544 53.428c-.012 1.816.06 3.63.116 5.445-.009.382.037.762.04 1.144 0 .07-.081.218-.011.212.943-.09.666-.114.68-.576 0-.161.03-.32.045-.48.3-1.5 1.102-2.847 2.211-3.891.203-.192.409-.384.643-.535.247-.16.513-.322.831-.249.511.117.813 1.402.89 1.8.257 1.35.265 2.884.007 4.087-.076.357-.233.935-.334 1.172l.72.38c.176-.444.296-1.083.38-1.539.233-1.276.262-2.89-.038-4.31-.15-.708-.389-1.573-.989-2.065-.712-.584-1.396-.217-2.028.221-.25.174-.473.384-.691.596-1.2 1.17-2.057 2.661-2.355 4.318-.047.685-.311 1.318.783 1.058.086-.02.008-.176.008-.264-.008-.38-.044-.76-.042-1.14-.058-1.808-.128-3.615-.111-5.424z" style="fill:#000;fill-opacity:1;stroke:#000;stroke-width:.525;stroke-linecap:square;stroke-miterlimit:4;stroke-dasharray:none;stroke-opacity:1"/><g style="stroke-width:.44223602;stroke-dasharray:none"><path d="M796.929 52.445c.156.04.209.198.27.255-.065.086-.167.25-.273.3-.263.128-.67.207-.954.09-.067-.028-.116-.088-.175-.133-.032-.037-.091-.063-.097-.112-.009-.071.03-.142.059-.208.14-.311.519-.404.826-.422l.067-.635c-.603.012-1.539.399-1.57 1.109-.009.17.056.397.119.494.084.13.181.26.31.348.585.402 1.462.247 1.984-.182a.85.85 0 0 0 .252-.323c.18-.441-.053-.886-.413-1.074zM797.047 59.589l-.07-1.281c-.079-1.272-.181-2.544-.226-3.818l-.637.033c.05 1.286.152 2.569.23 3.853.024.425.046.851.068 1.277z" style="fill:#000;fill-opacity:1;stroke:#000;stroke-width:.44223602;stroke-linecap:square;stroke-miterlimit:4;stroke-dasharray:none;stroke-opacity:1" transform="matrix(1.19128 0 0 1.18304 -335.26 -9.225)"/></g><path d="M648.637 53.082c-1.104.527-2.122 1.274-2.771 2.333-.15.244-.257.51-.386.765-.07.275-.171.543-.21.824-.156 1.11.268 2.26 1.037 3.063.19.199.421.353.631.53.21.129.406.286.632.387 1.018.458 2.13.318 3.124-.123.236-.105.455-.245.682-.368 1.035-.684 1.863-1.701 1.816-3.01-.008-.224-.069-.443-.104-.665-.3-.959-.843-1.85-1.65-2.466-.134-.102-.282-.184-.423-.276-.8-.414-1.596-.29-2.412-.015l.153.74v0c.605-.232 1.202-.386 1.823-.107a4.058 4.058 0 0 1 1.769 2.275c.03.166.081.33.09.5.049.982-.575 1.76-1.322 2.315-.962.556-2.002 1.043-3.124.574-.199-.083-.37-.22-.556-.33-.175-.138-.368-.258-.527-.416-.64-.638-1.017-1.575-.896-2.48.031-.23.114-.453.171-.68.112-.22.206-.451.336-.661.542-.875 1.38-1.493 2.275-1.968l-.157-.74zM653.515 53.392c.008 1.39.057 2.8.386 4.157.08.326.19.643.286.965.369.912.79 2.042 1.779 2.457.198.083.416.147.631.137.254-.013.49-.138.735-.207.25-.216.532-.399.749-.647.988-1.133 1.211-3.112 1.403-4.553.058-.585.066-.604.101-1.139.013-.188.02-.354.023-.54 0-.022.021-.067 0-.066-.255.013-.507.07-.76.104-.048 1.563.28 3.1.686 4.598.291.902.547 1.866 1.12 2.64.115.122.055.067.177.166l.457-.606v0c.016.03.014.02-.025-.013-.539-.686-.723-1.602-1.008-2.403-.387-1.43-.702-2.896-.65-4.386-.251-.016-.502-.045-.753-.049-.013 0 0 .025 0 .037 0 .064 0 .129-.007.194-.02.472-.061.943-.115 1.412-.156 1.167-.292 2.413-.823 3.482-.232.465-.428.662-.738 1.03-.128.07-.241.18-.383.212-.97.22-1.637-1.448-1.882-2.093-.09-.3-.195-.595-.269-.9-.32-1.315-.362-2.681-.365-4.029l-.755.04z" style="fill:#000;fill-opacity:1;stroke:#000;stroke-width:.525;stroke-linecap:square;stroke-miterlimit:4;stroke-dasharray:none;stroke-opacity:1"/><g style="stroke-width:.525;stroke-dasharray:none"><path d="M662.63 50.441c.053 2.372.205 4.742.297 7.113.047 1.286.087 2.573.108 3.86v.268l.808-.046v0-.273a209.891 209.891 0 0 0-.113-3.873c-.094-2.363-.246-4.725-.291-7.088l-.807.04z" style="fill:#000;fill-opacity:1;stroke:#000;stroke-width:.525;stroke-linecap:square;stroke-miterlimit:4;stroke-dasharray:none;stroke-opacity:1" transform="translate(-.16)"/><path d="M659.97 54.067c1.952.088 3.908.037 5.86.012a393.84 393.84 0 0 0 1.719-.026l.067-.83v0c-.572.013-1.143.02-1.715.03-1.934.026-3.87.077-5.803-.007l-.128.821z" style="fill:#000;fill-opacity:1;stroke:#000;stroke-width:.525;stroke-linecap:square;stroke-miterlimit:4;stroke-dasharray:none;stroke-opacity:1" transform="translate(-.16)"/></g></svg>