<svg xmlns="http://www.w3.org/2000/svg" viewBox="0 0 119.063 79.375"><g style="display:inline"><path d="M71.938 27.388v-2.56H70.14l3.295-3.112 3.296 3.112h-1.757v2.56h9.962v3.958H62.374v-3.958z" style="display:inline;fill:#7bffe5;fill-opacity:1;stroke:#000;stroke-width:.27;stroke-miterlimit:4;stroke-dasharray:none"/><g aria-label="SECOND VICTIM" style="font-size:5.33333px;font-family:Tomorrow;-inkscape-font-specification:Tomorrow;display:inline;stroke:#000;stroke-width:.0779293;stroke-miterlimit:2;stroke-dasharray:none;stroke-opacity:1"><path d="M42.719 13.902v-.448h1.936l.288-.293v-.784l-.288-.293h-1.52l-.555-.555v-.997l.555-.56h2.09v.448h-1.871l-.294.293.006.65.288.294h1.52l.554.56v1.125l-.554.56zM46.223 13.902v-3.93h2.592v.448h-2.107v1.194h1.883v.443h-1.883v1.397h2.107v.448zM50.015 13.902l-.56-.56v-2.81l.56-.56h1.776l.544.544-.31.314-.426-.426h-1.365l-.294.293v2.48l.294.293h1.408l.432-.432.309.315-.555.55zM53.466 13.902l-.56-.56v-2.81l.56-.56h1.856l.56.56v2.81l-.56.56zm.218-.432h1.419l.293-.293v-2.48l-.293-.293h-1.419l-.293.293v2.48zM56.708 13.902v-3.93h.662l1.754 3.162V9.972h.486v3.93h-.576l-1.723-3.104h-.117v3.104zM60.538 13.902v-3.93h2.133l.816.826v2.278l-.816.826zm.485-.432h1.43l.549-.56v-1.946l-.55-.56h-1.43zM66.42 13.902l-1.333-3.93h.512l1.136 3.466h.117l1.136-3.466h.512l-1.333 3.93zM68.9 13.902v-.448h.48V10.42h-.48v-.448h1.446v.448h-.48v3.034h.48v.448zM71.599 13.902l-.56-.56v-2.81l.56-.56h1.776l.544.544-.31.314-.426-.426h-1.365l-.294.293v2.48l.294.293h1.408l.432-.432.309.315-.555.55zM75.364 13.902V10.42h-1.168v-.448h2.822v.448H75.85v3.482zM77.418 13.902v-.448h.48V10.42h-.48v-.448h1.445v.448h-.48v3.034h.48v.448zM79.658 13.902v-3.93h.66l1.238 3.14 1.243-3.14h.667v3.93h-.491v-3.19l-1.28 3.19h-.272l-1.28-3.184v3.184z" style="stroke:#000;stroke-width:.0779293;stroke-dasharray:none;stroke-opacity:1" transform="matrix(.48508 0 0 .4849 42.923 23.621)"/></g><path d="M31.56 10.98v2.56h2.08l-3.577 3.392-3.46-3.393h1.921v-2.56h-8.163V7.022h19.362v3.959z" style="fill:#41ffff;fill-opacity:1;stroke:#000;stroke-width:.27;stroke-miterlimit:4;stroke-dasharray:none"/><g aria-label="FIRST VICTIM" style="font-size:5.33333px;font-family:Tomorrow;-inkscape-font-specification:Tomorrow;stroke:#000;stroke-width:.0779296;stroke-miterlimit:2;stroke-dasharray:none;stroke-opacity:1"><path d="M13.634 14.433v-3.931h2.533v.448H14.12v1.27h1.798v.442h-1.798v1.77zM16.578 14.433v-.448h.48V10.95h-.48v-.448h1.445v.448h-.48v3.035h.48v.448zM18.818 14.433v-3.931h2.15l.554.56v1.253l-.555.56h-.016l.71 1.558h-.54l-.698-1.558h-1.12v1.558zm.485-1.99h1.446l.288-.293v-.923l-.288-.293h-1.446zM22.375 14.433v-.448h1.936l.288-.294v-.784l-.288-.293h-1.52l-.555-.555v-.997l.555-.56h2.09v.448H23.01l-.294.293.006.651.288.293h1.52l.554.56v1.126l-.554.56zM26.535 14.433V10.95h-1.168v-.448h2.821v.448H27.02v3.483zM30.844 14.433l-1.333-3.931h.512l1.136 3.467h.117l1.136-3.467h.512l-1.333 3.93zM33.324 14.433v-.448h.48V10.95h-.48v-.448h1.446v.448h-.48v3.035h.48v.448zM36.023 14.433l-.56-.56v-2.811l.56-.56H37.8l.544.544-.31.315-.426-.427h-1.365l-.294.293v2.48l.294.294h1.408l.432-.432.31.314-.556.55zM39.788 14.433V10.95H38.62v-.448h2.822v.448h-1.168v3.483zM41.842 14.433v-.448h.48V10.95h-.48v-.448h1.445v.448h-.48v3.035h.48v.448zM44.082 14.433v-3.931h.661l1.237 3.141 1.243-3.141h.667v3.93h-.49v-3.189l-1.28 3.19h-.273l-1.28-3.184v3.184z" style="stroke:#000;stroke-width:.0779296;stroke-dasharray:none;stroke-opacity:1" transform="matrix(.48508 0 0 .4849 15.161 3.009)"/></g></g><g aria-label="START" style="font-size:7.9375px;line-height:1.25;font-family:sans-serif;stroke-width:.834253;stroke-miterlimit:4;stroke-dasharray:none"><path d="M10.926 28.908v-.667h2.881l.429-.437v-1.167l-.429-.436h-2.262l-.826-.826v-1.484l.826-.833h3.111v.666H11.87l-.436.437.008.968.428.437h2.262l.826.833v1.675l-.826.834zM17.123 28.908v-5.184h-1.739v-.666h4.2v.666h-1.739v5.184zM19.19 28.908l1.977-5.85h1.12l1.976 5.85h-.754l-.5-1.524h-2.564l-.492 1.524zm1.469-2.16h2.143l-.984-3.008h-.183zM25.072 28.908v-5.85h3.199l.825.833v1.865l-.825.834h-.024l1.056 2.318H28.5l-1.04-2.318h-1.667v2.318zm.722-2.961h2.151l.429-.437v-1.373l-.429-.436h-2.15zM31.432 28.908v-5.184h-1.738v-.666h4.199v.666h-1.739v5.184z" style="font-style:normal;font-variant:normal;font-weight:400;font-stretch:normal;font-family:Tomorrow;-inkscape-font-specification:Tomorrow;stroke-width:.834253;stroke-miterlimit:4;stroke-dasharray:none" transform="matrix(.49174 0 0 .4675 76.483 -34.687)"/></g><path d="M94.553 63.08v-4.624h-7.53v-1.998l-3.917 4.287 3.917 4.156V63.08z" style="fill:#ffc3cc;fill-opacity:1;stroke:#000;stroke-width:.3;stroke-miterlimit:4;stroke-dasharray:none" transform="translate(-4.8 -71.37)"/><g aria-label="END" style="font-size:7.9375px;line-height:1.25;font-family:sans-serif;stroke-width:.836237;stroke-miterlimit:4;stroke-dasharray:none"><path d="M20.728 51.554v-5.85h3.857v.666H21.45v1.778h2.802v.66H21.45v2.079h3.135v.667zM25.689 51.554v-5.85h.984l2.611 4.707v-4.707h.723v5.85h-.858l-2.564-4.62h-.174v4.62zM31.394 51.554v-5.85h3.175l1.214 1.23v3.39l-1.214 1.23zm.722-.643h2.127l.818-.834V47.18l-.818-.833h-2.127z" style="font-style:normal;font-variant:normal;font-weight:400;font-stretch:normal;font-family:Tomorrow;-inkscape-font-specification:Tomorrow;stroke-width:.836237;stroke-miterlimit:4;stroke-dasharray:none" transform="matrix(.4894 0 0 .4675 71.133 -33.313)"/></g><text xml:space="preserve" x="38.802" y="-2.21" style="font-size:5.33333px;font-family:Tomorrow;-inkscape-font-specification:Tomorrow;fill:#000;stroke-width:.298583;stroke-miterlimit:2"><tspan x="38.802" y="-2.21" style="font-size:5.33333px">first victim</tspan></text><g aria-label="FIRST VICTIM" style="font-size:5.33333px;font-family:Tomorrow;-inkscape-font-specification:Tomorrow;stroke-width:.298583;stroke-miterlimit:2"><path d="M-4.044-.707v-3.93h2.534v.447h-2.048v1.27h1.797v.442h-1.797v1.77zM-1.1-.707v-.448h.48V-4.19h-.48v-.448H.346v.448h-.48v3.035h.48v.448zM1.14-.707v-3.93h2.15l.554.56v1.253l-.554.56h-.016l.709 1.557h-.539l-.698-1.557h-1.12v1.557zm.486-1.99H3.07l.288-.293v-.922l-.288-.294H1.626zM4.697-.707v-.448h1.936l.288-.293v-.784l-.288-.294h-1.52L4.56-3.08v-.998l.554-.56h2.091v.448H5.332l-.293.294.005.65.288.294h1.52l.555.56v1.125l-.555.56zM8.857-.707V-4.19H7.69v-.448h2.822v.448H9.343v3.483zM13.167-.707l-1.334-3.93h.512l1.136 3.466h.118l1.136-3.467h.512l-1.334 3.93zM15.647-.707v-.448h.48V-4.19h-.48v-.448h1.445v.448h-.48v3.035h.48v.448zM18.345-.707l-.56-.56v-2.81l.56-.56h1.776l.544.543-.309.315-.427-.427h-1.365l-.293.294v2.48l.293.293h1.408l.432-.432.31.315-.555.549zM22.11-.707V-4.19h-1.167v-.448h2.821v.448h-1.168v3.483zM24.164-.707v-.448h.48V-4.19h-.48v-.448h1.445v.448h-.48v3.035h.48v.448zM26.404-.707v-3.93h.661l1.238 3.14 1.242-3.14h.667v3.93h-.49v-3.19l-1.28 3.19h-.273l-1.28-3.184v3.184z"/></g><g aria-label="SECOND VICTIM" style="font-size:5.33333px;font-family:Tomorrow;-inkscape-font-specification:Tomorrow;stroke-width:.298583;stroke-miterlimit:2"><path d="M26.544-10.96v-.448h1.936l.288-.293v-.784l-.288-.294h-1.52l-.555-.554v-.998l.555-.56h2.09v.448H27.18l-.294.294.006.65.288.294h1.52l.554.56v1.125l-.554.56zM30.048-10.96v-3.93h2.592v.447h-2.107v1.195h1.883v.443h-1.883v1.397h2.107v.448zM33.84-10.96l-.56-.56v-2.81l.56-.56h1.776l.544.543-.31.315-.426-.427h-1.365l-.294.294v2.48l.294.293h1.408l.432-.432.309.315-.555.549zM37.29-10.96l-.56-.56v-2.81l.56-.56h1.857l.56.56v2.81l-.56.56zm.22-.432h1.418l.293-.293v-2.48l-.293-.294h-1.419l-.293.294v2.48zM40.533-10.96v-3.93h.662l1.754 3.162v-3.163h.486v3.93h-.576l-1.723-3.103h-.117v3.104zM44.363-10.96v-3.93h2.133l.816.826v2.277l-.816.827zm.485-.432h1.43l.549-.56V-13.9l-.55-.56h-1.43zM50.245-10.96l-1.333-3.93h.512l1.136 3.466h.117l1.136-3.467h.512l-1.333 3.93zM52.725-10.96v-.448h.48v-3.035h-.48v-.448h1.445v.448h-.48v3.035h.48v.448zM55.424-10.96l-.56-.56v-2.81l.56-.56H57.2l.544.543-.31.315-.426-.427h-1.366l-.293.294v2.48l.293.293h1.408l.432-.432.31.315-.555.549zM59.19-10.96v-3.483H58.02v-.448h2.821v.448h-1.168v3.483zM61.242-10.96v-.448h.48v-3.035h-.48v-.448h1.446v.448h-.48v3.035h.48v.448zM63.482-10.96v-3.93h.662l1.237 3.14 1.243-3.14h.666v3.93h-.49v-3.19l-1.28 3.19h-.272l-1.28-3.184v3.184z"/></g><path d="M20.035 11.046v2.205h1.999l-4.287 4.083-4.157-4.083h1.822v-2.205H6.967V6.648H28.48v4.398z" style="fill:#41ffff;fill-opacity:1;stroke:#000;stroke-width:.3;stroke-miterlimit:4;stroke-dasharray:none" transform="translate(-37.25)"/><g aria-label="FIRST VICTIM" style="font-size:5.33333px;font-family:Tomorrow;-inkscape-font-specification:Tomorrow;stroke-width:.298583;stroke-miterlimit:2"><path d="M-28.902 9.987V7.826h1.394v.246h-1.127v.698h.989v.244h-.989v.973zM-27.282 9.987v-.246h.264v-1.67h-.264v-.245h.794v.246h-.264V9.74h.264v.246zM-26.05 9.987V7.826h1.182l.305.308v.689l-.305.308h-.01l.391.856h-.296l-.385-.856h-.616v.856zm.266-1.094h.795l.159-.161v-.508l-.159-.16h-.795zM-24.094 9.987v-.246h1.065l.158-.161v-.432l-.158-.16h-.836l-.305-.306v-.548l.305-.308h1.15v.246h-1.03l-.161.161.003.358.158.161h.836l.305.308v.62l-.305.307zM-21.806 9.987V8.072h-.642v-.246h1.551v.246h-.642v1.915zM-19.436 9.987l-.733-2.161h.281l.625 1.906h.065l.625-1.906h.281l-.733 2.161zM-18.072 9.987v-.246h.264v-1.67h-.264v-.245h.795v.246h-.264V9.74h.264v.246zM-16.588 9.987l-.308-.308V8.134l.308-.308h.977l.3.299-.17.173-.235-.235h-.751l-.162.161v1.364l.162.162h.774l.238-.238.17.173-.305.302zM-14.517 9.987V8.072h-.642v-.246h1.552v.246h-.643v1.915zM-13.387 9.987v-.246h.264v-1.67h-.264v-.245h.795v.246h-.264V9.74h.264v.246zM-12.155 9.987V7.826h.363l.681 1.727.683-1.727h.367v2.161h-.27V8.233l-.704 1.754h-.15l-.703-1.75v1.75z"/></g><path d="M133.196 28.668v-2.205h-1.999l4.287-4.082 4.157 4.082h-1.822v2.205h11.097v4.399H122.54v-4.399z" style="fill:#7bffe5;fill-opacity:1;stroke:#000;stroke-width:.3;stroke-miterlimit:4;stroke-dasharray:none"/><g aria-label="SECOND VICTIM" style="font-size:5.33333px;font-family:Tomorrow;-inkscape-font-specification:Tomorrow;stroke-width:.06871869;stroke-miterlimit:2;stroke:#000;stroke-opacity:1;stroke-dasharray:none"><path d="M42.719 13.877v-.448h1.936l.288-.293v-.784l-.288-.294h-1.52l-.555-.554v-.998l.555-.56h2.09v.448h-1.871l-.294.294.006.65.288.294h1.52l.554.56v1.125l-.554.56zM46.223 13.877v-3.93h2.592v.447h-2.107v1.195h1.883v.443h-1.883v1.397h2.107v.448zM50.015 13.877l-.56-.56v-2.81l.56-.56h1.776l.544.543-.31.315-.426-.427h-1.365l-.294.294v2.48l.294.293h1.408l.432-.432.309.315-.555.549zM53.466 13.877l-.56-.56v-2.81l.56-.56h1.856l.56.56v2.81l-.56.56zm.218-.432h1.419l.293-.293v-2.48l-.293-.294h-1.419l-.293.294v2.48zM56.708 13.877v-3.93h.662l1.754 3.162V9.946h.486v3.931h-.576l-1.723-3.104h-.117v3.104zM60.538 13.877v-3.93h2.133l.816.826v2.277l-.816.827zm.485-.432h1.43l.549-.56v-1.947l-.55-.56h-1.43zM66.42 13.877l-1.333-3.93h.512l1.136 3.466h.117l1.136-3.467h.512l-1.333 3.931zM68.9 13.877v-.448h.48v-3.035h-.48v-.448h1.446v.448h-.48v3.035h.48v.448zM71.599 13.877l-.56-.56v-2.81l.56-.56h1.776l.544.543-.31.315-.426-.427h-1.365l-.294.294v2.48l.294.293h1.408l.432-.432.309.315-.555.549zM75.364 13.877v-3.483h-1.168v-.448h2.822v.448H75.85v3.483zM77.418 13.877v-.448h.48v-3.035h-.48v-.448h1.445v.448h-.48v3.035h.48v.448zM79.658 13.877v-3.93h.66l1.238 3.14 1.243-3.14h.667v3.93h-.491v-3.19l-1.28 3.19h-.272l-1.28-3.184v3.184z" style="stroke:#000;stroke-opacity:1;stroke-width:.06871869;stroke-dasharray:none" transform="matrix(.55 0 0 .55 100.887 24.364)"/></g><path d="M19.41 11.046v2.517h2.311l-3.974 3.77-3.844-3.77h2.134v-2.517h-9.07V6.648H28.48v4.398z" style="fill:#41ffff;fill-opacity:1;stroke:#000;stroke-width:.3;stroke-miterlimit:4;stroke-dasharray:none" transform="translate(-36.625 9.493)"/><g aria-label="FIRST VICTIM" style="font-size:5.33333px;font-family:Tomorrow;-inkscape-font-specification:Tomorrow;stroke-width:.298583;stroke-miterlimit:2"><path d="M-28.277 19.48V17.32h1.394v.246h-1.127v.698h.989v.244h-.989v.974zM-26.657 19.48v-.246h.264v-1.669h-.264v-.246h.794v.246h-.264v1.67h.264v.246zM-25.425 19.48V17.32h1.182l.305.308v.69l-.305.307h-.01l.391.857h-.296l-.385-.857h-.616v.857zm.266-1.094h.795l.159-.16v-.508l-.159-.162h-.795zM-23.469 19.48v-.246h1.065l.158-.161v-.431l-.158-.162h-.836l-.305-.305v-.548l.305-.308h1.15v.246h-1.03l-.161.161.003.358.158.162h.836l.305.308v.619l-.305.308zM-21.18 19.48v-1.915h-.643v-.246h1.551v.246h-.642v1.916zM-18.81 19.48l-.734-2.161h.281l.625 1.906h.065l.625-1.906h.281l-.733 2.162zM-17.447 19.48v-.246h.264v-1.669h-.264v-.246h.795v.246h-.264v1.67h.264v.246zM-15.963 19.48l-.308-.307v-1.546l.308-.308h.977l.3.299-.17.173-.235-.235h-.751l-.162.162v1.364l.162.161h.774l.238-.238.17.173-.305.303zM-13.892 19.48v-1.915h-.642v-.246h1.552v.246h-.643v1.916zM-12.762 19.48v-.246h.264v-1.669h-.264v-.246h.795v.246h-.264v1.67h.264v.246zM-11.53 19.48V17.32h.363l.681 1.727.683-1.727h.367v2.162h-.27v-1.755l-.704 1.755h-.15l-.703-1.752v1.752z"/></g><path d="M72.696 28.668v-2.83h-1.999l3.662-3.457 3.662 3.457h-1.952v2.83h11.722v4.399H61.416v-4.399z" style="fill:#7bffe5;fill-opacity:1;stroke:#000;stroke-width:.3;stroke-miterlimit:4;stroke-dasharray:none" transform="translate(194.938)"/><g aria-label="SECOND VICTIM" style="font-size:5.33333px;font-family:Tomorrow;-inkscape-font-specification:Tomorrow;stroke-width:.298583;stroke-miterlimit:2"><path d="M258.195 31.996v-.246h1.065l.159-.162v-.43l-.159-.162h-.836l-.305-.305v-.549l.305-.308h1.15v.247h-1.03l-.16.16.002.359.158.161h.836l.305.308v.62l-.305.307zM260.123 31.996v-2.162h1.425v.247h-1.159v.657h1.036v.243h-1.036v.769h1.16v.246zM262.208 31.996l-.308-.308v-1.546l.308-.308h.977l.3.3-.171.172-.235-.234h-.75l-.162.161v1.364l.161.161h.775l.237-.237.17.173-.305.302zM264.106 31.996l-.308-.308v-1.546l.308-.308h1.02l.309.308v1.546l-.308.308zm.12-.238h.78l.162-.16v-1.365l-.161-.161h-.78l-.162.161v1.364zM265.89 31.996v-2.162h.363l.965 1.74v-1.74h.267v2.162h-.317l-.947-1.707h-.065v1.707zM267.996 31.996v-2.162h1.173l.449.455v1.252l-.45.455zm.267-.238h.786l.302-.308v-1.07l-.302-.308h-.786zM271.231 31.996l-.733-2.162h.281l.625 1.907h.065l.624-1.907h.282l-.733 2.162zM272.595 31.996v-.246h.264v-1.67h-.264v-.246h.795v.247h-.264v1.669h.264v.246zM274.08 31.996l-.309-.308v-1.546l.308-.308h.977l.3.3-.17.172-.236-.234h-.75l-.162.161v1.364l.162.161h.774l.238-.237.17.173-.305.302zM276.15 31.996v-1.915h-.642v-.247h1.552v.247h-.643v1.915zM277.28 31.996v-.246h.264v-1.67h-.264v-.246h.794v.247h-.264v1.669h.264v.246zM278.512 31.996v-2.162h.363l.68 1.728.684-1.728h.367v2.162h-.27v-1.754l-.704 1.754h-.15l-.704-1.751v1.751z"/></g></svg>