<svg xmlns="http://www.w3.org/2000/svg" viewBox="0 0 119.063 79.375"><path d="M71.599 11.342v2.56H69.8l3.296 3.112 3.295-3.112h-1.756v-2.56h4.755V7.384H66.845v3.958z" style="display:inline;fill:#41ffff;fill-opacity:1;stroke:#000;stroke-width:.27;stroke-miterlimit:4;stroke-dasharray:none"/><g aria-label="OUTER" style="font-size:5.33333px;font-family:Tomorrow;-inkscape-font-specification:Tomorrow;stroke:#000;stroke-width:.077137;stroke-miterlimit:2"><path d="m82.172 16.2-.56-.56v-2.81l.56-.56h1.856l.56.56v2.81l-.56.56zm.219-.432h1.418l.294-.293v-2.48l-.294-.294h-1.418l-.294.294v2.48zM85.9 16.2l-.56-.56v-3.37h.485v3.205l.294.293h1.413l.293-.293v-3.206h.486v3.371l-.56.56zM89.937 16.2v-3.483H88.77v-.448h2.822v.448h-1.168V16.2zM92.124 16.2v-3.93h2.592v.447H92.61v1.195h1.883v.443H92.61v1.397h2.107v.448zM95.457 16.2v-3.93h2.15l.554.56v1.253l-.554.56h-.016l.71 1.557h-.54l-.698-1.557h-1.12V16.2zm.486-1.99h1.445l.288-.293v-.922l-.288-.294h-1.445z" style="stroke-width:.077137" transform="matrix(.49168 0 0 .48828 28.875 2.424)"/></g><path d="M62.525 27.221v-2.56h-1.799l3.296-3.111 3.295 3.112h-1.756v2.56h4.678v3.958H57.698V27.22z" style="display:inline;fill:#7bffe5;fill-opacity:1;stroke:#000;stroke-width:.27;stroke-miterlimit:4;stroke-dasharray:none"/><path d="M60.004 30.241v-.22h.238v-1.498h-.238v-.22h.718v.22h-.239v1.497h.239v.221zM61.116 30.241v-1.939h.329l.871 1.56v-1.56h.241v1.94h-.286l-.855-1.532h-.059v1.531zM63.018 30.241v-1.939h.328l.872 1.56v-1.56h.24v1.94h-.285l-.856-1.532h-.058v1.531zM64.92 30.241v-1.939h1.287v.221h-1.046v.59h.935v.218h-.935v.69h1.046v.22zM66.575 30.241v-1.939h1.068l.275.276v.619l-.275.276h-.008l.352.768h-.268l-.347-.768h-.556v.768zm.241-.981h.718l.143-.145v-.455l-.143-.145h-.718z" style="font-size:5.33333px;font-family:Tomorrow;-inkscape-font-specification:Tomorrow;fill:#000;stroke:#000;stroke-width:.0377953;stroke-miterlimit:2"/><path d="m59.263 28.89.19-.611h.151l-.094.612zm-.424 0 .19-.611h.15l-.093.612zM68.783 28.89l.094-.611h.247l-.19.612zm-.424 0 .094-.611h.247l-.19.612zM68.267 9.008l.19-.612h.151l-.094.612zm-.424 0 .19-.612h.151l-.094.612zM77.949 9.008l.094-.612h.247l-.19.612zm-.424 0 .094-.612h.247l-.19.612z" style="font-size:5.33333px;font-family:Tomorrow;-inkscape-font-specification:Tomorrow;fill:#000;stroke:none;stroke-width:.0377953;stroke-miterlimit:2"/><path d="M72.696 28.668v-2.83h-1.999l3.662-3.457 3.662 3.457h-1.952v2.83h11.722v4.399H61.416v-4.399z" style="fill:#7bffe5;fill-opacity:1;stroke:#000;stroke-width:.3;stroke-miterlimit:4;stroke-dasharray:none" transform="translate(194.938)"/><g aria-label="SECOND VICTIM" style="font-size:5.33333px;font-family:Tomorrow;-inkscape-font-specification:Tomorrow;stroke-width:.298583;stroke-miterlimit:2"><path d="M258.195 31.996v-.246h1.065l.159-.162v-.43l-.159-.162h-.836l-.305-.305v-.549l.305-.308h1.15v.247h-1.03l-.16.16.002.359.158.161h.836l.305.308v.62l-.305.307zM260.123 31.996v-2.162h1.425v.247h-1.159v.657h1.036v.243h-1.036v.769h1.16v.246zM262.208 31.996l-.308-.308v-1.546l.308-.308h.977l.3.3-.171.172-.235-.234h-.75l-.162.161v1.364l.161.161h.775l.237-.237.17.173-.305.302zM264.106 31.996l-.308-.308v-1.546l.308-.308h1.02l.309.308v1.546l-.308.308zm.12-.238h.78l.162-.16v-1.365l-.161-.161h-.78l-.162.161v1.364zM265.89 31.996v-2.162h.363l.965 1.74v-1.74h.267v2.162h-.317l-.947-1.707h-.065v1.707zM267.996 31.996v-2.162h1.173l.449.455v1.252l-.45.455zm.267-.238h.786l.302-.308v-1.07l-.302-.308h-.786zM271.231 31.996l-.733-2.162h.281l.625 1.907h.065l.624-1.907h.282l-.733 2.162zM272.595 31.996v-.246h.264v-1.67h-.264v-.246h.795v.247h-.264v1.669h.264v.246zM274.08 31.996l-.309-.308v-1.546l.308-.308h.977l.3.3-.17.172-.236-.234h-.75l-.162.161v1.364l.162.161h.774l.238-.237.17.173-.305.302zM276.15 31.996v-1.915h-.642v-.247h1.552v.247h-.643v1.915zM277.28 31.996v-.246h.264v-1.67h-.264v-.246h.794v.247h-.264v1.669h.264v.246zM278.512 31.996v-2.162h.363l.68 1.728.684-1.728h.367v2.162h-.27v-1.754l-.704 1.754h-.15l-.704-1.751v1.751z"/></g></svg>